<?xml version="1.0" encoding="UTF-8"?>
<svg width="32px" height="32px" viewBox="0 0 32 32" version="1.1" xmlns="http://www.w3.org/2000/svg" xmlns:xlink="http://www.w3.org/1999/xlink">
    <!-- Generator: Sketch 50 (54983) - http://www.bohemiancoding.com/sketch -->
    <title>pix_plugins/mod/label/icon</title>
    <desc>Created with Sketch.</desc>
    <defs></defs>
    <g id="pix_plugins/mod/label/icon" stroke="none" stroke-width="1" fill="none" fill-rule="evenodd">
        <g id="circle_background"></g>
        <path d="M11.5102041,9.17142857 C10.2163265,9.17142857 9.17142857,10.2204082 9.17142857,11.5102041 C9.17142857,12.8040816 10.2204082,13.8489796 11.5102041,13.8489796 C12.8040816,13.8489796 13.8489796,12.8 13.8489796,11.5102041 C13.8530612,10.2163265 12.8040816,9.17142857 11.5102041,9.17142857 L11.5102041,9.17142857 Z M11.5102041,13.0204082 C10.677551,13.0204082 10,12.3428571 10,11.5102041 C10,10.677551 10.677551,10 11.5102041,10 C12.3428571,10 13.0204082,10.677551 13.0204082,11.5102041 C13.0204082,12.3428571 12.3469388,13.0204082 11.5102041,13.0204082 Z" id="Shape" fill="#A22833" fill-rule="nonzero"></path>
        <path d="M16.5306122,7.76734694 C16.1061224,7.29795918 15.5102041,7.04489796 14.8693878,7.04489796 L10.4897959,7 C9.55510204,7 8.66122449,7.33877551 8.02040816,8.02040816 C7.33877551,8.66122449 7,9.55510204 7,10.4897959 L7.04081633,14.8734694 C7.08163265,15.4693878 7.29795918,16.0653061 7.76326531,16.5346939 L18.2326531,27 L27,18.2326531 L16.5306122,7.76734694 L16.5306122,7.76734694 Z M18.1918367,25.8081633 L8.31836735,15.9346939 C8.02040816,15.6367347 7.84897959,15.2530612 7.84897959,14.8285714 L7.80816327,10.4897959 C7.80816327,9.80816327 8.10612245,9.12653061 8.5755102,8.61632653 C9.08571429,8.10612245 9.76734694,7.80816327 10.4897959,7.80816327 L14.8285714,7.84897959 C15.2530612,7.84897959 15.6367347,8.02040816 15.9346939,8.31836735 L25.8081633,18.1918367 L18.1918367,25.8081633 L18.1918367,25.8081633 Z" id="Shape" fill="#A22833" fill-rule="nonzero"></path>
    </g>
</svg>