<?xml version="1.0" encoding="UTF-8"?>
<svg width="20px" height="20px" viewBox="0 0 20 20" version="1.1" xmlns="http://www.w3.org/2000/svg" xmlns:xlink="http://www.w3.org/1999/xlink">
    <!-- Generator: Sketch 50 (54983) - http://www.bohemiancoding.com/sketch -->
    <title>pix_plugins/mod/label/icon</title>
    <desc>Created with Sketch.</desc>
    <defs></defs>
    <g id="pix_plugins/mod/label/icon" stroke="none" stroke-width="1" fill="none" fill-rule="evenodd">
        <g id="circle_background" transform="translate(-6.000000, -6.000000)"></g>
        <g id="Group" transform="translate(1.000000, 1.000000)" fill="#A22833" fill-rule="nonzero">
            <path d="M9.49999436,7.27816327 C8.27081069,7.27816327 7.27815763,8.27469388 7.27815763,9.5 C7.27815763,10.7291837 8.27468824,11.7218367 9.49999436,11.7218367 C10.729178,11.7218367 11.7218311,10.7253061 11.7218311,9.5 C11.7257086,8.27081633 10.729178,7.27816327 9.49999436,7.27816327 L9.49999436,7.27816327 Z M9.49999436,10.9346939 C8.70897395,10.9346939 8.06530048,10.2910204 8.06530048,9.5 C8.06530048,8.70897959 8.70897395,8.06530612 9.49999436,8.06530612 C10.2910148,8.06530612 10.9346882,8.70897959 10.9346882,9.5 C10.9346882,10.2910204 10.2948923,10.9346939 9.49999436,10.9346939 Z" id="Shape"></path>
            <path d="M9.05408163,0.728979592 C8.65081633,0.283061224 8.08469388,0.0426530612 7.47591837,0.0426530612 L3.31530612,5.32907052e-15 C2.42734694,5.32907052e-15 1.57816327,0.321836735 0.969387755,0.969387755 C0.321836735,1.57816327 5.32907052e-15,2.42734694 5.32907052e-15,3.31530612 L0.0387755102,7.47979592 C0.0775510204,8.04591837 0.283061224,8.61204082 0.725102041,9.05795918 L10.6710204,19 L19,10.6710204 L9.05408163,0.728979592 L9.05408163,0.728979592 Z M10.6322449,17.8677551 L1.25244898,8.48795918 C0.969387755,8.20489796 0.806530612,7.84040816 0.806530612,7.43714286 L0.767755102,3.31530612 C0.767755102,2.6677551 1.05081633,2.02020408 1.49673469,1.5355102 C1.98142857,1.05081633 2.62897959,0.767755102 3.31530612,0.767755102 L7.43714286,0.806530612 C7.84040816,0.806530612 8.20489796,0.969387755 8.48795918,1.25244898 L17.8677551,10.6322449 L10.6322449,17.8677551 L10.6322449,17.8677551 Z" id="Shape"></path>
        </g>
    </g>
</svg>