<?xml version="1.0" encoding="UTF-8"?>
<svg width="32px" height="32px" viewBox="0 0 32 32" version="1.1" xmlns="http://www.w3.org/2000/svg" xmlns:xlink="http://www.w3.org/1999/xlink">
    <!-- Generator: Sketch 50 (54983) - http://www.bohemiancoding.com/sketch -->
    <title>pix_plugins/mod/hotspot/icon</title>
    <desc>Created with Sketch.</desc>
    <defs></defs>
    <g id="pix_plugins/mod/hotspot/icon" stroke="none" stroke-width="1" fill="none" fill-rule="evenodd">
        <g id="circle_background"></g>
        <path d="M21.2731509,12.7172494 C19.8135018,10.8848586 18.2864842,8.96197943 18.3313965,5.4555527 C18.3313965,5.27457584 18.2415719,5.13884319 18.0843789,5.04835476 C17.927186,4.98048843 17.7475368,4.98048843 17.6128,5.07097686 C15.1650807,6.83550129 12.9868351,10.7038817 13.615607,15.4092802 C12.7622737,14.9115938 12.2457825,14.0745758 11.6619228,13.1923136 C11.4822737,12.8982262 11.3026246,12.6041388 11.1005193,12.3326735 C11.0106947,12.219563 10.8759579,12.1290746 10.7187649,12.1516967 C10.5615719,12.1516967 10.4268351,12.2421851 10.3594667,12.3552956 C9.19174737,14.1876864 8.00157193,16.404653 8.00157193,18.8025964 C8.00157193,23.530617 11.3026246,26.9465553 15.8612211,26.9465553 C20.4647298,26.9465553 23.9454316,23.4401285 23.9454316,18.8025964 C23.9454316,16.0653213 22.5980632,14.3686632 21.2731509,12.7172494 Z M15.8612211,26.041671 C11.8191158,26.041671 8.89981754,22.9876864 8.89981754,18.8025964 C8.89981754,16.8797172 9.77560702,15.0247044 10.7636772,13.4185347 C10.8085895,13.5090231 10.8759579,13.5768895 10.9208702,13.6673779 C11.527186,14.6175064 12.1335018,15.567635 13.1664842,16.1784319 C13.458414,16.3594087 13.8177123,16.3594087 14.1096421,16.1784319 C14.4015719,15.997455 14.5587649,15.6581234 14.5138526,15.2961697 C13.9749053,11.4277892 15.5243789,8.17020566 17.455607,6.40568123 C17.6801684,9.66326478 19.207186,11.586144 20.5770105,13.3054242 C21.9019228,14.956838 23.047186,16.3820308 23.047186,18.8025964 C23.047186,22.9198201 19.9482386,26.041671 15.8612211,26.041671 Z" id="Shape" fill="#A22833" fill-rule="nonzero"></path>
        <path d="M21.9243789,17.4452699 C21.6773614,17.4452699 21.4752561,17.6488689 21.4752561,17.8977121 C21.4752561,19.3907712 21.0935018,20.7480977 20.3075368,21.9470694 C20.1728,22.1506684 20.2401684,22.4447558 20.4422737,22.5804884 C20.5096421,22.6257326 20.5994667,22.6483548 20.6892912,22.6483548 C20.8464842,22.6483548 20.9812211,22.5804884 21.0710456,22.4447558 C21.9243789,21.0874293 22.3735018,19.5717481 22.3735018,17.8977121 C22.3735018,17.6488689 22.1713965,17.4452699 21.9243789,17.4452699 Z" id="Shape" fill="#A22833" fill-rule="nonzero"></path>
        <path d="M20.0829754,22.9876864 C19.9033263,22.8293316 19.6113965,22.8519537 19.4542035,23.0329306 C19.3419228,23.1686632 19.1847298,23.3043959 19.0275368,23.4401285 C18.8478877,23.5984833 18.8254316,23.8925707 18.9826246,24.0735476 C19.0724491,24.1866581 19.207186,24.2319023 19.3194667,24.2319023 C19.4317474,24.2319023 19.5215719,24.1866581 19.6113965,24.1187918 C19.7910456,23.960437 19.9706947,23.8020823 20.1278877,23.6211054 C20.2850807,23.4401285 20.2626246,23.1460411 20.0829754,22.9876864 Z" id="Shape" fill="#A22833" fill-rule="nonzero"></path>
    </g>
</svg>