<?xml version="1.0" encoding="UTF-8"?>
<svg width="20px" height="20px" viewBox="0 0 20 20" version="1.1" xmlns="http://www.w3.org/2000/svg" xmlns:xlink="http://www.w3.org/1999/xlink">
    <!-- Generator: Sketch 50 (54983) - http://www.bohemiancoding.com/sketch -->
    <title>pix_plugins/mod/hotspot/icon</title>
    <desc>Created with Sketch.</desc>
    <defs></defs>
    <g id="pix_plugins/mod/hotspot/icon" stroke="none" stroke-width="1" fill="none" fill-rule="evenodd">
        <g id="circle_background" transform="translate(-6.000000, -6.000000)"></g>
        <g id="Group" transform="translate(3.000000, 0.000000)" fill="#A22833" fill-rule="nonzero">
            <path d="M12.0905901,7.03998395 C10.7636364,5.37417418 9.3754386,3.6261022 9.41626794,0.43844153 C9.41626794,0.273917108 9.33460925,0.150523792 9.19170654,0.0682615811 C9.04880383,0.00656492302 8.88548644,0.00656492302 8.76299841,0.0888271338 C6.53779904,1.69294024 4.55757576,5.20964976 5.1291866,9.48728472 C4.35342903,9.03484256 3.88389155,8.27391711 3.35311005,7.47186055 C3.18979266,7.20450837 3.02647528,6.93715618 2.84274322,6.69036955 C2.76108453,6.58754179 2.63859649,6.50527958 2.49569378,6.52584513 C2.35279107,6.52584513 2.23030303,6.60810734 2.16905901,6.7109351 C1.10749601,8.37674487 0.0255183413,10.392169 0.0255183413,12.5721176 C0.0255183413,16.8703181 3.02647528,19.9757166 7.17065391,19.9757166 C11.3556619,19.9757166 14.5199362,16.7880559 14.5199362,12.5721176 C14.5199362,10.0836857 13.2950558,8.54126929 12.0905901,7.03998395 Z M7.17065391,19.1530945 C3.49601276,19.1530945 0.842105263,16.3767449 0.842105263,12.5721176 C0.842105263,10.8240456 1.63827751,9.13767032 2.53652313,7.67751608 C2.57735247,7.75977829 2.63859649,7.82147495 2.67942584,7.90373716 C3.23062201,8.76749037 3.78181818,9.63124359 4.72089314,10.1865135 C4.98628389,10.3510379 5.31291866,10.3510379 5.57830941,10.1865135 C5.84370016,10.0219891 5.98660287,9.7135058 5.94577352,9.38445695 C5.45582137,5.86774744 6.86443381,2.90630785 8.62009569,1.30219474 C8.82424242,4.26363433 10.2124402,6.01170631 11.4577352,7.57468832 C12.662201,9.07597366 13.7033493,10.3716035 13.7033493,12.5721176 C13.7033493,16.3150482 10.8861244,19.1530945 7.17065391,19.1530945 Z" id="Shape"></path>
            <path d="M7.83537153,7.63496144 C7.61081013,7.63496144 7.42707807,7.82005141 7.42707807,8.04627249 C7.42707807,9.40359897 7.08002863,10.6375321 6.36551508,11.7275064 C6.24302704,11.9125964 6.30427106,12.1799486 6.48800311,12.3033419 C6.54924713,12.344473 6.63090583,12.3650386 6.71256452,12.3650386 C6.85546723,12.3650386 6.97795527,12.3033419 7.05961396,12.1799486 C7.83537153,10.9460154 8.243665,9.56812339 8.243665,8.04627249 C8.243665,7.82005141 8.05993294,7.63496144 7.83537153,7.63496144 Z" id="Shape"></path>
            <path d="M7.75247209,9.48258227 C7.5891547,9.3386234 7.32376396,9.35918895 7.18086124,9.52371337 C7.07878788,9.64710669 6.93588517,9.77050001 6.79298246,9.89389332 C6.62966507,10.0378522 6.6092504,10.3052044 6.75215311,10.4697288 C6.8338118,10.5725566 6.95629984,10.6136877 7.05837321,10.6136877 C7.16044657,10.6136877 7.24210526,10.5725566 7.32376396,10.5108599 C7.48708134,10.366901 7.65039872,10.2229422 7.79330144,10.0584177 C7.93620415,9.89389332 7.91578947,9.62654114 7.75247209,9.48258227 Z" id="Shape"></path>
        </g>
    </g>
</svg>