<?xml version="1.0" encoding="UTF-8"?>
<svg width="20px" height="20px" viewBox="0 0 20 20" version="1.1" xmlns="http://www.w3.org/2000/svg" xmlns:xlink="http://www.w3.org/1999/xlink">
    <!-- Generator: Sketch 50 (54983) - http://www.bohemiancoding.com/sketch -->
    <title>pix_plugins/mod/scheduler/icon</title>
    <desc>Created with Sketch.</desc>
    <defs></defs>
    <g id="pix_plugins/mod/scheduler/icon" stroke="none" stroke-width="1" fill="none" fill-rule="evenodd">
        <g id="circle_background" transform="translate(-6.000000, -6.000000)"></g>
        <path d="M2.53570539,18.1428668 L5.58928046,18.1428668 L5.58928046,15.0892918 L2.53570539,15.0892918 L2.53570539,18.1428668 Z M6.26785269,18.1428668 L9.66071388,18.1428668 L9.66071388,15.0892918 L6.26785269,15.0892918 L6.26785269,18.1428668 Z M2.53570539,14.4107195 L5.58928046,14.4107195 L5.58928046,11.0178584 L2.53570539,11.0178584 L2.53570539,14.4107195 Z M6.26785269,14.4107195 L9.66071388,14.4107195 L9.66071388,11.0178584 L6.26785269,11.0178584 L6.26785269,14.4107195 Z M2.53570539,10.3392861 L5.58928046,10.3392861 L5.58928046,7.28571105 L2.53570539,7.28571105 L2.53570539,10.3392861 Z M10.3392861,18.1428668 L13.7321473,18.1428668 L13.7321473,15.0892918 L10.3392861,15.0892918 L10.3392861,18.1428668 Z M6.26785269,10.3392861 L9.66071388,10.3392861 L9.66071388,7.28571105 L6.26785269,7.28571105 L6.26785269,10.3392861 Z M14.4107195,18.1428668 L17.4642946,18.1428668 L17.4642946,15.0892918 L14.4107195,15.0892918 L14.4107195,18.1428668 Z M10.3392861,14.4107195 L13.7321473,14.4107195 L13.7321473,11.0178584 L10.3392861,11.0178584 L10.3392861,14.4107195 Z M6.60713881,5.24999434 L6.60713881,2.19641927 C6.60713881,2.01617352 6.44809844,1.85713315 6.26785269,1.85713315 L5.58928046,1.85713315 C5.40903471,1.85713315 5.24999434,2.01617352 5.24999434,2.19641927 L5.24999434,5.24999434 C5.24999434,5.43024009 5.40903471,5.58928046 5.58928046,5.58928046 L6.26785269,5.58928046 C6.44809844,5.58928046 6.60713881,5.43024009 6.60713881,5.24999434 Z M14.4107195,14.4107195 L17.4642946,14.4107195 L17.4642946,11.0178584 L14.4107195,11.0178584 L14.4107195,14.4107195 Z M10.3392861,10.3392861 L13.7321473,10.3392861 L13.7321473,7.28571105 L10.3392861,7.28571105 L10.3392861,10.3392861 Z M14.4107195,10.3392861 L17.4642946,10.3392861 L17.4642946,7.28571105 L14.4107195,7.28571105 L14.4107195,10.3392861 Z M14.7500057,5.24999434 L14.7500057,2.19641927 C14.7500057,2.01617352 14.5909653,1.85713315 14.4107195,1.85713315 L13.7321473,1.85713315 C13.5519016,1.85713315 13.3928612,2.01617352 13.3928612,2.19641927 L13.3928612,5.24999434 C13.3928612,5.43024009 13.5519016,5.58928046 13.7321473,5.58928046 L14.4107195,5.58928046 C14.5909653,5.58928046 14.7500057,5.43024009 14.7500057,5.24999434 Z M18.8214391,4.5714221 L18.8214391,18.1428668 C18.8214391,18.8850552 18.206483,19.5000113 17.4642946,19.5000113 L2.53570539,19.5000113 C1.793517,19.5000113 1.17856091,18.8850552 1.17856091,18.1428668 L1.17856091,4.5714221 C1.17856091,3.82923372 1.793517,3.21427763 2.53570539,3.21427763 L3.89284986,3.21427763 L3.89284986,2.19641927 C3.89284986,1.26338244 4.65624363,0.499988675 5.58928046,0.499988675 L6.26785269,0.499988675 C7.20088952,0.499988675 7.96428329,1.26338244 7.96428329,2.19641927 L7.96428329,3.21427763 L12.0357167,3.21427763 L12.0357167,2.19641927 C12.0357167,1.26338244 12.7991105,0.499988675 13.7321473,0.499988675 L14.4107195,0.499988675 C15.3437564,0.499988675 16.1071501,1.26338244 16.1071501,2.19641927 L16.1071501,3.21427763 L17.4642946,3.21427763 C18.206483,3.21427763 18.8214391,3.82923372 18.8214391,4.5714221 Z" id="scheduler" fill="#A22833"></path>
    </g>
</svg>