<?xml version="1.0" encoding="UTF-8"?>
<svg width="32px" height="32px" viewBox="0 0 32 32" version="1.1" xmlns="http://www.w3.org/2000/svg" xmlns:xlink="http://www.w3.org/1999/xlink">
    <!-- Generator: Sketch 50 (54983) - http://www.bohemiancoding.com/sketch -->
    <title>pix_plugins/mod/scheduler/icon</title>
    <desc>Created with Sketch.</desc>
    <defs></defs>
    <g id="pix_plugins/mod/scheduler/icon" stroke="none" stroke-width="1" fill="none" fill-rule="evenodd">
        <g id="circle_background"></g>
        <path d="M8.35714447,23.6428782 L11.4107195,23.6428782 L11.4107195,20.5893031 L8.35714447,20.5893031 L8.35714447,23.6428782 Z M12.0892918,23.6428782 L15.482153,23.6428782 L15.482153,20.5893031 L12.0892918,20.5893031 L12.0892918,23.6428782 Z M8.35714447,19.9107309 L11.4107195,19.9107309 L11.4107195,16.5178697 L8.35714447,16.5178697 L8.35714447,19.9107309 Z M12.0892918,19.9107309 L15.482153,19.9107309 L15.482153,16.5178697 L12.0892918,16.5178697 L12.0892918,19.9107309 Z M8.35714447,15.8392974 L11.4107195,15.8392974 L11.4107195,12.7857224 L8.35714447,12.7857224 L8.35714447,15.8392974 Z M16.1607252,23.6428782 L19.5535864,23.6428782 L19.5535864,20.5893031 L16.1607252,20.5893031 L16.1607252,23.6428782 Z M12.0892918,15.8392974 L15.482153,15.8392974 L15.482153,12.7857224 L12.0892918,12.7857224 L12.0892918,15.8392974 Z M20.2321586,23.6428782 L23.2857337,23.6428782 L23.2857337,20.5893031 L20.2321586,20.5893031 L20.2321586,23.6428782 Z M16.1607252,19.9107309 L19.5535864,19.9107309 L19.5535864,16.5178697 L16.1607252,16.5178697 L16.1607252,19.9107309 Z M12.4285779,10.7500057 L12.4285779,7.69643059 C12.4285779,7.51618484 12.2695375,7.35714447 12.0892918,7.35714447 L11.4107195,7.35714447 C11.2304738,7.35714447 11.0714334,7.51618484 11.0714334,7.69643059 L11.0714334,10.7500057 C11.0714334,10.9302514 11.2304738,11.0892918 11.4107195,11.0892918 L12.0892918,11.0892918 C12.2695375,11.0892918 12.4285779,10.9302514 12.4285779,10.7500057 Z M20.2321586,19.9107309 L23.2857337,19.9107309 L23.2857337,16.5178697 L20.2321586,16.5178697 L20.2321586,19.9107309 Z M16.1607252,15.8392974 L19.5535864,15.8392974 L19.5535864,12.7857224 L16.1607252,12.7857224 L16.1607252,15.8392974 Z M20.2321586,15.8392974 L23.2857337,15.8392974 L23.2857337,12.7857224 L20.2321586,12.7857224 L20.2321586,15.8392974 Z M20.5714447,10.7500057 L20.5714447,7.69643059 C20.5714447,7.51618484 20.4124044,7.35714447 20.2321586,7.35714447 L19.5535864,7.35714447 C19.3733406,7.35714447 19.2143003,7.51618484 19.2143003,7.69643059 L19.2143003,10.7500057 C19.2143003,10.9302514 19.3733406,11.0892918 19.5535864,11.0892918 L20.2321586,11.0892918 C20.4124044,11.0892918 20.5714447,10.9302514 20.5714447,10.7500057 Z M24.6428782,10.0714334 L24.6428782,23.6428782 C24.6428782,24.3850666 24.0279221,25.0000226 23.2857337,25.0000226 L8.35714447,25.0000226 C7.61495609,25.0000226 7,24.3850666 7,23.6428782 L7,10.0714334 C7,9.32924504 7.61495609,8.71428895 8.35714447,8.71428895 L9.71428895,8.71428895 L9.71428895,7.69643059 C9.71428895,6.76339377 10.4776827,6 11.4107195,6 L12.0892918,6 C13.0223286,6 13.7857224,6.76339377 13.7857224,7.69643059 L13.7857224,8.71428895 L17.8571558,8.71428895 L17.8571558,7.69643059 C17.8571558,6.76339377 18.6205496,6 19.5535864,6 L20.2321586,6 C21.1651955,6 21.9285892,6.76339377 21.9285892,7.69643059 L21.9285892,8.71428895 L23.2857337,8.71428895 C24.0279221,8.71428895 24.6428782,9.32924504 24.6428782,10.0714334 Z" id="scheduler" fill="#A22833"></path>
    </g>
</svg>