<?xml version="1.0" encoding="UTF-8"?>
<svg width="20px" height="20px" viewBox="0 0 20 20" version="1.1" xmlns="http://www.w3.org/2000/svg" xmlns:xlink="http://www.w3.org/1999/xlink">
    <!-- Generator: Sketch 50 (54983) - http://www.bohemiancoding.com/sketch -->
    <title>pix_core/f/archive</title>
    <desc>Created with Sketch.</desc>
    <defs></defs>
    <g id="pix_core/f/archive" stroke="none" stroke-width="1" fill="none" fill-rule="evenodd">
        <g id="circle_background" transform="translate(-6.000000, -6.000000)"></g>
        <path d="M12.0357167,9.32142776 C12.0357167,8.95033357 11.7282387,8.64285553 11.3571445,8.64285553 L8.64285553,8.64285553 C8.27176133,8.64285553 7.96428329,8.95033357 7.96428329,9.32142776 C7.96428329,9.69252195 8.27176133,10 8.64285553,10 L11.3571445,10 C11.7282387,10 12.0357167,9.69252195 12.0357167,9.32142776 Z M18.1428668,7.28571105 L18.1428668,17.4642946 C18.1428668,17.8353888 17.8353888,18.1428668 17.4642946,18.1428668 L2.53570539,18.1428668 C2.1646112,18.1428668 1.85713315,17.8353888 1.85713315,17.4642946 L1.85713315,7.28571105 C1.85713315,6.91461686 2.1646112,6.60713881 2.53570539,6.60713881 L17.4642946,6.60713881 C17.8353888,6.60713881 18.1428668,6.91461686 18.1428668,7.28571105 Z M18.8214391,2.53570539 C18.8214391,2.1646112 18.513961,1.85713315 18.1428668,1.85713315 L1.85713315,1.85713315 C1.48603896,1.85713315 1.17856091,2.1646112 1.17856091,2.53570539 L1.17856091,5.24999434 C1.17856091,5.62108853 1.48603896,5.92856658 1.85713315,5.92856658 L18.1428668,5.92856658 C18.513961,5.92856658 18.8214391,5.62108853 18.8214391,5.24999434 L18.8214391,2.53570539 Z" id="archive" fill="#A22833"></path>
    </g>
</svg>