<?xml version="1.0" encoding="UTF-8"?>
<svg width="32px" height="32px" viewBox="0 0 32 32" version="1.1" xmlns="http://www.w3.org/2000/svg" xmlns:xlink="http://www.w3.org/1999/xlink">
    <!-- Generator: Sketch 50 (54983) - http://www.bohemiancoding.com/sketch -->
    <title>pix_core/f/archive</title>
    <desc>Created with Sketch.</desc>
    <defs></defs>
    <g id="pix_core/f/archive" stroke="none" stroke-width="1" fill="none" fill-rule="evenodd">
        <g id="circle_background"></g>
        <path d="M18.535728,15.5357054 C18.535728,15.1646112 18.22825,14.8571332 17.8571558,14.8571332 L15.1428668,14.8571332 C14.7717727,14.8571332 14.4642946,15.1646112 14.4642946,15.5357054 C14.4642946,15.9067996 14.7717727,16.2142776 15.1428668,16.2142776 L17.8571558,16.2142776 C18.22825,16.2142776 18.535728,15.9067996 18.535728,15.5357054 Z M24.6428782,13.4999887 L24.6428782,23.6785722 C24.6428782,24.0496664 24.3354001,24.3571445 23.9643059,24.3571445 L9.03571671,24.3571445 C8.66462252,24.3571445 8.35714447,24.0496664 8.35714447,23.6785722 L8.35714447,13.4999887 C8.35714447,13.1288945 8.66462252,12.8214164 9.03571671,12.8214164 L23.9643059,12.8214164 C24.3354001,12.8214164 24.6428782,13.1288945 24.6428782,13.4999887 Z M25.3214504,8.74998301 C25.3214504,8.37888882 25.0139724,8.07141078 24.6428782,8.07141078 L8.35714447,8.07141078 C7.98605028,8.07141078 7.67857224,8.37888882 7.67857224,8.74998301 L7.67857224,11.464272 C7.67857224,11.8353662 7.98605028,12.1428442 8.35714447,12.1428442 L24.6428782,12.1428442 C25.0139724,12.1428442 25.3214504,11.8353662 25.3214504,11.464272 L25.3214504,8.74998301 Z" id="archive" fill="#A22833"></path>
    </g>
</svg>