<?xml version="1.0" encoding="UTF-8"?>
<svg width="32px" height="32px" viewBox="0 0 32 32" version="1.1" xmlns="http://www.w3.org/2000/svg" xmlns:xlink="http://www.w3.org/1999/xlink">
    <!-- Generator: Sketch 50 (54983) - http://www.bohemiancoding.com/sketch -->
    <title>pix_core/f/audio-32</title>
    <desc>Created with Sketch.</desc>
    <defs></defs>
    <g id="pix_core/f/audio-32" stroke="none" stroke-width="1" fill="none" fill-rule="evenodd">
        <g id="circle_background"></g>
        <path d="M23.9218936,10.743289 C24.3141931,11.1355885 24.6428766,11.9201877 24.6428766,12.4821303 L24.6428766,24.6964306 C24.6428766,25.2583732 24.1869608,25.7142889 23.6250182,25.7142889 L9.37500121,25.7142889 C8.81305858,25.7142889 8.35714286,25.2583732 8.35714286,24.6964306 L8.35714286,7.73212466 C8.35714286,7.17018202 8.81305858,6.7142663 9.37500121,6.7142663 L18.8750125,6.7142663 C19.4369552,6.7142663 20.2215543,7.04294973 20.6138539,7.4352493 L23.9218936,10.743289 Z M19.2142987,8.1562323 L19.2142987,12.1428442 L23.2009106,12.1428442 C23.1372944,11.9625984 23.0418702,11.7823527 22.9676513,11.7081339 L19.649009,8.38949151 C19.5747902,8.31527267 19.3945444,8.21984845 19.2142987,8.1562323 Z M23.2857321,24.3571445 L23.2857321,13.4999887 L18.8750125,13.4999887 C18.3130699,13.4999887 17.8571542,13.044073 17.8571542,12.4821303 L17.8571542,8.07141078 L9.71428733,8.07141078 L9.71428733,24.3571445 L23.2857321,24.3571445 Z M14.9308114,15.7265538 C15.0580437,15.7795673 15.1428652,15.9067996 15.1428652,16.0446346 L15.1428652,21.8124986 C15.1428652,21.9503336 15.0580437,22.0775659 14.9308114,22.1305793 C14.8884006,22.141182 14.8459899,22.1517847 14.8035791,22.1517847 C14.7187576,22.1517847 14.6339361,22.1199766 14.5597172,22.0563605 L12.7996705,20.2857111 L11.4107179,20.2857111 C11.2198695,20.2857111 11.0714318,20.1372734 11.0714318,19.9464249 L11.0714318,17.9107082 C11.0714318,17.7198598 11.2198695,17.5714221 11.4107179,17.5714221 L12.7996705,17.5714221 L14.5597172,15.8007727 C14.6657441,15.7053484 14.8035791,15.6735404 14.9308114,15.7265538 Z M19.3521336,23.0318081 C19.203696,23.0318081 19.0552583,22.9787946 18.928026,22.8727677 C18.6311506,22.6395085 18.5887399,22.2154009 18.8326018,21.9185255 C19.5217767,21.0703102 19.8928709,20.0312465 19.8928709,18.9285666 C19.8928709,17.8258867 19.5217767,16.786823 18.8326018,15.9386077 C18.5887399,15.6417323 18.6311506,15.2176247 18.928026,14.9737628 C19.2142987,14.7405035 19.649009,14.7829143 19.8822682,15.0797897 C20.7622916,16.1612642 21.2500154,17.5290113 21.2500154,18.9285666 C21.2500154,20.3281218 20.7622916,21.695869 19.8822682,22.7773435 C19.7444332,22.9469865 19.5535848,23.0318081 19.3521336,23.0318081 Z M17.1149658,21.4626098 C16.9559254,21.4626098 16.7862824,21.3989936 16.6484474,21.282364 C16.3833801,21.0278994 16.3621747,20.5931891 16.627242,20.3175191 C16.9771308,19.9358222 17.1785819,19.4480984 17.1785819,18.9285666 C17.1785819,18.4090347 16.9771308,17.9213109 16.627242,17.539614 C16.3621747,17.2639441 16.3833801,16.8292337 16.6484474,16.5747691 C16.9241174,16.3203045 17.3588277,16.3309072 17.6132923,16.6065772 C18.207043,17.2427387 18.5357264,18.0591459 18.5357264,18.9285666 C18.5357264,19.7979873 18.207043,20.6143945 17.6132923,21.250556 C17.4754573,21.3883909 17.2952115,21.4626098 17.1149658,21.4626098 Z" id="audio" fill="#A22833"></path>
    </g>
</svg>