<?xml version="1.0" encoding="UTF-8"?>
<svg width="32px" height="32px" viewBox="0 0 32 32" version="1.1" xmlns="http://www.w3.org/2000/svg" xmlns:xlink="http://www.w3.org/1999/xlink">
    <!-- Generator: Sketch 50 (54983) - http://www.bohemiancoding.com/sketch -->
    <title>pix_core/f/docm-32</title>
    <desc>Created with Sketch.</desc>
    <defs></defs>
    <g id="pix_core/f/docm-32" stroke="none" stroke-width="1" fill="none" fill-rule="evenodd">
        <g id="circle_background"></g>
        <path d="M23.9218936,10.743289 C24.3141931,11.1355885 24.6428766,11.9201877 24.6428766,12.4821303 L24.6428766,24.6964306 C24.6428766,25.2583732 24.1869608,25.7142889 23.6250182,25.7142889 L9.37500121,25.7142889 C8.81305858,25.7142889 8.35714286,25.2583732 8.35714286,24.6964306 L8.35714286,7.73212466 C8.35714286,7.17018202 8.81305858,6.7142663 9.37500121,6.7142663 L18.8750125,6.7142663 C19.4369552,6.7142663 20.2215543,7.04294973 20.6138539,7.4352493 L23.9218936,10.743289 Z M19.2142987,8.1562323 L19.2142987,12.1428442 L23.2009106,12.1428442 C23.1372944,11.9625984 23.0418702,11.7823527 22.9676513,11.7081339 L19.649009,8.38949151 C19.5747902,8.31527267 19.3945444,8.21984845 19.2142987,8.1562323 Z M23.2857321,24.3571445 L23.2857321,13.4999887 L18.8750125,13.4999887 C18.3130699,13.4999887 17.8571542,13.044073 17.8571542,12.4821303 L17.8571542,8.07141078 L9.71428733,8.07141078 L9.71428733,24.3571445 L23.2857321,24.3571445 Z M12.4285763,15.1964193 C12.4285763,15.0055708 12.577014,14.8571332 12.7678624,14.8571332 L20.232157,14.8571332 C20.4230055,14.8571332 20.5714431,15.0055708 20.5714431,15.1964193 L20.5714431,15.8749915 C20.5714431,16.0658399 20.4230055,16.2142776 20.232157,16.2142776 L12.7678624,16.2142776 C12.577014,16.2142776 12.4285763,16.0658399 12.4285763,15.8749915 L12.4285763,15.1964193 Z M20.232157,17.5714221 C20.4230055,17.5714221 20.5714431,17.7198598 20.5714431,17.9107082 L20.5714431,18.5892805 C20.5714431,18.7801289 20.4230055,18.9285666 20.232157,18.9285666 L12.7678624,18.9285666 C12.577014,18.9285666 12.4285763,18.7801289 12.4285763,18.5892805 L12.4285763,17.9107082 C12.4285763,17.7198598 12.577014,17.5714221 12.7678624,17.5714221 L20.232157,17.5714221 Z M20.232157,20.2857111 C20.4230055,20.2857111 20.5714431,20.4341487 20.5714431,20.6249972 L20.5714431,21.3035694 C20.5714431,21.4944178 20.4230055,21.6428555 20.232157,21.6428555 L12.7678624,21.6428555 C12.577014,21.6428555 12.4285763,21.4944178 12.4285763,21.3035694 L12.4285763,20.6249972 C12.4285763,20.4341487 12.577014,20.2857111 12.7678624,20.2857111 L20.232157,20.2857111 Z" id="docm" fill="#A22833"></path>
    </g>
</svg>