<?xml version="1.0" encoding="UTF-8"?>
<svg width="20px" height="20px" viewBox="0 0 20 20" version="1.1" xmlns="http://www.w3.org/2000/svg" xmlns:xlink="http://www.w3.org/1999/xlink">
    <!-- Generator: Sketch 50 (54983) - http://www.bohemiancoding.com/sketch -->
    <title>pix_core/f/dotm-32</title>
    <desc>Created with Sketch.</desc>
    <defs></defs>
    <g id="pix_core/f/dotm-32" stroke="none" stroke-width="1" fill="none" fill-rule="evenodd">
        <g id="circle_background" transform="translate(-6.000000, -6.000000)"></g>
        <path d="M17.4218838,4.52901134 C17.8141834,4.92131091 18.1428668,5.70591006 18.1428668,6.26785269 L18.1428668,18.482153 C18.1428668,19.0440956 17.6869511,19.5000113 17.1250085,19.5000113 L2.87499151,19.5000113 C2.31304887,19.5000113 1.85713315,19.0440956 1.85713315,18.482153 L1.85713315,1.51784703 C1.85713315,0.955904397 2.31304887,0.499988675 2.87499151,0.499988675 L12.3750028,0.499988675 C12.9369455,0.499988675 13.7215446,0.828672103 14.1138442,1.22097168 L17.4218838,4.52901134 Z M12.7142889,1.94195468 L12.7142889,5.92856658 L16.7009008,5.92856658 C16.6372847,5.74832082 16.5418605,5.56807507 16.4676416,5.49385624 L13.1489993,2.17521389 C13.0747805,2.10099505 12.8945347,2.00557083 12.7142889,1.94195468 Z M16.7857224,18.1428668 L16.7857224,7.28571105 L12.3750028,7.28571105 C11.8130602,7.28571105 11.3571445,6.82979533 11.3571445,6.26785269 L11.3571445,1.85713315 L3.21427763,1.85713315 L3.21427763,18.1428668 L16.7857224,18.1428668 Z M5.92856658,8.98214164 C5.92856658,8.7912932 6.07700425,8.64285553 6.26785269,8.64285553 L13.7321473,8.64285553 C13.9229957,8.64285553 14.0714334,8.7912932 14.0714334,8.98214164 L14.0714334,9.66071388 C14.0714334,9.85156232 13.9229957,10 13.7321473,10 L6.26785269,10 C6.07700425,10 5.92856658,9.85156232 5.92856658,9.66071388 L5.92856658,8.98214164 Z M13.7321473,11.3571445 C13.9229957,11.3571445 14.0714334,11.5055822 14.0714334,11.6964306 L14.0714334,12.3750028 C14.0714334,12.5658513 13.9229957,12.7142889 13.7321473,12.7142889 L6.26785269,12.7142889 C6.07700425,12.7142889 5.92856658,12.5658513 5.92856658,12.3750028 L5.92856658,11.6964306 C5.92856658,11.5055822 6.07700425,11.3571445 6.26785269,11.3571445 L13.7321473,11.3571445 Z M13.7321473,14.0714334 C13.9229957,14.0714334 14.0714334,14.2198711 14.0714334,14.4107195 L14.0714334,15.0892918 C14.0714334,15.2801402 13.9229957,15.4285779 13.7321473,15.4285779 L6.26785269,15.4285779 C6.07700425,15.4285779 5.92856658,15.2801402 5.92856658,15.0892918 L5.92856658,14.4107195 C5.92856658,14.2198711 6.07700425,14.0714334 6.26785269,14.0714334 L13.7321473,14.0714334 Z" id="dotm" fill="#A22833"></path>
    </g>
</svg>