<?xml version="1.0" encoding="UTF-8"?>
<svg width="32px" height="32px" viewBox="0 0 32 32" version="1.1" xmlns="http://www.w3.org/2000/svg" xmlns:xlink="http://www.w3.org/1999/xlink">
    <!-- Generator: Sketch 50 (54983) - http://www.bohemiancoding.com/sketch -->
    <title>pix_core/f/flash</title>
    <desc>Created with Sketch.</desc>
    <defs></defs>
    <g id="pix_core/f/flash" stroke="none" stroke-width="1" fill="none" fill-rule="evenodd">
        <g id="circle_background"></g>
        <path d="M21.1333817,12.7153895 C21.0379575,12.6199653 20.9107252,12.5563492 20.7728902,12.5563492 C20.7304795,12.5563492 20.6880687,12.5669518 20.6456579,12.5775545 L16.4469922,13.6166183 L18.2600524,8.70757225 C18.2918605,8.6439561 18.3130659,8.58033995 18.3130659,8.51672381 C18.3130659,8.27286191 18.101012,8.07141078 17.8359448,8.07141078 L14.358262,8.07141078 C14.1356055,8.07141078 13.9447571,8.20924576 13.8917436,8.41069689 L11.7606027,17.1579171 C11.7287946,17.3063548 11.7712054,17.4653952 11.8984377,17.5714221 C11.9832592,17.6456409 12.1104915,17.6880517 12.2271211,17.6880517 C12.2695319,17.6880517 12.3119426,17.6880517 12.3543534,17.677449 L16.659046,16.6065772 L14.5703159,25.1735517 C14.5173024,25.3962082 14.6551374,25.6188647 14.8883966,25.6930836 C14.9414101,25.7036863 14.9944235,25.7142889 15.0368343,25.7142889 C15.2276827,25.7142889 15.3973258,25.608262 15.4821473,25.4492217 L21.2076006,13.1819079 C21.2818194,13.0228676 21.2500113,12.8426218 21.1333817,12.7153895 Z" id="flash" fill="#A22833"></path>
    </g>
</svg>