<?xml version="1.0" encoding="UTF-8"?>
<svg width="20px" height="20px" viewBox="0 0 20 20" version="1.1" xmlns="http://www.w3.org/2000/svg" xmlns:xlink="http://www.w3.org/1999/xlink">
    <!-- Generator: Sketch 50 (54983) - http://www.bohemiancoding.com/sketch -->
    <title>pix_core/f/flash</title>
    <desc>Created with Sketch.</desc>
    <defs></defs>
    <g id="pix_core/f/flash" stroke="none" stroke-width="1" fill="none" fill-rule="evenodd">
        <g id="circle_background" transform="translate(-6.000000, -6.000000)"></g>
        <path d="M14.6343784,5.82253966 C14.5389542,5.72711544 14.4117219,5.66349929 14.2738869,5.66349929 C14.2314761,5.66349929 14.1890654,5.67410199 14.1466546,5.68470468 L9.94798887,6.72376842 L11.7610491,1.81472239 C11.7928571,1.75110624 11.8140625,1.68749009 11.8140625,1.62387394 C11.8140625,1.38001205 11.6020087,1.17856091 11.3369414,1.17856091 L7.8592587,1.17856091 C7.63660219,1.17856091 7.44575374,1.3163959 7.39274029,1.51784703 L5.26159935,10.2650673 C5.22979128,10.413505 5.27220205,10.5725453 5.39943434,10.6785722 C5.48425587,10.7527911 5.61148816,10.7952018 5.72811777,10.7952018 C5.77052853,10.7952018 5.8129393,10.7952018 5.85535006,10.7845991 L10.1600427,9.71372734 L8.07131252,18.2807018 C8.01829907,18.5033584 8.15613405,18.7260149 8.38939326,18.8002337 C8.44240672,18.8108364 8.49542017,18.8214391 8.53783094,18.8214391 C8.72867938,18.8214391 8.89832244,18.7154122 8.98314397,18.5563718 L14.7085972,6.28905808 C14.7828161,6.13001771 14.751008,5.94977196 14.6343784,5.82253966 Z" id="flash" fill="#A22833"></path>
    </g>
</svg>