<?xml version="1.0" encoding="UTF-8"?>
<svg width="20px" height="20px" viewBox="0 0 20 20" version="1.1" xmlns="http://www.w3.org/2000/svg" xmlns:xlink="http://www.w3.org/1999/xlink">
    <!-- Generator: Sketch 50 (54983) - http://www.bohemiancoding.com/sketch -->
    <title>pix_core/f/folder-72</title>
    <desc>Created with Sketch.</desc>
    <defs></defs>
    <g id="pix_core/f/folder-72" stroke="none" stroke-width="1" fill="none" fill-rule="evenodd">
        <g id="circle_background" transform="translate(-6.000000, -6.000000)"></g>
        <path d="M17.6923077,15.0961538 L17.6923077,7.90384615 C17.6923077,7.36237981 17.2530048,6.92307692 16.7115385,6.92307692 L9.51923077,6.92307692 C8.97776442,6.92307692 8.53846154,6.48377404 8.53846154,5.94230769 L8.53846154,5.28846154 C8.53846154,4.74699519 8.09915865,4.30769231 7.55769231,4.30769231 L4.28846154,4.30769231 C3.74699519,4.30769231 3.30769231,4.74699519 3.30769231,5.28846154 L3.30769231,15.0961538 C3.30769231,15.6376202 3.74699519,16.0769231 4.28846154,16.0769231 L16.7115385,16.0769231 C17.2530048,16.0769231 17.6923077,15.6376202 17.6923077,15.0961538 Z M19,7.90384615 L19,15.0961538 C19,16.3527644 17.968149,17.3846154 16.7115385,17.3846154 L4.28846154,17.3846154 C3.03185096,17.3846154 2,16.3527644 2,15.0961538 L2,5.28846154 C2,4.03185096 3.03185096,3 4.28846154,3 L7.55769231,3 C8.81430288,3 9.84615385,4.03185096 9.84615385,5.28846154 L9.84615385,5.61538462 L16.7115385,5.61538462 C17.968149,5.61538462 19,6.64723558 19,7.90384615 Z" id="" fill="#A22833"></path>
    </g>
</svg>