<?xml version="1.0" encoding="UTF-8"?>
<svg width="32px" height="32px" viewBox="0 0 32 32" version="1.1" xmlns="http://www.w3.org/2000/svg" xmlns:xlink="http://www.w3.org/1999/xlink">
    <!-- Generator: Sketch 50 (54983) - http://www.bohemiancoding.com/sketch -->
    <title>pix_core/f/html</title>
    <desc>Created with Sketch.</desc>
    <defs></defs>
    <g id="pix_core/f/html" stroke="none" stroke-width="1" fill="none" fill-rule="evenodd">
        <g id="circle_background"></g>
        <path d="M23.9218936,10.743289 C24.3141931,11.1355885 24.6428766,11.9201877 24.6428766,12.4821303 L24.6428766,24.6964306 C24.6428766,25.2583732 24.1869608,25.7142889 23.6250182,25.7142889 L9.37500121,25.7142889 C8.81305858,25.7142889 8.35714286,25.2583732 8.35714286,24.6964306 L8.35714286,7.73212466 C8.35714286,7.17018202 8.81305858,6.7142663 9.37500121,6.7142663 L18.8750125,6.7142663 C19.4369552,6.7142663 20.2215543,7.04294973 20.6138539,7.4352493 L23.9218936,10.743289 Z M19.2142987,8.1562323 L19.2142987,12.1428442 L23.2009106,12.1428442 C23.1372944,11.9625984 23.0418702,11.7823527 22.9676513,11.7081339 L19.649009,8.38949151 C19.5747902,8.31527267 19.3945444,8.21984845 19.2142987,8.1562323 Z M23.2857321,24.3571445 L23.2857321,13.4999887 L18.8750125,13.4999887 C18.3130699,13.4999887 17.8571542,13.044073 17.8571542,12.4821303 L17.8571542,8.07141078 L9.71428733,8.07141078 L9.71428733,24.3571445 L23.2857321,24.3571445 Z M13.4464346,14.8571332 C13.5630642,14.7086955 13.7751181,14.6768874 13.9235557,14.793517 L14.464293,15.1964193 C14.6127307,15.3130489 14.6445387,15.5251027 14.5279091,15.6735404 L12.5982193,18.2499943 L14.5279091,20.8264483 C14.6445387,20.974886 14.6127307,21.1869398 14.464293,21.3035694 L13.9235557,21.7064717 C13.7751181,21.8231013 13.5630642,21.7912932 13.4464346,21.6428555 L11.0502264,18.4514455 C10.9654049,18.3348159 10.9654049,18.1651728 11.0502264,18.0485432 L13.4464346,14.8571332 Z M21.949793,18.0485432 C22.0346145,18.1651728 22.0346145,18.3348159 21.949793,18.4514455 L19.5535848,21.6428555 C19.4369552,21.7912932 19.2249013,21.8231013 19.0764637,21.7064717 L18.5357264,21.3035694 C18.3872887,21.1869398 18.3554807,20.974886 18.4721103,20.8264483 L20.4018001,18.2499943 L18.4721103,15.6735404 C18.3554807,15.5251027 18.3872887,15.3130489 18.5357264,15.1964193 L19.0764637,14.793517 C19.2249013,14.6768874 19.4369552,14.7086955 19.5535848,14.8571332 L21.949793,18.0485432 Z M15.3761244,22.9363839 C15.185276,22.9045758 15.0686464,22.72433 15.1004545,22.5440843 L16.5636259,13.7332479 C16.5954339,13.5423994 16.7756797,13.4257698 16.9559254,13.4575779 L17.623895,13.5636048 C17.8147434,13.5954129 17.931373,13.7756586 17.8995649,13.9559044 L16.4363936,22.7667408 C16.4045855,22.9575892 16.2243397,23.0742188 16.044094,23.0424108 L15.3761244,22.9363839 Z" id="html" fill="#A22833"></path>
    </g>
</svg>