<?xml version="1.0" encoding="UTF-8"?>
<svg width="20px" height="20px" viewBox="0 0 20 20" version="1.1" xmlns="http://www.w3.org/2000/svg" xmlns:xlink="http://www.w3.org/1999/xlink">
    <!-- Generator: Sketch 50 (54983) - http://www.bohemiancoding.com/sketch -->
    <title>pix_core/f/html-24</title>
    <desc>Created with Sketch.</desc>
    <defs></defs>
    <g id="pix_core/f/html-24" stroke="none" stroke-width="1" fill="none" fill-rule="evenodd">
        <g id="circle_background" transform="translate(-6.000000, -6.000000)"></g>
        <path d="M17.4218838,4.52901134 C17.8141834,4.92131091 18.1428668,5.70591006 18.1428668,6.26785269 L18.1428668,18.482153 C18.1428668,19.0440956 17.6869511,19.5000113 17.1250085,19.5000113 L2.87499151,19.5000113 C2.31304887,19.5000113 1.85713315,19.0440956 1.85713315,18.482153 L1.85713315,1.51784703 C1.85713315,0.955904397 2.31304887,0.499988675 2.87499151,0.499988675 L12.3750028,0.499988675 C12.9369455,0.499988675 13.7215446,0.828672103 14.1138442,1.22097168 L17.4218838,4.52901134 Z M12.7142889,1.94195468 L12.7142889,5.92856658 L16.7009008,5.92856658 C16.6372847,5.74832082 16.5418605,5.56807507 16.4676416,5.49385624 L13.1489993,2.17521389 C13.0747805,2.10099505 12.8945347,2.00557083 12.7142889,1.94195468 Z M16.7857224,18.1428668 L16.7857224,7.28571105 L12.3750028,7.28571105 C11.8130602,7.28571105 11.3571445,6.82979533 11.3571445,6.26785269 L11.3571445,1.85713315 L3.21427763,1.85713315 L3.21427763,18.1428668 L16.7857224,18.1428668 Z M6.94642493,8.64285553 C7.06305453,8.49441785 7.27510836,8.46260977 7.42354604,8.57923938 L7.96428329,8.98214164 C8.11272096,9.09877125 8.14452904,9.31082507 8.02789943,9.45926275 L6.09820963,12.0357167 L8.02789943,14.6121707 C8.14452904,14.7606084 8.11272096,14.9726622 7.96428329,15.0892918 L7.42354604,15.492194 C7.27510836,15.6088237 7.06305453,15.5770156 6.94642493,15.4285779 L4.55021672,12.2371678 C4.46539519,12.1205382 4.46539519,11.9508952 4.55021672,11.8342656 L6.94642493,8.64285553 Z M15.4497833,11.8342656 C15.5346048,11.9508952 15.5346048,12.1205382 15.4497833,12.2371678 L13.0535751,15.4285779 C12.9369455,15.5770156 12.7248916,15.6088237 12.576454,15.492194 L12.0357167,15.0892918 C11.887279,14.9726622 11.855471,14.7606084 11.9721006,14.6121707 L13.9017904,12.0357167 L11.9721006,9.45926275 C11.855471,9.31082507 11.887279,9.09877125 12.0357167,8.98214164 L12.576454,8.57923938 C12.7248916,8.46260977 12.9369455,8.49441785 13.0535751,8.64285553 L15.4497833,11.8342656 Z M8.87611473,16.7221062 C8.68526629,16.6902982 8.56863669,16.5100524 8.60044476,16.3298067 L10.0636161,7.51897026 C10.0954242,7.32812181 10.27567,7.21149221 10.4559157,7.24330029 L11.1238853,7.3493272 C11.3147337,7.38113527 11.4313633,7.56138102 11.3995552,7.74162677 L9.93638385,16.5524632 C9.90457578,16.7433116 9.72433003,16.8599412 9.54408428,16.8281331 L8.87611473,16.7221062 Z" id="html" fill="#A22833"></path>
    </g>
</svg>