<?xml version="1.0" encoding="UTF-8"?>
<svg width="32px" height="32px" viewBox="0 0 32 32" version="1.1" xmlns="http://www.w3.org/2000/svg" xmlns:xlink="http://www.w3.org/1999/xlink">
    <!-- Generator: Sketch 50 (54983) - http://www.bohemiancoding.com/sketch -->
    <title>pix_core/f/impress-24</title>
    <desc>Created with Sketch.</desc>
    <defs></defs>
    <g id="pix_core/f/impress-24" stroke="none" stroke-width="1" fill="none" fill-rule="evenodd">
        <g id="circle_background"></g>
        <path d="M16.5000129,18.7059101 C16.5000129,17.0624929 16.0971107,15.23883 14.4218855,15.23883 C13.9023536,15.5357054 13.202576,16.0446346 12.4285795,16.0446346 C11.6545831,16.0446346 10.9548054,15.5357054 10.4352736,15.23883 C8.76004836,15.23883 8.35714609,17.0624929 8.35714609,18.7059101 C8.35714609,19.6283442 8.96149949,20.2857111 9.71429057,20.2857111 L15.1428685,20.2857111 C15.8956595,20.2857111 16.5000129,19.6283442 16.5000129,18.7059101 Z M14.8353904,13.1925106 C14.8353904,11.8671742 13.7539159,10.7856997 12.4285795,10.7856997 C11.1032431,10.7856997 10.0217686,11.8671742 10.0217686,13.1925106 C10.0217686,14.5284497 11.1032431,15.5993215 12.4285795,15.5993215 C13.7539159,15.5993215 14.8353904,14.5284497 14.8353904,13.1925106 Z M24.6428798,18.5892805 L24.6428798,17.9107082 C24.6428798,17.7198598 24.4944421,17.5714221 24.3035937,17.5714221 L18.1964435,17.5714221 C18.0055951,17.5714221 17.8571574,17.7198598 17.8571574,17.9107082 L17.8571574,18.5892805 C17.8571574,18.7801289 18.0055951,18.9285666 18.1964435,18.9285666 L24.3035937,18.9285666 C24.4944421,18.9285666 24.6428798,18.7801289 24.6428798,18.5892805 Z M24.6428798,15.8325807 L24.6428798,15.23883 C24.6428798,15.0267762 24.4732367,14.8571332 24.2611829,14.8571332 L18.2388543,14.8571332 C18.0268005,14.8571332 17.8571574,15.0267762 17.8571574,15.23883 L17.8571574,15.8325807 C17.8571574,16.0446346 18.0268005,16.2142776 18.2388543,16.2142776 L24.2611829,16.2142776 C24.4732367,16.2142776 24.6428798,16.0446346 24.6428798,15.8325807 Z M24.6428798,13.1607026 L24.6428798,12.4821303 C24.6428798,12.2912819 24.4944421,12.1428442 24.3035937,12.1428442 L18.1964435,12.1428442 C18.0055951,12.1428442 17.8571574,12.2912819 17.8571574,12.4821303 L17.8571574,13.1607026 C17.8571574,13.351551 18.0055951,13.4999887 18.1964435,13.4999887 L24.3035937,13.4999887 C24.4944421,13.4999887 24.6428798,13.351551 24.6428798,13.1607026 Z M27.3571687,9.76784137 L27.3571687,22.6607139 C27.3571687,23.5937507 26.593775,24.3571445 25.6607381,24.3571445 L21.9285908,24.3571445 L21.9285908,23.3392861 C21.9285908,23.1484377 21.7801532,23 21.5893047,23 L20.9107325,23 C20.719884,23 20.5714464,23.1484377 20.5714464,23.3392861 L20.5714464,24.3571445 L12.4285795,24.3571445 L12.4285795,23.3392861 C12.4285795,23.1484377 12.2801418,23 12.0892934,23 L11.4107212,23 C11.2198727,23 11.071435,23.1484377 11.071435,23.3392861 L11.071435,24.3571445 L7.33928774,24.3571445 C6.40625091,24.3571445 5.64285714,23.5937507 5.64285714,22.6607139 L5.64285714,9.76784137 C5.64285714,8.83480454 6.40625091,8.07141078 7.33928774,8.07141078 L25.6607381,8.07141078 C26.593775,8.07141078 27.3571687,8.83480454 27.3571687,9.76784137 Z" id="impress" fill="#A22833"></path>
    </g>
</svg>