<?xml version="1.0" encoding="UTF-8"?>
<svg width="20px" height="20px" viewBox="0 0 20 20" version="1.1" xmlns="http://www.w3.org/2000/svg" xmlns:xlink="http://www.w3.org/1999/xlink">
    <!-- Generator: Sketch 50 (54983) - http://www.bohemiancoding.com/sketch -->
    <title>pix_core/f/impress</title>
    <desc>Created with Sketch.</desc>
    <defs></defs>
    <g id="pix_core/f/impress" stroke="none" stroke-width="1" fill="none" fill-rule="evenodd">
        <g id="circle_background" transform="translate(-6.000000, -6.000000)"></g>
        <path d="M9.85499954,12.6528951 C9.85499954,11.1611715 9.48928667,9.50583954 7.96869104,9.50583954 C7.49711391,9.77531219 6.86192839,10.2372653 6.15937471,10.2372653 C5.45682104,10.2372653 4.82163552,9.77531219 4.35005839,9.50583954 C2.82946276,9.50583954 2.46374989,11.1611715 2.46374989,12.6528951 C2.46374989,13.4901851 3.0123192,14.0868745 3.69562483,14.0868745 L8.6231246,14.0868745 C9.30643023,14.0868745 9.85499954,13.4901851 9.85499954,12.6528951 Z M8.34402793,7.6484031 C8.34402793,6.44540023 7.36237759,5.46374989 6.15937471,5.46374989 C4.95637184,5.46374989 3.9747215,6.44540023 3.9747215,7.6484031 C3.9747215,8.86103 4.95637184,9.83305632 6.15937471,9.83305632 C7.36237759,9.83305632 8.34402793,8.86103 8.34402793,7.6484031 Z M17.2462492,12.5470308 L17.2462492,11.9310933 C17.2462492,11.7578609 17.1115129,11.6231246 16.9382805,11.6231246 L11.3948432,11.6231246 C11.2216108,11.6231246 11.0868745,11.7578609 11.0868745,11.9310933 L11.0868745,12.5470308 C11.0868745,12.7202632 11.2216108,12.8549995 11.3948432,12.8549995 L16.9382805,12.8549995 C17.1115129,12.8549995 17.2462492,12.7202632 17.2462492,12.5470308 Z M17.2462492,10.0447848 L17.2462492,9.50583954 C17.2462492,9.31335908 17.0922648,9.15937471 16.8997844,9.15937471 L11.4333393,9.15937471 C11.2408589,9.15937471 11.0868745,9.31335908 11.0868745,9.50583954 L11.0868745,10.0447848 C11.0868745,10.2372653 11.2408589,10.3912497 11.4333393,10.3912497 L16.8997844,10.3912497 C17.0922648,10.3912497 17.2462492,10.2372653 17.2462492,10.0447848 Z M17.2462492,7.61953104 L17.2462492,7.00359356 C17.2462492,6.83036115 17.1115129,6.69562483 16.9382805,6.69562483 L11.3948432,6.69562483 C11.2216108,6.69562483 11.0868745,6.83036115 11.0868745,7.00359356 L11.0868745,7.61953104 C11.0868745,7.79276345 11.2216108,7.92749977 11.3948432,7.92749977 L16.9382805,7.92749977 C17.1115129,7.92749977 17.2462492,7.79276345 17.2462492,7.61953104 Z M19.7099991,4.53984368 L19.7099991,16.2426556 C19.7099991,17.0895697 19.0170694,17.7824993 18.1701554,17.7824993 L14.7824993,17.7824993 L14.7824993,16.8585931 C14.7824993,16.6853607 14.647763,16.5506244 14.4745306,16.5506244 L13.8585931,16.5506244 C13.6853607,16.5506244 13.5506244,16.6853607 13.5506244,16.8585931 L13.5506244,17.7824993 L6.15937471,17.7824993 L6.15937471,16.8585931 C6.15937471,16.6853607 6.02463839,16.5506244 5.85140598,16.5506244 L5.23546851,16.5506244 C5.06223609,16.5506244 4.92749977,16.6853607 4.92749977,16.8585931 L4.92749977,17.7824993 L1.53984368,17.7824993 C0.692929655,17.7824993 0,17.0895697 0,16.2426556 L0,4.53984368 C0,3.69292966 0.692929655,3 1.53984368,3 L18.1701554,3 C19.0170694,3 19.7099991,3.69292966 19.7099991,4.53984368 Z" id="impress" fill="#A22833"></path>
    </g>
</svg>