<?xml version="1.0" encoding="UTF-8"?>
<svg width="32px" height="32px" viewBox="0 0 32 32" version="1.1" xmlns="http://www.w3.org/2000/svg" xmlns:xlink="http://www.w3.org/1999/xlink">
    <!-- Generator: Sketch 50 (54983) - http://www.bohemiancoding.com/sketch -->
    <title>pix_core/f/mp3-32</title>
    <desc>Created with Sketch.</desc>
    <defs></defs>
    <g id="pix_core/f/mp3-32" stroke="none" stroke-width="1" fill="none" fill-rule="evenodd">
        <g id="circle_background"></g>
        <path d="M24.2857337,8.01785836 C24.2857337,7.45591572 23.829818,7 23.2678753,7 C23.1618484,7 23.0664242,7.01060269 22.971,7.04241076 L14.1495609,9.75669971 C13.7254533,9.8945347 13.4285779,10.2868343 13.4285779,10.7321473 L13.4285779,20.9849497 C12.7924164,20.698677 12.0926388,20.5714447 11.3928612,20.5714447 C10.2371678,20.5714447 8,21.112182 8,22.6071615 C8,24.1021409 10.2371678,24.6428782 11.3928612,24.6428782 C12.5485545,24.6428782 14.7857224,24.1021409 14.7857224,22.6071615 L14.7857224,15.0898534 L22.9285892,12.5770156 L22.9285892,18.2706608 C22.2924278,17.9843881 21.5926501,17.8571558 20.8928725,17.8571558 C19.7371792,17.8571558 17.5000113,18.3978931 17.5000113,19.8928725 C17.5000113,21.387852 19.7371792,21.9285892 20.8928725,21.9285892 C22.0485659,21.9285892 24.2857337,21.387852 24.2857337,19.8928725 L24.2857337,8.01785836 Z" id="mp3" fill="#A22833"></path>
    </g>
</svg>