<?xml version="1.0" encoding="UTF-8"?>
<svg width="20px" height="20px" viewBox="0 0 20 20" version="1.1" xmlns="http://www.w3.org/2000/svg" xmlns:xlink="http://www.w3.org/1999/xlink">
    <!-- Generator: Sketch 50 (54983) - http://www.bohemiancoding.com/sketch -->
    <title>pix_core/f/mp3-96</title>
    <desc>Created with Sketch.</desc>
    <defs></defs>
    <g id="pix_core/f/mp3-96" stroke="none" stroke-width="1" fill="none" fill-rule="evenodd">
        <g id="circle_background" transform="translate(-6.000000, -6.000000)"></g>
        <path d="M18.1428668,2.19641927 C18.1428668,1.63447663 17.6869511,1.17856091 17.1250085,1.17856091 C17.0189816,1.17856091 16.9235574,1.1891636 16.8281331,1.22097168 L8.00669405,3.93526063 C7.5825864,4.07309561 7.28571105,4.46539519 7.28571105,4.91070822 L7.28571105,15.1635106 C6.64954958,14.877238 5.94977196,14.7500057 5.24999434,14.7500057 C4.094301,14.7500057 1.85713315,15.2907429 1.85713315,16.7857224 C1.85713315,18.2807018 4.094301,18.8214391 5.24999434,18.8214391 C6.40568768,18.8214391 8.64285553,18.2807018 8.64285553,16.7857224 L8.64285553,9.26841431 L16.7857224,6.75557649 L16.7857224,12.4492217 C16.1495609,12.162949 15.4497833,12.0357167 14.7500057,12.0357167 C13.5943123,12.0357167 11.3571445,12.576454 11.3571445,14.0714334 C11.3571445,15.5664129 13.5943123,16.1071501 14.7500057,16.1071501 C15.905699,16.1071501 18.1428668,15.5664129 18.1428668,14.0714334 L18.1428668,2.19641927 Z" id="mp3" fill="#A22833"></path>
    </g>
</svg>