<?xml version="1.0" encoding="UTF-8"?>
<svg width="32px" height="32px" viewBox="0 0 32 32" version="1.1" xmlns="http://www.w3.org/2000/svg" xmlns:xlink="http://www.w3.org/1999/xlink">
    <!-- Generator: Sketch 50 (54983) - http://www.bohemiancoding.com/sketch -->
    <title>pix_core/f/mpeg-256</title>
    <desc>Created with Sketch.</desc>
    <defs></defs>
    <g id="pix_core/f/mpeg-256" stroke="none" stroke-width="1" fill="none" fill-rule="evenodd">
        <g id="circle_background"></g>
        <path d="M23.9218936,10.743289 C24.3141931,11.1355885 24.6428766,11.9201877 24.6428766,12.4821303 L24.6428766,24.6964306 C24.6428766,25.2583732 24.1869608,25.7142889 23.6250182,25.7142889 L9.37500121,25.7142889 C8.81305858,25.7142889 8.35714286,25.2583732 8.35714286,24.6964306 L8.35714286,7.73212466 C8.35714286,7.17018202 8.81305858,6.7142663 9.37500121,6.7142663 L18.8750125,6.7142663 C19.4369552,6.7142663 20.2215543,7.04294973 20.6138539,7.4352493 L23.9218936,10.743289 Z M19.2142987,8.1562323 L19.2142987,12.1428442 L23.2009106,12.1428442 C23.1372944,11.9625984 23.0418702,11.7823527 22.9676513,11.7081339 L19.649009,8.38949151 C19.5747902,8.31527267 19.3945444,8.21984845 19.2142987,8.1562323 Z M23.2857321,24.3571445 L23.2857321,13.4999887 L18.8750125,13.4999887 C18.3130699,13.4999887 17.8571542,13.044073 17.8571542,12.4821303 L17.8571542,8.07141078 L9.71428733,8.07141078 L9.71428733,24.3571445 L23.2857321,24.3571445 Z M16.5000097,14.8571332 C17.2421981,14.8571332 17.8571542,15.4720892 17.8571542,16.2142776 L17.8571542,20.2857111 C17.8571542,21.0278994 17.2421981,21.6428555 16.5000097,21.6428555 L12.4285763,21.6428555 C11.6863879,21.6428555 11.0714318,21.0278994 11.0714318,20.2857111 L11.0714318,16.2142776 C11.0714318,15.4720892 11.6863879,14.8571332 12.4285763,14.8571332 L16.5000097,14.8571332 Z M21.7165338,14.8783385 C21.8437661,14.931352 21.9285876,15.0585843 21.9285876,15.1964193 L21.9285876,21.3035694 C21.9285876,21.4414044 21.8437661,21.5686367 21.7165338,21.6216501 C21.674123,21.6322528 21.6317123,21.6428555 21.5893015,21.6428555 C21.50448,21.6428555 21.4090557,21.6110475 21.3454396,21.5474313 L18.5357264,18.7271154 L18.5357264,17.7728732 L21.3454396,14.9525574 C21.4090557,14.8889412 21.50448,14.8571332 21.5893015,14.8571332 C21.6317123,14.8571332 21.674123,14.8677358 21.7165338,14.8783385 Z" id="mpeg" fill="#A22833"></path>
    </g>
</svg>