<?xml version="1.0" encoding="UTF-8"?>
<svg width="32px" height="32px" viewBox="0 0 32 32" version="1.1" xmlns="http://www.w3.org/2000/svg" xmlns:xlink="http://www.w3.org/1999/xlink">
    <!-- Generator: Sketch 50 (54983) - http://www.bohemiancoding.com/sketch -->
    <title>pix_core/f/pdf</title>
    <desc>Created with Sketch.</desc>
    <defs></defs>
    <g id="pix_core/f/pdf" stroke="none" stroke-width="1" fill="none" fill-rule="evenodd">
        <g id="circle_background"></g>
        <path d="M23.9218936,10.743289 C24.3141931,11.1355885 24.6428766,11.9201877 24.6428766,12.4821303 L24.6428766,24.6964306 C24.6428766,25.2583732 24.1869608,25.7142889 23.6250182,25.7142889 L9.37500121,25.7142889 C8.81305858,25.7142889 8.35714286,25.2583732 8.35714286,24.6964306 L8.35714286,7.73212466 C8.35714286,7.17018202 8.81305858,6.7142663 9.37500121,6.7142663 L18.8750125,6.7142663 C19.4369552,6.7142663 20.2215543,7.04294973 20.6138539,7.4352493 L23.9218936,10.743289 Z M19.2142987,8.1562323 L19.2142987,12.1428442 L23.2009106,12.1428442 C23.1372944,11.9625984 23.0418702,11.7823527 22.9676513,11.7081339 L19.649009,8.38949151 C19.5747902,8.31527267 19.3945444,8.21984845 19.2142987,8.1562323 Z M23.2857321,24.3571445 L23.2857321,13.4999887 L18.8750125,13.4999887 C18.3130699,13.4999887 17.8571542,13.044073 17.8571542,12.4821303 L17.8571542,8.07141078 L9.71428733,8.07141078 L9.71428733,24.3571445 L23.2857321,24.3571445 Z M17.8359488,18.0697486 C18.1010161,18.2818024 18.3978914,18.4726509 18.7265749,18.6634993 C19.1718879,18.6104858 19.5853928,18.5892805 19.9670897,18.5892805 C20.67747,18.5892805 21.5786988,18.674102 21.8437661,19.1088123 C21.9179849,19.2148392 21.9816011,19.4056877 21.8649715,19.6601523 C21.8543688,19.670755 21.8437661,19.6919603 21.8331634,19.702563 L21.8331634,19.7131657 C21.8013553,19.9040142 21.6423149,20.116068 21.0803723,20.116068 C20.4018001,20.116068 19.373339,19.8085899 18.482713,19.3420715 C17.0089389,19.5011119 15.460946,19.8297953 14.326458,20.2220949 C13.2343808,22.0881686 12.3967682,23 11.7606067,23 C11.6545798,23 11.5591556,22.9787946 11.4637314,22.9257812 L11.2092668,22.7985489 C11.1774587,22.7879462 11.166856,22.7667408 11.1456506,22.7455354 C11.0926372,22.692522 11.0502264,22.5758924 11.0820345,22.3638385 C11.1880614,21.8761147 11.7606067,21.0597075 13.0753404,20.3705326 C13.160162,20.3175191 13.2661889,20.3493272 13.3192023,20.4341487 C13.329805,20.4447514 13.3404077,20.4659568 13.3404077,20.4765595 C13.6690912,19.9358222 14.050788,19.2466473 14.4748957,18.3878293 C14.9520168,17.4335871 15.323111,16.5005503 15.5775756,15.6099242 C15.2382895,14.4542309 15.1322625,13.2667295 15.323111,12.5669518 C15.3973298,12.3018846 15.5563702,12.1428442 15.768424,12.1428442 L16.0016832,12.1428442 C16.1607236,12.1428442 16.2879559,12.1958577 16.3727774,12.3018846 C16.5000097,12.4503222 16.5318178,12.6835815 16.4682016,13.0228676 C16.4575989,13.0546756 16.4469963,13.0864837 16.4257909,13.1076891 C16.4363936,13.1394972 16.4363936,13.1607026 16.4363936,13.1925106 L16.4363936,13.5105914 C16.4257909,14.1785609 16.4151882,14.8147224 16.2879559,15.5463081 C16.6590501,16.6595907 17.21039,17.5608194 17.8359488,18.0697486 Z M11.7287987,22.4274547 C12.0468794,22.279017 12.5027951,21.8231013 13.1813674,20.7522295 C12.3861655,21.3671856 11.887839,22.0669632 11.7287987,22.4274547 Z M15.9486698,12.6729788 C15.8426429,12.9698541 15.8426429,13.4787833 15.9274644,14.072534 C15.9592725,13.9028909 15.9804778,13.7438506 16.0016832,13.6060156 C16.0228886,13.4257698 16.0546967,13.2773322 16.0759021,13.1500999 C16.0865047,13.1182918 16.0971074,13.0970864 16.1183128,13.0652783 C16.1077101,13.0546756 16.1077101,13.0334703 16.0971074,13.0122649 C16.0865047,12.8214164 16.0228886,12.7047868 15.9592725,12.630568 C15.9592725,12.6517734 15.9486698,12.6623761 15.9486698,12.6729788 Z M14.6339361,19.6813577 C15.5669729,19.3102635 16.6060366,19.0133881 17.6451004,18.8225397 C17.5390734,18.7377181 17.4330465,18.6634993 17.3376223,18.5786778 C16.8180904,18.122762 16.351572,17.4866006 15.9910805,16.7126041 C15.7896294,17.3593683 15.492754,18.0485432 15.1110572,18.8013343 C14.9520168,19.0982096 14.7929764,19.395085 14.6339361,19.6813577 Z M21.4832746,19.5117146 C21.4302611,19.4587011 21.1545911,19.25725 19.9988978,19.25725 C20.5184297,19.4480984 20.9955508,19.5541254 21.3136315,19.5541254 C21.4090557,19.5541254 21.4620692,19.5541254 21.50448,19.5435227 C21.50448,19.53292 21.4938773,19.5223173 21.4832746,19.5117146 Z" id="pdf" fill="#A22833"></path>
    </g>
</svg>