<?xml version="1.0" encoding="UTF-8"?>
<svg width="20px" height="20px" viewBox="0 0 20 20" version="1.1" xmlns="http://www.w3.org/2000/svg" xmlns:xlink="http://www.w3.org/1999/xlink">
    <!-- Generator: Sketch 50 (54983) - http://www.bohemiancoding.com/sketch -->
    <title>pix_core/f/pdf</title>
    <desc>Created with Sketch.</desc>
    <defs></defs>
    <g id="pix_core/f/pdf" stroke="none" stroke-width="1" fill="none" fill-rule="evenodd">
        <g id="circle_background" transform="translate(-6.000000, -6.000000)"></g>
        <path d="M17.4218838,4.52901134 C17.8141834,4.92131091 18.1428668,5.70591006 18.1428668,6.26785269 L18.1428668,18.482153 C18.1428668,19.0440956 17.6869511,19.5000113 17.1250085,19.5000113 L2.87499151,19.5000113 C2.31304887,19.5000113 1.85713315,19.0440956 1.85713315,18.482153 L1.85713315,1.51784703 C1.85713315,0.955904397 2.31304887,0.499988675 2.87499151,0.499988675 L12.3750028,0.499988675 C12.9369455,0.499988675 13.7215446,0.828672103 14.1138442,1.22097168 L17.4218838,4.52901134 Z M12.7142889,1.94195468 L12.7142889,5.92856658 L16.7009008,5.92856658 C16.6372847,5.74832082 16.5418605,5.56807507 16.4676416,5.49385624 L13.1489993,2.17521389 C13.0747805,2.10099505 12.8945347,2.00557083 12.7142889,1.94195468 Z M16.7857224,18.1428668 L16.7857224,7.28571105 L12.3750028,7.28571105 C11.8130602,7.28571105 11.3571445,6.82979533 11.3571445,6.26785269 L11.3571445,1.85713315 L3.21427763,1.85713315 L3.21427763,18.1428668 L16.7857224,18.1428668 Z M11.3359391,11.855471 C11.6010064,12.0675248 11.8978817,12.2583732 12.2265652,12.4492217 C12.6718782,12.3962082 13.0853831,12.3750028 13.46708,12.3750028 C14.1774603,12.3750028 15.0786891,12.4598244 15.3437564,12.8945347 C15.4179752,13.0005616 15.4815914,13.1914101 15.3649618,13.4458746 C15.3543591,13.4564773 15.3437564,13.4776827 15.3331537,13.4882854 L15.3331537,13.4988881 C15.3013456,13.6897365 15.1423052,13.9017904 14.5803626,13.9017904 C13.9017904,13.9017904 12.8733293,13.5943123 11.9827033,13.1277939 C10.5089292,13.2868343 8.96093626,13.6155177 7.8264483,14.0078173 C6.73437111,15.8738909 5.8967585,16.7857224 5.26059703,16.7857224 C5.15457012,16.7857224 5.0591459,16.764517 4.96372167,16.7115035 L4.70925709,16.5842712 C4.67744901,16.5736686 4.66684632,16.5524632 4.64564094,16.5312578 C4.59262748,16.4782443 4.55021672,16.3616147 4.58202479,16.1495609 C4.6880517,15.6618371 5.26059703,14.8454299 6.57533074,14.156255 C6.66015227,14.1032415 6.76617918,14.1350496 6.81919264,14.2198711 C6.82979533,14.2304738 6.84039802,14.2516792 6.84039802,14.2622819 C7.16908145,13.7215446 7.55077833,13.0323697 7.97488598,12.1735517 C8.45200708,11.2193095 8.82310128,10.2862727 9.07756586,9.3956466 C8.73827975,8.23995326 8.63225283,7.05245184 8.82310128,6.35267422 C8.89732011,6.08760694 9.05636048,5.92856658 9.26841431,5.92856658 L9.50167351,5.92856658 C9.66071388,5.92856658 9.78794618,5.98158003 9.87276771,6.08760694 C10,6.23604462 10.0318081,6.46930383 9.96819193,6.80858995 C9.95758924,6.84039802 9.94698654,6.87220609 9.92578116,6.89341148 C9.93638385,6.92521955 9.93638385,6.94642493 9.93638385,6.978233 L9.93638385,7.29631374 C9.92578116,7.96428329 9.91517847,8.60044476 9.78794618,9.33203045 C10.1590404,10.445313 10.7103803,11.3465418 11.3359391,11.855471 Z M5.22878896,16.213177 C5.54686969,16.0647394 6.00278541,15.6088237 6.68135765,14.5379518 C5.88615581,15.1529079 5.38782932,15.8526855 5.22878896,16.213177 Z M9.44866006,6.45870114 C9.34263314,6.75557649 9.34263314,7.26450567 9.42745467,7.85825638 C9.45926275,7.68861332 9.48046813,7.52957295 9.50167351,7.39173796 C9.5228789,7.21149221 9.55468697,7.06305453 9.57589235,6.93582224 C9.58649504,6.90401417 9.59709773,6.88280878 9.61830312,6.85100071 C9.60770043,6.84039802 9.60770043,6.81919264 9.59709773,6.79798725 C9.58649504,6.60713881 9.5228789,6.49050921 9.45926275,6.41629037 C9.45926275,6.43749575 9.44866006,6.44809844 9.44866006,6.45870114 Z M8.13392635,13.46708 C9.06696317,13.0959858 10.1060269,12.7991105 11.1450907,12.608262 C11.0390637,12.5234405 10.9330368,12.4492217 10.8376126,12.3644001 C10.3180807,11.9084844 9.85156232,11.2723229 9.49107082,10.4983265 C9.28961969,11.1450907 8.99274433,11.8342656 8.61104745,12.5870567 C8.45200708,12.883932 8.29296672,13.1808074 8.13392635,13.46708 Z M14.9832649,13.297437 C14.9302514,13.2444235 14.6545814,13.0429724 13.4988881,13.0429724 C14.01842,13.2338208 14.4955411,13.3398477 14.8136218,13.3398477 C14.909046,13.3398477 14.9620595,13.3398477 15.0044703,13.329245 C15.0044703,13.3186423 14.9938676,13.3080397 14.9832649,13.297437 Z" id="pdf" fill="#A22833"></path>
    </g>
</svg>