<?xml version="1.0" encoding="UTF-8"?>
<svg width="32px" height="32px" viewBox="0 0 32 32" version="1.1" xmlns="http://www.w3.org/2000/svg" xmlns:xlink="http://www.w3.org/1999/xlink">
    <!-- Generator: Sketch 50 (54983) - http://www.bohemiancoding.com/sketch -->
    <title>pix_core/f/png-24</title>
    <desc>Created with Sketch.</desc>
    <defs></defs>
    <g id="pix_core/f/png-24" stroke="none" stroke-width="1" fill="none" fill-rule="evenodd">
        <g id="circle_background"></g>
        <path d="M23.9218936,10.743289 C24.3141931,11.1355885 24.6428766,11.9201877 24.6428766,12.4821303 L24.6428766,24.6964306 C24.6428766,25.2583732 24.1869608,25.7142889 23.6250182,25.7142889 L9.37500121,25.7142889 C8.81305858,25.7142889 8.35714286,25.2583732 8.35714286,24.6964306 L8.35714286,7.73212466 C8.35714286,7.17018202 8.81305858,6.7142663 9.37500121,6.7142663 L18.8750125,6.7142663 C19.4369552,6.7142663 20.2215543,7.04294973 20.6138539,7.4352493 L23.9218936,10.743289 Z M19.2142987,8.1562323 L19.2142987,12.1428442 L23.2009106,12.1428442 C23.1372944,11.9625984 23.0418702,11.7823527 22.9676513,11.7081339 L19.649009,8.38949151 C19.5747902,8.31527267 19.3945444,8.21984845 19.2142987,8.1562323 Z M23.2857321,24.3571445 L23.2857321,13.4999887 L18.8750125,13.4999887 C18.3130699,13.4999887 17.8571542,13.044073 17.8571542,12.4821303 L17.8571542,8.07141078 L9.71428733,8.07141078 L9.71428733,24.3571445 L23.2857321,24.3571445 Z M21.9285876,19.6071388 L21.9285876,23 L11.0714318,23 L11.0714318,20.9642833 L13.1071485,18.9285666 L14.464293,20.2857111 L18.5357264,16.2142776 L21.9285876,19.6071388 Z M13.1071485,17.5714221 C11.9832633,17.5714221 11.0714318,16.6595907 11.0714318,15.5357054 C11.0714318,14.4118201 11.9832633,13.4999887 13.1071485,13.4999887 C14.2310338,13.4999887 15.1428652,14.4118201 15.1428652,15.5357054 C15.1428652,16.6595907 14.2310338,17.5714221 13.1071485,17.5714221 Z" id="png" fill="#A22833"></path>
    </g>
</svg>