<?xml version="1.0" encoding="UTF-8"?>
<svg width="32px" height="32px" viewBox="0 0 32 32" version="1.1" xmlns="http://www.w3.org/2000/svg" xmlns:xlink="http://www.w3.org/1999/xlink">
    <!-- Generator: Sketch 50 (54983) - http://www.bohemiancoding.com/sketch -->
    <title>pix_core/f/powerpoint-32</title>
    <desc>Created with Sketch.</desc>
    <defs></defs>
    <g id="pix_core/f/powerpoint-32" stroke="none" stroke-width="1" fill="none" fill-rule="evenodd">
        <g id="circle_background"></g>
        <path d="M23.9218936,10.743289 C24.3141931,11.1355885 24.6428766,11.9201877 24.6428766,12.4821303 L24.6428766,24.6964306 C24.6428766,25.2583732 24.1869608,25.7142889 23.6250182,25.7142889 L9.37500121,25.7142889 C8.81305858,25.7142889 8.35714286,25.2583732 8.35714286,24.6964306 L8.35714286,7.73212466 C8.35714286,7.17018202 8.81305858,6.7142663 9.37500121,6.7142663 L18.8750125,6.7142663 C19.4369552,6.7142663 20.2215543,7.04294973 20.6138539,7.4352493 L23.9218936,10.743289 Z M19.2142987,8.1562323 L19.2142987,12.1428442 L23.2009106,12.1428442 C23.1372944,11.9625984 23.0418702,11.7823527 22.9676513,11.7081339 L19.649009,8.38949151 C19.5747902,8.31527267 19.3945444,8.21984845 19.2142987,8.1562323 Z M23.2857321,24.3571445 L23.2857321,13.4999887 L18.8750125,13.4999887 C18.3130699,13.4999887 17.8571542,13.044073 17.8571542,12.4821303 L17.8571542,8.07141078 L9.71428733,8.07141078 L9.71428733,24.3571445 L23.2857321,24.3571445 Z M12.7678624,23 L12.7678624,21.8761147 L13.74331,21.8761147 L13.74331,15.9916211 L12.7678624,15.9916211 L12.7678624,14.8571332 L16.6696528,14.8571332 C17.1573766,14.8571332 17.6451004,14.8995439 18.0480026,15.0585843 C18.928026,15.4296785 19.5005713,16.3203045 19.5005713,17.4759979 C19.5005713,18.6316912 18.9068206,19.6177415 17.9525784,19.9464249 C17.5708815,20.0842599 17.1573766,20.1054653 16.7014608,20.1054653 L15.2488921,20.1054653 L15.2488921,21.8761147 L16.2349424,21.8761147 L16.2349424,23 L12.7678624,23 Z M15.2488921,18.9073612 L16.5106124,18.9073612 C16.8392958,18.9073612 17.1149658,18.8543477 17.3376223,18.7483208 C17.7829353,18.5256643 17.9949892,18.0697486 17.9949892,17.4759979 C17.9949892,16.9140552 17.7829353,16.4793449 17.4012385,16.2566884 C17.1785819,16.1294561 16.8923093,16.0658399 16.5212151,16.0658399 L15.2488921,16.0658399 L15.2488921,18.9073612 Z" id="powerpoint" fill="#A22833"></path>
    </g>
</svg>