<?xml version="1.0" encoding="UTF-8"?>
<svg width="20px" height="20px" viewBox="0 0 20 20" version="1.1" xmlns="http://www.w3.org/2000/svg" xmlns:xlink="http://www.w3.org/1999/xlink">
    <!-- Generator: Sketch 50 (54983) - http://www.bohemiancoding.com/sketch -->
    <title>pix_core/f/ppam</title>
    <desc>Created with Sketch.</desc>
    <defs></defs>
    <g id="pix_core/f/ppam" stroke="none" stroke-width="1" fill="none" fill-rule="evenodd">
        <g id="circle_background" transform="translate(-6.000000, -6.000000)"></g>
        <path d="M17.4218838,4.52901134 C17.8141834,4.92131091 18.1428668,5.70591006 18.1428668,6.26785269 L18.1428668,18.482153 C18.1428668,19.0440956 17.6869511,19.5000113 17.1250085,19.5000113 L2.87499151,19.5000113 C2.31304887,19.5000113 1.85713315,19.0440956 1.85713315,18.482153 L1.85713315,1.51784703 C1.85713315,0.955904397 2.31304887,0.499988675 2.87499151,0.499988675 L12.3750028,0.499988675 C12.9369455,0.499988675 13.7215446,0.828672103 14.1138442,1.22097168 L17.4218838,4.52901134 Z M12.7142889,1.94195468 L12.7142889,5.92856658 L16.7009008,5.92856658 C16.6372847,5.74832082 16.5418605,5.56807507 16.4676416,5.49385624 L13.1489993,2.17521389 C13.0747805,2.10099505 12.8945347,2.00557083 12.7142889,1.94195468 Z M16.7857224,18.1428668 L16.7857224,7.28571105 L12.3750028,7.28571105 C11.8130602,7.28571105 11.3571445,6.82979533 11.3571445,6.26785269 L11.3571445,1.85713315 L3.21427763,1.85713315 L3.21427763,18.1428668 L16.7857224,18.1428668 Z M6.26785269,16.7857224 L6.26785269,15.6618371 L7.24330029,15.6618371 L7.24330029,9.77734348 L6.26785269,9.77734348 L6.26785269,8.64285553 L10.1696431,8.64285553 C10.6573669,8.64285553 11.1450907,8.68526629 11.5479929,8.84430666 C12.4280163,9.21540085 13.0005616,10.1060269 13.0005616,11.2617203 C13.0005616,12.4174136 12.4068109,13.4034639 11.4525687,13.7321473 C11.0708718,13.8699823 10.6573669,13.8911877 10.2014511,13.8911877 L8.74888244,13.8911877 L8.74888244,15.6618371 L9.73493272,15.6618371 L9.73493272,16.7857224 L6.26785269,16.7857224 Z M8.74888244,12.6930836 L10.0106027,12.6930836 C10.3392861,12.6930836 10.6149561,12.6400701 10.8376126,12.5340432 C11.2829256,12.3113867 11.4949795,11.855471 11.4949795,11.2617203 C11.4949795,10.6997776 11.2829256,10.2650673 10.9012288,10.0424108 C10.6785722,9.91517847 10.3922996,9.85156232 10.0212054,9.85156232 L8.74888244,9.85156232 L8.74888244,12.6930836 Z" id="ppam" fill="#A22833"></path>
    </g>
</svg>