<?xml version="1.0" encoding="UTF-8"?>
<svg width="32px" height="32px" viewBox="0 0 32 32" version="1.1" xmlns="http://www.w3.org/2000/svg" xmlns:xlink="http://www.w3.org/1999/xlink">
    <!-- Generator: Sketch 50 (54983) - http://www.bohemiancoding.com/sketch -->
    <title>pix_core/f/spreadsheet-24</title>
    <desc>Created with Sketch.</desc>
    <defs></defs>
    <g id="pix_core/f/spreadsheet-24" stroke="none" stroke-width="1" fill="none" fill-rule="evenodd">
        <g id="circle_background"></g>
        <path d="M23.9218936,10.743289 C24.3141931,11.1355885 24.6428766,11.9201877 24.6428766,12.4821303 L24.6428766,24.6964306 C24.6428766,25.2583732 24.1869608,25.7142889 23.6250182,25.7142889 L9.37500121,25.7142889 C8.81305858,25.7142889 8.35714286,25.2583732 8.35714286,24.6964306 L8.35714286,7.73212466 C8.35714286,7.17018202 8.81305858,6.7142663 9.37500121,6.7142663 L18.8750125,6.7142663 C19.4369552,6.7142663 20.2215543,7.04294973 20.6138539,7.4352493 L23.9218936,10.743289 Z M19.2142987,8.1562323 L19.2142987,12.1428442 L23.2009106,12.1428442 C23.1372944,11.9625984 23.0418702,11.7823527 22.9676513,11.7081339 L19.649009,8.38949151 C19.5747902,8.31527267 19.3945444,8.21984845 19.2142987,8.1562323 Z M23.2857321,24.3571445 L23.2857321,13.4999887 L18.8750125,13.4999887 C18.3130699,13.4999887 17.8571542,13.044073 17.8571542,12.4821303 L17.8571542,8.07141078 L9.71428733,8.07141078 L9.71428733,24.3571445 L23.2857321,24.3571445 Z M12.9056974,23 L12.9056974,21.8761147 L13.6266804,21.8761147 L15.6836025,18.8755531 L13.6796938,15.9916211 L12.9587108,15.9916211 L12.9587108,14.8571332 L16.0334913,14.8571332 L16.0334913,15.9916211 L15.2276868,15.9916211 L16.351572,17.677449 C16.4363936,17.7728732 16.489407,17.8470921 16.5318178,17.9213109 C16.5530232,17.953119 16.5742285,17.9849271 16.5848312,18.0273378 L16.6060366,18.0273378 C16.6060366,18.0379405 16.7014608,17.8789001 16.8286931,17.677449 L17.9207703,15.9916211 L17.1361712,15.9916211 L17.1361712,14.8571332 L20.094322,14.8571332 L20.094322,15.9916211 L19.3839417,15.9916211 L17.3164169,18.98158 L19.3521336,21.8761147 L20.0731166,21.8761147 L20.0731166,23 L16.9877335,23 L16.9877335,21.8761147 L17.793538,21.8761147 L16.6590501,20.1690814 C16.5848312,20.0630545 16.5212151,19.9994384 16.4788043,19.9146169 C16.4575989,19.8828088 16.4363936,19.8510007 16.4257909,19.8085899 L16.4045855,19.8085899 C16.3727774,19.8085899 16.3091613,19.9676303 16.181929,20.1690814 L15.0898518,21.8761147 L15.8850536,21.8761147 L15.8850536,23 L12.9056974,23 Z" id="spreadsheet" fill="#A22833"></path>
    </g>
</svg>