<?xml version="1.0" encoding="UTF-8"?>
<svg width="20px" height="20px" viewBox="0 0 20 20" version="1.1" xmlns="http://www.w3.org/2000/svg" xmlns:xlink="http://www.w3.org/1999/xlink">
    <!-- Generator: Sketch 50 (54983) - http://www.bohemiancoding.com/sketch -->
    <title>pix_core/f/wav-128</title>
    <desc>Created with Sketch.</desc>
    <defs></defs>
    <g id="pix_core/f/wav-128" stroke="none" stroke-width="1" fill="none" fill-rule="evenodd">
        <g id="circle_background" transform="translate(-6.000000, -6.000000)"></g>
        <path d="M17.4218838,4.52901134 C17.8141834,4.92131091 18.1428668,5.70591006 18.1428668,6.26785269 L18.1428668,18.482153 C18.1428668,19.0440956 17.6869511,19.5000113 17.1250085,19.5000113 L2.87499151,19.5000113 C2.31304887,19.5000113 1.85713315,19.0440956 1.85713315,18.482153 L1.85713315,1.51784703 C1.85713315,0.955904397 2.31304887,0.499988675 2.87499151,0.499988675 L12.3750028,0.499988675 C12.9369455,0.499988675 13.7215446,0.828672103 14.1138442,1.22097168 L17.4218838,4.52901134 Z M12.7142889,1.94195468 L12.7142889,5.92856658 L16.7009008,5.92856658 C16.6372847,5.74832082 16.5418605,5.56807507 16.4676416,5.49385624 L13.1489993,2.17521389 C13.0747805,2.10099505 12.8945347,2.00557083 12.7142889,1.94195468 Z M16.7857224,18.1428668 L16.7857224,7.28571105 L12.3750028,7.28571105 C11.8130602,7.28571105 11.3571445,6.82979533 11.3571445,6.26785269 L11.3571445,1.85713315 L3.21427763,1.85713315 L3.21427763,18.1428668 L16.7857224,18.1428668 Z M8.4308017,9.5122762 C8.558034,9.56528966 8.64285553,9.69252195 8.64285553,9.83035694 L8.64285553,15.598221 C8.64285553,15.7360559 8.558034,15.8632882 8.4308017,15.9163017 C8.38839094,15.9269044 8.34598017,15.9375071 8.30356941,15.9375071 C8.21874788,15.9375071 8.13392635,15.905699 8.05970751,15.8420829 L6.29966077,14.0714334 L4.91070822,14.0714334 C4.71985978,14.0714334 4.5714221,13.9229957 4.5714221,13.7321473 L4.5714221,11.6964306 C4.5714221,11.5055822 4.71985978,11.3571445 4.91070822,11.3571445 L6.29966077,11.3571445 L8.05970751,9.58649504 C8.16573442,9.49107082 8.30356941,9.45926275 8.4308017,9.5122762 Z M12.8521239,16.8175304 C12.7036863,16.8175304 12.5552486,16.764517 12.4280163,16.6584901 C12.1311409,16.4252309 12.0887302,16.0011232 12.3325921,15.7042479 C13.021767,14.8560326 13.3928612,13.8169688 13.3928612,12.7142889 C13.3928612,11.6116091 13.021767,10.5725453 12.3325921,9.72433003 C12.0887302,9.42745467 12.1311409,9.00334703 12.4280163,8.75948513 C12.7142889,8.52622592 13.1489993,8.56863669 13.3822585,8.86551204 C14.2622819,9.94698654 14.7500057,11.3147337 14.7500057,12.7142889 C14.7500057,14.1138442 14.2622819,15.4815914 13.3822585,16.5630659 C13.2444235,16.7327089 13.0535751,16.8175304 12.8521239,16.8175304 Z M10.6149561,15.2483321 C10.4559157,15.2483321 10.2862727,15.184716 10.1484377,15.0680864 C9.8833704,14.8136218 9.86216501,14.3789115 10.1272323,14.1032415 C10.4771211,13.7215446 10.6785722,13.2338208 10.6785722,12.7142889 C10.6785722,12.1947571 10.4771211,11.7070333 10.1272323,11.3253364 C9.86216501,11.0496664 9.8833704,10.6149561 10.1484377,10.3604915 C10.4241076,10.1060269 10.858818,10.1166296 11.1132826,10.3922996 C11.7070333,11.028461 12.0357167,11.8448683 12.0357167,12.7142889 C12.0357167,13.5837096 11.7070333,14.4001169 11.1132826,15.0362783 C10.9754476,15.1741133 10.7952018,15.2483321 10.6149561,15.2483321 Z" id="wav" fill="#A22833"></path>
    </g>
</svg>