<?xml version="1.0" encoding="UTF-8"?>
<svg width="20px" height="20px" viewBox="0 0 20 20" version="1.1" xmlns="http://www.w3.org/2000/svg" xmlns:xlink="http://www.w3.org/1999/xlink">
    <!-- Generator: Sketch 50 (54983) - http://www.bohemiancoding.com/sketch -->
    <title>pix_core/f/web-24</title>
    <desc>Created with Sketch.</desc>
    <defs></defs>
    <g id="pix_core/f/web-24" stroke="none" stroke-width="1" fill="none" fill-rule="evenodd">
        <g id="circle_background" transform="translate(-6.000000, -6.000000)"></g>
        <path d="M10,1.85713315 C14.4955411,1.85713315 18.1428668,5.50445893 18.1428668,10 C18.1428668,14.4955411 14.4955411,18.1428668 10,18.1428668 C5.50445893,18.1428668 1.85713315,14.4955411 1.85713315,10 C1.85713315,5.50445893 5.50445893,1.85713315 10,1.85713315 Z M12.9051374,7.38113527 C12.8203159,7.44475142 12.7673024,7.56138102 12.6612755,7.5825864 C12.7142889,7.57198371 12.7673024,7.38113527 12.7991105,7.33872451 C12.8627266,7.26450567 12.9475482,7.2220949 13.0323697,7.17968414 C13.2126154,7.1054653 13.3928612,7.08425992 13.5837096,7.05245184 C13.7639554,7.01004108 13.9866119,7.01004108 14.1244469,7.16908145 C14.0926388,7.13727337 14.3471034,6.91461686 14.3789115,6.90401417 C14.4743357,6.85100071 14.6333761,6.87220609 14.6969922,6.77678187 C14.7181976,6.7449738 14.7181976,6.54352267 14.7181976,6.54352267 C14.5379518,6.56472805 14.4743357,6.39508499 14.463733,6.24664731 C14.463733,6.25725 14.4425276,6.28905808 14.4001169,6.33146884 C14.4107195,6.17242847 14.2092684,6.28905808 14.1350496,6.26785269 C13.8911877,6.20423655 13.9229957,6.03459349 13.8487769,5.85434774 C13.8063661,5.75892352 13.6897365,5.72711544 13.6473258,5.63169122 C13.604915,5.56807507 13.5837096,5.43024009 13.4882854,5.4196374 C13.4246693,5.40903471 13.3080397,5.64229391 13.2868343,5.63169122 C13.1914101,5.57867777 13.1489993,5.6528966 13.0747805,5.69530737 C13.0111643,5.73771813 12.9581508,5.71651275 12.8945347,5.74832082 C13.0853831,5.68470468 12.8097132,5.57867777 12.7142889,5.59988315 C12.8627266,5.55747238 12.7885078,5.39843201 12.7036863,5.32421318 L12.7566997,5.32421318 C12.7354943,5.22878896 12.438619,5.14396743 12.3431948,5.08035128 C12.2477705,5.01673513 11.7388414,4.91070822 11.6328144,4.97432437 C11.5055822,5.0485432 11.6646225,5.26059703 11.6646225,5.36662394 C11.6752252,5.49385624 11.5373902,5.52566431 11.5373902,5.63169122 C11.5373902,5.81193697 11.8766763,5.7801289 11.7918548,6.0239908 C11.7388414,6.17242847 11.5373902,6.20423655 11.4525687,6.32086615 C11.3677472,6.42689306 11.4631714,6.6177415 11.5479929,6.69196034 C11.6328144,6.75557649 11.3995552,6.8616034 11.3677472,6.88280878 C11.1875014,6.96763031 11.0496664,6.70256303 11.0072557,6.54352267 C10.9754476,6.42689306 10.9648449,6.28905808 10.8376126,6.22544193 C10.7739965,6.20423655 10.5725453,6.17242847 10.5301346,6.23604462 C10.4665184,6.07700425 10.2438619,6.0133881 10.0954242,5.96037465 C9.8833704,5.88615581 9.70312465,5.88615581 9.48046813,5.91796388 C9.55468697,5.90736119 9.45926275,5.57867777 9.279017,5.63169122 C9.33203045,5.52566431 9.31082507,5.40903471 9.33203045,5.30300779 C9.35323584,5.21818626 9.3956466,5.13336473 9.45926275,5.0591459 C9.48046813,5.01673513 9.71372734,4.77287323 9.6395085,4.76227054 C9.81975425,4.78347592 10.0212054,4.79407862 10.1696431,4.64564094 C10.2650673,4.55021672 10.307478,4.39117635 10.4029023,4.28514944 C10.5407373,4.12610907 10.7103803,4.3275602 10.858818,4.33816289 C11.0708718,4.34876558 11.0602691,4.11550638 10.9436395,4.00947947 C11.0814745,4.02008216 10.9648449,3.76561757 10.8906261,3.73380949 C10.7952018,3.70200142 10.4347103,3.79742564 10.6255588,3.87164448 C10.583148,3.8504391 10.3286834,4.38057366 10.1802458,4.11550638 C10.137835,4.06249292 10.1166296,3.83983641 10.0212054,3.82923372 C9.93638385,3.82923372 9.8833704,3.92465794 9.85156232,3.98827408 C9.90457578,3.8504391 9.55468697,3.75501488 9.48046813,3.74441219 C9.6395085,3.63838527 9.5122762,3.52175567 9.3956466,3.45813952 C9.31082507,3.40512607 9.04575779,3.3627153 8.97153895,3.44753683 C8.77008782,3.69139873 9.18359278,3.7232068 9.28961969,3.78682295 C9.32142776,3.80802833 9.44866006,3.88224717 9.37444122,3.93526063 C9.31082507,3.9670687 9.11997663,4.02008216 9.09877125,4.06249292 C9.0351551,4.15791714 9.17299009,4.26394405 9.07756586,4.35936828 C8.98214164,4.26394405 8.98214164,4.10490369 8.90792281,3.99887677 C9.00334703,4.11550638 8.52622592,4.05189023 8.53682861,4.05189023 C8.37778824,4.05189023 8.12332366,4.15791714 8.00669405,3.99887677 C7.98548867,3.95646601 7.98548867,3.71260411 8.04910482,3.76561757 C7.9536806,3.69139873 7.89006445,3.61717989 7.8264483,3.57476913 C7.47655949,3.69139873 7.14787606,3.83983641 6.82979533,4.00947947 C6.87220609,4.02008216 6.90401417,4.02008216 6.95702762,3.99887677 C7.04184915,3.9670687 7.11606799,3.91405524 7.20088952,3.87164448 C7.30691643,3.82923372 7.52957295,3.70200142 7.64620255,3.79742564 C7.65680524,3.77622026 7.68861332,3.75501488 7.69921601,3.74441219 C7.77343485,3.82923372 7.84765368,3.91405524 7.91126983,4.00947947 C7.8264483,3.9670687 7.68861332,3.98827408 7.5931891,3.99887677 C7.51897026,4.02008216 7.39173796,4.04128754 7.35992989,4.12610907 C7.39173796,4.17912253 7.43414873,4.26394405 7.41294334,4.31695751 C7.27510836,4.22153329 7.16908145,4.06249292 6.978233,4.04128754 C6.89341148,4.04128754 6.80858995,4.04128754 6.7449738,4.05189023 C5.72711544,4.61383286 4.86829745,5.43024009 4.25334136,6.40568768 C4.29575213,6.44809844 4.33816289,6.47990652 4.38057366,6.49050921 C4.48660057,6.52231728 4.38057366,6.82979533 4.58202479,6.67075496 C4.64564094,6.72376842 4.65624363,6.79798725 4.61383286,6.87220609 C4.62443556,6.8616034 5.0485432,7.13727337 5.08035128,7.15847876 C5.15457012,7.2220949 5.27119972,7.29631374 5.30300779,7.38113527 C5.32421318,7.45535411 5.26059703,7.54017564 5.19698088,7.57198371 C5.18637819,7.55077833 5.02733782,7.39173796 5.00613244,7.43414873 C4.97432437,7.48716218 5.00613244,7.77343485 5.12276204,7.76283215 C4.95311898,7.77343485 5.02733782,8.4308017 4.98492706,8.558034 C4.98492706,8.56863669 5.00613244,8.56863669 5.00613244,8.56863669 C4.97432437,8.69586898 5.08035128,9.19419547 5.2924051,9.14118201 C5.15457012,9.17299009 5.536267,9.66071388 5.58928046,9.69252195 C5.72711544,9.78794618 5.88615581,9.85156232 5.98158003,9.98939731 C6.08760694,10.137835 6.08760694,10.3604915 6.23604462,10.4771211 C6.19363386,10.6043534 6.45870114,10.7527911 6.44809844,10.9330368 C6.42689306,10.9436395 6.41629037,10.9436395 6.39508499,10.9542422 C6.44809844,11.1026799 6.64954958,11.1026799 6.72376842,11.2405149 C6.76617918,11.3253364 6.72376842,11.5267875 6.8616034,11.4843768 C6.88280878,11.2511176 6.72376842,11.0178584 6.60713881,10.8270099 C6.54352267,10.720983 6.47990652,10.6255588 6.42689306,10.5195319 C6.37387961,10.4241076 6.36327691,10.307478 6.32086615,10.2014511 C6.36327691,10.2120538 6.59653612,10.2968754 6.57533074,10.3286834 C6.49050921,10.5407373 6.91461686,10.9118314 7.03124646,11.0496664 C7.06305453,11.0814745 7.30691643,11.3995552 7.17968414,11.3995552 C7.31751912,11.3995552 7.50836757,11.6116091 7.57198371,11.717636 C7.66740793,11.8766763 7.64620255,12.0781275 7.7098187,12.2477705 C7.77343485,12.4598244 8.0703102,12.5552486 8.23995326,12.6506728 C8.38839094,12.7248916 8.51562323,12.8309186 8.66406091,12.883932 C8.88671742,12.9687535 8.93973088,12.8945347 9.13057932,12.8627266 C9.40624929,12.8203159 9.43805737,13.1277939 9.66071388,13.2444235 C9.79854887,13.3186423 10.0954242,13.4246693 10.2438619,13.3610531 C10.1802458,13.3822585 10.4665184,13.8169688 10.4877238,13.8487769 C10.583148,13.9760092 10.7633938,14.0396254 10.8694207,14.1668576 C10.9012288,14.1456523 10.9330368,14.1138442 10.9436395,14.0714334 C10.9012288,14.188063 11.1026799,14.4107195 11.2087068,14.3895142 C11.3253364,14.3683088 11.3571445,14.1350496 11.3571445,14.050228 C11.1450907,14.156255 10.9542422,14.0714334 10.8376126,13.8593796 C10.8164072,13.8063661 10.6467642,13.5094908 10.7952018,13.5094908 C10.996653,13.5094908 10.858818,13.3504504 10.8376126,13.2020127 C10.8164072,13.0535751 10.6679695,12.9581508 10.5937507,12.8309186 C10.5301346,12.9581508 10.3180807,12.9263428 10.2544646,12.8203159 C10.2544646,12.8521239 10.2226565,12.9051374 10.2226565,12.9475482 C10.1696431,12.9475482 10.1166296,12.9581508 10.0636161,12.9369455 C10.0848215,12.8097132 10.0954242,12.6506728 10.1272323,12.5128378 C10.1802458,12.3219894 10.5301346,11.9508952 10.0742188,11.9721006 C9.91517847,11.9827033 9.85156232,12.0463194 9.79854887,12.1841544 C9.74553541,12.3113867 9.76674079,12.4280163 9.61830312,12.4916324 C9.5228789,12.5340432 9.20479816,12.5128378 9.10937394,12.4598244 C8.90792281,12.3431948 8.77008782,11.9721006 8.77008782,11.7600467 C8.75948513,11.4737741 8.90792281,11.2193095 8.77008782,10.9542422 C8.83370397,10.9012288 8.89732011,10.7952018 8.97153895,10.7421884 C9.0351551,10.6997776 9.10937394,10.7739965 9.14118201,10.6467642 C9.10937394,10.6255588 9.06696317,10.583148 9.05636048,10.583148 C9.21540085,10.6573669 9.5122762,10.4771211 9.65011119,10.583148 C9.73493272,10.6467642 9.83035694,10.6679695 9.8833704,10.5619426 C9.89397309,10.5301346 9.80915156,10.4029023 9.85156232,10.3180807 C9.8833704,10.4983265 10,10.5301346 10.1590404,10.413505 C10.2226565,10.4771211 10.3922996,10.4559157 10.5089292,10.5195319 C10.6255588,10.5937507 10.6467642,10.7103803 10.7845991,10.5513399 C10.8694207,10.6785722 10.8800234,10.6785722 10.9118314,10.8058045 C10.9436395,10.9224341 11.0072557,11.2193095 11.1132826,11.2723229 C11.3359391,11.4101579 11.2829256,11.0390637 11.2617203,10.9118314 C11.2511176,10.9012288 11.2511176,10.5513399 11.2405149,10.5513399 C10.9012288,10.4771211 11.028461,10.2120538 11.2193095,10.0318081 C11.2511176,10.0106027 11.4949795,9.92578116 11.6010064,9.84095963 C11.6964306,9.7561381 11.8130602,9.60770043 11.7600467,9.46986544 C11.8130602,9.46986544 11.855471,9.42745467 11.8766763,9.37444122 C11.8448683,9.36383853 11.717636,9.25781162 11.6964306,9.26841431 C11.7706494,9.22600354 11.7600467,9.16238739 11.717636,9.09877125 C11.8236629,9.0351551 11.7706494,8.9185255 11.8766763,8.87611473 C11.9933059,9.0351551 12.2265652,8.85490935 12.1099356,8.72767705 C12.2159625,8.57923938 12.4598244,8.65345822 12.5234405,8.51562323 C12.6824809,8.558034 12.5658513,8.35658286 12.6506728,8.23995326 C12.7248916,8.14452904 12.8521239,8.14452904 12.9475482,8.09151558 C12.9475482,8.10211827 13.2126154,7.94307791 13.1277939,7.93247521 C13.3080397,7.9536806 13.6685312,7.76283215 13.3928612,7.60379179 C13.435272,7.50836757 13.297437,7.4659568 13.2020127,7.44475142 C13.2762316,7.42354604 13.3716558,7.4659568 13.435272,7.42354604 C13.5731069,7.32812181 13.4776827,7.28571105 13.3610531,7.25390298 C13.2126154,7.21149221 13.021767,7.30691643 12.9051374,7.38113527 Z M11.1768987,16.6796955 C12.6294674,16.4252309 13.9229957,15.7042479 14.8984433,14.6757868 C14.8348272,14.6121707 14.7181976,14.6333761 14.6333761,14.5909653 C14.5485545,14.5591572 14.4849384,14.5273491 14.3789115,14.5061438 C14.4001169,14.2940899 14.1668576,14.2198711 14.01842,14.1138442 C13.880585,14.0078173 13.7957635,13.8911877 13.5943123,13.9335984 C13.5731069,13.9442011 13.3610531,14.01842 13.4034639,14.0608307 C13.2656289,13.9442011 13.2020127,13.880585 13.021767,13.8275715 C12.8521239,13.7745581 12.7354943,13.5625042 12.5658513,13.7533527 C12.4810297,13.8381742 12.5234405,13.9654065 12.4810297,14.050228 C12.3431948,13.9335984 12.608262,13.7957635 12.5022351,13.6685312 C12.3750028,13.5200935 12.1523463,13.7639554 12.0463194,13.8275715 C11.9827033,13.880585 11.9084844,13.9017904 11.8660737,13.9654065 C11.8130602,14.0396254 11.7918548,14.1350496 11.749444,14.2092684 C11.717636,14.1244469 11.5373902,14.1456523 11.5267875,14.0820361 C11.5691983,14.3365007 11.5691983,14.601568 11.6222118,14.8560326 C11.6540198,15.0044703 11.6222118,15.2483321 11.4949795,15.3649618 C11.3677472,15.4815914 11.2087068,15.6088237 11.1875014,15.7890694 C11.166296,15.9163017 11.1981041,16.0329313 11.3147337,16.0647394 C11.3253364,16.2237797 11.1450907,16.3404093 11.1556933,16.5100524 C11.1556933,16.5206551 11.166296,16.626682 11.1768987,16.6796955 Z" id="web" fill="#A22833"></path>
    </g>
</svg>