<?xml version="1.0" encoding="UTF-8"?>
<svg width="32px" height="32px" viewBox="0 0 32 32" version="1.1" xmlns="http://www.w3.org/2000/svg" xmlns:xlink="http://www.w3.org/1999/xlink">
    <!-- Generator: Sketch 50 (54983) - http://www.bohemiancoding.com/sketch -->
    <title>pix_core/f/web-24</title>
    <desc>Created with Sketch.</desc>
    <defs></defs>
    <g id="pix_core/f/web-24" stroke="none" stroke-width="1" fill="none" fill-rule="evenodd">
        <g id="circle_background"></g>
        <path d="M16.5000097,8.07141078 C20.9955508,8.07141078 24.6428766,11.7187366 24.6428766,16.2142776 C24.6428766,20.7098187 20.9955508,24.3571445 16.5000097,24.3571445 C12.0044686,24.3571445 8.35714286,20.7098187 8.35714286,16.2142776 C8.35714286,11.7187366 12.0044686,8.07141078 16.5000097,8.07141078 Z M19.4051471,13.5954129 C19.3203256,13.659029 19.2673121,13.7756586 19.1612852,13.796864 C19.2142987,13.7862613 19.2673121,13.5954129 19.2991202,13.5530021 C19.3627363,13.4787833 19.4475579,13.4363725 19.5323794,13.3939618 C19.7126251,13.3197429 19.8928709,13.2985375 20.0837193,13.2667295 C20.2639651,13.2243187 20.4866216,13.2243187 20.6244566,13.3833591 C20.5926485,13.351551 20.8471131,13.1288945 20.8789212,13.1182918 C20.9743454,13.0652783 21.1333858,13.0864837 21.1970019,12.9910595 C21.2182073,12.9592514 21.2182073,12.7578003 21.2182073,12.7578003 C21.0379615,12.7790057 20.9743454,12.6093626 20.9637427,12.4609249 C20.9637427,12.4715276 20.9425373,12.5033357 20.9001266,12.5457465 C20.9107293,12.3867061 20.7092781,12.5033357 20.6350593,12.4821303 C20.3911974,12.4185142 20.4230055,12.2488711 20.3487866,12.0686254 C20.3063759,11.9732011 20.1897462,11.9413931 20.1473355,11.8459688 C20.1049247,11.7823527 20.0837193,11.6445177 19.9882951,11.633915 C19.924679,11.6233123 19.8080494,11.8565715 19.786844,11.8459688 C19.6914198,11.7929554 19.649009,11.8671742 19.5747902,11.909585 C19.511174,11.9519958 19.4581606,11.9307904 19.3945444,11.9625984 C19.5853928,11.8989823 19.3097229,11.7929554 19.2142987,11.8141608 C19.3627363,11.77175 19.2885175,11.6127096 19.203696,11.5384908 L19.2567094,11.5384908 C19.235504,11.4430666 18.9386287,11.3582451 18.8432045,11.2946289 C18.7477802,11.2310128 18.2388511,11.1249858 18.1328242,11.188602 C18.0055919,11.2628208 18.1646322,11.4748747 18.1646322,11.5809016 C18.1752349,11.7081339 18.0373999,11.7399419 18.0373999,11.8459688 C18.0373999,12.0262146 18.3766861,11.9944065 18.2918645,12.2382684 C18.2388511,12.3867061 18.0373999,12.4185142 17.9525784,12.5351438 C17.8677569,12.6411707 17.9631811,12.8320191 18.0480026,12.906238 C18.1328242,12.9698541 17.8995649,13.075881 17.8677569,13.0970864 C17.6875111,13.1819079 17.5496761,12.9168407 17.5072654,12.7578003 C17.4754573,12.6411707 17.4648546,12.5033357 17.3376223,12.4397196 C17.2740062,12.4185142 17.072555,12.3867061 17.0301443,12.4503222 C16.9665281,12.2912819 16.7438716,12.2276657 16.5954339,12.1746523 C16.3833801,12.1004334 16.2031344,12.1004334 15.9804778,12.1322415 C16.0546967,12.1216388 15.9592725,11.7929554 15.7790267,11.8459688 C15.8320402,11.7399419 15.8108348,11.6233123 15.8320402,11.5172854 C15.8532455,11.4324639 15.8956563,11.3476424 15.9592725,11.2734235 C15.9804778,11.2310128 16.213737,10.9871509 16.1395182,10.9765482 C16.319764,10.9977535 16.5212151,11.0083562 16.6696528,10.8599186 C16.765077,10.7644943 16.8074878,10.605454 16.902912,10.4994271 C17.040747,10.3403867 17.21039,10.5418378 17.3588277,10.5524405 C17.5708815,10.5630432 17.5602788,10.329784 17.4436492,10.2237571 C17.5814842,10.2343598 17.4648546,9.97989519 17.3906358,9.94808712 C17.2952115,9.91627905 16.93472,10.0117033 17.1255685,10.0859221 C17.0831577,10.0647167 16.8286931,10.5948513 16.6802555,10.329784 C16.6378447,10.2767705 16.6166393,10.054114 16.5212151,10.0435113 C16.4363936,10.0435113 16.3833801,10.1389356 16.351572,10.2025517 C16.4045855,10.0647167 16.0546967,9.9692925 15.9804778,9.95868981 C16.1395182,9.8526629 16.0122859,9.7360333 15.8956563,9.67241715 C15.8108348,9.61940369 15.5457675,9.57699293 15.4715487,9.66181446 C15.2700975,9.90567635 15.6836025,9.93748443 15.7896294,10.0011006 C15.8214375,10.022306 15.9486698,10.0965248 15.8744509,10.1495383 C15.8108348,10.1813463 15.6199863,10.2343598 15.598781,10.2767705 C15.5351648,10.3721948 15.6729998,10.4782217 15.5775756,10.5736459 C15.4821514,10.4782217 15.4821514,10.3191813 15.4079325,10.2131544 C15.5033567,10.329784 15.0262356,10.2661679 15.0368383,10.2661679 C14.877798,10.2661679 14.6233334,10.3721948 14.5067038,10.2131544 C14.4854984,10.1707436 14.4854984,9.92688174 14.5491145,9.97989519 C14.4536903,9.90567635 14.3900742,9.83145752 14.326458,9.78904675 C13.9765692,9.90567635 13.6478858,10.054114 13.329805,10.2237571 C13.3722158,10.2343598 13.4040239,10.2343598 13.4570373,10.2131544 C13.5418589,10.1813463 13.6160777,10.1283329 13.7008992,10.0859221 C13.8069261,10.0435113 14.0295827,9.91627905 14.1462123,10.0117033 C14.1568149,9.99049788 14.188623,9.9692925 14.1992257,9.95868981 C14.2734446,10.0435113 14.3476634,10.1283329 14.4112795,10.2237571 C14.326458,10.1813463 14.188623,10.2025517 14.0931988,10.2131544 C14.01898,10.2343598 13.8917477,10.2555652 13.8599396,10.3403867 C13.8917477,10.3934002 13.9341584,10.4782217 13.9129531,10.5312351 C13.7751181,10.4358109 13.6690912,10.2767705 13.4782427,10.2555652 C13.3934212,10.2555652 13.3085997,10.2555652 13.2449835,10.2661679 C12.2271251,10.8281105 11.3683072,11.6445177 10.7533511,12.6199653 C10.7957618,12.6623761 10.8381726,12.6941841 10.8805834,12.7047868 C10.9866103,12.7365949 10.8805834,13.044073 11.0820345,12.8850326 C11.1456506,12.938046 11.1562533,13.0122649 11.1138426,13.0864837 C11.1244453,13.075881 11.5485529,13.351551 11.580361,13.3727564 C11.6545798,13.4363725 11.7712094,13.5105914 11.8030175,13.5954129 C11.8242229,13.6696317 11.7606067,13.7544533 11.6969906,13.7862613 C11.6863879,13.765056 11.5273475,13.6060156 11.5061421,13.6484264 C11.4743341,13.7014398 11.5061421,13.9877125 11.6227718,13.9771098 C11.4531287,13.9877125 11.5273475,14.6450793 11.4849368,14.7723116 C11.4849368,14.7829143 11.5061421,14.7829143 11.5061421,14.7829143 C11.4743341,14.9101466 11.580361,15.4084731 11.7924148,15.3554596 C11.6545798,15.3872677 12.0362767,15.8749915 12.0892902,15.9067996 C12.2271251,16.0022238 12.3861655,16.0658399 12.4815897,16.2036749 C12.5876167,16.3521126 12.5876167,16.5747691 12.7360543,16.6913987 C12.6936436,16.818631 12.9587108,16.9670687 12.9481082,17.1473145 C12.9269028,17.1579171 12.9163001,17.1579171 12.8950947,17.1685198 C12.9481082,17.3169575 13.1495593,17.3169575 13.2237781,17.4547925 C13.2661889,17.539614 13.2237781,17.7410652 13.3616131,17.6986544 C13.3828185,17.4653952 13.2237781,17.232136 13.1071485,17.0412875 C13.0435324,16.9352606 12.9799162,16.8398364 12.9269028,16.7338095 C12.8738893,16.6383853 12.8632866,16.5217557 12.8208759,16.4157288 C12.8632866,16.4263314 13.0965458,16.511153 13.0753404,16.5429611 C12.9905189,16.7550149 13.4146266,17.1261091 13.5312562,17.2639441 C13.5630642,17.2957521 13.8069261,17.6138329 13.6796938,17.6138329 C13.8175288,17.6138329 14.0083773,17.8258867 14.0719934,17.9319136 C14.1674176,18.090954 14.1462123,18.2924051 14.2098284,18.4620482 C14.2734446,18.674102 14.5703199,18.7695262 14.739963,18.8649504 C14.8884006,18.9391693 15.0156329,19.0451962 15.1640706,19.0982096 C15.3867271,19.1830312 15.4397406,19.1088123 15.630589,19.0770043 C15.906259,19.0345935 15.9380671,19.3420715 16.1607236,19.4587011 C16.2985586,19.53292 16.5954339,19.6389469 16.7438716,19.5753307 C16.6802555,19.5965361 16.9665281,20.0312465 16.9877335,20.0630545 C17.0831577,20.1902868 17.2634035,20.253903 17.3694304,20.3811353 C17.4012385,20.3599299 17.4330465,20.3281218 17.4436492,20.2857111 C17.4012385,20.4023407 17.6026896,20.6249972 17.7087165,20.6037918 C17.8253461,20.5825864 17.8571542,20.3493272 17.8571542,20.2645057 C17.6451004,20.3705326 17.4542519,20.2857111 17.3376223,20.0736572 C17.3164169,20.0206438 17.1467739,19.7237684 17.2952115,19.7237684 C17.4966627,19.7237684 17.3588277,19.564728 17.3376223,19.4162904 C17.3164169,19.2678527 17.1679793,19.1724285 17.0937604,19.0451962 C17.0301443,19.1724285 16.8180904,19.1406204 16.7544743,19.0345935 C16.7544743,19.0664016 16.7226662,19.119415 16.7226662,19.1618258 C16.6696528,19.1618258 16.6166393,19.1724285 16.5636259,19.1512231 C16.5848312,19.0239908 16.5954339,18.8649504 16.627242,18.7271154 C16.6802555,18.536267 17.0301443,18.1651728 16.5742285,18.1863782 C16.4151882,18.1969809 16.351572,18.260597 16.2985586,18.398432 C16.2455451,18.5256643 16.2667505,18.6422939 16.1183128,18.7059101 C16.0228886,18.7483208 15.7048079,18.7271154 15.6093836,18.674102 C15.4079325,18.5574724 15.2700975,18.1863782 15.2700975,17.9743244 C15.2594948,17.6880517 15.4079325,17.4335871 15.2700975,17.1685198 C15.3337137,17.1155064 15.3973298,17.0094795 15.4715487,16.956466 C15.5351648,16.9140552 15.6093836,16.9882741 15.6411917,16.8610418 C15.6093836,16.8398364 15.5669729,16.7974256 15.5563702,16.7974256 C15.7154106,16.8716445 16.0122859,16.6913987 16.1501209,16.7974256 C16.2349424,16.8610418 16.3303666,16.8822472 16.3833801,16.7762203 C16.3939828,16.7444122 16.3091613,16.6171799 16.351572,16.5323584 C16.3833801,16.7126041 16.5000097,16.7444122 16.6590501,16.6277826 C16.7226662,16.6913987 16.8923093,16.6701933 17.0089389,16.7338095 C17.1255685,16.8080283 17.1467739,16.9246579 17.2846089,16.7656176 C17.3694304,16.8928499 17.3800331,16.8928499 17.4118412,17.0200822 C17.4436492,17.1367118 17.5072654,17.4335871 17.6132923,17.4866006 C17.8359488,17.6244356 17.7829353,17.2533414 17.76173,17.1261091 C17.7511273,17.1155064 17.7511273,16.7656176 17.7405246,16.7656176 C17.4012385,16.6913987 17.5284708,16.4263314 17.7193192,16.2460857 C17.7511273,16.2248803 17.9949892,16.1400588 18.1010161,16.0552373 C18.1964403,15.9704157 18.3130699,15.8219781 18.2600564,15.6841431 C18.3130699,15.6841431 18.3554807,15.6417323 18.3766861,15.5887188 C18.344878,15.5781162 18.2176457,15.4720892 18.1964403,15.4826919 C18.2706591,15.4402812 18.2600564,15.376665 18.2176457,15.3130489 C18.3236726,15.2494327 18.2706591,15.1328031 18.3766861,15.0903924 C18.4933157,15.2494327 18.7265749,15.069187 18.6099453,14.9419547 C18.7159722,14.793517 18.9598341,14.8677358 19.0234502,14.7299009 C19.1824906,14.7723116 19.065861,14.5708605 19.1506825,14.4542309 C19.2249013,14.3588067 19.3521336,14.3588067 19.4475579,14.3057932 C19.4475579,14.3163959 19.7126251,14.1573555 19.6278036,14.1467528 C19.8080494,14.1679582 20.1685409,13.9771098 19.8928709,13.8180694 C19.9352817,13.7226452 19.7974467,13.6802344 19.7020225,13.659029 C19.7762413,13.6378237 19.8716655,13.6802344 19.9352817,13.6378237 C20.0731166,13.5423994 19.9776924,13.4999887 19.8610628,13.4681806 C19.7126251,13.4257698 19.5217767,13.5211941 19.4051471,13.5954129 Z M17.6769084,22.8939731 C19.1294771,22.6395085 20.4230055,21.9185255 21.398453,20.8900644 C21.3348369,20.8264483 21.2182073,20.8476537 21.1333858,20.8052429 C21.0485642,20.7734348 20.9849481,20.7416268 20.8789212,20.7204214 C20.9001266,20.5083676 20.6668674,20.4341487 20.5184297,20.3281218 C20.3805947,20.2220949 20.2957732,20.1054653 20.094322,20.1478761 C20.0731166,20.1584788 19.8610628,20.2326976 19.9034736,20.2751084 C19.7656386,20.1584788 19.7020225,20.0948626 19.5217767,20.0418492 C19.3521336,19.9888357 19.235504,19.7767819 19.065861,19.9676303 C18.9810395,20.0524518 19.0234502,20.1796841 18.9810395,20.2645057 C18.8432045,20.1478761 19.1082717,20.0100411 19.0022448,19.8828088 C18.8750125,19.7343711 18.652356,19.978233 18.5463291,20.0418492 C18.482713,20.0948626 18.4084941,20.116068 18.3660834,20.1796841 C18.3130699,20.253903 18.2918645,20.3493272 18.2494538,20.423546 C18.2176457,20.3387245 18.0373999,20.3599299 18.0267972,20.2963137 C18.069208,20.5507783 18.069208,20.8158456 18.1222215,21.0703102 C18.1540295,21.2187479 18.1222215,21.4626098 17.9949892,21.5792394 C17.8677569,21.695869 17.7087165,21.8231013 17.6875111,22.003347 C17.6663057,22.1305793 17.6981138,22.2472089 17.8147434,22.279017 C17.8253461,22.4380574 17.6451004,22.554687 17.655703,22.72433 C17.655703,22.7349327 17.6663057,22.8409596 17.6769084,22.8939731 Z" id="web" fill="#A22833"></path>
    </g>
</svg>