<?xml version="1.0" encoding="UTF-8"?>
<svg width="20px" height="20px" viewBox="0 0 20 20" version="1.1" xmlns="http://www.w3.org/2000/svg" xmlns:xlink="http://www.w3.org/1999/xlink">
    <!-- Generator: Sketch 50 (54983) - http://www.bohemiancoding.com/sketch -->
    <title>pix_core/f/wmv-32</title>
    <desc>Created with Sketch.</desc>
    <defs></defs>
    <g id="pix_core/f/wmv-32" stroke="none" stroke-width="1" fill="none" fill-rule="evenodd">
        <g id="circle_background" transform="translate(-6.000000, -6.000000)"></g>
        <path d="M17.4218838,4.52901134 C17.8141834,4.92131091 18.1428668,5.70591006 18.1428668,6.26785269 L18.1428668,18.482153 C18.1428668,19.0440956 17.6869511,19.5000113 17.1250085,19.5000113 L2.87499151,19.5000113 C2.31304887,19.5000113 1.85713315,19.0440956 1.85713315,18.482153 L1.85713315,1.51784703 C1.85713315,0.955904397 2.31304887,0.499988675 2.87499151,0.499988675 L12.3750028,0.499988675 C12.9369455,0.499988675 13.7215446,0.828672103 14.1138442,1.22097168 L17.4218838,4.52901134 Z M12.7142889,1.94195468 L12.7142889,5.92856658 L16.7009008,5.92856658 C16.6372847,5.74832082 16.5418605,5.56807507 16.4676416,5.49385624 L13.1489993,2.17521389 C13.0747805,2.10099505 12.8945347,2.00557083 12.7142889,1.94195468 Z M16.7857224,18.1428668 L16.7857224,7.28571105 L12.3750028,7.28571105 C11.8130602,7.28571105 11.3571445,6.82979533 11.3571445,6.26785269 L11.3571445,1.85713315 L3.21427763,1.85713315 L3.21427763,18.1428668 L16.7857224,18.1428668 Z M10,8.64285553 C10.7421884,8.64285553 11.3571445,9.25781162 11.3571445,10 L11.3571445,14.0714334 C11.3571445,14.8136218 10.7421884,15.4285779 10,15.4285779 L5.92856658,15.4285779 C5.18637819,15.4285779 4.5714221,14.8136218 4.5714221,14.0714334 L4.5714221,10 C4.5714221,9.25781162 5.18637819,8.64285553 5.92856658,8.64285553 L10,8.64285553 Z M15.2165241,8.66406091 C15.3437564,8.71707436 15.4285779,8.84430666 15.4285779,8.98214164 L15.4285779,15.0892918 C15.4285779,15.2271268 15.3437564,15.3543591 15.2165241,15.4073725 C15.1741133,15.4179752 15.1317025,15.4285779 15.0892918,15.4285779 C15.0044703,15.4285779 14.909046,15.3967698 14.8454299,15.3331537 L12.0357167,12.5128378 L12.0357167,11.5585956 L14.8454299,8.73827975 C14.909046,8.6746636 15.0044703,8.64285553 15.0892918,8.64285553 C15.1317025,8.64285553 15.1741133,8.65345822 15.2165241,8.66406091 Z" id="wmv" fill="#A22833"></path>
    </g>
</svg>