<?xml version="1.0" encoding="UTF-8"?>
<svg width="20px" height="20px" viewBox="0 0 20 20" version="1.1" xmlns="http://www.w3.org/2000/svg" xmlns:xlink="http://www.w3.org/1999/xlink">
    <!-- Generator: Sketch 50 (54983) - http://www.bohemiancoding.com/sketch -->
    <title>pix_core/f/word</title>
    <desc>Created with Sketch.</desc>
    <defs></defs>
    <g id="pix_core/f/word" stroke="none" stroke-width="1" fill="none" fill-rule="evenodd">
        <g id="circle_background" transform="translate(-6.000000, -6.000000)"></g>
        <path d="M17.4218838,4.52901134 C17.8141834,4.92131091 18.1428668,5.70591006 18.1428668,6.26785269 L18.1428668,18.482153 C18.1428668,19.0440956 17.6869511,19.5000113 17.1250085,19.5000113 L2.87499151,19.5000113 C2.31304887,19.5000113 1.85713315,19.0440956 1.85713315,18.482153 L1.85713315,1.51784703 C1.85713315,0.955904397 2.31304887,0.499988675 2.87499151,0.499988675 L12.3750028,0.499988675 C12.9369455,0.499988675 13.7215446,0.828672103 14.1138442,1.22097168 L17.4218838,4.52901134 Z M12.7142889,1.94195468 L12.7142889,5.92856658 L16.7009008,5.92856658 C16.6372847,5.74832082 16.5418605,5.56807507 16.4676416,5.49385624 L13.1489993,2.17521389 C13.0747805,2.10099505 12.8945347,2.00557083 12.7142889,1.94195468 Z M16.7857224,18.1428668 L16.7857224,7.28571105 L12.3750028,7.28571105 C11.8130602,7.28571105 11.3571445,6.82979533 11.3571445,6.26785269 L11.3571445,1.85713315 L3.21427763,1.85713315 L3.21427763,18.1428668 L16.7857224,18.1428668 Z M4.3275602,9.77734348 L4.3275602,8.64285553 L7.50836757,8.64285553 L7.50836757,9.77734348 L6.55412536,9.77734348 L7.60379179,14.4213222 C7.64620255,14.5909653 7.66740793,14.771211 7.67801062,14.909046 L7.69921601,15.1317025 L7.74162677,15.1317025 L7.78403754,14.909046 C7.81584561,14.771211 7.8264483,14.5909653 7.86885907,14.4213222 L9.3956466,8.64285553 L10.6043534,8.64285553 L12.1311409,14.4213222 C12.1735517,14.5909653 12.1947571,14.771211 12.2265652,14.909046 C12.2371678,14.9832649 12.2583732,15.0680864 12.2583732,15.1317025 L12.300784,15.1317025 L12.3219894,14.909046 C12.3325921,14.771211 12.3537974,14.5909653 12.3962082,14.4213222 L13.4458746,9.77734348 L12.4916324,9.77734348 L12.4916324,8.64285553 L15.6724398,8.64285553 L15.6724398,9.77734348 L14.9302514,9.77734348 L13.1914101,16.7857224 L11.5055822,16.7857224 L10.1484377,11.6434171 C10.0954242,11.4737741 10.0848215,11.304131 10.0530135,11.1556933 L10.0212054,10.9012288 L9.97879462,10.9012288 C9.97879462,10.9860503 9.96819193,11.0708718 9.95758924,11.1556933 C9.93638385,11.3253364 9.90457578,11.4843768 9.85156232,11.6434171 L8.49441785,16.7857224 L6.80858995,16.7857224 L5.06974859,9.77734348 L4.3275602,9.77734348 Z" id="word" fill="#A22833"></path>
    </g>
</svg>