<?xml version="1.0" encoding="UTF-8"?>
<svg width="20px" height="20px" viewBox="0 0 20 20" version="1.1" xmlns="http://www.w3.org/2000/svg" xmlns:xlink="http://www.w3.org/1999/xlink">
    <!-- Generator: Sketch 50 (54983) - http://www.bohemiancoding.com/sketch -->
    <title>pix_core/f/xlsx</title>
    <desc>Created with Sketch.</desc>
    <defs></defs>
    <g id="pix_core/f/xlsx" stroke="none" stroke-width="1" fill="none" fill-rule="evenodd">
        <g id="circle_background" transform="translate(-6.000000, -6.000000)"></g>
        <path d="M17.4218838,4.52901134 C17.8141834,4.92131091 18.1428668,5.70591006 18.1428668,6.26785269 L18.1428668,18.482153 C18.1428668,19.0440956 17.6869511,19.5000113 17.1250085,19.5000113 L2.87499151,19.5000113 C2.31304887,19.5000113 1.85713315,19.0440956 1.85713315,18.482153 L1.85713315,1.51784703 C1.85713315,0.955904397 2.31304887,0.499988675 2.87499151,0.499988675 L12.3750028,0.499988675 C12.9369455,0.499988675 13.7215446,0.828672103 14.1138442,1.22097168 L17.4218838,4.52901134 Z M12.7142889,1.94195468 L12.7142889,5.92856658 L16.7009008,5.92856658 C16.6372847,5.74832082 16.5418605,5.56807507 16.4676416,5.49385624 L13.1489993,2.17521389 C13.0747805,2.10099505 12.8945347,2.00557083 12.7142889,1.94195468 Z M16.7857224,18.1428668 L16.7857224,7.28571105 L12.3750028,7.28571105 C11.8130602,7.28571105 11.3571445,6.82979533 11.3571445,6.26785269 L11.3571445,1.85713315 L3.21427763,1.85713315 L3.21427763,18.1428668 L16.7857224,18.1428668 Z M6.40568768,16.7857224 L6.40568768,15.6618371 L7.12667068,15.6618371 L9.18359278,12.6612755 L7.17968414,9.77734348 L6.45870114,9.77734348 L6.45870114,8.64285553 L9.53348159,8.64285553 L9.53348159,9.77734348 L8.72767705,9.77734348 L9.85156232,11.4631714 C9.93638385,11.5585956 9.98939731,11.6328144 10.0318081,11.7070333 C10.0530135,11.7388414 10.0742188,11.7706494 10.0848215,11.8130602 L10.1060269,11.8130602 C10.1060269,11.8236629 10.2014511,11.6646225 10.3286834,11.4631714 L11.4207606,9.77734348 L10.6361615,9.77734348 L10.6361615,8.64285553 L13.5943123,8.64285553 L13.5943123,9.77734348 L12.883932,9.77734348 L10.8164072,12.7673024 L12.8521239,15.6618371 L13.5731069,15.6618371 L13.5731069,16.7857224 L10.4877238,16.7857224 L10.4877238,15.6618371 L11.2935283,15.6618371 L10.1590404,13.9548038 C10.0848215,13.8487769 10.0212054,13.7851608 9.97879462,13.7003392 C9.95758924,13.6685312 9.93638385,13.6367231 9.92578116,13.5943123 L9.90457578,13.5943123 C9.87276771,13.5943123 9.80915156,13.7533527 9.68191926,13.9548038 L8.58984207,15.6618371 L9.38504391,15.6618371 L9.38504391,16.7857224 L6.40568768,16.7857224 Z" id="xlsx" fill="#A22833"></path>
    </g>
</svg>