<?xml version="1.0" encoding="UTF-8"?>
<svg width="20px" height="20px" viewBox="0 0 20 20" version="1.1" xmlns="http://www.w3.org/2000/svg" xmlns:xlink="http://www.w3.org/1999/xlink">
    <!-- Generator: Sketch 50 (54983) - http://www.bohemiancoding.com/sketch -->
    <title>pix_core/f/zip</title>
    <desc>Created with Sketch.</desc>
    <defs></defs>
    <g id="pix_core/f/zip" stroke="none" stroke-width="1" fill="none" fill-rule="evenodd">
        <g id="circle_background" transform="translate(-6.000000, -6.000000)"></g>
        <path d="M8.64285553,3.21427763 L8.64285553,4.5714221 L7.28571105,4.5714221 L7.28571105,3.21427763 L8.64285553,3.21427763 Z M10,4.5714221 L10,5.92856658 L8.64285553,5.92856658 L8.64285553,4.5714221 L10,4.5714221 Z M8.64285553,5.92856658 L8.64285553,7.28571105 L7.28571105,7.28571105 L7.28571105,5.92856658 L8.64285553,5.92856658 Z M10,7.28571105 L10,8.64285553 L8.64285553,8.64285553 L8.64285553,7.28571105 L10,7.28571105 Z M17.4218838,4.52901134 C17.8141834,4.92131091 18.1428668,5.70591006 18.1428668,6.26785269 L18.1428668,18.482153 C18.1428668,19.0440956 17.6869511,19.5000113 17.1250085,19.5000113 L2.87499151,19.5000113 C2.31304887,19.5000113 1.85713315,19.0440956 1.85713315,18.482153 L1.85713315,1.51784703 C1.85713315,0.955904397 2.31304887,0.499988675 2.87499151,0.499988675 L12.3750028,0.499988675 C12.9369455,0.499988675 13.7215446,0.828672103 14.1138442,1.22097168 L17.4218838,4.52901134 Z M12.7142889,1.94195468 L12.7142889,5.92856658 L16.7009008,5.92856658 C16.6372847,5.74832082 16.5418605,5.56807507 16.4676416,5.49385624 L13.1489993,2.17521389 C13.0747805,2.10099505 12.8945347,2.00557083 12.7142889,1.94195468 Z M16.7857224,18.1428668 L16.7857224,7.28571105 L12.3750028,7.28571105 C11.8130602,7.28571105 11.3571445,6.82979533 11.3571445,6.26785269 L11.3571445,1.85713315 L10,1.85713315 L10,3.21427763 L8.64285553,3.21427763 L8.64285553,1.85713315 L3.21427763,1.85713315 L3.21427763,18.1428668 L16.7857224,18.1428668 Z M10.137835,10.4983265 C11.0390637,13.5412989 11.2723229,14.1986657 11.2723229,14.1986657 C11.3253364,14.3789115 11.3571445,14.5591572 11.3571445,14.7500057 C11.3571445,15.9269044 10.2120538,16.7857224 8.64285553,16.7857224 C7.07365723,16.7857224 5.92856658,15.9269044 5.92856658,14.7500057 C5.92856658,14.5591572 5.96037465,14.3789115 6.0133881,14.1986657 C6.0133881,14.1986657 6.23604462,13.5412989 7.28571105,10 L7.28571105,8.64285553 L8.64285553,8.64285553 L8.64285553,10 L9.48046813,10 C9.78794618,10 10.0530135,10.2014511 10.137835,10.4983265 Z M8.64285553,15.4285779 C9.3956466,15.4285779 10,15.1210999 10,14.7500057 C10,14.3789115 9.3956466,14.0714334 8.64285553,14.0714334 C7.89006445,14.0714334 7.28571105,14.3789115 7.28571105,14.7500057 C7.28571105,15.1210999 7.89006445,15.4285779 8.64285553,15.4285779 Z" id="zip" fill="#A22833"></path>
    </g>
</svg>