<?xml version="1.0" encoding="UTF-8"?>
<svg width="20px" height="20px" viewBox="0 0 20 20" version="1.1" xmlns="http://www.w3.org/2000/svg" xmlns:xlink="http://www.w3.org/1999/xlink">
    <!-- Generator: Sketch 50 (54983) - http://www.bohemiancoding.com/sketch -->
    <title>pix_plugins/mod/choicegroup/icon</title>
    <desc>Created with Sketch.</desc>
    <defs></defs>
    <g id="pix_plugins/mod/choicegroup/icon" stroke="none" stroke-width="1" fill="none" fill-rule="evenodd">
        <g id="circle_background" transform="translate(-6.000000, -6.000000)"></g>
        <path d="M5.97944039,9.5 C4.93078036,9.53180804 3.98295302,10.0089286 3.30737397,10.8571429 L1.95621585,10.8571429 C0.947888898,10.8571429 6.15632941e-05,10.3482143 6.15632941e-05,9.17131696 C6.15632941e-05,8.3125 -0.0301882453,5.42857143 1.25038698,5.42857143 C1.46213564,5.42857143 2.51079567,6.32979911 3.87203706,6.32979911 C4.33586746,6.32979911 4.77953132,6.24497768 5.21311191,6.0859375 C5.1828621,6.31919643 5.16269556,6.55245536 5.16269556,6.78571429 C5.16269556,7.75055804 5.45511038,8.70479911 5.97944039,9.5 Z M16.778622,16.2539063 C16.778622,17.9715402 15.6997122,19 14.0863891,19 L5.27361152,19 C3.6602884,19 2.58137856,17.9715402 2.58137856,16.2539063 C2.58137856,13.8577009 3.11579185,10.1785714 6.07018982,10.1785714 C6.41302098,10.1785714 7.6633464,11.6523438 9.68000031,11.6523438 C11.6966542,11.6523438 12.9469796,10.1785714 13.2898108,10.1785714 C16.2442088,10.1785714 16.778622,13.8577009 16.778622,16.2539063 Z M6.45335406,2.71428571 C6.45335406,4.20926339 5.29377806,5.42857143 3.87203706,5.42857143 C2.45029606,5.42857143 1.29072006,4.20926339 1.29072006,2.71428571 C1.29072006,1.21930804 2.45029606,0 3.87203706,0 C5.29377806,0 6.45335406,1.21930804 6.45335406,2.71428571 Z M13.5519758,6.78571429 C13.5519758,9.03348214 11.8176534,10.8571429 9.68000031,10.8571429 C7.54234717,10.8571429 5.80802481,9.03348214 5.80802481,6.78571429 C5.80802481,4.53794643 7.54234717,2.71428571 9.68000031,2.71428571 C11.8176534,2.71428571 13.5519758,4.53794643 13.5519758,6.78571429 Z M19.359939,9.17131696 C19.359939,10.3482143 18.4121117,10.8571429 17.4037848,10.8571429 L16.0526266,10.8571429 C15.3770476,10.0089286 14.4292203,9.53180804 13.3805602,9.5 C13.9048902,8.70479911 14.1973051,7.75055804 14.1973051,6.78571429 C14.1973051,6.55245536 14.1771385,6.31919643 14.1468887,6.0859375 C14.5804693,6.24497768 15.0241332,6.32979911 15.4879636,6.32979911 C16.8492049,6.32979911 17.897865,5.42857143 18.1096136,5.42857143 C19.3901889,5.42857143 19.359939,8.3125 19.359939,9.17131696 Z M18.0692805,2.71428571 C18.0692805,4.20926339 16.9097046,5.42857143 15.4879636,5.42857143 C14.0662225,5.42857143 12.9066466,4.20926339 12.9066466,2.71428571 C12.9066466,1.21930804 14.0662225,0 15.4879636,0 C16.9097046,0 18.0692805,1.21930804 18.0692805,2.71428571 Z" id="choicegroup" fill="#A22833"></path>
    </g>
</svg>