<?xml version="1.0" encoding="UTF-8"?>
<svg width="20px" height="20px" viewBox="0 0 20 20" version="1.1" xmlns="http://www.w3.org/2000/svg" xmlns:xlink="http://www.w3.org/1999/xlink">
    <!-- Generator: Sketch 50 (54983) - http://www.bohemiancoding.com/sketch -->
    <title>pix_plugins/mod/workshop/icon</title>
    <desc>Created with Sketch.</desc>
    <defs></defs>
    <g id="pix_plugins/mod/workshop/icon" stroke="none" stroke-width="1" fill="none" fill-rule="evenodd">
        <g id="circle_background" transform="translate(-6.000000, -6.000000)"></g>
        <path d="M6.10881233,10 C5.00613244,10.0318081 4.00947947,10.5089292 3.29909915,11.3571445 L1.87833853,11.3571445 C0.818069411,11.3571445 -0.178583562,10.8482153 -0.178583562,9.67131657 C-0.178583562,8.81249858 -0.210391636,5.92856658 1.13615015,5.92856658 C1.35880666,5.92856658 2.46148655,6.82979533 3.89284986,6.82979533 C4.38057366,6.82979533 4.84709207,6.7449738 5.30300779,6.58593343 C5.27119972,6.81919264 5.24999434,7.05245184 5.24999434,7.28571105 C5.24999434,8.25055595 5.55747238,9.20479816 6.10881233,10 Z M17.4642946,16.7539143 C17.4642946,18.4715503 16.3298067,19.5000113 14.6333761,19.5000113 L5.36662394,19.5000113 C3.67019335,19.5000113 2.53570539,18.4715503 2.53570539,16.7539143 C2.53570539,14.3577061 3.09764802,10.6785722 6.20423655,10.6785722 C6.56472805,10.6785722 7.87946176,12.1523463 10,12.1523463 C12.1205382,12.1523463 13.435272,10.6785722 13.7957635,10.6785722 C16.902352,10.6785722 17.4642946,14.3577061 17.4642946,16.7539143 Z M6.60713881,3.21427763 C6.60713881,4.70925709 5.38782932,5.92856658 3.89284986,5.92856658 C2.3978704,5.92856658 1.17856091,4.70925709 1.17856091,3.21427763 C1.17856091,1.71929816 2.3978704,0.499988675 3.89284986,0.499988675 C5.38782932,0.499988675 6.60713881,1.71929816 6.60713881,3.21427763 Z M14.0714334,7.28571105 C14.0714334,9.53348159 12.2477705,11.3571445 10,11.3571445 C7.75222946,11.3571445 5.92856658,9.53348159 5.92856658,7.28571105 C5.92856658,5.03794051 7.75222946,3.21427763 10,3.21427763 C12.2477705,3.21427763 14.0714334,5.03794051 14.0714334,7.28571105 Z M20.1785836,9.67131657 C20.1785836,10.8482153 19.1819306,11.3571445 18.1216615,11.3571445 L16.7009008,11.3571445 C15.9905205,10.5089292 14.9938676,10.0318081 13.8911877,10 C14.4425276,9.20479816 14.7500057,8.25055595 14.7500057,7.28571105 C14.7500057,7.05245184 14.7288003,6.81919264 14.6969922,6.58593343 C15.1529079,6.7449738 15.6194263,6.82979533 16.1071501,6.82979533 C17.5385135,6.82979533 18.6411933,5.92856658 18.8638499,5.92856658 C20.2103916,5.92856658 20.1785836,8.81249858 20.1785836,9.67131657 Z M18.8214391,3.21427763 C18.8214391,4.70925709 17.6021296,5.92856658 16.1071501,5.92856658 C14.6121707,5.92856658 13.3928612,4.70925709 13.3928612,3.21427763 C13.3928612,1.71929816 14.6121707,0.499988675 16.1071501,0.499988675 C17.6021296,0.499988675 18.8214391,1.71929816 18.8214391,3.21427763 Z" id="workshop" fill="#A22833"></path>
    </g>
</svg>