<?xml version="1.0" encoding="UTF-8"?>
<svg width="32px" height="32px" viewBox="0 0 32 32" version="1.1" xmlns="http://www.w3.org/2000/svg" xmlns:xlink="http://www.w3.org/1999/xlink">
    <!-- Generator: Sketch 50 (54983) - http://www.bohemiancoding.com/sketch -->
    <title>pix_plugins/mod/workshop/icon</title>
    <desc>Created with Sketch.</desc>
    <defs></defs>
    <g id="pix_plugins/mod/workshop/icon" stroke="none" stroke-width="1" fill="none" fill-rule="evenodd">
        <g id="circle_background"></g>
        <path d="M12.2874606,16.5000113 C11.1847807,16.5318194 10.1881278,17.0089405 9.47774745,17.8571558 L8.05698683,17.8571558 C6.99671771,17.8571558 6.00006473,17.3482266 6.00006473,16.1713279 C6.00006473,15.3125099 5.96825666,12.4285779 7.31479844,12.4285779 C7.53745496,12.4285779 8.64013485,13.3298067 10.0714982,13.3298067 C10.559222,13.3298067 11.0257404,13.2449851 11.4816561,13.0859448 C11.449848,13.319204 11.4286426,13.5524632 11.4286426,13.7857224 C11.4286426,14.7505673 11.7361207,15.7048095 12.2874606,16.5000113 Z M23.6429429,23.2539256 C23.6429429,24.9715616 22.5084549,26.0000226 20.8120244,26.0000226 L11.5452722,26.0000226 C9.84884164,26.0000226 8.71435368,24.9715616 8.71435368,23.2539256 C8.71435368,20.8577174 9.27629632,17.1785836 12.3828848,17.1785836 C12.7433763,17.1785836 14.0581101,18.6523576 16.1786483,18.6523576 C18.2991865,18.6523576 19.6139202,17.1785836 19.9744118,17.1785836 C23.0810003,17.1785836 23.6429429,20.8577174 23.6429429,23.2539256 Z M12.7857871,9.71428895 C12.7857871,11.2092684 11.5664776,12.4285779 10.0714982,12.4285779 C8.5765187,12.4285779 7.35720921,11.2092684 7.35720921,9.71428895 C7.35720921,8.21930949 8.5765187,7 10.0714982,7 C11.5664776,7 12.7857871,8.21930949 12.7857871,9.71428895 Z M20.2500817,13.7857224 C20.2500817,16.0334929 18.4264188,17.8571558 16.1786483,17.8571558 C13.9308778,17.8571558 12.1072149,16.0334929 12.1072149,13.7857224 C12.1072149,11.5379518 13.9308778,9.71428895 16.1786483,9.71428895 C18.4264188,9.71428895 20.2500817,11.5379518 20.2500817,13.7857224 Z M26.3572319,16.1713279 C26.3572319,17.3482266 25.3605789,17.8571558 24.3003098,17.8571558 L22.8795491,17.8571558 C22.1691688,17.0089405 21.1725159,16.5318194 20.069836,16.5000113 C20.6211759,15.7048095 20.928654,14.7505673 20.928654,13.7857224 C20.928654,13.5524632 20.9074486,13.319204 20.8756405,13.0859448 C21.3315562,13.2449851 21.7980746,13.3298067 22.2857984,13.3298067 C23.7171617,13.3298067 24.8198416,12.4285779 25.0424981,12.4285779 C26.3890399,12.4285779 26.3572319,15.3125099 26.3572319,16.1713279 Z M25.0000874,9.71428895 C25.0000874,11.2092684 23.7807779,12.4285779 22.2857984,12.4285779 C20.790819,12.4285779 19.5715095,11.2092684 19.5715095,9.71428895 C19.5715095,8.21930949 20.790819,7 22.2857984,7 C23.7807779,7 25.0000874,8.21930949 25.0000874,9.71428895 Z" id="workshop" fill="#A22833"></path>
    </g>
</svg>