<?xml version="1.0" encoding="UTF-8"?>
<svg width="32px" height="32px" viewBox="0 0 32 32" version="1.1" xmlns="http://www.w3.org/2000/svg" xmlns:xlink="http://www.w3.org/1999/xlink">
    <!-- Generator: Sketch 50 (54983) - http://www.bohemiancoding.com/sketch -->
    <title>pix_plugins/mod/assign/icon</title>
    <desc>Created with Sketch.</desc>
    <defs></defs>
    <g id="pix_plugins/mod/assign/icon" stroke="none" stroke-width="1" fill="none" fill-rule="evenodd">
        <g id="circle_background"></g>
        <path d="M23.9821643,10.0714334 C24.5441069,10.0714334 25.0000226,10.5273491 25.0000226,11.0892918 L25.0000226,23.9821643 C25.0000226,24.5441069 24.5441069,25.0000226 23.9821643,25.0000226 L13.8035807,25.0000226 C13.2416381,25.0000226 12.7857224,24.5441069 12.7857224,23.9821643 L12.7857224,20.9285892 L7.01785836,20.9285892 C6.45591572,20.9285892 6,20.4726735 6,19.9107309 L6,12.7857224 C6,12.2237797 6.32868343,11.4391806 6.720983,11.046881 L11.046881,6.720983 C11.4391806,6.32868343 12.2237797,6 12.7857224,6 L17.1964419,6 C17.7583846,6 18.2143003,6.45591572 18.2143003,7.01785836 L18.2143003,10.4955411 C18.6278052,10.2516792 19.1579398,10.0714334 19.5714447,10.0714334 L23.9821643,10.0714334 Z M18.2143003,12.3298067 L15.0440956,15.5000113 L18.2143003,15.5000113 L18.2143003,12.3298067 Z M11.4285779,8.25837323 L8.25837323,11.4285779 L11.4285779,11.4285779 L11.4285779,8.25837323 Z M13.5067054,15.1183144 L16.8571558,11.767864 L16.8571558,7.35714447 L12.7857224,7.35714447 L12.7857224,11.767864 C12.7857224,12.3298067 12.3298067,12.7857224 11.767864,12.7857224 L7.35714447,12.7857224 L7.35714447,19.5714447 L12.7857224,19.5714447 L12.7857224,16.8571558 C12.7857224,16.2952132 13.1144058,15.510614 13.5067054,15.1183144 Z M23.6428782,23.6428782 L23.6428782,11.4285779 L19.5714447,11.4285779 L19.5714447,15.8392974 C19.5714447,16.4012401 19.115529,16.8571558 18.5535864,16.8571558 L14.1428668,16.8571558 L14.1428668,23.6428782 L23.6428782,23.6428782 Z" id="assign" fill="#A22833"></path>
    </g>
</svg>