<svg id="Layer_1" data-name="Layer 1" xmlns="http://www.w3.org/2000/svg" viewBox="0 0 40 40"><title>icon</title><g id="x71Wi8.tif"><path d="M2,36.16V7.85c0-.2.06-.4.1-.6A4.24,4.24,0,0,1,6.12,4c2.65,0,5.3,0,8,0a.38.38,0,0,0,.42-.29,5.91,5.91,0,0,1,11,0,.33.33,0,0,0,.37.24H34a4.16,4.16,0,0,1,3.84,3.14c.05.22.08.44.12.66V36.16c0,.12,0,.24-.05.36a4.19,4.19,0,0,1-2.76,3.27,5.47,5.47,0,0,1-.82.21H5.64l-.09,0a4.14,4.14,0,0,1-3.38-3A5.93,5.93,0,0,1,2,36.16ZM10,12v4H30V12Zm0,8.05V24H29.8C30,24,30,24,30,23.77c0-1.16,0-2.32,0-3.49a1.48,1.48,0,0,0,0-.21Zm0,8v4H24V28Zm10-20a2,2,0,0,0,2-2A2,2,0,0,0,18,5.93,2,2,0,0,0,20,8.06Z" fill="#a32834"/></g></svg>