<?xml version="1.0" encoding="UTF-8"?>
<svg width="20px" height="20px" viewBox="0 0 20 20" version="1.1" xmlns="http://www.w3.org/2000/svg" xmlns:xlink="http://www.w3.org/1999/xlink">
    <!-- Generator: Sketch 50 (54983) - http://www.bohemiancoding.com/sketch -->
    <title>pix_plugins/mod/ouwiki/icon</title>
    <desc>Created with Sketch.</desc>
    <defs></defs>
    <g id="pix_plugins/mod/ouwiki/icon" stroke="none" stroke-width="1" fill="none" fill-rule="evenodd">
        <g id="circle_background" transform="translate(-6.000000, -6.000000)"></g>
        <path d="M18.8214391,13.3080397 C18.8214391,12.1947571 18.206483,11.166296 16.9871735,11.166296 C15.6406317,11.166296 15.0574837,12.1947571 14.325898,12.1947571 C13.9548038,12.1947571 13.6261204,11.9614979 13.3822585,11.7070333 C13.0747805,11.3783499 13.0111643,10.9118314 13.0111643,10.4665184 C13.0111643,9.59709773 13.1277939,8.72767705 13.2656289,7.86885907 C13.2868343,7.76283215 13.3610531,7.13727337 13.3928612,7.09486261 L13.3928612,7.07365723 C12.1841544,7.13727337 10.9754476,7.41294334 9.7561381,7.41294334 C9.00334703,7.41294334 8.21874788,7.11606799 8.21874788,6.24664731 C8.21874788,5.08035128 9.3956466,4.74106516 9.3956466,3.44753683 C9.3956466,2.29184349 8.48381516,1.66628471 7.40234065,1.66628471 C6.27845539,1.66628471 5.24999434,2.2812408 5.24999434,3.50055029 C5.24999434,4.84709207 6.27845539,5.43024009 6.27845539,6.16182578 C6.27845539,6.53291997 6.04519618,6.8616034 5.79073159,7.1054653 C5.46204816,7.41294334 4.99552975,7.47655949 4.55021672,7.47655949 C3.68079604,7.47655949 2.81137536,7.35992989 1.95255737,7.2220949 C1.84653046,7.20088952 1.22097168,7.12667068 1.17856091,7.09486261 L1.17856091,17.9520184 C1.17856091,17.9626211 1.21036899,17.9626211 1.23157437,17.9732238 L1.36940935,17.9944292 C1.5602578,18.0262372 1.76170893,18.0474426 1.95255737,18.0792507 C2.81137536,18.2170857 3.68079604,18.3337153 4.55021672,18.3337153 C4.99552975,18.3337153 5.46204816,18.2700991 5.79073159,17.9626211 C6.04519618,17.7187592 6.27845539,17.3900758 6.27845539,17.0189816 C6.27845539,16.2873959 5.24999434,15.7042479 5.24999434,14.3577061 C5.24999434,13.1383966 6.27845539,12.5234405 7.39173796,12.5234405 C8.48381516,12.5234405 9.3956466,13.1489993 9.3956466,14.3046926 C9.3956466,15.598221 8.21874788,15.9375071 8.21874788,17.1038031 C8.21874788,17.9732238 9.00334703,18.2700991 9.7561381,18.2700991 C10.858818,18.2700991 11.9614979,18.0580453 13.0535751,17.9520184 C13.1702047,17.9414157 13.2868343,17.9414157 13.4034639,17.9414157 L13.4034639,17.8884023 C13.4140666,17.071995 13.0747805,16.2767932 13.0747805,15.4497833 C13.0747805,14.6651841 13.3928612,14.1350496 14.2410765,14.1350496 C15.4073725,14.1350496 15.7466586,15.3119483 17.040187,15.3119483 C18.1958803,15.3119483 18.8214391,14.4001169 18.8214391,13.3080397 Z" id="ouwiki" fill="#A22833"></path>
    </g>
</svg>