<?xml version="1.0" encoding="UTF-8"?>
<svg width="32px" height="32px" viewBox="0 0 32 32" version="1.1" xmlns="http://www.w3.org/2000/svg" xmlns:xlink="http://www.w3.org/1999/xlink">
    <!-- Generator: Sketch 50 (54983) - http://www.bohemiancoding.com/sketch -->
    <title>pix_plugins/mod/ouwiki/icon</title>
    <desc>Created with Sketch.</desc>
    <defs></defs>
    <g id="pix_plugins/mod/ouwiki/icon" stroke="none" stroke-width="1" fill="none" fill-rule="evenodd">
        <g id="circle_background"></g>
        <path d="M25.3214496,18.3560212 C25.3214496,17.2427387 24.7064935,16.2142776 23.487184,16.2142776 C22.1406422,16.2142776 21.5574942,17.2427387 20.8259085,17.2427387 C20.4548143,17.2427387 20.1261309,17.0094795 19.882269,16.7550149 C19.574791,16.4263314 19.5111748,15.959813 19.5111748,15.5145 C19.5111748,14.6450793 19.6278044,13.7756586 19.7656394,12.9168407 C19.7868448,12.8108137 19.8610636,12.185255 19.8928717,12.1428442 L19.8928717,12.1216388 C18.6841649,12.185255 17.4754581,12.4609249 16.2561486,12.4609249 C15.5033575,12.4609249 14.7187584,12.1640496 14.7187584,11.2946289 C14.7187584,10.1283329 15.8956571,9.78904675 15.8956571,8.49551842 C15.8956571,7.33982508 14.9838257,6.7142663 13.9023512,6.7142663 C12.7784659,6.7142663 11.7500049,7.32922239 11.7500049,8.54853188 C11.7500049,9.89507366 12.7784659,10.4782217 12.7784659,11.2098074 C12.7784659,11.5809016 12.5452067,11.909585 12.2907421,12.1534469 C11.9620587,12.4609249 11.4955403,12.5245411 11.0502272,12.5245411 C10.1808066,12.5245411 9.31138588,12.4079115 8.45256789,12.2700765 C8.34654097,12.2488711 7.72098219,12.1746523 7.67857143,12.1428442 L7.67857143,23 C7.67857143,23.0106027 7.7103795,23.0106027 7.73158488,23.0212054 L7.86941987,23.0424108 C8.06026831,23.0742188 8.26171945,23.0954242 8.45256789,23.1272323 C9.31138588,23.2650673 10.1808066,23.3816969 11.0502272,23.3816969 C11.4955403,23.3816969 11.9620587,23.3180807 12.2907421,23.0106027 C12.5452067,22.7667408 12.7784659,22.4380574 12.7784659,22.0669632 C12.7784659,21.3353775 11.7500049,20.7522295 11.7500049,19.4056877 C11.7500049,18.1863782 12.7784659,17.5714221 13.8917485,17.5714221 C14.9838257,17.5714221 15.8956571,18.1969809 15.8956571,19.3526742 C15.8956571,20.6462026 14.7187584,20.9854887 14.7187584,22.1517847 C14.7187584,23.0212054 15.5033575,23.3180807 16.2561486,23.3180807 C17.3588285,23.3180807 18.4615084,23.1060269 19.5535856,23 C19.6702152,22.9893973 19.7868448,22.9893973 19.9034744,22.9893973 L19.9034744,22.9363839 C19.9140771,22.1199766 19.574791,21.3247748 19.574791,20.4977649 C19.574791,19.7131657 19.8928717,19.1830312 20.741087,19.1830312 C21.907383,19.1830312 22.2466692,20.3599299 23.5401975,20.3599299 C24.6958908,20.3599299 25.3214496,19.4480984 25.3214496,18.3560212 Z" id="ouwiki" fill="#A22833"></path>
    </g>
</svg>