<?xml version="1.0" encoding="UTF-8"?>
<svg width="20px" height="20px" viewBox="0 0 20 20" version="1.1" xmlns="http://www.w3.org/2000/svg" xmlns:xlink="http://www.w3.org/1999/xlink">
    <!-- Generator: Sketch 50 (54983) - http://www.bohemiancoding.com/sketch -->
    <title>pix_plugins/mod/data/icon</title>
    <desc>Created with Sketch.</desc>
    <defs></defs>
    <g id="pix_plugins/mod/data/icon" stroke="none" stroke-width="1" fill="none" fill-rule="evenodd">
        <g id="circle_background" transform="translate(-6.000000, -6.000000)"></g>
        <path d="M10,8.64285553 C13.1914101,8.64285553 16.3934228,8.0703102 18.1428668,6.84039802 L18.1428668,8.64285553 C18.1428668,10.137835 14.4955411,11.3571445 10,11.3571445 C5.50445893,11.3571445 1.85713315,10.137835 1.85713315,8.64285553 L1.85713315,6.84039802 C3.6065772,8.0703102 6.80858995,8.64285553 10,8.64285553 Z M10,16.7857224 C13.1914101,16.7857224 16.3934228,16.213177 18.1428668,14.9832649 L18.1428668,16.7857224 C18.1428668,18.2807018 14.4955411,19.5000113 10,19.5000113 C5.50445893,19.5000113 1.85713315,18.2807018 1.85713315,16.7857224 L1.85713315,14.9832649 C3.6065772,16.213177 6.80858995,16.7857224 10,16.7857224 Z M10,12.7142889 C13.1914101,12.7142889 16.3934228,12.1417436 18.1428668,10.9118314 L18.1428668,12.7142889 C18.1428668,14.2092684 14.4955411,15.4285779 10,15.4285779 C5.50445893,15.4285779 1.85713315,14.2092684 1.85713315,12.7142889 L1.85713315,10.9118314 C3.6065772,12.1417436 6.80858995,12.7142889 10,12.7142889 Z M10,0.499988675 C14.4955411,0.499988675 18.1428668,1.71929816 18.1428668,3.21427763 L18.1428668,4.5714221 C18.1428668,6.06640156 14.4955411,7.28571105 10,7.28571105 C5.50445893,7.28571105 1.85713315,6.06640156 1.85713315,4.5714221 L1.85713315,3.21427763 C1.85713315,1.71929816 5.50445893,0.499988675 10,0.499988675 Z" id="data" fill="#A22833"></path>
    </g>
</svg>