<?xml version="1.0" encoding="UTF-8"?>
<svg width="32px" height="32px" viewBox="0 0 32 32" version="1.1" xmlns="http://www.w3.org/2000/svg" xmlns:xlink="http://www.w3.org/1999/xlink">
    <!-- Generator: Sketch 50 (54983) - http://www.bohemiancoding.com/sketch -->
    <title>pix_plugins/mod/data/icon</title>
    <desc>Created with Sketch.</desc>
    <defs></defs>
    <g id="pix_plugins/mod/data/icon" stroke="none" stroke-width="1" fill="none" fill-rule="evenodd">
        <g id="circle_background"></g>
        <path d="M16.1428668,14.1428668 C19.3342769,14.1428668 22.5362897,13.5703215 24.2857337,12.3404093 L24.2857337,14.1428668 C24.2857337,15.6378463 20.6384079,16.8571558 16.1428668,16.8571558 C11.6473258,16.8571558 8,15.6378463 8,14.1428668 L8,12.3404093 C9.74944405,13.5703215 12.9514568,14.1428668 16.1428668,14.1428668 Z M16.1428668,22.2857337 C19.3342769,22.2857337 22.5362897,21.7131884 24.2857337,20.4832762 L24.2857337,22.2857337 C24.2857337,23.7807132 20.6384079,25.0000226 16.1428668,25.0000226 C11.6473258,25.0000226 8,23.7807132 8,22.2857337 L8,20.4832762 C9.74944405,21.7131884 12.9514568,22.2857337 16.1428668,22.2857337 Z M16.1428668,18.2143003 C19.3342769,18.2143003 22.5362897,17.6417549 24.2857337,16.4118428 L24.2857337,18.2143003 C24.2857337,19.7092797 20.6384079,20.9285892 16.1428668,20.9285892 C11.6473258,20.9285892 8,19.7092797 8,18.2143003 L8,16.4118428 C9.74944405,17.6417549 12.9514568,18.2143003 16.1428668,18.2143003 Z M16.1428668,6 C20.6384079,6 24.2857337,7.21930949 24.2857337,8.71428895 L24.2857337,10.0714334 C24.2857337,11.5664129 20.6384079,12.7857224 16.1428668,12.7857224 C11.6473258,12.7857224 8,11.5664129 8,10.0714334 L8,8.71428895 C8,7.21930949 11.6473258,6 16.1428668,6 Z" id="data" fill="#A22833"></path>
    </g>
</svg>