<?xml version="1.0" encoding="UTF-8"?>
<svg width="32px" height="32px" viewBox="0 0 32 32" version="1.1" xmlns="http://www.w3.org/2000/svg" xmlns:xlink="http://www.w3.org/1999/xlink">
    <!-- Generator: Sketch 50 (54983) - http://www.bohemiancoding.com/sketch -->
    <title>pix_plugins/mod/ilpconcern/icon</title>
    <desc>Created with Sketch.</desc>
    <defs></defs>
    <g id="pix_plugins/mod/ilpconcern/icon" stroke="none" stroke-width="1" fill="none" fill-rule="evenodd">
        <g id="circle_background"></g>
        <path d="M27.3571687,23 L27.3571687,24.3571445 L5.64285714,24.3571445 L5.64285714,8.07141078 L7.00000162,8.07141078 L7.00000162,23 L27.3571687,23 Z M26.0000243,9.76784137 L26.0000243,14.380012 C26.0000243,14.6768874 25.6395328,14.8359278 25.4168763,14.6132713 L24.1339506,13.3303456 L17.4224471,20.0418492 C17.2846121,20.1796841 17.0725583,20.1796841 16.9347233,20.0418492 L14.4642962,17.5714221 L10.0535767,21.9821416 L8.01785997,19.9464249 L14.2204343,13.7438506 C14.3582693,13.6060156 14.5703231,13.6060156 14.7081581,13.7438506 L17.1785852,16.2142776 L22.0982339,11.2946289 L20.8153083,10.0117033 C20.5926518,9.78904675 20.7516921,9.42855525 21.0485675,9.42855525 L25.6607381,9.42855525 C25.8515866,9.42855525 26.0000243,9.57699293 26.0000243,9.76784137 Z" id="ilpconcern" fill="#A22833"></path>
    </g>
</svg>