<?xml version="1.0" encoding="UTF-8"?>
<svg width="20px" height="20px" viewBox="0 0 20 20" version="1.1" xmlns="http://www.w3.org/2000/svg" xmlns:xlink="http://www.w3.org/1999/xlink">
    <!-- Generator: Sketch 50 (54983) - http://www.bohemiancoding.com/sketch -->
    <title>pix_plugins/mod/ilpconcern/icon</title>
    <desc>Created with Sketch.</desc>
    <defs></defs>
    <g id="pix_plugins/mod/ilpconcern/icon" stroke="none" stroke-width="1" fill="none" fill-rule="evenodd">
        <g id="circle_background" transform="translate(-6.000000, -6.000000)"></g>
        <path d="M19.7099991,16.5506244 L19.7099991,17.7824993 L0,17.7824993 L0,3 L1.23187494,3 L1.23187494,16.5506244 L19.7099991,16.5506244 Z M18.4781241,4.53984368 L18.4781241,8.72629368 C18.4781241,8.99576632 18.1509074,9.14012667 17.9488029,8.93802219 L16.7842961,7.7735154 L10.6922895,13.865522 C10.5671772,13.9906343 10.3746968,13.9906343 10.2495845,13.865522 L8.00718713,11.6231246 L4.00359356,15.6267182 L2.15578115,13.7789057 L7.7858346,8.1488523 C7.9109469,8.02374 8.10342736,8.02374 8.22853966,8.1488523 L10.470937,10.3912497 L14.9364837,5.92570299 L13.7719769,4.76119621 C13.5698724,4.55909172 13.7142328,4.23187494 13.9837054,4.23187494 L18.1701554,4.23187494 C18.3433878,4.23187494 18.4781241,4.36661126 18.4781241,4.53984368 Z" id="ilpconcern" fill="#A22833"></path>
    </g>
</svg>