<?xml version="1.0" encoding="UTF-8"?>
<svg width="32px" height="32px" viewBox="0 0 32 32" version="1.1" xmlns="http://www.w3.org/2000/svg" xmlns:xlink="http://www.w3.org/1999/xlink">
    <!-- Generator: Sketch 50 (54983) - http://www.bohemiancoding.com/sketch -->
    <title>pix_plugins/mod/folder/icon</title>
    <desc>Created with Sketch.</desc>
    <defs></defs>
    <g id="pix_plugins/mod/folder/icon" stroke="none" stroke-width="1" fill="none" fill-rule="evenodd">
        <g id="circle_background"></g>
        <path d="M25.2048216,16.5853718 C25.2048216,16.2884965 24.8761382,16.2142776 24.642879,16.2142776 L13.1071509,16.2142776 C12.5452083,16.2142776 11.8030199,16.5641664 11.4425284,16.9988768 L8.32533721,20.8476537 C8.22991299,20.974886 8.13448877,21.112721 8.13448877,21.2717613 C8.13448877,21.5686367 8.4631722,21.6428555 8.6964314,21.6428555 L20.2321594,21.6428555 C20.7941021,21.6428555 21.5362905,21.2929667 21.896782,20.8476537 L25.0139732,16.9988768 C25.1093974,16.8822472 25.2048216,16.7444122 25.2048216,16.5853718 Z M13.1071509,14.8571332 L21.2500178,14.8571332 L21.2500178,13.1607026 C21.2500178,12.5987599 20.7941021,12.1428442 20.2321594,12.1428442 L14.1250093,12.1428442 C13.5630667,12.1428442 13.1071509,11.6869285 13.1071509,11.1249858 L13.1071509,10.4464136 C13.1071509,9.88447097 12.6512352,9.42855525 12.0892926,9.42855525 L8.6964314,9.42855525 C8.13448877,9.42855525 7.67857305,9.88447097 7.67857305,10.4464136 L7.67857305,19.4905092 L10.392862,16.1506615 C11.0078181,15.3978704 12.142306,14.8571332 13.1071509,14.8571332 Z M26.5619661,16.5853718 C26.5619661,17.0518902 26.360515,17.4972033 26.0742423,17.8576948 L22.9464484,21.7064717 C22.342095,22.4486601 21.1864016,23 20.2321594,23 L8.6964314,23 C7.39230038,23 6.32142857,21.9291282 6.32142857,20.6249972 L6.32142857,10.4464136 C6.32142857,9.14228259 7.39230038,8.07141078 8.6964314,8.07141078 L12.0892926,8.07141078 C13.3934236,8.07141078 14.4642954,9.14228259 14.4642954,10.4464136 L14.4642954,10.7856997 L20.2321594,10.7856997 C21.5362905,10.7856997 22.6071623,11.8565715 22.6071623,13.1607026 L22.6071623,14.8571332 L24.642879,14.8571332 C25.363862,14.8571332 26.084845,15.1858166 26.4029257,15.8643888 C26.5089526,16.0870453 26.5619661,16.3309072 26.5619661,16.5853718 Z" id="folder" fill="#A22833"></path>
    </g>
</svg>