<?xml version="1.0" encoding="UTF-8"?>
<svg width="20px" height="20px" viewBox="0 0 20 20" version="1.1" xmlns="http://www.w3.org/2000/svg" xmlns:xlink="http://www.w3.org/1999/xlink">
    <!-- Generator: Sketch 50 (54983) - http://www.bohemiancoding.com/sketch -->
    <title>pix_plugins/mod/folder/icon</title>
    <desc>Created with Sketch.</desc>
    <defs></defs>
    <g id="pix_plugins/mod/folder/icon" stroke="none" stroke-width="1" fill="none" fill-rule="evenodd">
        <g id="circle_background" transform="translate(-6.000000, -6.000000)"></g>
        <path d="M17.9499422,11.0930958 C17.9499422,10.8108957 17.6375063,10.7403456 17.4157777,10.7403456 L6.45028803,10.7403456 C5.91612355,10.7403456 5.2106233,11.0729386 4.86795175,11.4861602 L1.90485068,15.1446829 C1.81414351,15.2656258 1.72343633,15.3966473 1.72343633,15.5478259 C1.72343633,15.830026 2.03587216,15.9005761 2.25760081,15.9005761 L13.2230905,15.9005761 C13.7572549,15.9005761 14.4627552,15.5679831 14.8054267,15.1446829 L17.7685278,11.4861602 C17.859235,11.3752959 17.9499422,11.2442744 17.9499422,11.0930958 Z M6.45028803,9.45028803 L14.1906337,9.45028803 L14.1906337,7.83771602 C14.1906337,7.30355155 13.7572549,6.87017282 13.2230905,6.87017282 L7.41783124,6.87017282 C6.88366676,6.87017282 6.45028803,6.43679409 6.45028803,5.90262961 L6.45028803,5.25760081 C6.45028803,4.72343633 6.01690931,4.29005761 5.48274483,4.29005761 L2.25760081,4.29005761 C1.72343633,4.29005761 1.29005761,4.72343633 1.29005761,5.25760081 L1.29005761,13.8546253 L3.87017282,10.6798742 C4.45473017,9.96429536 5.5331377,9.45028803 6.45028803,9.45028803 Z M19.2399998,11.0930958 C19.2399998,11.5365531 19.0485068,11.9598532 18.7763853,12.3025248 L15.8032057,15.9610475 C15.2287269,16.6665478 14.1301622,17.1906337 13.2230905,17.1906337 L2.25760081,17.1906337 C1.01793608,17.1906337 0,16.1726976 0,14.9330329 L0,5.25760081 C0,4.01793608 1.01793608,3 2.25760081,3 L5.48274483,3 C6.72240956,3 7.74034564,4.01793608 7.74034564,5.25760081 L7.74034564,5.58011521 L13.2230905,5.58011521 C14.4627552,5.58011521 15.4806913,6.59805129 15.4806913,7.83771602 L15.4806913,9.45028803 L17.4157777,9.45028803 C18.1011208,9.45028803 18.7864639,9.76272386 19.0888211,10.4077527 C19.1896069,10.6194027 19.2399998,10.85121 19.2399998,11.0930958 Z" id="folder" fill="#A22833"></path>
    </g>
</svg>