<?xml version="1.0" encoding="UTF-8"?>
<svg width="32px" height="32px" viewBox="0 0 32 32" version="1.1" xmlns="http://www.w3.org/2000/svg" xmlns:xlink="http://www.w3.org/1999/xlink">
    <!-- Generator: Sketch 50 (54983) - http://www.bohemiancoding.com/sketch -->
    <title>pix_plugins/mod/ilptarget/complete</title>
    <desc>Created with Sketch.</desc>
    <defs></defs>
    <g id="pix_plugins/mod/ilptarget/complete" stroke="none" stroke-width="1" fill="none" fill-rule="evenodd">
        <g id="circle_background"></g>
        <path d="M24.717097,12.7153895 C24.717097,12.4503222 24.6110701,12.185255 24.4202217,11.9944065 L22.9782557,10.5524405 C22.7874072,10.3615921 22.5223399,10.2555652 22.2572727,10.2555652 C21.9922054,10.2555652 21.7271381,10.3615921 21.5362897,10.5524405 L14.5809242,17.5184086 L11.463733,14.3906147 C11.2728846,14.1997663 11.0078173,14.0937394 10.74275,14.0937394 C10.4776827,14.0937394 10.2126154,14.1997663 10.021767,14.3906147 L8.57980099,15.8325807 C8.38895255,16.0234292 8.28292564,16.2884965 8.28292564,16.5535637 C8.28292564,16.818631 8.38895255,17.0836983 8.57980099,17.2745467 L13.8599412,22.554687 C14.0507897,22.7455354 14.3158569,22.8515623 14.5809242,22.8515623 C14.8459915,22.8515623 15.1110588,22.7455354 15.3019072,22.554687 L24.4202217,13.4363725 C24.6110701,13.2455241 24.717097,12.9804568 24.717097,12.7153895 Z" id="complete" fill="#A22833"></path>
    </g>
</svg>