<?xml version="1.0" encoding="UTF-8"?>
<svg width="20px" height="20px" viewBox="0 0 20 20" version="1.1" xmlns="http://www.w3.org/2000/svg" xmlns:xlink="http://www.w3.org/1999/xlink">
    <!-- Generator: Sketch 50 (54983) - http://www.bohemiancoding.com/sketch -->
    <title>pix_plugins/mod/ilptarget/complete</title>
    <desc>Created with Sketch.</desc>
    <defs></defs>
    <g id="pix_plugins/mod/ilptarget/complete" stroke="none" stroke-width="1" fill="none" fill-rule="evenodd">
        <g id="circle_background" transform="translate(-6.000000, -6.000000)"></g>
        <path d="M18.2170857,6.16182578 C18.2170857,5.8967585 18.1110588,5.63169122 17.9202103,5.44084278 L16.4782443,3.99887677 C16.2873959,3.80802833 16.0223286,3.70200142 15.7572613,3.70200142 C15.492194,3.70200142 15.2271268,3.80802833 15.0362783,3.99887677 L8.08091289,10.9648449 L4.96372167,7.83705099 C4.77287323,7.64620255 4.50780595,7.54017564 4.24273867,7.54017564 C3.97767139,7.54017564 3.71260411,7.64620255 3.52175567,7.83705099 L2.07978967,9.279017 C1.88894122,9.46986544 1.78291431,9.73493272 1.78291431,10 C1.78291431,10.2650673 1.88894122,10.5301346 2.07978967,10.720983 L7.35992989,16.0011232 C7.55077833,16.1919717 7.81584561,16.2979986 8.08091289,16.2979986 C8.34598017,16.2979986 8.61104745,16.1919717 8.80189589,16.0011232 L17.9202103,6.88280878 C18.1110588,6.69196034 18.2170857,6.42689306 18.2170857,6.16182578 Z" id="complete" fill="#A22833"></path>
    </g>
</svg>