<?xml version="1.0" encoding="UTF-8"?>
<svg width="20px" height="20px" viewBox="0 0 20 20" version="1.1" xmlns="http://www.w3.org/2000/svg" xmlns:xlink="http://www.w3.org/1999/xlink">
    <!-- Generator: Sketch 50 (54983) - http://www.bohemiancoding.com/sketch -->
    <title>pix_plugins/mod/ilptarget/icon</title>
    <desc>Created with Sketch.</desc>
    <defs></defs>
    <g id="pix_plugins/mod/ilptarget/icon" stroke="none" stroke-width="1" fill="none" fill-rule="evenodd">
        <g id="circle_background" transform="translate(-6.000000, -6.000000)"></g>
        <path d="M12.7142889,10 C12.7142889,11.4949795 11.4949795,12.7142889 10,12.7142889 C8.50502054,12.7142889 7.28571105,11.4949795 7.28571105,10 C7.28571105,8.50502054 8.50502054,7.28571105 10,7.28571105 C11.4949795,7.28571105 12.7142889,8.50502054 12.7142889,10 Z M14.0714334,10 C14.0714334,7.75222946 12.2477705,5.92856658 10,5.92856658 C7.75222946,5.92856658 5.92856658,7.75222946 5.92856658,10 C5.92856658,12.2477705 7.75222946,14.0714334 10,14.0714334 C12.2477705,14.0714334 14.0714334,12.2477705 14.0714334,10 Z M15.4285779,10 C15.4285779,13.0005616 13.0005616,15.4285779 10,15.4285779 C6.99943839,15.4285779 4.5714221,13.0005616 4.5714221,10 C4.5714221,6.99943839 6.99943839,4.5714221 10,4.5714221 C13.0005616,4.5714221 15.4285779,6.99943839 15.4285779,10 Z M16.7857224,10 C16.7857224,6.25725 13.74275,3.21427763 10,3.21427763 C6.25725,3.21427763 3.21427763,6.25725 3.21427763,10 C3.21427763,13.74275 6.25725,16.7857224 10,16.7857224 C13.74275,16.7857224 16.7857224,13.74275 16.7857224,10 Z M18.1428668,10 C18.1428668,14.4955411 14.4955411,18.1428668 10,18.1428668 C5.50445893,18.1428668 1.85713315,14.4955411 1.85713315,10 C1.85713315,5.50445893 5.50445893,1.85713315 10,1.85713315 C14.4955411,1.85713315 18.1428668,5.50445893 18.1428668,10 Z" id="ilptarget" fill="#A22833"></path>
    </g>
</svg>