<?xml version="1.0" encoding="UTF-8"?>
<svg width="32px" height="32px" viewBox="0 0 32 32" version="1.1" xmlns="http://www.w3.org/2000/svg" xmlns:xlink="http://www.w3.org/1999/xlink">
    <!-- Generator: Sketch 50 (54983) - http://www.bohemiancoding.com/sketch -->
    <title>pix_plugins/mod/ilptarget/icon</title>
    <desc>Created with Sketch.</desc>
    <defs></defs>
    <g id="pix_plugins/mod/ilptarget/icon" stroke="none" stroke-width="1" fill="none" fill-rule="evenodd">
        <g id="circle_background"></g>
        <path d="M18.8571558,16.1428668 C18.8571558,17.6378463 17.6378463,18.8571558 16.1428668,18.8571558 C14.6478874,18.8571558 13.4285779,17.6378463 13.4285779,16.1428668 C13.4285779,14.6478874 14.6478874,13.4285779 16.1428668,13.4285779 C17.6378463,13.4285779 18.8571558,14.6478874 18.8571558,16.1428668 Z M20.2143003,16.1428668 C20.2143003,13.8950963 18.3906374,12.0714334 16.1428668,12.0714334 C13.8950963,12.0714334 12.0714334,13.8950963 12.0714334,16.1428668 C12.0714334,18.3906374 13.8950963,20.2143003 16.1428668,20.2143003 C18.3906374,20.2143003 20.2143003,18.3906374 20.2143003,16.1428668 Z M21.5714447,16.1428668 C21.5714447,19.1434285 19.1434285,21.5714447 16.1428668,21.5714447 C13.1423052,21.5714447 10.7142889,19.1434285 10.7142889,16.1428668 C10.7142889,13.1423052 13.1423052,10.7142889 16.1428668,10.7142889 C19.1434285,10.7142889 21.5714447,13.1423052 21.5714447,16.1428668 Z M22.9285892,16.1428668 C22.9285892,12.4001169 19.8856168,9.35714447 16.1428668,9.35714447 C12.4001169,9.35714447 9.35714447,12.4001169 9.35714447,16.1428668 C9.35714447,19.8856168 12.4001169,22.9285892 16.1428668,22.9285892 C19.8856168,22.9285892 22.9285892,19.8856168 22.9285892,16.1428668 Z M24.2857337,16.1428668 C24.2857337,20.6384079 20.6384079,24.2857337 16.1428668,24.2857337 C11.6473258,24.2857337 8,20.6384079 8,16.1428668 C8,11.6473258 11.6473258,8 16.1428668,8 C20.6384079,8 24.2857337,11.6473258 24.2857337,16.1428668 Z" id="ilptarget" fill="#A22833"></path>
    </g>
</svg>