<?xml version="1.0" encoding="UTF-8"?>
<svg width="20px" height="20px" viewBox="0 0 20 20" version="1.1" xmlns="http://www.w3.org/2000/svg" xmlns:xlink="http://www.w3.org/1999/xlink">
    <!-- Generator: Sketch 50 (54983) - http://www.bohemiancoding.com/sketch -->
    <title>pix_plugins/mod/coursework/icon</title>
    <desc>Created with Sketch.</desc>
    <defs></defs>
    <g id="pix_plugins/mod/coursework/icon" stroke="none" stroke-width="1" fill="none" fill-rule="evenodd">
        <g id="circle_background" transform="translate(-6.000000, -6.000000)"></g>
        <path d="M9.95891457,13.7321473 L11.1888268,12.5022351 L9.57721769,10.8906261 L8.34730551,12.1205382 L8.34730551,12.7142889 L9.36516386,12.7142889 L9.36516386,13.7321473 L9.95891457,13.7321473 Z M14.6240987,6.09820963 C14.5286745,6.00278541 14.3696341,6.0133881 14.2742099,6.10881233 L10.563268,9.81975425 C10.4678437,9.91517847 10.4572411,10.0742188 10.5526653,10.1696431 C10.6480895,10.2650673 10.8071299,10.2544646 10.9025541,10.1590404 L14.613496,6.44809844 C14.7089202,6.35267422 14.7195229,6.19363386 14.6240987,6.09820963 Z M15.472314,12.3962082 L15.472314,14.4107195 C15.472314,16.0965474 14.1045668,17.4642946 12.4187389,17.4642946 L3.59729985,17.4642946 C1.91147194,17.4642946 0.543724776,16.0965474 0.543724776,14.4107195 L0.543724776,5.58928046 C0.543724776,3.90345255 1.91147194,2.53570539 3.59729985,2.53570539 L12.4187389,2.53570539 C12.8428466,2.53570539 13.2669542,2.62052692 13.6592538,2.80077267 C13.754678,2.84318343 13.8288969,2.93860765 13.8501022,3.04463457 C13.8713076,3.16126417 13.8394996,3.26729108 13.754678,3.35211261 L13.2351462,3.87164448 C13.1397219,3.9670687 13.0124896,3.99887677 12.89586,3.95646601 C12.7368197,3.91405524 12.5777793,3.89284986 12.4187389,3.89284986 L3.59729985,3.89284986 C2.66426302,3.89284986 1.90086925,4.65624363 1.90086925,5.58928046 L1.90086925,14.4107195 C1.90086925,15.3437564 2.66426302,16.1071501 3.59729985,16.1071501 L12.4187389,16.1071501 C13.3517758,16.1071501 14.1151695,15.3437564 14.1151695,14.4107195 L14.1151695,13.0747805 C14.1151695,12.9899589 14.1469776,12.9051374 14.2105937,12.8415212 L14.889166,12.162949 C14.9951929,12.0569221 15.1330279,12.0357167 15.2602602,12.0887302 C15.3874925,12.1417436 15.472314,12.2583732 15.472314,12.3962082 Z M14.4544556,4.5714221 L17.5080307,7.62499717 L10.3830222,14.7500057 L7.32944715,14.7500057 L7.32944715,11.6964306 L14.4544556,4.5714221 Z M19.1620505,5.97097734 L18.186603,6.94642493 L15.1330279,3.89284986 L16.1084755,2.91740227 C16.500775,2.5251027 17.1581419,2.5251027 17.5504415,2.91740227 L19.1620505,4.52901134 C19.5543501,4.92131091 19.5543501,5.57867777 19.1620505,5.97097734 Z" id="coursework" fill="#A22833"></path>
    </g>
</svg>