<?xml version="1.0" encoding="UTF-8"?>
<svg width="32px" height="32px" viewBox="0 0 32 32" version="1.1" xmlns="http://www.w3.org/2000/svg" xmlns:xlink="http://www.w3.org/1999/xlink">
    <!-- Generator: Sketch 50 (54983) - http://www.bohemiancoding.com/sketch -->
    <title>pix_plugins/mod/voiceboard/icon</title>
    <desc>Created with Sketch.</desc>
    <defs></defs>
    <g id="pix_plugins/mod/voiceboard/icon" stroke="none" stroke-width="1" fill="none" fill-rule="evenodd">
        <g id="circle_background"></g>
        <path d="M6,8 L6,8.75 L6,22.25 L6,23 L6.76923077,23 L13.3557692,23 L15.4471154,25.0390625 L16,25.5546875 L16.5528846,25.0390625 L18.6442308,23 L25.2307692,23 L26,23 L26,22.25 L26,8.75 L26,8 L25.2307692,8 L6.76923077,8 L6,8 Z M7.53846154,9.5 L24.4615385,9.5 L24.4615385,21.5 L18.3076923,21.5 L17.9951923,21.5 L17.7548077,21.7109375 L16,23.421875 L14.2451923,21.7109375 L14.0048077,21.5 L13.6923077,21.5 L7.53846154,21.5 L7.53846154,9.5 Z" id="Shape" fill="#A22833" fill-rule="nonzero"></path>
    </g>
</svg>