<?xml version="1.0" encoding="UTF-8"?>
<svg width="32px" height="32px" viewBox="0 0 32 32" version="1.1" xmlns="http://www.w3.org/2000/svg" xmlns:xlink="http://www.w3.org/1999/xlink">
    <!-- Generator: Sketch 50 (54983) - http://www.bohemiancoding.com/sketch -->
    <title>pix_plugins/mod/resource/icon</title>
    <desc>Created with Sketch.</desc>
    <defs></defs>
    <g id="pix_plugins/mod/resource/icon" stroke="none" stroke-width="1" fill="none" fill-rule="evenodd">
        <g id="circle_background"></g>
        <path d="M7,7 L7,7.76923077 L7,23.1538462 L7,23.9230769 L7.76923077,23.9230769 L14.3076923,23.9230769 C15.5512754,25.7803346 17.6811892,27 20.0769231,27 C23.8913215,27 27,23.8913215 27,20.0769231 C27,16.5262508 24.2952938,13.5913762 20.8461538,13.2019231 L20.8461538,7.76923077 L20.8461538,7 L20.0769231,7 L7.76923077,7 L7,7 Z M8.53846154,8.53846154 L19.3076923,8.53846154 L19.3076923,13.2019231 C17.9727569,13.3526546 16.7462346,13.8900746 15.75,14.6923077 L10.0769231,14.6923077 L10.0769231,16.2307692 L14.3076923,16.2307692 C13.9903769,16.7046708 13.7561477,17.2230615 13.5625,17.7692308 L10.0769231,17.7692308 L10.0769231,19.3076923 L13.2019231,19.3076923 C13.1729962,19.5638777 13.1538462,19.8131969 13.1538462,20.0769231 C13.1538462,20.8842877 13.3067431,21.6632708 13.5625,22.3846154 L8.53846154,22.3846154 L8.53846154,8.53846154 Z M10.0769231,11.6153846 L10.0769231,13.1538462 L17.7692308,13.1538462 L17.7692308,11.6153846 L10.0769231,11.6153846 Z M20.0769231,14.6923077 C23.0598754,14.6923077 25.4615385,17.0939708 25.4615385,20.0769231 C25.4615385,23.0598754 23.0598754,25.4615385 20.0769231,25.4615385 C17.0939708,25.4615385 14.6923077,23.0598754 14.6923077,20.0769231 C14.6923077,17.0939708 17.0939708,14.6923077 20.0769231,14.6923077 Z M17.5288462,16.2307692 C16.6826923,16.7692308 16.0865385,17.6153846 15.7019231,18.5384615 L22.3846154,18.5384615 L22.3846154,16.2307692 L17.5288462,16.2307692 Z M15.5336538,20.8461538 C15.6875,21.6923077 16.0769231,22.5384615 16.6153846,23.1538462 L22.3846154,23.1538462 L22.3846154,20.8461538 L15.5336538,20.8461538 Z" id="Shape" fill="#A22833" fill-rule="nonzero"></path>
    </g>
</svg>