<?xml version="1.0" encoding="UTF-8"?>
<svg width="20px" height="20px" viewBox="0 0 20 20" version="1.1" xmlns="http://www.w3.org/2000/svg" xmlns:xlink="http://www.w3.org/1999/xlink">
    <!-- Generator: Sketch 50 (54983) - http://www.bohemiancoding.com/sketch -->
    <title>pix_plugins/mod/resource/icon</title>
    <desc>Created with Sketch.</desc>
    <defs></defs>
    <g id="pix_plugins/mod/resource/icon" stroke="none" stroke-width="1" fill="none" fill-rule="evenodd">
        <g id="circle_background" transform="translate(-6.000000, -6.000000)"></g>
        <path d="M0,0 L0,0.769230769 L0,16.1538462 L0,16.9230769 L0.769230769,16.9230769 L7.30769231,16.9230769 C8.55127538,18.7803346 10.6811892,20 13.0769231,20 C16.8913215,20 20,16.8913215 20,13.0769231 C20,9.52625077 17.2952938,6.59137615 13.8461538,6.20192308 L13.8461538,0.769230769 L13.8461538,0 L13.0769231,0 L0.769230769,0 L0,0 Z M1.53846154,1.53846154 L12.3076923,1.53846154 L12.3076923,6.20192308 C10.9727569,6.35265462 9.74623462,6.89007462 8.75,7.69230769 L3.07692308,7.69230769 L3.07692308,9.23076923 L7.30769231,9.23076923 C6.99037692,9.70467077 6.75614769,10.2230615 6.5625,10.7692308 L3.07692308,10.7692308 L3.07692308,12.3076923 L6.20192308,12.3076923 C6.17299615,12.5638777 6.15384615,12.8131969 6.15384615,13.0769231 C6.15384615,13.8842877 6.30674308,14.6632708 6.5625,15.3846154 L1.53846154,15.3846154 L1.53846154,1.53846154 Z M3.07692308,4.61538462 L3.07692308,6.15384615 L10.7692308,6.15384615 L10.7692308,4.61538462 L3.07692308,4.61538462 Z M13.0769231,7.69230769 C16.0598754,7.69230769 18.4615385,10.0939708 18.4615385,13.0769231 C18.4615385,16.0598754 16.0598754,18.4615385 13.0769231,18.4615385 C10.0939708,18.4615385 7.69230769,16.0598754 7.69230769,13.0769231 C7.69230769,10.0939708 10.0939708,7.69230769 13.0769231,7.69230769 Z M10.5288462,9.23076923 C9.68269231,9.76923077 9.08653846,10.6153846 8.70192308,11.5384615 L15.3846154,11.5384615 L15.3846154,9.23076923 L10.5288462,9.23076923 Z M8.53365385,13.8461538 C8.6875,14.6923077 9.07692308,15.5384615 9.61538462,16.1538462 L15.3846154,16.1538462 L15.3846154,13.8461538 L8.53365385,13.8461538 Z" id="Shape" fill="#A22833" fill-rule="nonzero"></path>
    </g>
</svg>