<?xml version="1.0" encoding="UTF-8"?>
<svg width="20px" height="20px" viewBox="0 0 20 20" version="1.1" xmlns="http://www.w3.org/2000/svg" xmlns:xlink="http://www.w3.org/1999/xlink">
    <!-- Generator: Sketch 50 (54983) - http://www.bohemiancoding.com/sketch -->
    <title>pix_core/i/course</title>
    <desc>Created with Sketch.</desc>
    <defs></defs>
    <g id="pix_core/i/course" stroke="none" stroke-width="1" fill="none" fill-rule="evenodd">
        <g id="circle_background" transform="translate(-6.000000, -6.000000)"></g>
        <path d="M15.7303909,9.27796884 L15.8900002,12.0800001 C15.9609377,13.3302736 13.3451174,14.3500002 10.2150002,14.3500002 C7.08488292,14.3500002 4.46906257,13.3302736 4.54000007,12.0800001 L4.69960945,9.27796884 L9.78937515,10.8829298 C9.93125015,10.9272657 10.0731252,10.9450001 10.2150002,10.9450001 C10.3568752,10.9450001 10.4987502,10.9272657 10.6406252,10.8829298 L15.7303909,9.27796884 Z M20.4300003,6.40500005 C20.4300003,6.52914068 20.3501956,6.63554693 20.2349222,6.67988287 L10.303672,9.80113291 C10.2682033,9.8100001 10.2416017,9.8100001 10.2150002,9.8100001 C10.1883986,9.8100001 10.161797,9.8100001 10.1263283,9.80113291 L4.34492194,7.97449226 C3.83949224,8.37351571 3.48480474,9.34890634 3.41386724,10.5459767 C3.75082037,10.7410548 3.97250006,11.0957423 3.97250006,11.5125001 C3.97250006,11.9115236 3.76855474,12.2573439 3.45820318,12.4612892 L3.97250006,16.3007814 C3.98136725,16.3805861 3.95476568,16.4603908 3.90156256,16.5224611 C3.84835943,16.5845315 3.76855474,16.6200002 3.68875006,16.6200002 L1.98625003,16.6200002 C1.90644534,16.6200002 1.82664065,16.5845315 1.77343753,16.5224611 C1.7202344,16.4603908 1.69363284,16.3805861 1.70250003,16.3007814 L2.21679691,12.4612892 C1.90644534,12.2573439 1.70250003,11.9115236 1.70250003,11.5125001 C1.70250003,11.0868751 1.94191409,10.7233204 2.27886722,10.5282423 C2.33207035,9.49078135 2.59808598,8.37351571 3.14785161,7.60207038 L0.195078128,6.67988287 C0.0798046887,6.63554693 0,6.52914068 0,6.40500005 C0,6.28085942 0.0798046887,6.17445317 0.195078128,6.13011723 L10.1263283,3.00886719 C10.161797,3 10.1883986,3 10.2150002,3 C10.2416017,3 10.2682033,3 10.303672,3.00886719 L20.2349222,6.13011723 C20.3501956,6.17445317 20.4300003,6.28085942 20.4300003,6.40500005 Z" id="course" fill="#A22833"></path>
    </g>
</svg>