<?xml version="1.0" encoding="UTF-8"?>
<svg width="20px" height="20px" viewBox="0 0 20 20" version="1.1" xmlns="http://www.w3.org/2000/svg" xmlns:xlink="http://www.w3.org/1999/xlink">
    <!-- Generator: Sketch 50 (54983) - http://www.bohemiancoding.com/sketch -->
    <title>info</title>
    <desc>Created with Sketch.</desc>
    <defs>
        <path d="M12.25,14.9296875 L12.25,13.015625 C12.25,12.800293 12.0825195,12.6328125 11.8671875,12.6328125 L10.71875,12.6328125 L10.71875,6.5078125 C10.71875,6.29248047 10.5512695,6.125 10.3359375,6.125 L6.5078125,6.125 C6.29248047,6.125 6.125,6.29248047 6.125,6.5078125 L6.125,8.421875 C6.125,8.63720703 6.29248047,8.8046875 6.5078125,8.8046875 L7.65625,8.8046875 L7.65625,12.6328125 L6.5078125,12.6328125 C6.29248047,12.6328125 6.125,12.800293 6.125,13.015625 L6.125,14.9296875 C6.125,15.1450195 6.29248047,15.3125 6.5078125,15.3125 L11.8671875,15.3125 C12.0825195,15.3125 12.25,15.1450195 12.25,14.9296875 Z M10.71875,4.2109375 L10.71875,2.296875 C10.71875,2.08154297 10.5512695,1.9140625 10.3359375,1.9140625 L8.0390625,1.9140625 C7.82373047,1.9140625 7.65625,2.08154297 7.65625,2.296875 L7.65625,4.2109375 C7.65625,4.42626953 7.82373047,4.59375 8.0390625,4.59375 L10.3359375,4.59375 C10.5512695,4.59375 10.71875,4.42626953 10.71875,4.2109375 Z M18.375,9.1875 C18.375,14.2597656 14.2597656,18.375 9.1875,18.375 C4.11523438,18.375 0,14.2597656 0,9.1875 C0,4.11523438 4.11523438,0 9.1875,0 C14.2597656,0 18.375,4.11523438 18.375,9.1875 Z" id="path-1"></path>
    </defs>
    <g id="City---Desktop" stroke="none" stroke-width="1" fill="none" fill-rule="evenodd">
        <g id="Search-and-Modules" transform="translate(-1151.000000, -781.000000)">
            <g id="overlay">
                <g id="modules" transform="translate(255.000000, 331.000000)">
                    <g id="Group-7" transform="translate(0.000000, 143.000000)">
                        <g id="Group-4" transform="translate(95.000000, 295.000000)">
                            <g id="Icon" transform="translate(790.000000, 1.000000)">
                                <g id="✔︎-Symbol">
                                    <g id="info" transform="translate(11.812500, 11.812500)">
                                        <mask id="mask-2" fill="white">
                                            <use xlink:href="#path-1"></use>
                                        </mask>
                                        <use id="Mask" fill="#000000" xlink:href="#path-1"></use>
                                        <g id="colour/004" mask="url(#mask-2)" fill="#CCCCCC">
                                            <g transform="translate(-9.187500, -9.187500)" id="Rectangle-2">
                                                <rect x="0" y="0" width="37" height="37"></rect>
                                            </g>
                                        </g>
                                    </g>
                                </g>
                            </g>
                        </g>
                    </g>
                </g>
            </g>
        </g>
    </g>
</svg>