<?xml version="1.0" encoding="UTF-8"?>
<svg width="18px" height="18px" viewBox="0 0 18 18" version="1.1" xmlns="http://www.w3.org/2000/svg" xmlns:xlink="http://www.w3.org/1999/xlink">
    <!-- Generator: Sketch 50 (54983) - http://www.bohemiancoding.com/sketch -->
    <title>â†³ðŸŽ¨</title>
    <desc>Created with Sketch.</desc>
    <defs>
        <path d="M18,9 C18,8.82924107 17.9296875,8.66852679 17.8091518,8.54799107 L15.2377232,5.9765625 C15.1171875,5.85602679 14.9564732,5.78571429 14.7857143,5.78571429 C14.4341518,5.78571429 14.1428571,6.07700893 14.1428571,6.42857143 L14.1428571,7.71428571 L10.2857143,7.71428571 L10.2857143,3.85714286 L11.5714286,3.85714286 C11.9229911,3.85714286 12.2142857,3.56584821 12.2142857,3.21428571 C12.2142857,3.04352679 12.1439732,2.8828125 12.0234375,2.76227679 L9.45200893,0.190848214 C9.33147321,0.0703125 9.17075893,0 9,0 C8.82924107,0 8.66852679,0.0703125 8.54799107,0.190848214 L5.9765625,2.76227679 C5.85602679,2.8828125 5.78571429,3.04352679 5.78571429,3.21428571 C5.78571429,3.56584821 6.07700893,3.85714286 6.42857143,3.85714286 L7.71428571,3.85714286 L7.71428571,7.71428571 L3.85714286,7.71428571 L3.85714286,6.42857143 C3.85714286,6.07700893 3.56584821,5.78571429 3.21428571,5.78571429 C3.04352679,5.78571429 2.8828125,5.85602679 2.76227679,5.9765625 L0.190848214,8.54799107 C0.0703125,8.66852679 0,8.82924107 0,9 C0,9.17075893 0.0703125,9.33147321 0.190848214,9.45200893 L2.76227679,12.0234375 C2.8828125,12.1439732 3.04352679,12.2142857 3.21428571,12.2142857 C3.56584821,12.2142857 3.85714286,11.9229911 3.85714286,11.5714286 L3.85714286,10.2857143 L7.71428571,10.2857143 L7.71428571,14.1428571 L6.42857143,14.1428571 C6.07700893,14.1428571 5.78571429,14.4341518 5.78571429,14.7857143 C5.78571429,14.9564732 5.85602679,15.1171875 5.9765625,15.2377232 L8.54799107,17.8091518 C8.66852679,17.9296875 8.82924107,18 9,18 C9.17075893,18 9.33147321,17.9296875 9.45200893,17.8091518 L12.0234375,15.2377232 C12.1439732,15.1171875 12.2142857,14.9564732 12.2142857,14.7857143 C12.2142857,14.4341518 11.9229911,14.1428571 11.5714286,14.1428571 L10.2857143,14.1428571 L10.2857143,10.2857143 L14.1428571,10.2857143 L14.1428571,11.5714286 C14.1428571,11.9229911 14.4341518,12.2142857 14.7857143,12.2142857 C14.9564732,12.2142857 15.1171875,12.1439732 15.2377232,12.0234375 L17.8091518,9.45200893 C17.9296875,9.33147321 18,9.17075893 18,9 Z" id="path-1"></path>
    </defs>
    <g id="--Symbols" stroke="none" stroke-width="1" fill="none" fill-rule="evenodd">
        <g id="icon/move" transform="translate(-7.000000, -7.000000)">
            <g id="â†³ðŸŽ¨" transform="translate(7.000000, 7.000000)">
                <mask id="mask-2" fill="white">
                    <use xlink:href="#path-1"></use>
                </mask>
                <use id="ï‡" fill="#000000" xlink:href="#path-1"></use>
                <g id="colour/001" mask="url(#mask-2)" fill="#A22833">
                    <g transform="translate(-7.000000, -7.000000)" id="Rectangle-2">
                        <rect x="0" y="0" width="32" height="32"></rect>
                    </g>
                </g>
            </g>
        </g>
    </g>
</svg>