<?xml version="1.0" encoding="UTF-8"?>
<svg width="32px" height="32px" viewBox="0 0 32 32" version="1.1" xmlns="http://www.w3.org/2000/svg" xmlns:xlink="http://www.w3.org/1999/xlink">
    <!-- Generator: Sketch 50 (54983) - http://www.bohemiancoding.com/sketch -->
    <title>pix_plugins/mod/voicepodcaster/icon</title>
    <desc>Created with Sketch.</desc>
    <defs></defs>
    <g id="pix_plugins/mod/voicepodcaster/icon" stroke="none" stroke-width="1" fill="none" fill-rule="evenodd">
        <g id="circle_background"></g>
        <path d="M17,26 L18.6666667,26 L18.6666667,8.5 L17,8.5 L17,26 Z M17,7.66666667 L18.6666667,7.66666667 L18.6666667,6 L17,6 L17,7.66666667 Z M13.6666667,26 L15.3333333,26 L15.3333333,19.3333333 L13.6666667,19.3333333 L13.6666667,26 Z M13.6666667,18.5 L15.3333333,18.5 L15.3333333,16.8333333 L13.6666667,16.8333333 L13.6666667,18.5 Z M20.3333333,26 L22,26 L22,11.8333333 L20.3333333,11.8333333 L20.3333333,26 Z M20.3333333,11 L22,11 L22,9.33333333 L20.3333333,9.33333333 L20.3333333,11 Z M23.6666667,26 L25.3333333,26 L25.3333333,21 L23.6666667,21 L23.6666667,26 Z M23.6666667,18.5 L23.6666667,20.1666667 L25.3333333,20.1666667 L25.3333333,18.5 L23.6666667,18.5 Z M10.3333333,26 L12,26 L12,13.5 L10.3333333,13.5 L10.3333333,26 Z M10.3333333,12.6666667 L12,12.6666667 L12,11 L10.3333333,11 L10.3333333,12.6666667 Z M7,26 L8.66666667,26 L8.66666667,17.6666667 L7,17.6666667 L7,26 Z M7,16.8333333 L8.66666667,16.8333333 L8.66666667,15.1666667 L7,15.1666667 L7,16.8333333 Z" id="Shape" fill="#A22833" fill-rule="nonzero"></path>
    </g>
</svg>