<?xml version="1.0" encoding="UTF-8"?>
<svg width="20px" height="20px" viewBox="0 0 20 20" version="1.1" xmlns="http://www.w3.org/2000/svg" xmlns:xlink="http://www.w3.org/1999/xlink">
    <!-- Generator: Sketch 50 (54983) - http://www.bohemiancoding.com/sketch -->
    <title>pix_plugins/mod/voicepodcaster/icon</title>
    <desc>Created with Sketch.</desc>
    <defs></defs>
    <g id="pix_plugins/mod/voicepodcaster/icon" stroke="none" stroke-width="1" fill="none" fill-rule="evenodd">
        <g id="circle_background" transform="translate(-6.000000, -6.000000)"></g>
        <path d="M10.8333333,20 L12.5,20 L12.5,2.5 L10.8333333,2.5 L10.8333333,20 Z M10.8333333,1.66666667 L12.5,1.66666667 L12.5,0 L10.8333333,0 L10.8333333,1.66666667 Z M7.5,20 L9.16666667,20 L9.16666667,13.3333333 L7.5,13.3333333 L7.5,20 Z M7.5,12.5 L9.16666667,12.5 L9.16666667,10.8333333 L7.5,10.8333333 L7.5,12.5 Z M14.1666667,20 L15.8333333,20 L15.8333333,5.83333333 L14.1666667,5.83333333 L14.1666667,20 Z M14.1666667,5 L15.8333333,5 L15.8333333,3.33333333 L14.1666667,3.33333333 L14.1666667,5 Z M17.5,20 L19.1666667,20 L19.1666667,15 L17.5,15 L17.5,20 Z M17.5,12.5 L17.5,14.1666667 L19.1666667,14.1666667 L19.1666667,12.5 L17.5,12.5 Z M4.16666667,20 L5.83333333,20 L5.83333333,7.5 L4.16666667,7.5 L4.16666667,20 Z M4.16666667,6.66666667 L5.83333333,6.66666667 L5.83333333,5 L4.16666667,5 L4.16666667,6.66666667 Z M0.833333333,20 L2.5,20 L2.5,11.6666667 L0.833333333,11.6666667 L0.833333333,20 Z M0.833333333,10.8333333 L2.5,10.8333333 L2.5,9.16666667 L0.833333333,9.16666667 L0.833333333,10.8333333 Z" id="Shape" fill="#A22833" fill-rule="nonzero"></path>
    </g>
</svg>