<?xml version="1.0" encoding="UTF-8"?>
<svg width="20px" height="20px" viewBox="0 0 20 20" version="1.1" xmlns="http://www.w3.org/2000/svg" xmlns:xlink="http://www.w3.org/1999/xlink">
    <!-- Generator: Sketch 50 (54983) - http://www.bohemiancoding.com/sketch -->
    <title>pix_plugins/mod/oublog/icon</title>
    <desc>Created with Sketch.</desc>
    <defs></defs>
    <g id="pix_plugins/mod/oublog/icon" stroke="none" stroke-width="1" fill="none" fill-rule="evenodd">
        <g id="circle_background" transform="translate(-6.000000, -6.000000)"></g>
        <path d="M5.3928083,17.3516532 L6.45555721,16.2889043 L3.71109573,13.5444428 L2.64834682,14.6071917 L2.64834682,15.8567976 L4.14320243,15.8567976 L4.14320243,17.3516532 L5.3928083,17.3516532 Z M11.5006949,6.51395 C11.5006949,6.36212873 11.3955879,6.2570217 11.2437666,6.2570217 C11.1736952,6.2570217 11.1036239,6.28037881 11.0452311,6.33877161 L4.71545185,12.6685508 C4.65705905,12.7269436 4.63370193,12.797015 4.63370193,12.8670863 C4.63370193,13.0189076 4.73880897,13.1240147 4.89063024,13.1240147 C4.9607016,13.1240147 5.03077295,13.1006575 5.08916575,13.0422647 L11.418945,6.71248551 C11.4773378,6.65409272 11.5006949,6.58402136 11.5006949,6.51395 Z M10.8700527,4.27166659 L15.7283334,9.12994732 L6.01177195,18.8465088 L1.15349121,18.8465088 L1.15349121,13.9882281 L10.8700527,4.27166659 Z M18.8465088,5.3928083 C18.8465088,5.78987932 18.683009,6.17527178 18.4144021,6.44387865 L16.4757612,8.38251952 L11.6174805,3.52423878 L13.5561214,1.59727647 C13.8247282,1.31699105 14.2101207,1.15349121 14.6071917,1.15349121 C15.0042627,1.15349121 15.3896552,1.31699105 15.6699406,1.59727647 L18.4144021,4.33005939 C18.683009,4.61034481 18.8465088,4.99573727 18.8465088,5.3928083 Z" id="ï€" fill="#A22833"></path>
    </g>
</svg>