<?xml version="1.0" encoding="UTF-8"?>
<svg width="32px" height="32px" viewBox="0 0 32 32" version="1.1" xmlns="http://www.w3.org/2000/svg" xmlns:xlink="http://www.w3.org/1999/xlink">
    <!-- Generator: Sketch 50 (54983) - http://www.bohemiancoding.com/sketch -->
    <title>pix_plugins/mod/forum/icon</title>
    <desc>Created with Sketch.</desc>
    <defs></defs>
    <g id="pix_plugins/mod/forum/icon" stroke="none" stroke-width="1" fill="none" fill-rule="evenodd">
        <g id="circle_background"></g>
        <g id="Group" transform="translate(5.000000, 8.000000)" fill="#A22833">
            <path d="M7.24939301,5.03562757 C3.8836034,5.03562757 1.03562757,6.92888423 1.03562757,9.17813786 C1.03562757,10.3836731 1.84471161,11.5325724 3.244427,12.3254748 L3.94833012,12.7300168 L3.72987743,13.5067375 C3.57615146,14.0811871 3.37388045,14.5261834 3.1635186,14.898362 C3.98069348,14.5585467 4.7250508,14.0973688 5.38849971,13.5148283 L5.73640585,13.2073764 L6.19758375,13.2559214 C6.54548989,13.2963756 6.90148687,13.3206482 7.24939301,13.3206482 C10.6151826,13.3206482 13.4631584,11.4273915 13.4631584,9.17813786 C13.4631584,6.92888423 10.6151826,5.03562757 7.24939301,5.03562757 Z M14.498786,9.17813786 C14.498786,12.0422954 11.254359,14.3562757 7.24939301,14.3562757 C6.85294183,14.3562757 6.45649065,14.3320032 6.07622115,14.291549 C5.01632105,15.2300865 3.75414995,15.8935354 2.35443456,16.2495324 C2.0631643,16.3304408 1.74762153,16.3870767 1.43207875,16.4275309 L1.39162455,16.4275309 C1.22980774,16.4275309 1.08417261,16.2980774 1.04371841,16.1200789 L1.04371841,16.1119881 C1.00326421,15.9097171 1.1408085,15.7883545 1.2621711,15.6427193 C1.77189405,15.0682697 2.35443456,14.5828193 2.73470406,13.2316489 C1.06799093,12.2850206 0,10.8205785 0,9.17813786 C0,6.31398036 3.244427,4 7.24939301,4 C11.254359,4 14.498786,6.31398036 14.498786,9.17813786 Z" id="chat"></path>
            <path d="M4,6.310848 C4,2.8201602 7.9541407,0 12.8351872,0 C17.7162337,0 21.6703744,2.8201602 21.6703744,6.310848 C21.6703744,8.31257009 20.368762,10.0973568 18.3374578,11.2510587 C18.8009107,12.8977956 19.5108811,13.4894376 20.1321052,14.1895473 C20.2800157,14.3670399 20.4476476,14.5149504 20.3983441,14.7614679 L20.3983441,14.7713286 C20.3490406,14.988264 20.171548,15.1460352 19.974334,15.1460352 L19.9250305,15.1460352 C19.5404632,15.0967317 19.1558959,15.0277068 18.8009107,14.9290998 C17.0950096,14.495229 15.5567404,13.6866516 14.2649887,12.5428104 C13.8015358,12.5921139 13.3183615,12.621696 12.8351872,12.621696 C7.9541407,12.621696 4,9.80153579 4,6.310848 Z" id="chat"></path>
        </g>
    </g>
</svg>