<?xml version="1.0" encoding="UTF-8"?>
<svg width="20px" height="20px" viewBox="0 0 20 20" version="1.1" xmlns="http://www.w3.org/2000/svg" xmlns:xlink="http://www.w3.org/1999/xlink">
    <!-- Generator: Sketch 50 (54983) - http://www.bohemiancoding.com/sketch -->
    <title>pix_plugins/mod/forum/icon</title>
    <desc>Created with Sketch.</desc>
    <defs></defs>
    <g id="pix_plugins/mod/forum/icon" stroke="none" stroke-width="1" fill="none" fill-rule="evenodd">
        <g id="circle_background" transform="translate(-6.000000, -6.000000)"></g>
        <g id="Group" transform="translate(0.000000, 2.000000)" fill="#A22833">
            <path d="M6.59035728,5.03562757 C3.53054854,5.03562757 0.941479611,6.92888423 0.941479611,9.17813786 C0.941479611,10.3836731 1.67701056,11.5325724 2.94947909,12.3254748 L3.58939102,12.7300168 L3.39079766,13.5067375 C3.25104678,14.0811871 3.06716405,14.5261834 2.875926,14.898362 C3.61881226,14.5585467 4.29550073,14.0973688 4.8986361,13.5148283 L5.21491441,13.2073764 L5.63416705,13.2559214 C5.95044536,13.2963756 6.27407897,13.3206482 6.59035728,13.3206482 C9.65016602,13.3206482 12.2392349,11.4273915 12.2392349,9.17813786 C12.2392349,6.92888423 9.65016602,5.03562757 6.59035728,5.03562757 Z M13.1807146,9.17813786 C13.1807146,12.0422954 10.2312355,14.3562757 6.59035728,14.3562757 C6.22994711,14.3562757 5.86953695,14.3320032 5.52383741,14.291549 C4.56029187,15.2300865 3.41286359,15.8935354 2.14039505,16.2495324 C1.87560391,16.3304408 1.58874684,16.3870767 1.30188977,16.4275309 L1.26511323,16.4275309 C1.11800704,16.4275309 0.985611468,16.2980774 0.948834921,16.1200789 L0.948834921,16.1119881 C0.912058373,15.9097171 1.03709863,15.7883545 1.14742828,15.6427193 C1.61081277,15.0682697 2.14039505,14.5828193 2.4860946,13.2316489 C0.970900849,12.2850206 0,10.8205785 0,9.17813786 C0,6.31398036 2.94947909,4 6.59035728,4 C10.2312355,4 13.1807146,6.31398036 13.1807146,9.17813786 Z" id="chat"></path>
            <path d="M3.63636364,6.310848 C3.63636364,2.8201602 7.231037,0 11.668352,0 C16.105667,0 19.7003404,2.8201602 19.7003404,6.310848 C19.7003404,8.31257009 18.5170564,10.0973568 16.6704162,11.2510587 C17.091737,12.8977956 17.7371646,13.4894376 18.3019138,14.1895473 C18.4363779,14.3670399 18.5887705,14.5149504 18.5439492,14.7614679 L18.5439492,14.7713286 C18.4991278,14.988264 18.3377709,15.1460352 18.1584854,15.1460352 L18.1136641,15.1460352 C17.7640574,15.0967317 17.4144508,15.0277068 17.091737,14.9290998 C15.5409178,14.495229 14.1424913,13.6866516 12.9681715,12.5428104 C12.5468507,12.5921139 12.1076014,12.621696 11.668352,12.621696 C7.231037,12.621696 3.63636364,9.80153579 3.63636364,6.310848 Z" id="chat"></path>
        </g>
    </g>
</svg>