<?xml version="1.0" encoding="UTF-8"?>
<svg width="32px" height="32px" viewBox="0 0 32 32" version="1.1" xmlns="http://www.w3.org/2000/svg" xmlns:xlink="http://www.w3.org/1999/xlink">
    <!-- Generator: Sketch 50 (54983) - http://www.bohemiancoding.com/sketch -->
    <title>pix_plugins/mod/url/icon</title>
    <desc>Created with Sketch.</desc>
    <defs></defs>
    <g id="pix_plugins/mod/url/icon" stroke="none" stroke-width="1" fill="none" fill-rule="evenodd">
        <g id="circle_background"></g>
        <path d="M22.2678753,19.7232295 C22.2678753,19.4475595 22.1618484,19.1930949 21.971,19.0022465 L19.7656402,16.7968867 C19.5747918,16.6060382 19.3097245,16.5000113 19.0446572,16.5000113 C18.7371792,16.5000113 18.4933173,16.6166409 18.2812634,16.8392974 C18.6311523,17.1891863 19.0446572,17.4860616 19.0446572,18.0267989 C19.0446572,18.5887415 18.5887415,19.0446572 18.0267989,19.0446572 C17.4860616,19.0446572 17.1891863,18.6311523 16.8392974,18.2812634 C16.6166409,18.4933173 16.4894086,18.7371792 16.4894086,19.0552599 C16.4894086,19.3203272 16.5954355,19.5853945 16.786284,19.7762429 L18.9704384,21.971 C19.1612868,22.1618484 19.4263541,22.2572727 19.6914214,22.2572727 C19.9564887,22.2572727 20.2215559,22.1618484 20.4124044,21.9816027 L21.971,20.4336098 C22.1618484,20.2427613 22.2678753,19.9882967 22.2678753,19.7232295 Z M14.8141834,12.2483321 C14.8141834,11.9832649 14.7081565,11.7181976 14.5173081,11.5273491 L12.3331537,9.33259207 C12.1423052,9.14174362 11.877238,9.03571671 11.6121707,9.03571671 C11.3471034,9.03571671 11.0820361,9.14174362 10.8911877,9.32198938 L9.33259207,10.8699823 C9.14174362,11.0608307 9.03571671,11.3152953 9.03571671,11.5803626 C9.03571671,11.8560326 9.14174362,12.1104972 9.33259207,12.3013456 L11.5379518,14.5067054 C11.7288003,14.6975538 11.9938676,14.792978 12.2589348,14.792978 C12.5664129,14.792978 12.8102748,14.6869511 13.0223286,14.4642946 C12.6724398,14.1144058 12.2589348,13.8175304 12.2589348,13.2767932 C12.2589348,12.7148506 12.7148506,12.2589348 13.2767932,12.2589348 C13.8175304,12.2589348 14.1144058,12.6724398 14.4642946,13.0223286 C14.6869511,12.8102748 14.8141834,12.5664129 14.8141834,12.2483321 Z M24.3035921,19.7232295 C24.3035921,20.529034 23.9749086,21.3136331 23.4023633,21.8755758 L21.8437677,23.4235687 C21.2712224,23.996114 20.4972259,24.3035921 19.6914214,24.3035921 C18.8750142,24.3035921 18.1010177,23.9855113 17.5284724,23.4023633 L15.344318,21.2076062 C14.7717727,20.6350609 14.4642946,19.8610644 14.4642946,19.0552599 C14.4642946,18.2176473 14.8035807,17.4224455 15.3973314,16.8392974 L14.4642946,15.9062606 C13.8811466,16.5000113 13.0965474,16.8392974 12.2589348,16.8392974 C11.4531303,16.8392974 10.6685312,16.5212167 10.0959858,15.9486714 L7.89062606,13.7433116 C7.30747805,13.1601636 7,12.3967698 7,11.5803626 C7,10.7745581 7.32868343,9.98995892 7.90122875,9.42801629 L9.45982436,7.88002337 C10.0323697,7.30747805 10.8063661,7 11.6121707,7 C12.4285779,7 13.2025744,7.31808074 13.7751197,7.90122875 L15.9592741,10.0959858 C16.5318194,10.6685312 16.8392974,11.4425276 16.8392974,12.2483321 C16.8392974,13.0859448 16.5000113,13.8811466 15.9062606,14.4642946 L16.8392974,15.3973314 C17.4224455,14.8035807 18.2070446,14.4642946 19.0446572,14.4642946 C19.8504617,14.4642946 20.6350609,14.7823753 21.2076062,15.3549207 L23.412966,17.5602804 C23.996114,18.1434285 24.3035921,18.9068222 24.3035921,19.7232295 Z" id="url" fill="#A22833"></path>
    </g>
</svg>