<?xml version="1.0" encoding="UTF-8"?>
<svg width="20px" height="20px" viewBox="0 0 20 20" version="1.1" xmlns="http://www.w3.org/2000/svg" xmlns:xlink="http://www.w3.org/1999/xlink">
    <!-- Generator: Sketch 50 (54983) - http://www.bohemiancoding.com/sketch -->
    <title>pix_plugins/mod/url/icon</title>
    <desc>Created with Sketch.</desc>
    <defs></defs>
    <g id="pix_plugins/mod/url/icon" stroke="none" stroke-width="1" fill="none" fill-rule="evenodd">
        <g id="circle_background" transform="translate(-6.000000, -6.000000)"></g>
        <path d="M16.6160793,14.0714334 C16.6160793,13.7957635 16.5100524,13.5412989 16.319204,13.3504504 L14.1138442,11.1450907 C13.9229957,10.9542422 13.6579285,10.8482153 13.3928612,10.8482153 C13.0853831,10.8482153 12.8415212,10.9648449 12.6294674,11.1875014 C12.9793562,11.5373902 13.3928612,11.8342656 13.3928612,12.3750028 C13.3928612,12.9369455 12.9369455,13.3928612 12.3750028,13.3928612 C11.8342656,13.3928612 11.5373902,12.9793562 11.1875014,12.6294674 C10.9648449,12.8415212 10.8376126,13.0853831 10.8376126,13.4034639 C10.8376126,13.6685312 10.9436395,13.9335984 11.134488,14.1244469 L13.3186423,16.319204 C13.5094908,16.5100524 13.7745581,16.6054766 14.0396254,16.6054766 C14.3046926,16.6054766 14.5697599,16.5100524 14.7606084,16.3298067 L16.319204,14.7818137 C16.5100524,14.5909653 16.6160793,14.3365007 16.6160793,14.0714334 Z M9.16238739,6.59653612 C9.16238739,6.33146884 9.05636048,6.06640156 8.86551204,5.87555312 L6.68135765,3.68079604 C6.49050921,3.4899476 6.22544193,3.38392068 5.96037465,3.38392068 C5.69530737,3.38392068 5.43024009,3.4899476 5.23939165,3.67019335 L3.68079604,5.21818626 C3.4899476,5.40903471 3.38392068,5.66349929 3.38392068,5.92856658 C3.38392068,6.20423655 3.4899476,6.45870114 3.68079604,6.64954958 L5.88615581,8.85490935 C6.07700425,9.04575779 6.34207153,9.14118201 6.60713881,9.14118201 C6.91461686,9.14118201 7.15847876,9.0351551 7.37053258,8.81249858 C7.02064377,8.46260977 6.60713881,8.16573442 6.60713881,7.62499717 C6.60713881,7.06305453 7.06305453,6.60713881 7.62499717,6.60713881 C8.16573442,6.60713881 8.46260977,7.02064377 8.81249858,7.37053258 C9.0351551,7.15847876 9.16238739,6.91461686 9.16238739,6.59653612 Z M18.651796,14.0714334 C18.651796,14.877238 18.3231126,15.6618371 17.7505673,16.2237797 L16.1919717,17.7717727 C15.6194263,18.344318 14.8454299,18.651796 14.0396254,18.651796 C13.2232181,18.651796 12.4492217,18.3337153 11.8766763,17.7505673 L9.69252195,15.5558102 C9.11997663,14.9832649 8.81249858,14.2092684 8.81249858,13.4034639 C8.81249858,12.5658513 9.1517847,11.7706494 9.74553541,11.1875014 L8.81249858,10.2544646 C8.22935057,10.8482153 7.44475142,11.1875014 6.60713881,11.1875014 C5.80133428,11.1875014 5.01673513,10.8694207 4.44418981,10.2968754 L2.23883003,8.09151558 C1.65568202,7.50836757 1.34820397,6.7449738 1.34820397,5.92856658 C1.34820397,5.12276204 1.6768874,4.33816289 2.24943272,3.77622026 L3.80802833,2.22822734 C4.38057366,1.65568202 5.15457012,1.34820397 5.96037465,1.34820397 C6.77678187,1.34820397 7.55077833,1.66628471 8.12332366,2.24943272 L10.307478,4.44418981 C10.8800234,5.01673513 11.1875014,5.79073159 11.1875014,6.59653612 C11.1875014,7.43414873 10.8482153,8.22935057 10.2544646,8.81249858 L11.1875014,9.74553541 C11.7706494,9.1517847 12.5552486,8.81249858 13.3928612,8.81249858 C14.1986657,8.81249858 14.9832649,9.13057932 15.5558102,9.70312465 L17.76117,11.9084844 C18.344318,12.4916324 18.651796,13.2550262 18.651796,14.0714334 Z" id="url" fill="#A22833"></path>
    </g>
</svg>