<?xml version="1.0" encoding="UTF-8"?>
<svg width="20px" height="20px" viewBox="0 0 20 20" version="1.1" xmlns="http://www.w3.org/2000/svg" xmlns:xlink="http://www.w3.org/1999/xlink">
    <!-- Generator: Sketch 50 (54983) - http://www.bohemiancoding.com/sketch -->
    <title>pix_plugins/mod/voicepresentation/icon</title>
    <desc>Created with Sketch.</desc>
    <defs></defs>
    <g id="pix_plugins/mod/voicepresentation/icon" stroke="none" stroke-width="1" fill="none" fill-rule="evenodd">
        <g id="circle_background" transform="translate(-6.000000, -6.000000)"></g>
        <path d="M18.1428668,7.2862922 C18.8956579,7.2862922 19.5000113,7.8906456 19.5000113,8.64343667 C19.5000113,9.39622775 18.8956579,10.0005811 18.1428668,10.0005811 L18.1428668,14.0720146 C18.1428668,14.814203 17.5279108,15.429159 16.7857224,15.429159 C14.8984433,13.8599607 11.855471,11.7076144 8.17633711,11.4001364 C6.91461686,11.824244 6.47990652,13.2980181 7.30691643,14.1462334 C6.56472805,15.3655429 7.51897026,16.2243609 8.64285553,17.1043843 C7.98548867,18.3979126 5.24999434,18.419118 4.27454675,17.5178892 C3.65959066,15.6306102 2.74775921,13.7433311 3.4899476,11.3577256 L2.19641927,11.3577256 C1.26338244,11.3577256 0.499988675,10.5943319 0.499988675,9.66129503 L0.499988675,7.62557832 C0.499988675,6.69254149 1.26338244,5.92914772 2.19641927,5.92914772 L7.28571105,5.92914772 C11.3571445,5.92914772 14.7500057,3.55414489 16.7857224,1.8577143 C17.5279108,1.8577143 18.1428668,2.47267039 18.1428668,3.21485877 L18.1428668,7.2862922 Z M16.7857224,13.6903177 L16.7857224,3.57535027 C14.01842,5.69588852 11.3359391,6.91519801 8.64285553,7.21207336 L8.64285553,10.0748 C11.3359391,10.3716753 14.01842,11.5697794 16.7857224,13.6903177 Z" id="voicepresentation" fill="#A22833"></path>
    </g>
</svg>