<?xml version="1.0" encoding="UTF-8"?>
<svg width="32px" height="32px" viewBox="0 0 32 32" version="1.1" xmlns="http://www.w3.org/2000/svg" xmlns:xlink="http://www.w3.org/1999/xlink">
    <!-- Generator: Sketch 50 (54983) - http://www.bohemiancoding.com/sketch -->
    <title>pix_plugins/mod/voicepresentation/icon</title>
    <desc>Created with Sketch.</desc>
    <defs></defs>
    <g id="pix_plugins/mod/voicepresentation/icon" stroke="none" stroke-width="1" fill="none" fill-rule="evenodd">
        <g id="circle_background"></g>
        <path d="M24.6428782,13.4999887 C25.3956693,13.4999887 26.0000226,14.1043421 26.0000226,14.8571332 C26.0000226,15.6099242 25.3956693,16.2142776 24.6428782,16.2142776 L24.6428782,20.2857111 C24.6428782,21.0278994 24.0279221,21.6428555 23.2857337,21.6428555 C21.3984547,20.0736572 18.3554823,17.9213109 14.6763484,17.6138329 C13.4146282,18.0379405 12.9799178,19.5117146 13.8069278,20.3599299 C13.0647394,21.5792394 14.0189816,22.4380574 15.1428668,23.3180807 C14.4855,24.6116091 11.7500057,24.6328144 10.7745581,23.7315857 C10.159602,21.8443067 9.24777054,19.9570276 9.98995892,17.5714221 L8.69643059,17.5714221 C7.76339377,17.5714221 7,16.8080283 7,15.8749915 L7,13.8392748 C7,12.906238 7.76339377,12.1428442 8.69643059,12.1428442 L13.7857224,12.1428442 C17.8571558,12.1428442 21.250017,9.76784137 23.2857337,8.07141078 C24.0279221,8.07141078 24.6428782,8.68636687 24.6428782,9.42855525 L24.6428782,13.4999887 Z M23.2857337,19.9040142 L23.2857337,9.78904675 C20.5184313,11.909585 17.8359504,13.1288945 15.1428668,13.4257698 L15.1428668,16.2884965 C17.8359504,16.5853718 20.5184313,17.7834759 23.2857337,19.9040142 Z" id="voicepresentation" fill="#A22833"></path>
    </g>
</svg>