<?xml version="1.0" encoding="UTF-8"?>
<svg width="20px" height="20px" viewBox="0 0 20 20" version="1.1" xmlns="http://www.w3.org/2000/svg" xmlns:xlink="http://www.w3.org/1999/xlink">
    <!-- Generator: Sketch 50 (54983) - http://www.bohemiancoding.com/sketch -->
    <title>pix_plugins/mod/turnitintool/icon</title>
    <desc>Created with Sketch.</desc>
    <defs></defs>
    <g id="pix_plugins/mod/turnitintool/icon" stroke="none" stroke-width="1" fill="none" fill-rule="evenodd">
        <g id="circle_background" transform="translate(-6.000000, -6.000000)"></g>
        <path d="M16.1084755,12.3431948 L16.1084755,15.0892918 C16.1084755,16.7751197 14.7407283,18.1428668 13.0549004,18.1428668 L4.23346132,18.1428668 C2.54763342,18.1428668 1.17988625,16.7751197 1.17988625,15.0892918 L1.17988625,6.26785269 C1.17988625,4.58202479 2.54763342,3.21427763 4.23346132,3.21427763 L6.93714758,3.21427763 C7.11739333,3.21427763 7.2764337,3.3627153 7.2764337,3.55356374 C7.2764337,3.7232068 7.15980409,3.86104179 7.00076372,3.89284986 C6.47062916,4.07309561 5.99350806,4.28514944 5.59060579,4.52901134 C5.53759234,4.55021672 5.48457888,4.5714221 5.42096273,4.5714221 L4.23346132,4.5714221 C3.30042449,4.5714221 2.53703072,5.33481587 2.53703072,6.26785269 L2.53703072,15.0892918 C2.53703072,16.0223286 3.30042449,16.7857224 4.23346132,16.7857224 L13.0549004,16.7857224 C13.9879372,16.7857224 14.751331,16.0223286 14.751331,15.0892918 L14.751331,12.8203159 C14.751331,12.6930836 14.8255498,12.576454 14.9421794,12.5128378 C15.1542333,12.4174136 15.3450817,12.2795786 15.5147248,12.1205382 C15.610149,12.025114 15.7585867,11.9827033 15.885819,12.0357167 C16.0130513,12.0887302 16.1084755,12.2053598 16.1084755,12.3431948 Z M18.6213133,7.08425992 L14.5498799,11.1556933 C14.4226476,11.2935283 14.2530045,11.3571445 14.0727588,11.3571445 C13.9879372,11.3571445 13.892513,11.3359391 13.8076915,11.304131 C13.5638296,11.1981041 13.3941865,10.9542422 13.3941865,10.6785722 L13.3941865,8.64285553 L11.6977559,8.64285553 C9.36516386,8.64285553 7.88078709,9.08816856 7.05377718,10.0318081 C6.19495919,11.0178584 5.9404946,12.608262 6.26917803,15.046881 C6.29038341,15.1953187 6.19495919,15.3437564 6.05712421,15.4073725 C6.01471344,15.4179752 5.97230268,15.4285779 5.92989191,15.4285779 C5.823865,15.4285779 5.71783809,15.3755644 5.65422194,15.2907429 C5.5800031,15.184716 3.8941752,12.7991105 3.8941752,10.6785722 C3.8941752,7.83705099 4.78480126,4.5714221 11.6977559,4.5714221 L13.3941865,4.5714221 L13.3941865,2.53570539 C13.3941865,2.26003542 13.5638296,2.01617352 13.8076915,1.91014661 C13.892513,1.87833853 13.9879372,1.85713315 14.0727588,1.85713315 C14.2530045,1.85713315 14.4226476,1.93135199 14.5498799,2.05858428 L18.6213133,6.13001771 C18.8863806,6.39508499 18.8863806,6.81919264 18.6213133,7.08425992 Z" id="turnitintool" fill="#A22833"></path>
    </g>
</svg>