<?xml version="1.0" encoding="UTF-8"?>
<svg width="32px" height="32px" viewBox="0 0 32 32" version="1.1" xmlns="http://www.w3.org/2000/svg" xmlns:xlink="http://www.w3.org/1999/xlink">
    <!-- Generator: Sketch 50 (54983) - http://www.bohemiancoding.com/sketch -->
    <title>pix_plugins/mod/turnitintool/icon</title>
    <desc>Created with Sketch.</desc>
    <defs></defs>
    <g id="pix_plugins/mod/turnitintool/icon" stroke="none" stroke-width="1" fill="none" fill-rule="evenodd">
        <g id="circle_background"></g>
        <path d="M21.9285892,18.4860616 L21.9285892,21.2321586 C21.9285892,22.9179865 20.5608421,24.2857337 18.8750142,24.2857337 L10.0535751,24.2857337 C8.36774717,24.2857337 7,22.9179865 7,21.2321586 L7,12.4107195 C7,10.7248916 8.36774717,9.35714447 10.0535751,9.35714447 L12.7572613,9.35714447 C12.9375071,9.35714447 13.0965474,9.50558215 13.0965474,9.69643059 C13.0965474,9.86607365 12.9799178,10.0039086 12.8208775,10.0357167 C12.2907429,10.2159625 11.8136218,10.4280163 11.4107195,10.6718782 C11.3577061,10.6930836 11.3046926,10.7142889 11.2410765,10.7142889 L10.0535751,10.7142889 C9.12053824,10.7142889 8.35714447,11.4776827 8.35714447,12.4107195 L8.35714447,21.2321586 C8.35714447,22.1651955 9.12053824,22.9285892 10.0535751,22.9285892 L18.8750142,22.9285892 C19.808051,22.9285892 20.5714447,22.1651955 20.5714447,21.2321586 L20.5714447,18.9631827 C20.5714447,18.8359504 20.6456636,18.7193208 20.7622932,18.6557047 C20.974347,18.5602804 21.1651955,18.4224455 21.3348385,18.2634051 C21.4302627,18.1679809 21.5787004,18.1255701 21.7059327,18.1785836 C21.833165,18.231597 21.9285892,18.3482266 21.9285892,18.4860616 Z M24.441427,13.2271268 L20.3699936,17.2985602 C20.2427613,17.4363952 20.0731183,17.5000113 19.8928725,17.5000113 C19.808051,17.5000113 19.7126268,17.4788059 19.6278052,17.4469979 C19.3839433,17.340971 19.2143003,17.0971091 19.2143003,16.8214391 L19.2143003,14.7857224 L17.5178697,14.7857224 C15.1852776,14.7857224 13.7009008,15.2310354 12.8738909,16.1746749 C12.0150729,17.1607252 11.7606084,18.7511289 12.0892918,21.1897479 C12.1104972,21.3381855 12.0150729,21.4866232 11.877238,21.5502394 C11.8348272,21.5608421 11.7924164,21.5714447 11.7500057,21.5714447 C11.6439788,21.5714447 11.5379518,21.5184313 11.4743357,21.4336098 C11.4001169,21.3275829 9.71428895,18.9419773 9.71428895,16.8214391 C9.71428895,13.9799178 10.604915,10.7142889 17.5178697,10.7142889 L19.2143003,10.7142889 L19.2143003,8.67857224 C19.2143003,8.40290227 19.3839433,8.15904037 19.6278052,8.05301346 C19.7126268,8.02120538 19.808051,8 19.8928725,8 C20.0731183,8 20.2427613,8.07421884 20.3699936,8.20145113 L24.441427,12.2728846 C24.7064943,12.5379518 24.7064943,12.9620595 24.441427,13.2271268 Z" id="turnitintool" fill="#A22833"></path>
    </g>
</svg>