<?xml version="1.0" encoding="UTF-8"?>
<svg width="32px" height="32px" viewBox="0 0 32 32" version="1.1" xmlns="http://www.w3.org/2000/svg" xmlns:xlink="http://www.w3.org/1999/xlink">
    <!-- Generator: Sketch 50 (54983) - http://www.bohemiancoding.com/sketch -->
    <title>pix_plugins/mod/wiki/icon</title>
    <desc>Created with Sketch.</desc>
    <defs></defs>
    <g id="pix_plugins/mod/wiki/icon" stroke="none" stroke-width="1" fill="none" fill-rule="evenodd">
        <g id="circle_background"></g>
        <path d="M16.4151898,20.1964419 L17.645102,18.9665297 L16.0334929,17.3549207 L14.8035807,18.5848329 L14.8035807,19.1785836 L15.8214391,19.1785836 L15.8214391,20.1964419 L16.4151898,20.1964419 Z M21.0803739,12.5625042 C20.9849497,12.46708 20.8259093,12.4776827 20.7304851,12.5731069 L17.0195432,16.2840489 C16.924119,16.3794731 16.9135163,16.5385135 17.0089405,16.6339377 C17.1043647,16.7293619 17.2634051,16.7187592 17.3588293,16.623335 L21.0697712,12.9123931 C21.1651955,12.8169688 21.1757981,12.6579285 21.0803739,12.5625042 Z M21.9285892,18.8605028 L21.9285892,20.8750142 C21.9285892,22.5608421 20.5608421,23.9285892 18.8750142,23.9285892 L10.0535751,23.9285892 C8.36774717,23.9285892 7,22.5608421 7,20.8750142 L7,12.0535751 C7,10.3677472 8.36774717,9 10.0535751,9 L18.8750142,9 C19.2991218,9 19.7232295,9.08482153 20.115529,9.26506728 C20.2109532,9.30747805 20.2851721,9.40290227 20.3063775,9.50892918 C20.3275829,9.62555878 20.2957748,9.73158569 20.2109532,9.81640722 L19.6914214,10.3359391 C19.5959972,10.4313633 19.4687649,10.4631714 19.3521353,10.4207606 C19.1930949,10.3783499 19.0340545,10.3571445 18.8750142,10.3571445 L10.0535751,10.3571445 C9.12053824,10.3571445 8.35714447,11.1205382 8.35714447,12.0535751 L8.35714447,20.8750142 C8.35714447,21.808051 9.12053824,22.5714447 10.0535751,22.5714447 L18.8750142,22.5714447 C19.808051,22.5714447 20.5714447,21.808051 20.5714447,20.8750142 L20.5714447,19.5390751 C20.5714447,19.4542535 20.6032528,19.369432 20.666869,19.3058159 L21.3454412,18.6272436 C21.4514681,18.5212167 21.5893031,18.5000113 21.7165354,18.5530248 C21.8437677,18.6060382 21.9285892,18.7226678 21.9285892,18.8605028 Z M20.9107309,11.0357167 L23.9643059,14.0892918 L16.8392974,21.2143003 L13.7857224,21.2143003 L13.7857224,18.1607252 L20.9107309,11.0357167 Z M25.6183258,12.435272 L24.6428782,13.4107195 L21.5893031,10.3571445 L22.5647507,9.38169688 C22.9570503,8.98939731 23.6144171,8.98939731 24.0067167,9.38169688 L25.6183258,10.9933059 C26.0106253,11.3856055 26.0106253,12.0429724 25.6183258,12.435272 Z" id="wiki" fill="#A22833"></path>
    </g>
</svg>