<?xml version="1.0" encoding="UTF-8"?>
<svg width="32px" height="32px" viewBox="0 0 32 32" version="1.1" xmlns="http://www.w3.org/2000/svg" xmlns:xlink="http://www.w3.org/1999/xlink">
    <!-- Generator: Sketch 50 (54983) - http://www.bohemiancoding.com/sketch -->
    <title>pix_plugins/mod/adaptivequiz/icon</title>
    <desc>Created with Sketch.</desc>
    <defs></defs>
    <g id="pix_plugins/mod/adaptivequiz/icon" stroke="none" stroke-width="1" fill="none" fill-rule="evenodd">
        <g id="circle_background"></g>
        <path d="M21.9285892,17.5033584 L21.9285892,20.8750142 C21.9285892,22.5608421 20.5608421,23.9285892 18.8750142,23.9285892 L10.0535751,23.9285892 C8.36774717,23.9285892 7,22.5608421 7,20.8750142 L7,12.0535751 C7,10.3677472 8.36774717,9 10.0535751,9 L18.8750142,9 C19.2991218,9 19.7232295,9.08482153 20.115529,9.26506728 C20.2109532,9.30747805 20.2851721,9.40290227 20.3063775,9.50892918 C20.3275829,9.62555878 20.2957748,9.73158569 20.2109532,9.81640722 L19.6914214,10.3359391 C19.6278052,10.3995552 19.532381,10.441966 19.4475595,10.441966 C19.4157514,10.441966 19.3839433,10.4313633 19.3521353,10.4207606 C19.1930949,10.3783499 19.0340545,10.3571445 18.8750142,10.3571445 L10.0535751,10.3571445 C9.12053824,10.3571445 8.35714447,11.1205382 8.35714447,12.0535751 L8.35714447,20.8750142 C8.35714447,21.808051 9.12053824,22.5714447 10.0535751,22.5714447 L18.8750142,22.5714447 C19.808051,22.5714447 20.5714447,21.808051 20.5714447,20.8750142 L20.5714447,18.1819306 C20.5714447,18.0971091 20.6032528,18.0122875 20.666869,17.9486714 L21.3454412,17.2700991 C21.41966,17.1958803 21.5044816,17.1640722 21.5893031,17.1640722 C21.6317139,17.1640722 21.6741246,17.1746749 21.7165354,17.1958803 C21.8437677,17.2488938 21.9285892,17.3655234 21.9285892,17.5033584 Z M24.3778109,12.3186423 L15.7472202,20.949233 C15.4079341,21.2885191 14.8777996,21.2885191 14.5385135,20.949233 L9.97935623,16.3900758 C9.64007011,16.0507897 9.64007011,15.5206551 9.97935623,15.181369 L11.1456523,14.0150729 C11.4849384,13.6757868 12.0150729,13.6757868 12.3543591,14.0150729 L15.1428668,16.8035807 L22.0028081,9.94363952 C22.3420942,9.6043534 22.8722287,9.6043534 23.2115149,9.94363952 L24.3778109,11.1099356 C24.717097,11.4492217 24.717097,11.9793562 24.3778109,12.3186423 Z" id="adaptive" fill="#A22833"></path>
    </g>
</svg>