<?xml version="1.0" encoding="UTF-8"?>
<svg width="32px" height="32px" viewBox="0 0 32 32" version="1.1" xmlns="http://www.w3.org/2000/svg" xmlns:xlink="http://www.w3.org/1999/xlink">
    <!-- Generator: Sketch 50 (54983) - http://www.bohemiancoding.com/sketch -->
    <title>pix_plugins/mod/portfolio/icon</title>
    <desc>Created with Sketch.</desc>
    <defs></defs>
    <g id="pix_plugins/mod/portfolio/icon" stroke="none" stroke-width="1" fill="none" fill-rule="evenodd">
        <g id="circle_background"></g>
        <path d="M13.7857224,9.42855525 L19.2143003,9.42855525 L19.2143003,8.07141078 L13.7857224,8.07141078 L13.7857224,9.42855525 Z M26.0000226,16.2142776 L26.0000226,21.3035694 C26.0000226,22.2366062 25.2366289,23 24.3035921,23 L8.69643059,23 C7.76339377,23 7,22.2366062 7,21.3035694 L7,16.2142776 L14.1250085,16.2142776 L14.1250085,17.9107082 C14.1250085,18.2818024 14.4324865,18.5892805 14.8035807,18.5892805 L18.1964419,18.5892805 C18.5675361,18.5892805 18.8750142,18.2818024 18.8750142,17.9107082 L18.8750142,16.2142776 L26.0000226,16.2142776 Z M17.8571558,16.2142776 L17.8571558,17.5714221 L15.1428668,17.5714221 L15.1428668,16.2142776 L17.8571558,16.2142776 Z M26.0000226,11.1249858 L26.0000226,15.1964193 L7,15.1964193 L7,11.1249858 C7,10.191949 7.76339377,9.42855525 8.69643059,9.42855525 L12.4285779,9.42855525 L12.4285779,7.73212466 C12.4285779,7.17018202 12.8844936,6.7142663 13.4464363,6.7142663 L19.5535864,6.7142663 C20.115529,6.7142663 20.5714447,7.17018202 20.5714447,7.73212466 L20.5714447,9.42855525 L24.3035921,9.42855525 C25.2366289,9.42855525 26.0000226,10.191949 26.0000226,11.1249858 Z" id="portfolio" fill="#A22833"></path>
    </g>
</svg>