<?xml version="1.0" encoding="UTF-8"?>
<svg width="20px" height="20px" viewBox="0 0 20 20" version="1.1" xmlns="http://www.w3.org/2000/svg" xmlns:xlink="http://www.w3.org/1999/xlink">
    <!-- Generator: Sketch 50 (54983) - http://www.bohemiancoding.com/sketch -->
    <title>pix_plugins/mod/portfolio/icon</title>
    <desc>Created with Sketch.</desc>
    <defs></defs>
    <g id="pix_plugins/mod/portfolio/icon" stroke="none" stroke-width="1" fill="none" fill-rule="evenodd">
        <g id="circle_background" transform="translate(-6.000000, -6.000000)"></g>
        <path d="M7.28571105,4.5714221 L12.7142889,4.5714221 L12.7142889,3.21427763 L7.28571105,3.21427763 L7.28571105,4.5714221 Z M19.5000113,11.3571445 L19.5000113,16.4464363 C19.5000113,17.3794731 18.7366176,18.1428668 17.8035807,18.1428668 L2.19641927,18.1428668 C1.26338244,18.1428668 0.499988675,17.3794731 0.499988675,16.4464363 L0.499988675,11.3571445 L7.62499717,11.3571445 L7.62499717,13.0535751 C7.62499717,13.4246693 7.93247521,13.7321473 8.30356941,13.7321473 L11.6964306,13.7321473 C12.0675248,13.7321473 12.3750028,13.4246693 12.3750028,13.0535751 L12.3750028,11.3571445 L19.5000113,11.3571445 Z M11.3571445,11.3571445 L11.3571445,12.7142889 L8.64285553,12.7142889 L8.64285553,11.3571445 L11.3571445,11.3571445 Z M19.5000113,6.26785269 L19.5000113,10.3392861 L0.499988675,10.3392861 L0.499988675,6.26785269 C0.499988675,5.33481587 1.26338244,4.5714221 2.19641927,4.5714221 L5.92856658,4.5714221 L5.92856658,2.87499151 C5.92856658,2.31304887 6.3844823,1.85713315 6.94642493,1.85713315 L13.0535751,1.85713315 C13.6155177,1.85713315 14.0714334,2.31304887 14.0714334,2.87499151 L14.0714334,4.5714221 L17.8035807,4.5714221 C18.7366176,4.5714221 19.5000113,5.33481587 19.5000113,6.26785269 Z" id="portfolio" fill="#A22833"></path>
    </g>
</svg>