<?xml version="1.0" encoding="UTF-8"?>
<svg width="20px" height="20px" viewBox="0 0 20 20" version="1.1" xmlns="http://www.w3.org/2000/svg" xmlns:xlink="http://www.w3.org/1999/xlink">
    <!-- Generator: Sketch 50 (54983) - http://www.bohemiancoding.com/sketch -->
    <title>pix_plugins/mod/certificate/icon</title>
    <desc>Created with Sketch.</desc>
    <defs></defs>
    <g id="pix_plugins/mod/certificate/icon" stroke="none" stroke-width="1" fill="none" fill-rule="evenodd">
        <g id="circle_background" transform="translate(-6.000000, -6.000000)"></g>
        <path d="M10.2200003,0 C9.74673637,0 9.27346262,0.161447093 8.86899766,0.450380504 L7.61280225,1.32743728 L6.16699244,1.51707117 L6.14329064,1.51707117 L6.11958884,1.54077541 C5.15243244,1.75572118 4.3909649,2.51726702 4.17604122,3.48452285 L4.15233942,3.50822709 L4.15233942,3.53193132 L3.96272502,5.00159402 L3.08575842,6.1393974 L3.06205661,6.16310164 L3.06205661,6.18680587 C2.53227284,7.03454676 2.507951,8.12748352 3.08575842,8.93649737 L3.98642682,10.1928219 L4.22344482,11.496555 L1.78215941,15.2181202 L1,16.3796278 L2.39840621,16.3796278 L4.62637543,16.3796278 L5.50334203,18.4181922 L6.04848344,19.7219252 L6.83064284,18.5367134 L9.22452466,14.9336693 C9.86652793,15.1984309 10.5947519,15.2211081 11.2154759,14.9336693 L13.6093577,18.5367134 L14.3915171,19.7219252 L14.9366585,18.4181922 L15.8136251,16.3796278 L18.0415943,16.3796278 L19.4400005,16.3796278 L18.6578411,15.2181202 L16.2876611,11.6150762 L16.4772755,10.1928219 L17.3542421,8.93649737 L17.3779439,8.91279314 L17.3779439,8.8890889 C17.9077273,8.04134801 17.9320495,6.97211549 17.3542421,6.16310164 L16.4772755,4.90677707 L16.1928539,3.48452285 L16.2165557,3.48452285 C16.2145064,3.46607488 16.1953568,3.45542611 16.1928539,3.43711437 C16.0571689,2.44446103 15.2700067,1.6381286 14.2730081,1.51707117 L14.2493063,1.51707117 L12.8271983,1.32743728 L11.5710029,0.450380504 C11.1665379,0.161447093 10.6932642,0 10.2200003,0 Z M10.2200003,1.54077541 C10.393791,1.54077541 10.5675817,1.59266645 10.6940363,1.68300083 L12.0450389,2.65487455 L12.2109515,2.77339574 L12.4005659,2.79709997 L14.0596919,3.03414234 L14.0833937,3.03414234 C14.4228035,3.07185825 14.6619285,3.31100776 14.6996405,3.65045251 L14.6996405,3.67415674 L14.6996405,3.69786098 L15.0077639,5.38086181 L15.0314657,5.54679147 L15.1499747,5.68901689 L16.1217485,7.04015841 C16.3023987,7.29309437 16.3267209,7.71722879 16.0980467,8.08314484 L15.1499747,9.41058211 L15.0314657,9.57651177 L15.0077639,9.76614567 L14.7707459,11.4254423 L14.7707459,11.4491465 C14.7568692,11.5740546 14.7156212,11.6882984 14.6522369,11.7810058 L14.6048333,11.8047101 L14.6048333,11.8284143 C14.4954425,11.957715 14.344225,12.0443739 14.1544991,12.0654567 L14.1307973,12.0654567 L14.1070955,12.0654567 L12.3768641,12.3736117 L12.1872497,12.397316 L12.0450389,12.5158372 L10.6940363,13.4877109 C10.4411263,13.6683797 9.99333369,13.6927044 9.62745526,13.4640067 L8.39496165,12.5158372 L8.25275085,12.397316 L8.03943465,12.3736117 L6.38030864,12.1365694 L6.35660684,12.1365694 C6.12207051,12.1105084 5.94056402,11.9897692 5.83516724,11.8047101 C5.7880382,11.7219599 5.75201298,11.6251434 5.74036003,11.5202592 L5.74036003,11.496555 L5.74036003,11.4728507 L5.43223663,9.74244143 L5.40853483,9.55280754 L5.29002583,9.41058211 L4.31825202,8.0594406 C4.13760183,7.80650463 4.11327999,7.35866598 4.34195382,6.99274993 L5.29002583,5.76012961 L5.40853483,5.61790418 L5.43223663,5.40456605 L5.64555283,3.81638217 C5.64815457,3.80467311 5.66628504,3.8042192 5.66925463,3.79267793 C5.76428179,3.42335788 6.05842985,3.1291795 6.42771224,3.03414234 C6.43924838,3.03116888 6.43970345,3.01303988 6.45141404,3.01043811 L8.03943465,2.79709997 L8.22904905,2.77339574 L8.39496165,2.65487455 L9.74596426,1.68300083 C9.87241887,1.59266645 10.0462096,1.54077541 10.2200003,1.54077541 Z M15.4580981,13.0847389 L16.6194863,14.8625566 L15.2921855,14.8625566 L14.7944477,14.8625566 L14.6048333,15.3366414 L14.0833937,16.5455575 L12.4716713,14.0803168 L12.8271983,13.8195702 L14.3204117,13.5588236 L14.3204117,13.5825278 C14.3388574,13.5804798 14.3495061,13.5613268 14.3678153,13.5588236 C14.7753899,13.5031008 15.1478965,13.3296055 15.4580981,13.0847389 Z M4.98190243,13.1084431 C5.30619076,13.397609 5.71586185,13.5988637 6.16699244,13.6536405 C6.17442532,13.6545508 6.18326135,13.6528062 6.19069424,13.6536405 L7.63650405,13.8432744 L7.96832925,14.1040211 L6.35660684,16.5455575 L5.83516724,15.3366414 L5.64555283,14.8625566 L5.14781503,14.8625566 L3.82051422,14.8625566 L4.98190243,13.1084431 Z" id="Shape" fill="#A22833" fill-rule="nonzero"></path>
    </g>
</svg>