<?xml version="1.0" encoding="UTF-8"?>
<svg width="32px" height="32px" viewBox="0 0 32 32" version="1.1" xmlns="http://www.w3.org/2000/svg" xmlns:xlink="http://www.w3.org/1999/xlink">
    <!-- Generator: Sketch 50 (54983) - http://www.bohemiancoding.com/sketch -->
    <title>pix_plugins/mod/certificate/icon</title>
    <desc>Created with Sketch.</desc>
    <defs></defs>
    <g id="pix_plugins/mod/certificate/icon" stroke="none" stroke-width="1" fill="none" fill-rule="evenodd">
        <g id="circle_background"></g>
        <path d="M16,4 C15.4240166,4 14.8480212,4.19646815 14.3557692,4.54807692 L12.8269231,5.61538462 L11.0673077,5.84615385 L11.0384615,5.84615385 L11.0096154,5.875 C9.83254268,6.13657175 8.90580252,7.06331191 8.64423077,8.24038462 L8.61538462,8.26923077 L8.61538462,8.29807692 L8.38461538,10.0865385 L7.31730769,11.4711538 L7.28846154,11.5 L7.28846154,11.5288462 C6.64369092,12.5604788 6.61409015,13.8904951 7.31730769,14.875 L8.41346154,16.4038462 L8.70192308,17.9903846 L5.73076923,22.5192308 L4.77884615,23.9326923 L6.48076923,23.9326923 L9.19230769,23.9326923 L10.2596154,26.4134615 L10.9230769,28 L11.875,26.5576923 L14.7884615,22.1730769 C15.5698083,22.4952705 16.4560895,22.5228668 17.2115385,22.1730769 L20.125,26.5576923 L21.0769231,28 L21.7403846,26.4134615 L22.8076923,23.9326923 L25.5192308,23.9326923 L27.2211538,23.9326923 L26.2692308,22.5192308 L23.3846154,18.1346154 L23.6153846,16.4038462 L24.6826923,14.875 L24.7115385,14.8461538 L24.7115385,14.8173077 C25.3563086,13.7856751 25.3859098,12.4845049 24.6826923,11.5 L23.6153846,9.97115385 L23.2692308,8.24038462 L23.2980769,8.24038462 C23.2955828,8.21793492 23.2722769,8.20497622 23.2692308,8.18269231 C23.104096,6.97471286 22.1460843,5.99347102 20.9326923,5.84615385 L20.9038462,5.84615385 L19.1730769,5.61538462 L17.6442308,4.54807692 C17.1519788,4.19646815 16.5759834,4 16,4 Z M16,5.875 C16.2115111,5.875 16.4230222,5.93814723 16.5769231,6.04807692 L18.2211538,7.23076923 L18.4230769,7.375 L18.6538462,7.40384615 L20.6730769,7.69230769 L20.7019231,7.69230769 C21.115,7.73820492 21.4060258,8.02923068 21.4519231,8.44230769 L21.4519231,8.47115385 L21.4519231,8.5 L21.8269231,10.5480769 L21.8557692,10.75 L22,10.9230769 L23.1826923,12.5673077 C23.4025517,12.8751105 23.4321529,13.391248 23.1538462,13.8365385 L22,15.4519231 L21.8557692,15.6538462 L21.8269231,15.8846154 L21.5384615,17.9038462 L21.5384615,17.9326923 C21.5215729,18.0846954 21.4713723,18.2237209 21.3942308,18.3365385 L21.3365385,18.3653846 L21.3365385,18.3942308 C21.2034049,18.5515794 21.0193665,18.6570363 20.7884615,18.6826923 L20.7596154,18.6826923 L20.7307692,18.6826923 L18.625,19.0576923 L18.3942308,19.0865385 L18.2211538,19.2307692 L16.5769231,20.4134615 C16.2691203,20.6333209 15.7241366,20.6629222 15.2788462,20.3846154 L13.7788462,19.2307692 L13.6057692,19.0865385 L13.3461538,19.0576923 L11.3269231,18.7692308 L11.2980769,18.7692308 C11.0126357,18.7375166 10.7917342,18.5905868 10.6634615,18.3653846 C10.6061034,18.2646843 10.5622591,18.1468665 10.5480769,18.0192308 L10.5480769,17.9903846 L10.5480769,17.9615385 L10.1730769,15.8557692 L10.1442308,15.625 L10,15.4519231 L8.81730769,13.8076923 C8.59744831,13.4998895 8.56784754,12.9549058 8.84615385,12.5096154 L10,11.0096154 L10.1442308,10.8365385 L10.1730769,10.5769231 L10.4326923,8.64423077 C10.4358587,8.62998178 10.4579243,8.62942942 10.4615385,8.61538462 C10.5771908,8.16595175 10.9351822,7.80796028 11.3846154,7.69230769 C11.3986554,7.68868923 11.3992092,7.66662769 11.4134615,7.66346154 L13.3461538,7.40384615 L13.5769231,7.375 L13.7788462,7.23076923 L15.4230769,6.04807692 C15.5769778,5.93814723 15.7884889,5.875 16,5.875 Z M22.375,19.9230769 L23.7884615,22.0865385 L22.1730769,22.0865385 L21.5673077,22.0865385 L21.3365385,22.6634615 L20.7019231,24.1346154 L18.7403846,21.1346154 L19.1730769,20.8173077 L20.9903846,20.5 L20.9903846,20.5288462 C21.0128338,20.5263538 21.0257938,20.5030462 21.0480769,20.5 C21.5441135,20.4321898 21.9974708,20.22106 22.375,19.9230769 Z M9.625,19.9519231 C10.0196734,20.3038148 10.5182615,20.5487255 11.0673077,20.6153846 C11.0763538,20.6164923 11.0871077,20.6143692 11.0961538,20.6153846 L12.8557692,20.8461538 L13.2596154,21.1634615 L11.2980769,24.1346154 L10.6634615,22.6634615 L10.4326923,22.0865385 L9.82692308,22.0865385 L8.21153846,22.0865385 L9.625,19.9519231 Z" id="Shape" fill="#A22833" fill-rule="nonzero"></path>
    </g>
</svg>