<?xml version="1.0" encoding="UTF-8"?>
<svg width="20px" height="20px" viewBox="0 0 20 20" version="1.1" xmlns="http://www.w3.org/2000/svg" xmlns:xlink="http://www.w3.org/1999/xlink">
    <!-- Generator: Sketch 50 (54983) - http://www.bohemiancoding.com/sketch -->
    <title>pix_plugins/mod/lti/icon</title>
    <desc>Created with Sketch.</desc>
    <defs></defs>
    <g id="pix_plugins/mod/lti/icon" stroke="none" stroke-width="1" fill="none" fill-rule="evenodd">
        <g id="circle_background" transform="translate(-6.000000, -6.000000)"></g>
        <path d="M9.32142776,9.99469865 C9.32142776,8.49971919 8.10211827,7.2804097 6.60713881,7.2804097 C5.11215935,7.2804097 3.89284986,8.49971919 3.89284986,9.99469865 C3.89284986,11.4896781 5.11215935,12.7089876 6.60713881,12.7089876 C8.10211827,12.7089876 9.32142776,11.4896781 9.32142776,9.99469865 Z M17.4642946,15.4232766 C17.4642946,14.6810882 16.8493385,14.0661321 16.1071501,14.0661321 C15.3649618,14.0661321 14.7500057,14.6810882 14.7500057,15.4232766 C14.7500057,16.1760676 15.3649618,16.780421 16.1071501,16.780421 C16.8599412,16.780421 17.4642946,16.1654649 17.4642946,15.4232766 Z M17.4642946,4.56612075 C17.4642946,3.82393237 16.8493385,3.20897628 16.1071501,3.20897628 C15.3649618,3.20897628 14.7500057,3.82393237 14.7500057,4.56612075 C14.7500057,5.31891183 15.3649618,5.92326523 16.1071501,5.92326523 C16.8599412,5.92326523 17.4642946,5.30830914 17.4642946,4.56612075 Z M13.3928612,9.02985375 L13.3928612,10.9913516 C13.3928612,11.1291866 13.2868343,11.288227 13.1489993,11.3094324 L11.5055822,11.563897 C11.4207606,11.8395669 11.304131,12.1046342 11.166296,12.3697015 C11.4631714,12.7938091 11.7812521,13.1861087 12.1205382,13.589011 C12.162949,13.6526271 12.1947571,13.7162433 12.1947571,13.8010648 C12.1947571,13.8752836 12.1735517,13.9495025 12.1205382,14.0025159 C11.9084844,14.2887886 10.720983,15.5823169 10.413505,15.5823169 C10.3286834,15.5823169 10.2544646,15.5505088 10.1908484,15.5080981 L8.97153895,14.5538559 C8.70647167,14.6916909 8.44140439,14.7977178 8.15513173,14.8825393 C8.10211827,15.4232766 8.04910482,16.0064246 7.91126983,16.5259564 C7.86885907,16.6743941 7.74162677,16.780421 7.5931891,16.780421 L5.62108853,16.780421 C5.47265085,16.780421 5.32421318,16.6637914 5.30300779,16.5153537 L5.0591459,14.893142 C4.78347592,14.8083205 4.51840864,14.6916909 4.26394405,14.5644586 L3.01282649,15.5080981 C2.95981304,15.5611115 2.87499151,15.5823169 2.80077267,15.5823169 C2.71595114,15.5823169 2.6417323,15.5505088 2.57811615,15.4974954 C2.30244618,15.2430308 1.05132862,14.1085428 1.05132862,13.8010648 C1.05132862,13.726846 1.08313669,13.6632298 1.12554746,13.5996137 C1.4330255,13.1967114 1.75110624,12.8044118 2.05858428,12.3909069 C1.91014661,12.1046342 1.78291431,11.8183615 1.68749009,11.5214862 L0.0758810267,11.2670216 C-0.0725566503,11.2458162 -0.178583562,11.1079812 -0.178583562,10.9595436 L-0.178583562,8.99804568 C-0.178583562,8.86021069 -0.0725566503,8.70117033 0.0652783355,8.67996494 L1.70869547,8.42550036 C1.793517,8.14983038 1.91014661,7.8847631 2.04798159,7.61969582 C1.75110624,7.19558817 1.4330255,6.8032886 1.09373938,6.40038633 C1.05132862,6.33677019 1.01952054,6.26255135 1.01952054,6.18833251 C1.01952054,6.11411367 1.04072593,6.03989483 1.09373938,5.97627869 C1.30579321,5.69000602 2.49329462,4.40708039 2.80077267,4.40708039 C2.8855942,4.40708039 2.95981304,4.43888846 3.02342918,4.48129922 L4.24273867,5.43554143 C4.50780595,5.29770645 4.77287323,5.19167954 5.0591459,5.09625532 C5.11215935,4.56612075 5.16517281,3.98297274 5.30300779,3.46344087 C5.34541856,3.31500319 5.47265085,3.20897628 5.62108853,3.20897628 L7.5931891,3.20897628 C7.74162677,3.20897628 7.89006445,3.32560588 7.91126983,3.47404356 L8.15513173,5.09625532 C8.4308017,5.18107684 8.69586898,5.29770645 8.95033357,5.42493874 L10.2014511,4.48129922 C10.2650673,4.42828577 10.3392861,4.40708039 10.413505,4.40708039 C10.4983265,4.40708039 10.5725453,4.43888846 10.6361615,4.49190192 C10.9118314,4.74636651 12.162949,5.89145716 12.162949,6.18833251 C12.162949,6.26255135 12.1311409,6.3261675 12.0887302,6.38978364 C11.7812521,6.8032886 11.4631714,7.18498548 11.166296,7.59849044 C11.304131,7.8847631 11.4313633,8.17103577 11.5267875,8.46791112 L13.1383966,8.71177302 C13.2868343,8.74358109 13.3928612,8.88141608 13.3928612,9.02985375 Z M20.1785836,14.6810882 L20.1785836,16.1654649 C20.1785836,16.3245053 18.8108364,16.472943 18.5987826,16.4941484 C18.513961,16.6955995 18.4079341,16.8758453 18.2807018,17.0454883 C18.3761261,17.2575421 18.8214391,18.3178113 18.8214391,18.5086597 C18.8214391,18.5404678 18.8108364,18.5616732 18.7790283,18.5828785 C18.651796,18.6570974 17.5173081,19.3356696 17.4642946,19.3356696 C17.3264596,19.3356696 16.5312578,18.2754005 16.4252309,18.1163601 C16.319204,18.1269628 16.213177,18.1375655 16.1071501,18.1375655 C16.0011232,18.1375655 15.8950963,18.1269628 15.7890694,18.1163601 C15.6830425,18.2754005 14.8878406,19.3356696 14.7500057,19.3356696 C14.6969922,19.3356696 13.5625042,18.6570974 13.435272,18.5828785 C13.4034639,18.5616732 13.3928612,18.5298651 13.3928612,18.5086597 C13.3928612,18.3284139 13.8381742,17.2575421 13.9335984,17.0454883 C13.8063661,16.8758453 13.7003392,16.6955995 13.6155177,16.4941484 C13.4034639,16.472943 12.0357167,16.3245053 12.0357167,16.1654649 L12.0357167,14.6810882 C12.0357167,14.5220478 13.4034639,14.3736101 13.6155177,14.3524047 C13.7003392,14.1615563 13.8063661,13.9707079 13.9335984,13.8010648 C13.8381742,13.589011 13.3928612,12.5181392 13.3928612,12.3378934 C13.3928612,12.316688 13.4034639,12.28488 13.435272,12.2636746 C13.5625042,12.2000584 14.6969922,11.5214862 14.7500057,11.5214862 C14.8878406,11.5214862 15.6830425,12.5711526 15.7890694,12.730193 C15.8950963,12.7195903 16.0011232,12.7089876 16.1071501,12.7089876 C16.213177,12.7089876 16.319204,12.7195903 16.4252309,12.730193 C16.7221062,12.316688 17.040187,11.9031831 17.4006785,11.5426916 L17.4642946,11.5214862 C17.5173081,11.5214862 18.651796,12.1894557 18.7790283,12.2636746 C18.8108364,12.28488 18.8214391,12.316688 18.8214391,12.3378934 C18.8214391,12.5287419 18.3761261,13.589011 18.2807018,13.8010648 C18.4079341,13.9707079 18.513961,14.1615563 18.5987826,14.3524047 C18.8108364,14.3736101 20.1785836,14.5220478 20.1785836,14.6810882 Z M20.1785836,3.82393237 L20.1785836,5.30830914 C20.1785836,5.46734951 18.8108364,5.61578718 18.5987826,5.63699257 C18.513961,5.8384437 18.4079341,6.01868945 18.2807018,6.18833251 C18.3761261,6.40038633 18.8214391,7.46065546 18.8214391,7.6515039 C18.8214391,7.68331197 18.8108364,7.70451735 18.7790283,7.72572274 C18.651796,7.79994157 17.5173081,8.47851381 17.4642946,8.47851381 C17.3264596,8.47851381 16.5312578,7.41824469 16.4252309,7.25920432 C16.319204,7.26980701 16.213177,7.2804097 16.1071501,7.2804097 C16.0011232,7.2804097 15.8950963,7.26980701 15.7890694,7.25920432 C15.6830425,7.41824469 14.8878406,8.47851381 14.7500057,8.47851381 C14.6969922,8.47851381 13.5625042,7.79994157 13.435272,7.72572274 C13.4034639,7.70451735 13.3928612,7.67270928 13.3928612,7.6515039 C13.3928612,7.47125815 13.8381742,6.40038633 13.9335984,6.18833251 C13.8063661,6.01868945 13.7003392,5.8384437 13.6155177,5.63699257 C13.4034639,5.61578718 12.0357167,5.46734951 12.0357167,5.30830914 L12.0357167,3.82393237 C12.0357167,3.664892 13.4034639,3.51645432 13.6155177,3.49524894 C13.7003392,3.3044005 13.8063661,3.11355206 13.9335984,2.943909 C13.8381742,2.73185517 13.3928612,1.66098336 13.3928612,1.48073761 C13.3928612,1.45953223 13.4034639,1.42772416 13.435272,1.40651877 C13.5625042,1.34290263 14.6969922,0.664330389 14.7500057,0.664330389 C14.8878406,0.664330389 15.6830425,1.71399682 15.7890694,1.87303719 C15.8950963,1.8624345 16.0011232,1.8518318 16.1071501,1.8518318 C16.213177,1.8518318 16.319204,1.8624345 16.4252309,1.87303719 C16.7221062,1.45953223 17.040187,1.04602727 17.4006785,0.685535771 L17.4642946,0.664330389 C17.5173081,0.664330389 18.651796,1.33229994 18.7790283,1.40651877 C18.8108364,1.42772416 18.8214391,1.45953223 18.8214391,1.48073761 C18.8214391,1.67158605 18.3761261,2.73185517 18.2807018,2.943909 C18.4079341,3.11355206 18.513961,3.3044005 18.5987826,3.49524894 C18.8108364,3.51645432 20.1785836,3.664892 20.1785836,3.82393237 Z" id="lti" fill="#A22833"></path>
    </g>
</svg>