<?xml version="1.0" encoding="UTF-8"?>
<svg width="32px" height="32px" viewBox="0 0 32 32" version="1.1" xmlns="http://www.w3.org/2000/svg" xmlns:xlink="http://www.w3.org/1999/xlink">
    <!-- Generator: Sketch 50 (54983) - http://www.bohemiancoding.com/sketch -->
    <title>pix_plugins/mod/lti/icon</title>
    <desc>Created with Sketch.</desc>
    <defs></defs>
    <g id="pix_plugins/mod/lti/icon" stroke="none" stroke-width="1" fill="none" fill-rule="evenodd">
        <g id="circle_background"></g>
        <path d="M15.5000113,16.3303683 C15.5000113,14.8353888 14.2807018,13.6160793 12.7857224,13.6160793 C11.2907429,13.6160793 10.0714334,14.8353888 10.0714334,16.3303683 C10.0714334,17.8253477 11.2907429,19.0446572 12.7857224,19.0446572 C14.2807018,19.0446572 15.5000113,17.8253477 15.5000113,16.3303683 Z M23.6428782,21.7589462 C23.6428782,21.0167578 23.0279221,20.4018017 22.2857337,20.4018017 C21.5435453,20.4018017 20.9285892,21.0167578 20.9285892,21.7589462 C20.9285892,22.5117372 21.5435453,23.1160906 22.2857337,23.1160906 C23.0385248,23.1160906 23.6428782,22.5011346 23.6428782,21.7589462 Z M23.6428782,10.9017904 C23.6428782,10.159602 23.0279221,9.54464589 22.2857337,9.54464589 C21.5435453,9.54464589 20.9285892,10.159602 20.9285892,10.9017904 C20.9285892,11.6545814 21.5435453,12.2589348 22.2857337,12.2589348 C23.0385248,12.2589348 23.6428782,11.6439788 23.6428782,10.9017904 Z M19.5714447,15.3655234 L19.5714447,17.3270212 C19.5714447,17.4648562 19.4654178,17.6238966 19.3275829,17.645102 L17.6841657,17.8995666 C17.5993442,18.1752365 17.4827146,18.4403038 17.3448796,18.7053711 C17.6417549,19.1294787 17.9598357,19.5217783 18.2991218,19.9246806 C18.3415326,19.9882967 18.3733406,20.0519129 18.3733406,20.1367344 C18.3733406,20.2109532 18.3521353,20.2851721 18.2991218,20.3381855 C18.087068,20.6244582 16.8995666,21.9179865 16.5920885,21.9179865 C16.507267,21.9179865 16.4330482,21.8861785 16.369432,21.8437677 L15.1501225,20.8895255 C14.8850552,21.0273605 14.619988,21.1333874 14.3337153,21.2182089 C14.2807018,21.7589462 14.2276884,22.3420942 14.0898534,22.8616261 C14.0474426,23.0100637 13.9202103,23.1160906 13.7717727,23.1160906 L11.7996721,23.1160906 C11.6512344,23.1160906 11.5027967,22.999461 11.4815914,22.8510234 L11.2377295,21.2288116 C10.9620595,21.1439901 10.6969922,21.0273605 10.4425276,20.9001282 L9.19141005,21.8437677 C9.1383966,21.8967812 9.05357507,21.9179865 8.97935623,21.9179865 C8.8945347,21.9179865 8.82031586,21.8861785 8.75669971,21.833165 C8.48102974,21.5787004 7.22991218,20.4442125 7.22991218,20.1367344 C7.22991218,20.0625156 7.26172025,19.9988994 7.30413102,19.9352833 C7.61160906,19.532381 7.9296898,19.1400814 8.23716785,18.7265765 C8.08873017,18.4403038 7.96149787,18.1540312 7.86607365,17.8571558 L6.25446459,17.6026912 C6.10602691,17.5814858 6,17.4436508 6,17.2952132 L6,15.3337153 C6,15.1958803 6.10602691,15.0368399 6.2438619,15.0156346 L7.88727904,14.76117 C7.97210057,14.4855 8.08873017,14.2204327 8.22656515,13.9553654 C7.9296898,13.5312578 7.61160906,13.1389582 7.27232295,12.7360559 C7.22991218,12.6724398 7.19810411,12.598221 7.19810411,12.5240021 C7.19810411,12.4497833 7.21930949,12.3755644 7.27232295,12.3119483 C7.48437677,12.0256756 8.67187819,10.74275 8.97935623,10.74275 C9.06417776,10.74275 9.1383966,10.7745581 9.20201275,10.8169688 L10.4213222,11.771211 C10.6863895,11.6333761 10.9514568,11.5273491 11.2377295,11.4319249 C11.2907429,10.9017904 11.3437564,10.3186423 11.4815914,9.79911048 C11.5240021,9.6506728 11.6512344,9.54464589 11.7996721,9.54464589 L13.7717727,9.54464589 C13.9202103,9.54464589 14.068648,9.66127549 14.0898534,9.80971317 L14.3337153,11.4319249 C14.6093853,11.5167465 14.8744525,11.6333761 15.1289171,11.7606084 L16.3800347,10.8169688 C16.4436508,10.7639554 16.5178697,10.74275 16.5920885,10.74275 C16.67691,10.74275 16.7511289,10.7745581 16.814745,10.8275715 C17.090415,11.0820361 18.3415326,12.2271268 18.3415326,12.5240021 C18.3415326,12.598221 18.3097245,12.6618371 18.2673137,12.7254533 C17.9598357,13.1389582 17.6417549,13.5206551 17.3448796,13.9341601 C17.4827146,14.2204327 17.6099469,14.5067054 17.7053711,14.8035807 L19.3169802,15.0474426 C19.4654178,15.0792507 19.5714447,15.2170857 19.5714447,15.3655234 Z M26.3571671,21.0167578 L26.3571671,22.5011346 C26.3571671,22.6601749 24.98942,22.8086126 24.7773661,22.829818 C24.6925446,23.0312691 24.5865177,23.2115149 24.4592854,23.3811579 C24.5547096,23.5932117 25.0000226,24.6534809 25.0000226,24.8443293 C25.0000226,24.8761374 24.98942,24.8973428 24.9576119,24.9185481 C24.8303796,24.992767 23.6958916,25.6713392 23.6428782,25.6713392 C23.5050432,25.6713392 22.7098413,24.6110701 22.6038144,24.4520297 C22.4977875,24.4626324 22.3917606,24.4732351 22.2857337,24.4732351 C22.1797068,24.4732351 22.0736799,24.4626324 21.967653,24.4520297 C21.8616261,24.6110701 21.0664242,25.6713392 20.9285892,25.6713392 C20.8755758,25.6713392 19.7410878,24.992767 19.6138555,24.9185481 C19.5820474,24.8973428 19.5714447,24.8655347 19.5714447,24.8443293 C19.5714447,24.6640836 20.0167578,23.5932117 20.112182,23.3811579 C19.9849497,23.2115149 19.8789228,23.0312691 19.7941013,22.829818 C19.5820474,22.8086126 18.2143003,22.6601749 18.2143003,22.5011346 L18.2143003,21.0167578 C18.2143003,20.8577174 19.5820474,20.7092797 19.7941013,20.6880744 C19.8789228,20.4972259 19.9849497,20.3063775 20.112182,20.1367344 C20.0167578,19.9246806 19.5714447,18.8538088 19.5714447,18.673563 C19.5714447,18.6523576 19.5820474,18.6205496 19.6138555,18.5993442 C19.7410878,18.535728 20.8755758,17.8571558 20.9285892,17.8571558 C21.0664242,17.8571558 21.8616261,18.9068222 21.967653,19.0658626 C22.0736799,19.0552599 22.1797068,19.0446572 22.2857337,19.0446572 C22.3917606,19.0446572 22.4977875,19.0552599 22.6038144,19.0658626 C22.9006898,18.6523576 23.2187705,18.2388527 23.579262,17.8783612 L23.6428782,17.8571558 C23.6958916,17.8571558 24.8303796,18.5251253 24.9576119,18.5993442 C24.98942,18.6205496 25.0000226,18.6523576 25.0000226,18.673563 C25.0000226,18.8644115 24.5547096,19.9246806 24.4592854,20.1367344 C24.5865177,20.3063775 24.6925446,20.4972259 24.7773661,20.6880744 C24.98942,20.7092797 26.3571671,20.8577174 26.3571671,21.0167578 Z M26.3571671,10.159602 L26.3571671,11.6439788 C26.3571671,11.8030191 24.98942,11.9514568 24.7773661,11.9726622 C24.6925446,12.1741133 24.5865177,12.3543591 24.4592854,12.5240021 C24.5547096,12.7360559 25.0000226,13.7963251 25.0000226,13.9871735 C25.0000226,14.0189816 24.98942,14.040187 24.9576119,14.0613923 C24.8303796,14.1356112 23.6958916,14.8141834 23.6428782,14.8141834 C23.5050432,14.8141834 22.7098413,13.7539143 22.6038144,13.5948739 C22.4977875,13.6054766 22.3917606,13.6160793 22.2857337,13.6160793 C22.1797068,13.6160793 22.0736799,13.6054766 21.967653,13.5948739 C21.8616261,13.7539143 21.0664242,14.8141834 20.9285892,14.8141834 C20.8755758,14.8141834 19.7410878,14.1356112 19.6138555,14.0613923 C19.5820474,14.040187 19.5714447,14.0083789 19.5714447,13.9871735 C19.5714447,13.8069278 20.0167578,12.7360559 20.112182,12.5240021 C19.9849497,12.3543591 19.8789228,12.1741133 19.7941013,11.9726622 C19.5820474,11.9514568 18.2143003,11.8030191 18.2143003,11.6439788 L18.2143003,10.159602 C18.2143003,10.0005616 19.5820474,9.85212394 19.7941013,9.83091855 C19.8789228,9.64007011 19.9849497,9.44922167 20.112182,9.27957861 C20.0167578,9.06752479 19.5714447,7.99665297 19.5714447,7.81640722 C19.5714447,7.79520184 19.5820474,7.76339377 19.6138555,7.74218838 C19.7410878,7.67857224 20.8755758,7 20.9285892,7 C21.0664242,7 21.8616261,8.04966643 21.967653,8.2087068 C22.0736799,8.19810411 22.1797068,8.18750142 22.2857337,8.18750142 C22.3917606,8.18750142 22.4977875,8.19810411 22.6038144,8.2087068 C22.9006898,7.79520184 23.2187705,7.38169688 23.579262,7.02120538 L23.6428782,7 C23.6958916,7 24.8303796,7.66796955 24.9576119,7.74218838 C24.98942,7.76339377 25.0000226,7.79520184 25.0000226,7.81640722 C25.0000226,8.00725567 24.5547096,9.06752479 24.4592854,9.27957861 C24.5865177,9.44922167 24.6925446,9.64007011 24.7773661,9.83091855 C24.98942,9.85212394 26.3571671,10.0005616 26.3571671,10.159602 Z" id="lti" fill="#A22833"></path>
    </g>
</svg>