<?xml version="1.0" encoding="UTF-8"?>
<svg width="32px" height="32px" viewBox="0 0 32 32" version="1.1" xmlns="http://www.w3.org/2000/svg" xmlns:xlink="http://www.w3.org/1999/xlink">
    <!-- Generator: Sketch 50 (54983) - http://www.bohemiancoding.com/sketch -->
    <title>pix_plugins/mod/glossary/asc copy</title>
    <desc>Created with Sketch.</desc>
    <defs></defs>
    <g id="pix_plugins/mod/glossary/asc-copy" stroke="none" stroke-width="1" fill="none" fill-rule="evenodd">
        <g id="circle_background"></g>
        <path d="M22.6071607,16.5747691 L22.6071607,19.9464249 C22.6071607,21.6322528 21.2394135,23 19.5535856,23 L10.7321465,23 C9.04631859,23 7.67857143,21.6322528 7.67857143,19.9464249 L7.67857143,11.1249858 C7.67857143,9.43915794 9.04631859,8.07141078 10.7321465,8.07141078 L19.5535856,8.07141078 C19.9776932,8.07141078 20.4018009,8.1562323 20.7941005,8.33647806 C20.8895247,8.37888882 20.9637435,8.47431304 20.9849489,8.58033995 C21.0061543,8.69696956 20.9743462,8.80299647 20.8895247,8.887818 L20.3699928,9.40734987 C20.3063767,9.47096602 20.2109524,9.51337678 20.1261309,9.51337678 C20.0943228,9.51337678 20.0625148,9.50277409 20.0307067,9.4921714 C19.8716663,9.44976063 19.712626,9.42855525 19.5535856,9.42855525 L10.7321465,9.42855525 C9.79910967,9.42855525 9.0357159,10.191949 9.0357159,11.1249858 L9.0357159,19.9464249 C9.0357159,20.8794618 9.79910967,21.6428555 10.7321465,21.6428555 L19.5535856,21.6428555 C20.4866224,21.6428555 21.2500162,20.8794618 21.2500162,19.9464249 L21.2500162,17.2533414 C21.2500162,17.1685198 21.2818243,17.0836983 21.3454404,17.0200822 L22.0240126,16.3415099 C22.0982315,16.2672911 22.183053,16.235483 22.2678745,16.235483 C22.3102853,16.235483 22.3526961,16.2460857 22.3951068,16.2672911 C22.5223391,16.3203045 22.6071607,16.4369341 22.6071607,16.5747691 Z M25.0563823,11.3900531 L16.4257917,20.0206438 C16.0865056,20.3599299 15.556371,20.3599299 15.2170849,20.0206438 L10.6579277,15.4614865 C10.3186415,15.1222004 10.3186415,14.5920659 10.6579277,14.2527798 L11.8242237,13.0864837 C12.1635098,12.7471976 12.6936444,12.7471976 13.0329305,13.0864837 L15.8214383,15.8749915 L22.6813795,9.01505029 C23.0206656,8.67576417 23.5508002,8.67576417 23.8900863,9.01505029 L25.0563823,10.1813463 C25.3956684,10.5206324 25.3956684,11.050767 25.0563823,11.3900531 Z" id="glossary" fill="#A22833"></path>
    </g>
</svg>