<?xml version="1.0" encoding="UTF-8"?>
<svg width="20px" height="20px" viewBox="0 0 20 20" version="1.1" xmlns="http://www.w3.org/2000/svg" xmlns:xlink="http://www.w3.org/1999/xlink">
    <!-- Generator: Sketch 50 (54983) - http://www.bohemiancoding.com/sketch -->
    <title>pix_plugins/mod/glossary/asc</title>
    <desc>Created with Sketch.</desc>
    <defs></defs>
    <g id="pix_plugins/mod/glossary/asc" stroke="none" stroke-width="1" fill="none" fill-rule="evenodd">
        <g id="circle_background" transform="translate(-6.000000, -6.000000)"></g>
        <path d="M18.2594965,10.4559157 C18.2594965,10.0954242 18.1110588,9.74553541 17.8671969,9.49107082 L10.9648449,2.58871884 C10.7103803,2.33425425 10.3604915,2.19641927 10,2.19641927 C9.6395085,2.19641927 9.28961969,2.33425425 9.04575779,2.58871884 L2.14340581,9.49107082 C1.88894122,9.74553541 1.74050355,10.0954242 1.74050355,10.4559157 C1.74050355,10.8164072 1.88894122,11.1556933 2.14340581,11.4101579 L2.93860765,12.2053598 C3.18246955,12.4598244 3.53235836,12.608262 3.89284986,12.608262 C4.25334136,12.608262 4.60323017,12.4598244 4.84709207,12.2053598 L7.96428329,9.09877125 L7.96428329,16.5630659 C7.96428329,17.3264596 8.60044476,17.8035807 9.32142776,17.8035807 L10.6785722,17.8035807 C11.3995552,17.8035807 12.0357167,17.3264596 12.0357167,16.5630659 L12.0357167,9.09877125 L15.1529079,12.2053598 C15.3967698,12.4598244 15.7466586,12.608262 16.1071501,12.608262 C16.4676416,12.608262 16.8175304,12.4598244 17.071995,12.2053598 L17.8671969,11.4101579 C18.1110588,11.1556933 18.2594965,10.8164072 18.2594965,10.4559157 Z" id="glossary" fill="#A22833"></path>
    </g>
</svg>