<?xml version="1.0" encoding="UTF-8"?>
<svg width="32px" height="32px" viewBox="0 0 32 32" version="1.1" xmlns="http://www.w3.org/2000/svg" xmlns:xlink="http://www.w3.org/1999/xlink">
    <!-- Generator: Sketch 50 (54983) - http://www.bohemiancoding.com/sketch -->
    <title>pix_plugins/mod/glossary/asc</title>
    <desc>Created with Sketch.</desc>
    <defs></defs>
    <g id="pix_plugins/mod/glossary/asc" stroke="none" stroke-width="1" fill="none" fill-rule="evenodd">
        <g id="circle_background"></g>
        <path d="M24.759507,17.0094795 C24.759507,16.648988 24.6110693,16.2990992 24.3672074,16.0446346 L17.4648554,9.14228259 C17.2103908,8.887818 16.860502,8.74998301 16.5000105,8.74998301 C16.139519,8.74998301 15.7896302,8.887818 15.5457683,9.14228259 L8.64341633,16.0446346 C8.38895174,16.2990992 8.24051406,16.648988 8.24051406,17.0094795 C8.24051406,17.369971 8.38895174,17.7092571 8.64341633,17.9637217 L9.43861817,18.7589235 C9.68248007,19.0133881 10.0323689,19.1618258 10.3928604,19.1618258 C10.7533519,19.1618258 11.1032407,19.0133881 11.3471026,18.7589235 L14.4642938,15.652335 L14.4642938,23.1166296 C14.4642938,23.8800234 15.1004553,24.3571445 15.8214383,24.3571445 L17.1785828,24.3571445 C17.8995658,24.3571445 18.5357272,23.8800234 18.5357272,23.1166296 L18.5357272,15.652335 L21.6529184,18.7589235 C21.8967803,19.0133881 22.2466692,19.1618258 22.6071607,19.1618258 C22.9676522,19.1618258 23.317541,19.0133881 23.5720056,18.7589235 L24.3672074,17.9637217 C24.6110693,17.7092571 24.759507,17.369971 24.759507,17.0094795 Z" id="glossary" fill="#A22833"></path>
    </g>
</svg>