<?xml version="1.0" encoding="UTF-8"?>
<svg width="20px" height="20px" viewBox="0 0 20 20" version="1.1" xmlns="http://www.w3.org/2000/svg" xmlns:xlink="http://www.w3.org/1999/xlink">
    <!-- Generator: Sketch 50 (54983) - http://www.bohemiancoding.com/sketch -->
    <title>pix_plugins/mod/glossary/checkbox_checked</title>
    <desc>Created with Sketch.</desc>
    <defs></defs>
    <g id="pix_plugins/mod/glossary/checkbox_checked" stroke="none" stroke-width="1" fill="none" fill-rule="evenodd">
        <g id="circle_background" transform="translate(-6.000000, -6.000000)"></g>
        <path d="M16.1124515,11.0390637 L16.1124515,14.4107195 C16.1124515,16.0965474 14.7447043,17.4642946 13.0588764,17.4642946 L4.23743733,17.4642946 C2.55160942,17.4642946 1.18386226,16.0965474 1.18386226,14.4107195 L1.18386226,5.58928046 C1.18386226,3.90345255 2.55160942,2.53570539 4.23743733,2.53570539 L13.0588764,2.53570539 C13.4829841,2.53570539 13.9070917,2.62052692 14.2993913,2.80077267 C14.3948155,2.84318343 14.4690343,2.93860765 14.4902397,3.04463457 C14.5114451,3.16126417 14.479637,3.26729108 14.3948155,3.35211261 L13.8752836,3.87164448 C13.8116675,3.93526063 13.7162433,3.97767139 13.6314217,3.97767139 C13.5996137,3.97767139 13.5678056,3.9670687 13.5359975,3.95646601 C13.3769572,3.91405524 13.2179168,3.89284986 13.0588764,3.89284986 L4.23743733,3.89284986 C3.3044005,3.89284986 2.54100673,4.65624363 2.54100673,5.58928046 L2.54100673,14.4107195 C2.54100673,15.3437564 3.3044005,16.1071501 4.23743733,16.1071501 L13.0588764,16.1071501 C13.9919132,16.1071501 14.755307,15.3437564 14.755307,14.4107195 L14.755307,11.717636 C14.755307,11.6328144 14.7871151,11.5479929 14.8507312,11.4843768 L15.5293035,10.8058045 C15.6035223,10.7315857 15.6883438,10.6997776 15.7731654,10.6997776 C15.8155761,10.6997776 15.8579869,10.7103803 15.9003977,10.7315857 C16.02763,10.7845991 16.1124515,10.9012288 16.1124515,11.0390637 Z M18.5616732,5.85434774 L9.93108251,14.4849384 C9.59179639,14.8242245 9.06166183,14.8242245 8.72237571,14.4849384 L4.16321849,9.92578116 C3.82393237,9.58649504 3.82393237,9.05636048 4.16321849,8.71707436 L5.32951452,7.55077833 C5.66880064,7.21149221 6.1989352,7.21149221 6.53822132,7.55077833 L9.32672911,10.3392861 L16.1866703,3.47934491 C16.5259564,3.14005879 17.056091,3.14005879 17.3953771,3.47934491 L18.5616732,4.64564094 C18.9009593,4.98492706 18.9009593,5.51506162 18.5616732,5.85434774 Z" id="glossary_checkbox" fill="#A22833"></path>
    </g>
</svg>