<?xml version="1.0" encoding="UTF-8"?>
<svg width="32px" height="32px" viewBox="0 0 32 32" version="1.1" xmlns="http://www.w3.org/2000/svg" xmlns:xlink="http://www.w3.org/1999/xlink">
    <!-- Generator: Sketch 50 (54983) - http://www.bohemiancoding.com/sketch -->
    <title>pix_plugins/mod/glossary/comment</title>
    <desc>Created with Sketch.</desc>
    <defs></defs>
    <g id="pix_plugins/mod/glossary/comment" stroke="none" stroke-width="1" fill="none" fill-rule="evenodd">
        <g id="circle_background"></g>
        <path d="M12.7857224,14.7857224 C12.7857224,15.5385135 12.181369,16.1428668 11.4285779,16.1428668 C10.6757868,16.1428668 10.0714334,15.5385135 10.0714334,14.7857224 C10.0714334,14.0329313 10.6757868,13.4285779 11.4285779,13.4285779 C12.181369,13.4285779 12.7857224,14.0329313 12.7857224,14.7857224 Z M16.8571558,14.7857224 C16.8571558,15.5385135 16.2528024,16.1428668 15.5000113,16.1428668 C14.7472202,16.1428668 14.1428668,15.5385135 14.1428668,14.7857224 C14.1428668,14.0329313 14.7472202,13.4285779 15.5000113,13.4285779 C16.2528024,13.4285779 16.8571558,14.0329313 16.8571558,14.7857224 Z M20.9285892,14.7857224 C20.9285892,15.5385135 20.3242358,16.1428668 19.5714447,16.1428668 C18.8186537,16.1428668 18.2143003,15.5385135 18.2143003,14.7857224 C18.2143003,14.0329313 18.8186537,13.4285779 19.5714447,13.4285779 C20.3242358,13.4285779 20.9285892,14.0329313 20.9285892,14.7857224 Z M15.5000113,9.35714447 C11.0892918,9.35714447 7.35714447,11.8381742 7.35714447,14.7857224 C7.35714447,16.3655234 8.4174136,17.8711055 10.2516792,18.9101693 L11.1741133,19.4403038 L10.8878406,20.4581622 C10.6863895,21.2109532 10.4213222,21.7941013 10.1456523,22.2818251 C11.2165241,21.836512 12.1919717,21.2321586 13.0613923,20.4687649 L13.5173081,20.0658626 L14.1216615,20.1294787 C14.5775772,20.1824922 15.0440956,20.2143003 15.5000113,20.2143003 C19.9107309,20.2143003 23.6428782,17.7332705 23.6428782,14.7857224 C23.6428782,11.8381742 19.9107309,9.35714447 15.5000113,9.35714447 Z M25.0000226,14.7857224 C25.0000226,18.5390751 20.7483435,21.5714447 15.5000113,21.5714447 C14.9804795,21.5714447 14.4609476,21.5396367 13.9626211,21.4866232 C12.5736686,22.7165354 10.9196487,23.5859561 9.08538314,24.0524745 C8.70368626,24.1585014 8.2901813,24.2327202 7.87667634,24.2857337 L7.82366289,24.2857337 C7.61160906,24.2857337 7.42076062,24.1160906 7.36774717,23.8828314 L7.36774717,23.8722287 C7.31473371,23.6071615 7.49497946,23.4481211 7.65401983,23.2572727 C8.32198938,22.5044816 9.08538314,21.8683201 9.58370963,20.0976707 C7.39955524,18.8571558 6,16.9380687 6,14.7857224 C6,11.0429724 10.2516792,8 15.5000113,8 C20.7483435,8 25.0000226,11.0429724 25.0000226,14.7857224 Z" id="glossary_comment" fill="#A22833"></path>
    </g>
</svg>