<?xml version="1.0" encoding="UTF-8"?>
<svg width="20px" height="20px" viewBox="0 0 20 20" version="1.1" xmlns="http://www.w3.org/2000/svg" xmlns:xlink="http://www.w3.org/1999/xlink">
    <!-- Generator: Sketch 50 (54983) - http://www.bohemiancoding.com/sketch -->
    <title>pix_plugins/mod/glossary/comment</title>
    <desc>Created with Sketch.</desc>
    <defs></defs>
    <g id="pix_plugins/mod/glossary/comment" stroke="none" stroke-width="1" fill="none" fill-rule="evenodd">
        <g id="circle_background" transform="translate(-6.000000, -6.000000)"></g>
        <path d="M7.28571105,8.64285553 C7.28571105,9.3956466 6.68135765,10 5.92856658,10 C5.1757755,10 4.5714221,9.3956466 4.5714221,8.64285553 C4.5714221,7.89006445 5.1757755,7.28571105 5.92856658,7.28571105 C6.68135765,7.28571105 7.28571105,7.89006445 7.28571105,8.64285553 Z M11.3571445,8.64285553 C11.3571445,9.3956466 10.7527911,10 10,10 C9.24720892,10 8.64285553,9.3956466 8.64285553,8.64285553 C8.64285553,7.89006445 9.24720892,7.28571105 10,7.28571105 C10.7527911,7.28571105 11.3571445,7.89006445 11.3571445,8.64285553 Z M15.4285779,8.64285553 C15.4285779,9.3956466 14.8242245,10 14.0714334,10 C13.3186423,10 12.7142889,9.3956466 12.7142889,8.64285553 C12.7142889,7.89006445 13.3186423,7.28571105 14.0714334,7.28571105 C14.8242245,7.28571105 15.4285779,7.89006445 15.4285779,8.64285553 Z M10,3.21427763 C5.58928046,3.21427763 1.85713315,5.69530737 1.85713315,8.64285553 C1.85713315,10.2226565 2.91740227,11.7282387 4.75166785,12.7673024 L5.67410199,13.297437 L5.38782932,14.3152953 C5.18637819,15.0680864 4.92131091,15.6512344 4.64564094,16.1389582 C5.71651275,15.6936452 6.69196034,15.0892918 7.56138102,14.325898 L8.01729674,13.9229957 L8.62165014,13.9866119 C9.07756586,14.0396254 9.54408428,14.0714334 10,14.0714334 C14.4107195,14.0714334 18.1428668,11.5904037 18.1428668,8.64285553 C18.1428668,5.69530737 14.4107195,3.21427763 10,3.21427763 Z M19.5000113,8.64285553 C19.5000113,12.3962082 15.2483321,15.4285779 10,15.4285779 C9.48046813,15.4285779 8.96093626,15.3967698 8.46260977,15.3437564 C7.07365723,16.5736686 5.4196374,17.4430892 3.58537182,17.9096076 C3.20367493,18.0156346 2.79016998,18.0898534 2.37666502,18.1428668 L2.32365156,18.1428668 C2.11159774,18.1428668 1.9207493,17.9732238 1.86773584,17.7399646 L1.86773584,17.7293619 C1.81472239,17.4642946 1.99496814,17.3052542 2.1540085,17.1144058 C2.82197805,16.3616147 3.58537182,15.7254533 4.0836983,13.9548038 C1.89954391,12.7142889 0.499988675,10.7952018 0.499988675,8.64285553 C0.499988675,4.90010553 4.75166785,1.85713315 10,1.85713315 C15.2483321,1.85713315 19.5000113,4.90010553 19.5000113,8.64285553 Z" id="glossary_comment" fill="#A22833"></path>
    </g>
</svg>