<?xml version="1.0" encoding="UTF-8"?>
<svg width="32px" height="32px" viewBox="0 0 32 32" version="1.1" xmlns="http://www.w3.org/2000/svg" xmlns:xlink="http://www.w3.org/1999/xlink">
    <!-- Generator: Sketch 50 (54983) - http://www.bohemiancoding.com/sketch -->
    <title>pix_plugins/mod/glossary/desc</title>
    <desc>Created with Sketch.</desc>
    <defs></defs>
    <g id="pix_plugins/mod/glossary/desc" stroke="none" stroke-width="1" fill="none" fill-rule="evenodd">
        <g id="circle_background"></g>
        <path d="M24.5189929,15.4642946 C24.5189929,15.1038031 24.3705552,14.7539143 24.1266933,14.4994497 L23.3314915,13.7042479 C23.0770269,13.460386 22.7271381,13.3119483 22.3666466,13.3119483 C22.0061551,13.3119483 21.6562663,13.460386 21.4124044,13.7042479 L18.2952132,16.8214391 L18.2952132,9.35714447 C18.2952132,8.61495609 17.6802571,8 16.9380687,8 L15.5809242,8 C14.8387358,8 14.2237797,8.61495609 14.2237797,9.35714447 L14.2237797,16.8214391 L11.1065885,13.7042479 C10.8627266,13.460386 10.5128378,13.3119483 10.1523463,13.3119483 C9.79185481,13.3119483 9.441966,13.460386 9.18750142,13.7042479 L8.40290227,14.4994497 C8.14843768,14.7539143 8,15.1038031 8,15.4642946 C8,15.8247861 8.14843768,16.1746749 8.40290227,16.4185368 L15.3052542,23.3314915 C15.5491161,23.5753534 15.899005,23.7237911 16.2594965,23.7237911 C16.619988,23.7237911 16.9698768,23.5753534 17.2243414,23.3314915 L24.1266933,16.4185368 C24.3705552,16.1746749 24.5189929,15.8247861 24.5189929,15.4642946 Z" id="glossary_desc" fill="#A22833"></path>
    </g>
</svg>