<?xml version="1.0" encoding="UTF-8"?>
<svg width="20px" height="20px" viewBox="0 0 20 20" version="1.1" xmlns="http://www.w3.org/2000/svg" xmlns:xlink="http://www.w3.org/1999/xlink">
    <!-- Generator: Sketch 50 (54983) - http://www.bohemiancoding.com/sketch -->
    <title>pix_plugins/mod/glossary/desc</title>
    <desc>Created with Sketch.</desc>
    <defs></defs>
    <g id="pix_plugins/mod/glossary/desc" stroke="none" stroke-width="1" fill="none" fill-rule="evenodd">
        <g id="circle_background" transform="translate(-6.000000, -6.000000)"></g>
        <path d="M18.2594965,9.60239908 C18.2594965,9.24190758 18.1110588,8.89201877 17.8671969,8.63755418 L17.071995,7.84235234 C16.8175304,7.59849044 16.4676416,7.45005276 16.1071501,7.45005276 C15.7466586,7.45005276 15.3967698,7.59849044 15.1529079,7.84235234 L12.0357167,10.9595436 L12.0357167,3.49524894 C12.0357167,2.75306056 11.4207606,2.13810447 10.6785722,2.13810447 L9.32142776,2.13810447 C8.57923938,2.13810447 7.96428329,2.75306056 7.96428329,3.49524894 L7.96428329,10.9595436 L4.84709207,7.84235234 C4.60323017,7.59849044 4.25334136,7.45005276 3.89284986,7.45005276 C3.53235836,7.45005276 3.18246955,7.59849044 2.92800496,7.84235234 L2.14340581,8.63755418 C1.88894122,8.89201877 1.74050355,9.24190758 1.74050355,9.60239908 C1.74050355,9.96289058 1.88894122,10.3127794 2.14340581,10.5566413 L9.04575779,17.469596 C9.28961969,17.7134579 9.6395085,17.8618955 10,17.8618955 C10.3604915,17.8618955 10.7103803,17.7134579 10.9648449,17.469596 L17.8671969,10.5566413 C18.1110588,10.3127794 18.2594965,9.96289058 18.2594965,9.60239908 Z" id="glossary_desc" fill="#A22833"></path>
    </g>
</svg>