<?xml version="1.0" encoding="UTF-8"?>
<svg width="32px" height="32px" viewBox="0 0 32 32" version="1.1" xmlns="http://www.w3.org/2000/svg" xmlns:xlink="http://www.w3.org/1999/xlink">
    <!-- Generator: Sketch 50 (54983) - http://www.bohemiancoding.com/sketch -->
    <title>pix_plugins/mod/glossary/export</title>
    <desc>Created with Sketch.</desc>
    <defs></defs>
    <g id="pix_plugins/mod/glossary/export" stroke="none" stroke-width="1" fill="none" fill-rule="evenodd">
        <g id="circle_background"></g>
        <path d="M23.9285892,15.4464363 C23.9285892,14.8844936 23.4726735,14.4285779 22.9107309,14.4285779 L18.5000113,14.4285779 L18.5000113,10.0178584 C18.5000113,9.45591572 18.0440956,9 17.482153,9 L15.4464363,9 C14.8844936,9 14.4285779,9.45591572 14.4285779,10.0178584 L14.4285779,14.4285779 L10.0178584,14.4285779 C9.45591572,14.4285779 9,14.8844936 9,15.4464363 L9,17.482153 C9,18.0440956 9.45591572,18.5000113 10.0178584,18.5000113 L14.4285779,18.5000113 L14.4285779,22.9107309 C14.4285779,23.4726735 14.8844936,23.9285892 15.4464363,23.9285892 L17.482153,23.9285892 C18.0440956,23.9285892 18.5000113,23.4726735 18.5000113,22.9107309 L18.5000113,18.5000113 L22.9107309,18.5000113 C23.4726735,18.5000113 23.9285892,18.0440956 23.9285892,17.482153 L23.9285892,15.4464363 Z" id="glossary_export" fill="#A22833"></path>
    </g>
</svg>