<?xml version="1.0" encoding="UTF-8"?>
<svg width="32px" height="32px" viewBox="0 0 32 32" version="1.1" xmlns="http://www.w3.org/2000/svg" xmlns:xlink="http://www.w3.org/1999/xlink">
    <!-- Generator: Sketch 50 (54983) - http://www.bohemiancoding.com/sketch -->
    <title>pix_plugins/mod/glossary/icon</title>
    <desc>Created with Sketch.</desc>
    <defs></defs>
    <g id="pix_plugins/mod/glossary/icon" stroke="none" stroke-width="1" fill="none" fill-rule="evenodd">
        <g id="circle_background"></g>
        <path d="M19.2143003,14.4642946 C19.2143003,11.8454299 17.0831593,9.71428895 14.4642946,9.71428895 C11.8454299,9.71428895 9.71428895,11.8454299 9.71428895,14.4642946 C9.71428895,17.0831593 11.8454299,19.2143003 14.4642946,19.2143003 C17.0831593,19.2143003 19.2143003,17.0831593 19.2143003,14.4642946 Z M24.6428782,23.2857337 C24.6428782,24.0279221 24.0279221,24.6428782 23.2857337,24.6428782 C22.9252422,24.6428782 22.5753534,24.4944405 22.3314915,24.2399759 L18.6947684,20.6138555 C17.4542535,21.4726735 15.9698768,21.9285892 14.4642946,21.9285892 C10.3398477,21.9285892 7,18.5887415 7,14.4642946 C7,10.3398477 10.3398477,7 14.4642946,7 C18.5887415,7 21.9285892,10.3398477 21.9285892,14.4642946 C21.9285892,15.9698768 21.4726735,17.4542535 20.6138555,18.6947684 L24.2505786,22.3314915 C24.4944405,22.5753534 24.6428782,22.9252422 24.6428782,23.2857337 Z" id="glossary_icon" fill="#A22833"></path>
    </g>
</svg>