<?xml version="1.0" encoding="UTF-8"?>
<svg width="20px" height="20px" viewBox="0 0 20 20" version="1.1" xmlns="http://www.w3.org/2000/svg" xmlns:xlink="http://www.w3.org/1999/xlink">
    <!-- Generator: Sketch 50 (54983) - http://www.bohemiancoding.com/sketch -->
    <title>pix_plugins/mod/glossary/icon</title>
    <desc>Created with Sketch.</desc>
    <defs></defs>
    <g id="pix_plugins/mod/glossary/icon" stroke="none" stroke-width="1" fill="none" fill-rule="evenodd">
        <g id="circle_background" transform="translate(-6.000000, -6.000000)"></g>
        <path d="M13.3928612,8.64285553 C13.3928612,6.0239908 11.2617203,3.89284986 8.64285553,3.89284986 C6.0239908,3.89284986 3.89284986,6.0239908 3.89284986,8.64285553 C3.89284986,11.2617203 6.0239908,13.3928612 8.64285553,13.3928612 C11.2617203,13.3928612 13.3928612,11.2617203 13.3928612,8.64285553 Z M18.8214391,17.4642946 C18.8214391,18.206483 18.206483,18.8214391 17.4642946,18.8214391 C17.1038031,18.8214391 16.7539143,18.6730014 16.5100524,18.4185368 L12.8733293,14.7924164 C11.6328144,15.6512344 10.1484377,16.1071501 8.64285553,16.1071501 C4.51840864,16.1071501 1.17856091,12.7673024 1.17856091,8.64285553 C1.17856091,4.51840864 4.51840864,1.17856091 8.64285553,1.17856091 C12.7673024,1.17856091 16.1071501,4.51840864 16.1071501,8.64285553 C16.1071501,10.1484377 15.6512344,11.6328144 14.7924164,12.8733293 L18.4291395,16.5100524 C18.6730014,16.7539143 18.8214391,17.1038031 18.8214391,17.4642946 Z" id="glossary_icon" fill="#A22833"></path>
    </g>
</svg>