<?xml version="1.0" encoding="UTF-8"?>
<svg width="20px" height="20px" viewBox="0 0 20 20" version="1.1" xmlns="http://www.w3.org/2000/svg" xmlns:xlink="http://www.w3.org/1999/xlink">
    <!-- Generator: Sketch 50 (54983) - http://www.bohemiancoding.com/sketch -->
    <title>pix_plugins/mod/glossary/icon1</title>
    <desc>Created with Sketch.</desc>
    <defs></defs>
    <g id="pix_plugins/mod/glossary/icon1" stroke="none" stroke-width="1" fill="none" fill-rule="evenodd">
        <g id="circle_background" transform="translate(-6.000000, -6.000000)"></g>
        <path d="M8.74462891,16.0097656 L7.53271484,12.6396484 L2.89257812,12.6396484 L1.70556641,16.0097656 L-0.386230469,16.0097656 L4.15429688,3.82421875 L6.3125,3.82421875 L10.8530273,16.0097656 L8.74462891,16.0097656 Z M7.00976562,10.9296875 L5.87255859,7.62597656 C5.78955037,7.40462129 5.67472404,7.05599196 5.52807617,6.58007812 C5.3814283,6.10416429 5.28043647,5.75553496 5.22509766,5.53417969 C5.07568285,6.21484715 4.85709779,6.9591431 4.56933594,7.76708984 L3.47363281,10.9296875 L7.00976562,10.9296875 Z M18.9916992,16.0097656 L18.6015625,14.7314453 L18.5351562,14.7314453 C18.0924457,15.2903674 17.6469749,15.670816 17.1987305,15.8728027 C16.750486,16.0747894 16.174971,16.1757812 15.472168,16.1757812 C14.5701452,16.1757812 13.8659693,15.9322941 13.3596191,15.4453125 C12.853269,14.9583309 12.6000977,14.2693729 12.6000977,13.378418 C12.6000977,12.4321242 12.9514939,11.7182641 13.6542969,11.2368164 C14.3570999,10.7553687 15.4278899,10.4925132 16.8666992,10.4482422 L18.4521484,10.3984375 L18.4521484,9.90869141 C18.4521484,9.32209993 18.3151869,8.88354637 18.0412598,8.59301758 C17.7673326,8.30248878 17.3426136,8.15722656 16.7670898,8.15722656 C16.2967099,8.15722656 15.8457053,8.22639905 15.4140625,8.36474609 C14.9824197,8.50309314 14.5673848,8.66634021 14.1689453,8.85449219 L13.5380859,7.45996094 C14.0361353,7.19986849 14.5812145,7.00203518 15.1733398,6.86645508 C15.7654652,6.73087497 16.3243789,6.66308594 16.8500977,6.66308594 C18.0177467,6.66308594 18.8990042,6.91764068 19.4938965,7.42675781 C20.0887888,7.93587494 20.3862305,8.73550887 20.3862305,9.82568359 L20.3862305,16.0097656 L18.9916992,16.0097656 Z M16.0864258,14.6816406 C16.7947627,14.6816406 17.3633605,14.4838073 17.7922363,14.0881348 C18.2211122,13.6924622 18.4355469,13.1376989 18.4355469,12.4238281 L18.4355469,11.6269531 L17.2568359,11.6767578 C16.3382116,11.7099611 15.6700053,11.863524 15.2521973,12.1374512 C14.8343892,12.4113783 14.6254883,12.8305636 14.6254883,13.3950195 C14.6254883,13.8045268 14.7472319,14.1213368 14.9907227,14.345459 C15.2342135,14.5695812 15.5994442,14.6816406 16.0864258,14.6816406 Z" id="Aa" fill="#A22833"></path>
    </g>
</svg>