<?xml version="1.0" encoding="UTF-8"?>
<svg width="32px" height="32px" viewBox="0 0 32 32" version="1.1" xmlns="http://www.w3.org/2000/svg" xmlns:xlink="http://www.w3.org/1999/xlink">
    <!-- Generator: Sketch 50 (54983) - http://www.bohemiancoding.com/sketch -->
    <title>pix_plugins/mod/glossary/print</title>
    <desc>Created with Sketch.</desc>
    <defs></defs>
    <g id="pix_plugins/mod/glossary/print" stroke="none" stroke-width="1" fill="none" fill-rule="evenodd">
        <g id="circle_background"></g>
        <path d="M11.0714334,22.9285892 L20.5714447,22.9285892 L20.5714447,20.2143003 L11.0714334,20.2143003 L11.0714334,22.9285892 Z M11.0714334,16.1428668 L20.5714447,16.1428668 L20.5714447,12.0714334 L18.8750142,12.0714334 C18.3130715,12.0714334 17.8571558,11.6155177 17.8571558,11.0535751 L17.8571558,9.35714447 L11.0714334,9.35714447 L11.0714334,16.1428668 Z M23.2857337,16.8214391 C23.2857337,16.4503449 22.9782557,16.1428668 22.6071615,16.1428668 C22.2360673,16.1428668 21.9285892,16.4503449 21.9285892,16.8214391 C21.9285892,17.1925333 22.2360673,17.5000113 22.6071615,17.5000113 C22.9782557,17.5000113 23.2857337,17.1925333 23.2857337,16.8214391 Z M24.6428782,16.8214391 L24.6428782,21.2321586 C24.6428782,21.4124044 24.4838378,21.5714447 24.3035921,21.5714447 L21.9285892,21.5714447 L21.9285892,23.2678753 C21.9285892,23.829818 21.4726735,24.2857337 20.9107309,24.2857337 L10.7321473,24.2857337 C10.1702047,24.2857337 9.71428895,23.829818 9.71428895,23.2678753 L9.71428895,21.5714447 L7.33928612,21.5714447 C7.15904037,21.5714447 7,21.4124044 7,21.2321586 L7,16.8214391 C7,15.7081565 7.92243414,14.7857224 9.03571671,14.7857224 L9.71428895,14.7857224 L9.71428895,9.01785836 C9.71428895,8.45591572 10.1702047,8 10.7321473,8 L17.8571558,8 C18.4190984,8 19.1930949,8.31808074 19.5959972,8.720983 L21.2076062,10.3325921 C21.6105085,10.7354943 21.9285892,11.5094908 21.9285892,12.0714334 L21.9285892,14.7857224 L22.6071615,14.7857224 C23.720444,14.7857224 24.6428782,15.7081565 24.6428782,16.8214391 Z" id="print" fill="#A22833"></path>
    </g>
</svg>