<?xml version="1.0" encoding="UTF-8"?>
<svg width="20px" height="20px" viewBox="0 0 20 20" version="1.1" xmlns="http://www.w3.org/2000/svg" xmlns:xlink="http://www.w3.org/1999/xlink">
    <!-- Generator: Sketch 50 (54983) - http://www.bohemiancoding.com/sketch -->
    <title>pix_plugins/mod/glossary/print</title>
    <desc>Created with Sketch.</desc>
    <defs></defs>
    <g id="pix_plugins/mod/glossary/print" stroke="none" stroke-width="1" fill="none" fill-rule="evenodd">
        <g id="circle_background" transform="translate(-6.000000, -6.000000)"></g>
        <path d="M5.24999434,16.7857224 L14.7500057,16.7857224 L14.7500057,14.0714334 L5.24999434,14.0714334 L5.24999434,16.7857224 Z M5.24999434,10 L14.7500057,10 L14.7500057,5.92856658 L13.0535751,5.92856658 C12.4916324,5.92856658 12.0357167,5.47265085 12.0357167,4.91070822 L12.0357167,3.21427763 L5.24999434,3.21427763 L5.24999434,10 Z M17.4642946,10.6785722 C17.4642946,10.307478 17.1568166,10 16.7857224,10 C16.4146282,10 16.1071501,10.307478 16.1071501,10.6785722 C16.1071501,11.0496664 16.4146282,11.3571445 16.7857224,11.3571445 C17.1568166,11.3571445 17.4642946,11.0496664 17.4642946,10.6785722 Z M18.8214391,10.6785722 L18.8214391,15.0892918 C18.8214391,15.2695375 18.6623987,15.4285779 18.482153,15.4285779 L16.1071501,15.4285779 L16.1071501,17.1250085 C16.1071501,17.6869511 15.6512344,18.1428668 15.0892918,18.1428668 L4.91070822,18.1428668 C4.34876558,18.1428668 3.89284986,17.6869511 3.89284986,17.1250085 L3.89284986,15.4285779 L1.51784703,15.4285779 C1.33760128,15.4285779 1.17856091,15.2695375 1.17856091,15.0892918 L1.17856091,10.6785722 C1.17856091,9.56528966 2.10099505,8.64285553 3.21427763,8.64285553 L3.89284986,8.64285553 L3.89284986,2.87499151 C3.89284986,2.31304887 4.34876558,1.85713315 4.91070822,1.85713315 L12.0357167,1.85713315 C12.5976593,1.85713315 13.3716558,2.17521389 13.7745581,2.57811615 L15.3861671,4.18972522 C15.7890694,4.59262748 16.1071501,5.36662394 16.1071501,5.92856658 L16.1071501,8.64285553 L16.7857224,8.64285553 C17.899005,8.64285553 18.8214391,9.56528966 18.8214391,10.6785722 Z" id="print" fill="#A22833"></path>
    </g>
</svg>