<?xml version="1.0" encoding="UTF-8"?>
<svg width="32px" height="32px" viewBox="0 0 32 32" version="1.1" xmlns="http://www.w3.org/2000/svg" xmlns:xlink="http://www.w3.org/1999/xlink">
    <!-- Generator: Sketch 50 (54983) - http://www.bohemiancoding.com/sketch -->
    <title>pix_plugins/mod/assignment/icon</title>
    <desc>Created with Sketch.</desc>
    <defs></defs>
    <g id="pix_plugins/mod/assignment/icon" stroke="none" stroke-width="1" fill="none" fill-rule="evenodd">
        <g id="circle_background"></g>
        <path d="M8,7 L8,7.68965517 L8,24.2413793 L8,24.9310345 L8.68965517,24.9310345 L16.125,24.9310345 C17.1375862,26.1919745 18.677051,27 20.4137931,27 C23.4527124,27 25.9310345,24.5216779 25.9310345,21.4827586 C25.9310345,18.9231793 24.1635407,16.7778048 21.7931034,16.1594828 L21.7931034,11.8275862 L21.7931034,11.5474138 L21.5991379,11.3318966 L17.4612069,7.19396552 L17.2456897,7 L16.9655172,7 L8.68965517,7 L8,7 Z M9.37931034,8.37931034 L16.2758621,8.37931034 L16.2758621,11.8275862 L16.2758621,12.5172414 L16.9655172,12.5172414 L20.4137931,12.5172414 L20.4137931,15.9655172 C17.3748738,15.9655172 14.8965517,18.4438393 14.8965517,21.4827586 C14.8965517,22.2178262 15.0431703,22.9093959 15.3060345,23.5517241 L9.37931034,23.5517241 L9.37931034,8.37931034 Z M17.6551724,9.37068966 L19.4224138,11.137931 L17.6551724,11.137931 L17.6551724,9.37068966 Z M20.4137931,17.3448276 C22.7072779,17.3448276 24.5517241,19.1892738 24.5517241,21.4827586 C24.5517241,23.7762434 22.7072779,25.6206897 20.4137931,25.6206897 C18.1203083,25.6206897 16.2758621,23.7762434 16.2758621,21.4827586 C16.2758621,19.1892738 18.1203083,17.3448276 20.4137931,17.3448276 Z M19.7241379,18.7241379 L19.7241379,20.7931034 L17.6551724,20.7931034 L17.6551724,22.1724138 L19.7241379,22.1724138 L19.7241379,24.2413793 L21.1034483,24.2413793 L21.1034483,22.1724138 L23.1724138,22.1724138 L23.1724138,20.7931034 L21.1034483,20.7931034 L21.1034483,18.7241379 L19.7241379,18.7241379 Z" id="assignment" fill="#A22833" fill-rule="nonzero"></path>
    </g>
</svg>