<?xml version="1.0" encoding="UTF-8"?>
<svg width="20px" height="20px" viewBox="0 0 20 20" version="1.1" xmlns="http://www.w3.org/2000/svg" xmlns:xlink="http://www.w3.org/1999/xlink">
    <!-- Generator: Sketch 50 (54983) - http://www.bohemiancoding.com/sketch -->
    <title>pix_plugins/mod/assignment/icon</title>
    <desc>Created with Sketch.</desc>
    <defs></defs>
    <g id="pix_plugins/mod/assignment/icon" stroke="none" stroke-width="1" fill="none" fill-rule="evenodd">
        <g id="circle_background" transform="translate(-6.000000, -6.000000)"></g>
        <path d="M1.03448276,0 L1.03448276,0.689655172 L1.03448276,17.2413793 L1.03448276,17.9310345 L1.72413793,17.9310345 L9.15948276,17.9310345 C10.172069,19.1919745 11.7115338,20 13.4482759,20 C16.4871952,20 18.9655172,17.5216779 18.9655172,14.4827586 C18.9655172,11.9231793 17.1980234,9.77780483 14.8275862,9.15948276 L14.8275862,4.82758621 L14.8275862,4.54741379 L14.6336207,4.33189655 L10.4956897,0.193965517 L10.2801724,0 L10,0 L1.72413793,0 L1.03448276,0 Z M2.4137931,1.37931034 L9.31034483,1.37931034 L9.31034483,4.82758621 L9.31034483,5.51724138 L10,5.51724138 L13.4482759,5.51724138 L13.4482759,8.96551724 C10.4093566,8.96551724 7.93103448,11.4438393 7.93103448,14.4827586 C7.93103448,15.2178262 8.0776531,15.9093959 8.34051724,16.5517241 L2.4137931,16.5517241 L2.4137931,1.37931034 Z M10.6896552,2.37068966 L12.4568966,4.13793103 L10.6896552,4.13793103 L10.6896552,2.37068966 Z M13.4482759,10.3448276 C15.7417607,10.3448276 17.5862069,12.1892738 17.5862069,14.4827586 C17.5862069,16.7762434 15.7417607,18.6206897 13.4482759,18.6206897 C11.154791,18.6206897 9.31034483,16.7762434 9.31034483,14.4827586 C9.31034483,12.1892738 11.154791,10.3448276 13.4482759,10.3448276 Z M12.7586207,11.7241379 L12.7586207,13.7931034 L10.6896552,13.7931034 L10.6896552,15.1724138 L12.7586207,15.1724138 L12.7586207,17.2413793 L14.137931,17.2413793 L14.137931,15.1724138 L16.2068966,15.1724138 L16.2068966,13.7931034 L14.137931,13.7931034 L14.137931,11.7241379 L12.7586207,11.7241379 Z" id="assignment" fill="#A22833" fill-rule="nonzero"></path>
    </g>
</svg>