<?xml version="1.0" encoding="UTF-8"?>
<svg width="20px" height="20px" viewBox="0 0 20 20" version="1.1" xmlns="http://www.w3.org/2000/svg" xmlns:xlink="http://www.w3.org/1999/xlink">
    <!-- Generator: Sketch 50 (54983) - http://www.bohemiancoding.com/sketch -->
    <title>pix_plugins/mod/lesson/icon</title>
    <desc>Created with Sketch.</desc>
    <defs></defs>
    <g id="pix_plugins/mod/lesson/icon" stroke="none" stroke-width="1" fill="none" fill-rule="evenodd">
        <g id="circle_background" transform="translate(-6.000000, -6.000000)"></g>
        <path d="M6.8178572,2 L6.8178572,2.70703704 L6.8178572,6.9492593 L6.8178572,7.65629634 L7.49964292,7.65629634 L8.86321436,7.65629634 L8.86321436,9.07037043 L2.72714288,9.07037043 L2.04535716,9.07037043 L2.04535716,9.77740747 L2.04535716,11.8985186 L0.68178572,11.8985186 L0,11.8985186 L0,12.6055556 L0,16.8477779 L0,17.5548149 L0.68178572,17.5548149 L4.77250004,17.5548149 L5.45428576,17.5548149 L5.45428576,16.8477779 L5.45428576,12.6055556 L5.45428576,11.8985186 L4.77250004,11.8985186 L3.4089286,11.8985186 L3.4089286,10.4844445 L8.86321436,10.4844445 L8.86321436,11.8985186 L7.49964292,11.8985186 L6.8178572,11.8985186 L6.8178572,12.6055556 L6.8178572,16.8477779 L6.8178572,17.5548149 L7.49964292,17.5548149 L11.5903572,17.5548149 L12.272143,17.5548149 L12.272143,16.8477779 L12.272143,12.6055556 L12.272143,11.8985186 L11.5903572,11.8985186 L10.2267858,11.8985186 L10.2267858,10.4844445 L15.6810716,10.4844445 L15.6810716,11.8985186 L14.3175001,11.8985186 L13.6357144,11.8985186 L13.6357144,12.6055556 L13.6357144,16.8477779 L13.6357144,17.5548149 L14.3175001,17.5548149 L18.4082144,17.5548149 L19.0900002,17.5548149 L19.0900002,16.8477779 L19.0900002,12.6055556 L19.0900002,11.8985186 L18.4082144,11.8985186 L17.044643,11.8985186 L17.044643,9.77740747 L17.044643,9.07037043 L16.3628573,9.07037043 L10.2267858,9.07037043 L10.2267858,7.65629634 L11.5903572,7.65629634 L12.272143,7.65629634 L12.272143,6.9492593 L12.272143,2.70703704 L12.272143,2 L11.5903572,2 L7.49964292,2 L6.8178572,2 Z M8.18142864,3.41407409 L10.9085715,3.41407409 L10.9085715,6.24222226 L8.18142864,6.24222226 L8.18142864,3.41407409 Z M1.36357144,13.3125927 L4.09071432,13.3125927 L4.09071432,16.1407409 L1.36357144,16.1407409 L1.36357144,13.3125927 Z M8.18142864,13.3125927 L10.9085715,13.3125927 L10.9085715,16.1407409 L8.18142864,16.1407409 L8.18142864,13.3125927 Z M14.9992858,13.3125927 L17.7264287,13.3125927 L17.7264287,16.1407409 L14.9992858,16.1407409 L14.9992858,13.3125927 Z" id="Shape" fill="#A22833" fill-rule="nonzero"></path>
    </g>
</svg>