<?xml version="1.0" encoding="UTF-8"?>
<svg width="32px" height="32px" viewBox="0 0 32 32" version="1.1" xmlns="http://www.w3.org/2000/svg" xmlns:xlink="http://www.w3.org/1999/xlink">
    <!-- Generator: Sketch 50 (54983) - http://www.bohemiancoding.com/sketch -->
    <title>pix_plugins/mod/lesson/icon</title>
    <desc>Created with Sketch.</desc>
    <defs></defs>
    <g id="pix_plugins/mod/lesson/icon" stroke="none" stroke-width="1" fill="none" fill-rule="evenodd">
        <g id="circle_background"></g>
        <path d="M12.8896104,6 L12.8896104,6.81818182 L12.8896104,11.7272727 L12.8896104,12.5454545 L13.6785714,12.5454545 L15.2564935,12.5454545 L15.2564935,14.1818182 L8.15584416,14.1818182 L7.36688312,14.1818182 L7.36688312,15 L7.36688312,17.4545455 L5.78896104,17.4545455 L5,17.4545455 L5,18.2727273 L5,23.1818182 L5,24 L5.78896104,24 L10.5227273,24 L11.3116883,24 L11.3116883,23.1818182 L11.3116883,18.2727273 L11.3116883,17.4545455 L10.5227273,17.4545455 L8.94480519,17.4545455 L8.94480519,15.8181818 L15.2564935,15.8181818 L15.2564935,17.4545455 L13.6785714,17.4545455 L12.8896104,17.4545455 L12.8896104,18.2727273 L12.8896104,23.1818182 L12.8896104,24 L13.6785714,24 L18.4123377,24 L19.2012987,24 L19.2012987,23.1818182 L19.2012987,18.2727273 L19.2012987,17.4545455 L18.4123377,17.4545455 L16.8344156,17.4545455 L16.8344156,15.8181818 L23.1461039,15.8181818 L23.1461039,17.4545455 L21.5681818,17.4545455 L20.7792208,17.4545455 L20.7792208,18.2727273 L20.7792208,23.1818182 L20.7792208,24 L21.5681818,24 L26.3019481,24 L27.0909091,24 L27.0909091,23.1818182 L27.0909091,18.2727273 L27.0909091,17.4545455 L26.3019481,17.4545455 L24.724026,17.4545455 L24.724026,15 L24.724026,14.1818182 L23.9350649,14.1818182 L16.8344156,14.1818182 L16.8344156,12.5454545 L18.4123377,12.5454545 L19.2012987,12.5454545 L19.2012987,11.7272727 L19.2012987,6.81818182 L19.2012987,6 L18.4123377,6 L13.6785714,6 L12.8896104,6 Z M14.4675325,7.63636364 L17.6233766,7.63636364 L17.6233766,10.9090909 L14.4675325,10.9090909 L14.4675325,7.63636364 Z M6.57792208,19.0909091 L9.73376623,19.0909091 L9.73376623,22.3636364 L6.57792208,22.3636364 L6.57792208,19.0909091 Z M14.4675325,19.0909091 L17.6233766,19.0909091 L17.6233766,22.3636364 L14.4675325,22.3636364 L14.4675325,19.0909091 Z M22.3571429,19.0909091 L25.512987,19.0909091 L25.512987,22.3636364 L22.3571429,22.3636364 L22.3571429,19.0909091 Z" id="Shape" fill="#A22833" fill-rule="nonzero"></path>
    </g>
</svg>