<?xml version="1.0" encoding="UTF-8"?>
<svg width="20px" height="20px" viewBox="0 0 20 20" version="1.1" xmlns="http://www.w3.org/2000/svg" xmlns:xlink="http://www.w3.org/1999/xlink">
    <!-- Generator: Sketch 50 (54983) - http://www.bohemiancoding.com/sketch -->
    <title>pix_plugins/mod/journal/icon</title>
    <desc>Created with Sketch.</desc>
    <defs></defs>
    <g id="pix_plugins/mod/journal/icon" stroke="none" stroke-width="1" fill="none" fill-rule="evenodd">
        <g id="circle_background" transform="translate(-6.000000, -6.000000)"></g>
        <path d="M13.4557235,9.5 L6.54427646,9.5 C6.36531317,9.5 6.22030238,9.645054 6.22030238,9.82397408 C6.22030238,10.0028942 6.36531317,10.1479482 6.54427646,10.1479482 L13.4557235,10.1479482 C13.6346868,10.1479482 13.7796976,10.0028942 13.7796976,9.82397408 C13.7796976,9.645054 13.6346868,9.5 13.4557235,9.5 Z" id="Shape" fill="#A22833" fill-rule="nonzero"></path>
        <path d="M9.65442765,9.5 C9.47546436,9.5 9.33045356,9.645054 9.33045356,9.82397408 C9.33045356,10.0028942 9.47546436,10.1479482 9.65442765,10.1479482 L10.3455724,10.1479482 C10.5245356,10.1479482 10.6695464,10.0028942 10.6695464,9.82397408 C10.6695464,9.645054 10.5245356,9.5 10.3455724,9.5 L9.65442765,9.5 Z" id="Shape" fill="#A22833" fill-rule="nonzero"></path>
        <path d="M9.65442765,9.5 C9.47546436,9.5 9.33045356,9.645054 9.33045356,9.82397408 C9.33045356,10.0028942 9.47546436,10.1479482 9.65442765,10.1479482 L10.3455724,10.1479482 C10.5245356,10.1479482 10.6695464,10.0028942 10.6695464,9.82397408 C10.6695464,9.645054 10.5245356,9.5 10.3455724,9.5 L9.65442765,9.5 Z" id="Shape" fill="#A22833" fill-rule="nonzero"></path>
        <path d="M10.6695464,9.82397408 C10.6695464,9.645054 10.5245356,9.5 10.3455724,9.5 L9.65442765,9.5 C9.47546436,9.5 9.33045356,9.645054 9.33045356,9.82397408 C9.33045356,10.0028942 9.47546436,10.1479482 9.65442765,10.1479482 L10.3455724,10.1479482 C10.5245356,10.1479482 10.6695464,10.0028942 10.6695464,9.82397408 Z" id="Shape" fill="#A22833" fill-rule="nonzero"></path>
        <path d="M10.3455724,9.5 L9.65442765,9.5 C9.47546436,9.5 9.33045356,9.645054 9.33045356,9.82397408 C9.33045356,10.0028942 9.47546436,10.1479482 9.65442765,10.1479482 L10.3455724,10.1479482 C10.5245356,10.1479482 10.6695464,10.0028942 10.6695464,9.82397408 C10.6695464,9.645054 10.5245356,9.5 10.3455724,9.5 Z" id="Shape" fill="#A22833" fill-rule="nonzero"></path>
        <path d="M10.6695464,9.82397408 C10.6695464,9.645054 10.5245356,9.5 10.3455724,9.5 L9.65442765,9.5 C9.47546436,9.5 9.33045356,9.645054 9.33045356,9.82397408 C9.33045356,10.0028942 9.47546436,10.1479482 9.65442765,10.1479482 L10.3455724,10.1479482 C10.5245356,10.1479482 10.6695464,10.0028942 10.6695464,9.82397408 Z" id="Shape" fill="#A22833" fill-rule="nonzero"></path>
        <path d="M10.6695464,9.82397408 C10.6695464,9.645054 10.5245356,9.5 10.3455724,9.5 L9.65442765,9.5 C9.47546436,9.5 9.33045356,9.645054 9.33045356,9.82397408 C9.33045356,10.0028942 9.47546436,10.1479482 9.65442765,10.1479482 L10.3455724,10.1479482 C10.5245356,10.1479482 10.6695464,10.0028942 10.6695464,9.82397408 Z" id="Shape" fill="#A22833" fill-rule="nonzero"></path>
        <path d="M9.65442765,9.5 C9.47546436,9.5 9.33045356,9.645054 9.33045356,9.82397408 C9.33045356,10.0028942 9.47546436,10.1479482 9.65442765,10.1479482 L10.3455724,10.1479482 C10.5245356,10.1479482 10.6695464,10.0028942 10.6695464,9.82397408 C10.6695464,9.645054 10.5245356,9.5 10.3455724,9.5 L9.65442765,9.5 Z" id="Shape" fill="#A22833" fill-rule="nonzero"></path>
        <path d="M9.65442765,10.1479482 L10.3455724,10.1479482 C10.5245356,10.1479482 10.6695464,10.0028942 10.6695464,9.82397408 C10.6695464,9.645054 10.5245356,9.5 10.3455724,9.5 L9.65442765,9.5 C9.47546436,9.5 9.33045356,9.645054 9.33045356,9.82397408 C9.33045356,10.0028942 9.47546436,10.1479482 9.65442765,10.1479482 Z" id="Shape" fill="#A22833" fill-rule="nonzero"></path>
        <path d="M9.65442765,10.1479482 L10.3455724,10.1479482 C10.5245356,10.1479482 10.6695464,10.0028942 10.6695464,9.82397408 C10.6695464,9.645054 10.5245356,9.5 10.3455724,9.5 L9.65442765,9.5 C9.47546436,9.5 9.33045356,9.645054 9.33045356,9.82397408 C9.33045356,10.0028942 9.47546436,10.1479482 9.65442765,10.1479482 Z" id="Shape" fill="#A22833" fill-rule="nonzero"></path>
        <path d="M9.65442765,10.1479482 L10.3455724,10.1479482 C10.5245356,10.1479482 10.6695464,10.0028942 10.6695464,9.82397408 C10.6695464,9.645054 10.5245356,9.5 10.3455724,9.5 L9.65442765,9.5 C9.47546436,9.5 9.33045356,9.645054 9.33045356,9.82397408 C9.33045356,10.0028942 9.47546436,10.1479482 9.65442765,10.1479482 Z" id="Shape" fill="#A22833" fill-rule="nonzero"></path>
        <path d="M9.65442765,10.1479482 L10.3455724,10.1479482 C10.5245356,10.1479482 10.6695464,10.0028942 10.6695464,9.82397408 C10.6695464,9.645054 10.5245356,9.5 10.3455724,9.5 L9.65442765,9.5 C9.47546436,9.5 9.33045356,9.645054 9.33045356,9.82397408 C9.33045356,10.0028942 9.47546436,10.1479482 9.65442765,10.1479482 Z" id="Shape" fill="#A22833" fill-rule="nonzero"></path>
        <path d="M9.65442765,10.1479482 L10.3455724,10.1479482 C10.5245356,10.1479482 10.6695464,10.0028942 10.6695464,9.82397408 C10.6695464,9.645054 10.5245356,9.5 10.3455724,9.5 L9.65442765,9.5 C9.47546436,9.5 9.33045356,9.645054 9.33045356,9.82397408 C9.33045356,10.0028942 9.47546436,10.1479482 9.65442765,10.1479482 Z" id="Shape" fill="#A22833" fill-rule="nonzero"></path>
        <path d="M9.65442765,10.1479482 L10.3455724,10.1479482 C10.5245356,10.1479482 10.6695464,10.0028942 10.6695464,9.82397408 C10.6695464,9.645054 10.5245356,9.5 10.3455724,9.5 L9.65442765,9.5 C9.47546436,9.5 9.33045356,9.645054 9.33045356,9.82397408 C9.33045356,10.0028942 9.47546436,10.1479482 9.65442765,10.1479482 Z" id="Shape" fill="#A22833" fill-rule="nonzero"></path>
        <path d="M9.65442765,10.1479482 L10.3455724,10.1479482 C10.5245356,10.1479482 10.6695464,10.0028942 10.6695464,9.82397408 C10.6695464,9.645054 10.5245356,9.5 10.3455724,9.5 L9.65442765,9.5 C9.47546436,9.5 9.33045356,9.645054 9.33045356,9.82397408 C9.33045356,10.0028942 9.47546436,10.1479482 9.65442765,10.1479482 Z" id="Shape" fill="#A22833" fill-rule="nonzero"></path>
        <path d="M9.33045356,9.82397408 C9.33045356,10.0028942 9.47546436,10.1479482 9.65442765,10.1479482 L10.3455724,10.1479482 C10.5245356,10.1479482 10.6695464,10.0028942 10.6695464,9.82397408 C10.6695464,9.645054 10.5245356,9.5 10.3455724,9.5 L9.65442765,9.5 C9.47546436,9.5 9.33045356,9.645054 9.33045356,9.82397408 Z" id="Shape" fill="#A22833" fill-rule="nonzero"></path>
        <path d="M9.33045356,9.82397408 C9.33045356,10.0028942 9.47546436,10.1479482 9.65442765,10.1479482 L10.3455724,10.1479482 C10.5245356,10.1479482 10.6695464,10.0028942 10.6695464,9.82397408 C10.6695464,9.645054 10.5245356,9.5 10.3455724,9.5 L9.65442765,9.5 C9.47546436,9.5 9.33045356,9.645054 9.33045356,9.82397408 Z" id="Shape" fill="#A22833" fill-rule="nonzero"></path>
        <path d="M9.33045356,9.82397408 C9.33045356,10.0028942 9.47546436,10.1479482 9.65442765,10.1479482 L10.3455724,10.1479482 C10.5245356,10.1479482 10.6695464,10.0028942 10.6695464,9.82397408 C10.6695464,9.645054 10.5245356,9.5 10.3455724,9.5 L9.65442765,9.5 C9.47546436,9.5 9.33045356,9.645054 9.33045356,9.82397408 Z" id="Shape" fill="#A22833" fill-rule="nonzero"></path>
        <path d="M9.33045356,9.82397408 C9.33045356,10.0028942 9.47546436,10.1479482 9.65442765,10.1479482 L10.3455724,10.1479482 C10.5245356,10.1479482 10.6695464,10.0028942 10.6695464,9.82397408 C10.6695464,9.645054 10.5245356,9.5 10.3455724,9.5 L9.65442765,9.5 C9.47546436,9.5 9.33045356,9.645054 9.33045356,9.82397408 Z" id="Shape" fill="#A22833" fill-rule="nonzero"></path>
        <path d="M10.6695464,9.82397408 C10.6695464,9.645054 10.5245356,9.5 10.3455724,9.5 L9.65442765,9.5 C9.47546436,9.5 9.33045356,9.645054 9.33045356,9.82397408 C9.33045356,10.0028942 9.47546436,10.1479482 9.65442765,10.1479482 L10.3455724,10.1479482 C10.5245356,10.1479482 10.6695464,10.0028942 10.6695464,9.82397408 Z" id="Shape" fill="#A22833" fill-rule="nonzero"></path>
        <path d="M10.3455724,9.5 L9.65442765,9.5 C9.47546436,9.5 9.33045356,9.645054 9.33045356,9.82397408 C9.33045356,10.0028942 9.47546436,10.1479482 9.65442765,10.1479482 L10.3455724,10.1479482 C10.5245356,10.1479482 10.6695464,10.0028942 10.6695464,9.82397408 C10.6695464,9.645054 10.5245356,9.5 10.3455724,9.5 Z" id="Shape" fill="#A22833" fill-rule="nonzero"></path>
        <path d="M10.3455724,9.5 L9.65442765,9.5 C9.47546436,9.5 9.33045356,9.645054 9.33045356,9.82397408 C9.33045356,10.0028942 9.47546436,10.1479482 9.65442765,10.1479482 L10.3455724,10.1479482 C10.5245356,10.1479482 10.6695464,10.0028942 10.6695464,9.82397408 C10.6695464,9.645054 10.5245356,9.5 10.3455724,9.5 Z" id="Shape" fill="#A22833" fill-rule="nonzero"></path>
        <path d="M10.3455724,9.5 L9.65442765,9.5 C9.47546436,9.5 9.33045356,9.645054 9.33045356,9.82397408 C9.33045356,10.0028942 9.47546436,10.1479482 9.65442765,10.1479482 L10.3455724,10.1479482 C10.5245356,10.1479482 10.6695464,10.0028942 10.6695464,9.82397408 C10.6695464,9.645054 10.5245356,9.5 10.3455724,9.5 Z" id="Shape" fill="#A22833" fill-rule="nonzero"></path>
        <path d="M9.33045356,9.82397408 C9.33045356,10.0028942 9.47546436,10.1479482 9.65442765,10.1479482 L10.3455724,10.1479482 C10.5245356,10.1479482 10.6695464,10.0028942 10.6695464,9.82397408 C10.6695464,9.645054 10.5245356,9.5 10.3455724,9.5 L9.65442765,9.5 C9.47546436,9.5 9.33045356,9.645054 9.33045356,9.82397408 Z" id="Shape" fill="#A22833" fill-rule="nonzero"></path>
        <path d="M9.33045356,9.82397408 C9.33045356,10.0028942 9.47546436,10.1479482 9.65442765,10.1479482 L10.3455724,10.1479482 C10.5245356,10.1479482 10.6695464,10.0028942 10.6695464,9.82397408 C10.6695464,9.645054 10.5245356,9.5 10.3455724,9.5 L9.65442765,9.5 C9.47546436,9.5 9.33045356,9.645054 9.33045356,9.82397408 Z" id="Shape" fill="#A22833" fill-rule="nonzero"></path>
        <path d="M18.6393089,11.4038877 L16.8898488,11.4038877 L16.8898488,9.97840173 L17.3319222,9.97840173 C17.467473,10.3796976 17.847257,10.6695464 18.2937365,10.6695464 C18.8534773,10.6695464 19.3088553,10.2141685 19.3088553,9.65442765 L19.3088553,8.27213823 C19.3088553,7.71239741 18.8534773,7.25701944 18.2937365,7.25701944 C17.847257,7.25701944 17.467473,7.54686825 17.3319222,7.94816415 L15.8531317,7.94816415 L15.8531317,1.01511879 C15.8531317,0.45537797 15.3977538,1.0658141e-14 14.838013,1.0658141e-14 L5.16198704,1.0658141e-14 C4.60224622,1.0658141e-14 4.14686825,0.45537797 4.14686825,1.01511879 L4.14686825,7.94816415 L2.66807775,7.94816415 C2.532527,7.54686825 2.15274298,7.25701944 1.7062635,7.25701944 C1.14652268,7.25701944 0.691144708,7.71239741 0.691144708,8.27213823 L0.691144708,9.65442765 C0.691144708,10.2141685 1.14652268,10.6695464 1.7062635,10.6695464 C2.15274298,10.6695464 2.532527,10.3796976 2.66807775,9.97840173 L3.11015119,9.97840173 L3.11015119,11.4038877 L1.36069114,11.4038877 C0.610410367,11.4038877 1.0658141e-14,12.0142981 1.0658141e-14,12.7645788 L1.0658141e-14,18.6393089 C1.0658141e-14,19.3895896 0.610410367,20 1.36069114,20 L18.6393089,20 C19.3895896,20 20,19.3895896 20,18.6393089 L20,12.7645788 C20,12.0142981 19.3895896,11.4038877 18.6393089,11.4038877 Z M2.72138229,9.33045356 L2.72138229,8.59611231 L17.2786177,8.59611231 L17.2786177,9.33045356 L2.72138229,9.33045356 Z M13.4337797,9.97840173 C13.3241901,10.3906263 13.0076026,10.7774946 12.5139957,11.0916199 C11.8473434,11.5158099 10.954514,11.74946 10,11.74946 C9.04548596,11.74946 8.15265659,11.5158099 7.48604752,11.0916199 C6.9924406,10.7774946 6.67580994,10.3906695 6.5662635,9.97840173 L13.4337797,9.97840173 Z M18.2937365,7.9049676 C18.4961987,7.9049676 18.6609071,8.06967603 18.6609071,8.27213823 L18.6609071,9.65442765 C18.6609071,9.85688985 18.4961987,10.0215983 18.2937365,10.0215983 C18.0912743,10.0215983 17.9265659,9.85688985 17.9265659,9.65442765 L17.9265659,8.27213823 C17.9265659,8.06967603 18.0912743,7.9049676 18.2937365,7.9049676 Z M4.79481641,1.01511879 C4.79481641,0.812656587 4.95952484,0.647948164 5.16198704,0.647948164 L14.838013,0.647948164 C15.0404752,0.647948164 15.2051836,0.812656587 15.2051836,1.01511879 L15.2051836,7.94816415 L4.79481641,7.94816415 L4.79481641,1.01511879 Z M1.7062635,10.0215983 C1.5038013,10.0215983 1.33909287,9.85688985 1.33909287,9.65442765 L1.33909287,8.27213823 C1.33909287,8.06967603 1.5038013,7.9049676 1.7062635,7.9049676 C1.9087257,7.9049676 2.07343413,8.06967603 2.07343413,8.27213823 L2.07343413,9.65442765 C2.07343413,9.85688985 1.9087257,10.0215983 1.7062635,10.0215983 Z M19.3520518,18.6393089 C19.3520518,19.032311 19.0323542,19.3520518 18.6393089,19.3520518 L1.36069114,19.3520518 C0.967645788,19.3520518 0.647948164,19.032311 0.647948164,18.6393089 L0.647948164,12.7645788 C0.647948164,12.3715767 0.967645788,12.0518359 1.36069114,12.0518359 L3.43412527,12.0518359 C3.61308855,12.0518359 3.75809935,11.9067819 3.75809935,11.7278618 L3.75809935,9.97840173 L5.90259179,9.97840173 C6.01153348,10.6137797 6.44051836,11.1942549 7.13818575,11.6382289 C7.907473,12.1277754 8.9238013,12.3974082 10,12.3974082 C11.0761987,12.3974082 12.092527,12.1277754 12.8618575,11.6382289 C13.5595248,11.1942549 13.9885097,10.6137797 14.0974514,9.97840173 L16.2419006,9.97840173 L16.2419006,11.7278618 C16.2419006,11.9067819 16.3869114,12.0518359 16.5658747,12.0518359 L18.6393089,12.0518359 C19.0323542,12.0518359 19.3520518,12.3715767 19.3520518,12.7645788 L19.3520518,18.6393089 Z" id="Shape" fill="#A22833" fill-rule="nonzero"></path>
        <path d="M13.4557235,9.5 L6.54427646,9.5 C6.36531317,9.5 6.22030238,9.645054 6.22030238,9.82397408 C6.22030238,10.0028942 6.36531317,10.1479482 6.54427646,10.1479482 L13.4557235,10.1479482 C13.6346868,10.1479482 13.7796976,10.0028942 13.7796976,9.82397408 C13.7796976,9.645054 13.6346868,9.5 13.4557235,9.5 Z" id="Shape" fill="#A22833" fill-rule="nonzero"></path>
        <path d="M13.4557235,9.5 L6.54427646,9.5 C6.36531317,9.5 6.22030238,9.645054 6.22030238,9.82397408 C6.22030238,10.0028942 6.36531317,10.1479482 6.54427646,10.1479482 L13.4557235,10.1479482 C13.6346868,10.1479482 13.7796976,10.0028942 13.7796976,9.82397408 C13.7796976,9.645054 13.6346868,9.5 13.4557235,9.5 Z" id="Shape" fill="#A22833" fill-rule="nonzero"></path>
        <path d="M13.4557235,9.5 L6.54427646,9.5 C6.36531317,9.5 6.22030238,9.645054 6.22030238,9.82397408 C6.22030238,10.0028942 6.36531317,10.1479482 6.54427646,10.1479482 L13.4557235,10.1479482 C13.6346868,10.1479482 13.7796976,10.0028942 13.7796976,9.82397408 C13.7796976,9.645054 13.6346868,9.5 13.4557235,9.5 Z" id="Shape" fill="#A22833" fill-rule="nonzero"></path>
    </g>
</svg>