<?xml version="1.0" encoding="UTF-8"?>
<svg width="32px" height="32px" viewBox="0 0 32 32" version="1.1" xmlns="http://www.w3.org/2000/svg" xmlns:xlink="http://www.w3.org/1999/xlink">
    <!-- Generator: Sketch 50 (54983) - http://www.bohemiancoding.com/sketch -->
    <title>pix_plugins/mod/journal/icon</title>
    <desc>Created with Sketch.</desc>
    <defs></defs>
    <g id="pix_plugins/mod/journal/icon" stroke="none" stroke-width="1" fill="none" fill-rule="evenodd">
        <g id="circle_background"></g>
        <path d="M19.4557235,23.6241901 L12.5442765,23.6241901 C12.3653132,23.6241901 12.2203024,23.7692441 12.2203024,23.9481641 C12.2203024,24.1270842 12.3653132,24.2721382 12.5442765,24.2721382 L19.4557235,24.2721382 C19.6346868,24.2721382 19.7796976,24.1270842 19.7796976,23.9481641 C19.7796976,23.7692441 19.6346868,23.6241901 19.4557235,23.6241901 Z" id="Shape" fill="#A22833" fill-rule="nonzero"></path>
        <path d="M15.6544276,22.2419006 C15.4754644,22.2419006 15.3304536,22.3869546 15.3304536,22.5658747 C15.3304536,22.7447948 15.4754644,22.8898488 15.6544276,22.8898488 L16.3455724,22.8898488 C16.5245356,22.8898488 16.6695464,22.7447948 16.6695464,22.5658747 C16.6695464,22.3869546 16.5245356,22.2419006 16.3455724,22.2419006 L15.6544276,22.2419006 Z" id="Shape" fill="#A22833" fill-rule="nonzero"></path>
        <path d="M17.7278618,22.2419006 C17.5488985,22.2419006 17.4038877,22.3869546 17.4038877,22.5658747 C17.4038877,22.7447948 17.5488985,22.8898488 17.7278618,22.8898488 L18.4190065,22.8898488 C18.5979698,22.8898488 18.7429806,22.7447948 18.7429806,22.5658747 C18.7429806,22.3869546 18.5979698,22.2419006 18.4190065,22.2419006 L17.7278618,22.2419006 Z" id="Shape" fill="#A22833" fill-rule="nonzero"></path>
        <path d="M20.8164147,22.5658747 C20.8164147,22.3869546 20.6714039,22.2419006 20.4924406,22.2419006 L19.8012959,22.2419006 C19.6223326,22.2419006 19.4773218,22.3869546 19.4773218,22.5658747 C19.4773218,22.7447948 19.6223326,22.8898488 19.8012959,22.8898488 L20.4924406,22.8898488 C20.6714039,22.8898488 20.8164147,22.7447948 20.8164147,22.5658747 Z" id="Shape" fill="#A22833" fill-rule="nonzero"></path>
        <path d="M22.5658747,22.2419006 L21.87473,22.2419006 C21.6957667,22.2419006 21.5507559,22.3869546 21.5507559,22.5658747 C21.5507559,22.7447948 21.6957667,22.8898488 21.87473,22.8898488 L22.5658747,22.8898488 C22.744838,22.8898488 22.8898488,22.7447948 22.8898488,22.5658747 C22.8898488,22.3869546 22.744838,22.2419006 22.5658747,22.2419006 Z" id="Shape" fill="#A22833" fill-rule="nonzero"></path>
        <path d="M10.4492441,22.5658747 C10.4492441,22.3869546 10.3042333,22.2419006 10.12527,22.2419006 L9.43412527,22.2419006 C9.25516199,22.2419006 9.11015119,22.3869546 9.11015119,22.5658747 C9.11015119,22.7447948 9.25516199,22.8898488 9.43412527,22.8898488 L10.12527,22.8898488 C10.3042333,22.8898488 10.4492441,22.7447948 10.4492441,22.5658747 Z" id="Shape" fill="#A22833" fill-rule="nonzero"></path>
        <path d="M12.5226782,22.5658747 C12.5226782,22.3869546 12.3776674,22.2419006 12.1987041,22.2419006 L11.5075594,22.2419006 C11.3285961,22.2419006 11.1835853,22.3869546 11.1835853,22.5658747 C11.1835853,22.7447948 11.3285961,22.8898488 11.5075594,22.8898488 L12.1987041,22.8898488 C12.3776674,22.8898488 12.5226782,22.7447948 12.5226782,22.5658747 Z" id="Shape" fill="#A22833" fill-rule="nonzero"></path>
        <path d="M13.5809935,22.2419006 C13.4020302,22.2419006 13.2570194,22.3869546 13.2570194,22.5658747 C13.2570194,22.7447948 13.4020302,22.8898488 13.5809935,22.8898488 L14.2721382,22.8898488 C14.4511015,22.8898488 14.5961123,22.7447948 14.5961123,22.5658747 C14.5961123,22.3869546 14.4511015,22.2419006 14.2721382,22.2419006 L13.5809935,22.2419006 Z" id="Shape" fill="#A22833" fill-rule="nonzero"></path>
        <path d="M15.6544276,20.12527 L16.3455724,20.12527 C16.5245356,20.12527 16.6695464,19.980216 16.6695464,19.8012959 C16.6695464,19.6223758 16.5245356,19.4773218 16.3455724,19.4773218 L15.6544276,19.4773218 C15.4754644,19.4773218 15.3304536,19.6223758 15.3304536,19.8012959 C15.3304536,19.980216 15.4754644,20.12527 15.6544276,20.12527 Z" id="Shape" fill="#A22833" fill-rule="nonzero"></path>
        <path d="M17.7278618,20.12527 L18.4190065,20.12527 C18.5979698,20.12527 18.7429806,19.980216 18.7429806,19.8012959 C18.7429806,19.6223758 18.5979698,19.4773218 18.4190065,19.4773218 L17.7278618,19.4773218 C17.5488985,19.4773218 17.4038877,19.6223758 17.4038877,19.8012959 C17.4038877,19.980216 17.5488985,20.12527 17.7278618,20.12527 Z" id="Shape" fill="#A22833" fill-rule="nonzero"></path>
        <path d="M19.8012959,20.12527 L20.4924406,20.12527 C20.6714039,20.12527 20.8164147,19.980216 20.8164147,19.8012959 C20.8164147,19.6223758 20.6714039,19.4773218 20.4924406,19.4773218 L19.8012959,19.4773218 C19.6223326,19.4773218 19.4773218,19.6223758 19.4773218,19.8012959 C19.4773218,19.980216 19.6223326,20.12527 19.8012959,20.12527 Z" id="Shape" fill="#A22833" fill-rule="nonzero"></path>
        <path d="M21.87473,20.12527 L22.5658747,20.12527 C22.744838,20.12527 22.8898488,19.980216 22.8898488,19.8012959 C22.8898488,19.6223758 22.744838,19.4773218 22.5658747,19.4773218 L21.87473,19.4773218 C21.6957667,19.4773218 21.5507559,19.6223758 21.5507559,19.8012959 C21.5507559,19.980216 21.6957667,20.12527 21.87473,20.12527 Z" id="Shape" fill="#A22833" fill-rule="nonzero"></path>
        <path d="M9.43412527,20.12527 L10.12527,20.12527 C10.3042333,20.12527 10.4492441,19.980216 10.4492441,19.8012959 C10.4492441,19.6223758 10.3042333,19.4773218 10.12527,19.4773218 L9.43412527,19.4773218 C9.25516199,19.4773218 9.11015119,19.6223758 9.11015119,19.8012959 C9.11015119,19.980216 9.25516199,20.12527 9.43412527,20.12527 Z" id="Shape" fill="#A22833" fill-rule="nonzero"></path>
        <path d="M11.5075594,20.12527 L12.1987041,20.12527 C12.3776674,20.12527 12.5226782,19.980216 12.5226782,19.8012959 C12.5226782,19.6223758 12.3776674,19.4773218 12.1987041,19.4773218 L11.5075594,19.4773218 C11.3285961,19.4773218 11.1835853,19.6223758 11.1835853,19.8012959 C11.1835853,19.980216 11.3285961,20.12527 11.5075594,20.12527 Z" id="Shape" fill="#A22833" fill-rule="nonzero"></path>
        <path d="M13.5809935,20.12527 L14.2721382,20.12527 C14.4511015,20.12527 14.5961123,19.980216 14.5961123,19.8012959 C14.5961123,19.6223758 14.4511015,19.4773218 14.2721382,19.4773218 L13.5809935,19.4773218 C13.4020302,19.4773218 13.2570194,19.6223758 13.2570194,19.8012959 C13.2570194,19.980216 13.4020302,20.12527 13.5809935,20.12527 Z" id="Shape" fill="#A22833" fill-rule="nonzero"></path>
        <path d="M16.3671706,21.1835853 C16.3671706,21.3625054 16.5121814,21.5075594 16.6911447,21.5075594 L17.3822894,21.5075594 C17.5612527,21.5075594 17.7062635,21.3625054 17.7062635,21.1835853 C17.7062635,21.0046652 17.5612527,20.8596112 17.3822894,20.8596112 L16.6911447,20.8596112 C16.5121814,20.8596112 16.3671706,21.0046652 16.3671706,21.1835853 Z" id="Shape" fill="#A22833" fill-rule="nonzero"></path>
        <path d="M18.4406048,21.1835853 C18.4406048,21.3625054 18.5856156,21.5075594 18.7645788,21.5075594 L19.4557235,21.5075594 C19.6346868,21.5075594 19.7796976,21.3625054 19.7796976,21.1835853 C19.7796976,21.0046652 19.6346868,20.8596112 19.4557235,20.8596112 L18.7645788,20.8596112 C18.5856156,20.8596112 18.4406048,21.0046652 18.4406048,21.1835853 Z" id="Shape" fill="#A22833" fill-rule="nonzero"></path>
        <path d="M20.5140389,21.1835853 C20.5140389,21.3625054 20.6590497,21.5075594 20.838013,21.5075594 L21.5291577,21.5075594 C21.708121,21.5075594 21.8531317,21.3625054 21.8531317,21.1835853 C21.8531317,21.0046652 21.708121,20.8596112 21.5291577,20.8596112 L20.838013,20.8596112 C20.6590497,20.8596112 20.5140389,21.0046652 20.5140389,21.1835853 Z" id="Shape" fill="#A22833" fill-rule="nonzero"></path>
        <path d="M10.1468683,21.1835853 C10.1468683,21.3625054 10.291879,21.5075594 10.4708423,21.5075594 L11.161987,21.5075594 C11.3409503,21.5075594 11.4859611,21.3625054 11.4859611,21.1835853 C11.4859611,21.0046652 11.3409503,20.8596112 11.161987,20.8596112 L10.4708423,20.8596112 C10.291879,20.8596112 10.1468683,21.0046652 10.1468683,21.1835853 Z" id="Shape" fill="#A22833" fill-rule="nonzero"></path>
        <path d="M9.412527,21.1835853 C9.412527,21.0046652 9.2675162,20.8596112 9.08855292,20.8596112 L8.39740821,20.8596112 C8.21844492,20.8596112 8.07343413,21.0046652 8.07343413,21.1835853 C8.07343413,21.3625054 8.21844492,21.5075594 8.39740821,21.5075594 L9.08855292,21.5075594 C9.2675162,21.5075594 9.412527,21.3625054 9.412527,21.1835853 Z" id="Shape" fill="#A22833" fill-rule="nonzero"></path>
        <path d="M23.6025918,20.8596112 L22.9114471,20.8596112 C22.7324838,20.8596112 22.587473,21.0046652 22.587473,21.1835853 C22.587473,21.3625054 22.7324838,21.5075594 22.9114471,21.5075594 L23.6025918,21.5075594 C23.7815551,21.5075594 23.9265659,21.3625054 23.9265659,21.1835853 C23.9265659,21.0046652 23.7815551,20.8596112 23.6025918,20.8596112 Z" id="Shape" fill="#A22833" fill-rule="nonzero"></path>
        <path d="M21.5291577,23.6241901 L20.838013,23.6241901 C20.6590497,23.6241901 20.5140389,23.7692441 20.5140389,23.9481641 C20.5140389,24.1270842 20.6590497,24.2721382 20.838013,24.2721382 L21.5291577,24.2721382 C21.708121,24.2721382 21.8531317,24.1270842 21.8531317,23.9481641 C21.8531317,23.7692441 21.708121,23.6241901 21.5291577,23.6241901 Z" id="Shape" fill="#A22833" fill-rule="nonzero"></path>
        <path d="M11.161987,23.6241901 L10.4708423,23.6241901 C10.291879,23.6241901 10.1468683,23.7692441 10.1468683,23.9481641 C10.1468683,24.1270842 10.291879,24.2721382 10.4708423,24.2721382 L11.161987,24.2721382 C11.3409503,24.2721382 11.4859611,24.1270842 11.4859611,23.9481641 C11.4859611,23.7692441 11.3409503,23.6241901 11.161987,23.6241901 Z" id="Shape" fill="#A22833" fill-rule="nonzero"></path>
        <path d="M12.2203024,21.1835853 C12.2203024,21.3625054 12.3653132,21.5075594 12.5442765,21.5075594 L13.2354212,21.5075594 C13.4143844,21.5075594 13.5593952,21.3625054 13.5593952,21.1835853 C13.5593952,21.0046652 13.4143844,20.8596112 13.2354212,20.8596112 L12.5442765,20.8596112 C12.3653132,20.8596112 12.2203024,21.0046652 12.2203024,21.1835853 Z" id="Shape" fill="#A22833" fill-rule="nonzero"></path>
        <path d="M14.2937365,21.1835853 C14.2937365,21.3625054 14.4387473,21.5075594 14.6177106,21.5075594 L15.3088553,21.5075594 C15.4878186,21.5075594 15.6328294,21.3625054 15.6328294,21.1835853 C15.6328294,21.0046652 15.4878186,20.8596112 15.3088553,20.8596112 L14.6177106,20.8596112 C14.4387473,20.8596112 14.2937365,21.0046652 14.2937365,21.1835853 Z" id="Shape" fill="#A22833" fill-rule="nonzero"></path>
        <path d="M24.6393089,17.4038877 L22.8898488,17.4038877 L22.8898488,15.9784017 L23.3319222,15.9784017 C23.467473,16.3796976 23.847257,16.6695464 24.2937365,16.6695464 C24.8534773,16.6695464 25.3088553,16.2141685 25.3088553,15.6544276 L25.3088553,14.2721382 C25.3088553,13.7123974 24.8534773,13.2570194 24.2937365,13.2570194 C23.847257,13.2570194 23.467473,13.5468683 23.3319222,13.9481641 L21.8531317,13.9481641 L21.8531317,7.01511879 C21.8531317,6.45537797 21.3977538,6 20.838013,6 L11.161987,6 C10.6022462,6 10.1468683,6.45537797 10.1468683,7.01511879 L10.1468683,13.9481641 L8.66807775,13.9481641 C8.532527,13.5468683 8.15274298,13.2570194 7.7062635,13.2570194 C7.14652268,13.2570194 6.69114471,13.7123974 6.69114471,14.2721382 L6.69114471,15.6544276 C6.69114471,16.2141685 7.14652268,16.6695464 7.7062635,16.6695464 C8.15274298,16.6695464 8.532527,16.3796976 8.66807775,15.9784017 L9.11015119,15.9784017 L9.11015119,17.4038877 L7.36069114,17.4038877 C6.61041037,17.4038877 6,18.0142981 6,18.7645788 L6,24.6393089 C6,25.3895896 6.61041037,26 7.36069114,26 L24.6393089,26 C25.3895896,26 26,25.3895896 26,24.6393089 L26,18.7645788 C26,18.0142981 25.3895896,17.4038877 24.6393089,17.4038877 Z M8.72138229,15.3304536 L8.72138229,14.5961123 L23.2786177,14.5961123 L23.2786177,15.3304536 L8.72138229,15.3304536 Z M19.4337797,15.9784017 C19.3241901,16.3906263 19.0076026,16.7774946 18.5139957,17.0916199 C17.8473434,17.5158099 16.954514,17.74946 16,17.74946 C15.045486,17.74946 14.1526566,17.5158099 13.4860475,17.0916199 C12.9924406,16.7774946 12.6758099,16.3906695 12.5662635,15.9784017 L19.4337797,15.9784017 Z M24.2937365,13.9049676 C24.4961987,13.9049676 24.6609071,14.069676 24.6609071,14.2721382 L24.6609071,15.6544276 C24.6609071,15.8568898 24.4961987,16.0215983 24.2937365,16.0215983 C24.0912743,16.0215983 23.9265659,15.8568898 23.9265659,15.6544276 L23.9265659,14.2721382 C23.9265659,14.069676 24.0912743,13.9049676 24.2937365,13.9049676 Z M10.7948164,7.01511879 C10.7948164,6.81265659 10.9595248,6.64794816 11.161987,6.64794816 L20.838013,6.64794816 C21.0404752,6.64794816 21.2051836,6.81265659 21.2051836,7.01511879 L21.2051836,13.9481641 L10.7948164,13.9481641 L10.7948164,7.01511879 Z M7.7062635,16.0215983 C7.5038013,16.0215983 7.33909287,15.8568898 7.33909287,15.6544276 L7.33909287,14.2721382 C7.33909287,14.069676 7.5038013,13.9049676 7.7062635,13.9049676 C7.9087257,13.9049676 8.07343413,14.069676 8.07343413,14.2721382 L8.07343413,15.6544276 C8.07343413,15.8568898 7.9087257,16.0215983 7.7062635,16.0215983 Z M25.3520518,24.6393089 C25.3520518,25.032311 25.0323542,25.3520518 24.6393089,25.3520518 L7.36069114,25.3520518 C6.96764579,25.3520518 6.64794816,25.032311 6.64794816,24.6393089 L6.64794816,18.7645788 C6.64794816,18.3715767 6.96764579,18.0518359 7.36069114,18.0518359 L9.43412527,18.0518359 C9.61308855,18.0518359 9.75809935,17.9067819 9.75809935,17.7278618 L9.75809935,15.9784017 L11.9025918,15.9784017 C12.0115335,16.6137797 12.4405184,17.1942549 13.1381857,17.6382289 C13.907473,18.1277754 14.9238013,18.3974082 16,18.3974082 C17.0761987,18.3974082 18.092527,18.1277754 18.8618575,17.6382289 C19.5595248,17.1942549 19.9885097,16.6137797 20.0974514,15.9784017 L22.2419006,15.9784017 L22.2419006,17.7278618 C22.2419006,17.9067819 22.3869114,18.0518359 22.5658747,18.0518359 L24.6393089,18.0518359 C25.0323542,18.0518359 25.3520518,18.3715767 25.3520518,18.7645788 L25.3520518,24.6393089 Z" id="Shape" fill="#A22833" fill-rule="nonzero"></path>
        <path d="M19.4557235,12.2203024 L12.5442765,12.2203024 C12.3653132,12.2203024 12.2203024,12.3653564 12.2203024,12.5442765 C12.2203024,12.7231965 12.3653132,12.8682505 12.5442765,12.8682505 L19.4557235,12.8682505 C19.6346868,12.8682505 19.7796976,12.7231965 19.7796976,12.5442765 C19.7796976,12.3653564 19.6346868,12.2203024 19.4557235,12.2203024 Z" id="Shape" fill="#A22833" fill-rule="nonzero"></path>
        <path d="M19.4557235,10.4924406 L12.5442765,10.4924406 C12.3653132,10.4924406 12.2203024,10.6374946 12.2203024,10.8164147 C12.2203024,10.9953348 12.3653132,11.1403888 12.5442765,11.1403888 L19.4557235,11.1403888 C19.6346868,11.1403888 19.7796976,10.9953348 19.7796976,10.8164147 C19.7796976,10.6374946 19.6346868,10.4924406 19.4557235,10.4924406 Z" id="Shape" fill="#A22833" fill-rule="nonzero"></path>
        <path d="M19.4557235,8.76457883 L12.5442765,8.76457883 C12.3653132,8.76457883 12.2203024,8.90963283 12.2203024,9.08855292 C12.2203024,9.267473 12.3653132,9.412527 12.5442765,9.412527 L19.4557235,9.412527 C19.6346868,9.412527 19.7796976,9.267473 19.7796976,9.08855292 C19.7796976,8.90963283 19.6346868,8.76457883 19.4557235,8.76457883 Z" id="Shape" fill="#A22833" fill-rule="nonzero"></path>
    </g>
</svg>