<?xml version="1.0" encoding="UTF-8"?>
<svg width="20px" height="20px" viewBox="0 0 20 20" version="1.1" xmlns="http://www.w3.org/2000/svg" xmlns:xlink="http://www.w3.org/1999/xlink">
    <!-- Generator: Sketch 50 (54983) - http://www.bohemiancoding.com/sketch -->
    <title>pix_plugins/mod/journal/journal</title>
    <desc>Created with Sketch.</desc>
    <defs></defs>
    <g id="pix_plugins/mod/journal/journal" stroke="none" stroke-width="1" fill="none" fill-rule="evenodd">
        <g id="circle_background" transform="translate(-6.000000, -6.000000)"></g>
        <path d="M9.85499954,6.69562483 L6.15937471,6.69562483 L6.15937471,10.3912497 L9.85499954,10.3912497 L9.85499954,6.69562483 Z M11.0868745,12.8549995 L11.0868745,14.0868745 L4.92749977,14.0868745 L4.92749977,12.8549995 L11.0868745,12.8549995 Z M11.0868745,5.46374989 L11.0868745,11.6231246 L4.92749977,11.6231246 L4.92749977,5.46374989 L11.0868745,5.46374989 Z M17.2462492,12.8549995 L17.2462492,14.0868745 L12.3187494,14.0868745 L12.3187494,12.8549995 L17.2462492,12.8549995 Z M17.2462492,10.3912497 L17.2462492,11.6231246 L12.3187494,11.6231246 L12.3187494,10.3912497 L17.2462492,10.3912497 Z M17.2462492,7.92749977 L17.2462492,9.15937471 L12.3187494,9.15937471 L12.3187494,7.92749977 L17.2462492,7.92749977 Z M17.2462492,5.46374989 L17.2462492,6.69562483 L12.3187494,6.69562483 L12.3187494,5.46374989 L17.2462492,5.46374989 Z M2.46374989,14.702812 L2.46374989,5.46374989 L1.23187494,5.46374989 L1.23187494,14.702812 C1.23187494,15.0396528 1.51097161,15.3187494 1.84781241,15.3187494 C2.18465322,15.3187494 2.46374989,15.0396528 2.46374989,14.702812 Z M18.4781241,14.702812 L18.4781241,4.23187494 L3.69562483,4.23187494 L3.69562483,14.702812 C3.69562483,14.9145405 3.65712874,15.126269 3.58976058,15.3187494 L17.8621867,15.3187494 C18.1990275,15.3187494 18.4781241,15.0396528 18.4781241,14.702812 Z M19.7099991,3 L19.7099991,14.702812 C19.7099991,15.7229584 18.8823331,16.5506244 17.8621867,16.5506244 L1.84781241,16.5506244 C0.827665977,16.5506244 0,15.7229584 0,14.702812 L0,4.23187494 L2.46374989,4.23187494 L2.46374989,3 L19.7099991,3 Z" id="journal" fill="#A22833"></path>
    </g>
</svg>