<?xml version="1.0" encoding="UTF-8"?>
<svg width="32px" height="32px" viewBox="0 0 32 32" version="1.1" xmlns="http://www.w3.org/2000/svg" xmlns:xlink="http://www.w3.org/1999/xlink">
    <!-- Generator: Sketch 50 (54983) - http://www.bohemiancoding.com/sketch -->
    <title>pix_plugins/mod/journal/journal</title>
    <desc>Created with Sketch.</desc>
    <defs></defs>
    <g id="pix_plugins/mod/journal/journal" stroke="none" stroke-width="1" fill="none" fill-rule="evenodd">
        <g id="circle_background"></g>
        <path d="M16.5000129,12.1428442 L12.4285795,12.1428442 L12.4285795,16.2142776 L16.5000129,16.2142776 L16.5000129,12.1428442 Z M17.8571574,18.9285666 L17.8571574,20.2857111 L11.071435,20.2857111 L11.071435,18.9285666 L17.8571574,18.9285666 Z M17.8571574,10.7856997 L17.8571574,17.5714221 L11.071435,17.5714221 L11.071435,10.7856997 L17.8571574,10.7856997 Z M24.6428798,18.9285666 L24.6428798,20.2857111 L19.2143019,20.2857111 L19.2143019,18.9285666 L24.6428798,18.9285666 Z M24.6428798,16.2142776 L24.6428798,17.5714221 L19.2143019,17.5714221 L19.2143019,16.2142776 L24.6428798,16.2142776 Z M24.6428798,13.4999887 L24.6428798,14.8571332 L19.2143019,14.8571332 L19.2143019,13.4999887 L24.6428798,13.4999887 Z M24.6428798,10.7856997 L24.6428798,12.1428442 L19.2143019,12.1428442 L19.2143019,10.7856997 L24.6428798,10.7856997 Z M8.35714609,20.9642833 L8.35714609,10.7856997 L7.00000162,10.7856997 L7.00000162,20.9642833 C7.00000162,21.3353775 7.30747966,21.6428555 7.67857386,21.6428555 C8.04966805,21.6428555 8.35714609,21.3353775 8.35714609,20.9642833 Z M26.0000243,20.9642833 L26.0000243,9.42855525 L9.71429057,9.42855525 L9.71429057,20.9642833 C9.71429057,21.1975425 9.6718798,21.4308017 9.59766096,21.6428555 L25.321452,21.6428555 C25.6925462,21.6428555 26.0000243,21.3353775 26.0000243,20.9642833 Z M27.3571687,8.07141078 L27.3571687,20.9642833 C27.3571687,22.0881686 26.4453373,23 25.321452,23 L7.67857386,23 C6.55468859,23 5.64285714,22.0881686 5.64285714,20.9642833 L5.64285714,9.42855525 L8.35714609,9.42855525 L8.35714609,8.07141078 L27.3571687,8.07141078 Z" id="journal" fill="#A22833"></path>
    </g>
</svg>