<?xml version="1.0" encoding="UTF-8"?>
<svg width="20px" height="20px" viewBox="0 0 20 20" version="1.1" xmlns="http://www.w3.org/2000/svg" xmlns:xlink="http://www.w3.org/1999/xlink">
    <!-- Generator: Sketch 50 (54983) - http://www.bohemiancoding.com/sketch -->
    <title>pix_plugins/mod/book/icon</title>
    <desc>Created with Sketch.</desc>
    <defs></defs>
    <g id="pix_plugins/mod/book/icon" stroke="none" stroke-width="1" fill="none" fill-rule="evenodd">
        <g id="circle_background" transform="translate(-6.000000, -6.000000)"></g>
        <path d="M19.3794609,5.14218456 C19.6700001,5.56056101 19.7513511,6.10677471 19.5886492,6.64136684 L16.3927179,17.1705075 C16.1021787,18.1583408 15.0794808,18.9253643 14.0800259,18.9253643 L3.3533186,18.9253643 C2.16791866,18.9253643 0.901167744,17.9840172 0.471169726,16.7753742 C0.285224638,16.2524036 0.285224638,15.7410546 0.44792659,15.299435 C0.471169726,15.0670037 0.517655998,14.8345723 0.529277566,14.5556547 C0.540899135,14.3697096 0.436305022,14.2186292 0.459548158,14.0791704 C0.50603443,13.8002527 0.750087359,13.6026861 0.936032448,13.2889038 C1.28467949,12.7078254 1.6798128,11.7664783 1.80765005,11.1621568 C1.86575789,10.941347 1.74954221,10.6856725 1.80765005,10.4881059 C1.86575789,10.2672961 2.08656768,10.1045941 2.20278336,9.89540589 C2.5165657,9.36081376 2.92332058,8.3264942 2.98142842,7.7802805 C3.00467156,7.53622758 2.88845588,7.26893151 2.95818529,7.08298642 C3.03953626,6.81569036 3.29521076,6.69947468 3.46953428,6.46704332 C3.74845191,6.08353157 4.21331464,4.97948261 4.28304404,4.3635395 C4.30628718,4.16597284 4.1900715,3.96840619 4.2249362,3.75921796 C4.27142248,3.53840817 4.55034011,3.30597681 4.7362852,3.03868074 C5.22439106,2.31814352 5.3173636,0.725988703 6.79330274,1.14436515 L6.78168117,1.17922986 C6.97924783,1.13274358 7.17681449,1.07463574 7.37438114,1.07463574 L16.2183944,1.07463574 C16.7646081,1.07463574 17.252714,1.31868867 17.5432532,1.72544355 C17.8454139,2.14382 17.9151434,2.6900337 17.7524414,3.2362474 L14.5681318,13.765388 C14.0219181,15.5551095 13.7197573,15.9502428 12.2438182,15.9502428 L2.14467552,15.9502428 C1.99359514,15.9502428 1.80765005,15.9851075 1.70305594,16.1245664 C1.61008339,16.2640252 1.59846183,16.3686193 1.69143437,16.6242938 C1.92386573,17.2983447 2.72575393,17.4378035 3.36494017,17.4378035 L14.0916475,17.4378035 C14.5216455,17.4378035 15.0213729,17.1937506 15.1492102,16.7753742 L18.6356806,5.30488651 C18.70541,5.08407672 18.70541,4.85164536 18.6937884,4.64245713 C18.9610845,4.74705125 19.2051374,4.9097532 19.3794609,5.14218456 Z M7.01411253,5.16542769 C6.94438313,5.37461592 7.06059881,5.53731787 7.26978703,5.53731787 L14.3357004,5.53731787 C14.5332671,5.53731787 14.7540768,5.37461592 14.8238063,5.16542769 L15.0678592,4.42164734 C15.1375886,4.21245912 15.0213729,4.04975716 14.8121847,4.04975716 L7.74627132,4.04975716 C7.54870466,4.04975716 7.32789487,4.21245912 7.25816546,4.42164734 L7.01411253,5.16542769 Z M6.04952239,8.14054911 C5.97979298,8.34973734 6.09600866,8.51243929 6.30519688,8.51243929 L13.3711103,8.51243929 C13.5686769,8.51243929 13.7894867,8.34973734 13.8592161,8.14054911 L14.103269,7.39676876 C14.1729984,7.18758053 14.0567828,7.02487858 13.8475945,7.02487858 L6.78168117,7.02487858 C6.58411452,7.02487858 6.36330472,7.18758053 6.29357532,7.39676876 L6.04952239,8.14054911 Z" id="" fill="#A22833"></path>
    </g>
</svg>