<?xml version="1.0" encoding="UTF-8"?>
<svg width="32px" height="32px" viewBox="0 0 32 32" version="1.1" xmlns="http://www.w3.org/2000/svg" xmlns:xlink="http://www.w3.org/1999/xlink">
    <!-- Generator: Sketch 60.1 (88133) - https://sketch.com -->
    <title>JournalWhite</title>
    <desc>Created with Sketch.</desc>
    <g id="actual" stroke="none" stroke-width="1" fill="none" fill-rule="evenodd">
        <g id="Parts-Menu" transform="translate(-810.000000, -61.000000)">
            <g id="JournalWhite" transform="translate(811.000000, 62.000000)">
                <circle id="Oval-Copy" stroke="#FFFFFF" stroke-width="2" cx="15" cy="15" r="15"></circle>
                <g id="journalIcon" transform="translate(6.000000, 7.000000)" fill="#FFFFFF">
                    <path d="M2,11.2 C4,11.3 5.9,11.7 7.2,12.2 C7.4,12.3 7.5,12.5 7.4,12.7 C7.4,12.7 7.4,12.7 7.4,12.7 C7.3,12.9 7.1,13 6.9,12.9 C5.7,12.4 3.9,12.1 1.9,12 C1.7,12 1.5,11.8 1.5,11.6 C1.6,11.4 1.8,11.2 2,11.2 C2,11.2 2,11.2 2,11.2 M2,8.9 C4,9 5.9,9.4 7.2,9.9 C7.4,10 7.5,10.2 7.4,10.4 C7.4,10.4 7.4,10.4 7.4,10.4 C7.3,10.6 7.1,10.7 6.9,10.6 C5.7,10.1 3.9,9.8 1.9,9.7 C1.7,9.7 1.5,9.5 1.5,9.3 C1.5,9.1 1.7,8.9 2,8.9 C1.9,8.9 2,8.9 2,8.9 M2,6.6 C4,6.7 5.9,7.1 7.2,7.6 C7.4,7.6 7.5,7.8 7.4,8 C7.4,8 7.4,8 7.4,8 C7.3,8.3 7.1,8.4 6.9,8.3 C5.7,7.8 3.9,7.5 1.9,7.4 C1.7,7.4 1.5,7.2 1.5,7 C1.6,6.7 1.7,6.6 2,6.6 C2,6.6 2,6.6 2,6.6 M2,4.3 C4,4.4 5.9,4.8 7.2,5.3 C7.4,5.4 7.5,5.6 7.4,5.8 C7.4,5.8 7.4,5.8 7.4,5.8 C7.3,5.9 7.1,6 6.9,6 C5.7,5.5 3.9,5.2 1.9,5.1 C1.7,5 1.5,4.8 1.5,4.6 C1.6,4.4 1.7,4.2 2,4.3 C2,4.2 2,4.2 2,4.3 M0,1.2 L0,14 C0,14.2 0.2,14.4 0.4,14.4 C5,14.4 8.6,15.6 8.6,16.7 L8.6,2.7 C7.1,1.4 3.7,0.8 0.4,0.8 C0.2,0.8 0,0.9 0,1.2 C0,1.2 0,1.2 0,1.2 M16.1,9.7 C14.1,9.8 12.4,10.2 11.1,10.6 C10.9,10.7 10.7,10.6 10.6,10.4 C10.5,10.2 10.6,10 10.8,9.9 C10.8,9.9 10.8,9.9 10.8,9.9 C12.1,9.4 14,9 16,8.9 C16.2,8.9 16.4,9 16.4,9.3 C16.4,9.3 16.4,9.3 16.4,9.3 C16.4,9.5 16.3,9.6 16.1,9.7 C16.1,9.7 16.1,9.7 16.1,9.7 L16.1,9.7 Z M16.1,12 C14.1,12.1 12.4,12.5 11.1,12.9 C10.9,13 10.7,12.9 10.6,12.7 C10.5,12.5 10.6,12.3 10.8,12.2 C10.8,12.2 10.8,12.2 10.8,12.2 C12.1,11.7 14,11.4 16,11.2 C16.2,11.2 16.4,11.3 16.4,11.5 C16.4,11.5 16.4,11.5 16.4,11.5 C16.4,11.8 16.3,12 16.1,12 C16.1,12 16.1,12 16.1,12 L16.1,12 Z M13.3,1.9 C13.8,1.8 14.9,1.6 15.6,1.6 L15.6,7 L14.7,6 C14.6,5.8 14.3,5.8 14.1,6 C14.1,6 14.1,6 14.1,6 L13.2,6.9 L13.2,1.9 L13.3,1.9 Z M17.6,0.8 C15.1,0.8 11.2,1.2 9.4,2.6 L9.4,16.6 C9.4,15.5 13,14.3 17.6,14.3 C17.8,14.3 18,14.1 18,13.9 L18,1.2 C18,0.9 17.8,0.8 17.6,0.8 L17.6,0.8 Z" id="Shape"></path>
                </g>
            </g>
        </g>
    </g>
</svg>