<?xml version="1.0" encoding="UTF-8"?>
<svg width="32px" height="32px" viewBox="0 0 32 32" version="1.1" xmlns="http://www.w3.org/2000/svg" xmlns:xlink="http://www.w3.org/1999/xlink">
    <!-- Generator: Sketch 50 (54983) - http://www.bohemiancoding.com/sketch -->
    <title>pix_plugins/mod/lams/icon</title>
    <desc>Created with Sketch.</desc>
    <defs></defs>
    <g id="pix_plugins/mod/lams/icon" stroke="none" stroke-width="1" fill="none" fill-rule="evenodd">
        <g id="circle_background"></g>
        <path d="M28.9196667,13.9068503 C28.9196667,13.9068503 26.578,10.8583822 26.5766111,10.8566497 C26.576,10.8558376 26.5249444,10.7674809 26.3676111,10.7187006 L16.6096111,8.03356688 C16.5378889,8.01385987 16.4621111,8.01385987 16.3903889,8.03356688 L6.63238889,10.7187006 C6.63238889,10.7187006 6.49916667,10.7561656 6.41911111,10.8614682 C6.38705556,10.9036433 4.08038889,13.9068503 4.08038889,13.9068503 C4.00305556,14.0076592 3.97983333,14.1384618 4.01805556,14.258707 C4.05633333,14.3789522 4.15138889,14.4740764 4.27366667,14.5145191 L6.33872222,15.1974968 L6.33872222,20.658828 C6.33872222,20.8178917 6.43711111,20.9612006 6.588,21.0219459 L16.3460556,24.9514904 C16.3750556,24.9631847 16.4118333,24.9813217 16.5,24.9813217 C16.5881667,24.9813217 16.6539444,24.9514904 16.6539444,24.9514904 L26.4120556,21.0219459 C26.5629444,20.9612006 26.6612778,20.8178376 26.6612778,20.658828 L26.6612778,15.1973885 L28.7263333,14.5144108 C28.8486111,14.4739682 28.9436667,14.3787898 28.9819444,14.2585987 C29.0201667,14.1384618 28.9969444,14.0076592 28.9196667,13.9068503 Z M5.059,13.9442611 L6.9,11.5469363 L7.64461111,11.7468217 L11.8352222,12.8717452 L15.7982778,13.935707 L13.474,16.7274427 L5.059,13.9442611 Z M16.0968333,24.0006815 L7.14516667,20.3959777 L7.14516667,15.4641369 L13.4807222,17.559793 C13.5231667,17.5739236 13.5668889,17.5805828 13.6102778,17.5805828 C13.7294444,17.5805828 13.8453333,17.5289873 13.9233333,17.4351624 L16.0968889,14.8245796 L16.0968333,24.0006815 L16.0968333,24.0006815 Z M16.5,13.3090892 L8.24277778,11.0922675 L16.5,8.82000637 L24.7572222,11.0922675 L16.5,13.3090892 Z M25.8548889,20.3959777 L16.9031667,24.0006815 L16.9031667,14.8246879 L19.0767222,17.4352707 C19.1547222,17.5289873 19.2706111,17.5806911 19.3897778,17.5806911 C19.4331667,17.5806911 19.4768889,17.5740318 19.5193889,17.5599013 L25.8548889,15.4642452 L25.8548889,20.3959777 L25.8548889,20.3959777 Z M19.5260556,16.727551 L17.2017778,13.9358153 L26.1000556,11.5469363 L27.9411111,13.9442611 L19.5260556,16.727551 Z" id="Shape" fill="#A22833" fill-rule="nonzero"></path>
    </g>
</svg>