<?xml version="1.0" encoding="UTF-8"?>
<svg width="20px" height="20px" viewBox="0 0 20 20" version="1.1" xmlns="http://www.w3.org/2000/svg" xmlns:xlink="http://www.w3.org/1999/xlink">
    <!-- Generator: Sketch 50 (54983) - http://www.bohemiancoding.com/sketch -->
    <title>pix_plugins/mod/lams/icon</title>
    <desc>Created with Sketch.</desc>
    <defs></defs>
    <g id="pix_plugins/mod/lams/icon" stroke="none" stroke-width="1" fill="none" fill-rule="evenodd">
        <g id="circle_background" transform="translate(-6.000000, -6.000000)"></g>
        <path d="M19.9357288,7.71044915 C19.9357288,7.71044915 18.0623962,5.27167556 18.0612851,5.27028958 C18.0607962,5.26963989 18.0199518,5.19895457 17.8940852,5.15993038 L10.0876881,3.0118242 C10.0303104,2.9960586 9.96968819,2.9960586 9.91231044,3.0118242 L2.10591343,5.15993038 C2.10591343,5.15993038 1.99933569,5.18990234 1.93529127,5.27414435 C1.90964684,5.30788447 0.0643142137,7.71044915 0.0643142137,7.71044915 C0.00244757072,7.79109625 -0.0161301999,7.89573825 0.0144475661,7.99193439 C0.0450697766,8.08813053 0.121114192,8.16422987 0.218936377,8.19658399 L1.87098019,8.74296595 L1.87098019,13.1120292 C1.87098019,13.2392801 1.94969127,13.3539272 2.07040233,13.4025234 L9.87684378,16.5461579 C9.90004377,16.5555133 9.92946599,16.5700228 9.99999929,16.5700228 C10.0705326,16.5700228 10.1231548,16.5461579 10.1231548,16.5461579 L17.9296407,13.4025234 C18.0503518,13.3539272 18.1290184,13.2392368 18.1290184,13.1120292 L18.1290184,8.74287933 L19.7810622,8.19649737 C19.8788844,8.16414324 19.9549288,8.0880006 19.985551,7.99184777 C20.0161288,7.89573825 19.997551,7.79109625 19.9357288,7.71044915 Z M0.847202802,7.7403778 L2.32000224,5.82251866 L2.9156909,5.98242688 L6.2681785,6.88236539 L9.43862173,7.73353449 L7.57920022,9.96692217 L0.847202802,7.7403778 Z M9.67746608,15.785511 L2.5161355,12.9017491 L2.5161355,8.95627797 L7.584578,10.6328022 C7.61853354,10.6441066 7.6535113,10.649434 7.6882224,10.649434 C7.7835557,10.649434 7.87626677,10.6081576 7.93866675,10.5330977 L9.67751053,8.44463231 L9.67746608,15.785511 L9.67746608,15.785511 Z M9.99999929,7.23224041 L3.39422405,5.45878377 L9.99999929,3.64097555 L16.6057745,5.45878377 L9.99999929,7.23224041 Z M17.4839075,12.9017491 L10.3225325,15.785511 L10.3225325,8.44471893 L12.0613763,10.5331844 C12.1237763,10.6081576 12.2164873,10.6495206 12.3118206,10.6495206 C12.3465317,10.6495206 12.3815095,10.6441932 12.4155095,10.6328888 L17.4839075,8.95636459 L17.4839075,12.9017491 L17.4839075,12.9017491 Z M12.4208428,9.96700879 L10.5614213,7.73362111 L17.6800408,5.82251866 L19.1528847,7.7403778 L12.4208428,9.96700879 Z" id="Shape" fill="#A22833" fill-rule="nonzero"></path>
    </g>
</svg>