<?xml version="1.0" encoding="UTF-8"?>
<svg width="20px" height="20px" viewBox="0 0 20 20" version="1.1" xmlns="http://www.w3.org/2000/svg" xmlns:xlink="http://www.w3.org/1999/xlink">
    <!-- Generator: Sketch 50 (54983) - http://www.bohemiancoding.com/sketch -->
    <title>pix_plugins/mod/lightboxgallery/icon</title>
    <desc>Created with Sketch.</desc>
    <defs></defs>
    <g id="pix_plugins/mod/lightboxgallery/icon" stroke="none" stroke-width="1" fill="none" fill-rule="evenodd">
        <g id="circle_background" transform="translate(-6.000000, -6.000000)"></g>
        <path d="M9.68000031,8.77600021 C11.2832504,8.77600021 12.5840004,10.0767503 12.5840004,11.6800003 C12.5840004,13.2832504 11.2832504,14.5840004 9.68000031,14.5840004 C8.07675025,14.5840004 6.77600021,13.2832504 6.77600021,11.6800003 C6.77600021,10.0767503 8.07675025,8.77600021 9.68000031,8.77600021 Z M16.7786672,4.58133341 C18.2004172,4.58133341 19.3600006,5.74091678 19.3600006,7.16266683 L19.3600006,16.1973338 C19.3600006,17.6190838 18.2004172,18.7786672 16.7786672,18.7786672 L2.58133341,18.7786672 C1.15958337,18.7786672 0,17.6190838 0,16.1973338 L0,7.16266683 C0,5.74091678 1.15958337,4.58133341 2.58133341,4.58133341 L4.84000015,4.58133341 L5.35425017,3.21000004 C5.60633351,2.54450002 6.39283353,2 7.09866689,2 L12.2613337,2 C12.9671671,2 13.7536671,2.54450002 14.0057504,3.21000004 L14.5200005,4.58133341 L16.7786672,4.58133341 Z M9.68000031,16.1973338 C12.1705837,16.1973338 14.1973338,14.1705837 14.1973338,11.6800003 C14.1973338,9.18941689 12.1705837,7.16266683 9.68000031,7.16266683 C7.18941689,7.16266683 5.16266683,9.18941689 5.16266683,11.6800003 C5.16266683,14.1705837 7.18941689,16.1973338 9.68000031,16.1973338 Z" id="" fill="#A22833"></path>
    </g>
</svg>