<?xml version="1.0" encoding="UTF-8"?>
<svg width="32px" height="32px" viewBox="0 0 32 32" version="1.1" xmlns="http://www.w3.org/2000/svg" xmlns:xlink="http://www.w3.org/1999/xlink">
    <!-- Generator: Sketch 50 (54983) - http://www.bohemiancoding.com/sketch -->
    <title>pix_plugins/mod/lightboxgallery/icon</title>
    <desc>Created with Sketch.</desc>
    <defs></defs>
    <g id="pix_plugins/mod/lightboxgallery/icon" stroke="none" stroke-width="1" fill="none" fill-rule="evenodd">
        <g id="circle_background"></g>
        <path d="M16.1785836,14.1250085 C17.8644115,14.1250085 19.2321586,15.4927557 19.2321586,17.1785836 C19.2321586,18.8644115 17.8644115,20.2321586 16.1785836,20.2321586 C14.4927557,20.2321586 13.1250085,18.8644115 13.1250085,17.1785836 C13.1250085,15.4927557 14.4927557,14.1250085 16.1785836,14.1250085 Z M23.6428782,9.71428895 C25.1378576,9.71428895 26.3571671,10.9335984 26.3571671,12.4285779 L26.3571671,21.9285892 C26.3571671,23.4235687 25.1378576,24.6428782 23.6428782,24.6428782 L8.71428895,24.6428782 C7.21930949,24.6428782 6,23.4235687 6,21.9285892 L6,12.4285779 C6,10.9335984 7.21930949,9.71428895 8.71428895,9.71428895 L11.0892918,9.71428895 L11.630029,8.27232295 C11.8950963,7.57254533 12.7221062,7 13.4642946,7 L18.8928725,7 C19.6350609,7 20.4620708,7.57254533 20.7271381,8.27232295 L21.2678753,9.71428895 L23.6428782,9.71428895 Z M16.1785836,21.9285892 C18.7974483,21.9285892 20.9285892,19.7974483 20.9285892,17.1785836 C20.9285892,14.5597188 18.7974483,12.4285779 16.1785836,12.4285779 C13.5597188,12.4285779 11.4285779,14.5597188 11.4285779,17.1785836 C11.4285779,19.7974483 13.5597188,21.9285892 16.1785836,21.9285892 Z" id="" fill="#A22833"></path>
    </g>
</svg>