<?xml version="1.0" encoding="UTF-8"?>
<svg width="16px" height="16px" viewBox="0 0 16 16" version="1.1" xmlns="http://www.w3.org/2000/svg" xmlns:xlink="http://www.w3.org/1999/xlink">
    <!-- Generator: Sketch 50 (54983) - http://www.bohemiancoding.com/sketch -->
    <title>pix_plugins/mod/scorm/pix/asset</title>
    <desc>Created with Sketch.</desc>
    <defs></defs>
    <g id="pix_plugins/mod/scorm/pix/asset" stroke="none" stroke-width="1" fill="none" fill-rule="evenodd">
        <g id="Group" transform="translate(2.000000, 0.000000)" fill="#A22833">
            <path d="M1,3 L1,13 L11,13 L11,3 L1,3 Z M0,2 L12,2 L12,14 L0,14 L0,2 Z" id="Rectangle-2" fill-rule="nonzero"></path>
            <path d="M3.34046981,7.97417932 C3.45522897,7.56104635 3.56998641,7.14505064 3.68474556,6.72617972 C3.79950472,6.30730879 3.90852429,5.92287138 4.01180753,5.57285594 C4.11509077,5.22284051 4.20115885,4.92160224 4.27001434,4.66913209 C4.33886984,4.41666195 4.38477281,4.24452579 4.40772464,4.15271846 C4.43067648,4.08386297 4.44789009,4.01213957 4.45936601,3.93754612 C4.47084192,3.86295267 4.48805554,3.77401565 4.51100737,3.67073241 C4.56838695,3.38383452 4.63724141,3.06538263 4.71757282,2.7153672 C4.79790423,2.36535176 4.9069238,2.04403094 5.04463479,1.75139509 C5.18234578,1.45875924 5.35448193,1.21203075 5.56104842,1.01120222 C5.7676149,0.810373695 6.02008126,0.709960938 6.31845507,0.709960938 C6.45616606,0.709960938 6.58526818,0.752994976 6.70576529,0.839064345 C6.82626241,0.925133713 6.93241304,1.03128434 7.02422036,1.15751942 C7.11602769,1.28375449 7.19062002,1.41285661 7.2479996,1.54482964 C7.30537918,1.67680267 7.34554429,1.7829533 7.36849612,1.86328471 L7.35128233,1.84607092 C7.62670431,2.94775884 7.85048131,3.84860472 8.02262005,4.54863558 C8.19475878,5.24866644 8.32959877,5.80524001 8.42714406,6.21837298 C8.52468934,6.63150595 8.5935438,6.92700635 8.63370951,7.10488304 C8.67387521,7.28275974 8.69969564,7.40038611 8.71117155,7.45776569 C8.91773804,7.35448245 9.13290823,7.27415224 9.35668859,7.21677266 C9.58046895,7.15939308 9.88744509,7.14791734 10.2776262,7.18234509 C10.2776262,7.38891157 10.2604126,7.56391666 10.2259849,7.70736561 C10.1915571,7.85081456 10.1456541,7.9741788 10.0882746,8.07746204 C10.030895,8.18074529 9.96490946,8.26681336 9.89031601,8.33566886 C9.81572255,8.40452435 9.74399915,8.47337882 9.67514366,8.54223431 C9.58333633,8.62256572 9.50013719,8.70576486 9.42554374,8.79183423 C9.35095029,8.8779036 9.31365412,8.97831636 9.31365412,9.09307551 C9.31365412,9.46030482 9.39685326,9.82752862 9.56325404,10.1947579 C9.72965482,10.5619872 9.91039778,10.9119974 10.1054884,11.244799 C10.3350067,11.6235042 10.5358322,12.0165484 10.7079709,12.4239434 C10.8801097,12.8313384 10.9661777,13.2932371 10.9661777,13.8096533 C10.5874725,14.0047439 10.2718896,14.0793362 10.0194194,14.0334326 C9.76694926,13.9875289 9.55177907,13.8584268 9.37390238,13.6461223 C9.19602568,13.4338179 9.04684101,13.1641379 8.9263439,12.8370743 C8.80584678,12.5100107 8.69395828,12.1686074 8.59067504,11.812854 C8.46443996,11.399721 8.30951743,10.9779874 8.12590277,10.5476406 C7.94228812,10.1172937 7.74146261,9.79310397 7.52342021,9.57506157 C7.44308879,9.5980134 7.30251094,9.64391637 7.10168241,9.71277187 C6.90085388,9.78162736 6.67420794,9.86482651 6.4217378,9.96237179 C6.16926765,10.0599171 5.90532555,10.1689366 5.62990357,10.2894338 C5.35448159,10.4099309 5.09914629,10.5332951 4.86389002,10.6595302 C4.62863374,10.7857653 4.42780823,10.9091295 4.26140745,11.0296266 C4.09500667,11.1501237 3.99459391,11.2620122 3.96016617,11.3652955 L3.96016617,11.3480817 C3.77655151,11.9104016 3.59007068,12.4784509 3.40071807,13.0522467 C3.21136546,13.6260425 3.02488462,14.1940918 2.84126997,14.7564116 C2.73798673,15.0203577 2.60601568,15.1752802 2.44535285,15.2211839 C2.28469003,15.2670876 2.11829175,15.2900391 1.94615301,15.2900391 C1.7166347,15.2900391 1.50720237,15.2297914 1.31784976,15.1092943 C1.12849715,14.9887972 1.03382227,14.7793649 1.03382227,14.480991 L3.34046981,7.97417932 Z M4.64871767,9.1102893 C4.83233232,9.07586155 5.04750252,9.02708964 5.29423471,8.96397211 C5.5409669,8.90085457 5.79343326,8.8233933 6.05164136,8.73158597 C6.30984947,8.63977865 6.55944689,8.53649696 6.80044112,8.4217378 C7.04143536,8.30697864 7.25373661,8.16926972 7.43735127,8.00860689 C7.36849577,7.721709 7.27955876,7.33727159 7.17053756,6.85528312 C7.06151636,6.37329466 6.94388999,5.88557555 6.81765491,5.39211117 C6.69141984,4.89864679 6.56518666,4.44535492 6.43895158,4.03222195 C6.31271651,3.61908898 6.19795907,3.33793326 6.09467583,3.18874636 L4.64871767,9.1102893 Z" id="A"></path>
        </g>
    </g>
</svg>