<?xml version="1.0" encoding="UTF-8"?>
<svg width="16px" height="16px" viewBox="0 0 16 16" version="1.1" xmlns="http://www.w3.org/2000/svg" xmlns:xlink="http://www.w3.org/1999/xlink">
    <!-- Generator: Sketch 50 (54983) - http://www.bohemiancoding.com/sketch -->
    <title>pix_plugins/mod/scorm/pix/browsed</title>
    <desc>Created with Sketch.</desc>
    <defs></defs>
    <g id="pix_plugins/mod/scorm/pix/browsed" stroke="none" stroke-width="1" fill="none" fill-rule="evenodd">
        <path d="M3,0 L3,1.42592593 L3,13.8703704 L3,15.1481481 L4.01215278,14.3333333 L6.47569444,12.3333333 L7.71701389,14.7222222 L7.984375,15.2592593 L8.53819444,14.9814815 L10.4288194,14.037037 L10.9635417,13.7777778 L10.6961806,13.2407407 L9.56944444,11.0925926 L12.6631944,10.7222222 L13.9045139,10.5740741 L13.0260417,9.72222222 L4.05034722,1 L3,0 Z M4.22222222,2.87037037 L11.2881944,9.7037037 L8.53819444,10.0185185 L7.67881944,10.1296296 L8.07986111,10.8888889 L9.34027778,13.2592593 L8.53819444,13.6666667 L7.22048611,11.1111111 L6.85763889,10.4444444 L6.265625,10.9259259 L4.22222222,12.5925926 L4.22222222,2.87037037 Z" id="Shape" fill="#A22833" fill-rule="nonzero"></path>
    </g>
</svg>