<?xml version="1.0" encoding="UTF-8"?>
<svg width="16px" height="16px" viewBox="0 0 16 16" version="1.1" xmlns="http://www.w3.org/2000/svg" xmlns:xlink="http://www.w3.org/1999/xlink">
    <!-- Generator: Sketch 50 (54983) - http://www.bohemiancoding.com/sketch -->
    <title>pix_plugins/mod/scorm/pix/browsed</title>
    <desc>Created with Sketch.</desc>
    <defs></defs>
    <g id="pix_plugins/mod/scorm/pix/browsed" stroke="none" stroke-width="1" fill="none" fill-rule="evenodd">
        <path d="M3,0.351851852 L3,1.77777778 L3,14.2222222 L3,15.5 L4.01215278,14.6851852 L6.47569444,12.6851852 L7.71701389,15.0740741 L7.984375,15.6111111 L8.53819444,15.3333333 L10.4288194,14.3888889 L10.9635417,14.1296296 L10.6961806,13.5925926 L9.56944444,11.4444444 L12.6631944,11.0740741 L13.9045139,10.9259259 L13.0260417,10.0740741 L4.05034722,1.35185185 L3,0.351851852 Z M4.22222222,3.22222222 L11.2881944,10.0555556 L8.53819444,10.3703704 L7.67881944,10.4814815 L8.07986111,11.2407407 L9.34027778,13.6111111 L8.53819444,14.0185185 L7.22048611,11.462963 L6.85763889,10.7962963 L6.265625,11.2777778 L4.22222222,12.9444444 L4.22222222,3.22222222 Z" id="Shape" fill="#A22833" fill-rule="nonzero"></path>
    </g>
</svg>