<?xml version="1.0" encoding="UTF-8"?>
<svg width="32px" height="32px" viewBox="0 0 32 32" version="1.1" xmlns="http://www.w3.org/2000/svg" xmlns:xlink="http://www.w3.org/1999/xlink">
    <!-- Generator: Sketch 50 (54983) - http://www.bohemiancoding.com/sketch -->
    <title>pix_plugins/mod/survey/icon</title>
    <desc>Created with Sketch.</desc>
    <defs></defs>
    <g id="pix_plugins/mod/survey/icon" stroke="none" stroke-width="1" fill="none" fill-rule="evenodd">
        <g id="circle_background"></g>
        <path d="M15.1428668,24.3571445 L24.6428782,24.3571445 L24.6428782,17.5714221 L20.2321586,17.5714221 C19.670216,17.5714221 19.2143003,17.1155064 19.2143003,16.5535637 L19.2143003,12.1428442 L15.1428668,12.1428442 L15.1428668,24.3571445 Z M17.8571558,9.08926913 L17.8571558,8.41069689 C17.8571558,8.23045114 17.6981154,8.07141078 17.5178697,8.07141078 L10.0535751,8.07141078 C9.87332932,8.07141078 9.71428895,8.23045114 9.71428895,8.41069689 L9.71428895,9.08926913 C9.71428895,9.26951488 9.87332932,9.42855525 10.0535751,9.42855525 L17.5178697,9.42855525 C17.6981154,9.42855525 17.8571558,9.26951488 17.8571558,9.08926913 Z M20.5714447,16.2142776 L23.7416494,16.2142776 L20.5714447,13.044073 L20.5714447,16.2142776 Z M26.0000226,17.5714221 L26.0000226,24.6964306 C26.0000226,25.2583732 25.5441069,25.7142889 24.9821643,25.7142889 L14.8035807,25.7142889 C14.2416381,25.7142889 13.7857224,25.2583732 13.7857224,24.6964306 L13.7857224,23 L8.01785836,23 C7.45591572,23 7,22.5440843 7,21.9821416 L7,7.73212466 C7,7.17018202 7.45591572,6.7142663 8.01785836,6.7142663 L19.5535864,6.7142663 C20.115529,6.7142663 20.5714447,7.17018202 20.5714447,7.73212466 L20.5714447,11.2098074 C20.7092797,11.2946289 20.836512,11.3900531 20.9531416,11.5066827 L25.2790396,15.8325807 C25.6819419,16.235483 26.0000226,17.0094795 26.0000226,17.5714221 Z" id="survey" fill="#A22833"></path>
    </g>
</svg>