<?xml version="1.0" encoding="UTF-8"?>
<svg width="20px" height="20px" viewBox="0 0 20 20" version="1.1" xmlns="http://www.w3.org/2000/svg" xmlns:xlink="http://www.w3.org/1999/xlink">
    <!-- Generator: Sketch 50 (54983) - http://www.bohemiancoding.com/sketch -->
    <title>pix_plugins/mod/survey/icon</title>
    <desc>Created with Sketch.</desc>
    <defs></defs>
    <g id="pix_plugins/mod/survey/icon" stroke="none" stroke-width="1" fill="none" fill-rule="evenodd">
        <g id="circle_background" transform="translate(-6.000000, -6.000000)"></g>
        <path d="M8.64285553,18.1428668 L18.1428668,18.1428668 L18.1428668,11.3571445 L13.7321473,11.3571445 C13.1702047,11.3571445 12.7142889,10.9012288 12.7142889,10.3392861 L12.7142889,5.92856658 L8.64285553,5.92856658 L8.64285553,18.1428668 Z M11.3571445,2.87499151 L11.3571445,2.19641927 C11.3571445,2.01617352 11.1981041,1.85713315 11.0178584,1.85713315 L3.55356374,1.85713315 C3.37331799,1.85713315 3.21427763,2.01617352 3.21427763,2.19641927 L3.21427763,2.87499151 C3.21427763,3.05523726 3.37331799,3.21427763 3.55356374,3.21427763 L11.0178584,3.21427763 C11.1981041,3.21427763 11.3571445,3.05523726 11.3571445,2.87499151 Z M14.0714334,10 L17.2416381,10 L14.0714334,6.82979533 L14.0714334,10 Z M19.5000113,11.3571445 L19.5000113,18.482153 C19.5000113,19.0440956 19.0440956,19.5000113 18.482153,19.5000113 L8.30356941,19.5000113 C7.74162677,19.5000113 7.28571105,19.0440956 7.28571105,18.482153 L7.28571105,16.7857224 L1.51784703,16.7857224 C0.955904397,16.7857224 0.499988675,16.3298067 0.499988675,15.767864 L0.499988675,1.51784703 C0.499988675,0.955904397 0.955904397,0.499988675 1.51784703,0.499988675 L13.0535751,0.499988675 C13.6155177,0.499988675 14.0714334,0.955904397 14.0714334,1.51784703 L14.0714334,4.99552975 C14.2092684,5.08035128 14.3365007,5.1757755 14.4531303,5.2924051 L18.7790283,9.61830312 C19.1819306,10.0212054 19.5000113,10.7952018 19.5000113,11.3571445 Z" id="survey" fill="#A22833"></path>
    </g>
</svg>