<?xml version="1.0" encoding="UTF-8"?>
<svg width="20px" height="20px" viewBox="0 0 20 20" version="1.1" xmlns="http://www.w3.org/2000/svg" xmlns:xlink="http://www.w3.org/1999/xlink">
    <!-- Generator: Sketch 50 (54983) - http://www.bohemiancoding.com/sketch -->
    <title>pix_plugins/mod/object/icon</title>
    <desc>Created with Sketch.</desc>
    <defs></defs>
    <g id="pix_plugins/mod/object/icon" stroke="none" stroke-width="1" fill="none" fill-rule="evenodd">
        <g id="circle_background" transform="translate(-6.000000, -6.000000)"></g>
        <path d="M19.9661905,4.66565179 C19.9654579,4.66015179 19.9645055,4.65472321 19.9636264,4.64929464 C19.9603297,4.62908036 19.9560073,4.60922321 19.9504396,4.58979464 C19.9496337,4.58679464 19.9489744,4.58386607 19.9480952,4.58086607 C19.9412088,4.5584375 19.9328571,4.53658036 19.9231136,4.5154375 C19.9215018,4.51186607 19.9195971,4.5084375 19.9179121,4.50486607 C19.9090476,4.48658036 19.8991575,4.46886607 19.888315,4.45179464 C19.8861905,4.44836607 19.8841392,4.44486607 19.8819414,4.44150893 C19.8692674,4.42250893 19.8554212,4.40436607 19.8404029,4.38715179 C19.8374725,4.38379464 19.8343223,4.38065179 19.8312454,4.37729464 C19.8180586,4.3629375 19.8041392,4.34929464 19.7894872,4.33636607 C19.7857509,4.33308036 19.7821612,4.32965179 19.7783516,4.32650893 C19.7605495,4.31165179 19.7417949,4.29786607 19.7221612,4.28529464 C19.7190842,4.28336607 19.7159341,4.28165179 19.7128571,4.27979464 C19.6941758,4.26836607 19.6747619,4.25808036 19.6546886,4.24886607 C19.6526374,4.2479375 19.6508059,4.24665179 19.6487546,4.24572321 L10.2269963,0.0764375 C10.0827473,0.0125089286 9.91710623,0.0125089286 9.77285714,0.0764375 L3.26282051,2.95736607 C2.98648352,3.07965179 2.86421245,3.39715179 2.9896337,3.66658036 C3.11498168,3.93600893 3.44076923,4.05558036 3.71703297,3.9329375 L9.99996337,1.15250893 L18.0744689,4.72572321 L9.99996337,8.18550893 L0.799304029,4.24322321 C0.798644689,4.2429375 0.797985348,4.24279464 0.797326007,4.24250893 C0.783846154,4.23679464 0.76992674,4.23186607 0.755934066,4.22715179 C0.752417582,4.2259375 0.748901099,4.22450893 0.745384615,4.22336607 C0.733882784,4.21979464 0.722014652,4.21700893 0.71021978,4.21415179 C0.703992674,4.21265179 0.697765568,4.21079464 0.691465201,4.20950893 C0.683919414,4.2079375 0.676153846,4.20708036 0.668461538,4.20579464 C0.657765568,4.20408036 0.647069597,4.20215179 0.636373626,4.20100893 C0.631391941,4.20050893 0.626190476,4.2004375 0.621135531,4.20008036 C0.607728938,4.19908036 0.594395604,4.19822321 0.581062271,4.19815179 C0.58010989,4.19815179 0.579230769,4.19800893 0.578278388,4.19800893 C0.573076923,4.19800893 0.568021978,4.19865179 0.562893773,4.19879464 C0.551025641,4.19908036 0.539157509,4.1994375 0.527435897,4.20050893 C0.518278388,4.20129464 0.509340659,4.20272321 0.50032967,4.20400893 C0.492051282,4.20522321 0.483699634,4.20615179 0.475567766,4.20772321 C0.464358974,4.20979464 0.453443223,4.21250893 0.442454212,4.21515179 C0.436520147,4.21665179 0.430586081,4.2179375 0.424725275,4.21965179 C0.412857143,4.22300893 0.401282051,4.22700893 0.38978022,4.23108036 C0.384798535,4.23279464 0.37981685,4.2344375 0.374908425,4.23636607 C0.363553114,4.24079464 0.352490842,4.24572321 0.341501832,4.25086607 C0.336446886,4.25329464 0.331245421,4.25550893 0.326263736,4.25808036 C0.316300366,4.26308036 0.306556777,4.26858036 0.296959707,4.27422321 C0.291025641,4.27765179 0.285091575,4.28100893 0.279377289,4.28465179 C0.271098901,4.28986607 0.263113553,4.29550893 0.255128205,4.30115179 C0.248461538,4.30586607 0.241794872,4.31058036 0.235347985,4.31558036 C0.228608059,4.32086607 0.222087912,4.3264375 0.215641026,4.33200893 C0.208608059,4.33800893 0.201648352,4.3439375 0.194981685,4.35029464 C0.189194139,4.35579464 0.183699634,4.36165179 0.178205128,4.36736607 C0.171611722,4.37422321 0.165018315,4.38100893 0.158717949,4.38822321 C0.153150183,4.39465179 0.147948718,4.40150893 0.142600733,4.40822321 C0.137179487,4.41508036 0.131758242,4.42179464 0.126630037,4.42900893 C0.120549451,4.43758036 0.115054945,4.44650893 0.109487179,4.4554375 C0.105897436,4.46122321 0.102087912,4.46686607 0.0986446886,4.47279464 C0.0920512821,4.48436607 0.0861904762,4.49629464 0.0804029304,4.50829464 C0.0787912088,4.51172321 0.0768131868,4.51479464 0.0752747253,4.51829464 C0.074981685,4.5189375 0.0748351648,4.51965179 0.0745421245,4.52022321 C0.0686813187,4.53336607 0.0636263736,4.54686607 0.0588644689,4.5604375 C0.0576190476,4.5639375 0.0560805861,4.56736607 0.0549084249,4.57086607 C0.0513186813,4.5819375 0.0484615385,4.59336607 0.0456043956,4.60472321 C0.043992674,4.61100893 0.042014652,4.61722321 0.0406227106,4.62358036 C0.0390842491,4.63058036 0.0382783883,4.63772321 0.037032967,4.64479464 C0.0351282051,4.65565179 0.0330769231,4.66650893 0.0319047619,4.6774375 C0.0314652015,4.68172321 0.0314652015,4.68600893 0.0310989011,4.69029464 C0.0299267399,4.70400893 0.029047619,4.71779464 0.028974359,4.73150893 C0.028974359,4.73229464 0.0289010989,4.73300893 0.0289010989,4.73386607 L0.0289010989,15.1929375 C0.0289010989,15.4018661 0.153443223,15.5917232 0.347948718,15.6792946 L9.7696337,19.9220089 C9.7696337,19.9220089 9.77095238,19.9224375 9.77153846,19.9227946 C9.77556777,19.9245089 9.77967033,19.9257946 9.78369963,19.9274375 C9.80201465,19.9350804 9.82040293,19.9417946 9.83908425,19.9473661 C9.8456044,19.9492946 9.8521978,19.9509375 9.85886447,19.9526518 C9.87666667,19.9572946 9.89446886,19.9610089 9.91234432,19.9638661 C9.91783883,19.9647232 9.92333333,19.9657946 9.9289011,19.9665089 C9.95249084,19.9695089 9.97615385,19.9715089 9.99967033,19.9715089 C10.0020147,19.9715089 10.0042857,19.9710804 10.00663,19.9710089 C10.0273626,19.9707946 10.0480952,19.9692946 10.0687546,19.9667232 C10.0763736,19.9657946 10.0838462,19.9643661 10.0913187,19.9631518 C10.1073626,19.9605089 10.1233333,19.9572232 10.1391575,19.9531518 C10.1465568,19.9512946 10.1538095,19.9494375 10.1610623,19.9472232 C10.1785714,19.9420089 10.1957143,19.9357946 10.2127839,19.9287946 C10.2175458,19.9268661 10.222381,19.9252946 10.2270696,19.9232232 C10.2281685,19.9227232 10.2293407,19.9224375 10.2303663,19.9219375 L19.6520513,15.6792232 C19.8465568,15.5916518 19.9710989,15.4017946 19.9710989,15.1928661 L19.9710989,4.73365179 C19.9710989,4.71058036 19.9691209,4.6879375 19.9661905,4.66565179 Z M10.5494139,18.5979375 L10.5494139,11.4046518 C10.5494139,11.1087232 10.3034799,10.8689375 9.99996337,10.8689375 C9.69644689,10.8689375 9.45051282,11.1087232 9.45051282,11.4046518 L9.45051282,18.5980089 L1.12772894,14.8501518 L1.12772894,5.55422321 L9.77893773,9.26108036 C9.84941392,9.29129464 9.92465201,9.30636607 10.0000366,9.30636607 C10.0754212,9.30636607 10.1506593,9.29129464 10.2211355,9.26108036 L18.8721978,5.55422321 L18.8721978,14.8500804 L10.5494139,18.5979375 Z" id="Shape" fill="#A22833" fill-rule="nonzero"></path>
    </g>
</svg>