<?xml version="1.0" encoding="UTF-8"?>
<svg width="32px" height="32px" viewBox="0 0 32 32" version="1.1" xmlns="http://www.w3.org/2000/svg" xmlns:xlink="http://www.w3.org/1999/xlink">
    <!-- Generator: Sketch 50 (54983) - http://www.bohemiancoding.com/sketch -->
    <title>pix_plugins/mod/object/icon</title>
    <desc>Created with Sketch.</desc>
    <defs></defs>
    <g id="pix_plugins/mod/object/icon" stroke="none" stroke-width="1" fill="none" fill-rule="evenodd">
        <g id="circle_background"></g>
        <path d="M25.9735531,10.6371429 C25.9728205,10.6316429 25.9718681,10.6262143 25.970989,10.6207857 C25.9676923,10.6005714 25.96337,10.5807143 25.9578022,10.5612857 C25.9569963,10.5582857 25.956337,10.5553571 25.9554579,10.5523571 C25.9485714,10.5299286 25.9402198,10.5080714 25.9304762,10.4869286 C25.9288645,10.4833571 25.9269597,10.4799286 25.9252747,10.4763571 C25.9164103,10.4580714 25.9065201,10.4403571 25.8956777,10.4232857 C25.8935531,10.4198571 25.8915018,10.4163571 25.889304,10.413 C25.87663,10.394 25.8627839,10.3758571 25.8477656,10.3586429 C25.8448352,10.3552857 25.841685,10.3521429 25.8386081,10.3487857 C25.8254212,10.3344286 25.8115018,10.3207857 25.7968498,10.3078571 C25.7931136,10.3045714 25.7895238,10.3011429 25.7857143,10.298 C25.7679121,10.2831429 25.7491575,10.2693571 25.7295238,10.2567857 C25.7264469,10.2548571 25.7232967,10.2531429 25.7202198,10.2512857 C25.7015385,10.2398571 25.6821245,10.2295714 25.6620513,10.2203571 C25.66,10.2194286 25.6581685,10.2181429 25.6561172,10.2172143 L16.234359,6.04792857 C16.0901099,5.984 15.9244689,5.984 15.7802198,6.04792857 L9.27018315,8.92885714 C8.99384615,9.05114286 8.87157509,9.36864286 8.99699634,9.63807143 C9.12234432,9.9075 9.44813187,10.0270714 9.7243956,9.90442857 L16.007326,7.124 L24.0818315,10.6972143 L16.007326,14.157 L6.80666667,10.2147143 C6.80600733,10.2144286 6.80534799,10.2142857 6.80468864,10.214 C6.79120879,10.2082857 6.77728938,10.2033571 6.7632967,10.1986429 C6.75978022,10.1974286 6.75626374,10.196 6.75274725,10.1948571 C6.74124542,10.1912857 6.72937729,10.1885 6.71758242,10.1856429 C6.71135531,10.1841429 6.70512821,10.1822857 6.69882784,10.181 C6.69128205,10.1794286 6.68351648,10.1785714 6.67582418,10.1772857 C6.66512821,10.1755714 6.65443223,10.1736429 6.64373626,10.1725 C6.63875458,10.172 6.63355311,10.1719286 6.62849817,10.1715714 C6.61509158,10.1705714 6.60175824,10.1697143 6.58842491,10.1696429 C6.58747253,10.1696429 6.58659341,10.1695 6.58564103,10.1695 C6.58043956,10.1695 6.57538462,10.1701429 6.57025641,10.1702857 C6.55838828,10.1705714 6.54652015,10.1709286 6.53479853,10.172 C6.52564103,10.1727857 6.5167033,10.1742143 6.50769231,10.1755 C6.49941392,10.1767143 6.49106227,10.1776429 6.4829304,10.1792143 C6.47172161,10.1812857 6.46080586,10.184 6.44981685,10.1866429 C6.44388278,10.1881429 6.43794872,10.1894286 6.43208791,10.1911429 C6.42021978,10.1945 6.40864469,10.1985 6.39714286,10.2025714 C6.39216117,10.2042857 6.38717949,10.2059286 6.38227106,10.2078571 C6.37091575,10.2122857 6.35985348,10.2172143 6.34886447,10.2223571 C6.34380952,10.2247857 6.33860806,10.227 6.33362637,10.2295714 C6.323663,10.2345714 6.31391941,10.2400714 6.30432234,10.2457143 C6.29838828,10.2491429 6.29245421,10.2525 6.28673993,10.2561429 C6.27846154,10.2613571 6.27047619,10.267 6.26249084,10.2726429 C6.25582418,10.2773571 6.24915751,10.2820714 6.24271062,10.2870714 C6.2359707,10.2923571 6.22945055,10.2979286 6.22300366,10.3035 C6.2159707,10.3095 6.20901099,10.3154286 6.20234432,10.3217857 C6.19655678,10.3272857 6.19106227,10.3331429 6.18556777,10.3388571 C6.17897436,10.3457143 6.17238095,10.3525 6.16608059,10.3597143 C6.16051282,10.3661429 6.15531136,10.373 6.14996337,10.3797143 C6.14454212,10.3865714 6.13912088,10.3932857 6.13399267,10.4005 C6.12791209,10.4090714 6.12241758,10.418 6.11684982,10.4269286 C6.11326007,10.4327143 6.10945055,10.4383571 6.10600733,10.4442857 C6.09941392,10.4558571 6.09355311,10.4677857 6.08776557,10.4797857 C6.08615385,10.4832143 6.08417582,10.4862857 6.08263736,10.4897857 C6.08234432,10.4904286 6.0821978,10.4911429 6.08190476,10.4917143 C6.07604396,10.5048571 6.07098901,10.5183571 6.06622711,10.5319286 C6.06498168,10.5354286 6.06344322,10.5388571 6.06227106,10.5423571 C6.05868132,10.5534286 6.05582418,10.5648571 6.05296703,10.5762143 C6.05135531,10.5825 6.04937729,10.5887143 6.04798535,10.5950714 C6.04644689,10.6020714 6.04564103,10.6092143 6.0443956,10.6162857 C6.04249084,10.6271429 6.04043956,10.638 6.0392674,10.6489286 C6.03882784,10.6532143 6.03882784,10.6575 6.03846154,10.6617857 C6.03728938,10.6755 6.03641026,10.6892857 6.036337,10.703 C6.036337,10.7037857 6.03626374,10.7045 6.03626374,10.7053571 L6.03626374,21.1644286 C6.03626374,21.3733571 6.16080586,21.5632143 6.35531136,21.6507857 L15.7769963,25.8935 C15.7769963,25.8935 15.778315,25.8939286 15.7789011,25.8942857 C15.7829304,25.896 15.787033,25.8972857 15.7910623,25.8989286 C15.8093773,25.9065714 15.8277656,25.9132857 15.8464469,25.9188571 C15.852967,25.9207857 15.8595604,25.9224286 15.8662271,25.9241429 C15.8840293,25.9287857 15.9018315,25.9325 15.919707,25.9353571 C15.9252015,25.9362143 15.930696,25.9372857 15.9362637,25.938 C15.9598535,25.941 15.9835165,25.943 16.007033,25.943 C16.0093773,25.943 16.0116484,25.9425714 16.0139927,25.9425 C16.0347253,25.9422857 16.0554579,25.9407857 16.0761172,25.9382143 C16.0837363,25.9372857 16.0912088,25.9358571 16.0986813,25.9346429 C16.1147253,25.932 16.130696,25.9287143 16.1465201,25.9246429 C16.1539194,25.9227857 16.1611722,25.9209286 16.1684249,25.9187143 C16.1859341,25.9135 16.2030769,25.9072857 16.2201465,25.9002857 C16.2249084,25.8983571 16.2297436,25.8967857 16.2344322,25.8947143 C16.2355311,25.8942143 16.2367033,25.8939286 16.2377289,25.8934286 L25.6594139,21.6507143 C25.8539194,21.5631429 25.9784615,21.3732857 25.9784615,21.1643571 L25.9784615,10.7051429 C25.9784615,10.6820714 25.9764835,10.6594286 25.9735531,10.6371429 Z M16.5567766,24.5694286 L16.5567766,17.3761429 C16.5567766,17.0802143 16.3108425,16.8404286 16.007326,16.8404286 C15.7038095,16.8404286 15.4578755,17.0802143 15.4578755,17.3761429 L15.4578755,24.5695 L7.13509158,20.8216429 L7.13509158,11.5257143 L15.7863004,15.2325714 C15.8567766,15.2627857 15.9320147,15.2778571 16.0073993,15.2778571 C16.0827839,15.2778571 16.158022,15.2627857 16.2284982,15.2325714 L24.8795604,11.5257143 L24.8795604,20.8215714 L16.5567766,24.5694286 Z" id="Shape" fill="#A22833" fill-rule="nonzero"></path>
    </g>
</svg>