<?xml version="1.0" encoding="UTF-8"?>
<svg width="32px" height="32px" viewBox="0 0 32 32" version="1.1" xmlns="http://www.w3.org/2000/svg" xmlns:xlink="http://www.w3.org/1999/xlink">
    <!-- Generator: Sketch 50 (54983) - http://www.bohemiancoding.com/sketch -->
    <title>pix_plugins/mod/mahara/icon</title>
    <desc>Created with Sketch.</desc>
    <defs></defs>
    <g id="pix_plugins/mod/mahara/icon" stroke="none" stroke-width="1" fill="none" fill-rule="evenodd">
        <g id="circle_background"></g>
        <path d="M19.6456338,10.0810857 C19.6456338,13.3044571 18.0704225,13.9937714 18.0704225,13.9937714 C18.0704225,13.9937714 21.891831,17.5346286 21.891831,21.8210286 C21.891831,25.3457714 19.9635493,27.9629714 16.2474366,27.9629714 C12.5313239,27.9629714 10.0387042,25.4611429 10.000507,21.8208571 C9.94997183,17.0116 13.9042254,13.9696 13.9042254,13.9696 L14.7220845,15.5061143 C14.7220845,15.5061143 13.744169,19.3978857 15.5827042,19.2504571 C17.1344225,19.1268571 15.1133521,15.9465143 15.1133521,15.9465143 C14.3701972,14.5514286 12.7096338,12.7593143 12.7096338,10.0798857 C12.7094648,6.91205714 15.8037746,4 16.1625915,4 C16.5214085,4 19.6456338,6.34342857 19.6456338,10.0810857 Z M17.0989296,12.7056571 C17.0989296,12.7056571 17.8429296,9.86954286 16.4823662,10.2561143 C15.7267042,10.4707429 16.4820282,11.7574857 16.4820282,11.7574857 L17.0989296,12.7056571 Z" id="Shape" fill="#A22833" fill-rule="nonzero"></path>
        <path d="M19.4789859,10.3024 C19.4789859,12.0773714 18.7875493,13.6617143 17.7687324,14.0488 C17.3341972,14.2138857 16.5716056,14.2744 16.5802254,14.0716 C16.5967887,13.6831429 17.0913239,14.2125143 17.6617465,13.7105714 C18.1317746,13.2970857 18.6602817,12.1670286 18.5428169,10.7061143 C18.3590986,8.42182857 16.9909296,7.52045714 16.767662,7.35742857 C16.5820845,7.222 16.3023662,7.20571429 16.2675493,6.84588571 C16.2112676,6.26285714 16.1468732,5.14137143 16.1468732,5.14137143 C16.1468732,5.14137143 16.1042817,4.53074286 16.5741408,4.83588571 C17.044,5.1412 19.4789859,6.78262857 19.4789859,10.3024 Z" id="Shape" fill="#A22833" fill-rule="nonzero"></path>
        <path d="M14.1033239,14.4667429 C14.1033239,14.4667429 14.1136338,14.5274286 14.3460282,14.7295429 L14.5623662,15.1303429 C14.5623662,15.1303429 14.6707042,15.2493143 14.6259155,15.3425714 C14.5070986,15.5904571 12.3912113,21.4425143 15.8161127,21.2097143 C15.8161127,21.2097143 16.4117183,21.1630857 16.7593803,20.6505143 C16.9299155,20.3986857 17.1371268,20.1441143 17.247831,20.6481143 C17.3717183,21.2133143 18.5651268,24.5880571 16.2844507,26.4974286 C14.476169,28.0118286 9.5188169,25.3768 14.1033239,14.4667429 Z" id="Shape" fill="#A22833" fill-rule="nonzero"></path>
        <path d="M15.2823662,16.2213143 C15.2823662,16.2213143 18.7790986,21.4742286 18.8270986,23.3462286 C18.8938592,25.9620571 16.9162254,27.2424571 15.5184789,27.4063429 C16.3128451,27.3130857 17.6529577,25.7757143 17.9259155,23.8888 C18.3438873,21.0004 15.2823662,16.2213143 15.2823662,16.2213143 Z" id="Shape" fill="#A22833" fill-rule="nonzero"></path>
    </g>
</svg>