<?xml version="1.0" encoding="UTF-8"?>
<svg width="20px" height="20px" viewBox="0 0 20 20" version="1.1" xmlns="http://www.w3.org/2000/svg" xmlns:xlink="http://www.w3.org/1999/xlink">
    <!-- Generator: Sketch 50 (54983) - http://www.bohemiancoding.com/sketch -->
    <title>pix_plugins/mod/mahara/icon</title>
    <desc>Created with Sketch.</desc>
    <defs></defs>
    <g id="pix_plugins/mod/mahara/icon" stroke="none" stroke-width="1" fill="none" fill-rule="evenodd">
        <g id="circle_background" transform="translate(-6.000000, -6.000000)"></g>
        <g id="Group" transform="translate(4.000000, 0.000000)" fill="#A22833" fill-rule="nonzero">
            <path d="M9.69970493,5.083 C9.69970493,7.76914286 8.12449366,8.34357143 8.12449366,8.34357143 C8.12449366,8.34357143 11.9459021,11.2942857 11.9459021,14.8662857 C11.9459021,17.8035714 10.0176204,19.9845714 6.30150775,19.9845714 C2.58539507,19.9845714 0.0927753535,17.8997143 0.0545781704,14.8661429 C0.0040429591,10.8584286 3.95829648,8.32342857 3.95829648,8.32342857 L4.77615564,9.60385714 C4.77615564,9.60385714 3.79824014,12.847 5.63677535,12.7241429 C7.18849366,12.6211429 5.16742324,9.97085714 5.16742324,9.97085714 C4.42426831,8.80828571 2.76370493,7.31485714 2.76370493,5.082 C2.76353592,2.44214286 5.85784578,0.0154285714 6.21666268,0.0154285714 C6.57547958,0.0154285714 9.69970493,1.96828571 9.69970493,5.083 Z M7.15300071,7.27014286 C7.15300071,7.27014286 7.89700071,4.90671429 6.53643733,5.22885714 C5.78077535,5.40771429 6.5360993,6.48 6.5360993,6.48 L7.15300071,7.27014286 Z" id="Shape"></path>
            <path d="M7.66655793,10.6893418 C7.66655793,12.1684847 6.97512131,13.4887704 5.95630441,13.8113418 C5.52176919,13.9489133 4.75917765,13.9993418 4.76779736,13.8303418 C4.78436074,13.5066276 5.27889596,13.9477704 5.84931849,13.5294847 C6.31934666,13.1849133 6.8478537,12.243199 6.73038891,11.0257704 C6.5466706,9.12219899 5.17850159,8.37105613 4.95523398,8.23519899 C4.76965652,8.12234184 4.48993821,8.10877042 4.45512131,7.80891327 C4.39883962,7.32305613 4.33444525,6.3884847 4.33444525,6.3884847 C4.33444525,6.3884847 4.2918537,5.87962756 4.76171286,6.13391327 C5.23157201,6.38834184 7.66655793,7.75619899 7.66655793,10.6893418 Z" id="Shape"></path>
            <path d="M5.16293846,4.82373208 C5.16293846,4.82373208 5.17324832,4.87430351 5.40564268,5.04273208 L5.62198071,5.37673208 C5.62198071,5.37673208 5.73031874,5.47587494 5.68553001,5.55358923 C5.5667131,5.76016065 3.45082578,10.6368749 6.87572719,10.4428749 C6.87572719,10.4428749 7.47133282,10.4040178 7.8189948,9.97687494 C7.98953001,9.7670178 8.19674127,9.55487494 8.3074455,9.97487494 C8.43133282,10.4458749 9.62474127,13.2581607 7.34406522,14.8493035 C5.53578353,16.1113035 0.578431415,13.9154464 5.16293846,4.82373208 Z" id="Shape"></path>
            <path d="M4.22681046,5.33957143 C4.22681046,5.33957143 7.72354286,9.717 7.77154286,11.277 C7.83830342,13.4568571 5.86066962,14.5238571 4.46292314,14.6604286 C5.25728934,14.5827143 6.59740201,13.3015714 6.87035976,11.7291429 C7.28833159,9.32214286 4.22681046,5.33957143 4.22681046,5.33957143 Z" id="Shape"></path>
        </g>
    </g>
</svg>