<?xml version="1.0" encoding="UTF-8"?>
<svg width="32px" height="32px" viewBox="0 0 32 32" version="1.1" xmlns="http://www.w3.org/2000/svg" xmlns:xlink="http://www.w3.org/1999/xlink">
    <!-- Generator: Sketch 50 (54983) - http://www.bohemiancoding.com/sketch -->
    <title>pix_core/help</title>
    <desc>Created with Sketch.</desc>
    <defs></defs>
    <g id="pix_core/help" stroke="none" stroke-width="1" fill="none" fill-rule="evenodd">
        <g id="circle_background"></g>
        <path d="M18.5357232,20.0312465 C18.5357232,19.7979873 18.3448747,19.6071388 18.1116155,19.6071388 L15.5669696,19.6071388 C15.3337104,19.6071388 15.142862,19.7979873 15.142862,20.0312465 L15.142862,22.5758924 C15.142862,22.8091516 15.3337104,23 15.5669696,23 L18.1116155,23 C18.3448747,23 18.5357232,22.8091516 18.5357232,22.5758924 L18.5357232,20.0312465 Z M21.8861736,13.6696317 C21.8861736,11.2416154 19.3415277,9.42855525 17.0725518,9.42855525 C14.9096028,9.42855525 13.2979937,10.3509894 12.1529031,12.2488711 C12.0362735,12.4397196 12.0786842,12.6729788 12.25893,12.8108137 L13.9977713,14.1361501 C14.0825929,14.1891636 14.1674144,14.2209717 14.2628386,14.2209717 C14.3794682,14.2209717 14.5067005,14.1573555 14.5915221,14.0513286 C15.2170808,13.2667295 15.4715454,13.0122649 15.72601,12.8320191 C15.9592692,12.6729788 16.3939796,12.5245411 16.8711007,12.5245411 C17.7299187,12.5245411 18.5039151,13.0546756 18.5039151,13.6484264 C18.5039151,14.3269986 18.164629,14.6768874 17.3482218,15.0479816 C16.4151849,15.4720892 15.142862,16.5747691 15.142862,17.8576948 L15.142862,18.3348159 C15.142862,18.5680751 15.2912997,18.9285666 15.5245589,18.9285666 L18.0692048,18.9285666 C18.3130667,18.9285666 18.4933124,18.6528966 18.4933124,18.4196374 C18.4933124,18.1121594 18.885612,17.3805737 19.5111708,17.0200822 C20.5184264,16.4581395 21.8861736,15.6841431 21.8861736,13.6696317 Z" id="help" fill="#A22833"></path>
    </g>
</svg>