<?xml version="1.0" encoding="UTF-8"?>
<svg width="20px" height="20px" viewBox="0 0 20 20" version="1.1" xmlns="http://www.w3.org/2000/svg" xmlns:xlink="http://www.w3.org/1999/xlink">
    <!-- Generator: Sketch 50 (54983) - http://www.bohemiancoding.com/sketch -->
    <title>pix_core/help</title>
    <desc>Created with Sketch.</desc>
    <defs></defs>
    <g id="pix_core/help" stroke="none" stroke-width="1" fill="none" fill-rule="evenodd">
        <g id="circle_background" transform="translate(-6.000000, -6.000000)"></g>
        <path d="M11.5488008,13.8169688 C11.5488008,13.5837096 11.3579524,13.3928612 11.1246932,13.3928612 L8.58004728,13.3928612 C8.34678807,13.3928612 8.15593963,13.5837096 8.15593963,13.8169688 L8.15593963,16.3616147 C8.15593963,16.5948739 8.34678807,16.7857224 8.58004728,16.7857224 L11.1246932,16.7857224 C11.3579524,16.7857224 11.5488008,16.5948739 11.5488008,16.3616147 L11.5488008,13.8169688 Z M14.8992512,7.45535411 C14.8992512,5.02733782 12.3546053,3.21427763 10.0856294,3.21427763 C7.92268042,3.21427763 6.31107136,4.13671176 5.16598071,6.03459349 C5.0493511,6.22544193 5.09176187,6.45870114 5.27200762,6.59653612 L7.01084898,7.92187252 C7.09567051,7.97488598 7.18049204,8.00669405 7.27591626,8.00669405 C7.39254586,8.00669405 7.51977816,7.94307791 7.60459969,7.83705099 C8.23015847,7.05245184 8.48462306,6.79798725 8.73908765,6.6177415 C8.97234685,6.45870114 9.40705719,6.31026346 9.8841783,6.31026346 C10.7429963,6.31026346 11.5169927,6.84039802 11.5169927,7.43414873 C11.5169927,8.11272096 11.1777066,8.46260977 10.3612994,8.83370397 C9.42826257,9.25781162 8.15593963,10.3604915 8.15593963,11.6434171 L8.15593963,12.1205382 C8.15593963,12.3537974 8.30437731,12.7142889 8.53763651,12.7142889 L11.0822824,12.7142889 C11.3261443,12.7142889 11.5063901,12.438619 11.5063901,12.2053598 C11.5063901,11.8978817 11.8986896,11.166296 12.5242484,10.8058045 C13.5315041,10.2438619 14.8992512,9.46986544 14.8992512,7.45535411 Z" id="help" fill="#A22833"></path>
    </g>
</svg>