<?xml version="1.0" encoding="UTF-8"?>
<svg width="32px" height="32px" viewBox="0 0 32 32" version="1.1" xmlns="http://www.w3.org/2000/svg" xmlns:xlink="http://www.w3.org/1999/xlink">
    <!-- Generator: Sketch 50 (54983) - http://www.bohemiancoding.com/sketch -->
    <title>pix_plugins/mod/nanogong/icon</title>
    <desc>Created with Sketch.</desc>
    <defs></defs>
    <g id="pix_plugins/mod/nanogong/icon" stroke="none" stroke-width="1" fill="none" fill-rule="evenodd">
        <g id="circle_background"></g>
        <path d="M22.6071574,14.1785609 L22.6071574,15.5357054 C22.6071574,18.674102 20.2321546,21.2611586 17.1785795,21.6004448 L17.1785795,23 L19.8928685,23 C20.2639627,23 20.5714407,23.307478 20.5714407,23.6785722 C20.5714407,24.0496664 20.2639627,24.3571445 19.8928685,24.3571445 L13.1071461,24.3571445 C12.7360519,24.3571445 12.4285739,24.0496664 12.4285739,23.6785722 C12.4285739,23.307478 12.7360519,23 13.1071461,23 L15.821435,23 L15.821435,21.6004448 C12.76786,21.2611586 10.3928571,18.674102 10.3928571,15.5357054 L10.3928571,14.1785609 C10.3928571,13.8074667 10.7003352,13.4999887 11.0714294,13.4999887 C11.4425236,13.4999887 11.7500016,13.8074667 11.7500016,14.1785609 L11.7500016,15.5357054 C11.7500016,18.1545701 13.8811426,20.2857111 16.5000073,20.2857111 C19.118872,20.2857111 21.2500129,18.1545701 21.2500129,15.5357054 L21.2500129,14.1785609 C21.2500129,13.8074667 21.557491,13.4999887 21.9285852,13.4999887 C22.2996794,13.4999887 22.6071574,13.8074667 22.6071574,14.1785609 Z M19.8928685,10.1071275 L19.8928685,15.5357054 C19.8928685,17.401779 18.3660809,18.9285666 16.5000073,18.9285666 C14.6339336,18.9285666 13.1071461,17.401779 13.1071461,15.5357054 L13.1071461,10.1071275 C13.1071461,8.24105383 14.6339336,6.7142663 16.5000073,6.7142663 C18.3660809,6.7142663 19.8928685,8.24105383 19.8928685,10.1071275 Z" id="nangong" fill="#A22833"></path>
    </g>
</svg>