<?xml version="1.0" encoding="UTF-8"?>
<svg width="20px" height="20px" viewBox="0 0 20 20" version="1.1" xmlns="http://www.w3.org/2000/svg" xmlns:xlink="http://www.w3.org/1999/xlink">
    <!-- Generator: Sketch 50 (54983) - http://www.bohemiancoding.com/sketch -->
    <title>pix_plugins/mod/nanogong/icon</title>
    <desc>Created with Sketch.</desc>
    <defs></defs>
    <g id="pix_plugins/mod/nanogong/icon" stroke="none" stroke-width="1" fill="none" fill-rule="evenodd">
        <g id="circle_background" transform="translate(-6.000000, -6.000000)"></g>
        <path d="M16.1071501,8.64285553 L16.1071501,10 C16.1071501,13.1383966 13.7321473,15.7254533 10.6785722,16.0647394 L10.6785722,17.4642946 L13.3928612,17.4642946 C13.7639554,17.4642946 14.0714334,17.7717727 14.0714334,18.1428668 C14.0714334,18.513961 13.7639554,18.8214391 13.3928612,18.8214391 L6.60713881,18.8214391 C6.23604462,18.8214391 5.92856658,18.513961 5.92856658,18.1428668 C5.92856658,17.7717727 6.23604462,17.4642946 6.60713881,17.4642946 L9.32142776,17.4642946 L9.32142776,16.0647394 C6.26785269,15.7254533 3.89284986,13.1383966 3.89284986,10 L3.89284986,8.64285553 C3.89284986,8.27176133 4.20032791,7.96428329 4.5714221,7.96428329 C4.94251629,7.96428329 5.24999434,8.27176133 5.24999434,8.64285553 L5.24999434,10 C5.24999434,12.6188647 7.38113527,14.7500057 10,14.7500057 C12.6188647,14.7500057 14.7500057,12.6188647 14.7500057,10 L14.7500057,8.64285553 C14.7500057,8.27176133 15.0574837,7.96428329 15.4285779,7.96428329 C15.7996721,7.96428329 16.1071501,8.27176133 16.1071501,8.64285553 Z M13.3928612,4.5714221 L13.3928612,10 C13.3928612,11.8660737 11.8660737,13.3928612 10,13.3928612 C8.13392635,13.3928612 6.60713881,11.8660737 6.60713881,10 L6.60713881,4.5714221 C6.60713881,2.70534845 8.13392635,1.17856091 10,1.17856091 C11.8660737,1.17856091 13.3928612,2.70534845 13.3928612,4.5714221 Z" id="nangong" fill="#A22833"></path>
    </g>
</svg>