<?xml version="1.0" encoding="UTF-8"?>
<svg width="32px" height="32px" viewBox="0 0 32 32" version="1.1" xmlns="http://www.w3.org/2000/svg" xmlns:xlink="http://www.w3.org/1999/xlink">
    <!-- Generator: Sketch 50 (54983) - http://www.bohemiancoding.com/sketch -->
    <title>pix_plugins/mod/scorm/icon</title>
    <desc>Created with Sketch.</desc>
    <defs></defs>
    <g id="pix_plugins/mod/scorm/icon" stroke="none" stroke-width="1" fill="none" fill-rule="evenodd">
        <g id="circle_background"></g>
        <path d="M25.9457143,12.7659184 L24.3326531,7.56612245 C24.212449,7.24428571 23.9293878,7 23.564898,7 L9.49714286,7 C9.13265306,7 8.85346939,7.24040816 8.72938776,7.56612245 L7.09693878,12.7038776 C7.03489796,12.8202041 7,12.9481633 7,13.0877551 L7,25.1430612 C7,25.585102 7.3644898,25.9495918 7.80653061,25.9495918 L25.2244898,25.9495918 C25.6277551,25.9495918 25.9922449,25.585102 25.9922449,25.1430612 L25.9922449,13.2932653 C26.0077551,13.2273469 25.9883673,12.89 25.9457143,12.7659184 Z M10.0593878,8.57428571 L22.96,8.57428571 L24.1155102,12.285102 L8.90387755,12.285102 L10.0593878,8.57428571 Z M24.4140816,24.3791837 L8.60918367,24.3791837 L8.60918367,13.8981633 L24.4140816,13.8981633 L24.4140816,24.3791837 L24.4140816,24.3791837 Z" id="Shape" fill="#A22833" fill-rule="nonzero"></path>
        <path d="M16.1083673,23.4337592 C16.6434694,23.9455959 17.1863265,23.6741673 17.3995918,23.4337592 L19.5361224,20.8551878 C19.8191837,20.490698 19.7377551,20.0098816 19.4159184,19.7268204 C19.0514286,19.4437592 18.5706122,19.5251878 18.287551,19.8470245 L17.5197959,20.7737592 L17.5197959,15.8143714 C17.5197959,15.3723306 17.1553061,15.0078408 16.7132653,15.0078408 C16.2712245,15.0078408 15.9067347,15.3723306 15.9067347,15.8143714 L15.9067347,20.6768204 L15.2204082,19.8470245 C14.9373469,19.4825347 14.4138776,19.4437592 14.0920408,19.7268204 C13.727551,20.0098816 13.6887755,20.533351 13.9718367,20.8551878 L16.1083673,23.4337592 Z" id="Shape" fill="#A22833" fill-rule="nonzero"></path>
    </g>
</svg>