<?xml version="1.0" encoding="UTF-8"?>
<svg width="20px" height="20px" viewBox="0 0 20 20" version="1.1" xmlns="http://www.w3.org/2000/svg" xmlns:xlink="http://www.w3.org/1999/xlink">
    <!-- Generator: Sketch 50 (54983) - http://www.bohemiancoding.com/sketch -->
    <title>pix_plugins/mod/scorm/icon</title>
    <desc>Created with Sketch.</desc>
    <defs></defs>
    <g id="pix_plugins/mod/scorm/icon" stroke="none" stroke-width="1" fill="none" fill-rule="evenodd">
        <g id="circle_background" transform="translate(-6.000000, -6.000000)"></g>
        <path d="M19.4469391,6.29112245 L17.8338779,1.09132653 C17.7136738,0.769489796 17.4306126,0.525204082 17.0661228,0.525204082 L2.99836771,0.525204082 C2.63387792,0.525204082 2.35469424,0.765612245 2.23061261,1.09132653 L0.598163631,6.22908163 C0.536122814,6.34540816 0.501224855,6.47336735 0.501224855,6.61295918 L0.501224855,18.6682653 C0.501224855,19.1103061 0.865714651,19.4747959 1.30775547,19.4747959 L18.7257147,19.4747959 C19.12898,19.4747959 19.4934698,19.1103061 19.4934698,18.6682653 L19.4934698,6.81846939 C19.50898,6.75255102 19.4895922,6.41520408 19.4469391,6.29112245 Z M3.56061261,2.0994898 L16.4612249,2.0994898 L17.6167351,5.81030612 L2.40510241,5.81030612 L3.56061261,2.0994898 Z M17.9153065,17.9043878 L2.11040853,17.9043878 L2.11040853,7.42336735 L17.9153065,7.42336735 L17.9153065,17.9043878 L17.9153065,17.9043878 Z" id="Shape" fill="#A22833" fill-rule="nonzero"></path>
        <path d="M9.36109973,14.0675845 C9.89620177,14.5794212 10.4390589,14.3079926 10.6523242,14.0675845 L12.7888548,11.4890131 C13.0719161,11.1245233 12.9904875,10.6437069 12.6686508,10.3606457 C12.304161,10.0775845 11.8233446,10.1590131 11.5402834,10.4808498 L10.7725283,11.4075845 L10.7725283,6.44819673 C10.7725283,6.00615591 10.4080385,5.64166611 9.96599769,5.64166611 C9.52395687,5.64166611 9.15946708,6.00615591 9.15946708,6.44819673 L9.15946708,11.3106457 L8.47314055,10.4808498 C8.19007932,10.11636 7.66660993,10.0775845 7.3447732,10.3606457 C6.9802834,10.6437069 6.94150789,11.1671763 7.22456912,11.4890131 L9.36109973,14.0675845 Z" id="Shape" fill="#A22833" fill-rule="nonzero"></path>
    </g>
</svg>