<?xml version="1.0" encoding="UTF-8"?>
<svg width="32px" height="32px" viewBox="0 0 32 32" version="1.1" xmlns="http://www.w3.org/2000/svg" xmlns:xlink="http://www.w3.org/1999/xlink">
    <!-- Generator: Sketch 50 (54983) - http://www.bohemiancoding.com/sketch -->
    <title>pix_core/t/switch_plus</title>
    <desc>Created with Sketch.</desc>
    <defs></defs>
    <g id="pix_core/t/switch_plus" stroke="none" stroke-width="1" fill="none" fill-rule="evenodd">
        <g id="circle_background"></g>
        <path d="M23.9643035,14.517847 C23.9643035,13.9559044 23.5083878,13.4999887 22.9464452,13.4999887 L18.5357256,13.4999887 L18.5357256,9.08926913 C18.5357256,8.5273265 18.0798099,8.07141078 17.5178673,8.07141078 L15.4821505,8.07141078 C14.9202079,8.07141078 14.4642922,8.5273265 14.4642922,9.08926913 L14.4642922,13.4999887 L10.0535726,13.4999887 C9.49163001,13.4999887 9.03571429,13.9559044 9.03571429,14.517847 L9.03571429,16.5535637 C9.03571429,17.1155064 9.49163001,17.5714221 10.0535726,17.5714221 L14.4642922,17.5714221 L14.4642922,21.9821416 C14.4642922,22.5440843 14.9202079,23 15.4821505,23 L17.5178673,23 C18.0798099,23 18.5357256,22.5440843 18.5357256,21.9821416 L18.5357256,17.5714221 L22.9464452,17.5714221 C23.5083878,17.5714221 23.9643035,17.1155064 23.9643035,16.5535637 L23.9643035,14.517847 Z" id="plus" fill="#A22833"></path>
    </g>
</svg>