<?xml version="1.0" encoding="UTF-8"?>
<svg width="20px" height="20px" viewBox="0 0 20 20" version="1.1" xmlns="http://www.w3.org/2000/svg" xmlns:xlink="http://www.w3.org/1999/xlink">
    <!-- Generator: Sketch 50 (54983) - http://www.bohemiancoding.com/sketch -->
    <title>pix_plugins/mod/feedback/icon</title>
    <desc>Created with Sketch.</desc>
    <defs></defs>
    <g id="pix_plugins/mod/feedback/icon" stroke="none" stroke-width="1" fill="none" fill-rule="evenodd">
        <g id="circle_background" transform="translate(-6.000000, -6.000000)"></g>
        <path d="M18.5528567,6.9947302 C19.344475,6.9947302 19.9799995,7.66211227 19.9799995,8.49341275 C19.9799995,9.32471323 19.344475,9.9920953 18.5528567,9.9920953 L18.5528567,14.4881429 C18.5528567,15.307735 17.9061826,15.9868255 17.1257139,15.9868255 C15.1410934,14.2539738 11.9411716,11.8771569 8.0722766,11.5376117 C6.74547976,12.00595 6.28834807,13.6334256 7.15801323,14.5701021 C6.3775445,15.9165748 7.3810043,16.8649598 8.56285695,17.8367618 C7.87158464,19.2651936 4.99499989,19.2886105 3.96924098,18.2933916 C3.32256689,16.2092862 2.3637053,14.1251808 3.14417404,11.4907778 L1.78392853,11.4907778 C0.802767839,11.4907778 0,10.6477689 0,9.61742466 L0,7.36940084 C0,6.33905658 0.802767839,5.49604765 1.78392853,5.49604765 L7.13571412,5.49604765 C11.4171426,5.49604765 14.9849997,2.87335319 17.1257139,1 C17.9061826,1 18.5528567,1.67909053 18.5528567,2.49868255 L18.5528567,6.9947302 Z M17.1257139,14.0666385 L17.1257139,2.8967701 C14.2156805,5.23846159 11.3948435,6.58493419 8.56285695,6.912771 L8.56285695,10.0740545 C11.3948435,10.4018913 14.2156805,11.724947 17.1257139,14.0666385 Z" id="" fill="#A22833"></path>
    </g>
</svg>