<?xml version="1.0" encoding="UTF-8"?>
<svg width="32px" height="32px" viewBox="0 0 32 32" version="1.1" xmlns="http://www.w3.org/2000/svg" xmlns:xlink="http://www.w3.org/1999/xlink">
    <!-- Generator: Sketch 50 (54983) - http://www.bohemiancoding.com/sketch -->
    <title>pix_plugins/mod/feedback/icon</title>
    <desc>Created with Sketch.</desc>
    <defs></defs>
    <g id="pix_plugins/mod/feedback/icon" stroke="none" stroke-width="1" fill="none" fill-rule="evenodd">
        <g id="circle_background"></g>
        <path d="M25.144867,12.562113 C25.9761675,12.562113 26.6435496,13.2294951 26.6435496,14.0607956 C26.6435496,14.892096 25.9761675,15.5594781 25.144867,15.5594781 L25.144867,20.0555258 C25.144867,20.8751178 24.4657765,21.5542083 23.6461845,21.5542083 C21.562079,19.8213566 18.2017518,17.4445398 14.138917,17.1049945 C12.7456106,17.5733328 12.2655638,19.2008084 13.1788235,20.137485 C12.3592315,21.4839576 13.4129927,22.4323426 14.6540892,23.4041446 C13.9281648,24.8325764 10.9073828,24.8559933 9.8302047,23.8607744 C9.15111417,21.776669 8.14418683,19.6925636 8.96377885,17.0581607 L7.53534705,17.0581607 C6.50500279,17.0581607 5.66199386,16.2151517 5.66199386,15.1848075 L5.66199386,12.9367836 C5.66199386,11.9064394 6.50500279,11.0634305 7.53534705,11.0634305 L13.1554066,11.0634305 C17.6514543,11.0634305 21.3981606,8.440736 23.6461845,6.56738281 C24.4657765,6.56738281 25.144867,7.24647334 25.144867,8.06606536 L25.144867,12.562113 Z M23.6461845,19.6340213 L23.6461845,8.46415291 C20.5902771,10.8058444 17.6280373,12.152317 14.6540892,12.4801538 L14.6540892,15.6414373 C17.6280373,15.9692741 20.5902771,17.2923298 23.6461845,19.6340213 Z" id="" fill="#A22833"></path>
    </g>
</svg>