<?xml version="1.0" encoding="UTF-8"?>
<svg width="100px" height="100px" viewBox="0 0 100 100" version="1.1" xmlns="http://www.w3.org/2000/svg" xmlns:xlink="http://www.w3.org/1999/xlink">
    <!-- Generator: Sketch 50 (54983) - http://www.bohemiancoding.com/sketch -->
    <title>pix_core/u/f1</title>
    <desc>Created with Sketch.</desc>
    <defs></defs>
    <g id="pix_core/u/f1" stroke="none" stroke-width="1" fill="none" fill-rule="evenodd">
        <g id="circle_background"></g>
        <path d="M66.9141184,45.6250365 C72.4219375,47.2266009 80.0000715,52.6562949 80.0000715,70.4297536 C80.0000715,78.4766382 74.0235019,85.0000834 66.6797431,85.0000834 L33.3203284,85.0000834 C25.9765696,85.0000834 20,78.4766382 20,70.4297536 C20,52.6562949 27.578134,47.2266009 33.0859531,45.6250365 C31.1328258,42.5390953 30.0000119,38.9062785 30.0000119,35.0000238 C30.0000119,23.9843857 38.9843976,15 50.0000358,15 C61.0156739,15 70.0000596,23.9843857 70.0000596,35.0000238 C70.0000596,38.9062785 68.8672458,42.5390953 66.9141184,45.6250365 Z M50.0000358,20.000006 C41.7187759,20.000006 35.0000179,26.718764 35.0000179,35.0000238 C35.0000179,43.2812837 41.7187759,50.0000417 50.0000358,50.0000417 C58.2812956,50.0000417 65.0000536,43.2812837 65.0000536,35.0000238 C65.0000536,26.718764 58.2812956,20.000006 50.0000358,20.000006 Z M66.6797431,80.0000775 C71.2500611,80.0000775 75.0000656,75.7422599 75.0000656,70.4297536 C75.0000656,58.1250514 70.8594356,50.4297297 63.1250514,50.0391043 C59.6094222,53.1250454 55.0391043,55.0000477 50.0000358,55.0000477 C44.9609673,55.0000477 40.3906493,53.1250454 36.8750201,50.0391043 C29.1406359,50.4297297 25.000006,58.1250514 25.000006,70.4297536 C25.000006,75.7422599 28.7500104,80.0000775 33.3203284,80.0000775 L66.6797431,80.0000775 Z" id="user" fill="#A22833"></path>
    </g>
</svg>