<?xml version="1.0" encoding="UTF-8"?>
<svg width="32px" height="32px" viewBox="0 0 32 32" version="1.1" xmlns="http://www.w3.org/2000/svg" xmlns:xlink="http://www.w3.org/1999/xlink">
    <!-- Generator: Sketch 50 (54983) - http://www.bohemiancoding.com/sketch -->
    <title>pix_core/u/f2</title>
    <desc>Created with Sketch.</desc>
    <defs></defs>
    <g id="pix_core/u/f2" stroke="none" stroke-width="1" fill="none" fill-rule="evenodd">
        <g id="circle_background"></g>
        <path d="M21.090975,15.0267762 C22.5859545,15.4614865 24.6428766,16.9352606 24.6428766,21.7594851 C24.6428766,23.9436395 23.0206648,25.7142889 21.0273589,25.7142889 L11.9726606,25.7142889 C9.97935461,25.7142889 8.35714286,23.9436395 8.35714286,21.7594851 C8.35714286,16.9352606 10.414065,15.4614865 11.9090444,15.0267762 C11.3789099,14.1891636 11.0714318,13.2031133 11.0714318,12.1428442 C11.0714318,9.15288528 13.5100508,6.7142663 16.5000097,6.7142663 C19.4899686,6.7142663 21.9285876,9.15288528 21.9285876,12.1428442 C21.9285876,13.2031133 21.6211096,14.1891636 21.090975,15.0267762 Z M16.5000097,8.07141078 C14.2522392,8.07141078 12.4285763,9.89507366 12.4285763,12.1428442 C12.4285763,14.3906147 14.2522392,16.2142776 16.5000097,16.2142776 C18.7477802,16.2142776 20.5714431,14.3906147 20.5714431,12.1428442 C20.5714431,9.89507366 18.7477802,8.07141078 16.5000097,8.07141078 Z M21.0273589,24.3571445 C22.2678737,24.3571445 23.2857321,23.2014511 23.2857321,21.7594851 C23.2857321,18.4196374 22.1618468,16.3309072 20.062514,16.2248803 C19.1082717,17.0624929 17.8677569,17.5714221 16.5000097,17.5714221 C15.1322625,17.5714221 13.8917477,17.0624929 12.9375055,16.2248803 C10.8381726,16.3309072 9.71428733,18.4196374 9.71428733,21.7594851 C9.71428733,23.2014511 10.7321457,24.3571445 11.9726606,24.3571445 L21.0273589,24.3571445 Z" id="user" fill="#A22833"></path>
    </g>
</svg>