<?xml version="1.0" encoding="UTF-8"?>
<svg width="20px" height="20px" viewBox="0 0 20 20" version="1.1" xmlns="http://www.w3.org/2000/svg" xmlns:xlink="http://www.w3.org/1999/xlink">
    <!-- Generator: Sketch 50 (54983) - http://www.bohemiancoding.com/sketch -->
    <title>pix_core/u/f2</title>
    <desc>Created with Sketch.</desc>
    <defs></defs>
    <g id="pix_core/u/f2" stroke="none" stroke-width="1" fill="none" fill-rule="evenodd">
        <g id="circle_background" transform="translate(-6.000000, -6.000000)"></g>
        <path d="M14.5909653,8.81249858 C16.0859448,9.24720892 18.1428668,10.720983 18.1428668,15.5452075 C18.1428668,17.7293619 16.5206551,19.5000113 14.5273491,19.5000113 L5.47265085,19.5000113 C3.47934491,19.5000113 1.85713315,17.7293619 1.85713315,15.5452075 C1.85713315,10.720983 3.91405524,9.24720892 5.40903471,8.81249858 C4.87890015,7.97488598 4.5714221,6.9888357 4.5714221,5.92856658 C4.5714221,2.93860765 7.01004108,0.499988675 10,0.499988675 C12.9899589,0.499988675 15.4285779,2.93860765 15.4285779,5.92856658 C15.4285779,6.9888357 15.1210999,7.97488598 14.5909653,8.81249858 Z M10,1.85713315 C7.75222946,1.85713315 5.92856658,3.68079604 5.92856658,5.92856658 C5.92856658,8.17633711 7.75222946,10 10,10 C12.2477705,10 14.0714334,8.17633711 14.0714334,5.92856658 C14.0714334,3.68079604 12.2477705,1.85713315 10,1.85713315 Z M14.5273491,18.1428668 C15.767864,18.1428668 16.7857224,16.9871735 16.7857224,15.5452075 C16.7857224,12.2053598 15.6618371,10.1166296 13.5625042,10.0106027 C12.608262,10.8482153 11.3677472,11.3571445 10,11.3571445 C8.63225283,11.3571445 7.39173796,10.8482153 6.43749575,10.0106027 C4.33816289,10.1166296 3.21427763,12.2053598 3.21427763,15.5452075 C3.21427763,16.9871735 4.23213598,18.1428668 5.47265085,18.1428668 L14.5273491,18.1428668 Z" id="user" fill="#A22833"></path>
    </g>
</svg>