<?xml version="1.0" encoding="UTF-8"?>
<svg width="100px" height="100px" viewBox="0 0 100 100" version="1.1" xmlns="http://www.w3.org/2000/svg" xmlns:xlink="http://www.w3.org/1999/xlink">
    <!-- Generator: Sketch 50 (54983) - http://www.bohemiancoding.com/sketch -->
    <title>pix_core/u/user100</title>
    <desc>Created with Sketch.</desc>
    <defs></defs>
    <g id="pix_core/u/user100" stroke="none" stroke-width="1" fill="none" fill-rule="evenodd">
        <g id="circle_background"></g>
        <path d="M66.9141184,45.624965 C72.4219375,47.2265294 80.0000715,52.6562234 80.0000715,70.4296821 C80.0000715,78.4765666 74.0235019,85.0000119 66.6797431,85.0000119 L33.3203284,85.0000119 C25.9765696,85.0000119 20,78.4765666 20,70.4296821 C20,52.6562234 27.578134,47.2265294 33.0859531,45.624965 C31.1328258,42.5390238 30.0000119,38.906207 30.0000119,34.9999523 C30.0000119,23.9843142 38.9843976,14.9999285 50.0000358,14.9999285 C61.0156739,14.9999285 70.0000596,23.9843142 70.0000596,34.9999523 C70.0000596,38.906207 68.8672458,42.5390238 66.9141184,45.624965 Z M50.0000358,19.9999344 C41.7187759,19.9999344 35.0000179,26.7186924 35.0000179,34.9999523 C35.0000179,43.2812122 41.7187759,49.9999702 50.0000358,49.9999702 C58.2812956,49.9999702 65.0000536,43.2812122 65.0000536,34.9999523 C65.0000536,26.7186924 58.2812956,19.9999344 50.0000358,19.9999344 Z M66.6797431,80.000006 C71.2500611,80.000006 75.0000656,75.7421884 75.0000656,70.4296821 C75.0000656,58.1249799 70.8594356,50.4296582 63.1250514,50.0390327 C59.6094222,53.1249739 55.0391043,54.9999762 50.0000358,54.9999762 C44.9609673,54.9999762 40.3906493,53.1249739 36.8750201,50.0390327 C29.1406359,50.4296582 25.000006,58.1249799 25.000006,70.4296821 C25.000006,75.7421884 28.7500104,80.000006 33.3203284,80.000006 L66.6797431,80.000006 Z" id="user" fill="#A22833"></path>
    </g>
</svg>