<?xml version="1.0" encoding="UTF-8"?>
<svg width="20px" height="20px" viewBox="0 0 20 20" version="1.1" xmlns="http://www.w3.org/2000/svg" xmlns:xlink="http://www.w3.org/1999/xlink">
    <!-- Generator: Sketch 50 (54983) - http://www.bohemiancoding.com/sketch -->
    <title>pix_plugins/mod/exercise/icon</title>
    <desc>Created with Sketch.</desc>
    <defs></defs>
    <g id="pix_plugins/mod/exercise/icon" stroke="none" stroke-width="1" fill="none" fill-rule="evenodd">
        <g id="circle_background" transform="translate(-6.000000, -6.000000)"></g>
        <path d="M4.5714221,15.4285779 C4.5714221,14.3046926 3.65959066,13.3928612 2.53570539,13.3928612 C1.41182012,13.3928612 0.499988675,14.3046926 0.499988675,15.4285779 C0.499988675,16.5524632 1.41182012,17.4642946 2.53570539,17.4642946 C3.65959066,17.4642946 4.5714221,16.5524632 4.5714221,15.4285779 Z M4.5714221,10 C4.5714221,8.87611473 3.65959066,7.96428329 2.53570539,7.96428329 C1.41182012,7.96428329 0.499988675,8.87611473 0.499988675,10 C0.499988675,11.1238853 1.41182012,12.0357167 2.53570539,12.0357167 C3.65959066,12.0357167 4.5714221,11.1238853 4.5714221,10 Z M19.5000113,14.4107195 C19.5000113,14.2304738 19.340971,14.0714334 19.1607252,14.0714334 L6.26785269,14.0714334 C6.08760694,14.0714334 5.92856658,14.2304738 5.92856658,14.4107195 L5.92856658,16.4464363 C5.92856658,16.626682 6.08760694,16.7857224 6.26785269,16.7857224 L19.1607252,16.7857224 C19.340971,16.7857224 19.5000113,16.626682 19.5000113,16.4464363 L19.5000113,14.4107195 Z M4.5714221,4.5714221 C4.5714221,3.44753683 3.65959066,2.53570539 2.53570539,2.53570539 C1.41182012,2.53570539 0.499988675,3.44753683 0.499988675,4.5714221 C0.499988675,5.69530737 1.41182012,6.60713881 2.53570539,6.60713881 C3.65959066,6.60713881 4.5714221,5.69530737 4.5714221,4.5714221 Z M19.5000113,8.98214164 C19.5000113,8.80189589 19.340971,8.64285553 19.1607252,8.64285553 L6.26785269,8.64285553 C6.08760694,8.64285553 5.92856658,8.80189589 5.92856658,8.98214164 L5.92856658,11.0178584 C5.92856658,11.1981041 6.08760694,11.3571445 6.26785269,11.3571445 L19.1607252,11.3571445 C19.340971,11.3571445 19.5000113,11.1981041 19.5000113,11.0178584 L19.5000113,8.98214164 Z M19.5000113,3.55356374 C19.5000113,3.37331799 19.340971,3.21427763 19.1607252,3.21427763 L6.26785269,3.21427763 C6.08760694,3.21427763 5.92856658,3.37331799 5.92856658,3.55356374 L5.92856658,5.58928046 C5.92856658,5.76952621 6.08760694,5.92856658 6.26785269,5.92856658 L19.1607252,5.92856658 C19.340971,5.92856658 19.5000113,5.76952621 19.5000113,5.58928046 L19.5000113,3.55356374 Z" id="exercise" fill="#A22833"></path>
    </g>
</svg>