<?xml version="1.0" encoding="UTF-8"?>
<svg width="32px" height="32px" viewBox="0 0 32 32" version="1.1" xmlns="http://www.w3.org/2000/svg" xmlns:xlink="http://www.w3.org/1999/xlink">
    <!-- Generator: Sketch 50 (54983) - http://www.bohemiancoding.com/sketch -->
    <title>pix_plugins/mod/exercise/icon</title>
    <desc>Created with Sketch.</desc>
    <defs></defs>
    <g id="pix_plugins/mod/exercise/icon" stroke="none" stroke-width="1" fill="none" fill-rule="evenodd">
        <g id="circle_background"></g>
        <path d="M10.0714334,21.8928725 C10.0714334,20.7689872 9.15960198,19.8571558 8.03571671,19.8571558 C6.91183144,19.8571558 6,20.7689872 6,21.8928725 C6,23.0167578 6.91183144,23.9285892 8.03571671,23.9285892 C9.15960198,23.9285892 10.0714334,23.0167578 10.0714334,21.8928725 Z M10.0714334,16.4642946 C10.0714334,15.3404093 9.15960198,14.4285779 8.03571671,14.4285779 C6.91183144,14.4285779 6,15.3404093 6,16.4642946 C6,17.5881799 6.91183144,18.5000113 8.03571671,18.5000113 C9.15960198,18.5000113 10.0714334,17.5881799 10.0714334,16.4642946 Z M25.0000226,20.8750142 C25.0000226,20.6947684 24.8409823,20.535728 24.6607365,20.535728 L11.767864,20.535728 C11.5876183,20.535728 11.4285779,20.6947684 11.4285779,20.8750142 L11.4285779,22.9107309 C11.4285779,23.0909766 11.5876183,23.250017 11.767864,23.250017 L24.6607365,23.250017 C24.8409823,23.250017 25.0000226,23.0909766 25.0000226,22.9107309 L25.0000226,20.8750142 Z M10.0714334,11.0357167 C10.0714334,9.91183144 9.15960198,9 8.03571671,9 C6.91183144,9 6,9.91183144 6,11.0357167 C6,12.159602 6.91183144,13.0714334 8.03571671,13.0714334 C9.15960198,13.0714334 10.0714334,12.159602 10.0714334,11.0357167 Z M25.0000226,15.4464363 C25.0000226,15.2661905 24.8409823,15.1071501 24.6607365,15.1071501 L11.767864,15.1071501 C11.5876183,15.1071501 11.4285779,15.2661905 11.4285779,15.4464363 L11.4285779,17.482153 C11.4285779,17.6623987 11.5876183,17.8214391 11.767864,17.8214391 L24.6607365,17.8214391 C24.8409823,17.8214391 25.0000226,17.6623987 25.0000226,17.482153 L25.0000226,15.4464363 Z M25.0000226,10.0178584 C25.0000226,9.83761261 24.8409823,9.67857224 24.6607365,9.67857224 L11.767864,9.67857224 C11.5876183,9.67857224 11.4285779,9.83761261 11.4285779,10.0178584 L11.4285779,12.0535751 C11.4285779,12.2338208 11.5876183,12.3928612 11.767864,12.3928612 L24.6607365,12.3928612 C24.8409823,12.3928612 25.0000226,12.2338208 25.0000226,12.0535751 L25.0000226,10.0178584 Z" id="exercise" fill="#A22833"></path>
    </g>
</svg>