<svg width="1004" height="471" viewBox="0 0 1004 471" xmlns="http://www.w3.org/2000/svg"><g fill="none"><path d="M574.7 316.9c1.6-2.3 3.2-4.6 4.8-6.7 1.5-2.2 2.9-4.2 4.2-6.1 1.3-1.9 2.4-3.5 3.2-4.8.7.2 1.3.3 1.8.3s1-.1 1.7-.3c-.1 2.3-.2 4.8-.3 7.7-.1 2.8-.1 5.8-.1 8.8v5.7c1 0 1.9 0 2.8-.1.9-.1 1.6-.2 2.2-.3-.2.7-.3 1.3-.3 1.7 0 .4.1 1 .3 1.7-.6-.1-1.3-.2-2.2-.2-.9 0-1.8-.1-2.8-.1v2.2c0 1.4 0 2.7.1 4.2.1 1.4.1 2.5.2 3.4-.7-.1-1.4-.1-2.3-.1-.8 0-1.6 0-2.3.1.1-.9.2-2 .3-3.5.1-1.4.2-2.8.2-4.1v-2.2h-3.4c-1.5 0-3.1 0-4.7.1-1.6 0-3.2.1-4.7.1-1.5.1-2.6.1-3.3.1v-.9c1.4-2.2 3-4.4 4.6-6.7m11.3-12.8c-.7 1-1.6 2.3-2.7 3.8-1.1 1.6-2.2 3.2-3.4 4.9-1.2 1.7-2.3 3.3-3.3 4.8-1 1.6-1.9 2.8-2.5 3.8h12.1V304h-.2v.1zm-39.9 28.3c.9.4 1.8.6 2.7.6 1.9 0 3.5-.5 4.8-1.6 1.3-1 2.4-2.4 3.2-4.1.8-1.7 1.4-3.5 1.8-5.6.4-2.1.6-4.1.6-6.2h-.1c-.8 1.5-1.9 2.6-3.2 3.5-1.4.9-3.1 1.3-5.2 1.3-3.1 0-5.6-.9-7.4-2.7-1.8-1.8-2.7-4.3-2.7-7.6 0-1.6.3-3.1.8-4.4.5-1.3 1.3-2.5 2.3-3.5 1-1 2.2-1.7 3.6-2.3 1.4-.6 3-.9 4.8-.9 1.5 0 3 .3 4.4.8 1.4.5 2.6 1.4 3.7 2.6 1.1 1.2 1.9 2.7 2.5 4.6.6 1.9 1 4.2 1 6.9 0 2.9-.3 5.6-1 8.1s-1.7 4.7-3 6.6c-1.3 1.9-2.9 3.3-4.8 4.3s-4 1.6-6.4 1.6c-.9 0-1.7-.1-2.4-.2-.7-.2-1.3-.3-1.7-.4-.1-.4-.2-.8-.4-1.4-.2-.6-.4-1-.6-1.4l.3-.1c.8.6 1.6 1.1 2.4 1.5m11.1-29.5c-1.3-1.5-2.9-2.2-5-2.2s-3.7.8-5 2.5c-1.3 1.7-1.9 4-1.9 6.9 0 3 .6 5.1 1.7 6.4 1.1 1.3 2.7 1.9 4.6 1.9 1.2 0 2.3-.3 3.2-.8.9-.5 1.7-1.3 2.3-2.2.6-.9 1.1-1.9 1.4-3.1.3-1.2.5-2.4.5-3.6.1-2.3-.5-4.3-1.8-5.8m-44.3 15.8c1.2-1.8 3.1-3.1 5.8-4v-.4c-.7-.1-1.3-.4-2-.8s-1.3-.9-1.8-1.5c-.6-.6-1-1.3-1.3-2.1-.4-.8-.5-1.7-.5-2.7 0-1.1.2-2.1.7-3.1.5-1 1.1-1.8 2-2.6.8-.8 1.9-1.4 3.1-1.8 1.2-.4 2.5-.7 4-.7 1.7 0 3.2.2 4.4.7 1.2.4 2.3 1 3 1.7.8.7 1.4 1.5 1.8 2.4.4.9.6 1.9.6 2.9 0 1.7-.5 3.2-1.5 4.6-1 1.4-2.4 2.4-4.3 3v.4c.6.1 1.3.3 2.2.6.9.3 1.7.8 2.5 1.5s1.4 1.5 2 2.6c.5 1.1.8 2.4.8 4 0 1.7-.3 3.3-.9 4.6-.6 1.4-1.4 2.6-2.5 3.5-1.1 1-2.3 1.7-3.7 2.2-1.4.5-2.9.7-4.5.7s-3.1-.2-4.6-.6c-1.4-.4-2.6-1-3.7-1.9-1-.9-1.8-1.9-2.4-3.1-.6-1.2-.9-2.7-.9-4.3 0-2.1.6-4 1.7-5.8m15.2-13.9c-.2-.8-.5-1.5-1-2.1-.5-.6-1-1.1-1.7-1.5-.7-.4-1.5-.5-2.5-.5s-1.8.2-2.5.5c-.7.4-1.3.8-1.7 1.5-.5.6-.8 1.3-1 2.1-.2.8-.3 1.6-.3 2.5 0 .9.1 1.7.3 2.5.2.8.5 1.5 1 2.1.4.6 1 1.1 1.7 1.5.7.4 1.5.5 2.5.5s1.8-.2 2.5-.5c.7-.4 1.3-.9 1.7-1.5.5-.6.8-1.3 1-2.1.2-.8.3-1.7.3-2.5 0-.9-.1-1.7-.3-2.5m1.1 16c-.3-1-.8-2-1.4-2.7-.6-.8-1.3-1.4-2.2-1.8-.9-.4-1.8-.6-2.9-.6-1.1 0-2 .2-2.9.6-.9.4-1.6 1-2.2 1.8-.6.8-1.1 1.7-1.4 2.7-.3 1.1-.5 2.2-.5 3.5 0 1.3.2 2.4.5 3.5s.8 2 1.4 2.7c.6.8 1.3 1.4 2.2 1.8.9.4 1.8.7 2.9.7 1.1 0 2-.2 2.9-.7.9-.4 1.6-1 2.2-1.8.6-.8 1.1-1.7 1.4-2.7.3-1.1.5-2.2.5-3.5 0-1.3-.1-2.5-.5-3.5m-39.6-15.1c-.4-.7-.9-1.2-1.6-1.6v-.4c2-.8 4-1.7 6-2.6 2-.9 4-1.9 5.8-2.8l.4.3c-.1 2.3-.2 4.5-.3 6.8-.1 2.2-.1 4.5-.1 6.8v8.6c0 2.3 0 4.5.1 6.7s.2 4.3.3 6.4c-.4-.1-.8-.1-1.2-.1h-2.4c-.4 0-.8 0-1.2.1.2-2.1.3-4.3.3-6.5.1-2.2.1-4.4.1-6.7v-18.4l-6.2 3.4zm-35.4-4.7h-2.8c-1 0-2 0-2.9.1-1 0-1.9.1-2.8.2-.9.1-1.7.2-2.5.3.2-.6.3-1.2.3-1.7 0-.4-.1-.9-.3-1.6 2.3.1 4.5.1 6.7.2 2.2 0 4.4.1 6.7.1s4.5 0 6.7-.1 4.4-.1 6.7-.2c-.2.7-.3 1.2-.3 1.7 0 .4.1 1 .3 1.6-.7-.1-1.5-.2-2.5-.3-.9-.1-1.9-.1-2.8-.2-1-.1-2-.1-2.9-.1H459c-.1 3.5-.2 7.1-.2 10.7v8.9c0 2.3.1 4.5.1 6.7.1 2.2.2 4.4.3 6.5-.8-.1-1.6-.1-2.5-.1-.9 0-1.7 0-2.5.1.1-2.1.2-4.3.3-6.5.1-2.2.1-4.4.1-6.7v-8.9c-.2-3.6-.3-7.1-.4-10.7m-35 28c.5.6 1 1.2 1.7 1.7s1.5.9 2.4 1.3c.9.3 1.9.5 3 .5s2.2-.2 3.1-.6c.9-.4 1.7-.9 2.3-1.6.6-.7 1.1-1.5 1.5-2.4.3-.9.5-1.9.5-2.9 0-1.6-.4-2.8-1.2-3.8-.8-.9-1.8-1.7-3-2.3-1.2-.6-2.5-1.2-3.9-1.7s-2.7-1.2-3.9-1.9c-1.2-.8-2.2-1.8-3-3-.8-1.2-1.2-2.8-1.2-4.9 0-1.5.3-2.8.8-4 .5-1.2 1.3-2.2 2.3-3.1 1-.9 2.2-1.5 3.5-2 1.4-.5 2.9-.7 4.7-.7 1.6 0 3.1.2 4.3.6 1.2.4 2.3 1 3.4 1.8-.3.6-.6 1.2-.8 1.9-.2.7-.4 1.5-.6 2.5h-.6c-.2-.5-.4-1-.7-1.6-.3-.6-.7-1.1-1.2-1.6s-1.1-.9-1.8-1.2c-.7-.3-1.5-.5-2.5-.5s-1.8.1-2.7.5c-.8.3-1.5.8-2.1 1.3-.6.6-1.1 1.3-1.4 2.1-.3.8-.5 1.7-.5 2.6 0 1.6.4 2.9 1.2 3.8.8.9 1.8 1.7 3 2.4 1.2.6 2.5 1.2 3.9 1.7s2.7 1.1 3.9 1.8c1.2.7 2.2 1.7 3 2.8.8 1.1 1.2 2.6 1.2 4.5 0 1.6-.3 3.1-.9 4.5-.6 1.4-1.4 2.6-2.5 3.7s-2.4 1.9-4 2.4c-1.6.6-3.4.9-5.4.9-2.1 0-3.9-.3-5.2-.9-1.3-.6-2.4-1.2-3.3-1.9.3-.8.5-1.5.6-2.1.1-.6.2-1.5.3-2.5h.6c.3.7.7 1.3 1.2 1.9M391 305l-.3-6.6c1.6.1 3.1.1 4.6.2 1.5 0 3.1.1 4.6.1 1.5 0 3.1 0 4.6-.1 1.5-.1 3-.1 4.6-.2-.1.5-.2 1-.2 1.6 0 .5.1 1 .2 1.6-1.1-.1-2.1-.1-3-.2-.9-.1-1.9-.1-2.9-.2s-2.1-.1-3.3-.2c-1.2 0-2.7-.1-4.3-.1 0 1.1-.1 2.1-.1 3.2 0 1-.1 2.1-.1 3.4v6.8c1.5 0 2.9 0 4.1-.1 1.2 0 2.3-.1 3.3-.1 1-.1 1.9-.1 2.8-.1.8-.1 1.6-.1 2.4-.2-.1.5-.2 1.1-.2 1.6s.1 1 .2 1.6c-.9-.1-1.9-.2-3.1-.3-1.2-.1-2.4-.1-3.6-.1h-5.9V329c0 1.3 0 2.3.1 2.9h3.6c1.3 0 2.6 0 3.9-.1 1.3 0 2.4-.1 3.6-.2 1.1-.1 2.1-.2 2.9-.4-.1.2-.1.5-.1.8v.8c0 .5.1 1 .1 1.3-1.5-.1-3.1-.1-4.6-.1h-9.4c-1.6 0-3.1 0-4.7.1l.3-6.6c.1-2.2.1-4.4.1-6.7v-8.9c-.1-2.5-.1-4.7-.2-6.9" fill="#D61726"/><path d="M367.8 319.8H240.3c-1.1 0-2-.9-2-2s.9-2 2-2h127.6c1.1 0 2 .9 2 2s-1 2-2.1 2zm377.6.1H617.8c-1.1 0-2-.9-2-2s.9-2 2-2h127.6c1.1 0 2 .9 2 2s-.9 2-2 2zM745.8 4H239.9c-1.1 0-2-.9-2-2s.9-2 2-2h505.9c1.1 0 2 .9 2 2s-.9 2-2 2z" fill="#E30613"/><path d="M368.8 59.1h-2.2c-.7-1.3-1.8-3.1-3.3-5.5-1.5-2.3-3.7-4.6-6.8-6.8-3.1-2.2-7.1-4.1-12.2-5.8-5.1-1.7-11.6-2.5-19.4-2.5-18.3 0-32.2 5.7-41.7 17S269 82.9 269 103.7c0 1.9.1 4.5.2 7.9.1 3.3.6 7.1 1.4 11.2.8 4.1 2.1 8.5 3.9 13.1 1.8 4.6 4.4 9.1 7.7 13.4 1.9 2.6 4.1 5.1 6.7 7.4 2.5 2.3 5.4 4.4 8.6 6.3 3.2 1.9 6.8 3.4 10.8 4.5 4 1.1 8.5 1.6 13.4 1.6 6.7 0 12.6-.8 17.8-2.3 5.2-1.5 9.7-3.5 13.7-5.9 4-2.4 7.5-5.1 10.6-8 3.1-2.9 5.8-5.8 8.3-8.7l2.4 1.5-2.4 21.6c-16.6 9.2-35 13.7-55.2 13.7-10.6 0-20.7-1.6-30.1-4.9-9.5-3.3-17.7-8.1-24.8-14.4-7.1-6.3-12.7-14.2-16.8-23.7-4.1-9.5-6.2-20.3-6.2-32.5 0-10.9 1.7-21.2 5.1-30.8 3.4-9.6 8.6-18 15.6-25.1 7-7.1 15.8-12.8 26.5-16.9 10.7-4.1 23.3-6.2 37.9-6.2 9 0 17.6.8 25.7 2.5 8.1 1.7 16.6 4.5 25.3 8.4l-6.3 21.7zM481.6 154l-9.2-23.1c-4.7-.3-9.3-.5-14-.7-4.7-.1-9.3-.2-14-.2-4.4 0-8.7.1-13.1.2s-8.7.4-13.1.7c-3.5 8.4-6.8 16.9-10 25.3-3.2 8.4-5.7 15.8-7.4 22-1.5-.3-3.1-.6-5-.9-1.9-.3-3.7-.4-5.5-.4-1.9 0-3.6.1-5.1.4-1.5.3-3.1.6-4.7.9l25.3-56.3c5.5-12.4 10.5-23.5 14.8-33.3 4.4-9.8 8.2-18.6 11.5-26.3 3.3-7.7 6-14.5 8.3-20.4 2.3-5.9 4-11.1 5.3-15.6 1.2.3 2.3.5 3.5.8 1.2.2 2.4.3 3.7.3 2 0 4.4-.4 7-1.1 2.6 7.4 5.3 14.8 8.2 22.3 2.8 7.4 5.7 14.5 8.5 21.4 2.8 6.8 5.5 13.3 8 19.3s4.7 11.3 6.8 15.8c2 4.8 4.4 10.3 7.2 16.5 2.8 6.2 5.6 12.6 8.5 19.2 2.9 6.6 5.8 13.2 8.7 19.7 2.9 6.5 5.6 12.4 8.1 17.7-1.6-.1-4.1-.4-7.4-.8-3.3-.4-6.5-.5-9.6-.5-3.1 0-6 .2-8.8.5-2.8.4-5.3.6-7.3.8l-9.2-24.2zm-36-90.3l-22.3 53.7c3.8.1 7.6.3 11.3.5 3.8.2 7.6.3 11.3.3 3.3 0 6.7-.1 10-.2s6.7-.4 10-.7l-20.3-53.6zm95.6 81.8c2.5 5.5 5 9.9 7.6 13.2 2.6 3.3 5.3 5.8 8.2 7.5 2.8 1.7 5.7 2.9 8.7 3.5 3 .6 6.1.9 9.3.9 4.4 0 8.3-.7 11.8-2.1 3.5-1.4 6.5-3.3 8.9-5.7 2.5-2.4 4.4-5.3 5.8-8.6 1.4-3.3 2.1-7 2.1-10.9 0-4.4-.7-8-2.2-11-1.5-3-3.2-5.5-5.1-7.4-1.9-1.9-4-3.5-6-4.5s-3.6-1.7-4.6-2.2c-3.1-1.3-6.8-2.8-11.2-4.6-4.4-1.7-8.2-3.3-11.2-4.6-5.2-2.3-9.6-4.8-13.2-7.4-3.6-2.6-6.4-5.5-8.5-8.6-2.1-3.1-3.6-6.5-4.5-10.3-.9-3.7-1.3-7.8-1.3-12.3 0-4.8.8-9.8 2.4-14.9 1.6-5.2 4.3-9.9 8.2-14.1 3.9-4.2 9.1-7.7 15.6-10.5s14.8-4.1 24.7-4.1c8 0 14.7.9 20.1 2.6 5.4 1.7 10.8 3.9 16.1 6.3-1.2 2.6-2.1 4.8-2.7 6.5-.7 1.7-1.2 3.3-1.6 4.7-.4 1.4-.8 2.8-1.2 4.3-.4 1.5-.8 3.2-1.2 5.2H613c-1.6-6.3-5-11-10.3-14.2-5.2-3.2-11.3-4.8-18.3-4.8-8.6 0-15 2.3-19.3 7-4.3 4.7-6.4 10.2-6.4 16.6 0 3.9.7 7.2 2.1 9.9 1.4 2.7 3.3 5.1 5.9 7.1 2.5 2 5.7 3.9 9.5 5.5s8.1 3.3 12.9 5.2c4.2 1.6 7.8 3 10.8 4.3 3 1.2 5.6 2.4 8 3.6 2.3 1.2 4.3 2.4 6 3.6 1.7 1.2 3.3 2.7 4.9 4.5 2.3 2.5 4.2 5.1 5.6 7.7 1.4 2.7 2.4 5.3 3.2 8 .7 2.6 1.2 5.1 1.5 7.4.3 2.3.4 4.2.4 5.7 0 5.5-1 11.1-3.1 16.8-2 5.7-5.3 10.8-9.7 15.4-4.4 4.6-10.1 8.3-17.1 11.2-7 2.9-15.5 4.4-25.5 4.4-4.7 0-9.1-.4-13.2-1.2-4.1-.8-7.9-1.8-11.3-2.9-3.4-1.2-6.5-2.4-9.3-3.6-2.8-1.2-5.1-2.4-7-3.4.9-2.8 1.6-5.1 2.2-7.1.6-2 1-3.8 1.3-5.6.3-1.7.5-3.5.8-5.3.2-1.8.5-4 .8-6.7h2.8zm117.2 0c2.5 5.5 5 9.9 7.6 13.2 2.6 3.3 5.3 5.8 8.2 7.5 2.8 1.7 5.7 2.9 8.7 3.5 3 .6 6.1.9 9.3.9 4.4 0 8.3-.7 11.8-2.1 3.5-1.4 6.5-3.3 8.9-5.7 2.5-2.4 4.4-5.3 5.8-8.6 1.4-3.3 2.1-7 2.1-10.9 0-4.4-.7-8-2.2-11-1.5-3-3.2-5.5-5.1-7.4-1.9-1.9-4-3.5-6-4.5s-3.6-1.7-4.6-2.2c-3.1-1.3-6.8-2.8-11.2-4.6-4.4-1.7-8.2-3.3-11.2-4.6-5.2-2.3-9.6-4.8-13.2-7.4-3.6-2.6-6.4-5.5-8.5-8.6-2.1-3.1-3.6-6.5-4.5-10.3-.9-3.7-1.3-7.8-1.3-12.3 0-4.8.8-9.8 2.4-14.9 1.6-5.2 4.3-9.9 8.2-14.1 3.9-4.2 9.1-7.7 15.6-10.5s14.8-4.1 24.7-4.1c8 0 14.7.9 20.1 2.6 5.4 1.7 10.8 3.9 16.1 6.3-1.2 2.6-2.1 4.8-2.7 6.5-.7 1.7-1.2 3.3-1.6 4.7-.4 1.4-.8 2.8-1.2 4.3-.4 1.5-.8 3.2-1.2 5.2h-3.1c-1.6-6.3-5-11-10.3-14.2-5.2-3.2-11.3-4.8-18.3-4.8-8.6 0-15 2.3-19.3 7-4.3 4.7-6.4 10.2-6.4 16.6 0 3.9.7 7.2 2.1 9.9 1.4 2.7 3.3 5.1 5.9 7.1 2.5 2 5.7 3.9 9.5 5.5s8.1 3.3 12.9 5.2c4.2 1.6 7.8 3 10.8 4.3 3 1.2 5.6 2.4 8 3.6 2.3 1.2 4.3 2.4 6 3.6 1.7 1.2 3.3 2.7 4.9 4.5 2.3 2.5 4.2 5.1 5.6 7.7 1.4 2.7 2.4 5.3 3.2 8 .7 2.6 1.2 5.1 1.5 7.4.3 2.3.4 4.2.4 5.7 0 5.5-1 11.1-3.1 16.8-2 5.7-5.3 10.8-9.7 15.4-4.4 4.6-10.1 8.3-17.1 11.2-7 2.9-15.5 4.4-25.5 4.4-4.7 0-9.1-.4-13.2-1.2-4.1-.8-7.9-1.8-11.3-2.9-3.4-1.2-6.5-2.4-9.3-3.6-2.8-1.2-5.1-2.4-7-3.4.9-2.8 1.6-5.1 2.2-7.1.6-2 1-3.8 1.3-5.6.3-1.7.5-3.5.8-5.3.2-1.8.5-4 .8-6.7h2.7zm-392.5 78.4c0 1.1-.1 2-.4 2.9-.3.8-.6 1.6-1 2.2-.4.6-.8 1.1-1.1 1.5l-.9.9c-.4.4-.9.8-1.4 1.1-.6.4-1.2.7-2 1.1-.8.3-1.8.6-2.9.8-1.1.2-2.5.3-4 .3-1.2 0-2.4 0-3.6-.1-1.2-.1-2.4-.1-3.6-.1-.9 0-1.8 0-2.8.1-.9.1-1.8.1-2.8.2.2-3.3.3-6.8.3-10.3.1-3.6.1-6.9.1-10 0-3.2 0-6.3-.1-9.5s-.2-6.3-.4-9.5c.7.1 1.4.1 2.1.2.6 0 1.6.1 2.9.1.3 0 .8 0 1.6-.1.8 0 1.6-.1 2.4-.1.8 0 1.6 0 2.4-.1.7 0 1.3-.1 1.6-.1 1.6 0 3.1.1 4.6.4 1.5.3 2.7.7 3.8 1.4 1.1.7 2 1.6 2.6 2.8.6 1.2 1 2.7 1 4.6 0 1.3-.3 2.5-.9 3.6-.6 1-1.3 1.9-2.2 2.7-.9.7-1.9 1.3-3.1 1.8-1.1.5-2.3.8-3.5.9 1.6.2 3 .4 4.4.8 1.4.4 2.6 1 3.6 1.7 1 .8 1.8 1.8 2.4 3 .6 1.4.9 2.9.9 4.8zm-19.2-11.5c.4 0 .8.1 1.2.1h1.1c2.5 0 4.5-.6 5.8-1.9 1.3-1.3 2-3.2 2-5.7 0-1.9-.5-3.5-1.5-4.7-1-1.2-2.5-1.8-4.5-1.8-1.3 0-2.7.1-4 .2 0 .8-.1 1.5-.1 2.3v11.5zm0 14.4v2.1c0 1 0 1.8.1 2.6.6.1 1.1.2 1.5.2.5.1 1 .1 1.5.1 2.7 0 4.8-.7 6.2-2 1.5-1.4 2.2-3.4 2.2-6.2 0-1.6-.2-3-.7-4.1-.5-1.1-1.1-2-1.9-2.6-.8-.7-1.8-1.1-3-1.4-1.2-.3-2.5-.4-4-.4-.7 0-1.3.1-2.1.2v11.5h.2zm33.8-27c-.1 2.2-.1 4.6-.1 7.2v7.6c0 2.3 0 4.2.1 5.6.1 1.4.1 2.7.2 3.6.1 1 .3 1.7.5 2.3.2.6.6 1.2 1 1.8.8 1.1 2 2 3.5 2.6 1.5.6 3.2.9 5.3.9 2.3 0 4.3-.5 6-1.6 1.7-1.1 2.9-2.5 3.5-4.3.1-.3.2-.7.3-1.1.1-.4.2-.9.2-1.5s.1-1.3.1-2.1.1-1.8.1-3c0-3.7 0-7.5-.1-11.2-.1-3.7-.2-7.5-.4-11.2.4.1.8.2 1.3.2.4.1.9.1 1.3.1.5 0 .9 0 1.4-.1.5-.1.9-.2 1.3-.2l-.2 2.8c-.1 1.2-.1 2.8-.2 4.8s-.1 4-.1 6.2c0 2.1-.1 4.2-.1 6.3 0 2.1-.1 3.8-.1 5.3 0 1.7-.2 3.2-.4 4.4-.2 1.3-.6 2.4-1.1 3.4-.5 1-1.1 1.8-1.8 2.5s-1.5 1.4-2.5 2c-1.3.9-2.9 1.5-4.7 1.9-1.8.4-3.4.6-5 .6-1.7 0-3.5-.2-5.3-.5-1.8-.3-3.5-.9-5-1.7-1.5-.8-2.9-1.9-4-3.4-1.1-1.4-1.8-3.3-2.1-5.5-.1-.4-.1-1-.1-1.6v-19.4c0-.9 0-1.8-.1-2.7 0-.9 0-1.8-.1-2.7 0-.9-.1-1.7-.1-2.4.6.1 1.3.2 2 .2s1.4.1 2 .1c.6 0 1.3 0 1.9-.1.6-.1 1.2-.2 1.8-.2l-.2 4.1zm34.2 26.4c.6 1.5 1.3 2.6 2 3.5.7.9 1.4 1.5 2.1 2 .7.5 1.5.8 2.3.9.8.2 1.6.2 2.4.2 1.1 0 2.2-.2 3.1-.5.9-.4 1.7-.9 2.3-1.5.6-.6 1.2-1.4 1.5-2.3.4-.9.5-1.8.5-2.9 0-1.1-.2-2.1-.6-2.9-.4-.8-.8-1.4-1.3-1.9s-1-.9-1.6-1.2c-.5-.3-.9-.5-1.2-.6-.8-.3-1.8-.7-3-1.2s-2.1-.9-3-1.2c-1.4-.6-2.5-1.3-3.5-1.9-.9-.7-1.7-1.4-2.2-2.3-.6-.8-.9-1.7-1.2-2.7-.2-1-.3-2.1-.3-3.2 0-1.3.2-2.6.6-3.9.4-1.4 1.1-2.6 2.1-3.7s2.4-2 4.1-2.8c1.7-.7 3.9-1.1 6.5-1.1 2.1 0 3.9.2 5.3.7 1.4.5 2.8 1 4.2 1.7-.3.7-.5 1.3-.7 1.7-.2.5-.3.9-.4 1.2-.1.4-.2.7-.3 1.1-.1.4-.2.8-.3 1.4h-.8c-.4-1.6-1.3-2.9-2.7-3.7-1.4-.8-3-1.3-4.8-1.3-2.3 0-3.9.6-5.1 1.8-1.1 1.2-1.7 2.7-1.7 4.4 0 1 .2 1.9.5 2.6.4.7.9 1.3 1.5 1.9.7.5 1.5 1 2.5 1.4 1 .4 2.1.9 3.4 1.4 1.1.4 2.1.8 2.8 1.1.8.3 1.5.6 2.1.9.6.3 1.1.6 1.6.9.4.3.9.7 1.3 1.2.6.7 1.1 1.3 1.5 2 .4.7.6 1.4.8 2.1.2.7.3 1.3.4 1.9.1.6.1 1.1.1 1.5 0 1.5-.3 2.9-.8 4.4-.5 1.5-1.4 2.8-2.5 4-1.1 1.2-2.7 2.2-4.5 3-1.8.8-4.1 1.1-6.7 1.1-1.2 0-2.4-.1-3.5-.3-1.1-.2-2.1-.5-3-.8-.9-.3-1.7-.6-2.4-.9-.7-.3-1.3-.6-1.8-.9.2-.7.4-1.3.6-1.9.2-.5.3-1 .3-1.5.1-.5.1-.9.2-1.4.1-.5.1-1.1.2-1.7h1.1v.2zm31.6-17.5c0-1.8 0-3.8-.1-5.9 0-2.1-.2-4.5-.5-7.3.5.1 1.2.2 2.1.2.9.1 1.5.1 1.9.1.6 0 1.3 0 2-.1s1.4-.2 2.1-.2c-.2 1.1-.3 2.4-.4 4.1-.1 1.7-.2 3.4-.2 5.3s-.1 3.7-.1 5.6v5c0 4.3 0 8 .1 11.1.1 3.2.2 5.9.5 8.2-.7 0-1.3-.1-2-.2s-1.4-.1-2-.1c-.7 0-1.3 0-2.1.1s-1.4.2-2.1.2c.3-3.4.5-7.4.5-11.9.3-4.5.3-9.2.3-14.2zm17.6 2.9v-8.1c0-2.7 0-5.3-.1-8 .2 0 .5.1.7.1h1.4c.2 0 .4 0 .7-.1 1.4 1.5 2.7 3 4.1 4.4 1.3 1.5 2.7 2.9 4.1 4.4 1.4 1.5 2.9 3 4.4 4.5 1.5 1.5 3.2 3.2 4.9 4.8l6.8 6.6 1.3 1.3c.4.3.9.7 1.5 1.2V210c0-2.4-.1-4.9-.2-7.3-.1-2.4-.3-4.8-.5-7.2.3.1.7.2 1.1.2.4 0 .8.1 1.4.1.6 0 1 0 1.3-.1.3-.1.7-.2 1.1-.2-.1 1.7-.2 3.3-.3 4.8-.1 1.5-.2 2.9-.2 4.4 0 1.5-.1 3-.1 4.6v25.9c-.2 0-.4-.1-.6-.1h-1.2c-.2 0-.4 0-.6.1-1.2-1.3-2.6-2.8-4.2-4.4-1.5-1.6-3.2-3.3-4.8-5-1.7-1.7-3.4-3.5-5.2-5.2-1.8-1.8-3.5-3.4-5.1-5-1.6-1.6-3.2-3.1-4.6-4.4-1.4-1.4-2.6-2.5-3.6-3.4v9.6c0 1.4 0 2.8.1 4.1 0 1.3 0 2.8.1 4.3v2.1c0 .6 0 1.1.1 1.7 0 .6.1 1.3.1 2.1.1.8.1 1.9.3 3.2-.3 0-.7-.1-1.2-.2s-1-.1-1.4-.1c-.4 0-.8 0-1.2.1-.4.1-.7.2-1.1.2l.5-8c0-.4.1-.9.1-1.6 0-.7 0-1.4.1-2.1v-11.6zm50.7.9h2.7c1.1 0 2.2 0 3.4-.1 1.2 0 2.3-.1 3.4-.1 1.1-.1 2-.1 2.8-.2-.1.3-.1.6-.2.9-.1.3-.1.7-.1 1.1 0 .8.1 1.5.3 1.9-.8-.1-1.5-.1-2.2-.2-.7-.1-1.5-.1-2.2-.1-1.3 0-2.7-.1-4-.1h-4v15.5h2.1c1 0 2.2 0 3.5-.1 1.3 0 2.7-.1 4.1-.1 1.4 0 2.8-.1 4-.2-.2.4-.3 1.1-.3 1.9 0 .8.1 1.5.3 2.1-3.4-.2-7-.3-10.5-.3s-7.1.1-10.8.3c.1-1.2.1-2.4.2-3.6.1-1.2.1-2.4.1-3.6 0-.8.1-1.9.1-3.1 0-1.2 0-2.4.1-3.7 0-1.2 0-2.4.1-3.6v-5.9c0-1.5 0-3.2-.1-5.1 0-1.9-.1-3.8-.1-5.8s-.1-3.6-.3-5.1c.7 0 1.5.1 2.4.1.9 0 1.8.1 2.7.1.9 0 1.9.1 2.8.1h2.5c1.3 0 2.9 0 4.7-.1 1.8-.1 3.8-.2 5.8-.2-.1.3-.1.6-.2.9-.1.3-.1.6-.1.9 0 .9.1 1.6.3 2.1l-5.4-.3c-.5 0-1-.1-1.4-.1h-6.6v13.8h.1zm21.1 13.7c.6 1.5 1.3 2.6 2 3.5.7.9 1.4 1.5 2.1 2 .7.5 1.5.8 2.3.9.8.2 1.6.2 2.4.2 1.1 0 2.2-.2 3.1-.5.9-.4 1.7-.9 2.3-1.5.6-.6 1.2-1.4 1.5-2.3.4-.9.5-1.8.5-2.9 0-1.1-.2-2.1-.6-2.9-.4-.8-.8-1.4-1.3-1.9s-1-.9-1.6-1.2c-.5-.3-.9-.5-1.2-.6-.8-.3-1.8-.7-3-1.2s-2.1-.9-3-1.2c-1.4-.6-2.5-1.3-3.5-1.9-.9-.7-1.7-1.4-2.2-2.3-.6-.8-.9-1.7-1.2-2.7-.2-1-.3-2.1-.3-3.2 0-1.3.2-2.6.6-3.9.4-1.4 1.1-2.6 2.1-3.7s2.4-2 4.1-2.8c1.7-.7 3.9-1.1 6.5-1.1 2.1 0 3.9.2 5.3.7 1.4.5 2.8 1 4.2 1.7-.3.7-.5 1.3-.7 1.7-.2.5-.3.9-.4 1.2-.1.4-.2.7-.3 1.1-.1.4-.2.8-.3 1.4h-.8c-.4-1.6-1.3-2.9-2.7-3.7-1.4-.8-3-1.3-4.8-1.3-2.3 0-3.9.6-5.1 1.8-1.1 1.2-1.7 2.7-1.7 4.4 0 1 .2 1.9.5 2.6.4.7.9 1.3 1.5 1.9.7.5 1.5 1 2.5 1.4 1 .4 2.1.9 3.4 1.4 1.1.4 2.1.8 2.8 1.1.8.3 1.5.6 2.1.9.6.3 1.1.6 1.6.9.4.3.9.7 1.3 1.2.6.7 1.1 1.3 1.5 2 .4.7.6 1.4.8 2.1.2.7.3 1.3.4 1.9.1.6.1 1.1.1 1.5 0 1.5-.3 2.9-.8 4.4-.5 1.5-1.4 2.8-2.5 4-1.1 1.2-2.7 2.2-4.5 3-1.8.8-4.1 1.1-6.7 1.1-1.2 0-2.4-.1-3.5-.3-1.1-.2-2.1-.5-3-.8-.9-.3-1.7-.6-2.4-.9-.7-.3-1.3-.6-1.8-.9.2-.7.4-1.3.6-1.9.2-.5.3-1 .3-1.5.1-.5.1-.9.2-1.4.1-.5.1-1.1.2-1.7h1.1v.2zm30.7 0c.6 1.5 1.3 2.6 2 3.5.7.9 1.4 1.5 2.1 2 .7.5 1.5.8 2.3.9.8.2 1.6.2 2.4.2 1.1 0 2.2-.2 3.1-.5.9-.4 1.7-.9 2.3-1.5.6-.6 1.2-1.4 1.5-2.3.4-.9.5-1.8.5-2.9 0-1.1-.2-2.1-.6-2.9-.4-.8-.8-1.4-1.3-1.9s-1-.9-1.6-1.2c-.5-.3-.9-.5-1.2-.6-.8-.3-1.8-.7-3-1.2s-2.1-.9-3-1.2c-1.4-.6-2.5-1.3-3.5-1.9-.9-.7-1.7-1.4-2.2-2.3-.6-.8-.9-1.7-1.2-2.7-.2-1-.3-2.1-.3-3.2 0-1.3.2-2.6.6-3.9.4-1.4 1.1-2.6 2.1-3.7s2.4-2 4.1-2.8c1.7-.7 3.9-1.1 6.5-1.1 2.1 0 3.9.2 5.3.7 1.4.5 2.8 1 4.2 1.7-.3.7-.5 1.3-.7 1.7-.2.5-.3.9-.4 1.2-.1.4-.2.7-.3 1.1-.1.4-.2.8-.3 1.4h-.8c-.4-1.6-1.3-2.9-2.7-3.7-1.4-.8-3-1.3-4.8-1.3-2.3 0-3.9.6-5.1 1.8-1.1 1.2-1.7 2.7-1.7 4.4 0 1 .2 1.9.5 2.6.4.7.9 1.3 1.5 1.9.7.5 1.5 1 2.5 1.4 1 .4 2.1.9 3.4 1.4 1.1.4 2.1.8 2.8 1.1.8.3 1.5.6 2.1.9.6.3 1.1.6 1.6.9.4.3.9.7 1.3 1.2.6.7 1.1 1.3 1.5 2 .4.7.6 1.4.8 2.1.2.7.3 1.3.4 1.9.1.6.1 1.1.1 1.5 0 1.5-.3 2.9-.8 4.4-.5 1.5-1.4 2.8-2.5 4-1.1 1.2-2.7 2.2-4.5 3-1.8.8-4.1 1.1-6.7 1.1-1.2 0-2.4-.1-3.5-.3-1.1-.2-2.1-.5-3-.8-.9-.3-1.7-.6-2.4-.9-.7-.3-1.3-.6-1.8-.9.2-.7.4-1.3.6-1.9.2-.5.3-1 .3-1.5.1-.5.1-.9.2-1.4.1-.5.1-1.1.2-1.7h1.1v.2zm45.7 0c.6 1.5 1.3 2.6 2 3.5.7.9 1.4 1.5 2.1 2 .7.5 1.5.8 2.3.9.8.2 1.6.2 2.4.2 1.1 0 2.2-.2 3.1-.5.9-.4 1.7-.9 2.3-1.5.6-.6 1.2-1.4 1.5-2.3.4-.9.5-1.8.5-2.9 0-1.1-.2-2.1-.6-2.9-.4-.8-.8-1.4-1.3-1.9s-1-.9-1.6-1.2c-.5-.3-.9-.5-1.2-.6-.8-.3-1.8-.7-3-1.2s-2.1-.9-3-1.2c-1.4-.6-2.5-1.3-3.5-1.9-.9-.7-1.7-1.4-2.2-2.3-.6-.8-.9-1.7-1.2-2.7-.2-1-.3-2.1-.3-3.2 0-1.3.2-2.6.6-3.9.4-1.4 1.1-2.6 2.1-3.7s2.4-2 4.1-2.8c1.7-.7 3.9-1.1 6.5-1.1 2.1 0 3.9.2 5.3.7 1.4.5 2.8 1 4.2 1.7-.3.7-.5 1.3-.7 1.7-.2.5-.3.9-.4 1.2-.1.4-.2.7-.3 1.1-.1.4-.2.8-.3 1.4h-.5c-.4-1.6-1.3-2.9-2.7-3.7-1.4-.8-3-1.3-4.8-1.3-2.3 0-3.9.6-5.1 1.8-1.1 1.2-1.7 2.7-1.7 4.4 0 1 .2 1.9.5 2.6.4.7.9 1.3 1.5 1.9.7.5 1.5 1 2.5 1.4 1 .4 2.1.9 3.4 1.4 1.1.4 2.1.8 2.8 1.1.8.3 1.5.6 2.1.9.6.3 1.1.6 1.6.9.4.3.9.7 1.3 1.2.6.7 1.1 1.3 1.5 2 .4.7.6 1.4.8 2.1.2.7.3 1.3.4 1.9.1.6.1 1.1.1 1.5 0 1.5-.3 2.9-.8 4.4-.5 1.5-1.4 2.8-2.5 4-1.1 1.2-2.7 2.2-4.5 3-1.8.8-4.1 1.1-6.7 1.1-1.2 0-2.4-.1-3.5-.3-1.1-.2-2.1-.5-3-.8-.9-.3-1.7-.6-2.4-.9-.7-.3-1.3-.6-1.8-.9.2-.7.4-1.3.6-1.9.2-.5.3-1 .3-1.5.1-.5.1-.9.2-1.4.1-.5.1-1.1.2-1.7h.8v.2zm63-22.7h-.6c-.2-.3-.5-.8-.9-1.4-.4-.6-1-1.2-1.8-1.8-.8-.6-1.9-1.1-3.2-1.5-1.3-.4-3-.7-5.1-.7-4.8 0-8.5 1.5-10.9 4.5-2.5 3-3.7 7.2-3.7 12.7 0 .5 0 1.2.1 2.1 0 .9.2 1.9.4 3s.6 2.2 1 3.4c.5 1.2 1.2 2.4 2 3.5.5.7 1.1 1.3 1.7 1.9.7.6 1.4 1.2 2.3 1.7.8.5 1.8.9 2.8 1.2 1 .3 2.2.4 3.5.4 1.8 0 3.3-.2 4.7-.6 1.4-.4 2.6-.9 3.6-1.5s2-1.3 2.8-2.1c.8-.8 1.5-1.5 2.2-2.3l.6.4-.6 5.6c-4.4 2.4-9.2 3.6-14.5 3.6-2.8 0-5.4-.4-7.9-1.3s-4.7-2.1-6.5-3.8c-1.9-1.7-3.3-3.7-4.4-6.2-1.1-2.5-1.6-5.3-1.6-8.5 0-2.9.4-5.6 1.3-8.1s2.3-4.7 4.1-6.6c1.8-1.9 4.2-3.4 7-4.4 2.8-1.1 6.1-1.6 9.9-1.6 2.4 0 4.6.2 6.8.7 2.1.4 4.4 1.2 6.6 2.2l-1.7 5.5zm34.6 12c-1.6-.1-3.1-.1-4.6-.2-1.5 0-3.1-.1-4.6-.1-1.6 0-3.3 0-4.9.1-1.6 0-3.2.1-4.9.2v10.4c0 1.3.1 2.5.1 3.5.1 1 .1 1.9.2 2.8.1.8.1 1.7.2 2.6-.4 0-1-.1-1.7-.2s-1.5-.1-2.3-.1c-.7 0-1.4 0-2 .1-.7.1-1.3.2-2 .2.2-4.4.4-8.7.4-13 .1-4.3.1-8.6.1-13 0-2.3 0-4.5-.1-6.6-.1-2.2-.2-4.4-.4-6.6.6.1 1.3.2 2.1.2s1.5.1 2 .1h1c.4 0 .8 0 1.1-.1.3-.1.7-.1 1.1-.1.3 0 .6-.1.8-.1-.1.8-.1 1.6-.2 2.4-.1.8-.1 1.8-.2 3s-.1 2.6-.1 4.4v6.6c1.4.1 2.9.1 4.3.2 1.4 0 2.9.1 4.3.1 1.8 0 3.5 0 5.2-.1 1.7 0 3.4-.1 5.2-.2v-5c0-1.1 0-2-.1-3v-3.1c0-.3 0-.7-.1-1.1 0-.4-.1-1-.1-1.6 0-.6-.1-1.5-.1-2.5.5.1 1.2.2 2 .2.8.1 1.5.1 2.2.1.5 0 1.2 0 2-.1s1.5-.2 2-.2c-.2 1.5-.3 3.4-.4 5.7-.1 2.3-.2 4.7-.2 7.2-.1 2.5-.1 4.9-.1 7.2v5.7c0 2.3 0 4.6.1 6.9 0 2.3.2 4.5.5 6.6-.7-.1-1.4-.2-2.1-.2-.7-.1-1.4-.1-2.1-.1-.6 0-1.3 0-2 .1s-1.3.2-2 .2c0-.3 0-.8.1-1.7.1-.9.1-1.9.2-2.9.1-1.1.1-2.1.1-3.1s.1-1.8.1-2.3l-.1-9.5zm36.8-20.5c2.7 0 5.3.4 7.8 1.1 2.5.7 4.8 1.9 6.8 3.5s3.6 3.6 4.8 6.1c1.2 2.5 1.8 5.4 1.8 8.9 0 3.2-.5 6.1-1.5 8.7-1 2.6-2.5 4.8-4.4 6.6-1.9 1.8-4.1 3.2-6.8 4.2s-5.5 1.5-8.7 1.5c-3 0-5.8-.4-8.4-1.3-2.6-.9-4.9-2.1-6.8-3.8-1.9-1.7-3.4-3.7-4.6-6.2-1.1-2.4-1.7-5.2-1.7-8.4 0-3.6.6-6.8 1.7-9.4 1.1-2.6 2.7-4.8 4.7-6.5 2-1.7 4.2-3 6.8-3.8 2.9-.8 5.6-1.2 8.5-1.2zm-13.7 20.3c0 2.1.2 4.2.7 6.3.5 2.1 1.3 3.9 2.3 5.6 1.1 1.6 2.5 2.9 4.2 4 1.7 1 3.8 1.5 6.3 1.5 2.4 0 4.5-.5 6.2-1.5 1.7-1 3.1-2.4 4.2-4 1.1-1.7 1.9-3.5 2.4-5.6.5-2.1.7-4.1.7-6.2 0-2.3-.2-4.5-.7-6.6-.5-2.1-1.2-3.9-2.3-5.5-1.1-1.6-2.4-2.8-4.2-3.8-1.7-.9-3.8-1.4-6.4-1.4-2.5 0-4.6.5-6.3 1.6-1.7 1.1-3.1 2.4-4.2 4.1-1.1 1.7-1.9 3.6-2.3 5.6-.3 2-.6 4-.6 5.9zm62.5-20.3c2.7 0 5.3.4 7.8 1.1 2.5.7 4.8 1.9 6.8 3.5s3.6 3.6 4.8 6.1c1.2 2.5 1.8 5.4 1.8 8.9 0 3.2-.5 6.1-1.5 8.7-1 2.6-2.5 4.8-4.4 6.6-1.9 1.8-4.1 3.2-6.8 4.2s-5.5 1.5-8.7 1.5c-3 0-5.8-.4-8.4-1.3-2.6-.9-4.9-2.1-6.8-3.8-1.9-1.7-3.4-3.7-4.6-6.2-1.1-2.4-1.7-5.2-1.7-8.4 0-3.6.6-6.8 1.7-9.4 1.1-2.6 2.7-4.8 4.7-6.5 2-1.7 4.2-3 6.8-3.8 2.9-.8 5.6-1.2 8.5-1.2zm-13.6 20.3c0 2.1.2 4.2.7 6.3.5 2.1 1.3 3.9 2.3 5.6 1.1 1.6 2.5 2.9 4.2 4 1.7 1 3.8 1.5 6.3 1.5 2.4 0 4.5-.5 6.2-1.5 1.7-1 3.1-2.4 4.2-4 1.1-1.7 1.9-3.5 2.4-5.6.5-2.1.7-4.1.7-6.2 0-2.3-.2-4.5-.7-6.6-.5-2.1-1.2-3.9-2.3-5.5-1.1-1.6-2.4-2.8-4.2-3.8-1.7-.9-3.8-1.4-6.4-1.4-2.5 0-4.6.5-6.3 1.6-1.7 1.1-3.1 2.4-4.2 4.1-1.1 1.7-1.9 3.6-2.3 5.6-.4 2-.6 4-.6 5.9zm43.2-4.2V208c0-.6 0-1.2-.1-2 0-.8 0-1.8-.1-3.1v-1.5c0-.7 0-1.5-.1-2.2 0-.8-.1-1.5-.1-2.2v-1.5c.7.2 1.4.2 2 .3.6 0 1.3.1 2 .1s1.4 0 2-.1c.6-.1 1.3-.1 2-.3-.1 2.2-.2 4.3-.3 6.3-.1 2-.1 4-.2 6s-.1 4-.1 6.1v6.4c0 2 0 4 .1 5.8 0 1.8.1 3.5.1 5.1h3.3c1.1 0 2.3 0 3.7-.1 1.4 0 2.7-.1 4-.2 1.3-.1 2.4-.2 3.3-.3-.1.3-.1.6-.2.9-.1.3-.1.8-.1 1.4 0 .4 0 .8.1 1 0 .2.1.6.2.9-.7 0-1.6-.1-2.5-.1-.9 0-1.9-.1-2.9-.1s-2-.1-3-.1h-2.6c-1.8 0-3.6 0-5.3.1-1.7.1-3.6.1-5.7.3v-1.4c0-.8 0-1.7.1-2.8.1-1.1.1-2.3.1-3.5 0-1.2 0-2.4.1-3.5 0-1.1.1-2.1.1-2.9v-9.7h.1zm-465.5 63.6c-.5.2-1 .4-1.7.6-.7.2-1.4.3-2.2.5-.8.1-1.7.2-2.6.2-1.9 0-3.7-.3-5.3-.8-1.6-.5-3-1.4-4.2-2.5-1.2-1.1-2.1-2.5-2.8-4.1-.7-1.6-1-3.5-1-5.5 0-2.1.3-3.9 1-5.5s1.6-3 2.8-4.1c1.2-1.1 2.6-2 4.3-2.5 1.7-.6 3.5-.9 5.5-.9 1.6 0 3.1.2 4.4.5 1.3.3 2.5.7 3.5 1.2-.2.3-.4.8-.5 1.4-.1.6-.2 1.1-.3 1.5l-.2.1c-.2-.3-.6-.6-1-1s-.9-.7-1.5-1.1c-.6-.4-1.2-.6-2-.9-.7-.2-1.5-.3-2.4-.3-1.4 0-2.8.2-4 .7-1.2.5-2.3 1.2-3.2 2.1-.9 1-1.6 2.2-2.1 3.6s-.8 3.2-.8 5.2.3 3.8.8 5.2c.5 1.5 1.2 2.7 2.1 3.6.9 1 2 1.7 3.2 2.1 1.2.5 2.6.7 4 .7.9 0 1.7-.1 2.4-.3.7-.2 1.4-.5 2-.8.6-.3 1.2-.6 1.7-1s.9-.7 1.3-.9l.1.1-.3 2.1c-.2.3-.5.6-1 .8zm6-19.4c-.1-1.5-.1-3.1-.2-4.7.3 0 .6.1.9.1.3 0 .6.1.9.1.3 0 .6 0 .9-.1.3-.1.6-.1.9-.1-.1 1.6-.1 3.2-.2 4.7s-.1 3.1-.1 4.7v6.3c0 1.6 0 3.2.1 4.7s.1 3.1.2 4.6c-.6 0-1.2-.1-1.8-.1-.6 0-1.2 0-1.8.1.1-1.5.1-3 .2-4.6.1-1.6.1-3.1.1-4.7V260c0-1.6-.1-3.2-.1-4.7zm14.7-2.9h-2c-.7 0-1.4 0-2.1.1-.7 0-1.4.1-2 .1-.6 0-1.2.1-1.7.2.1-.4.2-.8.2-1.2 0-.3-.1-.6-.2-1.1 1.6 0 3.2.1 4.7.1s3.1.1 4.7.1 3.2 0 4.7-.1 3.1-.1 4.7-.1c-.1.5-.2.9-.2 1.2 0 .3.1.7.2 1.1-.5-.1-1.1-.1-1.7-.2-.6 0-1.3-.1-2-.1s-1.4-.1-2.1-.1h-2c-.1 2.5-.1 5-.1 7.5v6.3c0 1.6 0 3.2.1 4.7s.1 3.1.2 4.6c-.6 0-1.2-.1-1.8-.1-.6 0-1.2 0-1.8.1.1-1.5.1-3 .2-4.6.1-1.6.1-3.1.1-4.7V260c0-2.6 0-5.1-.1-7.6zm19.8 11.1c-.5-.8-1-1.7-1.6-2.6l-1.8-3c-.6-1.1-1.2-2.1-1.8-3-.6-1-1.1-1.8-1.5-2.6-.5-.8-.8-1.3-1.1-1.7.3 0 .7.1 1 .1.3 0 .7.1 1 .1.3 0 .7 0 1-.1.3 0 .7-.1 1-.1 1.1 2.1 2.2 4.2 3.3 6.2 1.1 2 2.3 4.2 3.6 6.4.6-.9 1.1-1.8 1.7-2.9.6-1 1.2-2.1 1.8-3.2.6-1.1 1.2-2.2 1.7-3.3.6-1.1 1.1-2.2 1.6-3.2.6.1 1.1.2 1.4.2.3 0 .8-.1 1.4-.2-1.2 1.8-2.2 3.4-3.1 4.8-.9 1.4-1.7 2.7-2.4 3.9-.7 1.2-1.3 2.2-1.9 3.1-.6.9-1 1.8-1.4 2.5v2.9c0 1 0 2 .1 3 0 1 .1 1.9.1 2.7 0 .8.1 1.5.1 2-.6 0-1.2-.1-1.8-.1-.6 0-1.2 0-1.8.1.1-1.3.2-2.8.3-4.6v-5.6c0-.4-.4-1-.9-1.8zm45.4-9.1c0-1.9-.1-3.2-.2-3.9.3 0 .5.1.8.1.2 0 .5.1.7.1.3 0 .7-.1 1.1-.2-.1.8-.1 1.9-.2 3-.1 1.2-.1 2.4-.2 3.8s-.1 2.7-.1 4.1c0 1.4-.1 2.8-.1 4.1 0 1.6-.3 3.1-.7 4.4-.5 1.3-1.1 2.4-2 3.3-.9.9-1.9 1.6-3.2 2-1.3.4-2.7.7-4.4.7-3.6 0-6.3-.8-7.9-2.5-1.6-1.6-2.5-4.3-2.5-7.8 0-1.1 0-2.2.1-3 .1-.9.1-1.8.1-2.7 0-2 0-3.8-.1-5.4 0-1.6-.1-2.9-.1-4 .3 0 .6.1.9.1.3 0 .7.1.9.1.3 0 .5 0 .8-.1.3-.1.5-.1.8-.1 0 .5-.1 1.2-.1 2.1 0 .9-.1 1.8-.1 2.9 0 1.1-.1 2.3-.1 3.5v6.5c0 .9.1 1.7.3 2.6.2.9.4 1.6.7 2.4.3.8.8 1.4 1.4 2 .6.6 1.4 1 2.3 1.3.9.3 2.1.5 3.4.5 1.3 0 2.5-.2 3.4-.6.9-.4 1.7-.9 2.2-1.5.6-.6 1-1.4 1.4-2.2.3-.8.6-1.7.7-2.6l.3-2.7v-2.5c-.2-3.3-.3-5.9-.3-7.8zm20.5 11.7c-3.2-3.4-6.3-6.7-9.5-10.1 0 .7 0 1.6-.1 2.7v9c0 .8 0 1.7.1 2.5 0 .8 0 1.6.1 2.4.1.8 0 1.4.1 1.9 0 .5 0 .9.1 1.1-.4 0-.8-.1-1.3-.1s-.9 0-1.3.1c0-.2.1-.7.2-1.3.1-.6.1-1.4.2-2.3 0-.9.1-1.9.2-3s.1-2.1.1-3.2.1-2.1.1-3.1V254c0-1.7 0-2.9-.1-3.7h.6c1.5 1.6 3.1 3.3 4.7 5.1 1.7 1.8 3.4 3.6 5 5.4 1.7 1.8 3.2 3.5 4.7 5.1 1.5 1.6 2.8 2.9 3.9 4.1v-4.9c0-2.5 0-5-.1-7.4 0-2.4-.1-4.7-.2-6.8.5.1.9.2 1.2.2.3 0 .7-.1 1.2-.2 0 .5-.1 1.3-.2 2.4-.1 1.1-.1 2.2-.2 3.4-.1 1.2-.1 2.4-.2 3.6-.1 1.2-.1 2.1-.1 2.8v13.3h-.5c-2.5-3.6-5.5-6.9-8.7-10.3zm16.3-10.8c-.1-1.5-.1-3.1-.2-4.7.3 0 .6.1.9.1.3 0 .6.1.9.1.3 0 .6 0 .9-.1.3-.1.6-.1.9-.1-.1 1.6-.1 3.2-.2 4.7s-.1 3.1-.1 4.7v6.3c0 1.6 0 3.2.1 4.7s.1 3.1.2 4.6c-.6 0-1.2-.1-1.8-.1-.6 0-1.2 0-1.8.1.1-1.5.1-3 .2-4.6.1-1.6.1-3.1.1-4.7V260c-.1-1.6-.1-3.2-.1-4.7zm14.9 15.1c-.8-2-1.7-4.1-2.6-6.4-.9-2.2-1.8-4.5-2.8-6.8-1-2.3-1.9-4.5-2.7-6.6.3 0 .7.1 1 .1.3 0 .6.1.9.1.3 0 .6 0 .9-.1.3-.1.6-.1 1-.1.5 1.6 1.1 3.3 1.8 5 .6 1.8 1.3 3.5 2 5.4.7 1.9 1.4 3.7 2.2 5.5.8 1.8 1.5 3.7 2.3 5.6.4-1 .9-2.1 1.4-3.3.5-1.2 1-2.5 1.5-3.8.5-1.3 1-2.7 1.5-4 .5-1.4 1-2.7 1.5-3.9.5-1.3.9-2.4 1.3-3.5s.7-2 1-2.8c.5.1 1 .2 1.3.2.4 0 .8-.1 1.3-.2-1.9 4.2-3.7 8.4-5.5 12.6-1.7 4.1-3.4 8.3-5 12.4-.4 0-.8-.1-1.2-.1-.5 0-.9 0-1.2.1-.4-1.7-1.1-3.4-1.9-5.4zm18.6-15.2c-.1-1.6-.1-3.1-.2-4.7 1.1 0 2.2.1 3.3.1 1.1 0 2.2.1 3.3.1 1.1 0 2.2 0 3.2-.1s2.1-.1 3.2-.1c-.1.4-.1.7-.1 1.1 0 .4 0 .7.1 1.1-.8 0-1.5-.1-2.1-.1-.6 0-1.3-.1-2-.1s-1.5-.1-2.3-.1c-.8 0-1.9-.1-3.1-.1 0 .8-.1 1.5-.1 2.2 0 .7-.1 1.5-.1 2.4v4.8h2.9c.8 0 1.6-.1 2.3-.1.7 0 1.4-.1 1.9-.1.6 0 1.2-.1 1.7-.1-.1.4-.1.7-.1 1.1 0 .4 0 .7.1 1.1-.6-.1-1.4-.1-2.2-.2-.8 0-1.7-.1-2.5-.1h-4.2v8.7c0 .9 0 1.6.1 2h2.5c.9 0 1.8 0 2.7-.1.9-.1 1.7-.1 2.5-.1s1.5-.2 2.1-.3c0 .2-.1.4-.1.6v.6c0 .4 0 .7.1.9-1.1 0-2.2-.1-3.3-.1h-6.6c-1.1 0-2.2 0-3.3.1.1-1.6.1-3.1.2-4.6.1-1.5.1-3.1.1-4.7V260c.1-1.7 0-3.2 0-4.8zm17.7.1c-.1-1.5-.1-3.1-.2-4.7.7 0 1.4.1 2.1.1.7 0 1.4.1 2.1.1.7 0 1.4 0 2.1-.1.7-.1 1.4-.1 2.1-.1 1 0 2 .1 2.9.3.9.2 1.7.5 2.4 1 .7.4 1.2 1 1.6 1.8.4.7.6 1.6.6 2.7 0 1.2-.3 2.2-.8 3-.5.8-1.2 1.5-1.9 2.1-.8.5-1.6 1-2.4 1.3-.9.3-1.6.5-2.3.6.3.4.7.9 1.2 1.5.5.7 1.1 1.4 1.7 2.2.6.8 1.3 1.6 2 2.5.7.9 1.3 1.7 2 2.5s1.2 1.5 1.8 2.2c.6.7 1 1.2 1.3 1.5-.4 0-.7-.1-1.1-.1h-2.2c-.4 0-.7 0-1.1.1-.4-.5-.9-1.3-1.7-2.3-.7-1-1.6-2.1-2.5-3.3-.9-1.2-1.8-2.3-2.7-3.5-.9-1.2-1.8-2.1-2.6-2.9h-1.4v2.7c0 1.6 0 3.2.1 4.7s.1 3.1.2 4.6c-.6 0-1.2-.1-1.8-.1-.6 0-1.2 0-1.8.1.1-1.5.1-3 .2-4.6.1-1.6.1-3.1.1-4.7V260c.1-1.6.1-3.2 0-4.7zm4.2 6.9h1.3c.8 0 1.5-.1 2.3-.3.8-.2 1.6-.5 2.2-.9.7-.4 1.2-1 1.7-1.7.4-.7.7-1.6.7-2.7 0-.9-.2-1.7-.5-2.3-.4-.6-.8-1.1-1.4-1.5-.6-.4-1.2-.6-1.8-.7-.7-.1-1.3-.2-1.9-.2-.8 0-1.6 0-2.1.1-.6 0-1 .1-1.4.1 0 1.3-.1 2.7-.1 4 0 1.3-.1 2.6-.1 3.9v2.1c.3 0 .7.1 1.1.1zm17.7 9.9c.3.4.7.9 1.2 1.2.5.4 1 .7 1.7.9.6.2 1.3.3 2.1.3s1.5-.1 2.2-.4c.6-.3 1.2-.7 1.6-1.1.4-.5.8-1 1-1.7.2-.6.4-1.3.4-2.1 0-1.1-.3-2-.9-2.7-.6-.7-1.3-1.2-2.1-1.6-.8-.4-1.8-.8-2.7-1.2-1-.4-1.9-.8-2.7-1.4-.8-.5-1.6-1.2-2.1-2.1-.6-.8-.9-2-.9-3.4 0-1 .2-1.9.5-2.8.3-.9.9-1.6 1.6-2.2.7-.6 1.5-1.1 2.5-1.4 1-.3 2.1-.5 3.3-.5 1.2 0 2.2.1 3 .4.8.3 1.6.7 2.4 1.3-.2.4-.4.8-.5 1.3-.1.5-.3 1-.4 1.7h-.4c-.1-.3-.3-.7-.5-1.1-.2-.4-.5-.8-.8-1.1-.3-.3-.8-.6-1.3-.9-.5-.3-1.1-.3-1.7-.3-.7 0-1.3.1-1.9.3-.6.2-1.1.5-1.5.9-.4.4-.8.9-1 1.4-.2.6-.3 1.2-.3 1.8 0 1.1.3 2 .9 2.7.6.7 1.3 1.2 2.1 1.7.8.4 1.8.8 2.7 1.2 1 .4 1.9.8 2.7 1.3.8.5 1.6 1.2 2.1 2 .6.8.9 1.9.9 3.2 0 1.1-.2 2.2-.6 3.2-.4 1-1 1.9-1.7 2.6-.8.7-1.7 1.3-2.8 1.7-1.1.4-2.4.6-3.8.6-1.5 0-2.7-.2-3.7-.6-.9-.4-1.7-.9-2.3-1.4.2-.6.4-1.1.5-1.5.1-.4.2-1 .2-1.7h.4c0 .6.3 1.1.6 1.5zm17.7-16.8c-.1-1.5-.1-3.1-.2-4.7.3 0 .6.1.9.1.3 0 .6.1.9.1.3 0 .6 0 .9-.1.3-.1.6-.1.9-.1-.1 1.6-.1 3.2-.2 4.7s-.1 3.1-.1 4.7v6.3c0 1.6 0 3.2.1 4.7s.1 3.1.2 4.6c-.6 0-1.2-.1-1.8-.1-.6 0-1.2 0-1.8.1.1-1.5.1-3 .2-4.6.1-1.6.1-3.1.1-4.7V260c0-1.6-.1-3.2-.1-4.7zm14.4-2.9h-2c-.7 0-1.4 0-2.1.1-.7 0-1.4.1-2 .1-.6 0-1.2.1-1.7.2.1-.4.2-.8.2-1.2 0-.3-.1-.6-.2-1.1 1.6 0 3.2.1 4.7.1s3.1.1 4.7.1 3.2 0 4.7-.1 3.1-.1 4.7-.1c-.1.5-.2.9-.2 1.2 0 .3.1.7.2 1.1-.5-.1-1.1-.1-1.7-.2-.6 0-1.3-.1-2-.1s-1.4-.1-2.1-.1h-2c-.1 2.5-.1 5-.1 7.5v6.3c0 1.6 0 3.2.1 4.7s.1 3.1.2 4.6c-.6 0-1.2-.1-1.8-.1-.6 0-1.2 0-1.8.1.1-1.5.1-3 .2-4.6.1-1.6.1-3.1.1-4.7V260c0-2.6 0-5.1-.1-7.6zm20.3 11.1c-.5-.8-1-1.7-1.6-2.6l-1.8-3c-.6-1.1-1.2-2.1-1.8-3-.6-1-1.1-1.8-1.5-2.6-.5-.8-.8-1.3-1.1-1.7.3 0 .7.1 1 .1.3 0 .7.1 1 .1.3 0 .7 0 1-.1.3 0 .7-.1 1-.1 1.1 2.1 2.2 4.2 3.3 6.2 1.1 2 2.3 4.2 3.6 6.4.6-.9 1.1-1.8 1.7-2.9.6-1 1.2-2.1 1.8-3.2.6-1.1 1.2-2.2 1.7-3.3.6-1.1 1.1-2.2 1.6-3.2.6.1 1.1.2 1.4.2.3 0 .8-.1 1.4-.2-1.2 1.8-2.2 3.4-3.1 4.8-.9 1.4-1.7 2.7-2.4 3.9-.7 1.2-1.3 2.2-1.9 3.1-.6.9-1 1.8-1.4 2.5v2.9c0 1 0 2 .1 3 0 1 .1 1.9.1 2.7 0 .8.1 1.5.1 2-.6 0-1.2-.1-1.8-.1-.6 0-1.2 0-1.8.1.1-1.3.2-2.8.3-4.6v-5.6c0-.4-.4-1-.9-1.8zm25.5-5.9c.7-1.6 1.6-3 2.8-4.1 1.2-1.1 2.6-2 4.3-2.5 1.7-.6 3.5-.9 5.5-.9s3.9.3 5.5.9c1.7.6 3.1 1.4 4.3 2.5 1.2 1.1 2.1 2.5 2.8 4.1.7 1.6 1 3.5 1 5.5 0 2.1-.3 3.9-1 5.5s-1.6 3-2.8 4.1c-1.2 1.1-2.6 1.9-4.3 2.5-1.7.5-3.5.8-5.5.8s-3.8-.3-5.5-.8c-1.7-.5-3.1-1.4-4.3-2.5-1.2-1.1-2.1-2.5-2.8-4.1-.7-1.6-1-3.5-1-5.5 0-2.1.3-3.9 1-5.5zm21.9.3c-.5-1.5-1.2-2.7-2.1-3.6-.9-1-2-1.7-3.2-2.1-1.2-.4-2.6-.7-4-.7s-2.7.2-3.9.7c-1.2.5-2.3 1.2-3.2 2.1-.9 1-1.6 2.2-2.1 3.6s-.8 3.2-.8 5.2.3 3.8.8 5.2c.5 1.5 1.2 2.7 2.1 3.6.9 1 2 1.7 3.2 2.1 1.2.5 2.5.7 3.9.7s2.8-.2 4-.7c1.2-.5 2.3-1.2 3.2-2.1.9-1 1.6-2.2 2.1-3.6.5-1.5.8-3.2.8-5.2s-.3-3.8-.8-5.2zm8.9-2.6c-.1-1.5-.1-3.1-.2-4.7 1.1 0 2.2.1 3.3.1 1.1 0 2.2.1 3.3.1 1.1 0 2.2 0 3.3-.1 1.1 0 2.3-.1 3.6-.1-.1.4-.1.7-.1 1.1 0 .4 0 .7.1 1.1-.7-.1-1.4-.1-2.4-.2-.9-.1-1.9-.1-2.8-.1-1 0-1.9-.1-2.8-.1H567c0 .8 0 1.7-.1 2.4v6.8c1.6 0 3.2 0 4.7-.1 1.6 0 3.1-.1 4.6-.3-.1.4-.1.7-.1 1.1 0 .4 0 .7.1 1.1-.6-.1-1.3-.1-2.1-.2-.8 0-1.6-.1-2.4-.1h-4.9v3.1c0 1.6 0 3.2.1 4.7s.1 3.1.2 4.6c-.6 0-1.2-.1-1.8-.1-.6 0-1.2 0-1.8.1.1-1.5.1-3 .2-4.6.1-1.6.1-3.1.1-4.7V260c.2-1.6.1-3.2.1-4.7zm27.4 0c-.1-1.5-.1-3.1-.2-4.7.3 0 .6.1.9.1.3 0 .6.1.9.1.3 0 .6 0 .9-.1.3-.1.6-.1.9-.1-.1 1.6-.1 3.2-.2 4.7s-.1 3.1-.1 4.7v8c0 2.2 0 4.3.1 6 1.7 0 3.4 0 4.9-.1 1.6 0 3.3-.2 5.1-.4-.1.4-.2.8-.2 1.1 0 .3.1.6.2 1-1.1 0-2.2-.1-3.3-.1h-6.7c-1.1 0-2.2 0-3.4.1.1-1.5.1-3 .2-4.6.1-1.6.1-3.1.1-4.7V260c0-1.6 0-3.2-.1-4.7zm16.8 2.3c.7-1.6 1.6-3 2.8-4.1 1.2-1.1 2.6-2 4.3-2.5 1.7-.6 3.5-.9 5.5-.9s3.9.3 5.5.9c1.7.6 3.1 1.4 4.3 2.5 1.2 1.1 2.1 2.5 2.8 4.1.7 1.6 1 3.5 1 5.5 0 2.1-.3 3.9-1 5.5s-1.6 3-2.8 4.1c-1.2 1.1-2.6 1.9-4.3 2.5-1.7.5-3.5.8-5.5.8s-3.8-.3-5.5-.8c-1.7-.5-3.1-1.4-4.3-2.5-1.2-1.1-2.1-2.5-2.8-4.1-.7-1.6-1-3.5-1-5.5 0-2.1.4-3.9 1-5.5zm21.9.3c-.5-1.5-1.2-2.7-2.1-3.6-.9-1-2-1.7-3.2-2.1-1.2-.4-2.6-.7-4-.7s-2.7.2-3.9.7c-1.2.5-2.3 1.2-3.2 2.1-.9 1-1.6 2.2-2.1 3.6s-.8 3.2-.8 5.2.3 3.8.8 5.2c.5 1.5 1.2 2.7 2.1 3.6.9 1 2 1.7 3.2 2.1 1.2.5 2.5.7 3.9.7s2.8-.2 4-.7c1.2-.5 2.3-1.2 3.2-2.1.9-1 1.6-2.2 2.1-3.6.5-1.5.8-3.2.8-5.2s-.2-3.8-.8-5.2zm20.6 8.2c-3.2-3.4-6.3-6.7-9.5-10.1 0 .7 0 1.6-.1 2.7v9c0 .8 0 1.7.1 2.5 0 .8 0 1.6.1 2.4.1.8 0 1.4.1 1.9 0 .5 0 .9.1 1.1-.4 0-.8-.1-1.3-.1s-.9 0-1.3.1c0-.2.1-.7.2-1.3.1-.6.1-1.4.2-2.3 0-.9.1-1.9.2-3s.1-2.1.1-3.2.1-2.1.1-3.1V254c0-1.7 0-2.9-.1-3.7h.6c1.5 1.6 3.1 3.3 4.7 5.1 1.7 1.8 3.4 3.6 5 5.4 1.7 1.8 3.2 3.5 4.7 5.1 1.5 1.6 2.8 2.9 3.9 4.1v-4.9c0-2.5 0-5-.1-7.4 0-2.4-.1-4.7-.2-6.8.5.1.9.2 1.2.2.3 0 .7-.1 1.2-.2 0 .5-.1 1.3-.2 2.4-.1 1.1-.1 2.2-.2 3.4-.1 1.2-.1 2.4-.2 3.6-.1 1.2-.1 2.1-.1 2.8v13.3h-.5c-2.6-3.6-5.5-6.9-8.7-10.3zm16.2-10.8c-.1-1.5-.1-3.1-.2-4.7.9 0 1.8.1 2.7.1.9 0 1.8.1 2.7.1.9 0 1.8 0 2.7-.1.9-.1 1.8-.1 2.7-.1 2.1 0 4 .3 5.5.8 1.5.6 2.8 1.4 3.7 2.4 1 1 1.7 2.3 2.1 3.8.4 1.5.7 3.2.7 5 0 2.4-.4 4.5-1.3 6.1-.8 1.7-1.9 3-3.2 4-1.3 1-2.7 1.7-4.3 2.2-1.6.4-3.1.6-4.5.6h-7.2c-.8 0-1.6 0-2.4.1.1-1.5.1-3 .2-4.6.1-1.6.1-3.1.1-4.7V260c.1-1.6.1-3.2 0-4.7zm3.3 18.6c.5.1 1.2.2 2.1.3.9.1 1.8.1 2.7.1 1.3 0 2.7-.2 4-.5 1.3-.3 2.5-.9 3.6-1.8s1.9-2.1 2.6-3.6c.7-1.5 1-3.5 1-5.9 0-2.1-.3-3.8-.8-5.2-.5-1.4-1.2-2.4-2.1-3.2-.9-.8-2-1.3-3.3-1.6-1.3-.3-2.6-.5-4.1-.5-1.1 0-2.1 0-3.1.1-.9.1-1.8.2-2.5.3-.1 1.2-.1 2.4-.2 3.7 0 1.3-.1 2.6-.1 3.9v6.3c0 2.5.1 5.1.2 7.6zm23.6-16.3c.7-1.6 1.6-3 2.8-4.1 1.2-1.1 2.6-2 4.3-2.5 1.7-.6 3.5-.9 5.5-.9s3.9.3 5.5.9c1.7.6 3.1 1.4 4.3 2.5 1.2 1.1 2.1 2.5 2.8 4.1.7 1.6 1 3.5 1 5.5 0 2.1-.3 3.9-1 5.5s-1.6 3-2.8 4.1c-1.2 1.1-2.6 1.9-4.3 2.5-1.7.5-3.5.8-5.5.8s-3.8-.3-5.5-.8c-1.7-.5-3.1-1.4-4.3-2.5-1.2-1.1-2.1-2.5-2.8-4.1-.7-1.6-1-3.5-1-5.5 0-2.1.4-3.9 1-5.5zm22 .3c-.5-1.5-1.2-2.7-2.1-3.6-.9-1-2-1.7-3.2-2.1-1.2-.4-2.6-.7-4-.7s-2.7.2-3.9.7c-1.2.5-2.3 1.2-3.2 2.1-.9 1-1.6 2.2-2.1 3.6s-.8 3.2-.8 5.2.3 3.8.8 5.2c.5 1.5 1.2 2.7 2.1 3.6.9 1 2 1.7 3.2 2.1 1.2.5 2.5.7 3.9.7s2.8-.2 4-.7c1.2-.5 2.3-1.2 3.2-2.1.9-1 1.6-2.2 2.1-3.6.5-1.5.8-3.2.8-5.2s-.3-3.8-.8-5.2zm20.5 8.2c-3.2-3.4-6.3-6.7-9.5-10.1 0 .7 0 1.6-.1 2.7v9c0 .8 0 1.7.1 2.5 0 .8 0 1.6.1 2.4.1.8 0 1.4.1 1.9 0 .5 0 .9.1 1.1-.4 0-.8-.1-1.3-.1s-.9 0-1.3.1c0-.2.1-.7.2-1.3.1-.6.1-1.4.2-2.3 0-.9.1-1.9.2-3s.1-2.1.1-3.2.1-2.1.1-3.1V254c0-1.7 0-2.9-.1-3.7h.6c1.5 1.6 3.1 3.3 4.7 5.1 1.7 1.8 3.4 3.6 5 5.4 1.7 1.8 3.2 3.5 4.7 5.1 1.5 1.6 2.8 2.9 3.9 4.1v-4.9c0-2.5 0-5-.1-7.4 0-2.4-.1-4.7-.2-6.8.5.1.9.2 1.2.2.3 0 .7-.1 1.2-.2 0 .5-.1 1.3-.2 2.4-.1 1.1-.1 2.2-.2 3.4-.1 1.2-.1 2.4-.2 3.6-.1 1.2-.1 2.1-.1 2.8v13.3h-.5c-2.6-3.6-5.5-6.9-8.7-10.3zm-426.7 11.6c1.3-1.5 2.9-3.6 4.1-5.9-.7 0-.9.1-1.4 0-.4 0-.6 0-1.1-.2-.3.6-.6 1.4-1 2.3-.4.9-.8 1.8-1.3 2.8-.1.3-.2.4-.3.6.4.3 1 .4 1 .4z" fill="#000"/><path d="M24.5 455.3c-7.6 0-13.6-3.1-18-8.7-4.1-5.3-6.3-12.3-6.3-20.7 0-6.7 1.3-12.5 3.8-17.2 4.3-8.2 11.9-13.3 20.8-13.3 5.5 0 10.6 1.6 14.2 4.5l-3.9 5.3c-3.2-2.4-6.4-3.4-10.2-3.4-5.7 0-10.2 2.9-12.9 8.3-1.8 3.7-2.8 8.6-2.8 15.5 0 6.5.7 10.2 2.1 13.6 2.7 6.4 8.1 9.4 14.2 9.4 4.5 0 7.6-1.2 10.7-3.6l3.9 5.3c-4.4 3.4-9.7 5-15.6 5zm50.2-.9v-28.9c0-2.9-.6-5-1.4-5.9-.8-.8-2.6-1.6-4.6-1.6-3.6 0-7.9 2.4-11.2 6.1v30.2h-7.8v-51.2c0-3.6-.3-6.4-.9-8.8l7.8-1.6c.6 2.5.9 5.6.9 9.7v9.4c0 1.5-.1 3.4-.3 5.6 1.8-1.7 2.8-2.4 4.5-3.4 3.1-2 6-2.9 9.2-2.9 5 0 9.3 2.5 10.6 6.3.7 1.9.8 3 .8 6.8v30h-7.6v.2zm49.9 1.8c-2.6-1-4.6-3.1-5.6-6-1.1 1.3-4.6 5.5-11.9 5.5-8.4 0-13.6-4.3-13.6-12.3 0-9.7 7.8-15 21.4-15 1 0 1.8 0 2.9.1v-2.8c0-5-.7-8.3-6.6-8.3-4.5 0-9.5 2.2-12.9 4.8l-3.5-5.5c4.1-2.4 9.5-5.5 17.6-5.5 6.1 0 10.6 2.3 12.2 6.7.7 1.8.8 3.3.8 7.4 0 3-.3 9.5-.3 15.6 0 5.8.2 8.1 3.4 10.2l-3.9 5.1zm-9.5-22.6c-5.8 0-9.3 1.1-11 3-1.6 1.8-2.2 3.4-2.2 6.1 0 4.6 2.4 7.3 6.6 7.3 3.5 0 6.9-2.2 8.8-5.5l.3-10.8c-1.2 0-1.8-.1-2.5-.1zm48.8 20.8V426c0-3.8-.3-5.1-1.3-6.5-.8-1.1-2.4-1.7-4.3-1.7-3 0-7.6 2.4-10.4 5.4v31.2h-7.6v-31.3c0-5-.4-7-1.6-10l7.3-2c1 2 1.4 3.9 1.4 6.5 2.7-2.3 3.9-3.2 5.5-4.1 2.4-1.4 5.2-2.1 7.8-2.1 4.5 0 8.4 2.4 9.9 6 .7 1.5 1 3.4 1 5.3v31.8h-7.7v-.1zm53.5-36.1c-1.3 0-1.6-.1-3.6-.7 2.2 2.8 3 5 3 7.7 0 6-4.1 13-15.1 13-2.6.8-6.6 2.8-6.6 4.6 0 1.3 1 2.1 3 2.1h6.5c10.8 0 15.2 5 15.2 11.6 0 9.1-7.5 13.6-17.7 13.6-11.8 0-18.5-4.1-18.5-11.1 0-1.8.3-3 .8-4.3l7.6-.4c-.3.7-.8 2-.8 3.2 0 4.4 3.6 6.7 10.2 6.7 6.9 0 10.3-2.8 10.3-7.2 0-4-3.3-6.4-11.6-6.4-2.9 0-6.3-.3-7.9-.4-3.7-.4-5.9-2.5-5.9-5.6 0-3.9 3.4-5.6 8.2-7.4-6.5-1.9-9.9-6.3-9.9-12.1 0-8.5 6.5-14.1 16.1-14.1 2.3 0 4 .2 6.6.9 2.2.7 4.5 1.3 6.3 1.3 2.5 0 4.6-.8 6.9-2.4l3.9 4.8c-2.4 1.9-4.4 2.6-7 2.6zm-16.9-1.1c-5 0-7.6 2.7-7.6 8.1 0 5.2 2.8 7.8 7.7 7.8 5 0 7.6-2.8 7.6-8 0-5.4-2.4-7.9-7.7-7.9zm35.2-12.2c-3 0-5.4-2.5-5.4-5.5 0-3.1 2.4-5.6 5.5-5.6 3 0 5.5 2.4 5.5 5.6 0 2.9-2.5 5.5-5.6 5.5zm-3.9 49.4v-41.8l8-1.3v43.1h-8zm46.6 0V426c0-3.8-.3-5.1-1.3-6.5-.8-1.1-2.4-1.7-4.3-1.7-3 0-7.6 2.4-10.4 5.4v31.2h-7.6v-31.3c0-5-.4-7-1.6-10l7.3-2c1 2 1.4 3.9 1.4 6.5 2.7-2.3 3.9-3.2 5.5-4.1 2.4-1.4 5.2-2.1 7.8-2.1 4.5 0 8.4 2.4 9.9 6 .7 1.5 1 3.4 1 5.3v31.8h-7.7v-.1zm53.5-36.1c-1.3 0-1.6-.1-3.6-.7 2.2 2.8 3 5 3 7.7 0 6-4.1 13-15.1 13-2.6.8-6.6 2.8-6.6 4.6 0 1.3 1 2.1 3 2.1h6.5c10.8 0 15.2 5 15.2 11.6 0 9.1-7.5 13.6-17.7 13.6-11.8 0-18.5-4.1-18.5-11.1 0-1.8.3-3 .8-4.3l7.6-.4c-.3.7-.8 2-.8 3.2 0 4.4 3.6 6.7 10.2 6.7 6.9 0 10.3-2.8 10.3-7.2 0-4-3.3-6.4-11.6-6.4-2.9 0-6.3-.3-7.9-.4-3.7-.4-5.9-2.5-5.9-5.6 0-3.9 3.4-5.6 8.2-7.4-6.5-1.9-9.9-6.3-9.9-12.1 0-8.5 6.5-14.1 16.1-14.1 2.3 0 4 .2 6.6.9 2.2.7 4.5 1.3 6.3 1.3 2.5 0 4.6-.8 6.9-2.4l3.9 4.8c-2.4 1.9-4.4 2.6-7 2.6zm-16.9-1.1c-5 0-7.6 2.7-7.6 8.1 0 5.2 2.8 7.8 7.7 7.8 5 0 7.6-2.8 7.6-8 0-5.4-2.4-7.9-7.7-7.9zm94.9 37.2v-30.2c0-4.8-1.5-6.5-5-6.5-3.9 0-6.6 2.5-9.8 5.7v30.9h-7.6v-30c0-4.7-1.3-6.5-5.2-6.5-2.9 0-6 1.4-9.7 4.9v31.6H365v-30.9c0-6-.3-7.6-1.5-10.5l7.2-1.8c.8 1.4 1.4 3.5 1.4 5.9 3.6-3.8 7.9-6 11.8-6 3.9 0 7.9 2.1 10 6.6 4.2-4.5 8.6-6.6 12.9-6.6 6.6 0 10.8 4.1 10.8 11.8v31.4h-7.7v.2zm37.9 1.2c-11.3 0-18.2-8.6-18.2-22.3 0-13.6 7-22.2 18.1-22.2 12.4 0 18.5 9.9 18.5 22.6-.1 13.4-7.2 21.9-18.4 21.9zm-.2-38.5c-6.7 0-9.5 4.8-9.5 15.4 0 12.9 3.3 17.1 9.8 17.1 5.9 0 9.5-4.5 9.5-15.5.1-13-3.7-17-9.8-17zm49.2 2.1c-.8-.3-1.3-.4-2.2-.4-4.7 0-8.7 3.9-8.7 8.6v27.1h-7.7v-30.9c0-5.1-.6-7.9-1.6-10.5l7.5-1.9c.8 1.6 1.4 4.4 1.4 6.5v.8c3.4-4.9 7-7.3 11.4-7.3 1 0 1.9.2 2.6.4l-2.7 7.6zM513 435v1c0 3.6.5 6.4 1.8 8.4 2.2 3.4 5.6 5 9.7 5 3.9 0 7.3-1.3 10.3-4l2.9 4.6c-4.1 3.6-9.1 5.4-14.5 5.4-11.7 0-18.8-8.5-18.8-22.3 0-7.3 1.4-12 5-16.3 3.4-3.9 7.5-5.8 12.7-5.8 4.7 0 8.5 1.5 11.4 4.5 3.7 3.8 5 8.5 5.1 18.1v1.3H513v.1zm14.9-15.2c-1.3-1.7-3.4-2.9-6-2.9-5.9 0-8.8 4.8-8.8 12.4h17.5c-.1-4-1-7.4-2.7-9.5zm56.9-2h-8.3v25.4c0 5.2 1.3 6.8 5.5 6.8 1.4 0 2.6-.3 3.9-.8l.9 4.7c-2.4 1.2-4.9 1.8-7.6 1.8-2.2 0-5.5-.6-7.4-2.3-1.7-1.5-2.9-2.6-2.9-8.4v-27.1h-5v-5.5h5c0-3.3.1-7.6.5-10.8l8-1.8c-.3 3-.8 8.3-.8 12.6h10.2l-2 5.4zm36.6 36.6v-28.9c0-2.9-.6-5-1.4-5.9-.8-.8-2.6-1.6-4.6-1.6-3.6 0-7.9 2.4-11.2 6.1v30.2h-7.8v-51.2c0-3.6-.3-6.4-.9-8.8l7.8-1.6c.6 2.5.9 5.6.9 9.7v9.4c0 1.5-.1 3.4-.3 5.6 1.8-1.7 2.8-2.4 4.5-3.4 3.1-2 6-2.9 9.2-2.9 5 0 9.3 2.5 10.6 6.3.7 1.9.8 3 .8 6.8v30h-7.6v.2zm49.9 1.8c-2.6-1-4.6-3.1-5.6-6-1.1 1.3-4.6 5.5-11.9 5.5-8.4 0-13.6-4.3-13.6-12.3 0-9.7 7.8-15 21.4-15 1 0 1.8 0 2.9.1v-2.8c0-5-.7-8.3-6.6-8.3-4.5 0-9.5 2.2-12.9 4.8l-3.5-5.5c4.1-2.4 9.5-5.5 17.6-5.5 6.1 0 10.6 2.3 12.2 6.7.7 1.8.8 3.3.8 7.4 0 3-.3 9.5-.3 15.6 0 5.8.2 8.1 3.4 10.2l-3.9 5.1zm-9.5-22.6c-5.8 0-9.3 1.1-11 3-1.6 1.8-2.2 3.4-2.2 6.1 0 4.6 2.4 7.3 6.6 7.3 3.5 0 6.9-2.2 8.8-5.5l.3-10.8c-1.1 0-1.8-.1-2.5-.1zm48.8 20.8V426c0-3.8-.3-5.1-1.3-6.5-.8-1.1-2.4-1.7-4.3-1.7-3 0-7.6 2.4-10.4 5.4v31.2H687v-31.3c0-5-.4-7-1.6-10l7.3-2c1 2 1.4 3.9 1.4 6.5 2.7-2.3 3.9-3.2 5.5-4.1 2.4-1.4 5.2-2.1 7.8-2.1 4.5 0 8.4 2.4 9.9 6 .7 1.5 1 3.4 1 5.3v31.8h-7.7v-.1zm69.6 1.8c-2.6-1-4.6-3.1-5.6-6-1.1 1.3-4.6 5.5-11.9 5.5-8.4 0-13.6-4.3-13.6-12.3 0-9.7 7.8-15 21.4-15 1 0 1.8 0 2.9.1v-2.8c0-5-.7-8.3-6.6-8.3-4.5 0-9.5 2.2-12.9 4.8l-3.5-5.5c4.1-2.4 9.5-5.5 17.6-5.5 6.1 0 10.6 2.3 12.2 6.7.7 1.8.8 3.3.8 7.4 0 3-.3 9.5-.3 15.6 0 5.8.2 8.1 3.4 10.2l-3.9 5.1zm-9.5-22.6c-5.8 0-9.3 1.1-11 3-1.6 1.8-2.2 3.4-2.2 6.1 0 4.6 2.4 7.3 6.6 7.3 3.5 0 6.9-2.2 8.8-5.5l.3-10.8c-1.2 0-1.8-.1-2.5-.1zm67.5 20.8V426c0-3.8-.3-5.1-1.3-6.5-.8-1.1-2.4-1.7-4.3-1.7-3 0-7.6 2.4-10.4 5.4v31.2h-7.6v-31.3c0-5-.4-7-1.6-10l7.3-2c1 2 1.4 3.9 1.4 6.5 2.7-2.3 3.9-3.2 5.5-4.1 2.4-1.4 5.2-2.1 7.8-2.1 4.5 0 8.4 2.4 9.9 6 .7 1.5 1 3.4 1 5.3v31.8h-7.7v-.1zm50 1.8c-2.6-1-4.6-3.1-5.6-6-1.1 1.3-4.6 5.5-11.9 5.5-8.4 0-13.6-4.3-13.6-12.3 0-9.7 7.8-15 21.4-15 1 0 1.8 0 2.9.1v-2.8c0-5-.7-8.3-6.6-8.3-4.5 0-9.5 2.2-12.9 4.8l-3.5-5.5c4.1-2.4 9.5-5.5 17.6-5.5 6.1 0 10.6 2.3 12.2 6.7.7 1.8.8 3.3.8 7.4 0 3-.3 9.5-.3 15.6 0 5.8.2 8.1 3.4 10.2l-3.9 5.1zm-9.5-22.6c-5.8 0-9.3 1.1-11 3-1.6 1.8-2.2 3.4-2.2 6.1 0 4.6 2.4 7.3 6.6 7.3 3.5 0 6.9-2.2 8.8-5.5l.3-10.8c-1.1 0-1.8-.1-2.5-.1zm70.1 20.8v-30.2c0-4.8-1.5-6.5-5-6.5-3.9 0-6.6 2.5-9.8 5.7v30.9h-7.6v-30c0-4.7-1.3-6.5-5.2-6.5-2.9 0-6 1.4-9.7 4.9v31.6h-7.6v-30.9c0-6-.3-7.6-1.5-10.5l7.2-1.8c.8 1.4 1.4 3.5 1.4 5.9 3.6-3.8 7.9-6 11.8-6 3.9 0 7.9 2.1 10 6.6 4.2-4.5 8.6-6.6 12.9-6.6 6.6 0 10.8 4.1 10.8 11.8v31.4h-7.7v.2zm28.7-19.4v1c0 3.6.5 6.4 1.8 8.4 2.2 3.4 5.6 5 9.7 5 3.9 0 7.3-1.3 10.3-4l2.9 4.6c-4.1 3.6-9.1 5.4-14.5 5.4-11.7 0-18.8-8.5-18.8-22.3 0-7.3 1.4-12 5-16.3 3.4-3.9 7.5-5.8 12.7-5.8 4.7 0 8.5 1.5 11.4 4.5 3.7 3.8 5 8.5 5.1 18.1v1.3h-25.6v.1zm14.9-15.2c-1.3-1.7-3.4-2.9-6-2.9-5.9 0-8.8 4.8-8.8 12.4h17.5c-.1-4-1-7.4-2.7-9.5z" fill="#656564"/></g></svg>