<svg id="Logo" xmlns="http://www.w3.org/2000/svg" viewBox="0 0 509.9 334.56"><title>cass-logo-white</title><path d="M336.84,316.93l4.76-6.72c1.53-2.19,2.94-4.2,4.24-6.09s2.35-3.46,3.18-4.78a7.41,7.41,0,0,0,1.76.26,6.18,6.18,0,0,0,1.65-.26q-.15,3.42-.26,7.69c-.07,2.85-.1,5.76-.1,8.76v5.69a20.27,20.27,0,0,0,2.85-.13c.91-.13,1.64-.19,2.22-.29a5.86,5.86,0,0,0,0,3.42,20.63,20.63,0,0,0-2.22-.24c-.91,0-1.85-.07-2.85-.07v2.17c0,1.36,0,2.73.1,4.18s.13,2.55.2,3.38c-.68-.06-1.45-.09-2.27-.09a18.32,18.32,0,0,0-2.28.09c.08-.89.16-2,.27-3.46s.15-2.77.15-4.09v-2.17H344.8l-4.71.07c-1.64,0-3.2.08-4.67.13l-3.31.13v-.94l4.73-6.66m11.3-12.83q-1.09,1.51-2.74,3.85L342,312.79q-1.77,2.5-3.34,4.84t-2.46,3.83h12.06V304.1h-.1Zm-39.9,28.3A6.8,6.8,0,0,0,311,333a7.51,7.51,0,0,0,4.78-1.55,11.64,11.64,0,0,0,3.24-4.06,21.69,21.69,0,0,0,1.83-5.61,32.43,32.43,0,0,0,.6-6.21h-.1A9.72,9.72,0,0,1,318.1,319a9.17,9.17,0,0,1-5.15,1.35,10,10,0,0,1-7.37-2.66c-1.77-1.79-2.66-4.32-2.66-7.63a11.6,11.6,0,0,1,.81-4.4,10.07,10.07,0,0,1,2.29-3.5,10.89,10.89,0,0,1,3.62-2.32,12.55,12.55,0,0,1,4.77-.86,12.2,12.2,0,0,1,4.43.81,9.29,9.29,0,0,1,3.66,2.59A13.08,13.08,0,0,1,325,307a21.8,21.8,0,0,1,1,6.9,30.44,30.44,0,0,1-1,8.06,20.94,20.94,0,0,1-3,6.57,14.11,14.11,0,0,1-4.78,4.34,13.15,13.15,0,0,1-6.44,1.55,11.73,11.73,0,0,1-2.44-.23,15.59,15.59,0,0,1-1.66-.44c-.09-.38-.25-.85-.44-1.39a9,9,0,0,0-.59-1.4l.26-.15a9,9,0,0,0,2.38,1.55m11.09-29.47a6.22,6.22,0,0,0-5-2.24,6,6,0,0,0-5,2.51,11.2,11.2,0,0,0-1.89,6.9c0,3,.57,5.14,1.71,6.44a5.86,5.86,0,0,0,4.65,1.93,6,6,0,0,0,3.19-.83,7.41,7.41,0,0,0,2.29-2.17,10.46,10.46,0,0,0,1.43-3.11,13.84,13.84,0,0,0,.48-3.62,8.77,8.77,0,0,0-1.89-5.83m-44.28,15.81a10.6,10.6,0,0,1,5.77-4v-.36a6.57,6.57,0,0,1-2-.81A7.61,7.61,0,0,1,277,312a7.26,7.26,0,0,1-1.34-2.15,6.72,6.72,0,0,1-.52-2.69,7.37,7.37,0,0,1,.7-3.13,8.46,8.46,0,0,1,2-2.6,9.52,9.52,0,0,1,3-1.81,11.15,11.15,0,0,1,4-.68,13.61,13.61,0,0,1,4.44.65,9.34,9.34,0,0,1,3,1.68,6.81,6.81,0,0,1,1.79,2.4,7.31,7.31,0,0,1,.59,2.88,7.8,7.8,0,0,1-1.47,4.57,8.16,8.16,0,0,1-4.31,3v.36a12.57,12.57,0,0,1,2.17.64,8.54,8.54,0,0,1,2.46,1.51,8.78,8.78,0,0,1,2,2.61,8.64,8.64,0,0,1,.83,4,11.58,11.58,0,0,1-.91,4.65,10.55,10.55,0,0,1-2.48,3.54,10.1,10.1,0,0,1-3.68,2.2,13.54,13.54,0,0,1-4.46.73,17,17,0,0,1-4.55-.6,9.72,9.72,0,0,1-3.68-1.9,9.11,9.11,0,0,1-2.43-3.14,10,10,0,0,1-.89-4.3,10.35,10.35,0,0,1,1.73-5.79m15.13-14a5.78,5.78,0,0,0-1-2.09,5.16,5.16,0,0,0-1.73-1.45,6.13,6.13,0,0,0-5,0,4.86,4.86,0,0,0-1.73,1.45,6.3,6.3,0,0,0-1,2.09,10.31,10.31,0,0,0-.31,2.53,10.67,10.67,0,0,0,.31,2.52,6.07,6.07,0,0,0,1,2.12,5.05,5.05,0,0,0,1.73,1.45,6.13,6.13,0,0,0,5,0,5.37,5.37,0,0,0,1.73-1.45,5.91,5.91,0,0,0,1-2.12,10.17,10.17,0,0,0,.31-2.52,9.85,9.85,0,0,0-.31-2.53m1.16,16a8.5,8.5,0,0,0-1.39-2.73,6.62,6.62,0,0,0-8-1.81,6.3,6.3,0,0,0-2.19,1.81,8.52,8.52,0,0,0-1.4,2.73,12.62,12.62,0,0,0,0,7,8.57,8.57,0,0,0,1.4,2.74,6.59,6.59,0,0,0,8,1.8,6.51,6.51,0,0,0,2.2-1.8,8.55,8.55,0,0,0,1.39-2.74,12.44,12.44,0,0,0,0-7m-39.63-15a4.54,4.54,0,0,0-1.55-1.65v-.36c2-.8,4-1.66,6-2.61s4-1.87,5.76-2.76l.36.25c-.13,2.28-.24,4.53-.31,6.75s-.1,4.48-.1,6.75v8.64q0,3.42.1,6.69t.31,6.43a8.11,8.11,0,0,0-1.21-.09h-2.44a8.11,8.11,0,0,0-1.21.09c.17-2.13.28-4.29.33-6.46s.08-4.39.08-6.67V302.34ZM216.33,301H213.5a28.3,28.3,0,0,0-2.94.1c-.94.1-1.93.11-2.85.18s-1.73.16-2.46.26a6.18,6.18,0,0,0,.26-1.65,6.68,6.68,0,0,0-.26-1.6l6.68.18q3.25.07,6.68.07t6.66-.07l6.68-.18a7.18,7.18,0,0,0-.26,1.66,6.22,6.22,0,0,0,.26,1.6c-.73-.1-1.54-.2-2.45-.26s-1.87-.13-2.85-.18-2-.08-2.94-.1h-2.82c-.1,3.54-.16,7.11-.16,10.71v8.89c0,2.28.05,4.51.14,6.72s.18,4.38.29,6.51c-.8-.06-1.64-.09-2.53-.09a23.12,23.12,0,0,0-2.54.09c.1-2.13.2-4.3.28-6.51s.14-4.44.14-6.72v-8.89q0-5.4-.15-10.71m-35.07,28a8.72,8.72,0,0,0,7.06,3.49,7.76,7.76,0,0,0,3.08-.6,6.92,6.92,0,0,0,3.81-4,8.26,8.26,0,0,0,.51-2.91,5.56,5.56,0,0,0-1.22-3.78,9.84,9.84,0,0,0-3-2.32,34.86,34.86,0,0,0-3.91-1.72,20.22,20.22,0,0,1-3.9-1.93,10.71,10.71,0,0,1-3-3,8.53,8.53,0,0,1-1.22-4.85,10,10,0,0,1,.77-4,8.8,8.8,0,0,1,2.25-3.08,10.53,10.53,0,0,1,3.54-2,13.94,13.94,0,0,1,4.66-.73,13.51,13.51,0,0,1,4.28.6,10.8,10.8,0,0,1,3.37,1.82,12.73,12.73,0,0,0-.78,1.87c-.21.66-.41,1.49-.62,2.48h-.62a13.09,13.09,0,0,0-.7-1.58,6.13,6.13,0,0,0-1.19-1.58,7.18,7.18,0,0,0-1.78-1.21,5.6,5.6,0,0,0-2.49-.49,7.29,7.29,0,0,0-2.65.46,6.66,6.66,0,0,0-2.12,1.31,5.94,5.94,0,0,0-1.4,2.06,6.71,6.71,0,0,0-.48,2.58,5.65,5.65,0,0,0,1.21,3.83,10.7,10.7,0,0,0,3,2.35,29.43,29.43,0,0,0,3.91,1.7,21.7,21.7,0,0,1,3.9,1.84,10,10,0,0,1,3,2.79,7.69,7.69,0,0,1,1.22,4.55,11.77,11.77,0,0,1-.86,4.5,10.76,10.76,0,0,1-2.48,3.7,10.91,10.91,0,0,1-4,2.43,15.7,15.7,0,0,1-5.35.86,13.38,13.38,0,0,1-5.2-.86,14.39,14.39,0,0,1-3.33-1.93,14.78,14.78,0,0,0,.65-2.15q.18-1,.33-2.46h.62a10,10,0,0,0,1.11,1.9m-28.19-24q-.14-3.31-.28-6.61l4.63.18c1.53,0,3.08.07,4.63.07s3.08,0,4.61-.07l4.6-.18a8.08,8.08,0,0,0,0,3.1l-3-.21-2.91-.2c-1-.07-2.12-.13-3.33-.19s-2.65-.07-4.34-.07c0,1.11-.07,2.15-.13,3.15s-.08,2.14-.08,3.41v6.83c1.52,0,2.88,0,4.09-.06s2.31-.07,3.3-.12l2.77-.15c.84-.06,1.65-.11,2.4-.19a8.58,8.58,0,0,0-.15,1.6,8.06,8.06,0,0,0,.15,1.55c-.89-.1-1.93-.18-3.12-.25s-2.38-.11-3.57-.14h-5.87V328.8c0,1.27,0,2.25.07,2.9h3.62c1.32,0,2.6,0,3.86-.08s2.45-.11,3.57-.2a23.65,23.65,0,0,0,2.91-.39,3.6,3.6,0,0,0-.12.8v.8a5.06,5.06,0,0,0,.15,1.34c-1.55-.07-3.09-.1-4.63-.09h-9.39c-1.55,0-3.12,0-4.71.09.1-2.19.2-4.4.28-6.58s.14-4.43.14-6.7v-8.9q0-3.41-.14-6.72" fill="#fff"/><path d="M129.91,319.86H2.35A2,2,0,1,1,1.51,316a2,2,0,0,1,.84,0H129.91a2,2,0,1,1,.84,3.91A2,2,0,0,1,129.91,319.86Z" fill="#fff"/><path d="M507.49,319.91H379.93a2,2,0,0,1,0-4H507.49a2,2,0,0,1,0,4Z" fill="#fff"/><path d="M507.9,4H2A2,2,0,0,1,2,0H507.9a2,2,0,1,1,0,4Z" fill="#fff"/><path d="M130.9,59.09h-2.18q-1.09-2-3.27-5.46a24.71,24.71,0,0,0-6.76-6.76,45.65,45.65,0,0,0-12.22-5.78q-7.64-2.51-19.42-2.51-27.49,0-41.68,17T31.19,103.8q0,2.83.22,7.86a77.27,77.27,0,0,0,1.42,11.24A73.21,73.21,0,0,0,36.75,136a56.1,56.1,0,0,0,7.75,13.42,48.38,48.38,0,0,0,6.66,7.42,51,51,0,0,0,8.62,6.33,43.6,43.6,0,0,0,10.8,4.47A51,51,0,0,0,84,169.29,63.1,63.1,0,0,0,101.77,167a58.29,58.29,0,0,0,24.33-13.89,115.85,115.85,0,0,0,8.31-8.71l2.4,1.53-2.4,21.6Q109.53,181.3,79.2,181.29a91.5,91.5,0,0,1-30.11-4.91A71.79,71.79,0,0,1,24.31,162a68,68,0,0,1-16.8-23.67q-6.22-14.18-6.22-32.51A91.09,91.09,0,0,1,6.41,75,67.94,67.94,0,0,1,22,49.92Q32.48,39.22,48.52,33t37.89-6.22a128,128,0,0,1,25.75,2.51,121.27,121.27,0,0,1,25.31,8.4Z" fill="#fff"/><path d="M243.71,154l-9.16-23.13q-7-.44-14-.66t-14-.22q-6.56,0-13.09.22t-13.09.66q-5.24,12.66-10,25.31t-7.42,22c-1.45-.29-3.12-.58-5-.87a35.68,35.68,0,0,0-5.46-.44,27.56,27.56,0,0,0-5.13.44l-4.69.87L168,121.89q8.29-18.54,14.84-33.28t11.46-26.29q4.91-11.57,8.29-20.4t5.35-15.6c1.16.29,2.32.55,3.49.76a21,21,0,0,0,3.71.33,26.35,26.35,0,0,0,7-1.09q3.93,11.13,8.18,22.26T238.81,70q4.26,10.26,8,19.31t6.76,15.82q3,7.2,7.2,16.47t8.51,19.2q4.37,9.93,8.73,19.75t8.07,17.67q-2.4-.22-7.42-.76a88,88,0,0,0-9.6-.55,70.52,70.52,0,0,0-8.84.55q-4.25.56-7.31.76Zm-36-90.34-22.3,53.68q5.67.23,11.35.55t11.35.33c3.33,0,6.67-.07,10-.22s6.67-.36,10-.65Z" fill="#fff"/><path d="M303.29,145.5a61.4,61.4,0,0,0,7.64,13.2,32.41,32.41,0,0,0,8.18,7.53,26.18,26.18,0,0,0,8.73,3.49,48,48,0,0,0,9.27.87,31.81,31.81,0,0,0,11.78-2.07,26.86,26.86,0,0,0,8.95-5.67,25.31,25.31,0,0,0,5.78-8.62,28.3,28.3,0,0,0,2.07-10.91,24.94,24.94,0,0,0-2.18-11,27.35,27.35,0,0,0-5.13-7.42,23.48,23.48,0,0,0-6-4.47q-3.06-1.52-4.58-2.18-4.57-2-11.24-4.58T325.32,109a71,71,0,0,1-13.2-7.42A35.21,35.21,0,0,1,303.61,93a30.92,30.92,0,0,1-4.47-10.26,53.83,53.83,0,0,1-1.31-12.33,50.22,50.22,0,0,1,2.4-15,36.9,36.9,0,0,1,8.18-14.06A43.71,43.71,0,0,1,324,30.94q9.83-4.14,24.66-4.15,12,0,20.08,2.62a148.91,148.91,0,0,1,16.15,6.33q-1.75,3.93-2.73,6.55T380.53,47q-.64,2.09-1.2,4.26t-1.2,5.24h-3.05a22.43,22.43,0,0,0-10.26-14.18,34.5,34.5,0,0,0-18.33-4.8q-12.89,0-19.31,7A23.62,23.62,0,0,0,320.74,61a20.05,20.05,0,0,0,8,17,40,40,0,0,0,9.49,5.46q5.67,2.4,12.87,5.24,6.33,2.4,10.8,4.25t8,3.6a40.92,40.92,0,0,1,6,3.6,35.26,35.26,0,0,1,4.91,4.47,34,34,0,0,1,5.56,7.75,42.41,42.41,0,0,1,3.16,8,52,52,0,0,1,1.53,7.42,46.74,46.74,0,0,1,.44,5.67,49.67,49.67,0,0,1-3.05,16.8,42.86,42.86,0,0,1-9.71,15.38,50.48,50.48,0,0,1-17.13,11.24q-10.47,4.37-25.53,4.36a69.56,69.56,0,0,1-13.2-1.2,85.23,85.23,0,0,1-11.35-3q-5.13-1.74-9.27-3.6t-7-3.38q1.31-4.14,2.18-7.09a48.25,48.25,0,0,0,1.31-5.56q.44-2.62.76-5.35t.76-6.66h3.05Z" fill="#fff"/><path d="M420.41,145.5a61.4,61.4,0,0,0,7.64,13.2,32.41,32.41,0,0,0,8.18,7.53,26.18,26.18,0,0,0,8.73,3.49,48,48,0,0,0,9.27.87A31.81,31.81,0,0,0,466,168.52a26.86,26.86,0,0,0,8.95-5.67,25.31,25.31,0,0,0,5.78-8.62,28.3,28.3,0,0,0,2.07-10.91,24.94,24.94,0,0,0-2.18-11,27.35,27.35,0,0,0-5.13-7.42,23.48,23.48,0,0,0-6-4.47q-3.06-1.52-4.58-2.18-4.57-2-11.24-4.58T442.5,109a71,71,0,0,1-13.2-7.42A35.37,35.37,0,0,1,420.79,93a30.92,30.92,0,0,1-4.47-10.26A53.83,53.83,0,0,1,415,70.38a50.22,50.22,0,0,1,2.4-14.95,36.81,36.81,0,0,1,8.18-14.07,43.71,43.71,0,0,1,15.6-10.47q9.82-4.14,24.66-4.15,12,0,20.08,2.62a148.91,148.91,0,0,1,16.15,6.33q-1.75,3.93-2.73,6.55T497.7,47q-.65,2.09-1.2,4.26t-1.2,5.24h-3.05A22.43,22.43,0,0,0,482,42.33a34.5,34.5,0,0,0-18.33-4.8q-12.89,0-19.31,7A23.61,23.61,0,0,0,437.92,61a20.05,20.05,0,0,0,8,17,40,40,0,0,0,9.49,5.46q5.67,2.4,12.87,5.24,6.33,2.4,10.8,4.25t8,3.6a40.92,40.92,0,0,1,6,3.6,35.26,35.26,0,0,1,4.91,4.47,34,34,0,0,1,5.56,7.75,42.41,42.41,0,0,1,3.16,8,52,52,0,0,1,1.53,7.42,46.74,46.74,0,0,1,.44,5.67,49.67,49.67,0,0,1-3.05,16.8,42.86,42.86,0,0,1-9.71,15.38,50.48,50.48,0,0,1-17.13,11.24q-10.47,4.37-25.53,4.36a69.56,69.56,0,0,1-13.2-1.2,85.23,85.23,0,0,1-11.35-3q-5.13-1.74-9.27-3.6t-7-3.38q1.31-4.14,2.18-7.09a48.25,48.25,0,0,0,1.31-5.56q.44-2.62.76-5.35t.76-6.66h3Z" fill="#fff"/><path d="M28,223.92a9.55,9.55,0,0,1-.4,2.86,10,10,0,0,1-1,2.21,8.77,8.77,0,0,1-1.15,1.55l-.92,1a10.32,10.32,0,0,1-1.4,1.15,10.94,10.94,0,0,1-2,1.06,15.09,15.09,0,0,1-2.89.8,22.33,22.33,0,0,1-4,.32c-1.22,0-2.42,0-3.61-.14s-2.39-.14-3.61-.14c-.92,0-1.84,0-2.75.11s-1.83.13-2.75.17q.22-5,.32-10.34t.09-10q0-4.75-.09-9.48t-.42-9.5c.73.08,1.41.14,2.06.17l2.92.11c.31,0,.84,0,1.6-.06s1.56-.07,2.41-.09,1.63,0,2.38-.09,1.27-.06,1.58-.06a24.86,24.86,0,0,1,4.56.4,11.06,11.06,0,0,1,3.81,1.43,7.5,7.5,0,0,1,2.64,2.81,9.55,9.55,0,0,1,1,4.58,7.2,7.2,0,0,1-.86,3.55,9,9,0,0,1-2.23,2.67,11.79,11.79,0,0,1-3.09,1.8,14.57,14.57,0,0,1-3.5.92,26.32,26.32,0,0,1,4.41.8,10.62,10.62,0,0,1,3.61,1.75,8.18,8.18,0,0,1,2.44,3A10.79,10.79,0,0,1,28,223.92ZM8.79,212.4l1.2.09h1.15a8,8,0,0,0,5.79-1.92,7.53,7.53,0,0,0,2-5.7,7,7,0,0,0-1.55-4.73,5.62,5.62,0,0,0-4.53-1.8c-1.33,0-2.67.06-4,.17,0,.77-.07,1.54-.09,2.32s0,1.55,0,2.32v9.23Zm0,14.44V229q0,1.42.09,2.64l1.55.23a8.91,8.91,0,0,0,1.55.11,8.82,8.82,0,0,0,6.25-2c1.45-1.33,2.18-3.41,2.18-6.22a10.63,10.63,0,0,0-.69-4.1A6.63,6.63,0,0,0,17.8,217a7.26,7.26,0,0,0-3-1.4,17.92,17.92,0,0,0-4-.4,12.91,12.91,0,0,0-2.06.17v11.52Z" fill="#fff"/><path d="M42.6,199.86q-.1,3.27-.14,7.16t0,7.62q0,3.44.06,5.64c0,1.47.12,2.68.23,3.64a10.51,10.51,0,0,0,.52,2.35,7.41,7.41,0,0,0,1,1.78,8.17,8.17,0,0,0,3.5,2.58,13.75,13.75,0,0,0,5.27.92,11,11,0,0,0,6-1.63,8.44,8.44,0,0,0,3.52-4.27,8.06,8.06,0,0,0,.32-1.06,11.15,11.15,0,0,0,.23-1.52c.06-.61.11-1.33.14-2.15s0-1.82.06-3q0-5.61-.09-11.2t-.43-11.2l1.26.23a7.35,7.35,0,0,0,1.32.11,9.17,9.17,0,0,0,1.38-.11l1.32-.23-.17,2.75c-.08,1.23-.15,2.82-.2,4.79s-.1,4-.14,6.16-.08,4.24-.11,6.3-.07,3.82-.12,5.27a26.14,26.14,0,0,1-.43,4.41,12.83,12.83,0,0,1-1.12,3.35,9.74,9.74,0,0,1-1.8,2.52,15,15,0,0,1-2.49,2A13.68,13.68,0,0,1,56.82,235a23.37,23.37,0,0,1-5,.57,30,30,0,0,1-5.27-.49,17,17,0,0,1-5-1.72,12.3,12.3,0,0,1-4-3.38,11.21,11.21,0,0,1-2.12-5.47,9.85,9.85,0,0,1-.11-1.63V203.41c0-.89,0-1.8-.06-2.72s0-1.83-.09-2.72-.1-1.71-.12-2.44l2,.23a19,19,0,0,0,2,.11,15.45,15.45,0,0,0,1.92-.11l1.8-.23Z" fill="#fff"/><path d="M76.81,226.21a16,16,0,0,0,2,3.47,8.52,8.52,0,0,0,2.15,2,7,7,0,0,0,2.29.92,12.45,12.45,0,0,0,2.44.23,8.39,8.39,0,0,0,3.09-.54,6.91,6.91,0,0,0,2.35-1.49,6.67,6.67,0,0,0,1.52-2.26,7.43,7.43,0,0,0,.54-2.87,6.55,6.55,0,0,0-.57-2.89,7.31,7.31,0,0,0-1.35-1.95,6.06,6.06,0,0,0-1.58-1.17q-.8-.41-1.2-.57-1.2-.53-3-1.2t-3-1.2A18.49,18.49,0,0,1,79,214.74a9.21,9.21,0,0,1-2.23-2.26,8.07,8.07,0,0,1-1.17-2.69,14.1,14.1,0,0,1-.34-3.24,13.07,13.07,0,0,1,.63-3.92,9.71,9.71,0,0,1,2.15-3.7,11.53,11.53,0,0,1,4.1-2.75,16.6,16.6,0,0,1,6.47-1.09,17.4,17.4,0,0,1,5.27.69,38.39,38.39,0,0,1,4.24,1.66c-.31.67-.55,1.24-.72,1.72s-.32.89-.43,1.23-.22.73-.32,1.12-.2.85-.31,1.38h-.8a5.93,5.93,0,0,0-2.69-3.72,9,9,0,0,0-4.81-1.26A6.58,6.58,0,0,0,83,199.74,6.22,6.22,0,0,0,81.41,204a5.59,5.59,0,0,0,.54,2.61,5.8,5.8,0,0,0,1.55,1.86A10.45,10.45,0,0,0,86,209.91c1,.42,2.12.88,3.38,1.38,1.11.42,2,.79,2.84,1.12s1.48.64,2.09,1a11,11,0,0,1,1.58.95,10.38,10.38,0,0,1,2.75,3.17,11.37,11.37,0,0,1,.83,2.09,14.35,14.35,0,0,1,.4,2A12.3,12.3,0,0,1,100,223a13,13,0,0,1-.8,4.41,11.25,11.25,0,0,1-2.55,4,13.26,13.26,0,0,1-4.5,3,17.42,17.42,0,0,1-6.7,1.15,18.36,18.36,0,0,1-3.47-.31,23.56,23.56,0,0,1-3-.77c-.9-.31-1.71-.62-2.43-1s-1.33-.62-1.83-.89q.35-1.1.57-1.86a12.35,12.35,0,0,0,.34-1.46c.08-.46.14-.93.2-1.4s.12-1.06.2-1.75h.8Z" fill="#fff"/><path d="M108.41,208.74c0-1.83,0-3.8-.06-5.9s-.21-4.54-.52-7.33c.53.08,1.24.16,2.12.23s1.53.11,2,.11a19,19,0,0,0,2-.11l2.06-.23c-.15,1.07-.28,2.43-.37,4.1s-.16,3.43-.2,5.3-.06,3.74-.06,5.59v5q0,6.42.12,11.14t.46,8.22c-.67,0-1.33-.11-2-.2a14.83,14.83,0,0,0-2-.14,15.72,15.72,0,0,0-2.06.14c-.73.09-1.41.16-2.06.2q.46-5.16.54-11.92T108.41,208.74Z" fill="#fff"/><path d="M126,211.6v-8.08q0-4-.09-8c.23,0,.46.07.69.09s.46,0,.69,0H128l.66-.09,4.07,4.41q2,2.17,4.13,4.35l4.41,4.5q2.3,2.33,4.87,4.84l6.76,6.65q.8.79,1.35,1.26c.37.31.87.71,1.52,1.2V210c0-2.45-.07-4.88-.2-7.31s-.3-4.82-.49-7.19l1.09.23a7.14,7.14,0,0,0,1.38.11,6.83,6.83,0,0,0,1.35-.11l1.06-.23c-.11,1.72-.22,3.31-.32,4.76s-.17,2.91-.2,4.38-.07,3-.09,4.64,0,3.48,0,5.59v20.23l-.57-.09a5.42,5.42,0,0,0-.57,0h-.6q-.3,0-.6.09l-4.15-4.38q-2.33-2.43-4.84-5t-5.16-5.21q-2.64-2.64-5.1-5c-1.64-1.57-3.16-3.08-4.55-4.51l-3.61-3.41v9.65c0,1.39,0,2.76.06,4.1s0,2.77.09,4.3v2.09c0,.55,0,1.14.09,1.75s.09,1.33.14,2.15.14,1.88.26,3.18c-.31,0-.71-.11-1.2-.2a7.1,7.1,0,0,0-1.38-.14,6.09,6.09,0,0,0-1.2.11l-1.09.23.46-8c0-.38.07-.91.09-1.58s0-1.38.06-2.12,0-1.45,0-2.12v-9.43Z" fill="#fff"/><path d="M176.74,212.52h2.72c1.09,0,2.22,0,3.41-.06l3.44-.14c1.11-.06,2-.13,2.81-.2-.08.31-.14.62-.2.95a7,7,0,0,0-.09,1.12,5.19,5.19,0,0,0,.29,1.95c-.77-.07-1.51-.13-2.24-.17l-2.18-.11-4-.09h-4V231.3h2.09l3.5-.09,4.12-.2c1.43,0,2.77-.1,4-.17a4.86,4.86,0,0,0-.29,1.89,6.26,6.26,0,0,0,.29,2.06q-5.16-.34-10.54-.34t-10.77.34c.07-1.22.13-2.41.17-3.58s.08-2.36.11-3.58c0-.84.07-1.86.09-3.07s0-2.43.06-3.67,0-2.42.06-3.55,0-2,0-2.66v-3.21q0-2.29-.09-5.13c0-1.89-.09-3.81-.14-5.76s-.14-3.65-.26-5.1l2.36.11,2.74.12,2.8.09h2.53c1.33,0,2.91,0,4.73-.11l5.82-.23-.2.92a4.7,4.7,0,0,0-.09.92,6.08,6.08,0,0,0,.29,2.12l-5.39-.29-1.4-.09h-6.56v13.48Z" fill="#fff"/><path d="M197.77,226.21a16,16,0,0,0,2,3.47,8.52,8.52,0,0,0,2.15,2,7,7,0,0,0,2.29.92,12.45,12.45,0,0,0,2.44.23,8.39,8.39,0,0,0,3.09-.54,6.91,6.91,0,0,0,2.35-1.49,6.67,6.67,0,0,0,1.52-2.26,7.43,7.43,0,0,0,.54-2.87,6.55,6.55,0,0,0-.57-2.89,7.31,7.31,0,0,0-1.35-1.95,6.06,6.06,0,0,0-1.58-1.17q-.79-.41-1.2-.57-1.2-.53-3-1.2t-3-1.2a18.49,18.49,0,0,1-3.47-1.95,9.21,9.21,0,0,1-2.23-2.26,8.07,8.07,0,0,1-1.17-2.69,14.1,14.1,0,0,1-.34-3.24,13.07,13.07,0,0,1,.63-3.92,9.71,9.71,0,0,1,2.15-3.7,11.53,11.53,0,0,1,4.1-2.75,16.6,16.6,0,0,1,6.47-1.09,17.4,17.4,0,0,1,5.27.69,38.39,38.39,0,0,1,4.24,1.66c-.31.67-.55,1.24-.72,1.72s-.32.89-.43,1.23-.22.73-.32,1.12a9.07,9.07,0,0,0-.22,1.32h-.8a5.93,5.93,0,0,0-2.69-3.72,9,9,0,0,0-4.81-1.26,6.58,6.58,0,0,0-5.07,1.83,6.23,6.23,0,0,0-1.69,4.35,5.59,5.59,0,0,0,.54,2.61,5.85,5.85,0,0,0,1.52,1.87,10.45,10.45,0,0,0,2.49,1.43c1,.42,2.12.88,3.38,1.38,1.11.42,2.05.79,2.84,1.12s1.48.64,2.09.95a11,11,0,0,1,1.58,1,10.38,10.38,0,0,1,2.75,3.17,11.37,11.37,0,0,1,.83,2.09,14.35,14.35,0,0,1,.4,2,12.3,12.3,0,0,1,.12,1.49,13,13,0,0,1-.8,4.41,11.25,11.25,0,0,1-2.55,4,13.26,13.26,0,0,1-4.5,3,17.42,17.42,0,0,1-6.7,1.15,18.36,18.36,0,0,1-3.47-.31,23.56,23.56,0,0,1-3-.77c-.9-.31-1.71-.62-2.43-1s-1.33-.62-1.83-.89q.34-1.1.57-1.86a12.35,12.35,0,0,0,.34-1.46c.08-.46.14-.93.2-1.4s.12-1.06.2-1.75h.85Z" fill="#fff"/><path d="M228.54,226.21a16,16,0,0,0,2,3.47,8.52,8.52,0,0,0,2.15,2,7,7,0,0,0,2.29.92,12.45,12.45,0,0,0,2.44.23,8.39,8.39,0,0,0,3.09-.54,6.91,6.91,0,0,0,2.35-1.49,6.73,6.73,0,0,0,1.55-2.29,7.43,7.43,0,0,0,.54-2.87,6.55,6.55,0,0,0-.57-2.89A7.31,7.31,0,0,0,243,220.8a6.06,6.06,0,0,0-1.58-1.17q-.8-.4-1.2-.57-1.2-.52-3-1.2t-3-1.2a18.49,18.49,0,0,1-3.47-1.95,9.21,9.21,0,0,1-2.23-2.26,8.07,8.07,0,0,1-1.17-2.69,14.1,14.1,0,0,1-.34-3.24,13.07,13.07,0,0,1,.63-3.92,9.71,9.71,0,0,1,2.15-3.7,11.53,11.53,0,0,1,4.1-2.75,16.74,16.74,0,0,1,6.49-1.14,17.4,17.4,0,0,1,5.27.69,38.39,38.39,0,0,1,4.24,1.66c-.31.67-.55,1.24-.72,1.72s-.32.89-.43,1.23-.22.73-.32,1.12-.2.85-.31,1.38h-.73a5.93,5.93,0,0,0-2.69-3.72,9,9,0,0,0-4.81-1.26,6.58,6.58,0,0,0-5.07,1.83,6.23,6.23,0,0,0-1.69,4.35,5.59,5.59,0,0,0,.54,2.61,5.8,5.8,0,0,0,1.55,1.86,10.45,10.45,0,0,0,2.49,1.43c1,.42,2.12.88,3.38,1.38,1.11.42,2,.79,2.84,1.12s1.48.64,2.09,1a11,11,0,0,1,1.58.95,10.38,10.38,0,0,1,2.75,3.17,11.37,11.37,0,0,1,.83,2.09,14.35,14.35,0,0,1,.4,2,12.3,12.3,0,0,1,.12,1.49,13,13,0,0,1-.8,4.41,11.25,11.25,0,0,1-2.55,4,13.26,13.26,0,0,1-4.5,3,17.42,17.42,0,0,1-6.7,1.15,18.36,18.36,0,0,1-3.47-.31,23.56,23.56,0,0,1-3-.77c-.9-.31-1.71-.62-2.43-1s-1.33-.62-1.83-.89q.34-1.1.57-1.86a12.35,12.35,0,0,0,.34-1.46c.08-.46.14-.93.2-1.4s.12-1.06.2-1.75h.8Z" fill="#fff"/><path d="M274.2,226.21a16,16,0,0,0,2,3.47,8.52,8.52,0,0,0,2.15,2,7,7,0,0,0,2.29.92,12.45,12.45,0,0,0,2.44.23,8.39,8.39,0,0,0,3.09-.54,6.91,6.91,0,0,0,2.35-1.49,6.67,6.67,0,0,0,1.52-2.26,7.43,7.43,0,0,0,.54-2.87,6.55,6.55,0,0,0-.57-2.89,7.31,7.31,0,0,0-1.35-1.95,6.06,6.06,0,0,0-1.58-1.17q-.79-.41-1.2-.57-1.2-.53-3-1.2t-3-1.2a18.49,18.49,0,0,1-3.47-1.95,9.21,9.21,0,0,1-2.23-2.26,8.07,8.07,0,0,1-1.17-2.69,14.1,14.1,0,0,1-.34-3.24,13.07,13.07,0,0,1,.63-3.92,9.71,9.71,0,0,1,2.15-3.7,11.53,11.53,0,0,1,4.1-2.75,16.6,16.6,0,0,1,6.47-1.09,17.4,17.4,0,0,1,5.27.69,38.39,38.39,0,0,1,4.24,1.66c-.31.67-.55,1.24-.72,1.72s-.32.89-.43,1.23-.22.73-.32,1.12-.2.85-.31,1.38H293a5.91,5.91,0,0,0-2.54-3.78,9,9,0,0,0-4.81-1.26,6.58,6.58,0,0,0-5.07,1.83,6.23,6.23,0,0,0-1.69,4.35,5.59,5.59,0,0,0,.54,2.61,5.8,5.8,0,0,0,1.55,1.86,10.45,10.45,0,0,0,2.49,1.43c1,.42,2.12.88,3.38,1.38s2.05.79,2.84,1.12,1.48.64,2.09.95a11,11,0,0,1,1.58,1,10.38,10.38,0,0,1,2.75,3.17,11.37,11.37,0,0,1,.83,2.09,14.35,14.35,0,0,1,.4,1.95,12.3,12.3,0,0,1,.12,1.49,13,13,0,0,1-.8,4.41,11.25,11.25,0,0,1-2.55,4,13.26,13.26,0,0,1-4.5,3,17.42,17.42,0,0,1-6.7,1.15,18.36,18.36,0,0,1-3.47-.31,23.56,23.56,0,0,1-3-.77c-.9-.31-1.71-.62-2.43-.95s-1.33-.62-1.83-.89q.35-1.09.57-1.86a12.35,12.35,0,0,0,.34-1.46c.08-.46.14-.93.2-1.4s.12-1.06.2-1.75h.76Z" fill="#fff"/><path d="M337.18,203.52h-.57c-.19-.35-.48-.82-.86-1.43a6.55,6.55,0,0,0-1.78-1.78,12,12,0,0,0-3.21-1.52,16.63,16.63,0,0,0-5.1-.66q-7.21,0-10.94,4.47T311,215.26c0,.5,0,1.19.06,2.06a20.16,20.16,0,0,0,.37,3,19.38,19.38,0,0,0,1,3.44,14.61,14.61,0,0,0,2,3.52,12.45,12.45,0,0,0,1.75,1.95,13.14,13.14,0,0,0,2.26,1.66,11.34,11.34,0,0,0,2.84,1.17,13.47,13.47,0,0,0,3.52.43,16.72,16.72,0,0,0,4.67-.6,15.37,15.37,0,0,0,3.61-1.55,15.68,15.68,0,0,0,2.78-2.09A29.48,29.48,0,0,0,338,226l.63.4-.58,5.65a29.49,29.49,0,0,1-14.5,3.61,23.93,23.93,0,0,1-7.91-1.29,18.88,18.88,0,0,1-6.5-3.78,17.75,17.75,0,0,1-4.41-6.22,21,21,0,0,1-1.63-8.54,23.92,23.92,0,0,1,1.35-8.08,18,18,0,0,1,4.1-6.59,19.38,19.38,0,0,1,7-4.44,27.55,27.55,0,0,1,9.94-1.63,33.39,33.39,0,0,1,6.76.66,31.85,31.85,0,0,1,6.65,2.21Z" fill="#fff"/><path d="M371.78,215.5c-1.56-.07-3.1-.13-4.63-.17s-3.07-.06-4.63-.06-3.27,0-4.88.06-3.24.1-4.88.17V226c0,1.32,0,2.49.12,3.5s.11,1.93.17,2.75.13,1.69.2,2.61l-1.69-.2a17,17,0,0,0-2.26-.14,19,19,0,0,0-2,.11l-2,.23q.34-6.58.43-13t.09-13q0-3.37-.14-6.65c-.09-2.18-.24-4.38-.43-6.59.57.08,1.29.16,2.15.23s1.53.11,2,.11h1l1.15-.09,1.06-.12a4.14,4.14,0,0,0,.77-.11c-.08.8-.15,1.59-.2,2.38s-.11,1.79-.17,3-.1,2.65-.12,4.38,0,3.94,0,6.62c1.45.08,2.88.14,4.31.17s2.86,0,4.31.06c1.75,0,3.49,0,5.2-.06s3.45-.1,5.2-.17v-5q0-1.6-.06-3v-3.09a8.19,8.19,0,0,0-.06-1.15c-.06-.44-.08-1-.11-1.6s-.08-1.48-.12-2.55c.54.08,1.21.16,2,.23s1.53.11,2.2.11,1.21,0,2-.11,1.46-.15,2-.23c-.19,1.49-.34,3.39-.43,5.7s-.17,4.71-.23,7.19-.1,4.88-.12,7.19,0,4.21,0,5.7q0,3.44.06,6.93a50,50,0,0,0,.52,6.59l-2.1-.23c-.7-.07-1.41-.11-2.11-.11a19,19,0,0,0-2,.11l-2,.23c0-.27,0-.84.09-1.72s.12-1.85.17-2.92.11-2.11.14-3.12.05-1.79.06-2.32Z" fill="#fff"/><path d="M408.63,195a27.59,27.59,0,0,1,7.82,1.12,19.48,19.48,0,0,1,6.79,3.52,17.77,17.77,0,0,1,4.78,6.1,20,20,0,0,1,1.8,8.85,23.19,23.19,0,0,1-1.55,8.68,18.8,18.8,0,0,1-4.35,6.59,19.35,19.35,0,0,1-6.76,4.21,24.41,24.41,0,0,1-8.75,1.53,26.42,26.42,0,0,1-8.37-1.29,19.75,19.75,0,0,1-6.79-3.78,17.66,17.66,0,0,1-4.56-6.16A20.06,20.06,0,0,1,387,216a23.13,23.13,0,0,1,1.75-9.4,18.38,18.38,0,0,1,4.7-6.53,19,19,0,0,1,6.85-3.81A27.13,27.13,0,0,1,408.63,195Zm-13.7,20.28a28.13,28.13,0,0,0,.72,6.33,16.37,16.37,0,0,0,2.35,5.56,12.89,12.89,0,0,0,4.18,4,12,12,0,0,0,6.27,1.52,11.77,11.77,0,0,0,6.22-1.55,13,13,0,0,0,4.18-4,17.52,17.52,0,0,0,2.38-5.59,26.34,26.34,0,0,0,.75-6.19,29.71,29.71,0,0,0-.72-6.65,16.58,16.58,0,0,0-2.29-5.53,11.59,11.59,0,0,0-4.15-3.78,13.18,13.18,0,0,0-6.41-1.4,11.6,11.6,0,0,0-6.27,1.6,13.4,13.4,0,0,0-4.18,4.13,17.39,17.39,0,0,0-2.35,5.62,26.66,26.66,0,0,0-.68,6Z" fill="#fff"/><path d="M457.41,195a27.59,27.59,0,0,1,7.82,1.12,19.48,19.48,0,0,1,6.79,3.52,17.77,17.77,0,0,1,4.78,6.1,20,20,0,0,1,1.8,8.85,23.19,23.19,0,0,1-1.55,8.68,18.8,18.8,0,0,1-4.35,6.59,19.35,19.35,0,0,1-6.76,4.21,24.63,24.63,0,0,1-8.71,1.49,26.42,26.42,0,0,1-8.37-1.29,19.75,19.75,0,0,1-6.79-3.78,17.66,17.66,0,0,1-4.56-6.16,20.06,20.06,0,0,1-1.66-8.37,23.13,23.13,0,0,1,1.75-9.4,18.38,18.38,0,0,1,4.7-6.53,19,19,0,0,1,6.85-3.81A27.19,27.19,0,0,1,457.41,195Zm-13.7,20.28a28.13,28.13,0,0,0,.72,6.33,16.37,16.37,0,0,0,2.35,5.56,12.89,12.89,0,0,0,4.18,4,12,12,0,0,0,6.27,1.52,11.77,11.77,0,0,0,6.22-1.55,13,13,0,0,0,4.18-4,17.52,17.52,0,0,0,2.38-5.59,26.34,26.34,0,0,0,.75-6.19,29.71,29.71,0,0,0-.72-6.65,16.58,16.58,0,0,0-2.29-5.53,11.59,11.59,0,0,0-4.15-3.78,13.24,13.24,0,0,0-6.36-1.4,11.6,11.6,0,0,0-6.27,1.6,13.4,13.4,0,0,0-4.18,4.13,17.39,17.39,0,0,0-2.35,5.62,26.67,26.67,0,0,0-.69,6Z" fill="#fff"/><path d="M487,211.14V208c0-.55,0-1.22-.06-2s0-1.8-.09-3.07v-1.52c0-.71,0-1.45-.09-2.24s-.07-1.52-.09-2.23,0-1.19,0-1.46a13.58,13.58,0,0,0,2,.29c.59,0,1.26.06,2,.06a20,20,0,0,0,2-.09c.61-.06,1.28-.15,2-.26q-.17,3.27-.26,6.29t-.17,6q-.09,3-.11,6.05c0,2,0,4.16,0,6.37,0,2,0,3.92.06,5.77s.08,3.56.11,5.14h3.32c1.11,0,2.34,0,3.7-.06s2.69-.1,4-.19,2.42-.19,3.27-.32c-.08.31-.14.6-.2.89a8.17,8.17,0,0,0-.09,1.4,8.39,8.39,0,0,0,.06,1,7.73,7.73,0,0,0,.23.95l-2.49-.11-2.89-.12-3-.09h-2.61c-1.83,0-3.59,0-5.27.09s-3.57.15-5.67.26v-1.37c0-.76,0-1.69.09-2.78s.07-2.25.09-3.5,0-2.42.09-3.52.07-2.07.09-2.89v-9.58Z" fill="#fff"/><path d="M21.49,274.7a9.44,9.44,0,0,1-1.71.62c-.67.18-1.41.34-2.24.49A14.9,14.9,0,0,1,15,276a16.5,16.5,0,0,1-5.31-.82,11.14,11.14,0,0,1-4.2-2.49,11.74,11.74,0,0,1-2.76-4.09,15.66,15.66,0,0,1,0-11,11.41,11.41,0,0,1,2.8-4.09A12.08,12.08,0,0,1,9.8,251a16.75,16.75,0,0,1,5.53-.87,18.45,18.45,0,0,1,4.38.49,20.69,20.69,0,0,1,3.51,1.18,4.79,4.79,0,0,0-.47,1.38c-.12.58-.22,1.07-.29,1.46l-.22.07a7.87,7.87,0,0,0-1-1,11.51,11.51,0,0,0-1.53-1,9.58,9.58,0,0,0-2-.86,7.84,7.84,0,0,0-2.4-.35,11.16,11.16,0,0,0-4,.69,8.45,8.45,0,0,0-3.2,2.13A10,10,0,0,0,6,257.9a18.19,18.19,0,0,0,0,10.44A10,10,0,0,0,8.11,272a8.33,8.33,0,0,0,3.2,2.13,11.16,11.16,0,0,0,4,.69,8.27,8.27,0,0,0,2.42-.33,12.75,12.75,0,0,0,2-.78,12.29,12.29,0,0,0,1.67-1c.5-.35.92-.66,1.25-.93l.15.15-.27,2.1A4.59,4.59,0,0,1,21.49,274.7Z" fill="#fff"/><path d="M27.46,255.26c-.06-1.54-.13-3.11-.2-4.71l.91.13a7.32,7.32,0,0,0,1.75,0l.91-.13c-.07,1.6-.14,3.17-.2,4.71s-.09,3.12-.09,4.75v6.26c0,1.6,0,3.18.09,4.73s.13,3.08.2,4.58c-.56-.05-1.15-.07-1.78-.07s-1.22,0-1.78.07c.07-1.51.14-3,.2-4.58s.09-3.12.09-4.73V260C27.55,258.39,27.52,256.81,27.46,255.26Z" fill="#fff"/><path d="M42.18,252.44h-2c-.67,0-1.36,0-2.07.07l-2,.13c-.67.05-1.24.11-1.73.18a4.6,4.6,0,0,0,.18-1.16,5.43,5.43,0,0,0-.18-1.13l4.69.13c1.53,0,3.09.05,4.69.05s3.16,0,4.69-.05l4.69-.13a5.09,5.09,0,0,0-.18,1.16,4.37,4.37,0,0,0,.18,1.13c-.51-.07-1.09-.13-1.73-.18l-2-.13c-.67,0-1.36-.06-2.07-.07h-2q-.11,3.75-.11,7.53v6.26c0,1.6,0,3.18.09,4.73s.13,3.08.2,4.58c-.56-.05-1.15-.07-1.78-.07s-1.22,0-1.78.07c.07-1.51.14-3,.2-4.58s.09-3.12.09-4.73V260C42.28,257.46,42.25,254.94,42.18,252.44Z" fill="#fff"/><path d="M62,263.52l-1.56-2.62-1.8-3-1.8-3-1.55-2.58-1-1.73,1,.13a9.55,9.55,0,0,0,2,0l1-.13c1.09,2.11,2.2,4.19,3.33,6.22s2.32,4.16,3.58,6.37c.56-.87,1.14-1.83,1.75-2.87s1.21-2.11,1.82-3.2,1.19-2.19,1.75-3.29,1.08-2.17,1.56-3.22a5.69,5.69,0,0,0,2.84,0q-1.75,2.66-3.13,4.8c-.92,1.43-1.73,2.72-2.44,3.89s-1.32,2.22-1.86,3.15-1,1.78-1.38,2.53v2.87c0,1,0,2,0,3s0,1.89.09,2.73.1,1.51.13,2c-.56-.05-1.15-.07-1.78-.07s-1.22,0-1.78.07a43.9,43.9,0,0,0,.25-4.58q0-2.69,0-5.64Z" fill="#fff"/><path d="M107.41,254.41a35.5,35.5,0,0,0-.18-3.86l.76.13a6,6,0,0,0,.73,0,4,4,0,0,0,1.09-.18c-.07.85-.15,1.85-.22,3s-.13,2.43-.18,3.82-.1,2.72-.15,4.15-.09,2.81-.11,4.13a13.22,13.22,0,0,1-.74,4.36,9.2,9.2,0,0,1-2,3.27,8.44,8.44,0,0,1-3.22,2,12.79,12.79,0,0,1-4.38.69q-5.46,0-7.93-2.47t-2.47-7.77q0-1.71.09-3c.06-.86.09-1.76.09-2.71,0-2,0-3.85-.07-5.42s-.1-2.91-.15-4l.95.13c.32,0,.63.05,1,.05a6.81,6.81,0,0,0,.78-.05l.78-.13c0,.53-.1,1.23-.15,2.09s-.1,1.84-.15,2.93-.08,2.27-.11,3.53,0,2.57,0,3.93v2.57a17.21,17.21,0,0,0,.25,2.58,10.67,10.67,0,0,0,.71,2.4,5.84,5.84,0,0,0,1.4,2A6.55,6.55,0,0,0,96.07,274a10.16,10.16,0,0,0,3.42.49,8.61,8.61,0,0,0,3.37-.58,6.39,6.39,0,0,0,2.24-1.53,7.07,7.07,0,0,0,1.36-2.18,12.19,12.19,0,0,0,.71-2.58,20.23,20.23,0,0,0,.25-2.69v-2.47C107.41,259,107.41,256.28,107.41,254.41Z" fill="#fff"/><path d="M127.94,266.11q-4.72-5.1-9.46-10.1c0,.67,0,1.58-.07,2.73s0,2.71,0,4.66v4.26c0,.83,0,1.66,0,2.51s.06,1.64.07,2.37,0,1.36.07,1.91.07.92.07,1.11a10.81,10.81,0,0,0-1.27-.07,12.21,12.21,0,0,0-1.35.07c0-.24.1-.69.16-1.35s.11-1.44.16-2.35.1-1.91.16-3,.11-2.15.15-3.2.07-2.11.09-3.13,0-1.93,0-2.73v-6q0-2.51-.09-3.75h.58L122,255.2l5,5.42,4.73,5.06c1.49,1.59,2.8,2.94,3.91,4.06v-4.95q0-3.82-.05-7.44c0-2.41-.1-4.68-.19-6.8a5.16,5.16,0,0,0,1.24.18,5.09,5.09,0,0,0,1.16-.18c-.05.53-.1,1.33-.16,2.4s-.12,2.21-.18,3.42-.11,2.4-.16,3.57-.07,2.1-.07,2.8V276h-.51Q132.67,271.18,127.94,266.11Z" fill="#fff"/><path d="M144.15,255.26c-.06-1.54-.13-3.11-.2-4.71l.91.13a7.32,7.32,0,0,0,1.75,0l.91-.13c-.07,1.6-.14,3.17-.2,4.71s-.09,3.12-.09,4.75v6.26c0,1.6,0,3.18.09,4.73s.13,3.08.2,4.58c-.56-.05-1.15-.07-1.78-.07s-1.22,0-1.78.07c.07-1.51.14-3,.2-4.58s.09-3.12.09-4.73V260C144.25,258.39,144.22,256.81,144.15,255.26Z" fill="#fff"/><path d="M159.09,270.38q-1.2-3-2.56-6.37l-2.8-6.84c-1-2.33-1.88-4.53-2.75-6.62l1,.13a7.91,7.91,0,0,0,1.82,0l1-.13q.8,2.4,1.77,5c.65,1.73,1.31,3.52,2,5.37s1.45,3.66,2.2,5.53,1.52,3.72,2.29,5.57c.43-1,.91-2.1,1.42-3.33s1-2.5,1.55-3.82,1-2.67,1.55-4l1.47-3.95c.47-1.26.9-2.44,1.29-3.53s.72-2,1-2.84a5.12,5.12,0,0,0,2.69,0q-2.84,6.33-5.46,12.55t-5,12.44a9.66,9.66,0,0,0-1.2-.07,8.05,8.05,0,0,0-1.2.07Q160.29,273.4,159.09,270.38Z" fill="#fff"/><path d="M177.67,255.21c-.06-1.55-.13-3.11-.2-4.66l3.26.13c1.08,0,2.17,0,3.26,0s2.17,0,3.24,0l3.24-.13a5.71,5.71,0,0,0,0,2.18l-2.13-.15-2-.15L184,252.3c-.85,0-1.87-.05-3.06-.05q0,1.16-.09,2.22a20.45,20.45,0,0,0-.05,2.4v4.77h2.88l2.33-.09,1.95-.11,1.69-.13a6.1,6.1,0,0,0-.11,1.13,5.68,5.68,0,0,0,.11,1.09c-.63-.07-1.37-.13-2.2-.18s-1.67-.08-2.51-.09H180.8V272c0,.9,0,1.57,0,2h2.56c.92,0,1.82,0,2.71-.05s1.72-.08,2.51-.15a17.86,17.86,0,0,0,2.06-.27,2.62,2.62,0,0,0-.09.56v.56a3.38,3.38,0,0,0,.11.95c-1.09,0-2.18-.07-3.26-.07h-6.6c-1.09,0-2.2,0-3.31.07.07-1.55.14-3.1.2-4.64s.09-3.11.09-4.71V260C177.78,258.35,177.73,256.76,177.67,255.21Z" fill="#fff"/><path d="M195.41,255.26c-.06-1.54-.13-3.11-.2-4.71l2.07.13c.67,0,1.36,0,2.07,0s1.4,0,2.07-.09,1.36-.09,2.07-.09a14.22,14.22,0,0,1,2.91.29,7.13,7.13,0,0,1,2.42,1,4.86,4.86,0,0,1,1.64,1.76,6.33,6.33,0,0,1-.18,5.73,7.4,7.4,0,0,1-1.91,2.07,9.33,9.33,0,0,1-2.42,1.27,11.92,11.92,0,0,1-2.35.6l1.2,1.53c.51.67,1.08,1.39,1.71,2.17l2,2.47,2,2.47c.63.79,1.23,1.51,1.78,2.17a18,18,0,0,0,1.35,1.49,8,8,0,0,0-1.09-.07h-2.14a7.55,7.55,0,0,0-1.06.07l-1.66-2.29q-1.11-1.53-2.46-3.27t-2.82-3.5c-.93-1.15-1.79-2.13-2.57-2.93h-1.38v2.66c0,1.6,0,3.18.09,4.73s.13,3.08.2,4.58c-.56-.05-1.15-.07-1.78-.07s-1.22,0-1.78.07c.07-1.51.14-3,.2-4.58s.09-3.12.09-4.73V260C195.51,258.39,195.48,256.81,195.41,255.26Zm4.18,6.93h1.33a11.58,11.58,0,0,0,2.35-.25,6.78,6.78,0,0,0,2.24-.89,5.31,5.31,0,0,0,1.69-1.71,5,5,0,0,0,.67-2.71,4.66,4.66,0,0,0-.53-2.35,4.2,4.2,0,0,0-1.37-1.47,5.2,5.2,0,0,0-1.82-.75,9.65,9.65,0,0,0-1.93-.2c-.85,0-1.55,0-2.11,0s-1,.08-1.42.13l-.15,4c0,1.33-.07,2.66,0,4v2a8.3,8.3,0,0,0,1.11.19Z" fill="#fff"/><path d="M217.29,272.15a6,6,0,0,0,1.2,1.22,6.1,6.1,0,0,0,3.77,1.24,5.41,5.41,0,0,0,2.17-.42,4.84,4.84,0,0,0,2.67-2.8,5.81,5.81,0,0,0,.36-2.06,3.94,3.94,0,0,0-.86-2.66,7,7,0,0,0-2.13-1.64,24.86,24.86,0,0,0-2.75-1.2,14.7,14.7,0,0,1-2.75-1.37,7.19,7.19,0,0,1-2.13-2.09A6,6,0,0,1,216,257a7,7,0,0,1,.55-2.78,6.17,6.17,0,0,1,1.58-2.17,7.53,7.53,0,0,1,2.49-1.42,9.91,9.91,0,0,1,3.28-.51,9.51,9.51,0,0,1,3,.42,7.5,7.5,0,0,1,2.37,1.29,7.9,7.9,0,0,0-.55,1.31,17.64,17.64,0,0,0-.44,1.75h-.44a9.13,9.13,0,0,0-.49-1.11,4.33,4.33,0,0,0-.84-1.11,4.94,4.94,0,0,0-1.26-.86,3.92,3.92,0,0,0-1.75-.35,5.19,5.19,0,0,0-1.87.33,4.62,4.62,0,0,0-1.49.93,4.15,4.15,0,0,0-1,1.44,4.75,4.75,0,0,0-.35,1.82,4,4,0,0,0,.86,2.69,7.34,7.34,0,0,0,2.13,1.66,20.26,20.26,0,0,0,2.75,1.2,15.32,15.32,0,0,1,2.75,1.29,7,7,0,0,1,2.13,2,5.4,5.4,0,0,1,.85,3.2,8.38,8.38,0,0,1-.6,3.17,7.42,7.42,0,0,1-1.75,2.6,7.78,7.78,0,0,1-2.8,1.71,11,11,0,0,1-3.77.6,9.33,9.33,0,0,1-3.66-.6,10,10,0,0,1-2.25-1.44,8,8,0,0,0,.45-1.51c.09-.45.17-1,.24-1.73h.44A7.08,7.08,0,0,0,217.29,272.15Z" fill="#fff"/><path d="M235,255.26c-.06-1.54-.13-3.11-.2-4.71l.91.13a7.32,7.32,0,0,0,1.75,0l.91-.13c-.07,1.6-.14,3.17-.2,4.71s-.09,3.12-.1,4.75v6.26c0,1.6,0,3.18.09,4.73s.13,3.08.2,4.58c-.56-.05-1.15-.07-1.78-.07s-1.22,0-1.78.07c.07-1.51.14-3,.2-4.58s.09-3.12.09-4.73V260C235.07,258.39,235,256.81,235,255.26Z" fill="#fff"/><path d="M249.41,252.44h-2c-.67,0-1.36,0-2.07.07l-2,.13c-.67.05-1.24.11-1.73.18a4.6,4.6,0,0,0,.18-1.16,5.43,5.43,0,0,0-.18-1.13l4.69.13c1.53,0,3.09.05,4.69.05s3.16,0,4.69-.05l4.69-.13a5.09,5.09,0,0,0-.18,1.16,4.37,4.37,0,0,0,.18,1.13c-.51-.07-1.09-.13-1.73-.18l-2-.13c-.67,0-1.36-.06-2.07-.07h-2q-.1,3.75-.11,7.53v6.26c0,1.6,0,3.18.09,4.73s.13,3.08.2,4.58c-.56-.05-1.15-.07-1.78-.07s-1.22,0-1.78.07c.07-1.51.14-3,.2-4.58s.09-3.12.09-4.73V260Q249.51,256.18,249.41,252.44Z" fill="#fff"/><path d="M269.73,263.52l-1.56-2.62-1.8-3-1.8-3L263,252.32l-1-1.73,1,.13a9.55,9.55,0,0,0,2,0l1-.13c1.09,2.11,2.2,4.19,3.33,6.22s2.32,4.16,3.58,6.37c.56-.87,1.14-1.83,1.75-2.87s1.21-2.11,1.82-3.2,1.19-2.19,1.75-3.29,1.08-2.17,1.56-3.22a5.69,5.69,0,0,0,2.84,0q-1.75,2.66-3.13,4.8c-.92,1.43-1.73,2.72-2.44,3.89s-1.32,2.22-1.86,3.15-1,1.78-1.38,2.53v2.87c0,1,0,2,0,3s0,1.89.09,2.73.1,1.51.13,2c-.56-.05-1.15-.07-1.78-.07s-1.22,0-1.78.07a43.9,43.9,0,0,0,.25-4.58q0-2.69,0-5.64Z" fill="#fff"/><path d="M295.16,257.59a11.41,11.41,0,0,1,2.8-4.09,12.08,12.08,0,0,1,4.31-2.55,17.82,17.82,0,0,1,11,0,12.08,12.08,0,0,1,4.31,2.55,11.41,11.41,0,0,1,2.8,4.09,15.66,15.66,0,0,1,0,11,11.24,11.24,0,0,1-7.11,6.59,19.08,19.08,0,0,1-11,0,11.24,11.24,0,0,1-7.11-6.59A15.66,15.66,0,0,1,295.16,257.59Zm21.92.29a10,10,0,0,0-2.13-3.64,8.45,8.45,0,0,0-3.2-2.13,11.74,11.74,0,0,0-7.93,0,8.45,8.45,0,0,0-3.2,2.13,10,10,0,0,0-2.13,3.64,18.19,18.19,0,0,0,0,10.44,10,10,0,0,0,2.13,3.64,8.33,8.33,0,0,0,3.2,2.13,11.74,11.74,0,0,0,7.93,0A8.45,8.45,0,0,0,315,272a10,10,0,0,0,2.13-3.64A18.19,18.19,0,0,0,317.08,257.88Z" fill="#fff"/><path d="M326,255.26c-.06-1.54-.13-3.11-.2-4.71l3.26.13c1.08,0,2.17,0,3.26,0s2.2,0,3.31,0l3.64-.13a5.34,5.34,0,0,0,0,2.18c-.67-.07-1.46-.14-2.37-.2s-1.85-.11-2.82-.15l-2.77-.09h-2.2c0,.85,0,1.66,0,2.44s0,1.56,0,2.33v4.59c1.6,0,3.18,0,4.75-.07s3.11-.14,4.64-.29a4.24,4.24,0,0,0,0,2.18c-.61-.07-1.29-.13-2.06-.16l-2.38-.09H329v3.09c0,1.6,0,3.18.09,4.73s.13,3.08.2,4.58c-.56-.05-1.15-.07-1.78-.07s-1.22,0-1.78.07c.07-1.51.14-3,.2-4.58s.09-3.12.09-4.73V260C326.07,258.39,326,256.81,326,255.26Z" fill="#fff"/><path d="M353.41,255.26c-.06-1.54-.13-3.11-.2-4.71l.91.13a7.32,7.32,0,0,0,1.75,0l.91-.13c-.07,1.6-.14,3.17-.2,4.71s-.09,3.12-.09,4.75v8q0,3.42.07,6c1.72,0,3.37,0,4.95-.05a48.28,48.28,0,0,0,5.09-.42,4,4,0,0,0-.18,1.09,3.39,3.39,0,0,0,.18,1c-1.11-.05-2.23-.07-3.35-.07h-6.71c-1.08,0-2.2,0-3.37.07.07-1.51.14-3,.2-4.58s.09-3.12.09-4.73V260C353.49,258.39,353.48,256.81,353.41,255.26Z" fill="#fff"/><path d="M370.23,257.59a11.41,11.41,0,0,1,2.8-4.09,12.08,12.08,0,0,1,4.31-2.55,17.82,17.82,0,0,1,11,0,12.08,12.08,0,0,1,4.31,2.55,11.41,11.41,0,0,1,2.8,4.09,15.66,15.66,0,0,1,0,11,11.24,11.24,0,0,1-7.11,6.59,19.08,19.08,0,0,1-11,0,11.24,11.24,0,0,1-7.11-6.59A15.66,15.66,0,0,1,370.23,257.59Zm21.92.29a10,10,0,0,0-2.13-3.64,8.45,8.45,0,0,0-3.2-2.13,11.74,11.74,0,0,0-7.93,0,8.45,8.45,0,0,0-3.2,2.13,10,10,0,0,0-2.13,3.64,18.19,18.19,0,0,0,0,10.44,10,10,0,0,0,2.13,3.64,8.33,8.33,0,0,0,3.2,2.13,11.74,11.74,0,0,0,7.93,0A8.45,8.45,0,0,0,390,272a10,10,0,0,0,2.13-3.64,20,20,0,0,0,0-10.44Z" fill="#fff"/><path d="M412.71,266.11Q408,261,403.25,256c0,.67,0,1.58-.07,2.73s-.05,2.71,0,4.66v4.26c0,.83,0,1.66.05,2.51s.06,1.64.07,2.37,0,1.36.07,1.91.07.92.07,1.11a10.81,10.81,0,0,0-1.27-.07,12.21,12.21,0,0,0-1.35.07c.05-.24.1-.69.16-1.35s.11-1.44.16-2.35.1-1.91.16-3,.11-2.15.15-3.2.07-2.11.09-3.13,0-1.93,0-2.73v-6q0-2.51-.09-3.75H402l4.75,5.15,5,5.42,4.73,5.06c1.49,1.59,2.8,2.94,3.91,4.06v-4.95q0-3.82-.05-7.44c0-2.41-.11-4.69-.24-6.82a5.16,5.16,0,0,0,1.24.18,5.71,5.71,0,0,0,1.16-.18c0,.53-.1,1.33-.16,2.4s-.12,2.21-.18,3.42-.11,2.4-.16,3.57-.07,2.1-.07,2.8V276h-.51Q417.42,271.18,412.71,266.11Z" fill="#fff"/><path d="M428.92,255.26c-.06-1.54-.13-3.11-.2-4.71l2.75.13c.91,0,1.82,0,2.75,0s1.84,0,2.75-.09,1.82-.09,2.75-.09a15.94,15.94,0,0,1,5.48.84,9.61,9.61,0,0,1,3.73,2.38,9.29,9.29,0,0,1,2.13,3.78,17.63,17.63,0,0,1,.67,5,13.66,13.66,0,0,1-1.26,6.13,11.74,11.74,0,0,1-3.2,4,12,12,0,0,1-4.29,2.17,17,17,0,0,1-4.49.64h-7.32c-.8,0-1.61,0-2.44.07.07-1.51.14-3,.2-4.58s.09-3.12.09-4.73V260C429,258.39,429,256.81,428.92,255.26Zm3.29,18.68a14.3,14.3,0,0,0,2.07.27c.87.06,1.77.09,2.69.09a17.36,17.36,0,0,0,4-.47,8.75,8.75,0,0,0,3.58-1.78,9.56,9.56,0,0,0,2.58-3.58,17.71,17.71,0,0,0,.22-11.08,8,8,0,0,0-2.15-3.22,7.63,7.63,0,0,0-3.26-1.64,18.07,18.07,0,0,0-4.15-.45c-1.09,0-2.11,0-3.06.11s-1.8.16-2.55.25c-.07,1.17-.13,2.39-.16,3.66s0,2.58,0,3.91v6.26q0,3.9.22,7.68Z" fill="#fff"/><path d="M455.84,257.59a11.41,11.41,0,0,1,2.8-4.09A12.08,12.08,0,0,1,463,251a17.82,17.82,0,0,1,11,0,12.08,12.08,0,0,1,4.31,2.55,11.41,11.41,0,0,1,2.8,4.09,15.66,15.66,0,0,1,0,11,11.24,11.24,0,0,1-7.11,6.59,19.08,19.08,0,0,1-11,0,11.24,11.24,0,0,1-7.11-6.59A15.66,15.66,0,0,1,455.84,257.59Zm21.92.29a10,10,0,0,0-2.13-3.64,8.45,8.45,0,0,0-3.2-2.13,11.74,11.74,0,0,0-7.93,0,8.45,8.45,0,0,0-3.2,2.13,10,10,0,0,0-2.13,3.64,18.19,18.19,0,0,0,0,10.44A10,10,0,0,0,461.3,272a8.33,8.33,0,0,0,3.2,2.13,11.74,11.74,0,0,0,7.93,0,8.45,8.45,0,0,0,3.2-2.13,10,10,0,0,0,2.13-3.64,18.28,18.28,0,0,0,0-10.44Z" fill="#fff"/><path d="M498.32,266.11Q493.6,261,488.86,256c0,.67,0,1.58-.07,2.73s-.05,2.71,0,4.66v4.26c0,.83,0,1.66,0,2.51s.06,1.64.07,2.37,0,1.36.07,1.91.07.92.07,1.11a10.81,10.81,0,0,0-1.27-.07,12.21,12.21,0,0,0-1.35.07c.05-.24.1-.69.16-1.35s.11-1.44.16-2.35.1-1.91.16-3,.11-2.15.15-3.2.07-2.11.09-3.13,0-1.93,0-2.73v-6q0-2.51-.09-3.75h.58l4.75,5.15,5,5.42,4.73,5.06c1.49,1.59,2.8,2.94,3.91,4.06v-4.95q0-3.82,0-7.44c0-2.41-.11-4.69-.24-6.82a5.16,5.16,0,0,0,1.24.18,5.71,5.71,0,0,0,1.16-.18c-.05.53-.1,1.33-.16,2.4s-.12,2.21-.18,3.42-.11,2.4-.16,3.57-.07,2.1-.07,2.8V276h-.51Q503.05,271.18,498.32,266.11Z" fill="#fff"/><path d="M71.57,277.74a32.86,32.86,0,0,0,4.09-5.9,11.21,11.21,0,0,1-1.42,0,3.88,3.88,0,0,1-1.12-.2c-.27.67-.6,1.42-1,2.27s-.83,1.79-1.29,2.82l-.3.64A9.9,9.9,0,0,0,71.57,277.74Z" fill="#fff"/></svg>