<?xml version="1.0" encoding="UTF-8"?>
<svg width="153px" height="91px" viewBox="0 0 153 91" version="1.1" xmlns="http://www.w3.org/2000/svg" xmlns:xlink="http://www.w3.org/1999/xlink">
    <!-- Generator: Sketch 50 (54983) - http://www.bohemiancoding.com/sketch -->
    <title>city-logo-white</title>
    <desc>Created with Sketch.</desc>
    <defs>
        <polygon id="path-1" points="0.258865049 0.0374058043 61.7502243 0.0374058043 61.7502243 11.6129032 0.258865049 11.6129032"></polygon>
        <polygon id="path-3" points="0.00012 0.0984 152.97 0.0984 152.97 0.8984 0.00012 0.8984"></polygon>
    </defs>
    <g id="--Symbols" stroke="none" stroke-width="1" fill="none" fill-rule="evenodd">
        <g id="logo/long/white" transform="translate(-20.000000, -21.000000)">
            <g id="city-logo-white" transform="translate(20.000000, 21.000000)">
                <path d="M42.8733282,17.4466661 L42.1674414,17.4466661 C41.9310444,17.0236383 41.5787017,16.4348293 41.110113,15.6805399 C40.5297839,14.8155292 39.7869507,14.0714696 38.9233657,13.4901824 C37.706537,12.6739132 36.3752645,12.0432828 34.9734033,11.6187505 C33.3273353,11.0771786 31.2355072,10.8063927 28.6985199,10.8063927 C22.7750781,10.8063927 18.2853375,12.6429232 15.2295985,16.3153826 C12.1735591,19.9881428 10.6458398,25.1911446 10.6458398,31.9246887 C10.6458398,32.5363641 10.6689689,33.3839242 10.7149266,34.467068 C10.778907,35.6892153 10.9323998,36.9050443 11.174504,38.1046261 C11.4655697,39.5527292 11.8921055,40.9698424 12.448104,42.3379132 C13.0770943,43.8952334 13.919052,45.3577784 14.9502476,46.6825235 C15.5825419,47.5568613 16.3031473,48.3638034 17.1009496,49.0895098 C17.9552228,49.867869 18.8884953,50.5544619 19.8854478,51.1384569 C20.9788214,51.7757065 22.1526962,52.2625195 23.3758329,52.5856574 C24.7918118,52.9545281 26.2504444,53.1323442 27.7132822,53.1151944 C29.6540204,53.1449809 31.5893518,52.8955569 33.4595013,52.3750461 C36.4019981,51.5350079 39.0984857,49.996041 41.3203772,47.8893263 C42.2623606,46.9951309 43.1565841,46.0518931 43.9997433,45.0638252 L44.7867321,45.5575583 L44.0117584,52.5495526 C38.6449159,55.5161632 32.6953413,56.9994685 26.1633349,56.9994685 C22.8543778,57.0193262 19.5652455,56.4825682 16.4341118,55.4111585 C13.4853071,54.4140644 10.7671923,52.8332761 8.44106988,50.7623653 C6.09992863,48.6303772 4.24720099,46.0160892 3.01024697,43.0991227 C1.67056389,40.0383387 1.00072234,36.52805 1.00072234,32.5685576 C0.976992531,29.1780165 1.53809746,25.8088374 2.65880544,22.6096518 C3.72364323,19.5645132 5.44450521,16.7907624 7.69913777,14.486073 C9.95587298,12.1795784 12.8115607,10.3550827 16.2659005,9.01318787 C19.7202403,7.67129301 23.7984639,7.00034558 28.5002709,7.00034558 C31.2940808,6.98891239 34.0815829,7.26120272 36.8207241,7.81270346 C39.6379635,8.41174217 42.3810097,9.32007863 45,10.520563 L42.8733282,17.4466661 Z" id="Fill-1" fill="#FFFFFF"></path>
                <path d="M53.770604,24.4905895 C53.770604,22.2035779 53.7476941,19.7506864 53.702172,17.1310019 C53.6566498,14.5113175 53.4474859,11.4676502 53.0743826,8 C53.7250818,8.09526679 54.5870277,8.19053357 55.6599226,8.28610473 C56.7331151,8.38137151 57.526629,8.42915709 58.0401666,8.42915709 C58.8574829,8.42793962 59.6739066,8.38015405 60.4858673,8.28610473 L63,8 C62.8137459,9.33312628 62.6617078,11.0354494 62.5447783,13.1072737 C62.4278489,15.1790981 62.346623,17.3814957 62.3008033,19.7150755 C62.2531985,22.0486552 62.2305861,24.370669 62.2323713,26.6820299 L62.2323713,32.8515436 C62.2323713,38.1861793 62.2790836,42.8183365 62.3722107,46.7489285 C62.4656352,50.6792161 62.6480214,54.0963414 62.9196668,57 C62.1261529,56.9531275 61.3112169,56.8700354 60.4739661,56.7504193 C59.6637905,56.6332381 58.8467718,56.5732778 58.0282654,56.5705385 C57.1874442,56.5747997 56.3475156,56.6347599 55.5141327,56.7504193 C54.6295745,56.8700354 53.7914311,56.9531275 53,57 C53.3731032,52.7126902 53.5941684,47.7582086 53.663493,42.1377725 C53.7331151,36.5170321 53.7688188,30.6348407 53.770604,24.4905895" id="Fill-3" fill="#FFFFFF"></path>
                <path d="M91.6956262,47.2133289 C91.6956262,49.9280954 91.7550395,51.9879828 91.8744725,53.3942081 C91.9932992,54.8001292 92.0996977,56.0021612 92.1927584,57 L89.1341826,56.7142511 C88.1377962,56.6186972 87.4305953,56.5709202 87.0122767,56.5709202 C86.3702486,56.5724418 85.7285237,56.6077419 85.0904363,56.6777337 L82.1709969,57 C82.3146802,54.2855377 82.4692762,51.558903 82.6347849,48.8200958 C82.8005967,46.0812885 82.876379,43.355871 82.862132,40.643539 L82.7893809,20.7138474 C82.7893809,19.3812656 82.7772557,18.0715071 82.7533085,16.7851806 C82.7290581,15.4991585 82.693592,14.1650551 82.6469101,12.783479 L79.100296,12.783479 C78.9587345,12.783479 78.460996,12.7956514 77.6061711,12.8199964 C76.7513461,12.8446457 75.7670849,12.8689906 74.6533875,12.8930313 C73.5381744,12.9173762 72.3759762,12.9651532 71.1673992,13.0360579 C69.9591254,13.1072668 68.9033256,13.190344 68,13.2855936 C68.4743975,11.5558847 68.4743975,9.72970892 68,8 C69.4144018,8.09524963 70.944296,8.1661543 72.5893793,8.21271403 L77.5694924,8.35604494 C79.2530732,8.40473484 80.9020972,8.42786255 82.5168676,8.42603668 L87.0001516,8.42603668 C89.9887044,8.42603668 93.0484927,8.40260466 96.178607,8.35604494 C99.3090245,8.3091809 102.582822,8.19049926 106,8 C105.816607,8.89498134 105.698083,9.80183084 105.645642,10.7144623 C105.645339,11.0981996 105.680805,11.4813283 105.751434,11.8583708 C105.821457,12.2387606 105.902999,12.7168347 106,13.2855936 C103.865969,13.0482303 101.588861,12.9052037 99.167463,12.8568181 C96.7466716,12.8078239 94.3034485,12.7846962 91.838097,12.7868264 C91.7895963,14.0728485 91.7541301,15.3823027 91.7316986,16.7151889 C91.7095701,18.0483794 91.6974449,19.4056105 91.6956262,20.7871866 L91.6956262,47.2197194 L91.6956262,47.2133289 Z" id="Fill-5" fill="#FFFFFF"></path>
                <path d="M134.638582,40.5094691 C134.638582,42.0346911 134.650817,43.4272586 134.675287,44.6868674 C134.699451,45.9464762 134.735238,47.220385 134.782343,48.5082894 C134.829141,49.7943682 134.876858,51.1126979 134.925798,52.4635827 C134.975043,53.8144676 135.046312,55.3266066 135.140216,57 L132.643976,56.7140019 C131.815669,56.6196833 130.982162,56.5722198 130.148043,56.5710028 C129.330441,56.5773921 128.514063,56.6251599 127.70105,56.7140019 C126.785568,56.8092332 125.990601,56.9047687 125.315537,57 C125.362336,55.6208196 125.410358,54.0374853 125.458992,52.2506054 C125.507932,50.4637256 125.55626,48.6777585 125.603059,46.8927041 C125.649857,45.1076498 125.685339,43.3937907 125.710115,41.7508227 C125.734585,40.1078547 125.74682,38.7387147 125.74682,37.6434027 L121.510462,30.3595778 C120.600792,28.7875008 119.559903,27.0261782 118.387181,25.0746973 C117.214765,23.1235206 116.013597,21.1467867 114.784289,19.1447998 C113.560792,17.1449426 112.35259,15.1803788 111.159374,13.2514126 C109.966771,11.3224464 108.91334,9.57298975 108,8.00304253 C109.339729,8.14482459 110.453111,8.25253027 111.340146,8.32555107 C112.226875,8.39857187 113.076594,8.43416951 113.888078,8.43203974 C114.748502,8.43203974 115.681418,8.40861223 116.686827,8.36206147 C117.722211,8.31185967 118.753312,8.19289662 119.772791,8.00608507 C120.682461,9.95939149 121.568578,11.8162496 122.431144,13.5769637 C123.293403,15.3376777 124.204296,17.1467681 125.1626,19.0048432 C126.120904,20.8607886 127.179228,22.8484756 128.337268,24.9682086 C129.495919,27.0879416 130.847577,29.4802856 132.393465,32.1455449 C133.945165,29.5310959 135.219437,27.3270848 136.216893,25.5341198 C137.214042,23.7411549 138.131665,22.0269916 138.96976,20.3922384 C139.805714,18.7492704 140.667362,16.9754735 141.554091,15.0708476 C142.441432,13.1662217 143.530038,10.8091711 144.821133,8 C145.396177,8.09523129 146.030254,8.19076684 146.72367,8.28599814 C147.472756,8.38518473 148.228266,8.4329525 148.983775,8.42899721 C149.571971,8.4375163 150.159861,8.40222291 150.742551,8.32250854 C151.171693,8.25739832 151.592881,8.14938839 152,8 L150.528439,10.4340267 C149.835328,11.5758895 149.092972,12.7779944 148.301981,14.0394287 C147.510685,15.3008631 146.773528,16.4956659 146.090205,17.6235331 C145.397094,18.7431853 144.906472,19.5169016 144.619256,19.944986 C142.987723,22.5168395 141.458352,25.1242906 140.031144,27.7673393 C138.603629,30.4103881 137.11708,33.0126669 135.571498,35.57448 C135.330775,36.0025644 135.115746,36.4081341 134.925798,36.7914933 C134.747473,37.1213039 134.648982,37.4879292 134.638582,37.8624651 L134.638582,40.5064266 L134.638582,40.5094691 Z" id="Fill-7" fill="#FFFFFF"></path>
                <path d="M7.21484992,65.2138937 C7.21706161,64.8095286 7.19770932,64.4051636 7.15679305,64.002662 L7.40560821,64.042859 C7.48412322,64.0548382 7.56374408,64.0609609 7.64336493,64.0612271 C7.76417852,64.0588312 7.88443918,64.0401969 8,64.0053241 C7.97594787,64.2715288 7.9521722,64.5891111 7.92812006,64.9583371 C7.90406793,65.3275631 7.88471564,65.7234095 7.87006319,66.1456103 C7.85347551,66.5680772 7.83771722,67.0019909 7.82306477,67.4476177 C7.80813586,67.892712 7.79624803,68.3250285 7.7871248,68.7437686 C7.78684834,69.2109579 7.70446288,69.6744204 7.54383886,70.1147231 C7.40229068,70.4983241 7.17808057,70.8483833 6.88586098,71.1425396 C6.59087678,71.4300407 6.23147709,71.6485948 5.83530806,71.7811648 C5.37555292,71.9331677 4.89202212,72.0071726 4.40600316,71.9994527 C3.21887836,71.9994527 2.35631912,71.7404355 1.81804897,71.2221348 C1.28005529,70.7038342 1.01105845,69.8849884 1.01105845,68.765065 C1.01105845,68.4102141 1.02101106,68.0923656 1.04146919,67.812052 C1.06165087,67.5317384 1.07187994,67.2479641 1.07187994,66.960463 C1.07187994,66.319442 1.0635861,65.7518934 1.04699842,65.2564864 C1.03041074,64.7613456 1.01465245,64.3426055 1,64 C1.09565561,64.0159723 1.19905213,64.0292825 1.30963665,64.0399307 C1.41248025,64.0516437 1.51560032,64.0577664 1.6192733,64.058565 C1.70442338,64.0582988 1.789297,64.0521761 1.87361769,64.0399307 L2.12796209,64 C2.11137441,64.1666442 2.09561611,64.3862631 2.08096367,64.6575257 C2.06603476,64.9293208 2.05055292,65.2362548 2.03396524,65.5785942 C2.01737757,65.9211997 2.00521327,66.2904257 1.99802528,66.6860059 C1.99056082,67.0818524 1.99056082,67.4934049 1.99802528,67.9211959 L1.99802528,68.7198102 C2.00576619,68.9876122 2.03341232,69.2546155 2.08096367,69.5184244 C2.12768562,69.7774416 2.20537125,70.0303362 2.31319115,70.2717839 C2.41824645,70.5095047 2.57361769,70.7232671 2.76935229,70.9000271 C2.9849921,71.0895648 3.23906003,71.2335816 3.51579779,71.3232926 C3.87270932,71.4337676 4.24648499,71.4862099 4.62164297,71.4776914 C4.9992891,71.488872 5.37555292,71.4265801 5.72748815,71.2940101 C6.00339652,71.1864634 6.25221169,71.0227475 6.45734597,70.8148415 C6.64865719,70.6143894 6.79960506,70.3814602 6.90244866,70.1280333 C7.00916272,69.8706133 7.0871248,69.6028113 7.13467615,69.3294191 C7.18167457,69.0493717 7.20959716,68.7666622 7.21761453,68.482888 L7.21761453,67.7055701 C7.22314376,66.6319663 7.22203791,65.8014075 7.21484992,65.2138937" id="Fill-9" fill="#FFFFFF"></path>
                <path d="M14.8263753,70.1681205 C13.8103785,68.8613153 12.7943816,67.5639844 11.7783847,66.277108 C11.7783847,66.5384691 11.7701912,66.8890196 11.7538041,67.3290862 C11.7374171,67.7688262 11.7374171,68.3666895 11.7538041,69.1226763 L11.7538041,69.8508935 L11.7538041,70.7623901 C11.7538041,71.0796171 11.7538041,71.4157927 11.7701912,71.742494 C11.7865782,72.0691953 11.7865782,72.3733542 11.7947718,72.6539907 C11.8029653,72.9352805 11.8111588,73.1803064 11.8193523,73.3890686 C11.8275458,73.5984841 11.8357394,73.741906 11.8439329,73.817374 C11.7081935,73.7971185 11.5713617,73.7873175 11.4342567,73.7879709 C11.2892314,73.7873175 11.144206,73.7971185 11,73.817374 C11.016387,73.7226306 11.0327741,73.5494789 11.0518923,73.2979189 C11.0710105,73.0463589 11.0901288,72.7425267 11.1037846,72.3929563 C11.1174405,72.0433859 11.1365587,71.6608187 11.1556769,71.2495018 C11.1747952,70.8378581 11.1911822,70.4262145 11.2021069,70.0142442 C11.2130316,69.6029272 11.2239563,69.2010846 11.2321498,68.8090431 C11.2403433,68.4170015 11.2321498,68.0641641 11.2321498,67.7570649 L11.2321498,65.4440197 C11.2321498,64.7991114 11.2220445,64.3178804 11.2021069,64 L11.3905579,64 L12.9200156,65.9827502 C13.4662505,66.6887517 14.0051112,67.3856055 14.5368709,68.0739652 L16.0608662,70.034173 C16.5415529,70.6460845 16.9613344,71.1678265 17.3199376,71.5990722 L17.3199376,69.6911366 C17.3199376,68.7087458 17.3144752,67.7524911 17.3035505,66.8226992 C17.2926258,65.8925806 17.2672259,65.0212683 17.2270776,64.2090888 C17.3573547,64.2509066 17.4911822,64.2737757 17.6258291,64.2776961 C17.7522825,64.2721422 17.8779165,64.2492731 18,64.2090888 C17.983613,64.4139305 17.9664066,64.7220099 17.9481077,65.1336535 C17.9298088,65.5452971 17.9106906,65.98079 17.890753,66.4404587 C17.8705423,66.9086216 17.8533359,67.3673103 17.8388607,67.8158711 C17.8243855,68.264432 17.816192,68.6247836 17.8142801,68.8969257 L17.8142801,69.7398151 L17.8142801,70.719919 L17.8142801,71.7656898 L17.8142801,72.7457937 L17.8142801,73.5364109 L17.8142801,74 L17.6504097,74 C16.783808,72.7523277 15.8423722,71.4749257 14.8263753,70.1681205" id="Fill-11" fill="#FFFFFF"></path>
                <path d="M21.0571429,65.5082568 C21.0397619,65.0148181 21.0207143,64.511885 21,64 L21.2547619,64.0409616 C21.417619,64.0645621 21.582381,64.0645621 21.7452381,64.0409616 L22,64 C21.9792857,64.511885 21.9602381,65.0148181 21.9428571,65.5082568 C21.9252381,66.0019667 21.9166667,66.5048998 21.9166667,67.0167848 L21.9166667,69.0184802 C21.9166667,69.5303652 21.9252381,70.0349259 21.9428571,70.5324336 C21.9602381,71.0296701 21.9792857,71.5187684 22,72 C21.8411905,71.9834526 21.6745238,71.9755858 21.5,71.9755858 C21.3252381,71.9755858 21.1588095,71.9834526 21,72 C21.0207143,71.5187684 21.0397619,71.0296701 21.0571429,70.5324336 C21.0745238,70.0349259 21.0833333,69.5303652 21.0833333,69.0184802 L21.0833333,67.0167848 C21.0833333,66.5100539 21.0745238,66.0076634 21.0571429,65.5082568" id="Fill-13" fill="#FFFFFF"></path>
                <path d="M26.1645803,70.3452579 C25.8507732,69.7012648 25.5194035,69.022278 25.1704713,68.3077549 C24.8212077,67.5935031 24.4557069,66.863789 24.0736377,66.1188837 C23.6981959,65.3737072 23.3403166,64.6673222 23,64 L23.3843888,64.0409616 C23.6209867,64.0645621 23.8602356,64.0645621 24.0968336,64.0409616 L24.4812224,64 C24.6886598,64.511885 24.9186303,65.0498118 25.1704713,65.614323 C25.4223122,66.178563 25.687408,66.750941 25.9657585,67.3314571 C26.2464286,67.9136008 26.5333947,68.5041538 26.8273196,69.1028449 C27.1209131,69.7012648 27.4194772,70.2953443 27.7220177,70.8848123 C27.8920103,70.5666135 28.0765832,70.2112509 28.275405,69.8189956 C28.4742268,69.4264691 28.6750368,69.0184802 28.8784978,68.5955715 C29.0816274,68.1721203 29.2827688,67.7408023 29.4815906,67.3013462 L30.0581738,66.037503 C30.2437408,65.6341257 30.4114138,65.2578753 30.5618557,64.9090231 C30.7119661,64.5598996 30.8402062,64.2571632 30.9462445,64 C31.2912003,64.0778543 31.6550442,64.0778543 32,64 C31.2597202,65.3511919 30.5486009,66.6901767 29.8659794,68.0177681 C29.1833579,69.3448171 28.5292342,70.6724085 27.904271,72 C27.7481959,71.9834526 27.5911267,71.9755858 27.4337261,71.9755858 C27.2763255,71.9739582 27.1189249,71.9820962 26.9631811,72 C26.7444772,71.54047 26.478056,70.9889797 26.1645803,70.3452579" id="Fill-15" fill="#FFFFFF"></path>
                <path d="M33.0769724,65.484787 C33.05356,64.9887762 33.0279025,64.4941176 33,64 L34.2315587,64.040568 C34.6401539,64.0513861 35.0503528,64.0578769 35.4631174,64.0592292 C35.875882,64.0611224 36.2841565,64.054902 36.6882617,64.040568 L37.913406,64 C37.8582425,64.2301555 37.8582425,64.4673428 37.913406,64.6977688 L37.1084028,64.6517918 L36.3386786,64.6058147 C36.0670301,64.5912103 35.7710071,64.5776876 35.4502886,64.5652468 C35.1295702,64.5525355 34.743746,64.5471264 34.2924952,64.5490196 C34.2924952,64.7978364 34.2806286,65.0339419 34.2572162,65.2576065 C34.2338037,65.4810007 34.2328416,65.735497 34.254009,66.0200135 L34.254009,66.9019608 L34.254009,67.551048 L35.3412444,67.551048 C35.6619628,67.551048 35.9560616,67.5413117 36.22322,67.5212982 L36.9608724,67.4858688 C37.1853752,67.4750507 37.3992944,67.4617985 37.6023092,67.4455713 C37.5744067,67.5637593 37.5602951,67.6843813 37.5606158,67.8052738 C37.5606158,67.92238 37.5747274,68.0392157 37.6023092,68.1541582 C37.3627325,68.1306288 37.0849904,68.1116971 36.7684413,68.0973631 C36.4518922,68.0827586 36.1311738,68.0727519 35.8062861,68.0676133 L34.9114817,68.0676133 L34.2443874,68.0676133 L34.2443874,68.2947938 L34.2443874,68.6031102 L34.2443874,69.7525355 L34.2443874,70.8343475 C34.2443874,71.1137255 34.2508018,71.3300879 34.2636305,71.4834348 L35.2257858,71.4834348 C35.5744067,71.4834348 35.9166132,71.4780257 36.2520847,71.4672076 C36.5878768,71.4563895 36.9085953,71.4409736 37.2142399,71.4212306 C37.4759461,71.4066261 37.7363695,71.3776876 37.9935856,71.3346856 C37.9740218,71.3939148 37.9621552,71.4544963 37.9583066,71.5158891 L37.9583066,71.6970926 C37.9550994,71.7993239 37.969211,71.9012847 38,72 C37.5872354,71.9837728 37.1767158,71.9756592 36.7684413,71.9756592 L34.254009,71.9756592 C33.8412444,71.9756592 33.4233483,71.9837728 33,72 C33.0279025,71.5042596 33.05356,71.0112238 33.0769724,70.520622 C33.1003849,70.0302907 33.1122514,69.5288709 33.1122514,69.0169033 L33.1122514,67.0209601 C33.1122514,66.4927654 33.1003849,65.9805274 33.0769724,65.484787" id="Fill-17" fill="#FFFFFF"></path>
                <path d="M40.4335793,67.7286622 L40.8680812,67.7286622 C41.125738,67.7273053 41.3825646,67.7001685 41.6346863,67.6472517 C41.8934502,67.5956917 42.1408672,67.4990846 42.3653137,67.3620435 C42.5897601,67.2252739 42.779059,67.0396579 42.9188192,66.8193068 C43.0740775,66.5563509 43.1499077,66.2548607 43.1374539,65.9511995 C43.1476937,65.6901431 43.0884686,65.4312577 42.9658672,65.1995092 C42.8582103,65.00928 42.7051661,64.8475444 42.5202952,64.7270569 C42.3392989,64.611454 42.1372694,64.5303148 41.9252768,64.4885241 C41.7177122,64.4459193 41.5062731,64.4242098 41.2942804,64.4231243 C41.0175277,64.4231243 40.7878229,64.4288231 40.6051661,64.4396778 C40.4225092,64.4505325 40.2683579,64.4641009 40.1429889,64.480383 L40.095941,65.7503869 C40.0793358,66.1701938 40.0710332,66.5897292 40.0710332,67.0095361 L40.0710332,67.6743885 C40.1894834,67.7009826 40.3095941,67.7191643 40.4308118,67.7286622 L40.4335793,67.7286622 Z M39.0664207,65.5085977 C39.0462177,65.0149787 39.0240775,64.5118618 39,64 L39.6780443,64.0407663 C39.8994465,64.0516211 40.1255535,64.0578625 40.3560886,64.0594907 C40.5866236,64.0613903 40.8127306,64.0516211 41.0341328,64.0299116 C41.2555351,64.0101017 41.4816421,64.0000611 41.7121771,64.0000611 C42.0309963,63.9984329 42.3489852,64.0293688 42.6614391,64.0923263 C42.9415129,64.1468713 43.2088561,64.2516195 43.4501845,64.4016862 C43.673524,64.5430691 43.8572878,64.7370975 43.9843173,64.965861 C44.2654982,65.5514739 44.2439114,66.2334226 43.9261993,66.8005824 C43.7645756,67.0597392 43.5528598,67.2855177 43.3035055,67.4654349 C43.0621771,67.6377538 42.7964945,67.7750662 42.5147601,67.8724874 C42.2665129,67.9614962 42.0096863,68.0263533 41.748155,68.0651589 L42.1411439,68.553622 C42.3071956,68.7633897 42.4917897,68.9940528 42.6946494,69.2456113 L43.3367159,70.0380068 L43.9787823,70.8304024 C44.1855166,71.0835891 44.3792435,71.3142522 44.5599631,71.5221203 C44.7406827,71.7302599 44.8873616,71.8895531 45,72 C44.8815498,71.9839893 44.7625461,71.9755768 44.6429889,71.9753055 L43.9428044,71.9753055 C43.827952,71.9753055 43.7133764,71.9837179 43.599631,72 L43.0461255,71.2673055 C42.8042435,70.9416634 42.5369004,70.5924124 42.2435424,70.2198236 C41.9501845,69.8472349 41.6512915,69.476003 41.3468635,69.1072134 C41.0424354,68.745208 40.7656827,68.4323203 40.5166052,68.1682789 L40.0654982,68.1682789 L40.0654982,69.0176618 C40.0654982,69.5297339 40.075738,70.0342077 40.095941,70.5318972 C40.1161439,71.0293154 40.1382841,71.5188639 40.1623616,72 C39.9777675,71.9837179 39.7840406,71.9753055 39.5811808,71.9753055 C39.378321,71.9753055 39.1843173,71.9837179 39,72 C39.0240775,71.5188639 39.045941,71.0293154 39.0664207,70.5318972 C39.0866236,70.0342077 39.0968635,69.5297339 39.0968635,69.0176618 L39.0968635,67.0176771 C39.0949262,66.5110324 39.0846863,66.0081869 39.0664207,65.5085977 Z" id="Fill-19" fill="#FFFFFF"></path>
                <path d="M46.6332144,72.4780993 C46.7473634,72.6558636 46.8830928,72.8140575 47.0364272,72.9474623 C47.2090704,73.0952186 47.4007385,73.2106839 47.6043325,73.2899439 C47.8312107,73.3819247 48.0705828,73.4272628 48.3113746,73.4236749 C48.5595493,73.4282413 48.8060202,73.3737704 49.0354539,73.2638501 C49.4528643,73.0642322 49.7782741,72.6728246 49.9327443,72.1845435 C50.0150906,71.9307809 50.0562637,71.6623405 50.054844,71.3919431 C50.072449,71.0230414 49.9713619,70.6596846 49.7708913,70.3710215 C49.5704207,70.1104092 49.3284931,69.897092 49.0581701,69.7411813 C48.7597359,69.5657002 48.4524991,69.4114204 48.1381635,69.2780156 C47.8158773,69.1416753 47.5075047,68.9655419 47.2181569,68.752877 C46.9347722,68.5438001 46.6919926,68.2698148 46.5054357,67.9472296 C46.3012738,67.553865 46.2021743,67.1004845 46.2214831,66.6425375 C46.2169398,66.2752667 46.2788415,65.9112576 46.4032128,65.57269 C46.5238927,65.2536927 46.7053384,64.9692698 46.9342042,64.7409487 C47.1792554,64.4995807 47.4626401,64.3146406 47.7690251,64.1962398 C48.1222622,64.0605518 48.4925364,63.9946648 48.8650823,64.0008621 C49.2072453,63.9923816 49.5482724,64.0465263 49.8759538,64.1606869 C50.1638818,64.2696287 50.432217,64.437934 50.6681817,64.6564699 C50.594354,64.8182517 50.5335881,64.9872094 50.486452,65.1617119 C50.4370442,65.3401286 50.3879204,65.5642095 50.3387966,65.8339546 L50.1911412,65.8339546 C50.144289,65.6875029 50.0892022,65.5446391 50.0264487,65.4063417 C49.952905,65.2471693 49.8572129,65.1026746 49.742496,64.9793812 C49.6186927,64.8453241 49.4767163,64.7350776 49.3222461,64.6532082 C49.1382448,64.5592703 48.9383421,64.5136061 48.7373036,64.5194772 C48.5229194,64.5168679 48.3102388,64.5602489 48.1097683,64.6463585 C47.9243472,64.7259448 47.7545435,64.846955 47.6100116,65.0018872 C47.4668994,65.1577979 47.3544542,65.346652 47.2806265,65.5563813 C47.2016877,65.7791575 47.1622182,66.0172638 47.1642059,66.2579795 C47.1448971,66.6317738 47.2457003,67.0010017 47.4481586,67.2948836 C47.6480612,67.5620193 47.8897049,67.7828384 48.1608797,67.9472296 C48.4573263,68.126951 48.764847,68.2818832 49.0808863,68.4103954 C49.400901,68.5408646 49.7092736,68.7065605 50.000893,68.9065045 C50.2817221,69.0989466 50.5245017,69.3566233 50.7136141,69.6628998 C50.91806,70.0298445 51.0171595,70.4610452 50.9975668,70.8958339 C50.9992705,71.312683 50.9308379,71.7256181 50.7959604,72.1127855 C50.6650582,72.4901677 50.4654395,72.8316708 50.2110179,73.1138105 C49.9415469,73.4057354 49.6212483,73.6281854 49.2711346,73.7661566 C48.8656502,73.9269599 48.4391533,74.0055676 48.0103848,73.9977394 C47.5929744,74.0147004 47.1769838,73.9360927 46.7865489,73.7661566 C46.5045839,73.6334041 46.23994,73.4569445 46,73.2413442 C46.0664449,73.0534685 46.1178404,72.8590694 46.1533344,72.6607562 C46.1817297,72.488863 46.2081373,72.2713056 46.2328412,72.0084101 L46.3804966,72.0084101 C46.4509168,72.1737798 46.5355347,72.3313214 46.6332144,72.4780993" id="Fill-21" fill="#FFFFFF"></path>
                <path d="M53.0571429,65.5082568 C53.0397619,65.0148181 53.0207143,64.511885 53,64 L53.2547619,64.0409616 C53.417619,64.0645621 53.582381,64.0645621 53.7452381,64.0409616 L54,64 C53.9792857,64.511885 53.9602381,65.0148181 53.9428571,65.5082568 C53.9252381,66.0019667 53.9166667,66.5048998 53.9166667,67.0167848 L53.9166667,69.0184802 C53.9166667,69.5303652 53.9252381,70.0349259 53.9428571,70.5324336 C53.9602381,71.0296701 53.9792857,71.5187684 54,72 C53.8411905,71.9834526 53.6745238,71.9755858 53.5,71.9755858 C53.3252381,71.9755858 53.1588095,71.9834526 53,72 C53.0207143,71.5187684 53.0397619,71.0296701 53.0571429,70.5324336 C53.0745238,70.0349259 53.0833333,69.5303652 53.0833333,69.0184802 L53.0833333,67.0167848 C53.0833333,66.5100539 53.0745238,66.0076634 53.0571429,65.5082568" id="Fill-23" fill="#FFFFFF"></path>
                <path d="M58.890343,64.6099627 L58.1511733,64.6099627 C57.8943592,64.6099627 57.6362816,64.6178245 57.3772563,64.6343612 L56.631769,64.6747543 C56.3916968,64.6912911 56.1810018,64.7099966 56,64.7316842 C56.0413809,64.6110471 56.0634928,64.4863436 56.0663357,64.3602846 C56.0603339,64.2385632 56.0379061,64.117655 56,64 L57.75,64.0403931 C58.3185921,64.0512369 58.9020307,64.0577431 59.5,64.0596408 C60.0979693,64.0615385 60.6814079,64.0550322 61.25,64.0403931 L63,64 C62.9611462,64.1209082 62.9390343,64.2456117 62.9336643,64.3711284 C62.937139,64.4933921 62.9592509,64.6148424 63,64.7316842 C62.8104693,64.70837 62.5997744,64.6893934 62.368231,64.6747543 L61.6227437,64.6343612 C61.3659296,64.6235175 61.107852,64.6153846 60.8488267,64.6099627 L60.109657,64.6099627 C60.0821751,65.4086073 60.0685921,66.2118604 60.0685921,67.0199932 L60.0685921,69.020671 C60.0685921,69.5319553 60.0802798,70.0364622 60.1033394,70.5333785 C60.1267148,71.0302948 60.1516697,71.5190783 60.1791516,72 C59.9687726,71.9834632 59.7473375,71.9756015 59.5157942,71.9756015 C59.2842509,71.9756015 59.0631318,71.9834632 58.8524368,72 C58.8799188,71.5190783 58.9051895,71.0302948 58.9282491,70.5333785 C58.9513087,70.0364622 58.9629964,69.5319553 58.9629964,69.020671 L58.9629964,67.0199932 C58.942148,66.2118604 58.9178249,65.4086073 58.890343,64.6099627" id="Fill-25" fill="#FFFFFF"></path>
                <path d="M65.6361396,68.1247458 L65.1043121,67.2867797 L64.4919918,66.3213559 L63.8796715,65.3559322 L63.3564682,64.5423729 C63.1992197,64.2983051 63.0804928,64.1174237 63,64 L63.3392197,64.0404068 C63.5645996,64.064 63.7919918,64.064 64.0176591,64.0404068 L64.3568789,64 C64.7265708,64.6741695 65.1031622,65.3377627 65.486653,65.9905085 C65.8698563,66.6429831 66.2751951,67.3220339 66.7026694,68.0271186 C66.8941273,67.7467119 67.0916222,67.4405424 67.2948665,67.1077966 C67.4981109,66.7750508 67.7039425,66.4333559 67.9129363,66.0827119 C68.1179055,65.7336949 68.3154004,65.3830508 68.5051335,65.0305085 C68.6948665,64.6779661 68.8719507,64.3343729 69.036961,64 C69.3526078,64.0775593 69.6843532,64.0775593 70,64 C69.6052977,64.5656949 69.2517043,65.0785085 68.9392197,65.5376271 C68.6267351,65.9967458 68.3507598,66.411661 68.1112936,66.7823729 C67.87154,67.1547119 67.6616838,67.4901695 67.4817248,67.7884746 C67.3014784,68.0865085 67.1453799,68.3576949 67.0131417,68.6020339 L67.0131417,69.5210847 C67.0131417,69.8467797 67.0188912,70.1665085 67.0303901,70.4810847 C67.0303901,70.7959322 67.0407392,71.0869153 67.0620123,71.3545763 C67.0829979,71.6219661 67.0973717,71.8370169 67.1051335,72 C66.9133881,71.9834576 66.7121561,71.9755932 66.5014374,71.9755932 C66.2904312,71.9755932 66.0894867,71.9834576 65.8977413,72 C65.9474743,71.5967458 65.9762218,71.1077966 65.9839836,70.5328814 C65.9914579,69.9579661 65.9914579,69.3567458 65.9839836,68.7292203 L65.6361396,68.1247458 Z" id="Fill-27" fill="#FFFFFF"></path>
                <path d="M83.4074634,67.0073621 C83.2457135,66.4863747 82.9794482,66.0082038 82.626709,65.6052066 C82.2994765,65.2407769 81.8975902,64.9596921 81.4509117,64.7848312 C80.5099627,64.4292263 79.4803624,64.4292263 78.5394134,64.7848312 C78.0927349,64.9596921 77.6905375,65.2407769 77.3636161,65.6052066 C77.0111879,66.0085306 76.7446116,66.4867016 76.5828617,67.0073621 C76.2086596,68.3209433 76.2086596,69.7204841 76.5828617,71.0340652 C76.7446116,71.5547257 77.0108769,72.0328967 77.3636161,72.4362207 C77.6905375,72.8009773 78.0927349,73.0814084 78.5394134,73.2565961 C79.4803624,73.6125279 80.5099627,73.6125279 81.4509117,73.2565961 C81.8975902,73.0814084 82.2994765,72.8009773 82.626709,72.4362207 C82.9797593,72.0332236 83.2460245,71.5547257 83.4074634,71.0340652 C83.7819766,69.7195035 83.7819766,68.3186554 83.4074634,67.0040937 L83.4074634,67.0073621 Z M75.3635163,66.8962356 C75.5933878,66.2974596 75.9445718,65.7588227 76.3931167,65.317585 C76.8497491,64.8779814 77.3891228,64.5439481 77.9763994,64.3370566 C79.2906173,63.8876478 80.7059289,63.8876478 82.0201469,64.3370566 C82.6074235,64.5442749 83.1464861,64.8779814 83.6034296,65.317585 C84.0516634,65.7588227 84.4031584,66.2974596 84.6330299,66.8962356 C85.1223234,68.2660337 85.1223234,69.7757205 84.6330299,71.1451917 C84.173909,72.3633348 83.2142966,73.2967978 82.0232575,73.6847601 C80.7049958,74.10508 79.2977716,74.10508 77.9795099,73.6847601 C76.7887818,73.2967978 75.8288584,72.3633348 75.3697375,71.1451917 C74.8788887,69.7763742 74.8767113,68.2670142 75.3635163,66.8962356 Z" id="Fill-29" fill="#FFFFFF"></path>
                <path d="M86.0910175,65.5032105 C86.0681062,65.0114228 86.0429979,64.5101724 86.0156927,64 L87.2212039,64.0408246 C87.6207394,64.0516391 88.0221581,64.057587 88.4260875,64.0594796 C88.8300169,64.0613721 89.238968,64.0551538 89.6535685,64.0408246 L91,64 C90.9460172,64.2303481 90.9460172,64.4674552 91,64.6978033 C90.7570774,64.6742819 90.4651936,64.6526529 90.1243488,64.6326462 C89.78319,64.6129098 89.4344988,64.5974992 89.0792166,64.5866847 L88.0557404,64.5569449 L87.2397213,64.5569449 C87.2397213,64.8273065 87.2337581,65.087124 87.2212039,65.3358567 C87.2086498,65.5845894 87.2086498,65.8322406 87.2212039,66.0793511 L87.2212039,66.8279824 L87.2212039,67.5417371 C87.8131316,67.5417371 88.3990961,67.5338966 88.9784697,67.5174045 C89.5581571,67.5014532 90.130312,67.470632 90.6952483,67.4254816 C90.623062,67.6539371 90.623062,67.8948293 90.6952483,68.1230145 C90.4714707,68.0997634 90.2181909,68.0824603 89.9357228,68.0716458 L89.0537945,68.0421764 L88.112234,68.0421764 L87.2086498,68.0421764 L87.2086498,69.0287259 C87.2086498,69.5388983 87.2199485,70.0417709 87.2428598,70.5373437 C87.2657711,71.0331869 87.2908794,71.5206489 87.3181847,72 C87.1088444,71.9840487 86.8894608,71.9756675 86.6594062,71.9756675 C86.4290377,71.9756675 86.2093403,71.9840487 86,72 C86.0273053,71.5206489 86.0524135,71.0331869 86.0753248,70.5373437 C86.0982361,70.0417709 86.1101626,69.5388983 86.1101626,69.0287259 L86.1101626,67.0066914 C86.1205197,66.501656 86.1139288,66.0009463 86.0910175,65.5032105" id="Fill-31" fill="#FFFFFF"></path>
                <path d="M97.0853758,65.5087684 C97.0623779,65.0151623 97.0371747,64.5120586 97.0097662,64 L97.3468591,64.0409755 C97.5623464,64.064584 97.7803541,64.064584 97.9958415,64.0409755 L98.3329343,64 C98.3055258,64.5120586 98.2803226,65.0151623 98.2573247,65.5087684 C98.2340117,66.0026458 98.2226703,66.5057495 98.2223552,67.0178081 C98.2226703,67.9963366 98.2226703,68.8448831 98.2223552,69.5629049 C98.2226703,70.2811981 98.2321215,70.9235101 98.2510239,71.4895696 C98.8811039,71.4895696 99.4941718,71.4844137 100.090858,71.4732879 C100.723143,71.4589057 101.354168,71.4144025 101.981098,71.3403209 C101.948333,71.4529358 101.932581,71.568807 101.933842,71.685221 C101.937622,71.7921373 101.95999,71.8982395 102,72 C101.580052,71.983447 101.165144,71.9753061 100.755277,71.9753061 L98.26016,71.9753061 C97.8591141,71.9753061 97.4391658,71.983447 97,72 C97.0274085,71.5186052 97.0526117,71.0293409 97.0759246,70.5319358 C97.0989226,70.0342594 97.110579,69.5295275 97.110579,69.0177402 L97.110579,67.0178081 C97.1168798,66.5109053 97.1083738,66.0083444 97.0853758,65.5087684" id="Fill-33" fill="#FFFFFF"></path>
                <path d="M110.408471,67.0073621 C110.246768,66.4863747 109.98058,66.0082038 109.627943,65.6052066 C109.300806,65.2407769 108.899037,64.9596921 108.452488,64.7848312 C107.984483,64.6034335 107.489423,64.5125712 106.990943,64.5168201 C106.496506,64.5132249 106.005489,64.6037603 105.541837,64.7848312 C105.093422,64.9538089 104.687921,65.2290106 104.357052,65.5888645 C104.004105,65.9921885 103.738228,66.4700326 103.576525,66.99102 C103.202432,68.3046011 103.202432,69.7041419 103.576525,71.017723 C103.737917,71.5383836 104.004105,72.0165546 104.357052,72.4198786 C104.683879,72.7843083 105.085959,73.0650662 105.532197,73.240254 C105.99616,73.4213249 106.487176,73.5118603 106.981303,73.508265 C107.480094,73.512514 107.975465,73.4219785 108.443159,73.240254 C108.889397,73.0650662 109.291788,72.7843083 109.618614,72.4198786 C109.971562,72.0165546 110.237439,71.5383836 110.399142,71.017723 C110.769503,69.708064 110.76826,68.313099 110.396032,67.0040937 L110.408471,67.0073621 Z M102.366863,66.8962356 C102.596668,66.2974596 102.94775,65.7588227 103.396164,65.317585 C103.852664,64.8779814 104.391881,64.5439481 104.978986,64.3370566 C106.292511,63.8876478 107.707722,63.8876478 109.021558,64.3370566 C109.608664,64.5439481 110.147569,64.8779814 110.60438,65.317585 C111.052483,65.7591496 111.403565,66.2974596 111.63337,66.8962356 C112.12221,68.2660337 112.12221,69.7753936 111.63337,71.1451917 C111.174694,72.3633348 110.215049,73.2967978 109.024667,73.6847601 C107.706789,74.10508 106.299974,74.10508 104.982096,73.6847601 C103.789227,73.2987588 102.827095,72.3646421 102.366863,71.1451917 C101.877712,69.7757205 101.877712,68.2660337 102.366863,66.8962356 Z" id="Fill-35" fill="#FFFFFF"></path>
                <path d="M117.824883,70.1681205 C116.809282,68.8613153 115.793955,67.5639844 114.778081,66.277108 C114.778081,66.5384691 114.770164,66.8890196 114.75351,67.3290862 C114.737129,67.7688262 114.737129,68.3666895 114.75351,69.1226763 L114.75351,69.8508935 L114.75351,70.7623901 C114.75351,71.0796171 114.75351,71.4157927 114.770164,71.742494 C114.786271,72.0691953 114.786271,72.3733542 114.794462,72.6539907 C114.802925,72.9352805 114.810842,73.1803064 114.819033,73.3890686 C114.827496,73.5984841 114.835686,73.741906 114.843604,73.817374 C114.707917,73.7971185 114.571139,73.7873175 114.434087,73.7879709 C114.289119,73.7873175 114.14415,73.7971185 114,73.817374 C114.016654,73.7226306 114.032761,73.5494789 114.052145,73.2979189 C114.070983,73.0463589 114.090094,72.7425267 114.103744,72.3929563 C114.117395,72.0433859 114.136505,71.6608187 114.155889,71.2495018 C114.174727,70.8378581 114.191108,70.4262145 114.202028,70.0142442 C114.213222,69.6029272 114.224142,69.2010846 114.232059,68.8090431 C114.24025,68.4170015 114.232059,68.0641641 114.232059,67.7570649 L114.232059,65.4440197 C114.232059,64.7991114 114.222231,64.3178804 114.202028,64 L114.390406,64 L115.91954,65.9827502 C116.465562,66.6887517 117.004212,67.3856055 117.535491,68.0739652 L119.059165,70.034173 C119.539392,70.6460845 119.959828,71.1678265 120.320476,71.5990722 L120.320476,69.6911366 C120.320476,68.7087458 120.314743,67.7524911 120.303822,66.8226992 C120.292902,65.8925806 120.267512,65.0212683 120.227652,64.2090888 C120.357605,64.2509066 120.491381,64.2737757 120.626248,64.2776961 C120.752652,64.2721422 120.878237,64.2492731 121,64.2090888 C120.983619,64.4139305 120.96642,64.7220099 120.948128,65.1336535 C120.930109,65.5452971 120.910998,65.98079 120.890796,66.4404587 C120.870866,66.9086216 120.853666,67.3673103 120.838924,67.8158711 C120.824454,68.264432 120.816264,68.6247836 120.814353,68.8969257 L120.814353,69.7398151 L120.814353,70.719919 L120.814353,71.7656898 L120.814353,72.7457937 L120.814353,73.5364109 L120.814353,74 L120.650819,74 C119.782371,72.7523277 118.840757,71.4749257 117.824883,70.1681205" id="Fill-37" fill="#FFFFFF"></path>
                <path d="M125.378627,71.4535095 C125.646067,71.5000194 125.917485,71.5289528 126.190559,71.5400395 C126.532896,71.5600495 126.884181,71.5700545 127.244413,71.5700545 C127.77134,71.5692433 128.296279,71.518407 128.808625,71.4183568 C129.323621,71.3207402 129.803821,71.1263183 130.21045,70.8507746 C130.646573,70.5376445 130.987253,70.1460967 131.204652,69.706687 C131.695788,68.566385 131.725614,67.3279257 131.290816,66.1727514 C131.119813,65.7787699 130.831826,65.4256197 130.452372,65.1452087 C130.086174,64.8899455 129.649388,64.7106664 129.179793,64.6230548 C128.648558,64.5227342 128.104729,64.4737907 127.559244,64.4770356 C127.132731,64.4770356 126.734056,64.4889335 126.362887,64.5121884 C125.991718,64.5357137 125.660318,64.5630247 125.368685,64.5935806 C125.339853,64.964848 125.318975,65.3531509 125.305719,65.7587599 C125.292463,66.1643688 125.285835,66.5764675 125.285835,66.9947856 L125.285835,68.9903816 C125.290143,69.835941 125.321295,70.6604088 125.378627,71.4643258 L125.378627,71.4535095 Z M124.089478,65.5045783 C124.065286,65.0127098 124.038774,64.5113772 124.009942,64.0011211 L125.08368,64.0419524 C125.439605,64.0527686 125.797518,64.0587176 126.157419,64.0606104 C126.517651,64.0625033 126.875564,64.0527686 127.231157,64.0311362 C127.58675,64.0113965 127.944663,64.0011211 128.304895,64.0011211 C129.03232,63.9886824 129.757093,64.0798092 130.445744,64.2715271 C130.997858,64.4286329 131.497279,64.6884931 131.903907,65.0313678 C132.293303,65.3747834 132.578639,65.7876933 132.735723,66.2376489 C132.918656,66.760614 133.00714,67.3025075 132.99753,67.8462939 C133.022716,68.520416 132.855027,69.1899412 132.507057,69.8015995 C132.210784,70.2991465 131.782946,70.7369337 131.254362,71.0833238 C130.757261,71.4034844 130.185595,71.6381968 129.57416,71.772859 C129.002494,71.9034651 128.411606,71.9718778 127.817736,71.9756635 L126.863302,71.9756635 L125.908868,71.9756635 L124.954434,71.9756635 C124.640598,71.9756635 124.322453,71.9837756 124,72 C124.028832,71.5202998 124.055344,71.0324875 124.079536,70.5368333 C124.103728,70.0411792 124.11599,69.5382241 124.11599,69.027968 L124.11599,67.0083059 C124.122618,66.5031875 124.114002,66.0023957 124.089478,65.5045783 Z" id="Fill-39" fill="#FFFFFF"></path>
                <path d="M142.407893,67.0073621 C142.246139,66.4863747 141.979868,66.0082038 141.62712,65.6052066 C141.300191,65.2407769 140.897984,64.9596921 140.451295,64.7848312 C139.983454,64.6034335 139.487928,64.5125712 138.989291,64.5168201 C138.494698,64.5132249 138.003527,64.6037603 137.539729,64.7848312 C137.101128,64.9577311 136.705765,65.2326058 136.382568,65.5888645 C136.029821,65.9921885 135.76355,66.4700326 135.601796,66.99102 C135.227896,68.3046011 135.227896,69.7041419 135.601796,71.017723 C135.76355,71.5383836 136.02951,72.0165546 136.382568,72.4198786 C136.709497,72.7843083 137.112015,73.0650662 137.558393,73.240254 C138.02188,73.4213249 138.513051,73.5118603 139.007955,73.508265 C139.506903,73.512514 140.002118,73.4219785 140.47027,73.240254 C140.916648,73.0650662 141.318855,72.7843083 141.645784,72.4198786 C141.998843,72.0165546 142.265114,71.5383836 142.426868,71.017723 C142.792991,69.7067567 142.787703,68.3117917 142.411003,67.0040937 L142.407893,67.0073621 Z M134.363758,66.8962356 C134.593635,66.2974596 134.945138,65.7588227 135.393382,65.317585 C135.850337,64.8779814 136.389412,64.5439481 136.976702,64.3370566 C138.290951,63.8876478 139.706295,63.8876478 141.020544,64.3370566 C141.607834,64.5439481 142.147221,64.8779814 142.603864,65.317585 C143.052108,65.7591496 143.403611,66.2974596 143.633488,66.8962356 C144.122171,68.2660337 144.122171,69.7753936 143.633488,71.1451917 C143.174356,72.3633348 142.214722,73.2967978 141.023655,73.6847601 C139.705362,74.10508 138.298105,74.10508 136.979813,73.6847601 C135.789057,73.2967978 134.829422,72.3633348 134.369979,71.1451917 C133.878808,69.7763742 133.876631,68.2666874 134.363758,66.8962356 Z" id="Fill-41" fill="#FFFFFF"></path>
                <path d="M147.824883,70.1681205 C146.809009,68.8613153 145.793682,67.5639844 144.778081,66.277108 C144.778081,66.5384691 144.769891,66.8890196 144.75351,67.3290862 C144.736856,67.7688262 144.736856,68.3666895 144.75351,69.1226763 L144.75351,69.8508935 L144.75351,70.7623901 C144.75351,71.0796171 144.75351,71.4157927 144.769891,71.742494 C144.786271,72.0691953 144.786271,72.3733542 144.794189,72.6539907 C144.802652,72.9352805 144.810842,73.1803064 144.819033,73.3890686 C144.827223,73.5984841 144.835413,73.741906 144.843604,73.817374 C144.707644,73.7971185 144.570866,73.7873175 144.434087,73.7879709 C144.289119,73.7873175 144.14415,73.7971185 144,73.817374 C144.016381,73.7226306 144.032488,73.5494789 144.051872,73.2979189 C144.070983,73.0463589 144.090094,72.7425267 144.103744,72.3929563 C144.117395,72.0433859 144.136505,71.6608187 144.155616,71.2495018 C144.174727,70.8378581 144.190835,70.4262145 144.201755,70.0142442 C144.212949,69.6029272 144.223869,69.2010846 144.232059,68.8090431 C144.24025,68.4170015 144.232059,68.0641641 144.232059,67.7570649 L144.232059,65.4440197 C144.232059,64.7991114 144.221958,64.3178804 144.201755,64 L144.390406,64 L145.919267,65.9827502 C146.465289,66.6887517 147.003939,67.3856055 147.535218,68.0739652 L149.058892,70.034173 C149.539392,70.6460845 149.959555,71.1678265 150.320203,71.5990722 L150.320203,69.6911366 C150.320203,68.7087458 150.314743,67.7524911 150.303822,66.8226992 C150.292902,65.8925806 150.267239,65.0212683 150.227379,64.2090888 C150.357332,64.2509066 150.491381,64.2737757 150.625975,64.2776961 C150.752379,64.2721422 150.877964,64.2492731 151,64.2090888 C150.983346,64.4139305 150.96642,64.7220099 150.947855,65.1336535 C150.929836,65.5452971 150.910725,65.98079 150.890523,66.4404587 C150.870593,66.9086216 150.853393,67.3673103 150.838924,67.8158711 C150.824181,68.264432 150.815991,68.6247836 150.814353,68.8969257 L150.814353,69.7398151 L150.814353,70.719919 L150.814353,71.7656898 L150.814353,72.7457937 L150.814353,73.5364109 L150.814353,74 L150.650546,74 C149.782371,72.7523277 148.840484,71.4749257 147.824883,70.1681205" id="Fill-43" fill="#FFFFFF"></path>
                <g id="Group-47" transform="translate(45.000000, 79.000000)">
                    <mask id="mask-2" fill="white">
                        <use xlink:href="#path-1"></use>
                    </mask>
                    <g id="Clip-46"></g>
                    <path d="M0.343136893,2.32631561 C0.316952427,1.63362162 0.288962136,0.942183086 0.258865049,0.251686138 L1.65236019,0.308181343 C2.11284563,0.308181343 2.57935049,0.3301517 3.04585534,0.3301517 C3.51236019,0.3301517 3.97284563,0.3301517 4.43333107,0.308181343 L5.81779709,0.251686138 C5.78739903,0.411755885 5.77235049,0.574964255 5.77265146,0.738172624 C5.77295243,0.901380994 5.7877,1.0642755 5.81779709,1.22465911 L4.91488447,1.15874804 L4.03905922,1.09597559 C3.73808835,1.07400523 3.40100097,1.0551735 3.03682621,1.03634176 C2.67265146,1.01751003 2.2392534,1.0143714 1.73061262,1.0143714 C1.73061262,1.3627585 1.70954466,1.68917524 1.69148641,2.00303749 C1.67342816,2.31689974 1.66740874,2.6747027 1.66740874,3.07330776 L1.66740874,4.3067864 L1.66740874,5.21698692 C2.12488447,5.21698692 2.53420485,5.21698692 2.89837961,5.19815519 C3.26255437,5.17932345 3.59362233,5.17618483 3.8915835,5.16049172 L4.72527282,5.11341238 C4.97808835,5.09458065 5.22187476,5.07920139 5.44760291,5.05377855 C5.41690388,5.21918396 5.40185534,5.38741412 5.40245728,5.55595815 C5.40215631,5.71948038 5.41720485,5.88206103 5.44760291,6.04244464 C5.17853495,6.01105841 4.86552524,5.98469398 4.50857379,5.96397908 C4.15132136,5.94295031 3.79316602,5.92851264 3.43410777,5.92003836 L2.42284563,5.92003836 L1.66740874,5.92003836 L1.66740874,6.23390061 L1.66740874,6.66389189 L1.66740874,8.27086661 L1.66740874,9.79309852 C1.66740874,10.1917036 1.66740874,10.4992886 1.6884767,10.703299 L2.77799126,10.703299 C3.17527282,10.703299 3.56051553,10.703299 3.93973883,10.6781901 C4.31896214,10.6530811 4.67711748,10.6436652 5.01420485,10.6154176 C5.3082534,10.5937611 5.60079709,10.552959 5.8900301,10.4930113 C5.86956408,10.5749294 5.85722427,10.6593583 5.85391359,10.7441011 L5.85391359,10.9951909 C5.85120485,11.1367428 5.86655437,11.2779808 5.89905922,11.4157663 C5.43345728,11.3950514 4.96905922,11.3853217 4.50556408,11.3875187 L1.67944757,11.3875187 C1.21294272,11.3875187 0.740418447,11.3875187 0.261874757,11.4157663 C0.291971845,10.728408 0.322068932,10.0347724 0.346146602,9.35055275 C0.370224272,8.66633304 0.388282524,7.96014298 0.388282524,7.24767568 L0.388282524,4.45430166 C0.388282524,3.7430898 0.374136893,3.0397245 0.346146602,2.34514734 L0.343136893,2.32631561 Z M8.83051553,9.89981168 C8.97588447,10.1050776 9.14924369,10.2868038 9.34517573,10.4396548 C9.80505922,10.8112677 10.3735932,11.0074316 10.9553699,10.9951909 C11.2734961,10.9989573 11.5889136,10.9349294 11.8823602,10.8068736 C12.1466126,10.689803 12.3852825,10.5181203 12.5836223,10.3015554 C12.7792534,10.0868736 12.9309427,9.83264516 13.0290592,9.55456321 C13.1328942,9.26235745 13.1846612,8.95288928 13.1825544,8.64122406 C13.2033214,8.21217437 13.0727,7.79002964 12.8153699,7.45482476 C12.5616515,7.15445859 12.2552631,6.90713514 11.9124573,6.72666434 C11.5308262,6.52234002 11.1377583,6.34218309 10.7356612,6.18682127 C10.324535,6.02957629 9.93086505,5.82619355 9.56187476,5.58106713 C9.20251553,5.33468527 8.89522427,5.01423191 8.65896214,4.63948038 C8.39320485,4.18186922 8.26529223,3.65175588 8.29177767,3.11724847 C8.28485534,2.68631561 8.36370971,2.25914908 8.52352524,1.86179948 C8.67882621,1.49206975 8.90997184,1.16188666 9.20070971,0.895103749 C9.51432136,0.617021796 9.87578738,0.403909329 10.2661466,0.26737925 C10.7179039,0.108878814 11.191933,0.0313548387 11.6686709,0.0382598082 C12.1047777,0.029157803 12.5396806,0.0928718396 12.9568262,0.226577158 C13.3249136,0.351808195 13.6686223,0.545461203 13.9710981,0.797806452 C13.8768942,0.985809939 13.7983408,1.18228771 13.7363408,1.38472886 C13.6731369,1.59187794 13.6129427,1.85238361 13.5497388,2.16279337 L13.3631369,2.16279337 C13.3029427,1.99330776 13.2325155,1.82758849 13.1524573,1.66720488 C13.0600592,1.48265388 12.9390689,1.31473758 12.7943019,1.17130253 C12.6359913,1.01594071 12.4551078,0.887884917 12.2585738,0.791529207 C12.0232146,0.681677419 11.7667874,0.628948561 11.5091563,0.637736704 C11.2367777,0.633342633 10.9662049,0.682619006 10.7115835,0.782113339 C10.4756223,0.875644289 10.2592243,1.01499913 10.0735252,1.19327289 C9.89113689,1.37594071 9.74757379,1.59595815 9.65216602,1.83982912 C9.55344757,2.09751003 9.50438932,2.37213949 9.5077,2.64959372 C9.48422427,3.08335135 9.61364175,3.51083173 9.87187476,3.85168614 C10.127399,4.15236617 10.4334864,4.40220052 10.7747874,4.58926242 C11.1543117,4.79609765 11.5476806,4.97468527 11.9515835,5.12282825 C12.360001,5.27505144 12.7530689,5.46839058 13.1253699,5.70033479 C13.4814184,5.92380471 13.7887097,6.22197384 14.0282825,6.57601046 C14.2910301,7.00035222 14.4195447,7.49970706 14.395467,8.0040837 C14.3978748,8.48805929 14.3099913,8.9676408 14.136632,9.41646382 C13.9686903,9.85398779 13.7143699,10.2497681 13.3902243,10.5777541 C13.0459136,10.9192363 12.6353893,11.1791142 12.1863408,11.3404394 C11.6686709,11.5268736 11.1236126,11.6182075 10.5761466,11.6103609 C10.0425252,11.6298204 9.51040874,11.5381726 9.01109806,11.3404394 C8.65173883,11.1875885 8.31465146,10.9838919 8.00886505,10.7346853 C8.09133107,10.5156094 8.15664175,10.2899425 8.20449612,10.0598814 C8.24061262,9.85900959 8.27371942,9.60164255 8.3038165,9.2877803 L8.49041845,9.2877803 C8.58040874,9.49900959 8.6923699,9.69862598 8.82449612,9.88411857 L8.83051553,9.89981168 Z M19.376535,1.07745772 L18.5247874,1.07745772 C18.2238165,1.07745772 17.9228456,1.07745772 17.639933,1.10853008 C17.3570204,1.1399163 17.0590592,1.14305493 16.782166,1.16502528 C16.5052728,1.18699564 16.2614864,1.21524324 16.0417777,1.24662947 C16.089632,1.0783993 16.1161175,0.904205754 16.1200301,0.728756757 C16.1128068,0.558643418 16.0863214,0.39009939 16.0417777,0.226577158 L18.0522631,0.283072363 C18.7062728,0.297823888 19.376535,0.30504272 20.0627485,0.30504272 C20.7489621,0.30504272 21.4171175,0.297823888 22.0672146,0.283072363 L24.0777,0.226577158 C24.0319524,0.396690497 24.005768,0.571197908 23.9994476,0.747588492 C24.0042631,0.918015693 24.0304476,1.08687358 24.0777,1.24976809 C23.8579913,1.21838187 23.6142049,1.18699564 23.3403214,1.16816391 C23.0664379,1.14933217 22.7775058,1.12736181 22.4825544,1.1116687 C22.1876029,1.09597559 21.8806126,1.08655972 21.5977,1.08028248 L20.7489621,1.08028248 C20.718865,2.19135484 20.7008068,3.31184307 20.7008068,4.44174717 L20.7008068,7.23198256 C20.7008068,7.94758849 20.7158553,8.64750131 20.7429427,9.34113688 C20.7700301,10.0347724 20.7971175,10.7158535 20.8302243,11.3843801 C20.5894476,11.3655484 20.336632,11.3564464 20.068768,11.3564464 C19.8009039,11.3564464 19.5450786,11.3564464 19.3043019,11.3843801 C19.334399,10.7158535 19.3644961,10.0347724 19.3885738,9.34113688 C19.4126515,8.64750131 19.4307097,7.94758849 19.4307097,7.23198256 L19.4307097,4.47313339 C19.4307097,3.34322929 19.4156612,2.22274106 19.3855641,1.1116687 L19.376535,1.07745772 Z M30.0248845,2.55229643 C29.9141272,2.34106713 29.7537097,2.16279337 29.5583796,2.03442371 L29.5583796,1.9214333 C30.1603214,1.6703435 30.7622631,1.40042197 31.3642049,1.10225283 C31.9661466,0.804083697 32.5680883,0.515330427 33.0977971,0.235993025 L33.2061466,0.314458588 C33.1658165,1.03006452 33.1351175,1.73625458 33.1125447,2.43302877 C33.0917777,3.12980296 33.0827485,3.83913165 33.0827485,4.55159895 L33.0827485,7.26336879 C33.0827485,7.97897472 33.0926806,8.67888753 33.1125447,9.36310724 C33.1330107,10.0473269 33.1640107,10.7199337 33.2061466,11.3812415 C33.0857583,11.361782 32.963865,11.35268 32.8419718,11.3529939 L32.1106126,11.3529939 C31.9887194,11.35268 31.8671272,11.3620959 31.7464379,11.3812415 C31.7976029,10.7127149 31.8307097,10.0347724 31.8454573,9.35369137 C31.8608068,8.67261029 31.8698359,7.97583609 31.8698359,7.26023017 L31.8698359,1.516551 L30.0248845,2.55229643 Z M41.9493505,7.26023017 C41.8605641,6.95044813 41.7188068,6.66043941 41.531001,6.40338622 C40.9504282,5.65670793 39.9554184,5.42193897 39.123234,5.83529555 C38.8653019,5.97057018 38.6401757,6.16453705 38.4641078,6.40338622 C38.2747971,6.65981168 38.1318359,6.95013426 38.0427485,7.26023017 C37.8426029,7.97771927 37.8426029,8.73977681 38.0427485,9.45726591 C38.1318359,9.7683034 38.2747971,10.0598814 38.4641078,10.3172485 C39.0428748,11.0667515 40.0408942,11.3008928 40.8718748,10.8822005 C41.1295058,10.7469259 41.3558359,10.5542145 41.5340107,10.3172485 C41.7221175,10.0592537 41.8638748,9.76798954 41.9523602,9.45726591 C42.1528068,8.74009067 42.1528068,7.97771927 41.9523602,7.26023017 L41.9493505,7.26023017 Z M41.6002243,2.23843418 C41.5427388,2.00115432 41.4404087,1.77799826 41.2992534,1.58246207 C41.1599039,1.39257541 40.9820301,1.2372136 40.7785738,1.12736181 C40.2994282,0.905775065 39.752865,0.905775065 39.2737194,1.12736181 C39.0681563,1.23438884 38.8899816,1.39037838 38.7530398,1.58246207 C38.6130883,1.77893984 38.5107583,2.00178204 38.4520689,2.23843418 C38.389768,2.49831212 38.358467,2.76478117 38.358768,3.03250567 C38.3590689,3.29928858 38.3903699,3.56450218 38.4520689,3.8237524 C38.5101563,4.06322929 38.6124864,4.28952398 38.7530398,4.4888265 C38.8911854,4.67996861 39.0690592,4.83564429 39.2737194,4.94392677 C39.752865,5.16582738 40.2994282,5.16582738 40.7785738,4.94392677 C40.9814282,4.83281953 41.159001,4.67777158 41.2992534,4.4888265 C41.4410107,4.2901517 41.5433408,4.06385702 41.6002243,3.8237524 C41.6631272,3.56481604 41.6944282,3.29928858 41.6935252,3.03250567 C41.6950301,2.76446731 41.6637291,2.49799826 41.6002243,2.23843418 Z M37.0555641,6.64506016 C37.480535,6.03302877 38.0930107,5.58985527 38.792166,5.38961116 L38.792166,5.27662075 C38.5790786,5.22734438 38.3759233,5.14134612 38.1902243,5.02239233 C37.9834573,4.8962197 37.7968553,4.73740541 37.6364379,4.55159895 C37.4642825,4.35355187 37.3279427,4.12474629 37.2331369,3.87679512 C37.1256903,3.60969834 37.0727194,3.32220052 37.0763311,3.03250567 C37.0757291,2.69290671 37.1479621,2.35738797 37.2873117,2.05011683 C37.4341854,1.73907934 37.6385447,1.46162511 37.8892534,1.23438884 C38.1580204,0.985809939 38.4695252,0.793098518 38.8069136,0.665984307 C39.1930592,0.520038361 39.6005738,0.447850044 40.0107971,0.452557977 C40.4640592,0.443455972 40.9155155,0.512505667 41.3474087,0.656568439 C41.6769718,0.772383609 41.9833602,0.950971229 42.2503214,1.18385702 C42.481467,1.39006452 42.6656612,1.64743156 42.7890592,1.93712642 C42.9061369,2.22274106 42.966933,2.53032607 42.966632,2.84104969 C42.9678359,3.35578378 42.8128359,3.85796338 42.5242049,4.27540017 C42.202768,4.72924499 41.7467971,5.0600558 41.2267194,5.21698692 L41.2267194,5.32997733 C41.4500398,5.37674281 41.6685447,5.44390933 41.8801272,5.53084917 C42.1516029,5.64258413 42.4020107,5.8032816 42.6205155,6.00478117 C42.8688165,6.23578378 43.0731757,6.51386574 43.2224573,6.82396164 C43.400632,7.21566173 43.4864087,7.64596687 43.4719621,8.07941064 C43.4788845,8.58064865 43.3852825,9.07749259 43.1983796,9.5388701 C43.0259233,9.95913165 42.7719039,10.3373357 42.4519718,10.6502563 C42.1341466,10.9597245 41.7564282,11.1951212 41.344399,11.3404394 C40.9122049,11.4948596 40.4586417,11.5723836 40.0020689,11.5695588 C39.5394767,11.5717559 39.0789913,11.5083557 38.6326515,11.3812415 C38.2266417,11.2679372 37.8486223,11.0648684 37.5250786,10.7849032 C37.2138748,10.5174926 36.9640689,10.1804045 36.7937194,9.79937576 C36.6089233,9.37597559 36.5174282,8.91491194 36.5258553,8.44976809 C36.5222437,7.80352572 36.7034282,7.17077942 37.046535,6.63250567 L37.0555641,6.64506016 Z M50.3915835,1.68917524 C50.0210883,1.22465911 49.4654961,0.965095031 48.8867291,0.985809939 C48.2911078,0.973569311 47.7282922,1.26859983 47.3818748,1.77391805 C46.9698456,2.41137228 46.770001,3.17217437 46.8130398,3.93956757 C46.8130398,4.88115432 46.9845932,5.55281953 47.3277,5.96084045 C47.6834476,6.37168614 48.1972049,6.59421447 48.7272146,6.56659459 C49.064001,6.57475501 49.3968748,6.48467655 49.6873117,6.30608893 C49.9605932,6.13220924 50.1953505,5.90026504 50.376535,5.62500785 C50.5703602,5.32652485 50.7160301,4.99665562 50.8066223,4.64889625 C50.903535,4.27885266 50.9522922,3.89656844 50.9513893,3.51271491 C50.9787777,2.85140715 50.7768262,2.20202616 50.3825544,1.68289799 L50.3915835,1.68917524 Z M47.0324476,10.9386957 C47.2927874,11.0570218 47.5735932,11.1182249 47.8574087,11.1175972 C48.3759816,11.131721 48.8840204,10.9600384 49.2960495,10.6311107 C49.7098845,10.2893147 50.0433602,9.85336007 50.2711951,9.35682999 C50.531234,8.79909677 50.716632,8.20652485 50.8219718,7.59606277 C50.9414573,6.95390061 51.0019524,6.30106713 51.0025544,5.6469782 L50.9724573,5.6469782 C50.7419136,6.09329032 50.407535,6.4718082 50.0003214,6.7486347 C49.5353214,7.04648997 48.9956806,7.19400523 48.4500204,7.17234874 C47.6328845,7.22036966 46.8317,6.91874804 46.232166,6.33747515 C45.6994476,5.77566173 45.4315835,4.98159024 45.4315835,3.94270619 C45.426166,3.4703435 45.509234,3.00111944 45.6753699,2.56171229 C45.829166,2.14961116 46.0642243,1.77548736 46.3645932,1.46319442 C46.6779039,1.14776286 47.0480981,0.900125545 47.4541078,0.735034002 C47.9100786,0.548913688 48.3970495,0.457265911 48.8867291,0.465112467 C49.342399,0.462915432 49.7944573,0.54922755 50.2200301,0.719340889 C50.645001,0.892906713 51.0233214,1.17161639 51.3212825,1.53224412 C51.6664961,1.95595815 51.9253311,2.44840802 52.0830398,2.97914908 C52.2952243,3.67937576 52.3969524,4.4106748 52.3840107,5.14479861 C52.3933408,5.99819006 52.2919136,6.84907062 52.0830398,7.67452833 C51.8988456,8.4114769 51.5933602,9.10887881 51.1801272,9.73660331 C50.8072243,10.2999861 50.3151369,10.7663854 49.7411854,11.0987655 C49.1455641,11.430204 48.4783117,11.5978065 47.803234,11.585252 C47.5567388,11.5887044 47.3102437,11.5645371 47.068865,11.5130636 C46.9000204,11.4763418 46.7329816,11.4305179 46.5689524,11.3749643 C46.542166,11.2556966 46.4937097,11.1078675 46.4368262,10.9386957 C46.3898748,10.7871003 46.3299816,10.6402127 46.2592534,10.4992886 L46.3375058,10.4522092 C46.5496903,10.6533949 46.7916709,10.8178588 47.0538165,10.9386957 L47.0324476,10.9386957 Z M59.0414864,2.05639407 C58.8226806,2.37213949 58.5478942,2.77513862 58.2168262,3.26476373 L57.1902146,4.79013426 C56.8353699,5.31428422 56.5012922,5.81960244 56.1852728,6.30922755 C55.8692534,6.79885266 55.6221563,7.20059634 55.4448845,7.51131997 L59.0745932,7.51131997 L59.0745932,2.06894856 L59.0444961,2.06894856 L59.0414864,2.05639407 Z M55.6405155,6.09580122 L57.0731369,3.9866469 C57.5336223,3.29928858 57.9579913,2.66842546 58.3492534,2.07522581 C58.7405155,1.48202616 59.056535,0.989262424 59.3063408,0.574964255 C59.4790981,0.624240628 59.6569718,0.651860506 59.8357485,0.656568439 C60.0042922,0.653115955 60.171632,0.625809939 60.3326515,0.574964255 C60.3025544,1.29057018 60.275166,2.09405754 60.254399,2.98856495 C60.2333311,3.88307236 60.224001,4.79641151 60.224001,5.73799826 L60.224001,7.52387446 C60.5249718,7.52387446 60.8081854,7.52387446 61.0820689,7.48307236 C61.3559524,7.44227027 61.5756612,7.42343854 61.7502243,7.39205231 C61.6475932,7.74200872 61.6475932,8.1155048 61.7502243,8.4654612 C61.5290107,8.42654228 61.3059913,8.40111944 61.0820689,8.39013426 C60.8081854,8.39013426 60.5249718,8.36816391 60.224001,8.36816391 L60.224001,9.04924499 C60.224001,9.47609765 60.224001,9.90608893 60.254399,10.3611892 C60.2844961,10.8162895 60.2935252,11.1615379 60.3145932,11.4217297 C60.109933,11.4032119 59.8781854,11.393796 59.6313893,11.393796 C59.3842922,11.393796 59.1558553,11.393796 58.9448748,11.4217297 C58.9692534,11.1427062 58.9933311,10.7940052 59.0264379,10.3360802 C59.0595447,9.87784133 59.0712825,9.46668178 59.0712825,9.05238361 L59.0712825,8.36502528 L58.0362437,8.36502528 L56.6186709,8.38699564 C56.1250786,8.38699564 55.6555641,8.41210462 55.2131369,8.42779773 L54.2169233,8.46859983 L54.2169233,8.17356931 C54.6713893,7.50504272 55.1469233,6.8051299 55.6405155,6.08324673 L55.6405155,6.09580122 Z" id="Fill-45" fill="#FFFFFF" mask="url(#mask-2)"></path>
                </g>
                <path d="M39.2634913,85.9887521 L0.479911142,85.9887521 C0.15154593,85.9305128 -0.0570267885,85.6643118 0.0138149657,85.3946114 C0.064285915,85.2023967 0.246406991,85.0526743 0.479911142,85.0114319 L39.2634913,85.0114319 C39.5918565,84.9529426 39.915357,85.124661 39.9861988,85.3946114 C40.0570405,85.6643118 39.8481638,85.9305128 39.5201026,85.9887521 C39.4355789,86.0037493 39.3480149,86.0037493 39.2634913,85.9887521" id="Fill-48" fill="#FFFFFF"></path>
                <path d="M152.391912,86 L113.608088,86 C113.272423,86 113,85.776 113,85.5 C113,85.224 113.272423,85 113.608088,85 L152.391912,85 C152.727881,85 153,85.224 153,85.5 C153,85.776 152.727881,86 152.391912,86" id="Fill-50" fill="#FFFFFF"></path>
                <g id="Group-54">
                    <mask id="mask-4" fill="white">
                        <use xlink:href="#path-3"></use>
                    </mask>
                    <g id="Clip-53"></g>
                    <path d="M152.37012,0.8984 L0.60012,0.8984 C0.26862,0.8984 0.00012,0.7192 0.00012,0.4984 C0.00012,0.2776 0.26862,0.0984 0.60012,0.0984 L152.37012,0.0984 C152.70132,0.0984 152.97012,0.2776 152.97012,0.4984 C152.97012,0.7192 152.70132,0.8984 152.37012,0.8984" id="Fill-52" fill="#FFFFFF" mask="url(#mask-4)"></path>
                </g>
            </g>
        </g>
    </g>
</svg>