<svg id="Layer_1" data-name="Layer 1" xmlns="http://www.w3.org/2000/svg" viewBox="0 0 20 20"><title>course-light</title><g id="pix_core_i_course" data-name="pix_core/i/course"><path id="course" d="M15.73,9.28l.16,2.8c.07,1.25-2.54,2.27-5.67,2.27s-5.75-1-5.68-2.27l.16-2.8,5.09,1.6a1.25,1.25,0,0,0,.43.07,1.23,1.23,0,0,0,.42-.07Zm4.7-2.87a.29.29,0,0,1-.2.27L10.3,9.8h-.17L4.34,8a3.74,3.74,0,0,0-.93,2.58,1.09,1.09,0,0,1,.56,1,1.12,1.12,0,0,1-.51,1L4,16.3a.29.29,0,0,1-.07.22.28.28,0,0,1-.21.1H2a.32.32,0,0,1-.22-.1.29.29,0,0,1-.07-.22l.52-3.84a1.12,1.12,0,0,1,.06-1.93A5.7,5.7,0,0,1,3.15,7.6L.2,6.68A.29.29,0,0,1,0,6.41a.29.29,0,0,1,.2-.28L10.13,3h.17l9.93,3.12A.29.29,0,0,1,20.43,6.41Z" fill="#fff"/></g></svg>