<?xml version="1.0" encoding="UTF-8"?>
<svg width="104px" height="170px" viewBox="0 0 104 170" version="1.1" xmlns="http://www.w3.org/2000/svg" xmlns:xlink="http://www.w3.org/1999/xlink">
    <!-- Generator: Sketch 50 (54983) - http://www.bohemiancoding.com/sketch -->
    <title>Group 7</title>
    <desc>Created with Sketch.</desc>
    <defs>
        <polygon id="path-1" points="0.174293826 0.0244233869 41.5764233 0.0244233869 41.5764233 7.58241758 0.174293826 7.58241758"></polygon>
        <polygon id="path-3" points="8.0865981e-05 0.0994813187 103.083909 0.0994813187 103.083909 0.908272527 8.0865981e-05 0.908272527"></polygon>
        <polygon id="path-5" points="4.67532468e-05 0 93.5088312 0 93.5088312 101.233333 4.67532468e-05 101.233333"></polygon>
    </defs>
    <g id="--Symbols" stroke="none" stroke-width="1" fill="none" fill-rule="evenodd">
        <g id="assets/footer" transform="translate(-1217.000000, -39.000000)">
            <g id="Group-7">
                <g>
                    <g transform="translate(1205.000000, 35.000000)">
                        <g id="logo/white" transform="translate(0.000000, 97.000000)">
                            <g id="Page-1" transform="translate(12.573674, 15.164835)">
                                <path d="M28.9940502,12.3838736 L28.5179958,12.3838736 C28.3585682,12.0973304 28.1209462,11.6984931 27.8049271,11.1875657 C27.4135496,10.6016398 26.9125783,10.0976416 26.3301713,9.70389937 C25.5095345,9.15098909 24.6117161,8.72382362 23.6662923,8.43626136 C22.556174,8.06942078 21.1454323,7.88600049 19.4344725,7.88600049 C15.4396669,7.88600049 12.4117583,9.12999766 10.3509491,11.6175844 C8.28993736,14.105375 7.25963406,17.629694 7.25963406,22.1907452 C7.25963406,22.6050713 7.27523244,23.1791768 7.30622662,23.9128579 C7.34937538,24.7406949 7.45289189,25.564252 7.61616843,26.3768039 C7.81246491,27.3576948 8.10012332,28.3175943 8.47509214,29.2442744 C8.899287,30.2991449 9.4671085,31.2898183 10.1625531,32.1871511 C10.5889763,32.7793948 11.074957,33.3259873 11.6129997,33.8175537 C12.1891269,34.3447851 12.8185316,34.8098575 13.4908825,35.2054339 C14.2282604,35.637083 15.0199287,35.9668319 15.8448196,36.1857134 C16.7997645,36.4355726 17.7834752,36.5560186 18.770022,36.544402 C20.0788678,36.5645782 21.3840672,36.3956278 22.6453075,36.0430532 C24.6297454,35.4740427 26.4482733,34.4316041 27.9467305,33.0045942 C28.5820099,32.3988996 29.1850797,31.7599856 29.7537115,31.0907053 L30.2844616,31.4251417 L29.7618146,36.1612574 C26.142383,38.1707286 22.1299533,39.1754642 17.7247281,39.1754642 C15.4931471,39.188915 13.2749361,38.8253352 11.1632802,38.0996023 C9.17458826,37.424208 7.3414749,36.3534411 5.77272368,34.9506835 C4.19384364,33.5065544 2.94435273,31.7357334 2.11014334,29.7598892 C1.20665284,27.6866285 0.754907585,25.3088902 0.754907585,22.6268779 C0.738904053,20.3302521 1.11731667,18.048096 1.87312902,15.8810872 C2.59126216,13.8184241 3.75182205,11.9395889 5.2723601,10.3784784 C6.79431619,8.81614516 8.72020951,7.5803 11.0498375,6.67135056 C13.3794655,5.76240111 16.1298445,5.30792639 19.3007721,5.30792639 C21.1849347,5.30018198 23.0648432,5.48462127 24.9121369,5.85818726 C26.8121004,6.26395371 28.6620276,6.87922689 30.4282908,7.69239018 L28.9940502,12.3838736 Z" id="Fill-1" fill="#FFFFFF"></path>
                                <path d="M36.2324572,16.6182692 C36.2324572,15.0847046 36.216902,13.4399086 36.1859934,11.6832688 C36.1550848,9.92662912 36.013067,7.88568603 35.759738,5.56043956 C36.2015487,5.62432108 36.7867913,5.6882026 37.5152638,5.75228821 C38.2439383,5.81616973 38.782717,5.84821254 39.131398,5.84821254 C39.6863381,5.84739616 40.2406721,5.81535335 40.7919759,5.75228821 L42.4990177,5.56043956 C42.3725552,6.45437264 42.2693246,7.59587211 42.189932,8.98514207 C42.1105394,10.374412 42.0553888,11.8512385 42.0242783,13.4160295 C41.9919556,14.9808206 41.9766023,16.5378561 41.9778144,18.0877483 L41.9778144,22.2247399 C41.9778144,25.8019009 42.009531,28.9080122 42.0727623,31.5436861 C42.1361955,34.1791559 42.2600318,36.4705227 42.4444732,38.4175824 C41.9056944,38.3861519 41.3523705,38.3304341 40.7838952,38.2502251 C40.2338036,38.1716488 39.6790655,38.1314422 39.1233173,38.1296053 C38.5524179,38.1324627 37.9821246,38.1726692 37.4162756,38.2502251 C36.8156797,38.3304341 36.2465984,38.3861519 35.7092338,38.4175824 C35.9625628,35.54271 36.1126613,32.2204628 36.1597312,28.4516573 C36.2070031,24.6826477 36.2312451,20.7383211 36.2324572,16.6182692" id="Fill-3" fill="#FFFFFF"></path>
                                <path d="M61.3546197,31.8550916 C61.3546197,33.675489 61.394331,35.0567545 61.4741589,35.9997045 C61.5535815,36.9424504 61.6246971,37.7484777 61.686898,38.4175824 L59.6425764,38.2259724 C58.9766017,38.1618983 58.5039156,38.1298613 58.2243157,38.1298613 C57.7951905,38.1308816 57.3662679,38.1545522 56.9397767,38.2014855 L54.9884525,38.4175824 C55.084489,36.5973891 55.1878194,34.7690334 55.2984438,32.9325154 C55.4092707,31.0959975 55.4599229,29.268458 55.4504003,27.4496931 L55.4017742,14.08576 C55.4017742,13.192192 55.3936698,12.3139283 55.3776638,11.451377 C55.3614551,10.5890298 55.3377498,9.69444149 55.3065481,8.76802021 L52.9360266,8.76802021 C52.8414083,8.76802021 52.5087249,8.77618251 51.9373684,8.79250712 C51.3660119,8.80903578 50.7081416,8.82536038 49.9637573,8.84148093 C49.21836,8.85780553 48.4415583,8.88984257 47.6337575,8.93738798 C46.8261593,8.98513744 46.1204733,9.04084516 45.5166994,9.10471517 C45.833782,7.94485205 45.833782,6.72030268 45.5166994,5.56043956 C46.4620715,5.62430957 47.4846375,5.67185498 48.5841948,5.70307579 L51.9128528,5.7991869 C53.0381413,5.8318361 54.1403326,5.84734448 55.219629,5.84612013 L58.2162113,5.84612013 C60.2137303,5.84612013 62.2588623,5.8304077 64.3509995,5.7991869 C66.4433393,5.76776203 68.631513,5.68817959 70.9155206,5.56043956 C70.7929424,6.16057282 70.7137224,6.76866432 70.6786711,7.38063292 C70.6784685,7.63794949 70.7021737,7.89485795 70.7493815,8.14768525 C70.7961841,8.40275719 70.8506859,8.72333161 70.9155206,9.10471517 C69.4891555,8.94555028 67.9671592,8.84964323 66.348721,8.81719808 C64.7306881,8.78434481 63.0976622,8.76883644 61.4498458,8.77026484 C61.4174284,9.63261205 61.3937232,10.5106717 61.3787302,11.4044438 C61.3639397,12.2984199 61.3558354,13.2085166 61.3546197,14.1349379 L61.3546197,31.8593768 L61.3546197,31.8550916 Z" id="Fill-5" fill="#FFFFFF"></path>
                                <path d="M90.8395099,27.359792 C90.8395099,28.3825356 90.8476214,29.3163273 90.8638443,30.1609629 C90.8798645,31.0055986 90.9035906,31.8598231 90.9348198,32.7234324 C90.9658462,33.5858177 90.997481,34.4698288 91.029927,35.37567 C91.0625757,36.2815111 91.1098251,37.2954819 91.1720807,38.4175824 L89.5171352,38.2258052 C88.9679878,38.1625596 88.415393,38.1307327 87.8623926,38.1299167 C87.3203427,38.134201 86.7791039,38.1662319 86.2400958,38.2258052 C85.6331541,38.289663 85.1061104,38.3537247 84.6585593,38.4175824 C84.6895857,37.4927676 84.7214233,36.4310565 84.7536664,35.2328572 C84.7861124,34.0346579 84.8181527,32.8370706 84.8491791,31.6400954 C84.8802056,30.4431202 84.9037289,29.2938853 84.9201546,28.1921866 C84.9363776,27.0904879 84.9444891,26.1724057 84.9444891,25.4379399 L82.1358878,20.5537424 C81.532799,19.49958 80.8427145,18.3185182 80.0652288,17.009945 C79.2879459,15.7015759 78.491601,14.3760691 77.6765997,13.0336289 C76.8654513,11.6926168 76.0644423,10.3752708 75.2733698,9.08179495 C74.4827029,7.7883191 73.7843042,6.61521403 73.1787819,5.56247974 C74.0669894,5.65755226 74.8051344,5.72977473 75.393217,5.77873911 C75.9810968,5.8277035 76.5444393,5.85157364 77.0824335,5.85014551 C77.6528736,5.85014551 78.2713742,5.8344361 78.9379354,5.80322131 C79.6243697,5.76955829 80.307965,5.68978715 80.9838544,5.56451993 C81.5869432,6.87431724 82.1744174,8.11944076 82.746277,9.3000945 C83.3179338,10.4807482 83.9218338,11.6938409 84.5571657,12.9397805 C85.1924977,14.184292 85.894141,15.5171433 86.661893,16.9385386 C87.4300505,18.3599339 88.3261667,19.9641296 89.3510526,21.7513297 C90.3797915,19.9982007 91.2246026,18.5202923 91.8858913,17.3180126 C92.5469772,16.1157329 93.1553385,14.966294 93.7109751,13.8701038 C94.2651923,12.7684051 94.8364435,11.5789786 95.4243233,10.3018242 C96.0126086,9.02466983 96.7343279,7.44414027 97.5902922,5.56043956 C97.971532,5.62429728 98.3919096,5.68835902 98.8516279,5.75221674 C99.3482535,5.81872669 99.8491377,5.85075756 100.350022,5.84810533 C100.739981,5.85381784 101.129738,5.83015172 101.516048,5.77669893 C101.800558,5.73303902 102.079796,5.66061253 102.349705,5.56043956 L101.374097,7.19258574 C100.914581,7.95826632 100.422417,8.76434252 99.8980093,9.61020228 C99.3733991,10.456062 98.8846822,11.2572418 98.4316559,12.0135375 C97.9721403,12.7643248 97.6468698,13.2831432 97.4564527,13.570197 C96.3747864,15.2947634 95.3608509,17.0432 94.4146463,18.8155068 C93.468239,20.5878135 92.4826937,22.3327818 91.4580105,24.0506156 C91.2984171,24.3376693 91.1558578,24.6096257 91.029927,24.8666887 C90.9117021,25.0878445 90.8464046,25.3336866 90.8395099,25.584833 L90.8395099,27.3577518 L90.8395099,27.359792 Z" id="Fill-7" fill="#FFFFFF"></path>
                                <path d="M4.96828959,44.1402051 C4.96987868,43.8335986 4.95597414,43.5269922 4.92657598,43.2217987 L5.10534859,43.2522777 C5.16176128,43.2613608 5.21896852,43.2660033 5.27617576,43.2662052 C5.36297979,43.2643885 5.44938656,43.2502592 5.5324165,43.2238172 C5.51513515,43.4256647 5.49805243,43.6664689 5.48077108,43.9464314 C5.46348973,44.226394 5.44958519,44.5265413 5.43905747,44.8466715 C5.4271393,45.1670036 5.41581703,45.4960151 5.40528931,45.8339079 C5.39456295,46.171397 5.3860216,46.4991975 5.3794666,46.8167037 C5.37926796,47.1709461 5.32007436,47.5223627 5.20466671,47.8562186 C5.10296496,48.1470809 4.94187097,48.4125104 4.73191246,48.635552 C4.5199676,48.8535474 4.26174049,49.0192642 3.97709476,49.1197843 C3.64676269,49.2350392 3.29934791,49.2911529 2.95014541,49.2852993 C2.0972014,49.2852993 1.47745634,49.0889016 1.09071158,48.6959044 C0.704165464,48.3029072 0.510892404,47.6820241 0.510892404,46.8328515 C0.510892404,46.5637887 0.518043309,46.3227827 0.532742391,46.1102372 C0.547242836,45.8976917 0.554592377,45.6825223 0.554592377,45.4645269 C0.554592377,44.978478 0.54863329,44.548139 0.536715115,44.1725007 C0.524796941,43.7970642 0.513474675,43.479558 0.502946955,43.2197802 C0.571675093,43.2318911 0.645965046,43.2419835 0.725419541,43.2500574 C0.799312222,43.2589386 0.873403539,43.2635811 0.947892128,43.2641867 C1.00907209,43.2639848 1.07005341,43.2593423 1.13063747,43.2500574 L1.31338281,43.2197802 C1.30146463,43.3461368 1.29014237,43.512661 1.27961465,43.7183437 C1.26888829,43.92443 1.25776466,44.1571603 1.24584649,44.4167362 C1.23392831,44.676514 1.22518832,44.9564766 1.22002377,45.2564221 C1.2146606,45.5565694 1.2146606,45.8686257 1.22002377,46.1929947 L1.22002377,46.7985374 C1.22558559,47.001596 1.24544921,47.2040491 1.27961465,47.4040801 C1.31318417,47.6004777 1.36900095,47.7922329 1.44646909,47.9753086 C1.52195086,48.1555585 1.63358442,48.3176421 1.77421888,48.4516689 C1.92915514,48.5953843 2.11170185,48.7045839 2.31053672,48.7726065 C2.5669761,48.8563732 2.8355323,48.8961372 3.10508167,48.8896781 C3.37641877,48.8981557 3.64676269,48.8509233 3.89962663,48.7504033 C4.09786559,48.6688568 4.27663821,48.5447206 4.42402629,48.3870777 C4.56148257,48.2350864 4.66993796,48.0584698 4.74383064,47.866311 C4.82050423,47.6711244 4.87651964,47.4680657 4.91068508,47.2607683 C4.94445324,47.0484247 4.9645155,46.8340626 4.97027595,46.6188931 L4.97027595,46.0294982 C4.97424867,45.215447 4.97345413,44.5856826 4.96828959,44.1402051" id="Fill-9" fill="#FFFFFF"></path>
                                <path d="M10.1794266,47.117219 C9.41293778,46.2914904 8.64644898,45.4717484 7.87996017,44.6586122 C7.87996017,44.8237579 7.87377881,45.0452596 7.86141609,45.3233237 C7.84905336,45.6011814 7.84905336,45.9789522 7.86141609,46.4566361 L7.86141609,46.9167734 L7.86141609,47.492719 C7.86141609,47.6931647 7.86141609,47.9055833 7.87377881,48.1120155 C7.88614153,48.3184476 7.88614153,48.5106359 7.89232289,48.6879611 C7.89850425,48.8656992 7.90468562,49.0205233 7.91086698,49.1524334 C7.91704834,49.2847564 7.9232297,49.3753801 7.92941106,49.423066 C7.82700651,49.4102672 7.72377777,49.4040742 7.620343,49.4044871 C7.5109329,49.4040742 7.4015228,49.4102672 7.29273084,49.423066 C7.30509357,49.3632007 7.31745629,49.2537916 7.33187947,49.0948389 C7.34630264,48.9358861 7.36072582,48.7439042 7.37102809,48.5230219 C7.38133036,48.3021395 7.39575353,48.0604074 7.41017671,47.8005094 C7.42459989,47.5404049 7.43696261,47.2803004 7.44520442,47.0199895 C7.45344624,46.7600914 7.46168805,46.5061799 7.46786942,46.2584613 C7.47405078,46.0107427 7.46786942,45.787796 7.46786942,45.5937498 L7.46786942,44.1322103 C7.46786942,43.7247132 7.46024574,43.4206387 7.44520442,43.2197802 L7.58737573,43.2197802 L8.74122985,44.4726169 C9.1533206,44.9187167 9.55984813,45.3590365 9.96101848,45.793989 L11.1107517,47.0325818 C11.4733916,47.4192292 11.7900833,47.7489013 12.0606209,48.0213918 L12.0606209,46.8158281 C12.0606209,46.1950866 12.0565,45.5908598 12.0482582,45.0033539 C12.0400163,44.4156416 12.0208541,43.8650871 11.9905655,43.3518968 C12.0888491,43.3783201 12.1898113,43.3927704 12.2913917,43.3952475 C12.3867907,43.3917382 12.4815716,43.3772879 12.5736739,43.3518968 C12.5613111,43.4813297 12.5483303,43.6759952 12.5345252,43.9360997 C12.5207202,44.1962042 12.506297,44.4713783 12.4912557,44.7618283 C12.4760084,45.0576455 12.4630275,45.3474763 12.4521071,45.6309076 C12.4411867,45.9143389 12.4350053,46.1420336 12.433563,46.3139915 L12.433563,46.8465865 L12.433563,47.4658829 L12.433563,48.1266721 L12.433563,48.7459686 L12.433563,49.2455343 L12.433563,49.5384615 L12.3099358,49.5384615 C11.6561538,48.7500972 10.9459154,47.9429475 10.1794266,47.117219" id="Fill-11" fill="#FFFFFF"></path>
                                <path d="M14.1256245,44.3634035 C14.1125119,43.9892577 14.098142,43.6079128 14.0825147,43.2197802 L14.2747123,43.2508391 C14.3975751,43.2687339 14.5218748,43.2687339 14.6447376,43.2508391 L14.8369352,43.2197802 C14.8213079,43.6079128 14.806938,43.9892577 14.7938254,44.3634035 C14.7805333,44.737755 14.7740668,45.1190998 14.7740668,45.5072324 L14.7740668,47.0250015 C14.7740668,47.413134 14.7805333,47.7957131 14.7938254,48.1729442 C14.806938,48.5499696 14.8213079,48.9208244 14.8369352,49.2857143 C14.717126,49.2731673 14.5913893,49.2672024 14.459725,49.2672024 C14.327881,49.2672024 14.2023239,49.2731673 14.0825147,49.2857143 C14.098142,48.9208244 14.1125119,48.5499696 14.1256245,48.1729442 C14.138737,47.7957131 14.1453831,47.413134 14.1453831,47.0250015 L14.1453831,45.5072324 C14.1453831,45.1230079 14.138737,44.7420744 14.1256245,44.3634035" id="Fill-13" fill="#FFFFFF"></path>
                                <path d="M17.7881375,48.0310197 C17.5952363,47.5427173 17.391539,47.0278811 17.1770459,46.4860999 C16.962349,45.9445243 16.737671,45.3912246 16.5028081,44.8264063 C16.2720191,44.2613824 16.0520261,43.7257718 15.8428291,43.2197802 L16.0791179,43.2508391 C16.2245577,43.2687339 16.3716271,43.2687339 16.5170669,43.2508391 L16.7533557,43.2197802 C16.8808701,43.6079128 17.022236,44.0157914 17.1770459,44.4438273 C17.3318558,44.8716576 17.4948135,45.3056585 17.6659192,45.7458301 C17.8384507,46.1872357 18.0148525,46.6350177 18.195532,47.0889703 C18.3760077,47.5427173 18.5595389,47.9931732 18.7455145,48.4401324 C18.8500111,48.1988608 18.9634705,47.92941 19.0856888,47.6319857 C19.2079072,47.3343557 19.3313477,47.0250015 19.4564178,46.7043345 C19.5812842,46.3832561 19.7049284,46.0562127 19.8271467,45.7229987 L20.1815799,44.7647001 C20.2956503,44.4588425 20.3987211,44.1735538 20.4911996,43.9090395 C20.5834745,43.6443195 20.6623053,43.4147721 20.7274884,43.2197802 C20.9395372,43.2788126 21.1631968,43.2788126 21.3752456,43.2197802 C20.920186,44.2443103 20.4830518,45.2595845 20.0634355,46.2662198 C19.6438192,47.2724437 19.2417209,48.279079 18.8575479,49.2857143 C18.7616065,49.2731673 18.6650541,49.2672024 18.5682979,49.2672024 C18.4715417,49.2659683 18.3747855,49.2721389 18.2790478,49.2857143 C18.1446077,48.9372794 17.9808351,48.5191165 17.7881375,48.0310197" id="Fill-15" fill="#FFFFFF"></path>
                                <path d="M22.179993,44.3456077 C22.1646852,43.9695116 22.1479095,43.5944409 22.129666,43.2197802 L22.9348973,43.2505405 C23.2020496,43.2587433 23.4702503,43.2636649 23.7401286,43.2646903 C24.0100069,43.2661258 24.2769495,43.2614092 24.541166,43.2505405 L25.3422034,43.2197802 C25.3061357,43.3942937 25.3061357,43.574139 25.3422034,43.7488576 L24.8158673,43.7139959 L24.3125977,43.6791343 C24.1349855,43.6680605 23.9414364,43.6578071 23.7317408,43.6483739 C23.5220451,43.6387357 23.2697813,43.6346343 22.9747395,43.6360698 C22.9747395,43.8247331 22.9669807,44.0037581 22.951673,44.17335 C22.9363652,44.3427368 22.9357361,44.5357065 22.949576,44.7514388 L22.949576,45.4201681 L22.949576,45.9123331 L23.6604443,45.9123331 C23.8701399,45.9123331 24.0624308,45.9049506 24.2371073,45.8897755 L24.7194073,45.8629115 C24.8661943,45.8547088 25.0060613,45.8446604 25.1387986,45.8323563 C25.1205551,45.9219713 25.1113285,46.013432 25.1115382,46.1050977 C25.1115382,46.1938925 25.1207648,46.2824822 25.1387986,46.3696364 C24.982156,46.3517955 24.8005595,46.3374407 24.5935899,46.326572 C24.3866203,46.3154983 24.1769247,46.3079108 23.964503,46.3040144 L23.3794521,46.3040144 L22.9432851,46.3040144 L22.9432851,46.4762722 L22.9432851,46.7100506 L22.9432851,47.5815928 L22.9432851,48.4018679 C22.9432851,48.6137039 22.9474791,48.777759 22.9558669,48.8940329 L23.5849538,48.8940329 C23.812893,48.8940329 24.0366383,48.8899316 24.2559799,48.8817288 C24.4755313,48.8735261 24.6852269,48.8618371 24.8850669,48.8468671 C25.0561785,48.8357934 25.2264514,48.8138511 25.3946273,48.7812451 C25.3818359,48.8261552 25.3740771,48.8720906 25.3715608,48.9186412 L25.3715608,49.0560373 C25.3694638,49.1335533 25.3786904,49.2108642 25.3988212,49.2857143 C25.1289429,49.2734102 24.8605325,49.2672581 24.5935899,49.2672581 L22.949576,49.2672581 C22.6796977,49.2672581 22.4064643,49.2734102 22.129666,49.2857143 C22.1479095,48.9098232 22.1646852,48.5359829 22.179993,48.1639881 C22.1953008,47.7921985 22.2030595,47.412001 22.2030595,47.0238058 L22.2030595,45.5103983 C22.2030595,45.109899 22.1953008,44.7214988 22.179993,44.3456077" id="Fill-17" fill="#FFFFFF"></path>
                                <path d="M27.4261521,46.0470076 L27.7357383,46.0470076 C27.9193209,46.0459788 28.1023119,46.0254025 28.2819507,45.9852787 C28.4663221,45.9461838 28.6426087,45.8729322 28.8025287,45.769022 C28.9624486,45.6653176 29.0973256,45.5245758 29.1969059,45.3574964 C29.3075287,45.1581122 29.3615584,44.9295097 29.3526849,44.6992612 C29.3599809,44.5013173 29.3177825,44.3050196 29.2304279,44.1292982 C29.1537216,43.9850584 29.0446763,43.8624238 28.9129543,43.7710651 C28.7839929,43.6834101 28.6400452,43.6218871 28.4889988,43.5901996 C28.3411073,43.5578948 28.1904552,43.5414338 28.0394087,43.5406108 C27.8422201,43.5406108 27.6785536,43.5449318 27.5484091,43.5531623 C27.4182646,43.5613928 27.3084305,43.5716809 27.2191041,43.5840267 L27.185582,44.5469967 C27.1737507,44.8653117 27.1678351,45.1834211 27.1678351,45.5017361 L27.1678351,46.005855 C27.2522318,46.0260198 27.3378116,46.0398059 27.4241803,46.0470076 L27.4261521,46.0470076 Z M26.4520404,44.363662 C26.4376456,43.9893794 26.4218705,43.6078952 26.4047151,43.2197802 L26.8878272,43.2506909 C27.0455781,43.2589215 27.2066812,43.263654 27.3709393,43.2648886 C27.5351974,43.2663289 27.6963005,43.2589215 27.8540514,43.2424604 C28.0118023,43.2274397 28.1729054,43.2198265 28.3371635,43.2198265 C28.5643248,43.2185919 28.7908945,43.2420489 29.0135205,43.2897859 C29.2130753,43.3311442 29.4035595,43.4105687 29.575508,43.5243555 C29.7346392,43.6315579 29.8655725,43.7786783 29.956082,43.9521364 C30.1564257,44.3961725 30.141045,44.9132545 29.9146724,45.3432988 C29.7995143,45.5398023 29.648665,45.7109969 29.470998,45.8474177 C29.2990496,45.978077 29.1097485,46.082193 28.9090105,46.1560619 C28.7321323,46.2235521 28.5491413,46.2727294 28.362798,46.3021535 L28.6428059,46.6725265 C28.761119,46.8315812 28.8926438,47.0064796 29.0371831,47.1972217 L29.4946607,47.7980491 L29.9521383,48.3988766 C30.0994382,48.5908533 30.2374702,48.7657517 30.3662343,48.923366 C30.4949985,49.081186 30.5995085,49.2019688 30.6797642,49.2857143 C30.5953675,49.2735743 30.5105764,49.2671956 30.4253909,49.2669899 L29.9265037,49.2669899 C29.8446705,49.2669899 29.7630344,49.2733685 29.6819899,49.2857143 L29.2876126,48.7301547 C29.1152698,48.4832393 28.9247856,48.2184226 28.7157657,47.9359102 C28.5067457,47.6533979 28.293782,47.3719144 28.0768746,47.0922827 C27.8599671,46.8177951 27.6627785,46.5805506 27.4853087,46.3803433 L27.1638913,46.3803433 L27.1638913,47.024381 C27.1638913,47.4126554 27.1711873,47.7951685 27.185582,48.1725375 C27.1999768,48.5497007 27.2157519,48.9208968 27.2329073,49.2857143 C27.1013825,49.2733685 26.9633505,49.2669899 26.8188112,49.2669899 C26.674272,49.2669899 26.5360427,49.2733685 26.4047151,49.2857143 C26.4218705,48.9208968 26.4374484,48.5497007 26.4520404,48.1725375 C26.4664352,47.7951685 26.4737311,47.4126554 26.4737311,47.024381 L26.4737311,45.507909 C26.4723508,45.1237498 26.4650548,44.7424713 26.4520404,44.363662 Z" id="Fill-19" fill="#FFFFFF"></path>
                                <path d="M31.8800473,48.576821 C31.9604225,48.6891446 32.055993,48.7891023 32.1639597,48.8733965 C32.2855223,48.966759 32.4204807,49.0397178 32.5638365,49.0897997 C32.7235873,49.1479195 32.8921353,49.1765671 33.061683,49.1743001 C33.2364292,49.1771854 33.4099757,49.142767 33.5715259,49.0733119 C33.8654353,48.9471797 34.0945647,48.6998617 34.2033312,48.3913324 C34.2613133,48.2309879 34.2903044,48.061369 34.2893047,47.8905135 C34.3017008,47.6574162 34.2305228,47.4278227 34.0893663,47.2454256 C33.9482098,47.0807531 33.7778623,46.9459648 33.587521,46.8474497 C33.3773857,46.7365688 33.1610524,46.6390843 32.9397206,46.5547901 C32.7127906,46.468641 32.4956575,46.3573479 32.2919203,46.2229718 C32.0923818,46.0908627 31.9214345,45.9177401 31.790075,45.7139088 C31.6463193,45.4653542 31.5765408,45.1788775 31.5901366,44.8895155 C31.5869376,44.6574487 31.6305242,44.427443 31.7180972,44.2135129 C31.803071,44.0119487 31.9308316,43.8322309 32.0919819,43.6879621 C32.2645287,43.5354493 32.4640672,43.4185916 32.6798008,43.3437779 C32.9285241,43.258041 33.1892437,43.2164091 33.4515629,43.220325 C33.6924886,43.2149664 33.9326146,43.2491787 34.1633435,43.3213132 C34.366081,43.39015 34.5550228,43.4964967 34.7211716,43.6345826 C34.6691876,43.7368074 34.6264008,43.8435664 34.593211,43.953829 C34.5584217,44.0665648 34.5238324,44.2081543 34.489243,44.3785977 L34.3852751,44.3785977 C34.3522853,44.2860595 34.3134972,44.1957884 34.2693108,44.1084027 C34.2175268,44.0078267 34.1501476,43.9165252 34.0693725,43.83862 C33.9821993,43.7539136 33.8822301,43.6842523 33.7734637,43.6325217 C33.6439036,43.5731653 33.503147,43.5443116 33.3615906,43.5480213 C33.2106371,43.5463725 33.0608833,43.5737836 32.9197268,43.6281936 C32.789167,43.6784816 32.6696039,43.7549441 32.5678353,43.8528408 C32.4670663,43.9513558 32.3878907,44.0706867 32.3359067,44.203208 C32.2803239,44.3439731 32.2525324,44.4944249 32.253932,44.6465255 C32.2403362,44.8827142 32.3113143,45.1160175 32.4538704,45.3017122 C32.594627,45.4705067 32.7647746,45.6100353 32.9557157,45.7139088 C33.1644514,45.827469 33.3809846,45.9253657 33.603516,46.0065685 C33.8288466,46.0890078 34.0459797,46.1937058 34.2513164,46.3200441 C34.4490554,46.4416421 34.6200027,46.6044598 34.7531617,46.7979861 C34.8971173,47.0298468 34.9668958,47.3023088 34.9531001,47.5770379 C34.9542997,47.8404316 34.9061146,48.1013521 34.8111438,48.3459908 C34.7189722,48.5844466 34.5784156,48.8002316 34.3992708,48.9785066 C34.2095293,49.1629647 33.9839988,49.3035237 33.7374748,49.3907033 C33.4519628,49.4923098 33.1516553,49.5419795 32.8497484,49.5370332 C32.555839,49.5477503 32.2629292,49.4980806 31.988014,49.3907033 C31.7894752,49.3068213 31.6031326,49.1953221 31.4341847,49.0590911 C31.4809703,48.9403784 31.5171591,48.8175438 31.5421514,48.692236 C31.5621452,48.5836222 31.5807395,48.4461546 31.5981341,48.2800393 L31.7021021,48.2800393 C31.7516868,48.3845312 31.8112685,48.4840767 31.8800473,48.576821" id="Fill-21" fill="#FFFFFF"></path>
                                <path d="M36.2552905,44.3634035 C36.2421779,43.9892577 36.227808,43.6079128 36.2121807,43.2197802 L36.4043783,43.2508391 C36.5272411,43.2687339 36.6515408,43.2687339 36.7744036,43.2508391 L36.9666012,43.2197802 C36.9509739,43.6079128 36.936604,43.9892577 36.9234914,44.3634035 C36.9101993,44.737755 36.9037328,45.1190998 36.9037328,45.5072324 L36.9037328,47.0250015 C36.9037328,47.413134 36.9101993,47.7957131 36.9234914,48.1729442 C36.936604,48.5499696 36.9509739,48.9208244 36.9666012,49.2857143 C36.846792,49.2731673 36.7210553,49.2672024 36.589391,49.2672024 C36.457547,49.2672024 36.3319899,49.2731673 36.2121807,49.2857143 C36.227808,48.9208244 36.2421779,48.5499696 36.2552905,48.1729442 C36.268403,47.7957131 36.2750491,47.413134 36.2750491,47.0250015 L36.2750491,45.5072324 C36.2750491,45.1230079 36.268403,44.7420744 36.2552905,44.3634035" id="Fill-23" fill="#FFFFFF"></path>
                                <path d="M39.841524,43.6822794 L39.3635429,43.6822794 C39.1974751,43.6822794 39.0305902,43.6882405 38.8630925,43.7007794 L38.381026,43.7314071 C38.2257843,43.743946 38.0895392,43.7581293 37.9724951,43.7745737 C37.9992539,43.6831016 38.0135524,43.5885463 38.0153908,43.4929631 C38.0115098,43.4006688 37.9970069,43.3089912 37.9724951,43.2197802 L39.1041257,43.2504079 C39.4718036,43.2586302 39.8490819,43.2635635 40.2357564,43.2650024 C40.6224309,43.2664413 40.9997092,43.2615079 41.367387,43.2504079 L42.4990177,43.2197802 C42.473893,43.3114578 42.4595944,43.4060132 42.4561219,43.5011853 C42.4583689,43.5938907 42.4726674,43.6859794 42.4990177,43.7745737 C42.3764584,43.756896 42.2402133,43.7425071 42.0904868,43.7314071 L41.6084203,43.7007794 C41.4423525,43.6925572 41.2754676,43.6863905 41.1079699,43.6822794 L40.6299887,43.6822794 C40.6122176,44.2878451 40.6034342,44.8969051 40.6034342,45.5096652 L40.6034342,47.0266626 C40.6034342,47.4143397 40.610992,47.7968779 40.6259034,48.1736606 C40.6410191,48.5504433 40.657156,48.9210594 40.6749271,49.2857143 C40.5388863,49.2731754 40.3956962,49.2672143 40.2459697,49.2672143 C40.0962431,49.2672143 39.9532573,49.2731754 39.8170122,49.2857143 C39.8347833,48.9210594 39.8511245,48.5504433 39.8660359,48.1736606 C39.8809473,47.7968779 39.8885051,47.4143397 39.8885051,47.0266626 L39.8885051,45.5096652 C39.8750236,44.8969051 39.8592951,44.2878451 39.841524,43.6822794" id="Fill-25" fill="#FFFFFF"></path>
                                <path d="M44.644546,46.3473347 L44.2624303,45.7119538 L43.8224808,44.9799292 L43.3825313,44.2479046 L43.006612,43.63103 C42.8936297,43.4459676 42.8083249,43.3088158 42.7504912,43.2197802 L42.994219,43.2504183 C43.1561535,43.2683077 43.3195338,43.2683077 43.4816748,43.2504183 L43.7254027,43.2197802 C43.9910248,43.7309637 44.2616041,44.2341278 44.5371405,44.7290669 C44.8124704,45.2238003 45.1037046,45.738685 45.410843,46.2733097 C45.5484047,46.0606936 45.6903039,45.8285431 45.8363341,45.5762414 C45.9823643,45.3239397 46.1302534,45.0648523 46.2804146,44.7989793 C46.427684,44.5343401 46.5695832,44.2684671 46.7059056,44.0011548 C46.842228,43.7338424 46.9694622,43.4733157 47.0880214,43.2197802 C47.3148122,43.2785889 47.5531698,43.2785889 47.7799607,43.2197802 C47.4963689,43.6487137 47.2423135,44.0375504 47.0177947,44.3856733 C46.7932759,44.7337962 46.5949888,45.0484023 46.4229334,45.3294915 C46.2506715,45.6118145 46.0998907,45.8661725 45.970591,46.0923598 C45.8410847,46.3183416 45.7289286,46.5239665 45.633916,46.7092345 L45.633916,47.4060972 C45.633916,47.6530527 45.638047,47.8954844 45.6463089,48.1340093 C45.6463089,48.3727398 45.6537447,48.5933753 45.6690293,48.7963271 C45.6841074,48.9990732 45.6944349,49.1621337 45.7000117,49.2857143 C45.5622435,49.2731712 45.4176591,49.267208 45.2662587,49.267208 C45.1146517,49.267208 44.9702739,49.2731712 44.8325057,49.2857143 C44.8682386,48.9799501 44.8888936,48.6092084 44.8944704,48.1732837 C44.8998407,47.7373589 44.8998407,47.2814885 44.8944704,46.8056726 L44.644546,46.3473347 Z" id="Fill-27" fill="#FFFFFF"></path>
                                <path d="M56.294703,45.1200365 C56.1889458,44.7908412 56.0148534,44.4887002 55.7842215,44.2340591 C55.5702668,44.0037876 55.307501,43.8261791 55.0154487,43.7156901 C54.4002271,43.4909946 53.7270424,43.4909946 53.1118208,43.7156901 C52.8197685,43.8261791 52.5567994,44.0037876 52.343048,44.2340591 C52.1126195,44.4889067 51.9383237,44.7910477 51.8325666,45.1200365 C51.5879016,45.9500466 51.5879016,46.8343718 51.8325666,47.6643819 C51.9383237,47.9933707 52.1124162,48.2955117 52.343048,48.5503592 C52.5567994,48.7808373 52.8197685,48.9580328 53.1118208,49.0687283 C53.7270424,49.2936303 54.4002271,49.2936303 55.0154487,49.0687283 C55.307501,48.9580328 55.5702668,48.7808373 55.7842215,48.5503592 C56.0150568,48.2957182 56.1891492,47.9933707 56.294703,47.6643819 C56.5395713,46.8337522 56.5395713,45.9486009 56.294703,45.1179713 L56.294703,45.1200365 Z M51.0353207,45.0498192 C51.1856178,44.6714717 51.4152328,44.3311242 51.7085054,44.0523202 C52.0070658,43.7745487 52.3597251,43.5634837 52.7437047,43.4327556 C53.6029812,43.1487884 54.5283559,43.1487884 55.3876324,43.4327556 C55.771612,43.5636902 56.1240679,43.7745487 56.4228318,44.0523202 C56.715901,44.3311242 56.9457193,44.6714717 57.0960164,45.0498192 C57.4159317,45.915351 57.4159317,46.8692739 57.0960164,47.7345992 C56.7958289,48.5043049 56.1684046,49.0941305 55.3896662,49.3392715 C54.5277458,49.6048582 53.6076589,49.6048582 52.7457385,49.3392715 C51.9672035,49.0941305 51.3395758,48.5043049 51.0393883,47.7345992 C50.7184561,46.869687 50.7170325,45.9159705 51.0353207,45.0498192 Z" id="Fill-29" fill="#FFFFFF"></path>
                                <path d="M58.4013568,44.3595772 C58.3863767,43.9866832 58.3699601,43.6066142 58.3521071,43.2197802 L59.1403078,43.2507351 C59.4015365,43.2589351 59.6639965,43.2634451 59.9280981,43.2648801 C60.1921997,43.2663151 60.4595846,43.2616001 60.7306633,43.2507351 L61.611002,43.2197802 C61.5757063,43.3944398 61.5757063,43.5742243 61.611002,43.7488838 C61.4521716,43.7310489 61.261329,43.7146489 61.038474,43.699479 C60.8154138,43.684514 60.5874287,43.672829 60.3551342,43.6646291 L59.6859536,43.6420791 L59.152415,43.6420791 C59.152415,43.8470786 59.1485161,44.0440831 59.1403078,44.2326826 C59.1320995,44.4212821 59.1320995,44.6090616 59.1403078,44.7964311 L59.1403078,45.3640746 L59.1403078,45.9052732 C59.5273285,45.9052732 59.9104503,45.8993282 60.2892627,45.8868232 C60.6682803,45.8747282 61.0423729,45.8513583 61.4117458,45.8171234 C61.3645482,45.9903479 61.3645482,46.1730025 61.4117458,46.346022 C61.2654331,46.3283921 61.0998309,46.3152721 60.9151445,46.3070721 L60.3385124,46.2847272 L59.7228909,46.2847272 L59.1320995,46.2847272 L59.1320995,47.0327702 C59.1320995,47.4196042 59.139487,47.8009032 59.1544671,48.1766672 C59.1694472,48.5526362 59.1858638,48.9222502 59.2037168,49.2857143 C59.0668436,49.2736193 58.9234038,49.2672643 58.772987,49.2672643 C58.6223649,49.2672643 58.4787199,49.2736193 58.3418468,49.2857143 C58.3596998,48.9222502 58.3761164,48.5526362 58.3910965,48.1766672 C58.4060766,47.8009032 58.4138745,47.4196042 58.4138745,47.0327702 L58.4138745,45.4995792 C58.4206463,45.1166402 58.416337,44.7369812 58.4013568,44.3595772" id="Fill-31" fill="#FFFFFF"></path>
                                <path d="M65.187452,44.3637914 C65.1724153,43.9895187 65.1559366,43.6080444 65.1380161,43.2197802 L65.3584179,43.2508496 C65.4993102,43.2687505 65.6418504,43.2687505 65.7827427,43.2508496 L66.0031445,43.2197802 C65.9852239,43.6080444 65.9687453,43.9895187 65.9537086,44.3637914 C65.9384658,44.7382699 65.9310504,45.1197441 65.9308444,45.5080083 C65.9310504,46.2499695 65.9310504,46.8933729 65.9308444,47.437807 C65.9310504,47.9824469 65.9372299,48.4694747 65.9495889,48.8986846 C66.3615548,48.8986846 66.7623976,48.8947752 67.1525293,48.8863392 C67.565937,48.875434 67.9785208,48.8416898 68.3884269,48.785518 C68.3670047,48.8709074 68.3567055,48.9587658 68.3575294,49.0470357 C68.3600012,49.1281041 68.374626,49.2085553 68.4007859,49.2857143 C68.1262106,49.2731631 67.8549311,49.2669904 67.5869473,49.2669904 L65.9555624,49.2669904 C65.6933461,49.2669904 65.4187709,49.2731631 65.1316306,49.2857143 C65.1495512,48.9207006 65.1660298,48.54972 65.1812725,48.1725667 C65.1963093,47.7952076 65.2039307,47.4124989 65.2039307,47.0244404 L65.2039307,45.5080083 C65.2080503,45.1236535 65.2024888,44.7425908 65.187452,44.3637914" id="Fill-33" fill="#FFFFFF"></path>
                                <path d="M74.401452,45.1200365 C74.2957256,44.7908412 74.1216838,44.4887002 73.891119,44.2340591 C73.6772265,44.0037876 73.4145372,43.8261791 73.1225698,43.7156901 C72.8165734,43.6010706 72.4928881,43.5436576 72.1669663,43.5463424 C71.8436877,43.5440707 71.5226456,43.6012771 71.2194956,43.7156901 C70.9263083,43.8224617 70.6611792,43.9963528 70.4448468,44.223733 C70.2140787,44.4785806 70.0402402,44.7805151 69.9345139,45.1097104 C69.68992,45.9397205 69.68992,46.8240457 69.9345139,47.6540558 C70.0400369,47.9830446 70.2140787,48.2851856 70.4448468,48.5400332 C70.658536,48.7703047 70.9214286,48.9477067 71.2131927,49.0584022 C71.516546,49.1728152 71.8375881,49.2300216 72.1606634,49.2277499 C72.4867885,49.2304347 72.8106771,49.1732282 73.1164702,49.0584022 C73.4082343,48.9477067 73.6713302,48.7703047 73.8850195,48.5400332 C74.1157875,48.2851856 74.289626,47.9830446 74.3953524,47.6540558 C74.6375064,46.826524 74.6366931,45.9450901 74.3933192,45.1179713 L74.401452,45.1200365 Z M69.1435995,45.0498192 C69.2938529,44.6714717 69.523401,44.3311242 69.8165883,44.0523202 C70.1150619,43.7745487 70.4676186,43.5634837 70.8514866,43.4327556 C71.7103098,43.1487884 72.6356187,43.1487884 73.4946453,43.4327556 C73.8785132,43.5634837 74.2308666,43.7745487 74.5295435,44.0523202 C74.8225275,44.3313308 75.0520757,44.6714717 75.2023291,45.0498192 C75.5219479,45.915351 75.5219479,46.8690674 75.2023291,47.7345992 C74.9024322,48.5043049 74.274987,49.0941305 73.4966784,49.3392715 C72.6350087,49.6048582 71.7151895,49.6048582 70.8535198,49.3392715 C70.0735847,49.0953696 69.4445129,48.505131 69.1435995,47.7345992 C68.8237773,46.8692739 68.8237773,45.915351 69.1435995,45.0498192 Z" id="Fill-35" fill="#FFFFFF"></path>
                                <path d="M79.5849805,47.117219 C78.8187906,46.2914904 78.0528067,45.4717484 77.2864109,44.6586122 C77.2864109,44.8237579 77.2804379,45.0452596 77.2678741,45.3233237 C77.2555162,45.6011814 77.2555162,45.9789522 77.2678741,46.4566361 L77.2678741,46.9167734 L77.2678741,47.492719 C77.2678741,47.6931647 77.2678741,47.9055833 77.2804379,48.1120155 C77.2925899,48.3184476 77.2925899,48.5106359 77.2987688,48.6879611 C77.3051537,48.8656992 77.3111267,49.0205233 77.3173057,49.1524334 C77.3236906,49.2847564 77.3298695,49.3753801 77.3358425,49.423066 C77.2334779,49.4102672 77.1302894,49.4040742 77.026895,49.4044871 C76.9175276,49.4040742 76.8081601,49.4102672 76.6994106,49.423066 C76.7119745,49.3632007 76.7241264,49.2537916 76.7387499,49.0948389 C76.7529615,48.9358861 76.7673791,48.7439042 76.7776773,48.5230219 C76.7879756,48.3021395 76.8023931,48.0604074 76.8170166,47.8005094 C76.8312282,47.5404049 76.8435861,47.2803004 76.8518247,47.0199895 C76.8602693,46.7600914 76.8685079,46.5061799 76.8744809,46.2584613 C76.8806598,46.0107427 76.8744809,45.787796 76.8744809,45.5937498 L76.8744809,44.1322103 C76.8744809,43.7247132 76.8670661,43.4206387 76.8518247,43.2197802 L76.9939406,43.2197802 L78.1475506,44.4726169 C78.5594807,44.9187167 78.9658497,45.3590365 79.3666576,45.793989 L80.5161483,47.0325818 C80.8784408,47.4192292 81.1956269,47.7489013 81.4677067,48.0213918 L81.4677067,46.8158281 C81.4677067,46.1950866 81.4633814,45.5908598 81.4551428,45.0033539 C81.4469042,44.4156416 81.4277495,43.8650871 81.3976786,43.3518968 C81.495718,43.3783201 81.5966408,43.3927704 81.6983875,43.3952475 C81.7937493,43.3917382 81.8884932,43.3772879 81.9803536,43.3518968 C81.9679957,43.4813297 81.9550199,43.6759952 81.9412203,43.9360997 C81.9276266,44.1962042 81.913209,44.4713783 81.8979676,44.7618283 C81.8829322,45.0576455 81.8699564,45.3474763 81.8588343,45.6309076 C81.8479181,45.9143389 81.8417392,46.1420336 81.8402974,46.3139915 L81.8402974,46.8465865 L81.8402974,47.4658829 L81.8402974,48.1266721 L81.8402974,48.7459686 L81.8402974,49.2455343 L81.8402974,49.5384615 L81.7169244,49.5384615 C81.0617497,48.7500972 80.3513763,47.9429475 79.5849805,47.117219" id="Fill-37" fill="#FFFFFF"></path>
                                <path d="M84.3366544,48.8713424 C84.5010534,48.9066081 84.6678971,48.9285466 84.8357594,48.936953 C85.0461983,48.9521254 85.2621376,48.9597117 85.4835772,48.9597117 C85.8074862,48.9590966 86.1301728,48.9205503 86.4451183,48.8446881 C86.7616934,48.7706711 87.0568784,48.6232524 87.3068383,48.4143236 C87.574929,48.1768953 87.7843493,47.8800074 87.9179872,47.5468286 C88.2198948,46.682204 88.2382293,45.7431525 87.9709535,44.8672511 C87.8658359,44.5685179 87.6888064,44.3007446 87.4555512,44.0881253 C87.2304447,43.8945741 86.9619466,43.7586371 86.6732805,43.6922064 C86.3467233,43.6161391 86.0124248,43.5790281 85.6771077,43.5814885 C85.4149248,43.5814885 85.1698541,43.59051 84.9416918,43.6081428 C84.7135296,43.6259807 84.5098132,43.6466891 84.3305429,43.6698578 C84.3128196,43.9513682 84.2999854,44.2457958 84.2918368,44.5533454 C84.2836881,44.860895 84.2796138,45.1733655 84.2796138,45.4905517 L84.2796138,47.0036959 C84.2822621,47.6448344 84.3014115,48.2699803 84.3366544,48.8795437 L84.3366544,48.8713424 Z M83.5441979,44.3606143 C83.5293266,43.9876591 83.5130293,43.6075277 83.495306,43.2206303 L84.1553469,43.2515903 C84.3741382,43.2597916 84.5941518,43.2643023 84.8153877,43.2657376 C85.0368274,43.2671728 85.256841,43.2597916 85.4754286,43.243389 C85.6940162,43.2284215 85.9140298,43.2206303 86.1354695,43.2206303 C86.5826268,43.2111988 87.0281544,43.2802949 87.4514769,43.4256634 C87.7908683,43.5447876 88.0978687,43.7418244 88.3478287,44.0018064 C88.5871953,44.2621984 88.7625951,44.5752839 88.8591566,44.916459 C88.971608,45.312993 89.0260003,45.7238793 89.0200925,46.1362009 C89.035575,46.6473484 88.9324945,47.1550104 88.7185924,47.6187952 C88.53647,47.9960561 88.2734722,48.3280047 87.9485447,48.5906521 C87.6429702,48.8334113 87.2915596,49.01138 86.915703,49.1134865 C86.5642923,49.2125175 86.2010661,49.2643908 85.8360065,49.2672613 L85.2493035,49.2672613 L84.6626005,49.2672613 L84.0758975,49.2672613 C83.8829781,49.2672613 83.6874105,49.2734123 83.4891945,49.2857143 C83.5069178,48.9219856 83.5232151,48.5521059 83.5380864,48.1762802 C83.5529577,47.8004545 83.5604952,47.419093 83.5604952,47.0321955 L83.5604952,45.5008033 C83.5645695,45.1178015 83.5592729,44.7380802 83.5441979,44.3606143 Z" id="Fill-39" fill="#FFFFFF"></path>
                                <path d="M95.2733727,45.1200365 C95.1676132,44.7908412 94.9935166,44.4887002 94.7628794,44.2340591 C94.549123,44.0037876 94.2861478,43.8261791 93.9940887,43.7156901 C93.6881994,43.6010706 93.364209,43.5436576 93.0381848,43.5463424 C92.7148046,43.5440707 92.3936616,43.6012771 92.0904163,43.7156901 C91.8036452,43.82494 91.5451444,43.9986246 91.3338286,44.223733 C91.1031914,44.4785806 90.9290949,44.7805151 90.8233353,45.1097104 C90.578868,45.9397205 90.578868,46.8240457 90.8233353,47.6540558 C90.9290949,47.9830446 91.102988,48.2851856 91.3338286,48.5400332 C91.547585,48.7703047 91.8107636,48.9477067 92.1026194,49.0584022 C92.4056612,49.1728152 92.7268042,49.2300216 93.0503878,49.2277499 C93.3766155,49.2304347 93.7004025,49.1732282 94.0064951,49.0584022 C94.2983508,48.9477067 94.5613261,48.7703047 94.7750824,48.5400332 C95.005923,48.2851856 95.1800196,47.9830446 95.2857791,47.6540558 C95.5251619,46.8256979 95.5217043,45.944264 95.2754066,45.1179713 L95.2733727,45.1200365 Z M90.0138678,45.0498192 C90.1641684,44.6714717 90.3939921,44.3311242 90.6870681,44.0523202 C90.9858389,43.7745487 91.3383031,43.5634837 91.7222917,43.4327556 C92.5815882,43.1487884 93.5069845,43.1487884 94.366281,43.4327556 C94.7502696,43.5634837 95.1029371,43.7745487 95.4015045,44.0523202 C95.6945806,44.3313308 95.9244043,44.6714717 96.0747049,45.0498192 C96.3942208,45.915351 96.3942208,46.8690674 96.0747049,47.7345992 C95.7745104,48.5043049 95.1470714,49.0941305 94.3683148,49.3392715 C93.5063743,49.6048582 92.586266,49.6048582 91.7243255,49.3392715 C90.9457723,49.0941305 90.3183333,48.5043049 90.0179355,47.7345992 C89.6967924,46.869687 89.6953688,45.915764 90.0138678,45.0498192 Z" id="Fill-41" fill="#FFFFFF"></path>
                                <path d="M100.205806,47.117219 C99.4394098,46.2914904 98.6734259,45.4717484 97.9072361,44.6586122 C97.9072361,44.8237579 97.9010571,45.0452596 97.8886992,45.3233237 C97.8761353,45.6011814 97.8761353,45.9789522 97.8886992,46.4566361 L97.8886992,46.9167734 L97.8886992,47.492719 C97.8886992,47.6931647 97.8886992,47.9055833 97.9010571,48.1120155 C97.913415,48.3184476 97.913415,48.5106359 97.919388,48.6879611 C97.9257729,48.8656992 97.9319519,49.0205233 97.9381308,49.1524334 C97.9443098,49.2847564 97.9504887,49.3753801 97.9566677,49.423066 C97.8540971,49.4102672 97.7509086,49.4040742 97.6477201,49.4044871 C97.5383527,49.4040742 97.4289853,49.4102672 97.3202358,49.423066 C97.3325937,49.3632007 97.3447456,49.2537916 97.3593691,49.0948389 C97.3737867,48.9358861 97.3882042,48.7439042 97.3985025,48.5230219 C97.4088007,48.3021395 97.4232183,48.0604074 97.4376358,47.8005094 C97.4520534,47.5404049 97.4642053,47.2803004 97.4724439,47.0199895 C97.4808885,46.7600914 97.4891271,46.5061799 97.495306,46.2584613 C97.501485,46.0107427 97.495306,45.787796 97.495306,45.5937498 L97.495306,44.1322103 C97.495306,43.7247132 97.4876853,43.4206387 97.4724439,43.2197802 L97.6147657,43.2197802 L98.7681698,44.4726169 C99.1800999,44.9187167 99.5864688,45.3590365 99.9872768,45.793989 L101.136768,47.0325818 C101.499266,47.4192292 101.816246,47.7489013 102.088326,48.0213918 L102.088326,46.8158281 C102.088326,46.1950866 102.084207,45.5908598 102.075968,45.0033539 C102.067729,44.4156416 102.048369,43.8650871 102.018298,43.3518968 C102.116337,43.3783201 102.217466,43.3927704 102.319007,43.3952475 C102.414369,43.3917382 102.509112,43.3772879 102.601179,43.3518968 C102.588615,43.4813297 102.575845,43.6759952 102.561839,43.9360997 C102.548246,44.1962042 102.533828,44.4713783 102.518587,44.7618283 C102.503551,45.0576455 102.490576,45.3474763 102.479659,45.6309076 C102.468537,45.9143389 102.462358,46.1420336 102.461123,46.3139915 L102.461123,46.8465865 L102.461123,47.4658829 L102.461123,48.1266721 L102.461123,48.7459686 L102.461123,49.2455343 L102.461123,49.5384615 L102.337544,49.5384615 C101.682575,48.7500972 100.971996,47.9429475 100.205806,47.117219" id="Fill-43" fill="#FFFFFF"></path>
                                <g id="Group-47" transform="translate(30.679764, 53.835165)">
                                    <mask id="mask-2" fill="white">
                                        <use xlink:href="#path-1"></use>
                                    </mask>
                                    <g id="Clip-46"></g>
                                    <path d="M0.231034055,1.51892219 C0.213404055,1.06664122 0.194558193,0.615179982 0.174293826,0.164333531 L1.11253405,0.201220968 C1.42257887,0.201220968 1.73667657,0.215566083 2.05077427,0.215566083 C2.36487196,0.215566083 2.67491679,0.215566083 2.98496161,0.201220968 L3.91712252,0.164333531 C3.89665551,0.268847936 3.88652333,0.375411642 3.88672597,0.481975349 C3.88692861,0.588539056 3.89685815,0.694897832 3.91712252,0.799617167 L3.30919149,0.756581824 L2.7194984,0.715595783 C2.51685472,0.701250668 2.2898938,0.688954856 2.04469495,0.676659044 C1.79949611,0.664363231 1.50768921,0.662313929 1.1652214,0.662313929 C1.1652214,0.889786457 1.15103634,1.10291387 1.13887772,1.30784407 C1.1267191,1.51277428 1.12266623,1.74639471 1.12266623,2.00665607 L1.12266623,2.81203178 L1.12266623,3.40632937 C1.43068462,3.40632937 1.70628002,3.40632937 1.95147886,3.39403356 C2.19667771,3.38173775 2.41958576,3.37968845 2.62020299,3.36944194 L3.18152598,3.33870241 C3.35174666,3.32640659 3.51588804,3.31636501 3.6678708,3.29976567 C3.64720114,3.40776388 3.63706896,3.51760647 3.63747425,3.62765399 C3.6372716,3.73442263 3.64740379,3.84057648 3.6678708,3.94529581 C3.48670735,3.92480279 3.27595793,3.90758865 3.03562253,3.89406326 C2.79508449,3.88033294 2.55393851,3.87090615 2.31218461,3.86537303 L1.63130186,3.86537303 L1.12266623,3.86537303 L1.12266623,4.07030324 L1.12266623,4.35105762 L1.12266623,5.40030027 L1.12266623,6.39421176 C1.12266623,6.65447312 1.12266623,6.85530472 1.13685129,6.98850936 L1.87042139,6.98850936 C2.13791105,6.98850936 2.39729495,6.98850936 2.65262598,6.97211494 C2.90795701,6.95572052 3.14910299,6.94957262 3.37606391,6.9311289 C3.57404678,6.91698871 3.77101643,6.89034779 3.965757,6.85120612 C3.95197723,6.9046929 3.94366884,6.95981913 3.94143976,7.01515028 L3.94143976,7.17909445 C3.93961597,7.27151797 3.9499508,7.36373656 3.97183631,7.45370092 C3.65834655,7.44017553 3.34566735,7.43382269 3.03359609,7.4352572 L1.13077198,7.4352572 C0.816674279,7.4352572 0.498523707,7.4352572 0.176320262,7.45370092 C0.19658463,7.00490377 0.216848998,6.55200802 0.233060492,6.10526017 C0.249271986,5.65851233 0.261430606,5.19741936 0.261430606,4.7322278 L0.261430606,2.90834898 C0.261430606,2.44397713 0.251906354,1.98472854 0.233060492,1.531218 L0.231034055,1.51892219 Z M5.94558572,6.46388803 C6.04346261,6.59791238 6.16018537,6.71656697 6.2921064,6.81636798 C6.60174594,7.05900535 6.98453984,7.18708672 7.37625007,7.17909445 C7.59044444,7.18155361 7.80281501,7.13974785 8.00039259,7.05613632 C8.17831374,6.97969736 8.33901017,6.86760053 8.47255236,6.72619869 C8.60427075,6.58602643 8.70640316,6.42003297 8.772465,6.23846481 C8.84237707,6.04767478 8.87723178,5.8456136 8.87581327,5.64211791 C8.88979569,5.36197832 8.80184833,5.08634719 8.62858799,4.86748173 C8.45775937,4.67136353 8.25146811,4.50987853 8.02065696,4.39204366 C7.76370478,4.2586341 7.49905214,4.14100416 7.22832019,4.03956371 C6.95150892,3.93689367 6.686451,3.8040989 6.43800985,3.64404841 C6.1960533,3.4831782 5.98915411,3.27394446 5.83007882,3.0292578 C5.65114446,2.73046956 5.56502089,2.38434244 5.58285354,2.0353463 C5.57819273,1.75397713 5.63128538,1.47506712 5.73888917,1.21562548 C5.8434533,0.974217701 5.99908365,0.758631126 6.19483744,0.584440451 C6.40599215,0.40287229 6.6493672,0.263724681 6.91219605,0.174580042 C7.21636421,0.0710902881 7.535528,0.0204725275 7.85651558,0.024980992 C8.15014627,0.019038016 8.44296638,0.0606388476 8.72383051,0.147939115 C8.97166373,0.229706267 9.20308281,0.356148203 9.4067397,0.520912088 C9.34331223,0.643665281 9.29042223,0.771951589 9.24867764,0.904131571 C9.20612246,1.03938551 9.16559373,1.20947758 9.12303856,1.41215355 L8.99739948,1.41215355 C8.95687074,1.30149124 8.90945212,1.19328809 8.8555489,1.08856876 C8.7933373,0.968069795 8.71187454,0.858432135 8.61440293,0.764779032 C8.50781236,0.66333858 8.38602351,0.579727057 8.25369719,0.516813484 C8.09522983,0.445087912 7.92257742,0.410659638 7.74911443,0.416397683 C7.56572191,0.413528661 7.38354524,0.445702703 7.21210869,0.510665578 C7.05323605,0.571734779 6.90753525,0.66272379 6.7825041,0.779124146 C6.65970203,0.898393525 6.563041,1.0420496 6.49880295,1.20128037 C6.43233583,1.36952807 6.39930491,1.548842 6.40153399,1.7300003 C6.38572778,2.01321384 6.47286456,2.29232878 6.64673284,2.51488298 C6.81877732,2.71120612 7.02486594,2.87433056 7.25466386,2.99646896 C7.51019754,3.13151797 7.77505282,3.24812326 8.04700064,3.34485031 C8.32198811,3.44424146 8.58664075,3.57047847 8.83731097,3.72192189 C9.07703844,3.86783219 9.28393764,4.06251589 9.445242,4.29367716 C9.62214993,4.5707428 9.70867878,4.89678675 9.69246729,5.22610959 C9.69408844,5.54211197 9.63491648,5.85524532 9.51819372,6.14829552 C9.40511855,6.43396822 9.23388465,6.69238521 9.01563741,6.90653727 C8.78381304,7.12950134 8.50740707,7.29918355 8.2050627,7.40451767 C7.85651558,7.52624621 7.48952788,7.5858809 7.12091904,7.58075765 C6.7616318,7.59346332 6.40335778,7.5336237 6.06717192,7.40451767 C5.82521537,7.30471666 5.59825446,7.17171696 5.39236848,7.00900238 C5.44789285,6.86596109 5.49186653,6.71861628 5.52408687,6.56840244 C5.54840411,6.4372471 5.57069492,6.26920434 5.59095928,6.06427413 L5.71659836,6.06427413 C5.77718882,6.20219216 5.85257227,6.33252777 5.94153284,6.45364152 L5.94558572,6.46388803 Z M13.0462201,0.703504901 L12.4727385,0.703504901 C12.2700948,0.703504901 12.0674512,0.703504901 11.8769661,0.723792991 C11.6864811,0.744286011 11.4858638,0.746335313 11.2994316,0.760680428 C11.1129995,0.775025542 10.9488581,0.79346926 10.8009282,0.813962281 C10.8331485,0.704119691 10.8509812,0.590383427 10.8536155,0.475827443 C10.8487521,0.364755272 10.8309195,0.254707752 10.8009282,0.147939115 L12.1545879,0.184826552 C12.5949327,0.194458271 13.0462201,0.199171666 13.5082477,0.199171666 C13.9702753,0.199171666 14.4201442,0.194458271 14.8578546,0.184826552 L16.2115143,0.147939115 C16.1807125,0.259011286 16.1630825,0.37295248 16.158827,0.488123255 C16.1620693,0.599400356 16.1796993,0.709652807 16.2115143,0.816011583 C16.0635845,0.795518563 15.8994431,0.775025542 15.7150373,0.76272973 C15.5306316,0.750433917 15.3360937,0.736088803 15.1375029,0.725842293 C14.9389121,0.715595783 14.7322155,0.709447876 14.5417305,0.705349272 L13.9702753,0.705349272 C13.9500109,1.4308022 13.9378523,2.16240303 13.9378523,2.90015177 L13.9378523,4.72198129 C13.9378523,5.18922216 13.9479845,5.64621651 13.9662224,6.09911227 C13.9844603,6.55200802 14.0026983,6.99670656 14.0249891,7.4332079 C13.8628741,7.42091209 13.6926534,7.41496911 13.5123006,7.41496911 C13.3319477,7.41496911 13.1597006,7.41496911 12.9975856,7.4332079 C13.01785,6.99670656 13.0381144,6.55200802 13.0543259,6.09911227 C13.0705374,5.64621651 13.082696,5.18922216 13.082696,4.72198129 L13.082696,2.92064479 C13.082696,2.18289605 13.0725638,1.45129522 13.0522994,0.725842293 L13.0462201,0.703504901 Z M20.2157534,1.66647193 C20.1411805,1.52855391 20.0331714,1.41215355 19.9016557,1.3283371 L19.9016557,1.25456222 C20.306943,1.09061806 20.7122304,0.914378081 21.1175177,0.719694387 C21.5228051,0.525010692 21.9280924,0.336474903 22.2847453,0.154087021 L22.357697,0.205319572 C22.3305428,0.67256044 22.3098731,1.1336534 22.2946749,1.58859846 C22.2806924,2.04354351 22.2746131,2.50668577 22.2746131,2.97187734 L22.2746131,4.74247431 C22.2746131,5.20971518 22.2813004,5.66670953 22.2946749,6.11345738 C22.3084546,6.56020523 22.3293269,6.99937066 22.357697,7.4311586 C22.2766396,7.41845293 22.1945689,7.41250995 22.1124982,7.41271488 L21.6200741,7.41271488 C21.5380034,7.41250995 21.4561353,7.41865786 21.3748752,7.4311586 C21.4093246,6.99465726 21.4316154,6.55200802 21.441545,6.10730947 C21.4518798,5.66261093 21.4579591,5.20766587 21.4579591,4.74042501 L21.4579591,0.990202257 L20.2157534,1.66647193 Z M28.2444958,4.74042501 C28.1847159,4.5381589 28.0892708,4.34880339 27.9628211,4.18096555 C27.5719215,3.69343659 26.9019815,3.5401488 26.3416717,3.81004188 C26.1680061,3.8983668 26.0164286,4.02501366 25.8978821,4.18096555 C25.7704192,4.34839353 25.6741634,4.53795396 25.6141809,4.74042501 C25.4794229,5.20889546 25.4794229,5.70646599 25.6141809,6.17493644 C25.6741634,6.37802228 25.7704192,6.56840244 25.8978821,6.7364452 C26.2875658,7.22581853 26.9595323,7.37869647 27.5190315,7.10531957 C27.6924944,7.01699465 27.8448825,6.89116751 27.9648475,6.7364452 C28.0914998,6.56799257 28.186945,6.37781734 28.2465223,6.17493644 C28.3814829,5.70667092 28.3814829,5.20889546 28.2465223,4.74042501 L28.2444958,4.74042501 Z M28.0094292,1.46154173 C27.9707242,1.30661449 27.9018254,1.16090912 27.8067855,1.0332376 C27.7129615,0.909254826 27.593199,0.807814375 27.4562119,0.736088803 C27.1336032,0.591408078 26.7656023,0.591408078 26.4429935,0.736088803 C26.3045879,0.805970003 26.1846229,0.907820315 26.09242,1.0332376 C25.9981907,1.16152391 25.9292918,1.30702435 25.8897763,1.46154173 C25.8478291,1.63122394 25.8267541,1.80520968 25.8269568,1.98001515 C25.8271594,2.15420582 25.8482344,2.32737184 25.8897763,2.49664419 C25.9288865,2.65300594 25.9977854,2.80076062 26.09242,2.9308913 C26.1854334,3.05569379 26.3051958,3.15733917 26.4429935,3.2280401 C26.7656023,3.37292575 27.1336032,3.37292575 27.4562119,3.2280401 C27.5927938,3.1554948 27.7123535,3.05425928 27.8067855,2.9308913 C27.9022307,2.80117048 27.9711295,2.6534158 28.0094292,2.49664419 C28.0517817,2.32757677 28.0728566,2.15420582 28.0722487,1.98001515 C28.0732619,1.80500475 28.052187,1.63101901 28.0094292,1.46154173 Z M24.9495096,4.33876181 C25.2356425,3.93914791 25.6480224,3.64978646 26.1187637,3.51904099 L26.1187637,3.44526611 C25.9752919,3.41309207 25.8385075,3.35694119 25.7134763,3.27927265 C25.5742601,3.1968907 25.448621,3.09319602 25.3406119,2.97187734 C25.2246998,2.84256638 25.1329022,2.69317226 25.0690694,2.5312774 C24.9967256,2.35688179 24.9610603,2.16916573 24.9634921,1.98001515 C24.9630868,1.75828067 25.0117213,1.53921028 25.1055453,1.33858361 C25.2044354,1.13549777 25.3420304,0.954339471 25.5108326,0.805970003 C25.6917934,0.643665281 25.9015296,0.517838135 26.1286932,0.434841402 C26.388685,0.339548857 26.6630646,0.292414909 26.9392679,0.295488862 C27.2444493,0.289545887 27.5484148,0.334630532 27.8392085,0.428693496 C28.0611033,0.504312741 28.2673946,0.620918028 28.4471395,0.77297624 C28.6027698,0.907615385 28.7267878,1.07565815 28.8098717,1.26480873 C28.8887001,1.45129522 28.9296341,1.65212682 28.9294314,1.85500772 C28.930242,2.19109326 28.8258805,2.51898159 28.6315452,2.79153876 C28.4151218,3.08786783 28.1081166,3.30386427 27.7579484,3.40632937 L27.7579484,3.48010425 C27.90831,3.51063885 28.0554293,3.55449391 28.1978878,3.61125958 C28.3806724,3.68421473 28.5492719,3.789139 28.6963912,3.92070419 C28.8635723,4.07153282 29.0011673,4.25310098 29.1016786,4.45557202 C29.2216436,4.71132492 29.2793971,4.99228423 29.2696702,5.27529284 C29.274331,5.60256638 29.2113088,5.92697089 29.0854671,6.2282183 C28.9693522,6.50261984 28.798321,6.74956074 28.5829108,6.95387615 C28.368919,7.15593733 28.1146012,7.30963499 27.837182,7.40451767 C27.5461857,7.50534333 27.2408017,7.55596109 26.9333912,7.55411672 C26.6219279,7.55555123 26.3118831,7.51415533 26.0113625,7.4311586 C25.7379962,7.35717879 25.4834757,7.22458895 25.2656338,7.04179121 C25.0561002,6.86719067 24.887906,6.64709563 24.7732097,6.39831037 C24.6487864,6.12185952 24.5871828,5.82081705 24.5928568,5.51711048 C24.5904251,5.09515919 24.7124165,4.6820199 24.9434303,4.3305646 L24.9495096,4.33876181 Z M33.9286509,1.10291387 C33.6791966,0.799617167 33.3051163,0.630139887 32.9154326,0.643665281 C32.5144007,0.635673003 32.135457,0.828307395 31.9022142,1.15824503 C31.624795,1.57445827 31.4902396,2.07120909 31.5192176,2.57226344 C31.5192176,3.18705405 31.6347245,3.62560469 31.8657383,3.89201396 C32.1052631,4.1602676 32.4511759,4.30556311 32.8080314,4.28752925 C33.0347897,4.29285744 33.2589136,4.23404247 33.4544647,4.11743718 C33.6384652,4.00390585 33.7965273,3.85246243 33.9185187,3.67273864 C34.0490213,3.47785001 34.1471008,3.26246837 34.2080966,3.0354057 C34.2733478,2.79379299 34.3061761,2.544188 34.3055682,2.29355836 C34.3240087,1.86177042 34.1880348,1.43776982 33.9225716,1.09881527 L33.9286509,1.10291387 Z M31.6669449,7.14220701 C31.8422316,7.2194657 32.0312982,7.25942709 32.2223912,7.25901723 C32.5715462,7.26823909 32.9136088,7.15614226 33.191028,6.94137541 C33.469663,6.71820642 33.6941922,6.43355836 33.8475935,6.10935878 C34.0226776,5.7451978 34.1475061,5.35828958 34.2184314,4.95970033 C34.2988809,4.54041313 34.3396123,4.1141583 34.3400176,3.68708375 L34.3197532,3.68708375 C34.1645282,3.97849451 33.939391,4.22564033 33.6652142,4.40638877 C33.3521297,4.60086754 32.9887896,4.69718473 32.6213966,4.68304455 C32.071219,4.71439887 31.5317815,4.51746094 31.1281153,4.1379302 C30.769436,3.77110514 30.5890832,3.25263172 30.5890832,2.57431274 C30.5854356,2.26589278 30.6413652,1.95952213 30.7532245,1.67261984 C30.8567754,1.40354648 31.0150402,1.15926968 31.2172785,0.955364122 C31.4282306,0.749409266 31.6774823,0.587719335 31.9508487,0.479926047 C32.2578538,0.358402435 32.5857313,0.298562816 32.9154326,0.303686071 C33.2222351,0.302251559 33.5266059,0.358607366 33.813144,0.469679537 C34.0992769,0.58300594 34.354,0.764983962 34.5546172,1.00044877 C34.7870495,1.27710454 34.9613231,1.59864004 35.0675084,1.94517701 C35.2103722,2.4023763 35.2788657,2.87986368 35.2701521,3.35919543 C35.276434,3.91640065 35.2081431,4.47196644 35.0675084,5.01093288 C34.9434905,5.492109 34.7378071,5.94746391 34.4595774,6.35732432 C34.2085018,6.72517404 33.8771794,7.02970033 33.4907379,7.24672141 C33.0897061,7.46312771 32.6404451,7.57256044 32.1859153,7.56436323 C32.0199501,7.56661746 31.853985,7.55083784 31.6914647,7.51722928 C31.5777816,7.49325245 31.4653144,7.46333264 31.3548736,7.42705999 C31.3368383,7.34918652 31.3042127,7.25266439 31.265913,7.14220701 C31.2343006,7.04322572 31.1939745,6.94731838 31.1463533,6.85530472 L31.1990406,6.82456519 C31.3419044,6.95592545 31.5048299,7.06330888 31.6813326,7.14220701 L31.6669449,7.14220701 Z M39.7526302,1.34268221 C39.6053082,1.548842 39.4202946,1.81197238 39.1973865,2.1316635 L38.5061689,3.12762429 C38.267252,3.46985774 38.0423176,3.79979537 37.8295417,4.11948649 C37.6167658,4.43917761 37.4503954,4.70148827 37.3310383,4.90436917 L39.774921,4.90436917 L39.774921,1.35087942 L39.7546566,1.35087942 L39.7526302,1.34268221 Z M37.4627566,3.98013395 L38.4273405,2.60300297 C38.7373854,2.15420582 39.0231129,1.74229611 39.2865497,1.35497802 C39.5499865,0.967659935 39.7627624,0.645919513 39.9309566,0.375411642 C40.0472741,0.407585685 40.1670365,0.425619543 40.2874068,0.428693496 C40.4008873,0.426439263 40.5135572,0.408610336 40.6219715,0.375411642 C40.6017072,0.84265251 40.5832666,1.36727383 40.5692842,1.95132492 C40.5550991,2.535376 40.5488172,3.1317229 40.5488172,3.74651351 L40.5488172,4.91256638 C40.7514609,4.91256638 40.9421486,4.91256638 41.1265543,4.88592545 C41.31096,4.85928453 41.4588899,4.84698871 41.5764233,4.82649569 C41.5073218,5.05499287 41.5073218,5.29885982 41.5764233,5.52735699 C41.4274802,5.50194565 41.2773212,5.4853463 41.1265543,5.47817375 C40.9421486,5.47817375 40.7514609,5.46382863 40.5488172,5.46382863 L40.5488172,5.90852718 C40.5488172,6.18723225 40.5488172,6.46798663 40.5692842,6.76513543 C40.5895486,7.06228423 40.5956279,7.28770745 40.6098129,7.45759459 C40.4720152,7.44550371 40.3159796,7.43935581 40.1498118,7.43935581 C39.9834413,7.43935581 39.8296348,7.43935581 39.6875816,7.45759459 C39.7039957,7.27541164 39.7202072,7.04773418 39.742498,6.74874102 C39.7647888,6.44954292 39.7726919,6.18108435 39.7726919,5.91057648 L39.7726919,5.46177933 L39.0758003,5.46177933 L38.1213486,5.47612444 C37.789013,5.47612444 37.4728888,5.49251886 37.1750026,5.50276537 L36.5042521,5.5294063 L36.5042521,5.3367719 C36.810244,4.90027057 37.130421,4.44327621 37.4627566,3.97193674 L37.4627566,3.98013395 Z" id="Fill-45" fill="#FFFFFF" mask="url(#mask-2)"></path>
                                </g>
                                <path d="M26.4168492,58.3760867 L0.571288526,58.3760867 C0.3524644,58.3319273 0.213470557,58.1300825 0.260679836,57.9255844 C0.294313914,57.7798393 0.415680258,57.6663135 0.571288526,57.6350417 L26.4168492,57.6350417 C26.6356733,57.5906928 26.8512556,57.7208968 26.8984649,57.9255844 C26.9456742,58.1300825 26.8064777,58.3319273 26.5878562,58.3760867 C26.5315292,58.3874583 26.4731761,58.3874583 26.4168492,58.3760867" id="Fill-48" fill="#FFFFFF"></path>
                                <path d="M102.698893,58.3846154 L76.8531696,58.3846154 C76.6294813,58.3846154 76.4479371,58.2147692 76.4479371,58.0054945 C76.4479371,57.7962198 76.6294813,57.6263736 76.8531696,57.6263736 L102.698893,57.6263736 C102.922784,57.6263736 103.104126,57.7962198 103.104126,58.0054945 C103.104126,58.2147692 102.922784,58.3846154 102.698893,58.3846154" id="Fill-50" fill="#FFFFFF"></path>
                                <g id="Group-54">
                                    <mask id="mask-4" fill="white">
                                        <use xlink:href="#path-3"></use>
                                    </mask>
                                    <g id="Clip-53"></g>
                                    <path d="M102.67966,0.908272527 L0.404410771,0.908272527 C0.181018498,0.908272527 8.0865981e-05,0.727103297 8.0865981e-05,0.503876923 C8.0865981e-05,0.280650549 0.181018498,0.0994813187 0.404410771,0.0994813187 L102.67966,0.0994813187 C102.90285,0.0994813187 103.08399,0.280650549 103.08399,0.503876923 C103.08399,0.727103297 102.90285,0.908272527 102.67966,0.908272527" id="Fill-52" fill="#FFFFFF" mask="url(#mask-4)"></path>
                                </g>
                            </g>
                        </g>
                        <g id="logo/symbol/white" transform="translate(10.000000, 0.000000)">
                            <g id="Page-1" transform="translate(7.246753, 4.285714)">
                                <mask id="mask-6" fill="white">
                                    <use xlink:href="#path-5"></use>
                                </mask>
                                <g id="Clip-2"></g>
                                <path d="M42.1387481,16.8832857 C42.6179688,18.8642381 44.4156312,20.2809048 46.673813,20.4737619 C47.7746182,20.569 49.6964104,19.8809048 49.9629039,17.8261429 C48.0530338,18.5285238 49.0068,16.7451905 50.3345922,16.0428095 C51.6623844,15.3404286 52.8405662,13.316619 51.4870597,10.8832857 C51.1691377,13.5570952 48.4946182,14.716619 48.7961766,13.1809048 C49.0068,12.0999524 52.1369299,8.419 49.8553714,4.15947619 C49.5372156,5.45471429 49.6216052,6.67138095 48.5813455,6.42852381 C47.5408519,6.18566667 46.327839,1.8642381 48.3171896,-4.76190476e-05 C46.1571896,0.238047619 44.6447221,2.85709524 44.9229039,4.64519048 C45.2010857,6.43328571 46.0777091,8.65709524 44.9229039,9.34519048 C44.2777091,9.73090476 43.8195273,9.44042857 43.6886182,8.89995238 C43.4431636,7.87614286 43.7470597,5.84757143 41.7390078,5.13090476 C43.0901766,7.88566667 41.1592675,12.8594762 42.1364104,16.8809048 M43.5974494,12.0999524 C43.8101766,14.2070952 44.8153714,15.3404286 45.2945922,15.1261429 C45.773813,14.9118571 44.7639429,10.9118571 47.047839,8.85947619 C45.9865403,11.0737619 47.047839,12.8237619 47.4171896,14.9094762 C47.6719948,16.2975714 47.2579948,18.369 46.5686182,18.7475714 C45.8790078,19.1261429 42.8540727,16.9094762 43.5974494,12.1023333 M48.4247221,32.3356667 C46.8280987,32.4904286 42.6179688,32.971381 39.5135532,32.6451905 C39.0280208,32.4125714 38.6149558,32.0485238 38.3190078,31.5928095 C38.3564104,32.2251905 38.577787,32.8318571 38.9548519,33.3356667 C40.4135532,33.5523333 47.3704364,32.9023333 48.4247221,32.3380476 M19.0496571,35.271381 C24.6600468,36.3237619 30.5953714,35.4785238 34.5062805,32.3594762 C33.159787,33.1642381 32.0868,33.5309048 30.0810857,33.7594762 C24.2229039,34.4332857 22.6893974,31.3547143 22.1447221,29.3023333 C21.7473195,27.7928095 22.5958909,25.6928095 23.6829039,25.6023333 C25.4501766,25.4594762 25.8686182,30.4928095 25.9106961,31.7475714 C26.2683584,31.0999524 28.4634234,28.7261429 28.8000468,26.1951905 C30.272774,26.9880476 30.9226442,29.1142381 30.7216052,30.8951905 C32.3579688,29.9642381 34.8990078,24.8975714 31.4392675,21.0094762 C32.1943325,19.769 32.7834234,18.1737619 32.2340727,16.6761429 C29.7468,19.0261429 26.2543325,17.769 23.0190078,19.771381 C26.3618649,18.9618571 29.4101766,19.3118571 31.4345922,18.0547143 C31.7104364,18.8547143 31.3925143,20.0404286 30.4995273,21.121381 C33.6296571,23.3618571 31.9979688,27.9285238 31.4018649,28.7404286 C31.2826442,26.3904286 29.7982286,24.9594762 28.1665403,24.7975714 C28.2062805,25.566619 27.5821247,28.1451905 26.3501766,29.766619 C26.0696571,24.9047143 22.8623844,20.419 18.3016052,22.6904286 C21.1652416,19.9356667 25.6745922,20.4880476 27.8626442,22.9999524 C26.2262805,20.6809048 24.3561506,20.1428095 21.7449818,20.4356667 C19.5475792,20.6737619 18.0374494,22.0285238 17.2543325,22.9570952 C15.5431636,21.766619 13.2639429,22.2047143 12.5790078,22.8809048 C16.3964104,25.3118571 14.6829039,28.0261429 17.0205662,31.8404286 C15.0873195,32.116619 11.3236831,34.7237619 10.6060208,36.1428095 C12.8618649,34.9951905 16.5951117,34.819 19.0403065,35.2785238 M44.9416052,31.1023333 C45.1753714,30.5951905 45.6265403,29.1047143 46.0052416,27.9404286 L45.1496571,27.7880476 C44.6517351,29.0047143 43.8429039,30.9380476 43.7470597,31.2523333 C44.1465662,31.2228095 44.5446701,31.1728095 44.9392675,31.1023333 M63.2875792,33.7785238 C61.2865403,33.5404286 60.2112156,33.1832857 58.8647221,32.3761429 C62.7732935,35.4975714 68.7109558,36.3428095 74.3213455,35.2904286 C76.7642026,34.8309048 80.499787,35.0070952 82.7532935,36.1547143 C82.0379688,34.7261429 78.2719948,32.1309048 76.3410857,31.8523333 C78.6787481,28.0428095 76.9605662,25.3237619 80.7826442,22.8928095 C80.1070597,22.216619 77.8255013,21.7856667 76.1073195,22.969 C75.3242026,22.0428095 73.8140727,20.6856667 71.6166701,20.4499524 C68.9961506,20.1642381 67.1423844,20.6880476 65.4990078,23.0142381 C67.6870597,20.5023333 72.1964104,19.9499524 75.0600468,22.7047143 C70.4992675,20.4356667 67.2896571,24.919 67.0112416,29.7809048 C65.7795273,28.1618571 65.1553714,25.5809048 65.1951117,24.8118571 C63.5587481,24.9737619 62.0790078,26.4047143 61.959787,28.7547143 C61.3636831,27.9451905 59.7319948,23.3785238 62.8618909,21.1356667 C61.959787,20.0547143 61.6418649,18.866619 61.926826,18.069 C63.9561506,19.3237619 67.0068,18.9737619 70.3424104,19.7832857 C67.1073195,17.7856667 63.6122805,19.0404286 61.1273455,16.6880476 C60.5782286,18.1880476 61.1670857,19.7832857 61.9223844,21.0237619 C58.4626442,24.9142381 61.0083584,29.9785238 62.6400468,30.9094762 C62.4413455,29.1261429 63.0888779,27.0023333 64.5616052,26.2094762 C64.8935532,28.7356667 67.0883844,31.116619 67.4486182,31.766619 C67.4906961,30.5094762 67.9161506,25.4761429 69.6764104,25.621381 C70.7608519,25.7118571 71.6096571,27.8094762 71.2145922,29.3237619 C70.6792675,31.3785238 69.1434234,34.4523333 63.2829039,33.7809048 M85.1000727,91.9928095 C86.2864364,91.0478095 87.0356571,89.6447143 87.1691377,88.116619 C83.5083584,91.3594762 78.2860208,89.8594762 78.2860208,89.8594762 C78.2860208,89.8594762 84.3849818,87.7928095 79.3728,80.8118571 C79.6909558,87.2142381 73.0356312,88.0285238 67.9953974,88.0261429 C64.3558909,88.0261429 60.9940987,88.4404286 58.6073455,89.4832857 C62.8410857,83.3547143 65.5293974,76.6261429 66.2587481,71.5499524 C66.5135532,69.769 66.7122545,68.0761429 66.8688779,66.4332857 L66.8943584,66.5975714 C67.3618909,69.2404286 68.3532935,70.4070952 72.7385143,72.266619 C77.1239688,74.1261429 76.8577091,77.0570952 74.5805922,78.8523333 C77.9751117,79.8380476 80.3569558,74.6094762 76.7080987,69.8975714 C77.0655273,69.5928095 78.6366701,67.3642381 76.5278649,64.6594762 C75.4410857,66.6809048 73.0213714,67.3761429 71.4621506,67.0404286 C74.6974753,68.6047143 76.2896571,66.419 76.553813,66.069 C77.4280987,68.1737619 76.3200468,69.8785238 75.2818909,69.9047143 C77.0868,71.3094762 78.3208519,72.966619 77.9024104,75.6047143 C77.5777091,73.6809048 73.2810857,72.0570952 71.0392675,70.7404286 C69.2883584,69.7142381 68.2551117,66.8928095 70.7353714,65.4642381 C73.2153974,64.0356667 75.6655013,62.9047143 77.5636831,60.9404286 C77.8813714,62.2928095 79.2000468,65.371381 84.1675792,66.8547143 C78.5688779,58.4023333 86.3135532,58.021381 82.4961506,50.2975714 C81.8603065,57.6428095 71.833839,59.3737619 71.833839,59.3737619 C80.1865403,55.969 82.8421247,50.9594762 81.3039429,45.9999524 C80.2800468,42.7118571 77.1779688,39.4499524 70.4548519,37.2237619 C71.7826442,36.9547143 72.7104623,36.5880476 73.3979688,35.9547143 C69.4239429,36.9070952 68.2925143,36.7642381 66.5813455,36.521381 C74.8052416,38.8404286 79.0551117,41.7142381 79.9060208,45.5975714 C80.319787,47.5023333 80.0112156,49.1404286 79.2912156,50.4142381 C77.8042286,45.3261429 70.0011117,43.1904286 67.1493974,42.6261429 C67.1493974,44.271381 66.473813,45.3047143 65.5270597,45.9261429 L60.4823844,45.1023333 C61.0747481,44.3649524 61.2849039,43.3835238 61.0480987,42.4618571 C60.6504623,40.7951905 58.9979688,38.716619 54.3600468,35.4356667 C54.3904364,35.0309048 54.4301766,34.6380476 54.4675792,34.2594762 C56.5270597,35.9261429 60.5055273,38.069 64.0519948,39.0547143 C61.2304364,37.8237619 56.7746182,35.5142381 54.565761,33.2285238 C54.565761,33.1428095 54.5844623,33.0547143 54.5891377,32.971381 C54.6148519,32.6928095 54.6309818,32.4118571 54.6475792,32.1332857 C58.7125403,35.2618571 62.2169299,35.9737619 63.4932935,35.9737619 C61.5109558,35.4237619 53.7405662,31.7785238 50.0073195,25.8309048 C50.820826,25.8547143 51.631761,25.8856667 52.4268,25.916619 C53.8684364,28.134 55.6894753,30.0697143 57.8034234,31.6309048 C56.1212416,30.009 54.7866701,28.0506667 53.8831636,25.8785238 L53.8504364,25.8785238 C54.5599169,25.7535238 55.0781766,25.126381 55.0777091,24.3928095 C55.0777091,23.7547143 54.773813,22.3428095 51.2977091,22.5380476 L51.1317351,22.5380476 C49.9196571,22.1494762 48.6612935,21.9309048 47.3914753,21.8880476 C47.2325143,20.8737619 46.4353714,20.3880476 46.0379688,21.8880476 C44.9416052,22.0020952 43.8555273,22.2004286 42.7886182,22.4809048 C42.0055013,22.4094762 41.0447221,22.4142381 40.3901766,22.6309048 C38.8730338,22.7285238 38.2862805,23.5285238 38.2535532,24.321381 C38.2231636,25.1692381 38.8706961,25.8828095 39.7029039,25.919 C39.1909558,26.7309048 37.2179688,29.8023333 35.5348519,31.6547143 C36.7036831,30.9237619 38.2161506,29.4118571 38.2161506,29.4118571 L38.3610857,29.1737619 C38.185761,29.769 38.0384883,30.2999524 37.8935532,30.6451905 C37.6466961,30.8525714 37.3657091,31.0137619 37.0636831,31.121381 C36.9982286,31.1547143 36.5751117,31.3428095 36.5470597,31.6594762 L36.5470597,31.7856667 C34.0925143,34.6118571 24.8587481,39.0332857 21.0553714,40.869 C25.2374494,39.0809048 30.6655013,37.4142381 36.565761,32.9547143 C36.6010597,33.2480476 36.6716571,33.5359048 36.7761506,33.8118571 C34.6535532,35.9785238 31.5047221,37.7451905 29.5714753,39.1547143 C32.5519948,37.9332857 35.3361506,35.8499524 37.2062805,34.569 C37.3128779,34.6954286 37.4393455,34.8032857 37.5803065,34.8880476 C37.8108,34.9432857 38.0452675,34.979 38.2816052,34.9951905 C38.4665143,35.1732857 38.6320208,35.3711429 38.7748519,35.5856667 C34.3332935,38.7642381 32.7179688,40.7904286 32.3299169,42.4356667 C32.0860987,43.3749524 32.3086442,44.3761429 32.9260208,45.116619 L27.9093974,45.8928095 C26.9369299,45.2737619 26.2496571,44.2261429 26.2426442,42.5594762 C23.3930338,43.1261429 15.5875792,45.2618571 14.100826,50.3475714 C13.380826,49.071381 13.0722545,47.4428095 13.4860208,45.5309048 C14.3252416,41.6475714 18.5751117,38.7785238 26.8106961,36.4547143 C25.0995273,36.6928095 23.972774,36.8309048 19.9940727,35.8880476 C20.6836831,36.5237619 21.6117351,36.8880476 22.9371896,37.1570952 C16.2164104,39.3856667 13.1190078,42.6475714 12.0904364,45.9356667 C10.5499169,50.8951905 13.2055013,55.9047143 21.5579688,59.3070952 C21.5579688,59.3070952 11.5340727,57.5785238 10.8982286,50.2309048 C7.07848831,57.9570952 14.8231636,58.3261429 9.2268,66.7904286 C14.1849818,65.3023333 15.5104364,62.2237619 15.8306961,60.8761429 C17.7265403,62.8451905 20.1764104,63.971381 22.6566701,65.3999524 C25.1369299,66.8285238 24.1060208,69.6523333 22.3551117,70.6761429 C20.1156312,71.9904286 15.5758909,73.7832857 15.5104364,75.619 C15.0429039,72.971381 16.3075792,71.2451905 18.1099169,69.8380476 C17.0626442,69.8261429 15.9616052,68.1118571 16.8358909,66.0047143 C17.1000468,66.3547143 18.6919948,68.5428095 21.9273195,66.9737619 C20.3634234,67.3118571 17.9532935,66.616619 16.8616052,64.5928095 C14.7577091,67.3070952 16.3239429,69.5356667 16.6816052,69.8309048 C16.0691377,70.6642381 13.6847221,74.0356667 15.5384883,77.3928095 C15.9522545,78.1380476 17.1514753,79.3309048 18.7971896,78.7904286 C16.5693974,77.0070952 16.2771896,74.0618571 20.6556312,72.1999524 C25.0340727,70.3380476 26.0112156,69.1737619 26.499787,66.5261429 L26.5255013,66.371381 C26.6821247,68.021381 26.880826,69.7047143 27.1356312,71.4999524 C27.8673195,76.5832857 30.5743325,83.3499524 34.8335532,89.4975714 C32.4514753,88.4856667 29.1343325,88.0809048 25.5460208,88.0832857 C20.5060208,88.0832857 13.8577091,87.271381 14.1686182,80.871381 C9.15667013,87.8428095 15.2556312,89.919 15.2556312,89.919 C15.2556312,89.919 10.0309558,91.416619 6.37251429,88.1761429 C6.49664416,89.7056667 7.23604675,91.1144762 8.41563117,92.069 C7.9480987,92.1237619 2.7655013,92.8097143 4.67532468e-05,88.3809048 C1.75329351,99.3478095 18.0888779,93.569 20.6345922,92.2570952 C19.5966701,93.2547143 17.5044623,96.0380476 19.5732935,97.9832857 C19.6270597,95.2380476 22.4906961,93.8356667 23.2340727,93.6975714 C23.5777091,95.4142381 25.0644623,96.4811429 26.4156312,96.7928095 C26.0977091,94.9547143 26.3291377,91.9499524 32.3299169,92.2809048 C35.2122545,92.4404286 38.047839,94.3951905 40.4322545,96.2904286 L40.6356312,96.4547143 C42.4823844,98.2609048 44.5117091,99.8628095 46.6901766,101.233524 C48.8471377,99.8735238 50.857761,98.2861429 52.6886182,96.4975714 L53.0834494,96.1835238 L61.1836831,92.171381 C67.1844623,91.8404286 67.4158909,94.8451905 67.0979688,96.6809048 C68.4514753,96.3570952 69.9358909,95.2906667 70.2795273,93.5856667 C71.0229039,93.7356667 73.8865403,95.1406667 73.9379688,97.871381 C76.0068,95.9285238 73.9122545,93.1451905 72.8790078,92.1570952 C75.4223844,93.466619 91.7603065,99.2478095 93.5088779,88.2785238 C90.752774,92.7094762 85.5795273,92.021381 85.0932935,91.9668571 M67.2382286,61.2547143 C67.3618909,58.7335238 67.4065403,56.2237619 67.4252416,53.5856667 C67.9255013,55.3928095 69.9450078,56.6142381 70.8452416,56.6951905 C68.9000727,58.1237619 67.8062805,59.6975714 67.2382286,61.2547143 M67.7688779,43.6761429 C72.7036831,44.9047143 77.6758909,47.1761429 78.6902026,51.2642381 C76.0348519,54.4951905 70.3987481,54.4904286 69.3395532,49.266619 C68.245761,50.1928095 67.6683584,51.0832857 67.4390338,51.9094762 L67.4390338,46.7475714 L66.5156571,46.6070952 C67.179787,45.966619 67.6426442,45.021381 67.7688779,43.6761429 M22.525761,56.6761429 C23.425761,56.5954286 25.4455013,55.3761429 25.9434234,53.566619 C25.9621247,56.2047143 26.0088779,58.7118571 26.1304364,61.2356667 C25.5577091,59.6785238 24.4683584,58.1023333 22.525761,56.6761429 M25.9293974,46.7475714 L25.9293974,51.8928095 C25.6956312,51.066619 25.1229039,50.1737619 24.0288779,49.2499524 C22.9675792,54.4737619 17.3291377,54.4880476 14.6782286,51.2451905 C15.6880987,47.1570952 20.6649818,44.8856667 25.5974494,43.6570952 C25.7236831,45.0142381 26.1958909,45.9594762 26.8644623,46.6047143 L25.9293974,46.7475714 M63.3436831,48.6737619 C63.4650078,50.7230476 63.5299948,52.7604286 63.5377091,54.7856667 C59.3766701,54.3523333 53.0977091,53.7237619 46.6761506,53.6975714 C45.2571896,53.6975714 43.8452416,53.7404286 42.4683584,53.7951905 C42.4800468,53.2856667 42.4987481,52.7809048 42.5151117,52.2761429 C46.0216052,51.0856667 48.7332935,48.5642381 50.3951377,47.5142381 C54.7310338,47.6694762 59.0554753,48.0587619 63.3506961,48.6809048 M40.4790078,46.5951905 C41.7132935,44.2142381 41.9914753,40.9642381 40.3200468,36.3832857 C41.5917351,37.5975714 42.3468,40.7594762 42.4660208,42.2999524 C42.8774494,41.7047143 43.0504364,39.8142381 42.8914753,38.5570952 C43.8709558,42.5261429 43.1252416,48.0380476 42.173813,48.9023333 C41.5496571,48.5785238 41.0610857,47.8499524 40.6613455,47.2356667 C40.9103065,48.1030476 41.334826,48.9075714 41.9073195,49.5975714 C48.1114753,47.4547143 52.620826,42.319 56.1670597,43.669 C54.2031896,43.7761429 52.7470597,44.6951905 51.3935532,45.9928095 C49.2896571,45.666619 47.706826,49.719 41.1569299,51.7309048 C40.3364104,51.2047143 39.4387481,48.516619 39.1161506,47.571381 C38.7935532,46.6261429 38.4826442,46.4070952 38.0431636,46.3951905 C37.8982286,45.6006667 37.9529299,44.781619 38.2021247,44.0142381 C38.2021247,44.0142381 38.6930338,43.4880476 40.0184883,43.0023333 C39.9906701,44.2209048 40.1426182,45.4368571 40.4696571,46.6094762 M51.6179688,42.1261429 C50.273813,41.0404286 49.1914753,37.166619 50.5029039,34.319 C50.7831896,33.5475714 51.6974494,33.0618571 51.5920208,33.6975714 C50.8488779,36.1285238 50.9304623,39.9642381 51.6179688,42.1237619 M56.9758909,44.519 C56.9590597,44.8585238 57.0448519,45.1949524 57.2213455,45.4832857 C56.0819688,45.386381 54.9816312,45.3070952 53.9203325,45.2451905 C54.8472156,44.7073333 55.9089818,44.4587619 56.9735532,44.5309048 M59.5473195,42.0047143 C60.3047221,42.8809048 60.4987481,44.569 59.5823844,44.8261429 C59.1569299,44.7451905 58.5491377,44.069 58.7080987,42.771381 C58.3006442,42.8825714 57.9219429,43.0823333 57.5977091,43.3570952 C57.1960987,42.9404286 56.6553974,42.6930476 56.0826701,42.6642381 C54.913839,41.3832857 54.4582286,39.7642381 54.3366701,38.1404286 C55.9470857,39.4380476 58.3855013,40.671381 59.5473195,42.0142381 M55.0145922,42.5761429 C54.0070597,42.521381 53.887839,42.7237619 53.3314753,42.8594762 C51.9288779,40.716619 51.7792675,36.9070952 53.0509558,34.5809048 C52.9455273,37.4380476 53.3712156,41.5237619 55.0145922,42.5761429 M51.659813,29.369 C52.0226182,29.3809048 52.3071117,29.6899524 52.2954234,30.0592381 C52.2837351,30.4285238 51.9805403,30.7182857 51.6179688,30.706381 C51.2635792,30.6949524 50.9823584,30.3992381 50.9821247,30.0380476 C50.9872675,29.6632857 51.289761,29.3637619 51.6574753,29.369 C51.6584104,29.369 51.6593455,29.369 51.659813,29.369 M40.4042026,23.1356667 C41.2324364,22.9311429 42.0948,22.9173333 42.9288779,23.0951905 C43.3964104,22.9332857 44.679787,22.7904286 45.4348519,23.0547143 C46.5896571,22.769 48.0364364,22.8832857 48.6115013,23.1023333 C49.3128,22.7761429 50.6618649,22.9332857 51.2439429,23.1356667 C53.3104364,22.6285238 54.3787481,23.6547143 54.3787481,24.3261429 C54.3787481,24.8023333 54.2361506,24.9261429 53.9953714,25.0594762 C53.1514753,25.5356667 53.3899169,24.216619 51.5945922,23.7975714 C52.3753714,24.1975714 52.4361506,25.0880476 53.3104364,25.269 C50.3883584,25.7451905 50.972774,23.4047143 48.8571896,23.4047143 C49.7571896,23.6737619 49.8972156,24.7975714 50.773839,25.2261429 C47.7818649,25.5309048 48.0413455,23.2809048 45.8392675,23.3356667 C46.9286182,23.6594762 47.0080987,24.7880476 48.1769299,25.166619 C44.9930338,25.6094762 45.5190078,23.171381 43.1579688,23.3499524 C44.2706961,23.8499524 44.4764104,24.821381 45.5306961,25.0856667 C42.5735532,25.8880476 42.6600468,23.3832857 40.7174494,23.5856667 C41.5917351,23.8094762 41.9704364,24.8285238 42.685761,25.1237619 C41.0166701,25.7523333 41.0751117,24.3332857 39.6468,24.3523333 C40.2031636,24.5761429 40.4158909,25.0285238 40.9325143,25.2928095 C38.1553714,25.7118571 38.5130338,22.9356667 40.4018649,23.1499524 M38.5480987,34.2451905 C37.7112156,33.9904286 37.1151117,32.5785238 37.4610857,31.6785238 C37.6480987,31.4928095 37.9449818,31.4618571 38.2301766,31.2023333 C38.7351117,30.7261429 38.6673195,28.4618571 41.093813,26.3142381 C42.8704364,25.9094762 45.4161506,25.7737619 46.8093974,26.0023333 C46.9636831,26.1023333 48.6164104,26.7547143 48.9693974,32.2570952 C50.180774,32.1232857 51.378826,31.8842381 52.5506961,31.5428095 C50.0587481,33.6499524 39.092774,34.3999524 38.5480987,34.2428095 M33.8330338,41.9880476 C35.1771896,40.4309048 38.2255013,39.0261429 39.7286182,37.4975714 C40.2090078,38.7837619 40.4911636,40.1378095 40.5655013,41.5118571 C40.0091377,42.2404286 38.0992675,42.7285238 37.4610857,43.8070952 C37.3617351,44.3256667 37.3110078,44.8525714 37.3091377,45.3809048 L36.1403065,45.4761429 C36.8930338,44.1999524 35.9369299,43.1094762 34.6745922,42.7547143 C34.8335532,44.0499524 34.2234234,44.7237619 33.8003065,44.8070952 C32.8839429,44.5499524 33.0779688,42.8642381 33.8330338,41.9904286 M30.0203065,48.6285238 C32.0423844,48.3070952 35.0790078,47.9642381 38.2886182,47.7237619 C38.2395273,49.5975714 38.1693974,51.6975714 38.1249818,53.9928095 C34.9480987,54.216619 32.079787,54.5070952 29.8262805,54.7404286 C29.8356312,52.716619 29.9001506,50.6792381 30.0203065,48.6285238 M25.765761,95.9049524 C22.6613455,94.476381 23.6034234,91.3475714 25.0223844,90.6978095 C19.320826,89.6454286 13.5935532,92.6811429 11.2839429,92.6025714 C13.6216052,92.126381 15.3818649,90.4118571 18.8439429,89.9835238 C15.5548519,89.3478095 14.0306961,87.0523333 14.2831636,85.4023333 C18.4675792,91.6975714 29.2956312,86.9309048 35.9649818,91.116619 C36.1706961,91.3906667 36.392774,91.6523333 36.6031636,91.9237619 C30.2587481,88.1142381 24.1925143,91.8356667 25.765761,95.8928095 M46.6901766,97.7832857 C35.4974494,90.726381 30.5603065,75.7356667 29.9034234,59.0142381 C31.3060208,58.8737619 34.4595273,58.5761429 38.0852416,58.3618571 C38.1319948,67.269 38.9969299,78.2975714 43.2631636,89.8070952 C42.8423844,83.3785238 42.2392675,70.4118571 42.3818649,58.166619 C43.8171896,58.1237619 45.2455013,58.1023333 46.6036831,58.1237619 L46.6855013,58.0618571 L46.7649818,58.1237619 C53.1093974,58.0332857 61.0247221,58.769 63.4722545,59.0142381 C62.8200468,75.7356667 57.8756571,90.726381 46.6901766,97.7832857 M68.4982286,90.5904286 C69.9171896,91.2380476 70.8590338,94.371381 67.7548519,95.7951905 C69.3374494,91.716619 63.1893974,87.971381 56.8026701,91.8928095 C57.0132935,91.6261429 57.2306961,91.366619 57.4317351,91.0951905 C64.0917351,86.7642381 75.0270857,91.6309048 79.2374494,85.2975714 C79.4899169,86.9428095 77.965761,89.2404286 74.6764364,89.874 C78.1364104,90.3070952 79.8870857,92.0168571 82.2343325,92.4930476 C79.9293974,92.5737619 74.1995532,89.5359048 68.4982286,90.5882857 M40.7525143,31.3809048 C41.2315013,30.066619 41.8114753,28.7930476 42.4870597,27.571381 C42.4870597,27.571381 41.9306961,27.571381 41.7179688,27.5999524 C41.0311636,28.8006667 40.4416052,30.056381 39.9553714,31.3547143 C39.9553714,31.3547143 40.1423844,31.4570952 40.7455013,31.3856667 M42.7418649,31.3404286 C43.0925143,30.4094762 43.9901766,28.2451905 44.319787,27.6928095 C44.0182286,27.6306667 43.7110597,27.5994762 43.4034234,27.5999524 C42.8844623,28.5047143 41.9049818,30.7594762 41.6665403,31.366619 C42.0101766,31.3809048 42.3421247,31.3404286 42.7395273,31.3404286 M40.9675792,27.669 L40.4766701,27.7356667 C39.8305403,28.7170952 39.3312156,29.7906667 38.9945922,30.921381 C39.1416312,31.0228095 39.2982545,31.109 39.4621247,31.1785238 C39.8688779,29.966619 40.3756831,28.791619 40.9769299,27.666619" id="Fill-1" fill="#FFFFFF" mask="url(#mask-6)"></path>
                            </g>
                        </g>
                    </g>
                </g>
            </g>
        </g>
    </g>
</svg>