<svg id="Logo" xmlns="http://www.w3.org/2000/svg" viewBox="0 0 509.9 278.56"><title>law-logo-white</title><path d="M336.82,260.93l4.76-6.72c1.53-2.19,2.94-4.2,4.24-6.09s2.35-3.46,3.18-4.78a7.41,7.41,0,0,0,1.76.26,6.18,6.18,0,0,0,1.65-.26q-.15,3.42-.26,7.69c-.07,2.85-.1,5.76-.1,8.76v5.69a20.27,20.27,0,0,0,2.85-.13c.91-.13,1.64-.19,2.22-.29a5.86,5.86,0,0,0,0,3.42,20.63,20.63,0,0,0-2.22-.24c-.91,0-1.85-.07-2.85-.07v2.17c0,1.36,0,2.73.1,4.18s.13,2.55.2,3.38c-.68-.06-1.45-.09-2.27-.09a18.32,18.32,0,0,0-2.28.09c.08-.89.16-2,.27-3.46s.15-2.77.15-4.09v-2.17h-3.44l-4.71.07c-1.64,0-3.2.08-4.67.13l-3.31.13v-.94l4.73-6.66m11.35-12.81q-1.1,1.52-2.74,3.85L342,256.81q-1.77,2.51-3.34,4.84t-2.46,3.83h12.06V248.1Zm-40,28.3a6.8,6.8,0,0,0,2.74.57,7.51,7.51,0,0,0,4.78-1.55,11.53,11.53,0,0,0,3.24-4.06,21.69,21.69,0,0,0,1.83-5.61,32.43,32.43,0,0,0,.6-6.21h-.1a9.63,9.63,0,0,1-3.19,3.49,9.17,9.17,0,0,1-5.15,1.35,10,10,0,0,1-7.37-2.66c-1.77-1.79-2.66-4.32-2.66-7.63a11.6,11.6,0,0,1,.81-4.4,10.07,10.07,0,0,1,2.29-3.5,10.89,10.89,0,0,1,3.62-2.32,12.7,12.7,0,0,1,4.76-.86,12.2,12.2,0,0,1,4.43.81,9.29,9.29,0,0,1,3.66,2.59A13,13,0,0,1,325,251a21.8,21.8,0,0,1,1,6.9,30.44,30.44,0,0,1-1,8.06,20.94,20.94,0,0,1-3,6.57,14.11,14.11,0,0,1-4.78,4.34,13.15,13.15,0,0,1-6.44,1.55,11.73,11.73,0,0,1-2.44-.23,15.59,15.59,0,0,1-1.66-.44c-.09-.38-.25-.85-.44-1.39a9,9,0,0,0-.59-1.4l.26-.15a9,9,0,0,0,2.38,1.55m11.09-29.47a6.22,6.22,0,0,0-5-2.24,6,6,0,0,0-5,2.51,11.2,11.2,0,0,0-1.89,6.9c0,3,.57,5.14,1.71,6.44a5.86,5.86,0,0,0,4.65,1.93,6,6,0,0,0,3.19-.83,7.41,7.41,0,0,0,2.29-2.17,10.46,10.46,0,0,0,1.43-3.11,13.84,13.84,0,0,0,.48-3.62,8.77,8.77,0,0,0-1.89-5.83M275.06,262.7a10.6,10.6,0,0,1,5.77-4v-.36a6.57,6.57,0,0,1-2-.81A7.61,7.61,0,0,1,277,256a7.26,7.26,0,0,1-1.34-2.15,6.72,6.72,0,0,1-.52-2.69,7.37,7.37,0,0,1,.7-3.13,8.46,8.46,0,0,1,2-2.6,9.52,9.52,0,0,1,3.05-1.81,11.15,11.15,0,0,1,4-.68,13.61,13.61,0,0,1,4.44.65,9.34,9.34,0,0,1,3,1.68,6.81,6.81,0,0,1,1.79,2.4,7.31,7.31,0,0,1,.59,2.88,7.8,7.8,0,0,1-1.47,4.57,8.16,8.16,0,0,1-4.31,3v.36a12.57,12.57,0,0,1,2.17.64,8.54,8.54,0,0,1,2.46,1.51,8.78,8.78,0,0,1,2,2.61,8.64,8.64,0,0,1,.83,4,11.58,11.58,0,0,1-.91,4.65,10.55,10.55,0,0,1-2.48,3.54,10.1,10.1,0,0,1-3.68,2.2,13.54,13.54,0,0,1-4.46.73,17,17,0,0,1-4.55-.6,9.72,9.72,0,0,1-3.68-1.9,9,9,0,0,1-2.45-3.06,10,10,0,0,1-.89-4.3,10.35,10.35,0,0,1,1.73-5.79m15.13-14a5.78,5.78,0,0,0-1-2.09,5.16,5.16,0,0,0-1.73-1.45,6.13,6.13,0,0,0-5,0,4.86,4.86,0,0,0-1.73,1.45,6.3,6.3,0,0,0-1,2.09,10.31,10.31,0,0,0-.31,2.53,10.67,10.67,0,0,0,.31,2.52,6.07,6.07,0,0,0,1,2.12,5.05,5.05,0,0,0,1.73,1.45,6.13,6.13,0,0,0,5,0,5.37,5.37,0,0,0,1.73-1.45,5.91,5.91,0,0,0,1-2.12,10.17,10.17,0,0,0,.31-2.52,9.85,9.85,0,0,0-.31-2.53m1.16,16a8.5,8.5,0,0,0-1.39-2.73,6.62,6.62,0,0,0-8-1.81,6.3,6.3,0,0,0-2.19,1.81,8.52,8.52,0,0,0-1.4,2.73,12.62,12.62,0,0,0,0,7,8.57,8.57,0,0,0,1.4,2.74,6.59,6.59,0,0,0,8,1.8,6.51,6.51,0,0,0,2.2-1.8,8.55,8.55,0,0,0,1.39-2.74,12.44,12.44,0,0,0,0-7m-39.63-15a4.54,4.54,0,0,0-1.55-1.65v-.36c2-.8,4-1.66,6-2.61s4-1.87,5.76-2.76l.36.25c-.13,2.28-.24,4.53-.31,6.75s-.1,4.48-.1,6.75v8.64q0,3.42.1,6.69t.31,6.43a8.11,8.11,0,0,0-1.21-.09H258.6a8.11,8.11,0,0,0-1.21.09c.17-2.13.28-4.29.33-6.46s.08-4.39.08-6.67v-18.4ZM216.31,245h-2.83a28.3,28.3,0,0,0-2.94.1c-.94.1-1.93.11-2.85.18s-1.73.16-2.46.26a6.18,6.18,0,0,0,.26-1.65,6.68,6.68,0,0,0-.26-1.6l6.68.18q3.26.08,6.68.07t6.66-.07l6.68-.18a7.18,7.18,0,0,0-.26,1.66,6.22,6.22,0,0,0,.26,1.6c-.73-.1-1.54-.2-2.45-.26s-1.87-.13-2.85-.18-2-.08-2.94-.1h-2.82c-.1,3.54-.16,7.11-.16,10.71v8.89c0,2.28,0,4.51.14,6.72s.18,4.38.29,6.51c-.8-.06-1.64-.09-2.53-.09a23.12,23.12,0,0,0-2.54.09c.1-2.13.2-4.3.28-6.51s.14-4.44.14-6.72v-8.89q0-5.4-.15-10.71m-35.07,28a8.72,8.72,0,0,0,7.06,3.49,7.76,7.76,0,0,0,3.08-.6,6.92,6.92,0,0,0,3.81-4,8.26,8.26,0,0,0,.51-2.91,5.56,5.56,0,0,0-1.22-3.78,9.84,9.84,0,0,0-3-2.32,34.86,34.86,0,0,0-3.91-1.72,20.22,20.22,0,0,1-3.9-1.93,10.71,10.71,0,0,1-3-3,8.53,8.53,0,0,1-1.22-4.85,10,10,0,0,1,.77-4,8.8,8.8,0,0,1,2.25-3.08,10.53,10.53,0,0,1,3.54-2,13.94,13.94,0,0,1,4.66-.73,13.51,13.51,0,0,1,4.28.6,10.8,10.8,0,0,1,3.37,1.82,12.73,12.73,0,0,0-.78,1.87c-.21.66-.41,1.49-.62,2.48h-.68a13.09,13.09,0,0,0-.7-1.58,6.13,6.13,0,0,0-1.19-1.58A7.18,7.18,0,0,0,192.6,244a5.6,5.6,0,0,0-2.49-.49,7.29,7.29,0,0,0-2.65.46,6.66,6.66,0,0,0-2.12,1.31,5.94,5.94,0,0,0-1.4,2.06,6.71,6.71,0,0,0-.48,2.58,5.65,5.65,0,0,0,1.21,3.83,10.7,10.7,0,0,0,3,2.35,29.43,29.43,0,0,0,3.91,1.7,21.7,21.7,0,0,1,3.9,1.84,10,10,0,0,1,3,2.79A7.69,7.69,0,0,1,199.7,267a11.77,11.77,0,0,1-.86,4.5,10.76,10.76,0,0,1-2.48,3.7,10.91,10.91,0,0,1-4,2.43,15.7,15.7,0,0,1-5.35.86,13.38,13.38,0,0,1-5.2-.86,14.39,14.39,0,0,1-3.33-1.93,14.78,14.78,0,0,0,.65-2.15q.18-1,.33-2.46h.71a10,10,0,0,0,1.11,1.9M153.1,248.91q-.14-3.32-.28-6.61l4.63.18c1.53,0,3.08.07,4.63.07s3.08,0,4.61-.07l4.6-.18a8.08,8.08,0,0,0,0,3.1l-3-.21-2.91-.2c-1-.07-2.12-.13-3.33-.19s-2.65-.07-4.34-.07c0,1.11-.07,2.15-.13,3.15s-.08,2.14-.08,3.41v6.83c1.52,0,2.88,0,4.09-.06s2.31-.07,3.3-.12l2.77-.15c.84-.06,1.65-.11,2.4-.19a8.58,8.58,0,0,0-.15,1.6,8.06,8.06,0,0,0,.15,1.55c-.89-.1-1.93-.18-3.12-.25s-2.38-.11-3.57-.14H157.5V272.7c0,1.27,0,2.25.07,2.9h3.6c1.32,0,2.6,0,3.86-.08s2.45-.11,3.57-.2a23.65,23.65,0,0,0,2.91-.39,3.6,3.6,0,0,0-.12.8v.8a5.06,5.06,0,0,0,.15,1.34c-1.55-.07-3.09-.1-4.63-.09h-9.39c-1.55,0-3.12,0-4.71.09.1-2.19.2-4.4.28-6.58s.14-4.43.14-6.7v-8.9q0-3.41-.14-6.72" fill="#fff"/><path d="M129.89,263.86H2.33a2,2,0,0,1,0-3.91H129.89a2,2,0,1,1,.84,3.91A2,2,0,0,1,129.89,263.86Z" fill="#fff"/><path d="M507.47,263.92H379.91a2,2,0,0,1,0-4H507.47a2,2,0,0,1,0,4Z" fill="#fff"/><path d="M507.89,4H2A2,2,0,0,1,2,0H507.9a2,2,0,0,1,0,4Z" fill="#fff"/><path d="M40.76,91.51q0,6.76.3,10.28t.53,6l-5.11-.48q-2.5-.24-3.57-.24a28.78,28.78,0,0,0-3.21.18l-4.87.54q.36-6.76.77-13.61T26,80.57L25.9,47.41q0-3.33-.06-6.54t-.18-6.66H19.72l-2.5.06-4.93.12q-2.79.06-5.82.24c-2,.12-3.79.25-5.3.4a16.63,16.63,0,0,0,0-8.8q3.57.24,7.67.36l8.32.24c2.81.08,5.57.12,8.26.12h7.49q7.49,0,15.33-.12t16.4-.59a31.25,31.25,0,0,0-.6,4.52,10.11,10.11,0,0,0,.18,1.9c.12.64.26,1.43.42,2.38q-5.36-.59-11.41-.71T41,34.21q-.12,3.21-.18,6.54t-.06,6.78v44Z" fill="#fff"/><path d="M131.09,67.73q-4.86-.24-9.6-.36t-9.6-.12q-5.1,0-10.13.12t-10.13.36V79.62q0,5.72.06,9.81t.24,7.25q.18,3.15.36,5.71c.12,1.71.26,3.51.42,5.41q-1.3-.12-3.51-.42a37.09,37.09,0,0,0-8.92-.06l-4.22.48q.7-13.67.89-27t.18-27q0-7-.3-13.79t-.89-13.67c1.19.16,2.67.32,4.46.48s3.15.24,4.1.24c.55,0,1.23,0,2-.06s1.58-.1,2.38-.18l2.2-.24c.67-.08,1.2-.16,1.6-.24-.16,1.67-.3,3.31-.42,4.93s-.24,3.66-.36,6.12-.2,5.49-.24,9.09-.06,8.18-.06,13.73q4.5.24,9,.36t9,.12c3.63,0,7.23,0,10.78-.12s7.15-.2,10.79-.36V56q0-2.91-.06-6.18t-.12-6.18c0-1.94-.06-3.27-.06-4V37.23a17.55,17.55,0,0,0-.12-2.38c-.12-.92-.16-2-.24-3.33s-.16-3.07-.24-5.29c1.12.16,2.52.32,4.19.48s3.19.24,4.55.24c1.12,0,2.52-.08,4.19-.24s3.07-.32,4.18-.48q-.6,4.64-.89,11.83T146,53q-.18,7.72-.24,14.92c0,4.79-.06,8.74-.06,11.83q0,7.13.12,14.38a106,106,0,0,0,1.07,13.67l-4.36-.48a42.6,42.6,0,0,0-4.37-.32,39.51,39.51,0,0,0-4.07.24l-4.07.48q0-.82.18-3.57t.36-6.06q.18-3.33.3-6.48c.08-2.1.12-3.7.12-4.81Z" fill="#fff"/><path d="M182.17,61.55h5.65q3.39,0,7.07-.12t7.13-.3q3.45-.18,5.82-.42c-.16.63-.3,1.29-.42,2a12.89,12.89,0,0,0-.18,2.32,10.65,10.65,0,0,0,.59,4c-1.59-.16-3.13-.28-4.64-.36l-4.52-.24c-2.77-.08-5.53-.14-8.26-.18s-5.49-.06-8.26-.06V100.4c.79,0,2.24,0,4.34-.06s4.52-.1,7.25-.18l8.56-.24c3-.08,5.73-.2,8.26-.36a9.87,9.87,0,0,0-.59,3.92,12.66,12.66,0,0,0,.59,4.28q-10.69-.7-21.87-.71-10.84,0-22.35.71.24-3.8.36-7.43t.24-7.43q.12-2.61.18-6.36t.12-7.61q.06-3.86.12-7.37c0-2.34.06-4.18.06-5.53s0-3.49-.06-6.66-.1-6.72-.18-10.64-.18-7.9-.3-11.95-.3-7.57-.53-10.58l4.9.24,5.69.24c2,.08,3.89.14,5.8.18s3.65.06,5.24.06q4.16,0,9.81-.24l12.06-.48c-.16.71-.3,1.35-.42,1.9a8.68,8.68,0,0,0-.18,1.9,12.86,12.86,0,0,0,.59,4.4l-11.17-.59q-1.66-.12-2.91-.18t-2.91-.06H182.17v28Z" fill="#fff"/><path d="M323.53,42.89h-1.19c-.39-.71-1-1.71-1.78-3a13.71,13.71,0,0,0-3.68-3.68,25,25,0,0,0-6.66-3.15,34.69,34.69,0,0,0-10.58-1.37q-15,0-22.7,9.27t-7.77,26.3c0,1,0,2.46.12,4.28a42,42,0,0,0,.77,6.12,40.1,40.1,0,0,0,2.14,7.13,30.44,30.44,0,0,0,4.22,7.31,27,27,0,0,0,3.63,4,27.85,27.85,0,0,0,4.7,3.45,24,24,0,0,0,5.88,2.44,27.72,27.72,0,0,0,7.31.89,34.11,34.11,0,0,0,9.69-1.25,32.1,32.1,0,0,0,13.25-7.55,61.43,61.43,0,0,0,4.52-4.75l1.31.83-1.31,11.77a61.07,61.07,0,0,1-30.07,7.49,49.71,49.71,0,0,1-16.4-2.67,39.08,39.08,0,0,1-13.49-7.84A37,37,0,0,1,256.29,86,43.74,43.74,0,0,1,252.9,68.3a49.51,49.51,0,0,1,2.79-16.76,37.06,37.06,0,0,1,8.5-13.67,40.29,40.29,0,0,1,14.44-9.21,57.06,57.06,0,0,1,20.62-3.39,69.3,69.3,0,0,1,14,1.37A66.24,66.24,0,0,1,327,31.22Z" fill="#fff"/><path d="M342.07,53.71q0-5.72-.12-12.24t-1.07-15.21c1.11.16,2.57.32,4.4.48s3.16.24,4,.24a36.13,36.13,0,0,0,4.16-.24l4.28-.48q-.47,3.33-.77,8.5c-.2,3.45-.34,7.11-.42,11s-.12,7.75-.12,11.59V67.63q0,13.31.24,23.12t1,17.06c-1.33-.08-2.72-.22-4.16-.42a29,29,0,0,0-4.16-.3,34.07,34.07,0,0,0-4.28.3c-1.51.2-2.93.34-4.28.42q.94-10.69,1.13-24.72T342.07,53.71Z" fill="#fff"/><path d="M408.51,91.51q0,6.76.3,10.28t.53,6l-5.11-.48q-2.5-.24-3.57-.24a28.78,28.78,0,0,0-3.21.18l-4.87.54q.36-6.76.77-13.61t.42-13.61l-.12-33.16q0-3.33-.06-6.54t-.18-6.66h-5.94l-2.5.06-4.93.12q-2.79.06-5.82.24c-2,.12-3.78.26-5.29.42a16.63,16.63,0,0,0,0-8.8q3.57.24,7.67.36l8.32.24c2.81.08,5.57.12,8.26.12h7.49q7.49,0,15.33-.12t16.4-.59a31.24,31.24,0,0,0-.59,4.52,10.11,10.11,0,0,0,.18,1.9c.12.64.26,1.43.42,2.38q-5.36-.59-11.41-.71t-12.24-.12q-.12,3.21-.18,6.54t-.06,6.78v44Z" fill="#fff"/><path d="M480.9,80.33q0,3.81.06,7t.18,6.36q.12,3.21.24,6.6t.36,7.55l-4.13-.48a35.62,35.62,0,0,0-4.13-.24,39.51,39.51,0,0,0-4.07.24c-1.51.16-2.85.32-4,.48q.12-3.45.24-7.9l.24-8.92c.08-3,.14-5.83.18-8.56s.06-5,.06-6.83l-7-12.12q-2.26-3.91-5.17-8.79T448,44.85q-3-5-6-9.81t-5.23-8.74q3.33.36,5.53.54c1.47.12,2.87.18,4.22.18s3,0,4.63-.12a38.26,38.26,0,0,0,5.11-.59q2.27,4.88,4.4,9.27t4.52,9q2.39,4.64,5.26,9.92t6.71,11.93q3.82-6.53,6.33-11t4.58-8.56q2.09-4.09,4.28-8.85t5.41-11.77q1.43.24,3.15.48a26,26,0,0,0,3.74.24,20.22,20.22,0,0,0,2.91-.18,10.6,10.6,0,0,0,2.08-.54l-2.44,4c-1.15,1.9-2.37,3.9-3.68,6l-3.68,5.94q-1.73,2.79-2.44,3.86-4,6.42-7.61,13t-7.37,13c-.4.71-.76,1.38-1.07,2a4.1,4.1,0,0,0-.47,1.78v4.5Z" fill="#fff"/><path d="M2.33,144.22V140a26.83,26.83,0,0,0-.16-2.72q0-1.61-.12-4.17V131q0-1.45-.12-3t-.12-3c0-.93,0-1.6,0-2a20.51,20.51,0,0,0,2.69.39c.81,0,1.7.08,2.69.08s1.9,0,2.73-.12,1.74-.2,2.73-.35q-.22,4.45-.35,8.56l-.23,8.2q-.12,4.1-.16,8.24t0,8.67q0,4.14.08,7.85c0,2.47.11,4.81.16,7h4.52c1.51,0,3.17,0,5-.09s3.66-.15,5.5-.26,3.3-.26,4.45-.43c-.1.42-.19.82-.27,1.21a10.16,10.16,0,0,0-.12,1.91,8.92,8.92,0,0,0,.08,1.37,9.32,9.32,0,0,0,.31,1.29l-3.39-.16-3.94-.16c-1.33,0-2.67-.09-4-.12s-2.52,0-3.55,0c-2.49,0-4.89,0-7.18.12s-4.87.2-7.72.35v-1.87q0-1.56.12-3.78c0-1.48.09-3.07.12-4.76s.07-3.29.12-4.8.09-2.82.12-3.94,0-1.83,0-2.14v-11Z" fill="#fff"/><path d="M69.8,167.78l-3.28-8.27c-1.67-.11-3.33-.18-5-.23s-3.33-.07-5-.08-3.12,0-4.68.08-3.12.13-4.68.23q-1.87,4.52-3.59,9c-1.15,3-2,5.61-2.65,7.88-.52-.11-1.12-.21-1.79-.31a12.17,12.17,0,0,0-2-.16,10.2,10.2,0,0,0-1.83.16l-1.68.31,9-20.12q3-6.63,5.3-11.89T52.17,135q1.76-4.12,3-7.29a55.71,55.71,0,0,0,1.91-5.58c.41.11.83.2,1.25.27a7.39,7.39,0,0,0,1.33.12,9.59,9.59,0,0,0,2.5-.39c.93,2.67,1.91,5.33,2.92,8s2,5.21,3,7.64l2.85,6.9c.89,2.15,1.69,4,2.42,5.66s1.58,3.68,2.57,5.89,2,4.5,3,6.86S81,167.83,82,170.17s2,4.45,2.89,6.32l-2.65-.27a32.7,32.7,0,0,0-3.43-.19,25.65,25.65,0,0,0-3.16.19q-1.51.19-2.61.27ZM56.93,135.49l-8,19.19c1.33,0,2.69.12,4.06.19s2.73.11,4.06.12,2.39,0,3.59-.08,2.4-.13,3.59-.23Z" fill="#fff"/><path d="M109.35,162.55l2-5.07c.11-.36.42-1.24.94-2.65s1.13-3.12,1.83-5.15l2.34-6.71c.86-2.47,1.68-4.92,2.46-7.33s1.51-4.78,2.18-7,1.22-4.12,1.64-5.69l1.56.31a9.77,9.77,0,0,0,1.87.16,9,9,0,0,0,1.87-.16c.47-.1,1-.21,1.56-.31,0,0,.13.47.39,1.25s.57,1.79.94,3,.78,2.63,1.25,4.13l1.37,4.41c.44,1.43.86,2.75,1.25,3.94l.9,2.73q1.73,5.15,3.51,10.22t3.67,10.14q.85-2.18,1.44-3.78c.39-1.07.79-2.2,1.21-3.39l1.48-4.29c.57-1.66,1.33-3.87,2.26-6.63q.85-2.49,1.56-4.8t1.44-4.8c.49-1.67,1-3.47,1.56-5.42s1.18-4.2,1.91-6.75a15.85,15.85,0,0,0,1.56.31,12.17,12.17,0,0,0,2,.16,13.87,13.87,0,0,0,3.51-.47q-1.78,4.36-3.2,8l-2.77,7.21q-1.36,3.56-2.69,7.29t-3,8.27q-1.1,3.12-1.87,5.38c-.52,1.51-1,2.84-1.4,4s-.78,2.22-1.09,3.16-.62,1.9-.94,2.89-.66,2-1,3.2-.82,2.5-1.29,4.06l-1.56-.31a7.44,7.44,0,0,0-1.56-.16,9.39,9.39,0,0,0-1.83.19c-.67.13-1.17.22-1.52.27q-1.09-3.51-1.75-5.66c-.44-1.43-.81-2.59-1.12-3.47s-.55-1.74-.78-2.42l-.82-2.34c-.26-.67-.66-1.81-1.21-3.43s-1.12-3.34-1.72-5.15-1.17-3.52-1.72-5.11-.92-2.69-1.13-3.31c-.42-1.25-1-2.74-1.6-4.49s-1.18-3.24-1.6-4.48L121.25,143l-2.42,6.75c-.63,1.74-1.17,3.31-1.64,4.72s-1,2.82-1.44,4.25l-1.91,5.5c-.57,1.61-1.2,3.55-1.87,5.81s-1.34,4.4-2,6.43c-.67-.15-1.23-.27-1.68-.35A7,7,0,0,0,107,176a8.17,8.17,0,0,0-1.48.16l-1.72.31-2-5.93q-1.1-3.19-2.07-6.2t-2-6.08l-2.18-6.36-2.46-7.1q-1.56-4.45-3.59-10t-4.33-11.83c.78.11,1.75.21,2.92.31s2.22.15,3.16.16a34.5,34.5,0,0,0,5.46-.47q.95,3.43,2.26,7.84t2.85,9.17q1.52,4.76,3.08,9.48c1,3.15,2,6.07,3,8.78Z" fill="#fff"/><path d="M189.38,164.73a22,22,0,0,0,2.73,4.72,11.51,11.51,0,0,0,2.92,2.69,9.29,9.29,0,0,0,3.12,1.25,17.61,17.61,0,0,0,3.32.31,11.39,11.39,0,0,0,4.21-.74,9.6,9.6,0,0,0,3.2-2,9,9,0,0,0,2.07-3.08,10.2,10.2,0,0,0,.74-3.9,8.9,8.9,0,0,0-.78-3.94,9.88,9.88,0,0,0-1.83-2.65,8.61,8.61,0,0,0-2.14-1.6c-.73-.36-1.27-.62-1.64-.78-1.09-.47-2.43-1-4-1.64s-2.91-1.17-4-1.64a25.15,25.15,0,0,1-4.72-2.65,12.72,12.72,0,0,1-3-3.08,11,11,0,0,1-1.6-3.67,19.28,19.28,0,0,1-.47-4.41,18.29,18.29,0,0,1,.86-5.34,13.11,13.11,0,0,1,2.93-5,15.63,15.63,0,0,1,5.58-3.74,22.82,22.82,0,0,1,8.81-1.48,23.55,23.55,0,0,1,7.18.94,53.9,53.9,0,0,1,5.77,2.26c-.42.93-.75,1.71-1,2.34s-.44,1.19-.58,1.68-.3,1-.43,1.52-.27,1.14-.43,1.87h-1.09a8,8,0,0,0-3.67-5.07,12.36,12.36,0,0,0-6.55-1.72q-4.6,0-6.9,2.5a8.47,8.47,0,0,0-2.3,5.93,7.63,7.63,0,0,0,.74,3.55,7.72,7.72,0,0,0,2.11,2.54,14.27,14.27,0,0,0,3.39,2c1.33.57,2.87,1.2,4.6,1.87,1.51.57,2.79,1.08,3.86,1.52s2,.87,2.85,1.29a15,15,0,0,1,2.14,1.29,12.63,12.63,0,0,1,1.75,1.6,12.37,12.37,0,0,1,2,2.77,15.24,15.24,0,0,1,1.13,2.85,18.33,18.33,0,0,1,.55,2.65,16.68,16.68,0,0,1,.16,2,17.54,17.54,0,0,1-1.09,6,15.25,15.25,0,0,1-3.47,5.5,17.93,17.93,0,0,1-6.12,4,23.89,23.89,0,0,1-9.13,1.56,25,25,0,0,1-4.72-.43,31.42,31.42,0,0,1-4.06-1,35,35,0,0,1-3.32-1.29c-1-.45-1.83-.85-2.5-1.21.31-1,.57-1.83.78-2.54a17.08,17.08,0,0,0,.47-2c.1-.62.2-1.26.27-1.91s.17-1.44.27-2.38h1.09Z" fill="#fff"/><path d="M275.1,133.85h-.78c-.26-.47-.65-1.13-1.17-2a8.71,8.71,0,0,0-2.42-2.42,16.52,16.52,0,0,0-4.37-2.07,22.59,22.59,0,0,0-6.94-.9q-9.83,0-14.9,6.08t-5.07,17.24c0,.67,0,1.6.08,2.81a27,27,0,0,0,.51,4,26.25,26.25,0,0,0,1.4,4.68,20.13,20.13,0,0,0,2.77,4.8,17.61,17.61,0,0,0,2.38,2.65,18.22,18.22,0,0,0,3.08,2.31,15.9,15.9,0,0,0,3.86,1.6,18.08,18.08,0,0,0,4.8.58,22.4,22.4,0,0,0,6.36-.82,20.92,20.92,0,0,0,4.91-2.11,21.41,21.41,0,0,0,3.78-2.85,42.05,42.05,0,0,0,3-3.12l.86.55-.86,7.72a40.11,40.11,0,0,1-19.73,4.91,32.79,32.79,0,0,1-10.76-1.75,25.57,25.57,0,0,1-8.85-5.15,24.21,24.21,0,0,1-6-8.46,28.59,28.59,0,0,1-2.22-11.62,32.44,32.44,0,0,1,1.83-11,24.35,24.35,0,0,1,5.58-9,26.38,26.38,0,0,1,9.48-6,37.19,37.19,0,0,1,13.46-2.21,45.84,45.84,0,0,1,9.2.9,43.25,43.25,0,0,1,9,3Z" fill="#fff"/><path d="M322.17,150.15c-2.13-.11-4.23-.18-6.3-.23s-4.17-.07-6.3-.08-4.44,0-6.65.08-4.42.13-6.65.23v14.24c0,1.8.05,3.39.16,4.76s.16,2.63.23,3.74.16,2.3.27,3.55c-.57-.05-1.34-.14-2.3-.27a22.64,22.64,0,0,0-3.08-.19,23.27,23.27,0,0,0-2.77.16l-2.77.31q.47-9,.58-17.75t.12-17.75q0-4.6-.2-9c-.13-2.93-.33-5.93-.58-9,.78.11,1.76.21,2.93.31s2.07.15,2.69.16h1.33a14.38,14.38,0,0,0,1.56-.12l1.44-.16c.44,0,.79-.11,1.05-.16q-.17,1.63-.27,3.24c-.07,1.07-.15,2.4-.23,4s-.13,3.61-.16,6,0,5.39,0,9c2,.11,4,.18,5.87.23s3.87.07,5.87.08q3.58,0,7.08-.08t7.08-.23v-6.75c0-1.43,0-2.79-.08-4.06V130.2c0-.44,0-1-.08-1.56s-.11-1.33-.16-2.18-.11-2-.16-3.47c.73.11,1.65.21,2.75.31s2.1.15,3,.16c.73,0,1.65,0,2.75-.16s2-.21,2.74-.31q-.39,3-.58,7.76c-.13,3.17-.23,6.44-.31,9.79s-.13,6.64-.16,9.79,0,5.73,0,7.76q0,4.68.08,9.44a69.52,69.52,0,0,0,.7,9l-2.86-.31a27.45,27.45,0,0,0-2.87-.16,23.91,23.91,0,0,0-2.67.16l-2.67.31q0-.54.12-2.34c.08-1.2.16-2.53.23-4s.14-2.87.19-4.25.07-2.43.08-3.16Z" fill="#fff"/><path d="M372.36,122.3A37.66,37.66,0,0,1,383,123.82a26.32,26.32,0,0,1,9.24,4.8,24,24,0,0,1,6.51,8.31,27.22,27.22,0,0,1,2.46,12,31.62,31.62,0,0,1-2.11,11.82,25.49,25.49,0,0,1-5.93,9,26.32,26.32,0,0,1-9.2,5.73,33.3,33.3,0,0,1-11.86,2,36.08,36.08,0,0,1-11.39-1.75,27,27,0,0,1-9.24-5.15,23.87,23.87,0,0,1-6.2-8.39A27.37,27.37,0,0,1,343,150.85,31.48,31.48,0,0,1,345.41,138a25,25,0,0,1,6.4-8.89,25.8,25.8,0,0,1,9.32-5.19A37.16,37.16,0,0,1,372.36,122.3Zm-18.64,27.61a38.52,38.52,0,0,0,1,8.62,22.43,22.43,0,0,0,3.2,7.57,17.52,17.52,0,0,0,5.69,5.38,16.45,16.45,0,0,0,8.54,2.07,16.06,16.06,0,0,0,8.46-2.11,17.69,17.69,0,0,0,5.69-5.5,24,24,0,0,0,3.24-7.6,36.17,36.17,0,0,0,1-8.42,40.64,40.64,0,0,0-1-9,22.43,22.43,0,0,0-3.12-7.53,15.64,15.64,0,0,0-5.66-5.15,17.93,17.93,0,0,0-8.66-1.91,15.7,15.7,0,0,0-8.54,2.18,18.28,18.28,0,0,0-5.69,5.62,23.69,23.69,0,0,0-3.2,7.64A36.58,36.58,0,0,0,353.72,149.91Z" fill="#fff"/><path d="M438.82,122.3a37.66,37.66,0,0,1,10.65,1.52,26.32,26.32,0,0,1,9.24,4.8,24,24,0,0,1,6.51,8.31,27.22,27.22,0,0,1,2.46,12,31.62,31.62,0,0,1-2.11,11.82,25.49,25.49,0,0,1-5.93,9,26.32,26.32,0,0,1-9.2,5.73,33.3,33.3,0,0,1-11.86,2,35.93,35.93,0,0,1-11.41-1.76,27,27,0,0,1-9.24-5.15,23.87,23.87,0,0,1-6.2-8.39,27.37,27.37,0,0,1-2.26-11.39,31.45,31.45,0,0,1,2.4-12.81,25,25,0,0,1,6.4-8.89,25.8,25.8,0,0,1,9.32-5.19A37.16,37.16,0,0,1,438.82,122.3Zm-18.65,27.61a38.52,38.52,0,0,0,1,8.62,22.43,22.43,0,0,0,3.2,7.57,17.52,17.52,0,0,0,5.69,5.38,16.45,16.45,0,0,0,8.54,2.07,16.06,16.06,0,0,0,8.46-2.11,17.69,17.69,0,0,0,5.69-5.5,24,24,0,0,0,3.24-7.6,36.17,36.17,0,0,0,1-8.42,40.64,40.64,0,0,0-1-9,22.43,22.43,0,0,0-3.12-7.53,15.64,15.64,0,0,0-5.66-5.15,17.93,17.93,0,0,0-8.66-1.91,15.7,15.7,0,0,0-8.54,2.18,18.28,18.28,0,0,0-5.69,5.62,23.69,23.69,0,0,0-3.2,7.64A36.58,36.58,0,0,0,420.17,149.91Z" fill="#fff"/><path d="M479.06,144.22V140c0-.75,0-1.66-.08-2.73s0-2.46-.12-4.17V131q0-1.45-.12-3t-.12-3v-2a20.51,20.51,0,0,0,2.69.39c.81.05,1.7.08,2.69.08s1.9,0,2.73-.12,1.74-.2,2.73-.35q-.22,4.45-.35,8.56l-.23,8.2q-.12,4.09-.16,8.24t0,8.67q0,4.14.08,7.85c.05,2.47.11,4.81.16,7h4.52c1.51,0,3.17,0,5-.09s3.66-.15,5.5-.26,3.3-.26,4.45-.43c-.11.42-.2.82-.27,1.21a10.16,10.16,0,0,0-.12,1.91,8.92,8.92,0,0,0,.08,1.37,9.32,9.32,0,0,0,.31,1.29l-3.39-.16-3.94-.16c-1.33-.05-2.67-.09-4-.12s-2.52,0-3.55,0c-2.49,0-4.89,0-7.18.12s-4.87.2-7.72.35v-1.87c0-1,.06-2.3.12-3.78s.09-3.07.12-4.76.06-3.29.12-4.8.09-2.82.12-3.94,0-1.83,0-2.14v-11Z" fill="#fff"/><path d="M21.83,217.7a9.44,9.44,0,0,1-1.71.62c-.67.18-1.41.34-2.24.49a14.9,14.9,0,0,1-2.58.22,16.5,16.5,0,0,1-5.31-.82,11.14,11.14,0,0,1-4.2-2.49A11.74,11.74,0,0,1,3,211.63a15.66,15.66,0,0,1,0-11,11.41,11.41,0,0,1,2.8-4.09A12.08,12.08,0,0,1,10.14,194a16.75,16.75,0,0,1,5.53-.87,18.45,18.45,0,0,1,4.38.49,20.69,20.69,0,0,1,3.51,1.18,4.79,4.79,0,0,0-.47,1.38c-.12.58-.22,1.07-.29,1.46l-.22.07a7.87,7.87,0,0,0-1-1,11.51,11.51,0,0,0-1.53-1,9.58,9.58,0,0,0-2-.86,7.84,7.84,0,0,0-2.4-.35,11.16,11.16,0,0,0-4,.69,8.45,8.45,0,0,0-3.2,2.13,10,10,0,0,0-2.13,3.64,18.19,18.19,0,0,0,0,10.44A10,10,0,0,0,8.45,215a8.33,8.33,0,0,0,3.2,2.13,11.16,11.16,0,0,0,4,.69,8.27,8.27,0,0,0,2.42-.33,12.75,12.75,0,0,0,2-.78,12.29,12.29,0,0,0,1.67-1c.5-.35.92-.66,1.25-.93l.15.15L22.87,217A5,5,0,0,1,21.83,217.7Z" fill="#fff"/><path d="M27.8,198.27c-.06-1.54-.13-3.11-.2-4.71l.91.13a7.32,7.32,0,0,0,1.75,0l.91-.13c-.07,1.6-.14,3.17-.2,4.71s-.09,3.11-.09,4.71v6.26c0,1.6,0,3.18.09,4.73s.13,3.08.2,4.58c-.56-.05-1.15-.07-1.78-.07s-1.22,0-1.78.07c.07-1.51.14-3,.2-4.58s.09-3.12.09-4.73V203C27.89,201.38,27.86,199.81,27.8,198.27Z" fill="#fff"/><path d="M42.52,195.45h-2c-.67,0-1.36,0-2.07.07l-2,.13c-.67,0-1.24.11-1.73.18a4.6,4.6,0,0,0,.18-1.16,5.43,5.43,0,0,0-.18-1.13l4.69.13c1.53,0,3.09.05,4.69.05s3.16,0,4.69-.05l4.69-.13a5.09,5.09,0,0,0-.18,1.16,4.37,4.37,0,0,0,.18,1.13c-.51-.07-1.09-.13-1.73-.18l-2-.13c-.67,0-1.36-.06-2.07-.07h-2q-.1,3.75-.11,7.53v6.26c0,1.6,0,3.18.09,4.73s.13,3.08.2,4.58c-.56-.05-1.15-.07-1.78-.07s-1.22,0-1.78.07c.07-1.51.14-3,.2-4.58s.09-3.12.09-4.73V203C42.62,200.46,42.59,198,42.52,195.45Z" fill="#fff"/><path d="M62.37,206.53l-1.56-2.62-1.8-3-1.8-3-1.55-2.58-1-1.73,1,.13a9.55,9.55,0,0,0,2,0l1-.13c1.09,2.11,2.2,4.19,3.33,6.22s2.32,4.16,3.58,6.37c.56-.87,1.14-1.83,1.75-2.87s1.21-2.11,1.82-3.2,1.19-2.19,1.75-3.29,1.08-2.17,1.56-3.22a5.69,5.69,0,0,0,2.84,0q-1.76,2.65-3.13,4.8c-.92,1.43-1.73,2.72-2.44,3.89s-1.32,2.22-1.86,3.15-1,1.78-1.38,2.53v2.87c0,1,0,2,0,3s0,1.89.09,2.73.1,1.51.13,2c-.56-.05-1.15-.07-1.78-.07s-1.22,0-1.78.07a43.9,43.9,0,0,0,.25-4.58q0-2.69,0-5.64Z" fill="#fff"/><path d="M107.76,197.41a35.5,35.5,0,0,0-.18-3.86l.76.13a6,6,0,0,0,.73,0,4,4,0,0,0,1.09-.18c-.07.85-.15,1.85-.22,3s-.13,2.41-.18,3.78-.1,2.72-.15,4.15-.09,2.81-.11,4.13a13,13,0,0,1-.75,4.37,9.2,9.2,0,0,1-2,3.27,8.44,8.44,0,0,1-3.22,2,13,13,0,0,1-4.36.78q-5.46,0-7.93-2.47c-1.65-1.65-2.47-4.25-2.47-7.82q0-1.71.09-3c.06-.86.09-1.76.09-2.71,0-2,0-3.85-.07-5.42s-.1-2.91-.15-4l1,.13c.32,0,.63,0,.95,0a6.81,6.81,0,0,0,.78,0l.78-.13c0,.53-.1,1.23-.15,2.09s-.1,1.84-.15,2.93-.08,2.27-.11,3.53,0,2.57,0,3.93v2.57a17.21,17.21,0,0,0,.25,2.58,10.67,10.67,0,0,0,.71,2.4,5.84,5.84,0,0,0,1.4,2A6.55,6.55,0,0,0,96.43,217a10.16,10.16,0,0,0,3.42.49,8.61,8.61,0,0,0,3.37-.58,6.39,6.39,0,0,0,2.24-1.53,7.07,7.07,0,0,0,1.36-2.18,12.19,12.19,0,0,0,.71-2.58,20.23,20.23,0,0,0,.25-2.69v-2.47C107.79,202,107.79,199.28,107.76,197.41Z" fill="#fff"/><path d="M128.28,209.11q-4.73-5.09-9.46-10.1c0,.67,0,1.58-.07,2.73s0,2.71,0,4.66v4.26c0,.83,0,1.66,0,2.51s.06,1.64.07,2.37,0,1.36.07,1.91.07.92.07,1.11a10.81,10.81,0,0,0-1.27-.07,12.21,12.21,0,0,0-1.35.07c0-.24.1-.69.16-1.35s.11-1.44.16-2.35.1-1.91.16-3,.11-2.15.15-3.2.07-2.11.09-3.13,0-1.93,0-2.73v-6q0-2.51-.09-3.75h.58l4.75,5.15,5,5.42,4.73,5.06c1.49,1.59,2.8,2.94,3.91,4.06v-5q0-3.82-.05-7.44c0-2.41-.11-4.69-.24-6.82a5.16,5.16,0,0,0,1.24.18,5.71,5.71,0,0,0,1.16-.18c0,.53-.1,1.33-.16,2.4s-.12,2.21-.18,3.42-.11,2.4-.16,3.57-.07,2.1-.07,2.8V219h-.36Q133,214.19,128.28,209.11Z" fill="#fff"/><path d="M144.49,198.27c-.06-1.54-.13-3.11-.2-4.71l.91.13a7.32,7.32,0,0,0,1.75,0l.91-.13c-.07,1.6-.14,3.17-.2,4.71s-.09,3.11-.09,4.71v6.26c0,1.6,0,3.18.09,4.73s.13,3.08.2,4.58c-.56-.05-1.15-.07-1.78-.07s-1.22,0-1.78.07c.07-1.51.14-3,.2-4.58s.09-3.12.09-4.73V203C144.58,201.38,144.55,199.81,144.49,198.27Z" fill="#fff"/><path d="M159.43,213.39q-1.2-3-2.56-6.37l-2.8-6.84c-1-2.33-1.88-4.53-2.75-6.62l1,.13a7.91,7.91,0,0,0,1.82,0l1-.13q.8,2.4,1.77,5c.65,1.73,1.31,3.52,2,5.37s1.45,3.66,2.2,5.53,1.52,3.72,2.29,5.57c.43-1,.91-2.1,1.42-3.33s1-2.5,1.55-3.82,1-2.67,1.55-4l1.47-3.95c.47-1.26.9-2.44,1.29-3.53s.72-2,1-2.84a5.12,5.12,0,0,0,2.69,0q-2.84,6.33-5.46,12.55t-5,12.44a9.66,9.66,0,0,0-1.2-.07,8.05,8.05,0,0,0-1.2.07Q160.63,216.41,159.43,213.39Z" fill="#fff"/><path d="M178,198.21c-.06-1.55-.13-3.11-.2-4.66l3.26.13c1.08,0,2.17,0,3.26,0s2.17,0,3.24,0l3.24-.13a5.71,5.71,0,0,0,0,2.18l-2.13-.15-2-.15-2.35-.13c-.85,0-1.87-.05-3.06-.05q0,1.16-.09,2.22a20.45,20.45,0,0,0-.05,2.4v4.77H184l2.33-.09,1.95-.11,1.69-.13a6.1,6.1,0,0,0-.11,1.13,5.68,5.68,0,0,0,.11,1.09c-.63-.07-1.37-.13-2.2-.18s-1.67-.08-2.51-.09h-4.13V215c0,.9,0,1.57.05,2h2.55c.92,0,1.82,0,2.71-.05s1.72-.08,2.51-.15a17.86,17.86,0,0,0,2.06-.27,2.62,2.62,0,0,0-.09.56v.56a3.38,3.38,0,0,0,.11,1c-1.09-.05-2.18-.07-3.26-.07h-6.6c-1.09,0-2.2,0-3.31.07.07-1.55.14-3.1.2-4.64s.09-3.11.09-4.71V203Q178.1,200.54,178,198.21Z" fill="#fff"/><path d="M195.76,198.27c-.06-1.54-.13-3.11-.2-4.71l2.07.13c.67,0,1.36.05,2.07.05s1.4,0,2.07-.09,1.36-.09,2.07-.09a14.22,14.22,0,0,1,2.91.29,7.13,7.13,0,0,1,2.42,1,4.86,4.86,0,0,1,1.64,1.76,6.33,6.33,0,0,1-.18,5.73,7.4,7.4,0,0,1-1.91,2.07,9.33,9.33,0,0,1-2.42,1.27,11.92,11.92,0,0,1-2.35.6l1.2,1.53c.51.67,1.08,1.39,1.71,2.17l2,2.47,2,2.47c.63.79,1.23,1.51,1.78,2.17a18,18,0,0,0,1.35,1.49,8,8,0,0,0-1.09-.07h-2.15a7.55,7.55,0,0,0-1.06.07L208,216.29q-1.11-1.53-2.46-3.27t-2.75-3.48c-.93-1.15-1.79-2.13-2.57-2.93h-1.38v2.66c0,1.6,0,3.18.09,4.73s.13,3.08.2,4.58c-.56-.05-1.15-.07-1.78-.07s-1.22,0-1.78.07c.07-1.51.14-3,.2-4.58s.09-3.12.09-4.73V203C195.86,201.39,195.82,199.81,195.76,198.27Zm4.18,6.93h1.33a11.58,11.58,0,0,0,2.35-.25,6.78,6.78,0,0,0,2.24-.89,5.31,5.31,0,0,0,1.69-1.71,5,5,0,0,0,.67-2.71,4.66,4.66,0,0,0-.53-2.35,4.2,4.2,0,0,0-1.37-1.47,5.2,5.2,0,0,0-1.82-.75,9.65,9.65,0,0,0-1.93-.2c-.85,0-1.55,0-2.11,0s-1,.08-1.42.13l-.15,4c0,1.33-.08,2.64-.07,3.93V205a7.17,7.17,0,0,0,1.13.17Z" fill="#fff"/><path d="M217.63,215.15a6,6,0,0,0,1.2,1.22,6.1,6.1,0,0,0,3.77,1.24,5.41,5.41,0,0,0,2.17-.42,4.84,4.84,0,0,0,2.67-2.8,5.81,5.81,0,0,0,.36-2.06,3.94,3.94,0,0,0-.86-2.66,7,7,0,0,0-2.13-1.64,24.86,24.86,0,0,0-2.75-1.2,14.7,14.7,0,0,1-2.75-1.37,7.19,7.19,0,0,1-2.13-2.09,6,6,0,0,1-.86-3.42,7,7,0,0,1,.55-2.78,6.11,6.11,0,0,1,1.6-2.14,7.53,7.53,0,0,1,2.49-1.42,9.91,9.91,0,0,1,3.28-.51,9.51,9.51,0,0,1,3,.42,7.5,7.5,0,0,1,2.37,1.29,7.9,7.9,0,0,0-.55,1.31,17.64,17.64,0,0,0-.44,1.75h-.45a9.13,9.13,0,0,0-.49-1.11,4.33,4.33,0,0,0-.84-1.11,4.94,4.94,0,0,0-1.26-.86,3.92,3.92,0,0,0-1.75-.35,5.19,5.19,0,0,0-1.87.33,4.62,4.62,0,0,0-1.49.93,4.15,4.15,0,0,0-1,1.44,4.75,4.75,0,0,0-.35,1.82,4,4,0,0,0,.86,2.69,7.34,7.34,0,0,0,2.13,1.66,20.26,20.26,0,0,0,2.75,1.2,15.32,15.32,0,0,1,2.75,1.29,7,7,0,0,1,2.13,2,5.4,5.4,0,0,1,.85,3.2,8.38,8.38,0,0,1-.6,3.17,7.42,7.42,0,0,1-1.75,2.6,7.78,7.78,0,0,1-2.8,1.71,11,11,0,0,1-3.77.6,9.33,9.33,0,0,1-3.66-.6,9.86,9.86,0,0,1-2.35-1.36,8,8,0,0,0,.45-1.51c.09-.45.17-1,.24-1.73h.44A7.17,7.17,0,0,0,217.63,215.15Z" fill="#fff"/><path d="M235.31,198.27c-.06-1.54-.13-3.11-.2-4.71l.91.13a7.32,7.32,0,0,0,1.75,0l.91-.13c-.07,1.6-.14,3.17-.2,4.71s-.09,3.11-.09,4.71v6.26c0,1.6,0,3.18.09,4.73s.13,3.08.2,4.58c-.56-.05-1.15-.07-1.78-.07s-1.22,0-1.78.07c.07-1.51.14-3,.2-4.58s.09-3.12.09-4.73V203C235.41,201.38,235.38,199.81,235.31,198.27Z" fill="#fff"/><path d="M249.74,195.45h-2c-.67,0-1.36,0-2.07.07l-2,.13c-.67,0-1.24.11-1.73.18a4.6,4.6,0,0,0,.18-1.16,5.43,5.43,0,0,0-.18-1.13l4.69.13c1.53,0,3.09.05,4.69.05s3.16,0,4.69-.05l4.69-.13a5.09,5.09,0,0,0-.18,1.16,4.37,4.37,0,0,0,.18,1.13c-.51-.07-1.09-.13-1.73-.18l-2-.13c-.67,0-1.36-.06-2.07-.07h-2q-.1,3.75-.11,7.53v6.26c0,1.6,0,3.18.09,4.73s.13,3.08.2,4.58c-.56-.05-1.15-.07-1.78-.07s-1.22,0-1.78.07c.07-1.51.14-3,.2-4.58s.09-3.12.09-4.73V203C249.84,200.46,249.81,198,249.74,195.45Z" fill="#fff"/><path d="M270.06,206.53l-1.56-2.62-1.8-3-1.8-3-1.55-2.58-1.05-1.73,1,.13a9.55,9.55,0,0,0,2,0l1-.13c1.09,2.11,2.2,4.19,3.33,6.22s2.32,4.16,3.58,6.37c.56-.87,1.14-1.83,1.75-2.87s1.21-2.11,1.82-3.2,1.19-2.19,1.75-3.29,1.08-2.17,1.56-3.22a5.69,5.69,0,0,0,2.84,0q-1.76,2.65-3.13,4.8c-.92,1.43-1.73,2.72-2.44,3.89s-1.32,2.22-1.86,3.15-1,1.76-1.33,2.48v2.87c0,1,0,2,.05,3s0,1.89.09,2.73.1,1.51.13,2c-.56-.05-1.15-.07-1.78-.07s-1.22,0-1.78.07a43.9,43.9,0,0,0,.25-4.58q0-2.69,0-5.64Z" fill="#fff"/><path d="M295.5,200.6a11.41,11.41,0,0,1,2.8-4.09,12.08,12.08,0,0,1,4.31-2.55,17.82,17.82,0,0,1,11,0,12.08,12.08,0,0,1,4.31,2.55,11.53,11.53,0,0,1,2.8,4.09,15.66,15.66,0,0,1,0,11,11.24,11.24,0,0,1-7.11,6.59,19.08,19.08,0,0,1-11,0,11.24,11.24,0,0,1-7.11-6.59A15.89,15.89,0,0,1,295.5,200.6Zm21.92.29a10,10,0,0,0-2.13-3.64,8.45,8.45,0,0,0-3.2-2.13,11.74,11.74,0,0,0-7.93,0,8.45,8.45,0,0,0-3.2,2.13,10,10,0,0,0-2.13,3.64,18.19,18.19,0,0,0,0,10.44A10,10,0,0,0,301,215a8.33,8.33,0,0,0,3.2,2.13,11.74,11.74,0,0,0,7.93,0,8.45,8.45,0,0,0,3.2-2.13,10,10,0,0,0,2.13-3.64,18.19,18.19,0,0,0,0-10.44Z" fill="#fff"/><path d="M326.32,198.27c-.06-1.54-.13-3.11-.2-4.71l3.26.13c1.08,0,2.17.05,3.26.05s2.2,0,3.31-.05l3.64-.13a5.34,5.34,0,0,0,0,2.18c-.67-.07-1.46-.14-2.37-.2s-1.85-.11-2.82-.15l-2.77-.09h-2.2c0,.85,0,1.66-.05,2.44s0,1.56,0,2.33v4.59c1.6,0,3.18,0,4.75-.07s3.11-.14,4.64-.29a4.24,4.24,0,0,0,0,2.18c-.61-.07-1.29-.13-2.06-.16l-2.38-.09h-4.95v3.09c0,1.6,0,3.18.09,4.73s.13,3.08.2,4.58c-.56,0-1.15-.07-1.78-.07s-1.22,0-1.78.07c.07-1.51.14-3,.2-4.58s.09-3.12.09-4.73v-6.26C326.41,201.41,326.38,199.81,326.32,198.27Z" fill="#fff"/><path d="M353.75,198.27c-.06-1.54-.13-3.11-.2-4.71l.91.13a7.32,7.32,0,0,0,1.75,0l.91-.13c-.07,1.6-.14,3.17-.2,4.71s-.09,3.11-.09,4.71v8q0,3.42.07,6c1.72,0,3.37,0,5,0a48.28,48.28,0,0,0,5.09-.42,4,4,0,0,0-.18,1.09,3.39,3.39,0,0,0,.18,1c-1.11,0-2.23-.07-3.35-.07h-6.71c-1.08,0-2.2,0-3.37.07.07-1.51.14-3,.2-4.58s.09-3.12.09-4.73V203C353.83,201.4,353.81,199.81,353.75,198.27Z" fill="#fff"/><path d="M370.56,200.6a11.41,11.41,0,0,1,2.8-4.09,12.08,12.08,0,0,1,4.31-2.55,17.82,17.82,0,0,1,11,0,12.08,12.08,0,0,1,4.31,2.55,11.41,11.41,0,0,1,2.8,4.09,15.66,15.66,0,0,1,0,11,11.24,11.24,0,0,1-7.11,6.59,19.08,19.08,0,0,1-11,0,11.24,11.24,0,0,1-7.11-6.59A15.66,15.66,0,0,1,370.56,200.6Zm21.92.29a10,10,0,0,0-2.13-3.64,8.45,8.45,0,0,0-3.2-2.13,11.74,11.74,0,0,0-7.93,0,8.45,8.45,0,0,0-3.2,2.13,10,10,0,0,0-2.13,3.64,18.19,18.19,0,0,0,0,10.44A10,10,0,0,0,376,215a8.33,8.33,0,0,0,3.2,2.13,11.74,11.74,0,0,0,7.93,0,8.45,8.45,0,0,0,3.2-2.13,10,10,0,0,0,2.13-3.64,18.28,18.28,0,0,0,0-10.44Z" fill="#fff"/><path d="M413.05,209.11q-4.73-5.09-9.46-10.1c0,.67,0,1.58-.07,2.73s0,2.71,0,4.66v4.26c0,.83,0,1.66.05,2.51s.06,1.64.07,2.37,0,1.36.07,1.91.07.92.07,1.11a10.81,10.81,0,0,0-1.27-.07,12.21,12.21,0,0,0-1.35.07c0-.24.1-.69.16-1.35s.11-1.44.16-2.35.1-1.91.16-3,.11-2.15.15-3.2.07-2.11.09-3.13,0-1.93,0-2.73v-6q0-2.51-.09-3.75h.58l4.8,5.18,5,5.42,4.73,5.06c1.49,1.59,2.8,2.94,3.91,4.06v-5q0-3.82-.05-7.44c0-2.41-.11-4.69-.24-6.82a5.16,5.16,0,0,0,1.24.18,5.09,5.09,0,0,0,1.16-.18c-.05.53-.1,1.33-.16,2.4s-.12,2.21-.18,3.42-.11,2.4-.16,3.57-.07,2.1-.07,2.8V219h-.51Q417.78,214.19,413.05,209.11Z" fill="#fff"/><path d="M429.26,198.27c-.06-1.54-.13-3.11-.2-4.71l2.75.13c.91,0,1.82.05,2.75.05s1.84,0,2.75-.09,1.82-.09,2.75-.09a15.94,15.94,0,0,1,5.48.84,9.61,9.61,0,0,1,3.73,2.38,9.29,9.29,0,0,1,2.13,3.78,17.63,17.63,0,0,1,.67,5,13.66,13.66,0,0,1-1.26,6.13,11.74,11.74,0,0,1-3.2,4,12,12,0,0,1-4.29,2.17,17,17,0,0,1-4.49.64h-7.32c-.8,0-1.61,0-2.44.07.07-1.51.14-3,.2-4.58s.09-3.12.09-4.73V203C429.35,201.39,429.32,199.81,429.26,198.27ZM432.55,217a14.3,14.3,0,0,0,2.07.27c.87.06,1.77.09,2.69.09a17.36,17.36,0,0,0,4-.47,8.75,8.75,0,0,0,3.58-1.78,9.56,9.56,0,0,0,2.58-3.58,17.71,17.71,0,0,0,.22-11.08,8,8,0,0,0-2.15-3.22,7.63,7.63,0,0,0-3.26-1.64,18.07,18.07,0,0,0-4.15-.45c-1.09,0-2.11,0-3.06.11s-1.8.16-2.55.25c-.07,1.17-.13,2.39-.16,3.66s-.05,2.57-.05,3.88v6.26q0,3.92.24,7.7Z" fill="#fff"/><path d="M456.17,200.6a11.41,11.41,0,0,1,2.8-4.09,12.08,12.08,0,0,1,4.31-2.55,17.82,17.82,0,0,1,11,0,12.08,12.08,0,0,1,4.31,2.55,11.41,11.41,0,0,1,2.8,4.09,15.66,15.66,0,0,1,0,11,11.24,11.24,0,0,1-7.11,6.59,19.08,19.08,0,0,1-11,0,11.24,11.24,0,0,1-7.11-6.59A15.66,15.66,0,0,1,456.17,200.6Zm21.92.29a10,10,0,0,0-2.13-3.64,8.45,8.45,0,0,0-3.2-2.13,11.74,11.74,0,0,0-7.93,0,8.45,8.45,0,0,0-3.2,2.13,10,10,0,0,0-2.13,3.64,18.19,18.19,0,0,0,0,10.44,10,10,0,0,0,2.13,3.64,8.33,8.33,0,0,0,3.2,2.13,11.74,11.74,0,0,0,7.93,0A8.45,8.45,0,0,0,476,215a10,10,0,0,0,2.13-3.64,18.28,18.28,0,0,0,0-10.44Z" fill="#fff"/><path d="M498.66,209.11Q493.93,204,489.17,199c0,.67,0,1.58-.07,2.73s-.05,2.71,0,4.66v4.26c0,.83,0,1.66,0,2.51s.06,1.64.07,2.37,0,1.36.07,1.91.07.92.07,1.11a10.81,10.81,0,0,0-1.27-.07,12.21,12.21,0,0,0-1.35.07c.05-.24.1-.69.16-1.35s.11-1.44.16-2.35.1-1.91.16-3,.11-2.15.15-3.2.07-2.11.09-3.13,0-1.93,0-2.73v-6q0-2.5-.09-3.75H488l4.75,5.15,5,5.42,4.73,5.06c1.49,1.59,2.8,2.94,3.91,4.06v-4.95q0-3.83,0-7.44t-.12-6.81a5.16,5.16,0,0,0,1.24.18,5.09,5.09,0,0,0,1.16-.18c-.05.53-.1,1.33-.16,2.4s-.14,2.21-.24,3.42-.11,2.4-.16,3.57-.07,2.1-.07,2.8V219h-.51Q503.4,214.19,498.66,209.11Z" fill="#fff"/><path d="M71.91,221.74a32.86,32.86,0,0,0,4.09-5.9,11.21,11.21,0,0,1-1.42,0,3.88,3.88,0,0,1-1.12-.2c-.27.67-.6,1.42-1,2.27s-.83,1.79-1.29,2.84l-.3.64A9.77,9.77,0,0,0,71.91,221.74Z" fill="#fff"/></svg>