<?xml version="1.0" encoding="UTF-8"?>
<svg width="410px" height="243px" viewBox="0 0 410 243" version="1.1" xmlns="http://www.w3.org/2000/svg" xmlns:xlink="http://www.w3.org/1999/xlink">
    <!-- Generator: Sketch 50 (54983) - http://www.bohemiancoding.com/sketch -->
    <title>Page 1</title>
    <desc>Created with Sketch.</desc>
    <defs>
        <polygon id="path-1" points="0.693090291 0.0966316611 165.331246 0.0966316611 165.331246 30 0.693090291 30"></polygon>
        <polygon id="path-3" points="0.000321568627 0.3936 409.919608 0.3936 409.919608 3.5936 0.000321568627 3.5936"></polygon>
    </defs>
    <g id="--Symbols" stroke="none" stroke-width="1" fill="none" fill-rule="evenodd">
        <g id="logo/main" transform="translate(-50.000000, -60.000000)">
            <g id="Page-1" transform="translate(50.000000, 60.000000)">
                <path d="M115.296653,48.9970652 L113.403593,48.9970652 C112.769619,47.8633506 111.8247,46.2853424 110.56803,44.263847 C109.011693,41.9456183 107.01955,39.9515385 104.703572,38.3936888 C101.440258,36.2060873 97.8700275,34.5159978 94.1104906,33.3782515 C89.6960355,31.9268387 84.0861331,31.2011324 77.2823944,31.2011324 C61.3968005,31.2011324 49.3561325,36.1230342 41.161196,45.9652253 C32.965454,55.8082227 28.8683886,69.7522674 28.8683886,87.7981658 C28.8683886,89.4374559 28.9304165,91.7089168 29.0536668,94.6117423 C29.2252505,97.8870971 29.6368904,101.145519 30.2861698,104.360398 C31.066755,108.241314 32.2106466,112.039178 33.7017336,115.705607 C35.388571,119.879225 37.6465487,123.798846 40.4120276,127.349163 C42.1077261,129.692388 44.0402585,131.854993 46.1798193,133.799886 C48.4708248,135.885889 50.973692,137.725958 53.6473373,139.291064 C56.5795666,140.998893 59.7276853,142.303552 63.0079155,143.169562 C66.8053135,144.158135 70.7171008,144.634682 74.6401658,144.588721 C79.8448728,144.668549 85.0350798,144.000093 90.0504808,142.605124 C97.9417221,140.353821 105.173212,136.22939 111.131921,130.583394 C113.658149,128.186951 116.056294,125.659074 118.317494,123.011052 L120.428054,124.334256 L118.349716,143.072801 C103.95682,151.023317 88.0011425,154.998576 70.4834891,154.998576 C61.6094677,155.051794 52.788613,153.613283 44.3914816,150.741905 C36.4833236,148.069693 29.1938338,143.83318 22.9555965,138.283139 C16.6770813,132.569411 11.7084027,125.563119 8.39111688,117.745649 C4.79833042,109.542748 3.00193719,100.135174 3.00193719,89.5237343 C2.93829815,80.4370842 4.44307956,71.4076843 7.4486146,62.8338667 C10.3043159,54.6728954 14.9193549,47.2392431 20.9658695,41.0626756 C27.018023,34.88127 34.6764581,29.9916217 43.9403694,26.3953435 C53.2042807,22.7990653 64.1413349,21.0009262 76.7507264,21.0009262 C84.2432168,20.9702852 91.7187904,21.7000233 99.0646692,23.1780453 C106.619993,24.783469 113.976344,27.2178107 121,30.435109 L115.296653,48.9970652 Z" id="Fill-1" fill="#1D1D1B"></path>
                <path d="M144.080631,65.7505435 C144.080631,59.6829617 144.018774,53.1752904 143.895864,46.2251071 C143.772954,39.2749239 143.208212,31.1998882 142.200833,22 C143.957721,22.2527486 146.284975,22.5054972 149.181791,22.7590534 C152.079411,23.011802 154.221898,23.13858 155.60845,23.13858 C157.815204,23.13535 160.019548,23.008572 162.211842,22.7590534 L169,22 C168.497114,25.5368656 168.086611,30.0532331 167.770902,35.5499099 C167.455192,41.0465867 167.235882,46.8896826 167.112169,53.0808125 C166.983636,59.2719424 166.922583,65.4323871 166.927403,71.5645692 L166.927403,87.9326666 C166.927403,102.085782 167.053526,114.375179 167.304969,124.80328 C167.557215,135.230573 168.049658,144.296416 168.7831,152 C166.640613,151.875644 164.440286,151.655196 162.179708,151.337847 C159.992234,151.026958 157.786284,150.86788 155.576317,150.860612 C153.306099,150.871918 151.038292,151.030996 148.788158,151.337847 C146.399851,151.655196 144.136864,151.875644 142,152 C143.007379,140.625505 143.604255,127.480962 143.791431,112.569601 C143.979411,97.6574321 144.075811,82.0516181 144.080631,65.7505435" id="Fill-3" fill="#1D1D1B"></path>
                <path d="M243.98048,126.035362 C243.98048,133.237804 244.138395,138.702811 244.455835,142.433613 C244.771664,146.163608 245.05446,149.352673 245.301805,152 L237.172433,151.241891 C234.524143,150.98838 232.644477,150.861625 231.53263,150.861625 C229.826187,150.865662 228.12055,150.959315 226.424581,151.145008 L218.665018,152 C219.046913,144.798365 219.457813,137.564436 219.897718,130.298213 C220.338428,123.03199 220.53985,115.801291 220.501982,108.605307 L220.308618,55.7306156 C220.308618,52.1951944 220.27639,48.7203249 220.212741,45.3076221 C220.148286,41.8957266 220.054021,38.3562685 219.929945,34.6908626 L210.503418,34.6908626 C210.127163,34.6908626 208.804226,34.7231569 206.532192,34.7877455 C204.260157,34.8531416 201.644094,34.9177302 198.684004,34.9815115 C195.719884,35.0461001 192.630884,35.1728554 189.418614,35.3609698 C186.207149,35.5498916 183.400944,35.7703004 181,36.0230035 C182.260899,31.4339798 182.260899,26.5890237 181,22 C184.759331,22.2527031 188.825629,22.4408175 193.198087,22.5643433 L206.434704,22.944609 C210.909484,23.0737863 215.292416,23.1351455 219.584306,23.1303014 L231.500403,23.1303014 C239.443662,23.1303014 247.576257,23.0681348 255.895771,22.944609 C264.216091,22.8202759 272.917501,22.5054062 282,22 C281.51256,24.3744403 281.197537,26.7803675 281.058153,29.2016346 C281.057347,30.2197132 281.151613,31.2361771 281.339337,32.2364938 C281.525451,33.2456915 281.74218,34.5140511 282,36.0230035 C276.32797,35.3932641 270.275656,35.0138058 263.839836,34.8854359 C257.405627,34.7554512 250.911797,34.694092 244.359153,34.6997435 C244.230243,38.111639 244.135977,41.5857011 244.076357,45.1219297 C244.017542,48.6589657 243.985314,52.259783 243.98048,55.925189 L243.98048,126.052317 L243.98048,126.035362 Z" id="Fill-5" fill="#1D1D1B"></path>
                <path d="M361.228989,108.249612 C361.228989,112.296119 361.261244,115.990686 361.325756,119.332505 C361.389461,122.674325 361.48381,126.054083 361.607994,129.470972 C361.731373,132.883018 361.857171,136.380627 361.986194,139.964607 C362.116024,143.548587 362.303914,147.560385 362.551477,152 L355.970483,151.241229 C353.786764,150.990997 351.589336,150.865073 349.390295,150.861844 C347.2348,150.878795 345.08253,151.005526 342.939131,151.241229 C340.525589,151.493884 338.429767,151.747346 336.650052,152 C336.773431,148.34095 336.900035,144.140267 337.028252,139.399565 C337.157275,134.658864 337.284685,129.920584 337.408064,125.184725 C337.531442,120.448867 337.624984,115.901894 337.690302,111.542999 C337.754814,107.184104 337.78707,103.551692 337.78707,100.645762 L326.618491,81.3213288 C324.220271,77.1505123 321.476107,72.4776156 318.384387,67.3002173 C315.293472,62.1236262 312.126757,56.8792301 308.885853,51.5678361 C305.660271,46.2620925 302.475009,41.0499845 299.32926,35.9323192 C296.185123,30.8146538 293.407897,26.1732381 291,22.008072 C294.532013,22.3842285 297.467292,22.6699783 299.805839,22.8637069 C302.14358,23.0574356 304.383747,23.1518783 306.523114,23.1462279 C308.791505,23.1462279 311.251011,23.0840733 313.901634,22.9605713 C316.631283,22.8273828 319.349642,22.5117665 322.037358,22.0161441 C324.435579,27.1983856 326.771707,32.1247439 329.045742,36.7960261 C331.318971,41.4673083 333.720417,46.2669357 336.246854,51.1965228 C338.773292,56.1204595 341.56342,61.3939149 344.616434,67.0176964 C347.67106,72.6414778 351.234522,78.9885129 355.310045,86.0596088 C359.40089,79.1233157 362.760334,73.2759391 365.38999,68.5190934 C368.018839,63.7622477 370.438026,59.2144676 372.64755,54.8773673 C374.851429,50.5184725 377.123045,45.8124806 379.460786,40.7593915 C381.800139,35.7063024 384.670101,29.4529028 388.073896,22 C389.58992,22.2526545 391.261578,22.5061161 393.089677,22.7587706 C395.064539,23.0219187 397.056336,23.1486495 399.048133,23.1381559 C400.598832,23.1607575 402.148724,23.067122 403.684908,22.8556349 C404.816281,22.6828935 405.926688,22.3963365 407,22 L403.120431,28.4576219 C401.293139,31.4870537 399.336017,34.6763117 397.250678,38.0229742 C395.164532,41.3696368 393.221119,44.5395219 391.419632,47.5318224 C389.592339,50.5023285 388.298881,52.555045 387.541675,53.6907793 C383.240361,60.514064 379.208384,67.4317914 375.445742,74.4439615 C371.682294,81.4561316 367.763212,88.3601366 363.688495,95.1567836 C363.053862,96.2925179 362.486966,97.3685191 361.986194,98.3855945 C361.516065,99.2606023 361.256406,100.233282 361.228989,101.226948 L361.228989,108.24154 L361.228989,108.249612 Z" id="Fill-7" fill="#1D1D1B"></path>
                <path d="M19.7567141,174.641681 C19.7630332,173.428586 19.7077409,172.215491 19.5908373,171.007986 L20.3017378,171.128577 C20.5260664,171.164515 20.7535545,171.182883 20.9810427,171.183681 C21.3262243,171.176494 21.6698262,171.120591 22,171.015972 C21.9312796,171.814587 21.8633491,172.767333 21.7946288,173.875011 C21.7259084,174.982689 21.6706161,176.170229 21.628752,177.436831 C21.5813586,178.704232 21.5363349,180.005973 21.4944708,181.342853 C21.4518167,182.678136 21.4178515,183.975086 21.3917852,185.231306 C21.3909953,186.632874 21.1556082,188.023261 20.6966825,189.344169 C20.2922591,190.494972 19.6516588,191.54515 18.8167457,192.427619 C17.9739336,193.290122 16.9470774,193.945784 15.8151659,194.343494 C14.5015798,194.799503 13.1200632,195.021518 11.7314376,194.998358 C8.33965245,194.998358 5.87519747,194.221306 4.33728278,192.666404 C2.80015798,191.111502 2.03159558,188.654965 2.03159558,185.295195 C2.03159558,184.230642 2.0600316,183.277097 2.11848341,182.436156 C2.17614534,181.595215 2.20537125,180.743892 2.20537125,179.881389 C2.20537125,177.958326 2.18167457,176.25568 2.1342812,174.769459 C2.08688784,173.284037 2.04186414,172.027817 2,171 C2.27330174,171.047917 2.56872038,171.087848 2.88467615,171.119792 C3.17851501,171.154931 3.47314376,171.173299 3.76935229,171.175695 C4.01263823,171.174897 4.25513428,171.156528 4.49605055,171.119792 L5.22274882,171 C5.17535545,171.499933 5.13033175,172.158789 5.08846761,172.972577 C5.04581359,173.787962 5.00157978,174.708765 4.95418641,175.735782 C4.90679305,176.763599 4.87203791,177.871277 4.85150079,179.058018 C4.83017378,180.245557 4.83017378,181.480215 4.85150079,182.763588 L4.85150079,185.159431 C4.87361769,185.962836 4.95260664,186.763847 5.08846761,187.555273 C5.22195893,188.332325 5.44391785,189.091008 5.75197472,189.815352 C6.0521327,190.528514 6.49605055,191.169801 7.05529226,191.700081 C7.671406,192.268695 8.39731438,192.700745 9.18799368,192.969878 C10.2077409,193.301303 11.2756714,193.45863 12.3475513,193.433074 C13.4265403,193.466616 14.5015798,193.27974 15.507109,192.88203 C16.2954186,192.55939 17.0063191,192.068242 17.5924171,191.444525 C18.1390205,190.843168 18.5703002,190.144381 18.864139,189.3841 C19.1690363,188.61184 19.3917852,187.808434 19.5276461,186.988257 C19.6619273,186.148115 19.7417062,185.299987 19.764613,184.448664 L19.764613,182.11671 C19.7804107,178.895899 19.7772512,176.404223 19.7567141,174.641681" id="Fill-9" fill="#1D1D1B"></path>
                <path d="M40.479126,186.420301 C37.4311354,183.153288 34.3831448,179.909961 31.3351541,176.69277 C31.3351541,177.346173 31.3105735,178.222549 31.2614124,179.322716 C31.2122513,180.422065 31.2122513,181.916724 31.2614124,183.806691 L31.2614124,185.627234 L31.2614124,187.905975 C31.2614124,188.699043 31.2614124,189.539482 31.3105735,190.356235 C31.3597347,191.172988 31.3597347,191.933386 31.3843153,192.634977 C31.4088958,193.338201 31.4334764,193.950766 31.458057,194.472671 C31.4826375,194.99621 31.5072181,195.354765 31.5317987,195.543435 C31.1245806,195.492796 30.7140851,195.468294 30.3027702,195.469927 C29.8676941,195.468294 29.432618,195.492796 29,195.543435 C29.0491611,195.306576 29.0983223,194.873697 29.1556769,194.244797 C29.2130316,193.615897 29.2703863,192.856317 29.3113539,191.982391 C29.3523215,191.108465 29.4096762,190.152047 29.4670308,189.123754 C29.5243855,188.094645 29.5735466,187.065536 29.6063207,186.03561 C29.6390948,185.007318 29.6718689,184.002712 29.6964495,183.022608 C29.72103,182.042504 29.6964495,181.16041 29.6964495,180.392662 L29.6964495,174.610049 C29.6964495,172.997778 29.6661334,171.794701 29.6063207,171 L30.1716738,171 L34.7600468,175.956875 C36.3987515,177.721879 38.0153336,179.464014 39.6106126,181.184913 L44.1825985,186.085432 C45.6246586,187.615211 46.8840031,188.919566 47.9598127,189.99768 L47.9598127,185.227841 C47.9598127,182.771864 47.9434257,180.381228 47.9106516,178.056748 C47.8778775,175.731452 47.8016777,173.553171 47.6812329,171.522722 C48.072064,171.627266 48.4735466,171.684439 48.8774873,171.69424 C49.2568474,171.680355 49.6337495,171.623183 50,171.522722 C49.9508389,172.034826 49.8992197,172.805025 49.8443231,173.834134 C49.7894265,174.863243 49.7320718,175.951975 49.6722591,177.101147 C49.611627,178.271554 49.5600078,179.418276 49.5165821,180.539678 C49.4731565,181.66108 49.4485759,182.561959 49.4428404,183.242314 L49.4428404,185.349538 L49.4428404,187.799797 L49.4428404,190.414225 L49.4428404,192.864484 L49.4428404,194.841027 L49.4428404,196 L48.951229,196 C46.3514241,192.880819 43.5271167,189.687314 40.479126,186.420301" id="Fill-11" fill="#1D1D1B"></path>
                <path d="M56.1714286,175.52477 C56.1192857,174.044454 56.0621429,172.535655 56,171 L56.7642857,171.122885 C57.2528571,171.193686 57.7471429,171.193686 58.2357143,171.122885 L59,171 C58.9378571,172.535655 58.8807143,174.044454 58.8285714,175.52477 C58.7757143,177.0059 58.75,178.514699 58.75,180.050354 L58.75,186.055441 C58.75,187.591096 58.7757143,189.104778 58.8285714,190.597301 C58.8807143,192.08901 58.9378571,193.556305 59,195 C58.5235714,194.950358 58.0235714,194.926757 57.5,194.926757 C56.9757143,194.926757 56.4764286,194.950358 56,195 C56.0621429,193.556305 56.1192857,192.08901 56.1714286,190.597301 C56.2235714,189.104778 56.25,187.591096 56.25,186.055441 L56.25,180.050354 C56.25,178.530162 56.2235714,177.02299 56.1714286,175.52477" id="Fill-13" fill="#1D1D1B"></path>
                <path d="M70.7356406,190.035774 C69.9685567,188.103794 69.158542,186.066834 68.3055965,183.923265 C67.4518409,181.780509 66.5583947,179.591367 65.6244477,177.356651 C64.706701,175.121122 63.8318851,173.001967 63,171 L63.9396171,171.122885 C64.5179676,171.193686 65.1027982,171.193686 65.6811487,171.122885 L66.6207658,171 C67.1278351,172.535655 67.6899853,174.149435 68.3055965,175.842969 C68.9212077,177.535689 69.5692194,179.252823 70.2496318,180.994371 C70.9357143,182.740802 71.637187,184.512461 72.3556701,186.308535 C73.0733432,188.103794 73.8031664,189.886033 74.5427099,191.654437 C74.9582474,190.699841 75.4094256,189.633753 75.8954345,188.456987 C76.3814433,187.279407 76.8723122,186.055441 77.3696613,184.786715 C77.8662003,183.516361 78.3578792,182.222407 78.8438881,180.904039 L80.2533137,177.112509 C80.7069219,175.902377 81.1167894,174.773626 81.4845361,173.727069 C81.8514728,172.679699 82.1649485,171.77149 82.4241532,171 C83.2673785,171.233563 84.1567747,171.233563 85,171 C83.1904271,175.053576 81.4521355,179.07053 79.7835052,183.053304 C78.1148748,187.034451 76.5159057,191.017226 74.988218,195 C74.606701,194.950358 74.2227541,194.926757 73.8379971,194.926757 C73.4532401,194.921874 73.0684831,194.946289 72.6877761,195 C72.1531664,193.62141 71.5019146,191.966939 70.7356406,190.035774" id="Fill-15" fill="#1D1D1B"></path>
                <path d="M88.2001283,175.454361 C88.1392559,173.966329 88.0725465,172.482353 88,171 L91.2020526,171.121704 C92.2644003,171.154158 93.3309173,171.173631 94.4041052,171.177688 C95.4772931,171.183367 96.5388069,171.164706 97.5894804,171.121704 L100.774856,171 C100.63143,171.690467 100.63143,172.402028 100.774856,173.093306 L98.6818473,172.955375 L96.6805645,172.817444 C95.9742784,172.773631 95.2046183,172.733063 94.3707505,172.69574 C93.5368826,172.657606 92.5337396,172.641379 91.3604875,172.647059 C91.3604875,173.393509 91.3296344,174.101826 91.268762,174.772819 C91.2078897,175.443002 91.2053881,176.206491 91.2604233,177.060041 L91.2604233,179.705882 L91.2604233,181.653144 L94.0872354,181.653144 C94.9211033,181.653144 95.6857601,181.623935 96.380372,181.563895 L98.2982681,181.457606 C98.8819756,181.425152 99.4381655,181.385396 99.9660038,181.336714 C99.8934573,181.691278 99.8567672,182.053144 99.857601,182.415822 C99.857601,182.76714 99.8942912,183.117647 99.9660038,183.462475 C99.3431046,183.391886 98.620975,183.335091 97.7979474,183.292089 C96.9749198,183.248276 96.141052,183.218256 95.2963438,183.20284 L92.9698525,183.20284 L91.2354073,183.20284 L91.2354073,183.884381 L91.2354073,184.809331 L91.2354073,188.257606 L91.2354073,191.503043 C91.2354073,192.341176 91.2520847,192.990264 91.2854394,193.450304 L93.787043,193.450304 C94.6934573,193.450304 95.5831944,193.434077 96.4554201,193.401623 C97.3284798,193.369168 98.1623477,193.322921 98.9570237,193.263692 C99.6374599,193.219878 100.314561,193.133063 100.983323,193.004057 C100.932457,193.181744 100.901604,193.363489 100.891597,193.547667 L100.891597,194.091278 C100.883258,194.397972 100.919949,194.703854 101,195 C99.9268121,194.951318 98.8594612,194.926978 97.7979474,194.926978 L91.2604233,194.926978 C90.1872354,194.926978 89.1007056,194.951318 88,195 C88.0725465,193.512779 88.1392559,192.033671 88.2001283,190.561866 C88.2610006,189.090872 88.2918538,187.586613 88.2918538,186.05071 L88.2918538,180.06288 C88.2918538,178.478296 88.2610006,176.941582 88.2001283,175.454361" id="Fill-17" fill="#1D1D1B"></path>
                <path d="M109.061808,182.185987 L110.292897,182.185987 C111.022924,182.181916 111.7506,182.100506 112.464945,181.941755 C113.198109,181.787075 113.899124,181.497254 114.535055,181.086131 C115.170987,180.675822 115.707334,180.118974 116.103321,179.457921 C116.54322,178.669053 116.758072,177.764582 116.722786,176.853598 C116.751799,176.070429 116.583994,175.293773 116.236624,174.598528 C115.931596,174.02784 115.49797,173.542633 114.97417,173.181171 C114.461347,172.834362 113.88893,172.590944 113.288284,172.465572 C112.700185,172.337758 112.101107,172.272629 111.500461,172.269373 C110.716328,172.269373 110.065498,172.286469 109.54797,172.319033 C109.030443,172.351598 108.593681,172.392303 108.238469,172.441149 L108.105166,176.251161 C108.058118,177.510581 108.034594,178.769188 108.034594,180.028608 L108.034594,182.023166 C108.370203,182.102948 108.710517,182.157493 109.053967,182.185987 L109.061808,182.185987 Z M105.188192,175.525793 C105.13095,174.044936 105.06822,172.535585 105,171 L106.921125,171.122299 C107.548432,171.154863 108.189068,171.173588 108.842251,171.178472 C109.495434,171.184171 110.13607,171.154863 110.763376,171.089735 C111.390683,171.030305 112.031319,171.000183 112.684502,171.000183 C113.587823,170.995299 114.488792,171.088107 115.374077,171.276979 C116.16762,171.440614 116.925092,171.754859 117.608856,172.205059 C118.241651,172.629207 118.762315,173.211293 119.122232,173.897583 C119.918911,175.654422 119.857749,177.700268 118.957565,179.401747 C118.499631,180.179218 117.899769,180.856553 117.193266,181.396305 C116.509502,181.913261 115.756734,182.325199 114.958487,182.617462 C114.25512,182.884489 113.527445,183.07906 112.786439,183.195477 L113.899908,184.660866 C114.370387,185.290169 114.893404,185.982158 115.468173,186.736834 L117.287362,189.114021 L119.10655,191.491207 C119.692297,192.250767 120.24119,192.942757 120.753229,193.566361 C121.265268,194.19078 121.680858,194.668659 122,195 C121.664391,194.951968 121.327214,194.926731 120.988469,194.925916 L119.004613,194.925916 C118.679197,194.925916 118.354566,194.951154 118.032288,195 L116.464022,192.801916 C115.77869,191.82499 115.021218,190.777237 114.190037,189.659471 C113.358856,188.541705 112.511993,187.428009 111.649446,186.32164 C110.7869,185.235624 110.002768,184.296961 109.297048,183.504837 L108.018911,183.504837 L108.018911,186.052986 C108.018911,187.589202 108.047924,189.102623 108.105166,190.595692 C108.162408,192.087946 108.225138,193.556592 108.293358,195 C107.770341,194.951154 107.221448,194.925916 106.646679,194.925916 C106.07191,194.925916 105.522232,194.951154 105,195 C105.06822,193.556592 105.130166,192.087946 105.188192,190.595692 C105.245434,189.102623 105.274446,187.589202 105.274446,186.052986 L105.274446,180.053031 C105.268958,178.533097 105.239945,177.024561 105.188192,175.525793 Z" id="Fill-19" fill="#1D1D1B"></path>
                <path d="M126.773,192.195248 C127.092618,192.639659 127.47266,193.035144 127.901996,193.368656 C128.385397,193.738047 128.922068,194.02671 129.492131,194.22486 C130.12739,194.454812 130.797632,194.568157 131.471849,194.559187 C132.166738,194.570603 132.856856,194.434426 133.499271,194.159625 C134.66802,193.66058 135.579167,192.682061 136.011684,191.461359 C136.242254,190.826952 136.357538,190.155851 136.353563,189.479858 C136.402857,188.557603 136.119813,187.649211 135.558496,186.927554 C134.997178,186.276023 134.319781,185.74273 133.562876,185.352953 C132.72726,184.914251 131.866998,184.528551 130.986858,184.195039 C130.084456,183.854188 129.221013,183.413855 128.410839,182.882193 C127.617362,182.3595 126.937579,181.674537 126.41522,180.868074 C125.843567,179.884662 125.566088,178.751211 125.620153,177.606344 C125.607432,176.688167 125.780756,175.778144 126.128996,174.931725 C126.466899,174.134232 126.974948,173.423175 127.615772,172.852372 C128.301915,172.248952 129.095392,171.786601 129.95327,171.490599 C130.942334,171.151379 131.979102,170.986662 133.022231,171.002155 C133.980287,170.980954 134.935163,171.116316 135.852671,171.401717 C136.658869,171.674072 137.410208,172.094835 138.070909,172.641175 C137.864191,173.045629 137.694047,173.468023 137.562066,173.90428 C137.423724,174.350321 137.286177,174.910524 137.148631,175.584886 L136.735195,175.584886 C136.604009,175.218757 136.449766,174.861598 136.274056,174.515854 C136.068134,174.117923 135.800196,173.756687 135.478989,173.448453 C135.13234,173.11331 134.734806,172.837694 134.302289,172.63302 C133.787085,172.398176 133.227358,172.284015 132.66445,172.298693 C132.064174,172.29217 131.468669,172.400622 130.907351,172.615896 C130.388172,172.814862 129.912722,173.117387 129.508032,173.504718 C129.107318,173.894495 128.792472,174.36663 128.585754,174.890953 C128.364725,175.447894 128.254211,176.04316 128.259777,176.644949 C128.205712,177.579435 128.487961,178.502504 129.054844,179.237209 C129.614571,179.905048 130.291174,180.457096 131.050463,180.868074 C131.880514,181.317377 132.741572,181.704708 133.626482,182.025988 C134.522523,182.352161 135.385966,182.766401 136.2025,183.266261 C136.988822,183.747367 137.668605,184.391558 138.19812,185.15725 C138.770568,186.074611 139.048047,187.152613 138.993187,188.239585 C138.997957,189.281708 138.806346,190.314045 138.428689,191.281964 C138.062163,192.225419 137.503231,193.079177 136.79085,193.784526 C136.036331,194.514338 135.139495,195.070463 134.159177,195.415391 C133.023821,195.8174 131.829629,196.013919 130.629078,195.994349 C129.460328,196.036751 128.295555,195.840232 127.202337,195.415391 C126.412835,195.08351 125.671832,194.642361 125,194.10336 C125.186046,193.633671 125.329953,193.147673 125.429336,192.65189 C125.508843,192.222157 125.582784,191.678264 125.651955,191.021025 L126.06539,191.021025 C126.262567,191.43445 126.499497,191.828303 126.773,192.195248" id="Fill-21" fill="#1D1D1B"></path>
                <path d="M144.171429,175.52477 C144.119286,174.044454 144.062143,172.535655 144,171 L144.764286,171.122885 C145.252857,171.193686 145.747143,171.193686 146.235714,171.122885 L147,171 C146.937857,172.535655 146.880714,174.044454 146.828571,175.52477 C146.775714,177.0059 146.75,178.514699 146.75,180.050354 L146.75,186.055441 C146.75,187.591096 146.775714,189.104778 146.828571,190.597301 C146.880714,192.08901 146.937857,193.556305 147,195 C146.523571,194.950358 146.023571,194.926757 145.5,194.926757 C144.975714,194.926757 144.476429,194.950358 144,195 C144.062143,193.556305 144.119286,192.08901 144.171429,190.597301 C144.223571,189.104778 144.25,187.591096 144.25,186.055441 L144.25,180.050354 C144.25,178.530162 144.223571,177.02299 144.171429,175.52477" id="Fill-23" fill="#1D1D1B"></path>
                <path d="M158.43231,172.829888 L156.531588,172.829888 C155.871209,172.829888 155.207581,172.853473 154.541516,172.903084 L152.624549,173.024263 C152.00722,173.073873 151.465433,173.12999 151,173.195053 C151.106408,172.833141 151.163267,172.459031 151.170578,172.080854 C151.155144,171.71569 151.097473,171.352965 151,171 L155.5,171.121179 C156.962094,171.153711 158.462365,171.173229 160,171.178922 C161.537635,171.184615 163.037906,171.165097 164.5,171.121179 L169,171 C168.90009,171.362725 168.843231,171.736835 168.829422,172.113385 C168.838357,172.480176 168.895217,172.844527 169,173.195053 C168.512635,173.12511 167.970848,173.06818 167.375451,173.024263 L165.458484,172.903084 C164.798105,172.870552 164.134477,172.846154 163.468412,172.829888 L161.56769,172.829888 C161.497022,175.225822 161.462094,177.635581 161.462094,180.05998 L161.462094,186.062013 C161.462094,187.595866 161.492148,189.109387 161.551444,190.600136 C161.611552,192.090884 161.675722,193.557235 161.74639,195 C161.205415,194.95039 160.636011,194.926804 160.040614,194.926804 C159.445217,194.926804 158.876625,194.95039 158.334838,195 C158.405505,193.557235 158.470487,192.090884 158.529783,190.600136 C158.589079,189.109387 158.619134,187.595866 158.619134,186.062013 L158.619134,180.05998 C158.565523,177.635581 158.502978,175.225822 158.43231,172.829888" id="Fill-25" fill="#1D1D1B"></path>
                <path d="M177.531828,183.374237 L176.01232,180.860339 L174.262834,177.964068 L172.513347,175.067797 L171.01848,172.627119 C170.569199,171.894915 170.229979,171.352271 170,171 L170.969199,171.12122 C171.613142,171.192 172.262834,171.192 172.907598,171.12122 L173.876797,171 C174.93306,173.022508 176.009035,175.013288 177.104723,176.971525 C178.199589,178.928949 179.3577,180.966102 180.579055,183.081356 C181.126078,182.240136 181.690349,181.321627 182.271047,180.32339 C182.851745,179.325153 183.439836,178.300068 184.036961,177.248136 C184.622587,176.201085 185.186858,175.149153 185.728953,174.091525 C186.271047,173.033898 186.777002,172.003119 187.24846,171 C188.150308,171.232678 189.098152,171.232678 190,171 C188.872279,172.697085 187.862012,174.235525 186.969199,175.612881 C186.076386,176.990237 185.287885,178.234983 184.603696,179.347119 C183.918686,180.464136 183.319097,181.470508 182.804928,182.365424 C182.289938,183.259525 181.843943,184.073085 181.466119,184.806102 L181.466119,187.563254 C181.466119,188.540339 181.482546,189.499525 181.5154,190.443254 C181.5154,191.387797 181.544969,192.260746 181.605749,193.063729 C181.665708,193.865898 181.706776,194.511051 181.728953,195 C181.181109,194.950373 180.60616,194.92678 180.004107,194.92678 C179.401232,194.92678 178.827105,194.950373 178.279261,195 C178.421355,193.790237 178.503491,192.32339 178.525667,190.598644 C178.547023,188.873898 178.547023,187.070237 178.525667,185.187661 L177.531828,183.374237 Z" id="Fill-27" fill="#1D1D1B"></path>
                <path d="M223.859405,178.518405 C223.438855,177.215937 222.746565,176.020509 221.829443,175.013017 C220.978639,174.101942 219.933735,173.39923 218.77237,172.962078 C216.325903,172.073066 213.648942,172.073066 211.202475,172.962078 C210.041111,173.39923 208.995398,174.101942 208.145402,175.013017 C207.229089,176.021326 206.53599,177.216754 206.115441,178.518405 C205.142515,181.802358 205.142515,185.30121 206.115441,188.585163 C206.53599,189.886814 207.22828,191.082242 208.145402,192.090552 C208.995398,193.002443 210.041111,193.703521 211.202475,194.14149 C213.648942,195.03132 216.325903,195.03132 218.77237,194.14149 C219.933735,193.703521 220.978639,193.002443 221.829443,192.090552 C222.747374,191.083059 223.439664,189.886814 223.859405,188.585163 C224.833139,185.298759 224.833139,181.796638 223.859405,178.510234 L223.859405,178.518405 Z M202.945142,178.240589 C203.542808,176.743649 204.455887,175.397057 205.622103,174.293962 C206.809348,173.194954 208.211719,172.35987 209.738638,171.842642 C213.155605,170.719119 216.835415,170.719119 220.252382,171.842642 C221.779301,172.360687 223.180864,173.194954 224.368917,174.293962 C225.534325,175.397057 226.448212,176.743649 227.045878,178.240589 C228.318041,181.665084 228.318041,185.439301 227.045878,188.862979 C225.852163,191.908337 223.357171,194.241994 220.260469,195.2119 C216.832989,196.2627 213.174206,196.2627 209.746726,195.2119 C206.650833,194.241994 204.155032,191.908337 202.961317,188.862979 C201.685111,185.440935 201.67945,181.667536 202.945142,178.240589 Z" id="Fill-29" fill="#1D1D1B"></path>
                <path d="M232.236646,175.509632 C232.177076,174.034268 232.111795,172.530517 232.040801,171 L235.17513,171.122474 C236.213923,171.154917 237.257611,171.172761 238.307828,171.178439 C239.358044,171.184116 240.421317,171.165461 241.499278,171.122474 L245,171 C244.859645,171.691044 244.859645,172.402366 245,173.09341 C244.368401,173.022846 243.609503,172.957959 242.723307,172.897938 C241.836294,172.838729 240.929697,172.792497 240.005963,172.760054 L237.344925,172.670835 L235.223275,172.670835 C235.223275,173.48192 235.207771,174.261372 235.17513,175.00757 C235.142489,175.753768 235.142489,176.496722 235.17513,177.238053 L235.17513,179.483947 L235.17513,181.625211 C236.714142,181.625211 238.23765,181.60169 239.744021,181.552214 C241.251208,181.50436 242.738811,181.411896 244.207645,181.276445 C244.019961,181.961811 244.019961,182.684488 244.207645,183.369044 C243.625824,183.29929 242.967296,183.247381 242.232879,183.214937 L239.939866,183.126529 L237.491808,183.126529 L235.142489,183.126529 L235.142489,186.086178 C235.142489,187.616695 235.171866,189.125313 235.231436,190.612031 C235.291005,192.099561 235.356286,193.561947 235.42728,195 C234.882995,194.952146 234.312598,194.927002 233.714456,194.927002 C233.115498,194.927002 232.544285,194.952146 232,195 C232.070994,193.561947 232.136275,192.099561 232.195845,190.612031 C232.255414,189.125313 232.286423,187.616695 232.286423,186.086178 L232.286423,180.020074 C232.313351,178.504968 232.296215,177.002839 232.236646,175.509632" id="Fill-31" fill="#1D1D1B"></path>
                <path d="M259.221977,175.526305 C259.162183,174.045487 259.096654,172.536176 259.025392,171 L259.901834,171.122927 C260.462101,171.193752 261.028921,171.193752 261.589188,171.122927 L262.465629,171 C262.394367,172.536176 262.328839,174.045487 262.269044,175.526305 C262.20843,177.007937 262.178943,178.517248 262.178124,180.053424 C262.178943,182.98901 262.178943,185.534649 262.178124,187.688715 C262.178943,189.843594 262.203516,191.77053 262.252662,193.468709 C263.89087,193.468709 265.484847,193.453241 267.03623,193.419864 C268.680171,193.376717 270.320837,193.243207 271.950854,193.020963 C271.865667,193.358807 271.824712,193.706421 271.827988,194.055663 C271.837817,194.376412 271.895974,194.694719 272,195 C270.908134,194.950341 269.829374,194.925918 268.76372,194.925918 L262.276416,194.925918 C261.233697,194.925918 260.141831,194.950341 259,195 C259.071262,193.555816 259.13679,192.088023 259.197404,190.595807 C259.257199,189.102778 259.287506,187.588582 259.287506,186.053221 L259.287506,180.053424 C259.303888,178.532716 259.281772,177.025033 259.221977,175.526305" id="Fill-33" fill="#1D1D1B"></path>
                <path d="M295.862024,178.518405 C295.441597,177.215937 294.749508,176.020509 293.832653,175.013017 C292.982096,174.101942 291.937496,173.39923 290.776469,172.962078 C289.559655,172.508584 288.2725,172.281428 286.976452,172.29205 C285.690914,172.283062 284.41427,172.509401 283.208775,172.962078 C282.042898,173.384522 280.988595,174.072526 280.128336,174.972161 C279.210672,175.980471 278.519393,177.175082 278.098965,178.47755 C277.126323,181.761503 277.126323,185.260355 278.098965,188.544308 C278.518584,189.845959 279.210672,191.041386 280.128336,192.049696 C280.978085,192.960771 282.023494,193.662666 283.183712,194.100635 C284.390015,194.553312 285.666659,194.779651 286.951388,194.770663 C288.248245,194.781285 289.536208,194.554946 290.752214,194.100635 C291.912432,193.662666 292.958649,192.960771 293.808398,192.049696 C294.726061,191.041386 295.417341,189.845959 295.837769,188.544308 C296.800709,185.27016 296.797475,181.782748 295.829683,178.510234 L295.862024,178.518405 Z M274.953845,178.240589 C275.551337,176.743649 276.464149,175.397057 277.630027,174.293962 C278.816926,173.194954 280.21889,172.35987 281.745365,171.842642 C285.160529,170.719119 288.840077,170.719119 292.25605,171.842642 C293.782525,172.35987 295.18368,173.194954 296.371388,174.293962 C297.536457,175.397874 298.44927,176.743649 299.046762,178.240589 C300.317746,181.665084 300.317746,185.438484 299.046762,188.862979 C297.854203,191.908337 295.359128,194.241994 292.264135,195.2119 C288.837652,196.2627 285.179933,196.2627 281.75345,195.2119 C278.651989,194.246897 276.150446,191.911605 274.953845,188.862979 C273.682052,185.439301 273.682052,181.665084 274.953845,178.240589 Z" id="Fill-35" fill="#1D1D1B"></path>
                <path d="M316.474649,186.420301 C313.427847,183.153288 310.381864,179.909961 307.334243,176.69277 C307.334243,177.346173 307.310491,178.222549 307.26053,179.322716 C307.211388,180.422065 307.211388,181.916724 307.26053,183.806691 L307.26053,185.627234 L307.26053,187.905975 C307.26053,188.699043 307.26053,189.539482 307.310491,190.356235 C307.358814,191.172988 307.358814,191.933386 307.383385,192.634977 C307.408775,193.338201 307.432527,193.950766 307.457098,194.472671 C307.482488,194.99621 307.507059,195.354765 307.530811,195.543435 C307.123752,195.492796 306.713417,195.468294 306.302262,195.469927 C305.867356,195.468294 305.432449,195.492796 305,195.543435 C305.049961,195.306576 305.098284,194.873697 305.156435,194.244797 C305.212949,193.615897 305.270281,192.856317 305.311232,191.982391 C305.352184,191.108465 305.409516,190.152047 305.467668,189.123754 C305.524181,188.094645 305.573323,187.065536 305.606084,186.03561 C305.639665,185.007318 305.672426,184.002712 305.696178,183.022608 C305.720749,182.042504 305.696178,181.16041 305.696178,180.392662 L305.696178,174.610049 C305.696178,172.997778 305.666693,171.794701 305.606084,171 L306.171217,171 L310.758619,175.956875 C312.396685,177.721879 314.012637,179.464014 315.606474,181.184913 L320.177496,186.085432 C321.618175,187.615211 322.879485,188.919566 323.961427,189.99768 L323.961427,185.227841 C323.961427,182.771864 323.944228,180.381228 323.911466,178.056748 C323.878705,175.731452 323.802535,173.553171 323.682956,171.522722 C324.072816,171.627266 324.474142,171.684439 324.878744,171.69424 C325.257956,171.680355 325.634711,171.623183 326,171.522722 C325.950858,172.034826 325.899259,172.805025 325.844384,173.834134 C325.790328,174.863243 325.732995,175.951975 325.672387,177.101147 C325.612598,178.271554 325.560998,179.418276 325.516771,180.539678 C325.473362,181.66108 325.448791,182.561959 325.443058,183.242314 L325.443058,185.349538 L325.443058,187.799797 L325.443058,190.414225 L325.443058,192.864484 L325.443058,194.841027 L325.443058,196 L324.952457,196 C322.347114,192.880819 319.52227,189.687314 316.474649,186.420301" id="Fill-37" fill="#1D1D1B"></path>
                <path d="M335.369977,193.360529 C336.02372,193.500058 336.687185,193.586858 337.354699,193.620118 C338.191523,193.680148 339.050219,193.710164 339.930788,193.710164 C341.218832,193.70773 342.502015,193.555221 343.754416,193.25507 C345.013297,192.962221 346.187118,192.378955 347.181099,191.552324 C348.247178,190.612934 349.079952,189.43829 349.611371,188.120061 C350.811926,184.699155 350.884834,180.983777 349.821995,177.518254 C349.403988,176.33631 348.700019,175.276859 347.772465,174.435626 C346.877315,173.669837 345.809616,173.131999 344.661717,172.869164 C343.363142,172.568203 342.033783,172.421372 340.700374,172.431107 C339.657787,172.431107 338.683248,172.4668 337.775946,172.536565 C336.868645,172.607141 336.058554,172.689074 335.345674,172.780742 C335.275197,173.894544 335.224161,175.059453 335.191757,176.27628 C335.159354,177.493107 335.143152,178.729403 335.143152,179.984357 L335.143152,185.971145 C335.153683,188.507823 335.229831,190.981227 335.369977,193.392977 L335.369977,193.360529 Z M332.218724,175.513735 C332.159588,174.038129 332.094781,172.534131 332.024303,171.003363 L334.648996,171.125857 C335.519034,171.158306 336.393932,171.176153 337.27369,171.181831 C338.154259,171.18751 339.029157,171.158306 339.898384,171.093408 C340.767611,171.03419 341.642509,171.003363 342.523078,171.003363 C344.301227,170.966047 346.072895,171.239428 347.756264,171.814581 C349.105875,172.285899 350.326681,173.065479 351.320662,174.094103 C352.272519,175.12435 352.970007,176.36308 353.35399,177.712947 C353.80116,179.281842 354.017454,180.907523 353.993962,182.538882 C354.055529,184.561248 353.645623,186.569824 352.795027,188.404798 C352.070806,189.897439 351.024979,191.210801 349.732885,192.249971 C348.517749,193.210453 347.120342,193.91459 345.625725,194.318577 C344.228319,194.710395 342.783927,194.915633 341.332245,194.92699 L338.999183,194.92699 L336.666122,194.92699 L334.333061,194.92699 C333.565905,194.92699 332.788218,194.951327 332,195 C332.070478,193.560899 332.135285,192.097462 332.194422,190.6105 C332.253558,189.123538 332.283532,187.614672 332.283532,186.083904 L332.283532,180.024918 C332.299734,178.509563 332.278671,177.007187 332.218724,175.513735 Z" id="Fill-39" fill="#1D1D1B"></path>
                <path d="M378.860521,178.518405 C378.439962,177.215937 377.747656,176.020509 376.830513,175.013017 C375.980497,174.101942 374.93476,173.39923 373.773368,172.962078 C372.556981,172.508584 371.268613,172.281428 369.972157,172.29205 C368.686215,172.283062 367.40917,172.509401 366.203296,172.962078 C365.062933,173.394328 364.034988,174.081515 363.194678,174.972161 C362.277535,175.980471 361.585229,177.175082 361.164669,178.47755 C360.19253,181.761503 360.19253,185.260355 361.164669,188.544308 C361.585229,189.845959 362.276726,191.041386 363.194678,192.049696 C364.044693,192.960771 365.09124,193.662666 366.251822,194.100635 C367.456887,194.553312 368.733932,194.779651 370.020683,194.770663 C371.317947,194.781285 372.605507,194.554946 373.822703,194.100635 C374.983286,193.662666 376.029023,192.960771 376.879039,192.049696 C377.796991,191.041386 378.489297,189.845959 378.909856,188.544308 C379.861777,185.266892 379.848027,181.779479 378.868609,178.510234 L378.860521,178.518405 Z M357.945771,178.240589 C358.543451,176.743649 359.457359,175.397057 360.622794,174.293962 C361.810875,173.194954 363.212471,172.35987 364.739425,171.842642 C368.156472,170.719119 371.836368,170.719119 375.253414,171.842642 C376.780369,172.35987 378.182773,173.194954 379.370045,174.293962 C380.535481,175.397874 381.449389,176.743649 382.047069,178.240589 C383.317644,181.665084 383.317644,185.438484 382.047069,188.862979 C380.853327,191.908337 378.358276,194.241994 375.261502,195.2119 C371.833942,196.2627 368.175073,196.2627 364.747513,195.2119 C361.651548,194.241994 359.156497,191.908337 357.961946,188.862979 C356.684901,185.440935 356.67924,181.666718 357.945771,178.240589 Z" id="Fill-41" fill="#1D1D1B"></path>
                <path d="M398.474649,186.420301 C395.427028,183.153288 392.381045,179.909961 389.334243,176.69277 C389.334243,177.346173 389.309672,178.222549 389.26053,179.322716 C389.210569,180.422065 389.210569,181.916724 389.26053,183.806691 L389.26053,185.627234 L389.26053,187.905975 C389.26053,188.699043 389.26053,189.539482 389.309672,190.356235 C389.358814,191.172988 389.358814,191.933386 389.382566,192.634977 C389.407956,193.338201 389.432527,193.950766 389.457098,194.472671 C389.481669,194.99621 389.50624,195.354765 389.530811,195.543435 C389.122933,195.492796 388.712598,195.468294 388.302262,195.469927 C387.867356,195.468294 387.432449,195.492796 387,195.543435 C387.049142,195.306576 387.097465,194.873697 387.155616,194.244797 C387.212949,193.615897 387.270281,192.856317 387.311232,191.982391 C387.352184,191.108465 387.409516,190.152047 387.466849,189.123754 C387.524181,188.094645 387.572504,187.065536 387.605265,186.03561 C387.638846,185.007318 387.671607,184.002712 387.696178,183.022608 C387.720749,182.042504 387.696178,181.16041 387.696178,180.392662 L387.696178,174.610049 C387.696178,172.997778 387.665874,171.794701 387.605265,171 L388.171217,171 L392.7578,175.956875 C394.395866,177.721879 396.011817,179.464014 397.605655,181.184913 L402.176677,186.085432 C403.618175,187.615211 404.878666,188.919566 405.960608,189.99768 L405.960608,185.227841 C405.960608,182.771864 405.944228,180.381228 405.911466,178.056748 C405.878705,175.731452 405.801716,173.553171 405.682137,171.522722 C406.071997,171.627266 406.474142,171.684439 406.877925,171.69424 C407.257137,171.680355 407.633892,171.623183 408,171.522722 C407.950039,172.034826 407.899259,172.805025 407.843565,173.834134 C407.789509,174.863243 407.732176,175.951975 407.671568,177.101147 C407.611778,178.271554 407.560179,179.418276 407.516771,180.539678 C407.472543,181.66108 407.447972,182.561959 407.443058,183.242314 L407.443058,185.349538 L407.443058,187.799797 L407.443058,190.414225 L407.443058,192.864484 L407.443058,194.841027 L407.443058,196 L406.951638,196 C404.347114,192.880819 401.521451,189.687314 398.474649,186.420301" id="Fill-43" fill="#1D1D1B"></path>
                <g id="Group-47" transform="translate(122.000000, 213.000000)">
                    <mask id="mask-2" fill="white">
                        <use xlink:href="#path-1"></use>
                    </mask>
                    <g id="Clip-46"></g>
                    <path d="M0.918721359,6.00964865 C0.848614563,4.22018919 0.773672816,2.43397297 0.693090291,0.650189189 L4.42406117,0.796135135 C5.65697379,0.796135135 6.90600291,0.852891892 8.15503204,0.852891892 C9.40406117,0.852891892 10.6369738,0.852891892 11.8698864,0.796135135 L15.5766825,0.650189189 C15.4952942,1.0637027 15.4550029,1.48532432 15.4558087,1.90694595 C15.4566146,2.32856757 15.4961,2.74937838 15.5766825,3.1637027 L13.1592068,2.99343243 L10.8142553,2.83127027 C10.0084301,2.77451351 9.10590583,2.72586486 8.13085728,2.67721622 C7.15580874,2.62856757 5.99542039,2.62045946 4.63357573,2.62045946 C4.63357573,3.52045946 4.57716796,4.3637027 4.52881845,5.17451351 C4.48046893,5.98532432 4.46435243,6.90964865 4.46435243,7.93937838 L4.46435243,11.1258649 L4.46435243,13.4772162 C5.6892068,13.4772162 6.78512913,13.4772162 7.76017767,13.4285676 C8.73522621,13.3799189 9.62163398,13.3718108 10.419401,13.3312703 L12.6515369,13.2096486 C13.3284301,13.161 13.9811485,13.1212703 14.5855175,13.0555946 C14.5033233,13.4828919 14.463032,13.9174865 14.4646437,14.3528919 C14.4638379,14.7753243 14.5041291,15.1953243 14.5855175,15.6096486 C13.8651097,15.5285676 13.0270515,15.4604595 12.0713427,15.4069459 C11.1148282,15.3526216 10.1558961,15.3153243 9.1945466,15.2934324 L6.48697379,15.2934324 L4.46435243,15.2934324 L4.46435243,16.1042432 L4.46435243,17.2150541 L4.46435243,21.3664054 L4.46435243,25.2988378 C4.46435243,26.3285676 4.46435243,27.1231622 4.52076019,27.6501892 L7.43784757,27.6501892 C8.50153689,27.6501892 9.5329932,27.6501892 10.548333,27.5853243 C11.5636728,27.5204595 12.5226049,27.4961351 13.4251291,27.4231622 C14.2124204,27.3672162 14.9956825,27.2618108 15.7700806,27.1069459 C15.7152845,27.3185676 15.6822456,27.5366757 15.6733816,27.7555946 L15.6733816,28.4042432 C15.6661291,28.7699189 15.7072262,29.1347838 15.7942553,29.4907297 C14.5476437,29.4372162 13.3042553,29.4120811 12.0632845,29.4177568 L4.49658544,29.4177568 C3.24755631,29.4177568 1.98241068,29.4177568 0.701148544,29.4907297 C0.781731068,27.7150541 0.862313592,25.9231622 0.926779612,24.1555946 C0.991245631,22.388027 1.03959515,20.5637027 1.03959515,18.7231622 L1.03959515,11.5069459 C1.03959515,9.66964865 1.00172136,7.85262162 0.926779612,6.0582973 L0.918721359,6.00964865 Z M23.6429932,25.5745135 C24.0322068,26.1047838 24.4963621,26.5742432 25.0209544,26.9691081 C26.2522553,27.9291081 27.7744592,28.4358649 29.3321194,28.4042432 C30.1838767,28.413973 31.0283816,28.2485676 31.8140612,27.9177568 C32.5215757,27.6153243 33.1605951,27.1718108 33.691634,26.6123514 C34.2154204,26.0577568 34.6215563,25.401 34.8842553,24.6826216 C35.162265,23.9277568 35.300867,23.1282973 35.2952262,22.3231622 C35.3508282,21.2147838 35.0011,20.1242432 34.3121194,19.2582973 C33.6328087,18.4823514 32.8124786,17.8434324 31.8946437,17.3772162 C30.8728573,16.8493784 29.8204495,16.383973 28.743867,15.9826216 C27.6431097,15.5764054 26.5890903,15.051 25.6011485,14.4177568 C24.6389932,13.7812703 23.8162456,12.9534324 23.1836728,11.9853243 C22.4721291,10.8031622 22.1296534,9.4337027 22.200566,8.05289189 C22.182032,6.93964865 22.3931583,5.83613514 22.8210515,4.80964865 C23.2368573,3.85451351 23.8557311,3.00154054 24.6341583,2.31235135 C25.4738282,1.59397297 26.4416243,1.04343243 27.4867796,0.69072973 C28.6963233,0.28127027 29.9654981,0.081 31.2419252,0.0988378378 C32.409566,0.0753243243 33.5739835,0.239918919 34.6908573,0.585324324 C35.6763816,0.908837838 36.596634,1.40910811 37.4064883,2.061 C37.154265,2.54667568 36.9439447,3.05424324 36.7779447,3.57721622 C36.6087214,4.11235135 36.4475563,4.78532432 36.278333,5.58721622 L35.7787214,5.58721622 C35.6175563,5.14937838 35.4289932,4.72127027 35.2146437,4.30694595 C34.9672553,3.83018919 34.6433136,3.39640541 34.2557117,3.02586486 C33.8318476,2.62451351 33.3475466,2.2937027 32.8213427,2.04478378 C32.1911874,1.761 31.5046243,1.62478378 30.8148379,1.64748649 C30.085566,1.63613514 29.3611291,1.76343243 28.679401,2.02045946 C28.047634,2.26208108 27.4682456,2.62208108 26.9710515,3.08262162 C26.4827214,3.55451351 26.0983427,4.12289189 25.8428961,4.75289189 C25.5785854,5.41856757 25.4472359,6.12802703 25.4561,6.84478378 C25.3932456,7.96532432 25.7397505,9.06964865 26.4311485,9.95018919 C27.1152942,10.7269459 27.9348184,11.3723514 28.8486243,11.8555946 C29.8647699,12.3899189 30.9179835,12.8512703 31.999401,13.233973 C33.0929058,13.6272162 34.1453136,14.1266757 35.1421194,14.7258649 C36.0954107,15.3031622 36.9181583,16.0734324 37.5595951,16.988027 C38.2630806,18.0842432 38.607168,19.3742432 38.5427019,20.6772162 C38.5491485,21.9274865 38.3138476,23.1664054 37.8496922,24.3258649 C37.4000417,25.4561351 36.7191194,26.4785676 35.8512456,27.3258649 C34.9293816,28.208027 33.8302359,28.8793784 32.6279447,29.2961351 C31.2419252,29.7777568 29.7825757,30.0137027 28.3167796,29.9934324 C26.8880515,30.0437027 25.4633524,29.8069459 24.1264883,29.2961351 C23.164333,28.9012703 22.2618087,28.3750541 21.4430903,27.7312703 C21.6638864,27.1653243 21.8387505,26.5823514 21.9668767,25.988027 C22.0635757,25.4691081 22.1522165,24.8042432 22.232799,23.9934324 L22.7324107,23.9934324 C22.9733524,24.5391081 23.2731194,25.0547838 23.6268767,25.533973 L23.6429932,25.5745135 Z M51.8791097,2.78343243 L49.5986243,2.78343243 C48.792799,2.78343243 47.9869738,2.78343243 47.2294981,2.8637027 C46.4720223,2.94478378 45.6742553,2.95289189 44.9328961,3.00964865 C44.1915369,3.06640541 43.5388184,3.13937838 42.950566,3.22045946 C43.0786922,2.78586486 43.1496049,2.33586486 43.1600806,1.88262162 C43.1407408,1.44316216 43.0698282,1.00775676 42.950566,0.585324324 L48.3334786,0.73127027 C50.0845369,0.769378378 51.8791097,0.788027027 53.7163913,0.788027027 C55.5536728,0.788027027 57.3426049,0.769378378 59.0831874,0.73127027 L64.4661,0.585324324 C64.3436146,1.02478378 64.2735078,1.47559459 64.2565854,1.93127027 C64.2694786,2.37154054 64.3395854,2.80775676 64.4661,3.22856757 C63.8778476,3.14748649 63.2251291,3.06640541 62.4918282,3.01775676 C61.7585272,2.96910811 60.984935,2.91235135 60.1952262,2.87181081 C59.4055175,2.83127027 58.5835757,2.80694595 57.8261,2.79072973 L55.5536728,2.79072973 C55.4730903,5.661 55.4247408,8.55559459 55.4247408,11.4745135 L55.4247408,18.6826216 C55.4247408,20.5312703 55.465032,22.3393784 55.5375563,24.1312703 C55.6100806,25.9231622 55.6826049,27.6826216 55.7712456,29.4096486 C55.1265854,29.361 54.4496922,29.3374865 53.7325078,29.3374865 C53.0153233,29.3374865 52.3303718,29.3374865 51.6857117,29.4096486 C51.7662942,27.6826216 51.8468767,25.9231622 51.9113427,24.1312703 C51.9758087,22.3393784 52.0241583,20.5312703 52.0241583,18.6826216 L52.0241583,11.5555946 C52.0241583,8.63667568 51.983867,5.74208108 51.9032845,2.87181081 L51.8791097,2.78343243 Z M80.3892068,6.59343243 C80.0926631,6.04775676 79.6631583,5.58721622 79.1401777,5.25559459 L79.1401777,4.9637027 C80.7518282,4.31505405 82.3634786,3.61775676 83.9751291,2.84748649 C85.5867796,2.07721622 87.1984301,1.33127027 88.6166825,0.609648649 L88.9067796,0.812351351 C88.798799,2.661 88.7166049,4.48532432 88.656168,6.28532432 C88.600566,8.08532432 88.5763913,9.91775676 88.5763913,11.7582973 L88.5763913,18.7637027 C88.5763913,20.6123514 88.6029835,22.4204595 88.656168,24.188027 C88.7109641,25.9555946 88.7939641,27.6931622 88.9067796,29.4015405 C88.5844495,29.3512703 88.2580903,29.3277568 87.9317311,29.3285676 L85.9735757,29.3285676 C85.6472165,29.3277568 85.3216631,29.3520811 84.9985272,29.4015405 C85.1355175,27.6745135 85.2241583,25.9231622 85.2636437,24.1637027 C85.3047408,22.4042432 85.3289155,20.6042432 85.3289155,18.7555946 L85.3289155,3.91775676 L80.3892068,6.59343243 Z M112.316003,18.7555946 C112.078284,17.9553243 111.698741,17.2061351 111.195906,16.5420811 C109.641469,14.6131622 106.977411,14.0066757 104.749304,15.0745135 C104.058712,15.423973 103.455954,15.9250541 102.984547,16.5420811 C102.477683,17.2045135 102.094916,17.9545135 101.856391,18.7555946 C101.320517,20.6091081 101.320517,22.5777568 101.856391,24.4312703 C102.094916,25.2347838 102.477683,25.988027 102.984547,26.6528919 C104.534149,28.5891081 107.206265,29.193973 109.431149,28.1123514 C110.120935,27.7628919 110.726916,27.2650541 111.203964,26.6528919 C111.707605,25.9864054 112.087149,25.233973 112.324061,24.4312703 C112.860741,22.5785676 112.860741,20.6091081 112.324061,18.7555946 L112.316003,18.7555946 Z M111.381246,5.78262162 C111.227333,5.16964865 110.953352,4.59316216 110.57542,4.08802703 C110.202323,3.59748649 109.726081,3.19613514 109.181343,2.91235135 C107.898469,2.33991892 106.43509,2.33991892 105.152217,2.91235135 C104.601838,3.18883784 104.124789,3.59181081 103.758139,4.08802703 C103.38343,4.59559459 103.10945,5.17127027 102.952314,5.78262162 C102.785508,6.45397297 102.701702,7.14235135 102.702508,7.83397297 C102.703314,8.52316216 102.787119,9.2082973 102.952314,9.87802703 C103.107838,10.4966757 103.381818,11.0812703 103.758139,11.5961351 C104.128013,12.0899189 104.604255,12.4920811 105.152217,12.7718108 C106.43509,13.3450541 107.898469,13.3450541 109.181343,12.7718108 C109.724469,12.4847838 110.199906,12.0842432 110.57542,11.5961351 C110.954964,11.0828919 111.228945,10.4982973 111.381246,9.87802703 C111.549663,9.20910811 111.633469,8.52316216 111.631051,7.83397297 C111.635081,7.14154054 111.551275,6.45316216 111.381246,5.78262162 Z M99.2132845,17.1664054 C100.35111,15.5853243 101.990964,14.4404595 103.862896,13.9231622 L103.862896,13.6312703 C103.292372,13.503973 102.74844,13.2818108 102.251246,12.9745135 C101.697644,12.6485676 101.198032,12.2382973 100.768527,11.7582973 C100.307595,11.2466757 99.9425563,10.6555946 99.6887214,10.0150541 C99.4010417,9.32505405 99.2592165,8.58235135 99.2688864,7.83397297 C99.2672748,6.95667568 99.4606728,6.08991892 99.8337699,5.29613514 C100.227013,4.49262162 100.774168,3.77586486 101.44542,3.18883784 C102.165022,2.54667568 102.999051,2.04883784 103.902382,1.72045946 C104.936255,1.34343243 106.027343,1.15694595 107.125683,1.16910811 C108.339255,1.14559459 109.547993,1.32397297 110.704352,1.69613514 C111.586731,1.99532432 112.407061,2.45667568 113.121828,3.0582973 C113.740702,3.591 114.233867,4.25586486 114.564255,5.00424324 C114.877721,5.74208108 115.040498,6.53667568 115.039692,7.33937838 C115.042916,8.66910811 114.627916,9.96640541 113.855129,11.0447838 C112.994508,12.2172162 111.773683,13.0718108 110.381217,13.4772162 L110.381217,13.7691081 C110.979139,13.8899189 111.564168,14.0634324 112.130663,14.288027 C112.857517,14.5766757 113.527964,14.9918108 114.112993,15.5123514 C114.777799,16.1091081 115.324954,16.8274865 115.724644,17.6285676 C116.201692,18.6404595 116.431352,19.7520811 116.392673,20.8718108 C116.411207,22.1666757 116.160595,23.4501892 115.660178,24.6420811 C115.19844,25.7277568 114.518323,26.7047838 113.661731,27.5131622 C112.81078,28.3126216 111.799469,28.9207297 110.696294,29.2961351 C109.539129,29.6950541 108.32475,29.8953243 107.102314,29.888027 C105.86376,29.8937027 104.630848,29.7299189 103.435809,29.4015405 C102.34875,29.1088378 101.336634,28.5842432 100.470372,27.861 C99.6371485,27.1701892 98.9683136,26.2993784 98.5122165,25.3150541 C98.0174398,24.2212703 97.7724689,23.0301892 97.795032,21.8285676 C97.7853621,20.1591081 98.2704689,18.5245135 99.1891097,17.133973 L99.2132845,17.1664054 Z M134.919401,4.3637027 C133.92743,3.1637027 132.439877,2.49316216 130.890275,2.54667568 C129.295547,2.51505405 127.788653,3.27721622 126.861149,4.58262162 C125.757974,6.22937838 125.222906,8.19478378 125.338139,10.1772162 C125.338139,12.6096486 125.797459,14.3447838 126.7161,15.3988378 C127.668585,16.4601892 129.044129,17.0350541 130.463187,16.9637027 C131.364906,16.9847838 132.256149,16.7520811 133.03377,16.2907297 C133.765459,15.8415405 134.394003,15.2423514 134.87911,14.5312703 C135.398061,13.7601892 135.788081,12.908027 136.030634,12.0096486 C136.29011,11.0537027 136.420653,10.0661351 136.418236,9.07451351 C136.491566,7.36613514 135.950857,5.68856757 134.895226,4.34748649 L134.919401,4.3637027 Z M125.925585,28.2582973 C126.622624,28.563973 127.374459,28.7220811 128.134352,28.7204595 C129.522789,28.7569459 130.883022,28.3134324 131.986197,27.4637027 C133.094207,26.5807297 133.987061,25.4545135 134.597071,24.1718108 C135.293304,22.731 135.789692,21.2001892 136.071731,19.6231622 C136.391644,17.9642432 136.553615,16.2777568 136.555226,14.588027 L136.474644,14.588027 C135.857382,15.741 134.96211,16.7188378 133.871828,17.433973 C132.626828,18.2034324 131.181983,18.5845135 129.721022,18.5285676 C127.533207,18.6526216 125.3881,17.8734324 123.782896,16.3718108 C122.356585,14.9204595 121.639401,12.8691081 121.639401,10.1853243 C121.624896,8.96505405 121.847304,7.75289189 122.292119,6.61775676 C122.703896,5.55316216 123.333246,4.58667568 124.137459,3.77991892 C124.976323,2.96505405 125.967488,2.32532432 127.054547,1.89883784 C128.275372,1.41802703 129.579197,1.18127027 130.890275,1.20154054 C132.110294,1.19586486 133.320644,1.41883784 134.460081,1.8582973 C135.597906,2.30667568 136.610828,3.02667568 137.408595,3.9582973 C138.332877,5.05289189 139.025886,6.32505405 139.448139,7.69613514 C140.016246,9.50505405 140.288615,11.3942432 140.253964,13.2907297 C140.278945,15.4953243 140.007382,17.6934324 139.448139,19.8258649 C138.954974,21.7296486 138.137061,23.5312703 137.030663,25.1528919 C136.032246,26.6082973 134.714721,27.8131622 133.178013,28.6718108 C131.583284,29.528027 129.79677,29.961 127.989304,29.9285676 C127.329333,29.9374865 126.669362,29.8750541 126.02309,29.7420811 C125.571022,29.6472162 125.123789,29.5288378 124.684615,29.3853243 C124.612896,29.0772162 124.483158,28.6953243 124.330857,28.2582973 C124.205149,27.8666757 124.044789,27.4872162 123.85542,27.1231622 L124.064935,27.0015405 C124.633042,27.5212703 125.280925,27.9461351 125.982799,28.2582973 L125.925585,28.2582973 Z M158.078818,5.31235135 C157.492983,6.12802703 156.757265,7.16910811 155.870857,8.43397297 L153.122187,12.3745135 C152.172119,13.7285676 151.277653,15.033973 150.431537,16.2988378 C149.58542,17.5637027 148.923838,18.6015405 148.449207,19.4042432 L158.167459,19.4042432 L158.167459,5.34478378 L158.086877,5.34478378 L158.078818,5.31235135 Z M148.972993,15.7474865 L152.808721,10.2988378 C154.041634,8.52316216 155.177848,6.89343243 156.22542,5.361 C157.272993,3.82856757 158.11911,2.55559459 158.787945,1.48532432 C159.250488,1.61262162 159.726731,1.68397297 160.205391,1.69613514 C160.656653,1.68721622 161.104692,1.61667568 161.535809,1.48532432 C161.455226,3.33397297 161.381896,5.40964865 161.326294,7.72045946 C161.269886,10.0312703 161.244906,12.3907297 161.244906,14.8231622 L161.244906,19.4366757 C162.050731,19.4366757 162.809013,19.4366757 163.542314,19.3312703 C164.275615,19.2258649 164.863867,19.1772162 165.331246,19.0961351 C165.056459,20.0001892 165.056459,20.9650541 165.331246,21.8691081 C164.738964,21.7685676 164.141848,21.7028919 163.542314,21.6745135 C162.809013,21.6745135 162.050731,21.6177568 161.244906,21.6177568 L161.244906,23.3772162 C161.244906,24.4799189 161.244906,25.5907297 161.326294,26.7664054 C161.406877,27.9420811 161.431051,28.833973 161.487459,29.5061351 C160.939498,29.4582973 160.319013,29.433973 159.658236,29.433973 C158.996653,29.433973 158.385032,29.433973 157.820149,29.5061351 C157.88542,28.7853243 157.949886,27.8845135 158.038527,26.7015405 C158.127168,25.5177568 158.158595,24.4555946 158.158595,23.3853243 L158.158595,21.6096486 L155.387362,21.6096486 L151.591925,21.6664054 C150.270372,21.6664054 149.013284,21.7312703 147.828721,21.7718108 L145.16144,21.8772162 L145.16144,21.1150541 C146.378236,19.388027 147.65144,17.5799189 148.972993,15.7150541 L148.972993,15.7474865 Z" id="Fill-45" fill="#C00F23" mask="url(#mask-2)"></path>
                </g>
                <path d="M105.048252,230.966256 L2.27176453,230.966256 C1.40159671,230.791538 0.84887901,229.992935 1.03660966,229.183834 C1.17035767,228.60719 1.65297853,228.158023 2.27176453,228.034296 L105.048252,228.034296 C105.91842,227.858828 106.775696,228.373983 106.963427,229.183834 C107.151157,229.992935 106.597634,230.791538 105.728272,230.966256 C105.504284,231.011248 105.272239,231.011248 105.048252,230.966256" id="Fill-48" fill="#C00F23"></path>
                <path d="M408.388568,231 L305.611432,231 C304.721922,231 304,230.328 304,229.5 C304,228.672 304.721922,228 305.611432,228 L408.388568,228 C409.278884,228 410,228.672 410,229.5 C410,230.328 409.278884,231 408.388568,231" id="Fill-50" fill="#C00F23"></path>
                <g id="Group-54">
                    <mask id="mask-4" fill="white">
                        <use xlink:href="#path-3"></use>
                    </mask>
                    <g id="Clip-53"></g>
                    <path d="M408.312086,3.5936 L1.60816471,3.5936 C0.719831373,3.5936 0.000321568627,2.8768 0.000321568627,1.9936 C0.000321568627,1.1104 0.719831373,0.3936 1.60816471,0.3936 L408.312086,0.3936 C409.199616,0.3936 409.919929,1.1104 409.919929,1.9936 C409.919929,2.8768 409.199616,3.5936 408.312086,3.5936" id="Fill-52" fill="#C00F23" mask="url(#mask-4)"></path>
                </g>
            </g>
        </g>
    </g>
</svg>