<?xml version="1.0" encoding="UTF-8"?>
<svg width="32px" height="32px" viewBox="0 0 32 32" version="1.1" xmlns="http://www.w3.org/2000/svg" xmlns:xlink="http://www.w3.org/1999/xlink">
    <!-- Generator: Sketch 50 (54983) - http://www.bohemiancoding.com/sketch -->
    <title>pix_plugins/mod/subpage/icon</title>
    <desc>Created with Sketch.</desc>
    <defs></defs>
    <g id="pix_plugins/mod/subpage/icon" stroke="none" stroke-width="1" fill="none" fill-rule="evenodd">
        <g id="circle_background"></g>
        <path d="M24.9821643,10.7856997 C25.5441069,10.7856997 26.0000226,11.2416154 26.0000226,11.8035581 L26.0000226,24.6964306 C26.0000226,25.2583732 25.5441069,25.7142889 24.9821643,25.7142889 L14.8035807,25.7142889 C14.2416381,25.7142889 13.7857224,25.2583732 13.7857224,24.6964306 L13.7857224,21.6428555 L8.01785836,21.6428555 C7.45591572,21.6428555 7,21.1869398 7,20.6249972 L7,13.4999887 C7,12.938046 7.32868343,12.1534469 7.720983,11.7611473 L12.046881,7.4352493 C12.4391806,7.04294973 13.2237797,6.7142663 13.7857224,6.7142663 L18.1964419,6.7142663 C18.7583846,6.7142663 19.2143003,7.17018202 19.2143003,7.73212466 L19.2143003,11.2098074 C19.6278052,10.9659455 20.1579398,10.7856997 20.5714447,10.7856997 L24.9821643,10.7856997 Z M19.2143003,13.044073 L16.0440956,16.2142776 L19.2143003,16.2142776 L19.2143003,13.044073 Z M12.4285779,8.97263953 L9.25837323,12.1428442 L12.4285779,12.1428442 L12.4285779,8.97263953 Z M14.5067054,15.8325807 L17.8571558,12.4821303 L17.8571558,8.07141078 L13.7857224,8.07141078 L13.7857224,12.4821303 C13.7857224,13.044073 13.3298067,13.4999887 12.767864,13.4999887 L8.35714447,13.4999887 L8.35714447,20.2857111 L13.7857224,20.2857111 L13.7857224,17.5714221 C13.7857224,17.0094795 14.1144058,16.2248803 14.5067054,15.8325807 Z M24.6428782,24.3571445 L24.6428782,12.1428442 L20.5714447,12.1428442 L20.5714447,16.5535637 C20.5714447,17.1155064 20.115529,17.5714221 19.5535864,17.5714221 L15.1428668,17.5714221 L15.1428668,24.3571445 L24.6428782,24.3571445 Z" id="subpage" fill="#A22833"></path>
    </g>
</svg>