<?xml version="1.0" encoding="UTF-8"?>
<svg width="20px" height="20px" viewBox="0 0 20 20" version="1.1" xmlns="http://www.w3.org/2000/svg" xmlns:xlink="http://www.w3.org/1999/xlink">
    <!-- Generator: Sketch 50 (54983) - http://www.bohemiancoding.com/sketch -->
    <title>pix_plugins/mod/subpage/icon</title>
    <desc>Created with Sketch.</desc>
    <defs></defs>
    <g id="pix_plugins/mod/subpage/icon" stroke="none" stroke-width="1" fill="none" fill-rule="evenodd">
        <g id="circle_background" transform="translate(-6.000000, -6.000000)"></g>
        <path d="M18.482153,4.5714221 C19.0440956,4.5714221 19.5000113,5.02733782 19.5000113,5.58928046 L19.5000113,18.482153 C19.5000113,19.0440956 19.0440956,19.5000113 18.482153,19.5000113 L8.30356941,19.5000113 C7.74162677,19.5000113 7.28571105,19.0440956 7.28571105,18.482153 L7.28571105,15.4285779 L1.51784703,15.4285779 C0.955904397,15.4285779 0.499988675,14.9726622 0.499988675,14.4107195 L0.499988675,7.28571105 C0.499988675,6.72376842 0.828672103,5.93916927 1.22097168,5.54686969 L5.54686969,1.22097168 C5.93916927,0.828672103 6.72376842,0.499988675 7.28571105,0.499988675 L11.6964306,0.499988675 C12.2583732,0.499988675 12.7142889,0.955904397 12.7142889,1.51784703 L12.7142889,4.99552975 C13.1277939,4.75166785 13.6579285,4.5714221 14.0714334,4.5714221 L18.482153,4.5714221 Z M12.7142889,6.82979533 L9.54408428,10 L12.7142889,10 L12.7142889,6.82979533 Z M5.92856658,2.7583619 L2.7583619,5.92856658 L5.92856658,5.92856658 L5.92856658,2.7583619 Z M8.00669405,9.61830312 L11.3571445,6.26785269 L11.3571445,1.85713315 L7.28571105,1.85713315 L7.28571105,6.26785269 C7.28571105,6.82979533 6.82979533,7.28571105 6.26785269,7.28571105 L1.85713315,7.28571105 L1.85713315,14.0714334 L7.28571105,14.0714334 L7.28571105,11.3571445 C7.28571105,10.7952018 7.61439448,10.0106027 8.00669405,9.61830312 Z M18.1428668,18.1428668 L18.1428668,5.92856658 L14.0714334,5.92856658 L14.0714334,10.3392861 C14.0714334,10.9012288 13.6155177,11.3571445 13.0535751,11.3571445 L8.64285553,11.3571445 L8.64285553,18.1428668 L18.1428668,18.1428668 Z" id="subpage" fill="#A22833"></path>
    </g>
</svg>