<?xml version="1.0" encoding="UTF-8"?>
<svg width="20px" height="20px" viewBox="0 0 20 20" version="1.1" xmlns="http://www.w3.org/2000/svg" xmlns:xlink="http://www.w3.org/1999/xlink">
    <!-- Generator: Sketch 50 (54983) - http://www.bohemiancoding.com/sketch -->
    <title>pix_plugins/mod/subpage/stealth</title>
    <desc>Created with Sketch.</desc>
    <defs></defs>
    <g id="pix_plugins/mod/subpage/stealth" stroke="none" stroke-width="1" fill="none" fill-rule="evenodd">
        <g id="circle_background" transform="translate(-6.000000, -6.000000)"></g>
        <path d="M1.0105134,-0.140000343 L1.0105134,0.552593063 L1.0105134,17.1748348 L1.0105134,17.8674282 L1.70310681,17.8674282 L8.19616999,17.8674282 L7.95809101,19.1227538 L7.74165557,20.1400003 L8.75890214,19.9235649 L11.1829791,19.4474069 L11.3994145,19.4041198 L11.5509193,19.252615 L18.3902792,12.3916116 C19.1892224,11.5926684 19.1892224,10.2903199 18.3902792,9.49137672 C17.9908073,9.09190477 17.47011,8.88535749 16.9401618,8.88535749 C16.4102135,8.88535749 15.8895163,9.09190477 15.4900443,9.49137672 L14.8623815,10.1190395 L14.8623815,4.7081535 L14.8623815,4.42678743 L14.6675896,4.21035199 L10.5120292,0.0547915523 L10.2955938,-0.140000343 L10.0142277,-0.140000343 L1.70310681,-0.140000343 L1.0105134,-0.140000343 Z M2.39570021,1.24518647 L9.32163428,1.24518647 L9.32163428,4.7081535 L9.32163428,5.40074691 L10.0142277,5.40074691 L13.4771947,5.40074691 L13.4771947,11.5042263 L8.62904087,16.3307366 L8.47753607,16.4822414 L2.39570021,16.4822414 L2.39570021,1.24518647 Z M10.7068211,2.24078949 L12.4815917,4.0155601 L10.7068211,4.0155601 L10.7068211,2.24078949 Z M16.9401618,10.2272572 C17.1028069,10.2272572 17.2617169,10.3107334 17.4163197,10.4653362 C17.725526,10.7745424 17.725526,11.1084459 17.4163197,11.4176521 L10.7068211,18.1271508 L9.51642618,18.3652297 L9.75450516,17.1748348 L16.4207167,10.4869797 L16.4640038,10.4653362 C16.6186066,10.3107334 16.7775166,10.2272572 16.9401618,10.2272572 Z" id="Shape" fill="#A22833" fill-rule="nonzero"></path>
    </g>
</svg>