<?xml version="1.0" encoding="UTF-8"?>
<svg width="32px" height="32px" viewBox="0 0 32 32" version="1.1" xmlns="http://www.w3.org/2000/svg" xmlns:xlink="http://www.w3.org/1999/xlink">
    <!-- Generator: Sketch 50 (54983) - http://www.bohemiancoding.com/sketch -->
    <title>pix_plugins/mod/subpage/unstealth</title>
    <desc>Created with Sketch.</desc>
    <defs></defs>
    <g id="pix_plugins/mod/subpage/unstealth" stroke="none" stroke-width="1" fill="none" fill-rule="evenodd">
        <g id="circle_background"></g>
        <path d="M7,6 L7,6.69259341 L7,23.3148352 L7,24.0074286 L7.69259341,24.0074286 L14.1856566,24.0074286 L13.9475776,25.2627541 L13.7311422,26.2800007 L14.7483887,26.0635652 L17.1724657,25.5874073 L17.3889011,25.5441202 L17.5404059,25.3926154 L24.3797658,18.531612 C25.178709,17.7326687 25.178709,16.4303203 24.3797658,15.6313771 C23.9802938,15.2319051 23.4595966,15.0253578 22.9296484,15.0253578 C22.3997001,15.0253578 21.8790029,15.2319051 21.4795309,15.6313771 L20.8518681,16.2590398 L20.8518681,10.8481538 L20.8518681,10.5667878 L20.6570762,10.3503523 L16.5015158,6.1947919 L16.2850804,6 L16.0037143,6 L7.69259341,6 L7,6 Z M8.38518681,7.38518681 L15.3111209,7.38518681 L15.3111209,10.8481538 L15.3111209,11.5407473 L16.0037143,11.5407473 L19.4666813,11.5407473 L19.4666813,17.6442266 L14.6185275,22.470737 L14.4670227,22.6222418 L8.38518681,22.6222418 L8.38518681,7.38518681 Z M16.6963077,8.38078984 L18.4710783,10.1555604 L16.6963077,10.1555604 L16.6963077,8.38078984 Z M22.9296484,16.3672576 C23.0922935,16.3672576 23.2512035,16.4507338 23.4058063,16.6053365 C23.7150126,16.9145428 23.7150126,17.2484462 23.4058063,17.5576525 L16.6963077,24.2671511 L15.5059128,24.5052301 L15.7439918,23.3148352 L22.4102033,16.6269801 L22.4534904,16.6053365 C22.6080932,16.4507338 22.7670032,16.3672576 22.9296484,16.3672576 Z" id="Shape" fill="#A22833" fill-rule="nonzero"></path>
    </g>
</svg>